<?xml version="1.0" encoding="utf-8" standalone="no"?>
<!DOCTYPE svg PUBLIC "-//W3C//DTD SVG 1.1//EN"
  "http://www.w3.org/Graphics/SVG/1.1/DTD/svg11.dtd">
<svg xmlns:xlink="http://www.w3.org/1999/xlink" width="576pt" height="432pt" viewBox="0 0 576 432" xmlns="http://www.w3.org/2000/svg" version="1.1">
 <metadata>
  <rdf:RDF xmlns:dc="http://purl.org/dc/elements/1.1/" xmlns:cc="http://creativecommons.org/ns#" xmlns:rdf="http://www.w3.org/1999/02/22-rdf-syntax-ns#">
   <cc:Work>
    <dc:type rdf:resource="http://purl.org/dc/dcmitype/StillImage"/>
    <dc:date>2025-07-04T17:50:29.827217</dc:date>
    <dc:format>image/svg+xml</dc:format>
    <dc:creator>
     <cc:Agent>
      <dc:title>Matplotlib v3.10.0, https://matplotlib.org/</dc:title>
     </cc:Agent>
    </dc:creator>
   </cc:Work>
  </rdf:RDF>
 </metadata>
 <defs>
  <style type="text/css">*{stroke-linejoin: round; stroke-linecap: butt}</style>
 </defs>
 <g id="figure_1">
  <g id="patch_1">
   <path d="M 0 432 
L 576 432 
L 576 0 
L 0 0 
z
" style="fill: #ffffff"/>
  </g>
  <g id="axes_1">
   <g id="patch_2">
    <path d="M 68.208 387.012 
L 565.632 387.012 
L 565.632 27.168 
L 68.208 27.168 
z
" style="fill: #ffffff"/>
   </g>
   <g id="patch_3">
    <path d="M 68.208 391.07649 
L 565.632 391.07649 
L 565.632 200.288683 
L 68.208 200.288683 
z
" clip-path="url(#p3db534cb43)" style="fill: #ff5714; opacity: 0.08; stroke: #ff5714; stroke-width: 0.8; stroke-linejoin: miter"/>
   </g>
   <g id="patch_4">
    <path d="M 68.208 200.288683 
L 565.632 200.288683 
L 565.632 26.974453 
L 68.208 26.974453 
z
" clip-path="url(#p3db534cb43)" style="fill: #04e762; opacity: 0.08; stroke: #04e762; stroke-width: 0.8; stroke-linejoin: miter"/>
   </g>
   <g id="matplotlib.axis_1">
    <g id="xtick_1">
     <g id="text_1">
      <!-- −0.20 -->
      <g style="fill: #262626" transform="translate(115.245018 401.998625) scale(0.088 -0.088)">
       <defs>
        <path id="DejaVuSans-2212" d="M 678 2272 
L 4684 2272 
L 4684 1741 
L 678 1741 
L 678 2272 
z
" transform="scale(0.015625)"/>
        <path id="DejaVuSans-30" d="M 2034 4250 
Q 1547 4250 1301 3770 
Q 1056 3291 1056 2328 
Q 1056 1369 1301 889 
Q 1547 409 2034 409 
Q 2525 409 2770 889 
Q 3016 1369 3016 2328 
Q 3016 3291 2770 3770 
Q 2525 4250 2034 4250 
z
M 2034 4750 
Q 2819 4750 3233 4129 
Q 3647 3509 3647 2328 
Q 3647 1150 3233 529 
Q 2819 -91 2034 -91 
Q 1250 -91 836 529 
Q 422 1150 422 2328 
Q 422 3509 836 4129 
Q 1250 4750 2034 4750 
z
" transform="scale(0.015625)"/>
        <path id="DejaVuSans-2e" d="M 684 794 
L 1344 794 
L 1344 0 
L 684 0 
L 684 794 
z
" transform="scale(0.015625)"/>
        <path id="DejaVuSans-32" d="M 1228 531 
L 3431 531 
L 3431 0 
L 469 0 
L 469 531 
Q 828 903 1448 1529 
Q 2069 2156 2228 2338 
Q 2531 2678 2651 2914 
Q 2772 3150 2772 3378 
Q 2772 3750 2511 3984 
Q 2250 4219 1831 4219 
Q 1534 4219 1204 4116 
Q 875 4013 500 3803 
L 500 4441 
Q 881 4594 1212 4672 
Q 1544 4750 1819 4750 
Q 2544 4750 2975 4387 
Q 3406 4025 3406 3419 
Q 3406 3131 3298 2873 
Q 3191 2616 2906 2266 
Q 2828 2175 2409 1742 
Q 1991 1309 1228 531 
z
" transform="scale(0.015625)"/>
       </defs>
       <use xlink:href="#DejaVuSans-2212"/>
       <use xlink:href="#DejaVuSans-30" transform="translate(83.789062 0)"/>
       <use xlink:href="#DejaVuSans-2e" transform="translate(147.412109 0)"/>
       <use xlink:href="#DejaVuSans-32" transform="translate(179.199219 0)"/>
       <use xlink:href="#DejaVuSans-30" transform="translate(242.822266 0)"/>
      </g>
     </g>
    </g>
    <g id="xtick_2">
     <g id="text_2">
      <!-- −0.15 -->
      <g style="fill: #262626" transform="translate(184.748096 401.998625) scale(0.088 -0.088)">
       <defs>
        <path id="DejaVuSans-31" d="M 794 531 
L 1825 531 
L 1825 4091 
L 703 3866 
L 703 4441 
L 1819 4666 
L 2450 4666 
L 2450 531 
L 3481 531 
L 3481 0 
L 794 0 
L 794 531 
z
" transform="scale(0.015625)"/>
        <path id="DejaVuSans-35" d="M 691 4666 
L 3169 4666 
L 3169 4134 
L 1269 4134 
L 1269 2991 
Q 1406 3038 1543 3061 
Q 1681 3084 1819 3084 
Q 2600 3084 3056 2656 
Q 3513 2228 3513 1497 
Q 3513 744 3044 326 
Q 2575 -91 1722 -91 
Q 1428 -91 1123 -41 
Q 819 9 494 109 
L 494 744 
Q 775 591 1075 516 
Q 1375 441 1709 441 
Q 2250 441 2565 725 
Q 2881 1009 2881 1497 
Q 2881 1984 2565 2268 
Q 2250 2553 1709 2553 
Q 1456 2553 1204 2497 
Q 953 2441 691 2322 
L 691 4666 
z
" transform="scale(0.015625)"/>
       </defs>
       <use xlink:href="#DejaVuSans-2212"/>
       <use xlink:href="#DejaVuSans-30" transform="translate(83.789062 0)"/>
       <use xlink:href="#DejaVuSans-2e" transform="translate(147.412109 0)"/>
       <use xlink:href="#DejaVuSans-31" transform="translate(179.199219 0)"/>
       <use xlink:href="#DejaVuSans-35" transform="translate(242.822266 0)"/>
      </g>
     </g>
    </g>
    <g id="xtick_3">
     <g id="text_3">
      <!-- −0.10 -->
      <g style="fill: #262626" transform="translate(254.251174 401.998625) scale(0.088 -0.088)">
       <use xlink:href="#DejaVuSans-2212"/>
       <use xlink:href="#DejaVuSans-30" transform="translate(83.789062 0)"/>
       <use xlink:href="#DejaVuSans-2e" transform="translate(147.412109 0)"/>
       <use xlink:href="#DejaVuSans-31" transform="translate(179.199219 0)"/>
       <use xlink:href="#DejaVuSans-30" transform="translate(242.822266 0)"/>
      </g>
     </g>
    </g>
    <g id="xtick_4">
     <g id="text_4">
      <!-- −0.05 -->
      <g style="fill: #262626" transform="translate(323.754252 401.998625) scale(0.088 -0.088)">
       <use xlink:href="#DejaVuSans-2212"/>
       <use xlink:href="#DejaVuSans-30" transform="translate(83.789062 0)"/>
       <use xlink:href="#DejaVuSans-2e" transform="translate(147.412109 0)"/>
       <use xlink:href="#DejaVuSans-30" transform="translate(179.199219 0)"/>
       <use xlink:href="#DejaVuSans-35" transform="translate(242.822266 0)"/>
      </g>
     </g>
    </g>
    <g id="xtick_5">
     <g id="text_5">
      <!-- 0.00 -->
      <g style="fill: #262626" transform="translate(396.944392 401.998625) scale(0.088 -0.088)">
       <use xlink:href="#DejaVuSans-30"/>
       <use xlink:href="#DejaVuSans-2e" transform="translate(63.623047 0)"/>
       <use xlink:href="#DejaVuSans-30" transform="translate(95.410156 0)"/>
       <use xlink:href="#DejaVuSans-30" transform="translate(159.033203 0)"/>
      </g>
     </g>
    </g>
    <g id="xtick_6">
     <g id="text_6">
      <!-- 0.05 -->
      <g style="fill: #262626" transform="translate(466.44747 401.998625) scale(0.088 -0.088)">
       <use xlink:href="#DejaVuSans-30"/>
       <use xlink:href="#DejaVuSans-2e" transform="translate(63.623047 0)"/>
       <use xlink:href="#DejaVuSans-30" transform="translate(95.410156 0)"/>
       <use xlink:href="#DejaVuSans-35" transform="translate(159.033203 0)"/>
      </g>
     </g>
    </g>
    <g id="xtick_7">
     <g id="text_7">
      <!-- 0.10 -->
      <g style="fill: #262626" transform="translate(535.950548 401.998625) scale(0.088 -0.088)">
       <use xlink:href="#DejaVuSans-30"/>
       <use xlink:href="#DejaVuSans-2e" transform="translate(63.623047 0)"/>
       <use xlink:href="#DejaVuSans-31" transform="translate(95.410156 0)"/>
       <use xlink:href="#DejaVuSans-30" transform="translate(159.033203 0)"/>
      </g>
     </g>
    </g>
    <g id="text_8">
     <!-- Actual MoCA Ratio -->
     <g style="fill: #262626" transform="translate(261.765937 416.946875) scale(0.12 -0.12)">
      <defs>
       <path id="DejaVuSans-41" d="M 2188 4044 
L 1331 1722 
L 3047 1722 
L 2188 4044 
z
M 1831 4666 
L 2547 4666 
L 4325 0 
L 3669 0 
L 3244 1197 
L 1141 1197 
L 716 0 
L 50 0 
L 1831 4666 
z
" transform="scale(0.015625)"/>
       <path id="DejaVuSans-63" d="M 3122 3366 
L 3122 2828 
Q 2878 2963 2633 3030 
Q 2388 3097 2138 3097 
Q 1578 3097 1268 2742 
Q 959 2388 959 1747 
Q 959 1106 1268 751 
Q 1578 397 2138 397 
Q 2388 397 2633 464 
Q 2878 531 3122 666 
L 3122 134 
Q 2881 22 2623 -34 
Q 2366 -91 2075 -91 
Q 1284 -91 818 406 
Q 353 903 353 1747 
Q 353 2603 823 3093 
Q 1294 3584 2113 3584 
Q 2378 3584 2631 3529 
Q 2884 3475 3122 3366 
z
" transform="scale(0.015625)"/>
       <path id="DejaVuSans-74" d="M 1172 4494 
L 1172 3500 
L 2356 3500 
L 2356 3053 
L 1172 3053 
L 1172 1153 
Q 1172 725 1289 603 
Q 1406 481 1766 481 
L 2356 481 
L 2356 0 
L 1766 0 
Q 1100 0 847 248 
Q 594 497 594 1153 
L 594 3053 
L 172 3053 
L 172 3500 
L 594 3500 
L 594 4494 
L 1172 4494 
z
" transform="scale(0.015625)"/>
       <path id="DejaVuSans-75" d="M 544 1381 
L 544 3500 
L 1119 3500 
L 1119 1403 
Q 1119 906 1312 657 
Q 1506 409 1894 409 
Q 2359 409 2629 706 
Q 2900 1003 2900 1516 
L 2900 3500 
L 3475 3500 
L 3475 0 
L 2900 0 
L 2900 538 
Q 2691 219 2414 64 
Q 2138 -91 1772 -91 
Q 1169 -91 856 284 
Q 544 659 544 1381 
z
M 1991 3584 
L 1991 3584 
z
" transform="scale(0.015625)"/>
       <path id="DejaVuSans-61" d="M 2194 1759 
Q 1497 1759 1228 1600 
Q 959 1441 959 1056 
Q 959 750 1161 570 
Q 1363 391 1709 391 
Q 2188 391 2477 730 
Q 2766 1069 2766 1631 
L 2766 1759 
L 2194 1759 
z
M 3341 1997 
L 3341 0 
L 2766 0 
L 2766 531 
Q 2569 213 2275 61 
Q 1981 -91 1556 -91 
Q 1019 -91 701 211 
Q 384 513 384 1019 
Q 384 1609 779 1909 
Q 1175 2209 1959 2209 
L 2766 2209 
L 2766 2266 
Q 2766 2663 2505 2880 
Q 2244 3097 1772 3097 
Q 1472 3097 1187 3025 
Q 903 2953 641 2809 
L 641 3341 
Q 956 3463 1253 3523 
Q 1550 3584 1831 3584 
Q 2591 3584 2966 3190 
Q 3341 2797 3341 1997 
z
" transform="scale(0.015625)"/>
       <path id="DejaVuSans-6c" d="M 603 4863 
L 1178 4863 
L 1178 0 
L 603 0 
L 603 4863 
z
" transform="scale(0.015625)"/>
       <path id="DejaVuSans-20" transform="scale(0.015625)"/>
       <path id="DejaVuSans-4d" d="M 628 4666 
L 1569 4666 
L 2759 1491 
L 3956 4666 
L 4897 4666 
L 4897 0 
L 4281 0 
L 4281 4097 
L 3078 897 
L 2444 897 
L 1241 4097 
L 1241 0 
L 628 0 
L 628 4666 
z
" transform="scale(0.015625)"/>
       <path id="DejaVuSans-6f" d="M 1959 3097 
Q 1497 3097 1228 2736 
Q 959 2375 959 1747 
Q 959 1119 1226 758 
Q 1494 397 1959 397 
Q 2419 397 2687 759 
Q 2956 1122 2956 1747 
Q 2956 2369 2687 2733 
Q 2419 3097 1959 3097 
z
M 1959 3584 
Q 2709 3584 3137 3096 
Q 3566 2609 3566 1747 
Q 3566 888 3137 398 
Q 2709 -91 1959 -91 
Q 1206 -91 779 398 
Q 353 888 353 1747 
Q 353 2609 779 3096 
Q 1206 3584 1959 3584 
z
" transform="scale(0.015625)"/>
       <path id="DejaVuSans-43" d="M 4122 4306 
L 4122 3641 
Q 3803 3938 3442 4084 
Q 3081 4231 2675 4231 
Q 1875 4231 1450 3742 
Q 1025 3253 1025 2328 
Q 1025 1406 1450 917 
Q 1875 428 2675 428 
Q 3081 428 3442 575 
Q 3803 722 4122 1019 
L 4122 359 
Q 3791 134 3420 21 
Q 3050 -91 2638 -91 
Q 1578 -91 968 557 
Q 359 1206 359 2328 
Q 359 3453 968 4101 
Q 1578 4750 2638 4750 
Q 3056 4750 3426 4639 
Q 3797 4528 4122 4306 
z
" transform="scale(0.015625)"/>
       <path id="DejaVuSans-52" d="M 2841 2188 
Q 3044 2119 3236 1894 
Q 3428 1669 3622 1275 
L 4263 0 
L 3584 0 
L 2988 1197 
Q 2756 1666 2539 1819 
Q 2322 1972 1947 1972 
L 1259 1972 
L 1259 0 
L 628 0 
L 628 4666 
L 2053 4666 
Q 2853 4666 3247 4331 
Q 3641 3997 3641 3322 
Q 3641 2881 3436 2590 
Q 3231 2300 2841 2188 
z
M 1259 4147 
L 1259 2491 
L 2053 2491 
Q 2509 2491 2742 2702 
Q 2975 2913 2975 3322 
Q 2975 3731 2742 3939 
Q 2509 4147 2053 4147 
L 1259 4147 
z
" transform="scale(0.015625)"/>
       <path id="DejaVuSans-69" d="M 603 3500 
L 1178 3500 
L 1178 0 
L 603 0 
L 603 3500 
z
M 603 4863 
L 1178 4863 
L 1178 4134 
L 603 4134 
L 603 4863 
z
" transform="scale(0.015625)"/>
      </defs>
      <use xlink:href="#DejaVuSans-41"/>
      <use xlink:href="#DejaVuSans-63" transform="translate(66.658203 0)"/>
      <use xlink:href="#DejaVuSans-74" transform="translate(121.638672 0)"/>
      <use xlink:href="#DejaVuSans-75" transform="translate(160.847656 0)"/>
      <use xlink:href="#DejaVuSans-61" transform="translate(224.226562 0)"/>
      <use xlink:href="#DejaVuSans-6c" transform="translate(285.505859 0)"/>
      <use xlink:href="#DejaVuSans-20" transform="translate(313.289062 0)"/>
      <use xlink:href="#DejaVuSans-4d" transform="translate(345.076172 0)"/>
      <use xlink:href="#DejaVuSans-6f" transform="translate(431.355469 0)"/>
      <use xlink:href="#DejaVuSans-43" transform="translate(492.537109 0)"/>
      <use xlink:href="#DejaVuSans-41" transform="translate(562.361328 0)"/>
      <use xlink:href="#DejaVuSans-20" transform="translate(630.769531 0)"/>
      <use xlink:href="#DejaVuSans-52" transform="translate(662.556641 0)"/>
      <use xlink:href="#DejaVuSans-61" transform="translate(729.789062 0)"/>
      <use xlink:href="#DejaVuSans-74" transform="translate(791.068359 0)"/>
      <use xlink:href="#DejaVuSans-69" transform="translate(830.277344 0)"/>
      <use xlink:href="#DejaVuSans-6f" transform="translate(858.060547 0)"/>
     </g>
    </g>
   </g>
   <g id="matplotlib.axis_2">
    <g id="ytick_1">
     <g id="text_9">
      <!-- −0.100 -->
      <g style="fill: #262626" transform="translate(27.341125 383.100506) scale(0.088 -0.088)">
       <use xlink:href="#DejaVuSans-2212"/>
       <use xlink:href="#DejaVuSans-30" transform="translate(83.789062 0)"/>
       <use xlink:href="#DejaVuSans-2e" transform="translate(147.412109 0)"/>
       <use xlink:href="#DejaVuSans-31" transform="translate(179.199219 0)"/>
       <use xlink:href="#DejaVuSans-30" transform="translate(242.822266 0)"/>
       <use xlink:href="#DejaVuSans-30" transform="translate(306.445312 0)"/>
      </g>
     </g>
    </g>
    <g id="ytick_2">
     <g id="text_10">
      <!-- −0.075 -->
      <g style="fill: #262626" transform="translate(27.341125 338.233379) scale(0.088 -0.088)">
       <defs>
        <path id="DejaVuSans-37" d="M 525 4666 
L 3525 4666 
L 3525 4397 
L 1831 0 
L 1172 0 
L 2766 4134 
L 525 4134 
L 525 4666 
z
" transform="scale(0.015625)"/>
       </defs>
       <use xlink:href="#DejaVuSans-2212"/>
       <use xlink:href="#DejaVuSans-30" transform="translate(83.789062 0)"/>
       <use xlink:href="#DejaVuSans-2e" transform="translate(147.412109 0)"/>
       <use xlink:href="#DejaVuSans-30" transform="translate(179.199219 0)"/>
       <use xlink:href="#DejaVuSans-37" transform="translate(242.822266 0)"/>
       <use xlink:href="#DejaVuSans-35" transform="translate(306.445312 0)"/>
      </g>
     </g>
    </g>
    <g id="ytick_3">
     <g id="text_11">
      <!-- −0.050 -->
      <g style="fill: #262626" transform="translate(27.341125 293.366251) scale(0.088 -0.088)">
       <use xlink:href="#DejaVuSans-2212"/>
       <use xlink:href="#DejaVuSans-30" transform="translate(83.789062 0)"/>
       <use xlink:href="#DejaVuSans-2e" transform="translate(147.412109 0)"/>
       <use xlink:href="#DejaVuSans-30" transform="translate(179.199219 0)"/>
       <use xlink:href="#DejaVuSans-35" transform="translate(242.822266 0)"/>
       <use xlink:href="#DejaVuSans-30" transform="translate(306.445312 0)"/>
      </g>
     </g>
    </g>
    <g id="ytick_4">
     <g id="text_12">
      <!-- −0.025 -->
      <g style="fill: #262626" transform="translate(27.341125 248.499124) scale(0.088 -0.088)">
       <use xlink:href="#DejaVuSans-2212"/>
       <use xlink:href="#DejaVuSans-30" transform="translate(83.789062 0)"/>
       <use xlink:href="#DejaVuSans-2e" transform="translate(147.412109 0)"/>
       <use xlink:href="#DejaVuSans-30" transform="translate(179.199219 0)"/>
       <use xlink:href="#DejaVuSans-32" transform="translate(242.822266 0)"/>
       <use xlink:href="#DejaVuSans-35" transform="translate(306.445312 0)"/>
      </g>
     </g>
    </g>
    <g id="ytick_5">
     <g id="text_13">
      <!-- 0.000 -->
      <g style="fill: #262626" transform="translate(34.71525 203.631996) scale(0.088 -0.088)">
       <use xlink:href="#DejaVuSans-30"/>
       <use xlink:href="#DejaVuSans-2e" transform="translate(63.623047 0)"/>
       <use xlink:href="#DejaVuSans-30" transform="translate(95.410156 0)"/>
       <use xlink:href="#DejaVuSans-30" transform="translate(159.033203 0)"/>
       <use xlink:href="#DejaVuSans-30" transform="translate(222.65625 0)"/>
      </g>
     </g>
    </g>
    <g id="ytick_6">
     <g id="text_14">
      <!-- 0.025 -->
      <g style="fill: #262626" transform="translate(34.71525 158.764868) scale(0.088 -0.088)">
       <use xlink:href="#DejaVuSans-30"/>
       <use xlink:href="#DejaVuSans-2e" transform="translate(63.623047 0)"/>
       <use xlink:href="#DejaVuSans-30" transform="translate(95.410156 0)"/>
       <use xlink:href="#DejaVuSans-32" transform="translate(159.033203 0)"/>
       <use xlink:href="#DejaVuSans-35" transform="translate(222.65625 0)"/>
      </g>
     </g>
    </g>
    <g id="ytick_7">
     <g id="text_15">
      <!-- 0.050 -->
      <g style="fill: #262626" transform="translate(34.71525 113.897741) scale(0.088 -0.088)">
       <use xlink:href="#DejaVuSans-30"/>
       <use xlink:href="#DejaVuSans-2e" transform="translate(63.623047 0)"/>
       <use xlink:href="#DejaVuSans-30" transform="translate(95.410156 0)"/>
       <use xlink:href="#DejaVuSans-35" transform="translate(159.033203 0)"/>
       <use xlink:href="#DejaVuSans-30" transform="translate(222.65625 0)"/>
      </g>
     </g>
    </g>
    <g id="ytick_8">
     <g id="text_16">
      <!-- 0.075 -->
      <g style="fill: #262626" transform="translate(34.71525 69.030613) scale(0.088 -0.088)">
       <use xlink:href="#DejaVuSans-30"/>
       <use xlink:href="#DejaVuSans-2e" transform="translate(63.623047 0)"/>
       <use xlink:href="#DejaVuSans-30" transform="translate(95.410156 0)"/>
       <use xlink:href="#DejaVuSans-37" transform="translate(159.033203 0)"/>
       <use xlink:href="#DejaVuSans-35" transform="translate(222.65625 0)"/>
      </g>
     </g>
    </g>
    <g id="text_17">
     <!-- Predicted MoCA Ratio -->
     <g style="fill: #262626" transform="translate(20.8455 271.611562) rotate(-90) scale(0.12 -0.12)">
      <defs>
       <path id="DejaVuSans-50" d="M 1259 4147 
L 1259 2394 
L 2053 2394 
Q 2494 2394 2734 2622 
Q 2975 2850 2975 3272 
Q 2975 3691 2734 3919 
Q 2494 4147 2053 4147 
L 1259 4147 
z
M 628 4666 
L 2053 4666 
Q 2838 4666 3239 4311 
Q 3641 3956 3641 3272 
Q 3641 2581 3239 2228 
Q 2838 1875 2053 1875 
L 1259 1875 
L 1259 0 
L 628 0 
L 628 4666 
z
" transform="scale(0.015625)"/>
       <path id="DejaVuSans-72" d="M 2631 2963 
Q 2534 3019 2420 3045 
Q 2306 3072 2169 3072 
Q 1681 3072 1420 2755 
Q 1159 2438 1159 1844 
L 1159 0 
L 581 0 
L 581 3500 
L 1159 3500 
L 1159 2956 
Q 1341 3275 1631 3429 
Q 1922 3584 2338 3584 
Q 2397 3584 2469 3576 
Q 2541 3569 2628 3553 
L 2631 2963 
z
" transform="scale(0.015625)"/>
       <path id="DejaVuSans-65" d="M 3597 1894 
L 3597 1613 
L 953 1613 
Q 991 1019 1311 708 
Q 1631 397 2203 397 
Q 2534 397 2845 478 
Q 3156 559 3463 722 
L 3463 178 
Q 3153 47 2828 -22 
Q 2503 -91 2169 -91 
Q 1331 -91 842 396 
Q 353 884 353 1716 
Q 353 2575 817 3079 
Q 1281 3584 2069 3584 
Q 2775 3584 3186 3129 
Q 3597 2675 3597 1894 
z
M 3022 2063 
Q 3016 2534 2758 2815 
Q 2500 3097 2075 3097 
Q 1594 3097 1305 2825 
Q 1016 2553 972 2059 
L 3022 2063 
z
" transform="scale(0.015625)"/>
       <path id="DejaVuSans-64" d="M 2906 2969 
L 2906 4863 
L 3481 4863 
L 3481 0 
L 2906 0 
L 2906 525 
Q 2725 213 2448 61 
Q 2172 -91 1784 -91 
Q 1150 -91 751 415 
Q 353 922 353 1747 
Q 353 2572 751 3078 
Q 1150 3584 1784 3584 
Q 2172 3584 2448 3432 
Q 2725 3281 2906 2969 
z
M 947 1747 
Q 947 1113 1208 752 
Q 1469 391 1925 391 
Q 2381 391 2643 752 
Q 2906 1113 2906 1747 
Q 2906 2381 2643 2742 
Q 2381 3103 1925 3103 
Q 1469 3103 1208 2742 
Q 947 2381 947 1747 
z
" transform="scale(0.015625)"/>
      </defs>
      <use xlink:href="#DejaVuSans-50"/>
      <use xlink:href="#DejaVuSans-72" transform="translate(58.552734 0)"/>
      <use xlink:href="#DejaVuSans-65" transform="translate(97.416016 0)"/>
      <use xlink:href="#DejaVuSans-64" transform="translate(158.939453 0)"/>
      <use xlink:href="#DejaVuSans-69" transform="translate(222.416016 0)"/>
      <use xlink:href="#DejaVuSans-63" transform="translate(250.199219 0)"/>
      <use xlink:href="#DejaVuSans-74" transform="translate(305.179688 0)"/>
      <use xlink:href="#DejaVuSans-65" transform="translate(344.388672 0)"/>
      <use xlink:href="#DejaVuSans-64" transform="translate(405.912109 0)"/>
      <use xlink:href="#DejaVuSans-20" transform="translate(469.388672 0)"/>
      <use xlink:href="#DejaVuSans-4d" transform="translate(501.175781 0)"/>
      <use xlink:href="#DejaVuSans-6f" transform="translate(587.455078 0)"/>
      <use xlink:href="#DejaVuSans-43" transform="translate(648.636719 0)"/>
      <use xlink:href="#DejaVuSans-41" transform="translate(718.460938 0)"/>
      <use xlink:href="#DejaVuSans-20" transform="translate(786.869141 0)"/>
      <use xlink:href="#DejaVuSans-52" transform="translate(818.65625 0)"/>
      <use xlink:href="#DejaVuSans-61" transform="translate(885.888672 0)"/>
      <use xlink:href="#DejaVuSans-74" transform="translate(947.167969 0)"/>
      <use xlink:href="#DejaVuSans-69" transform="translate(986.376953 0)"/>
      <use xlink:href="#DejaVuSans-6f" transform="translate(1014.160156 0)"/>
     </g>
    </g>
   </g>
   <g id="PathCollection_1">
    <defs>
     <path id="mdea16590e0" d="M 0 2.4 
C 0.636487 2.4 1.246992 2.147121 1.697056 1.697056 
C 2.147121 1.246992 2.4 0.636487 2.4 0 
C 2.4 -0.636487 2.147121 -1.246992 1.697056 -1.697056 
C 1.246992 -2.147121 0.636487 -2.4 0 -2.4 
C -0.636487 -2.4 -1.246992 -2.147121 -1.697056 -1.697056 
C -2.147121 -1.246992 -2.4 -0.636487 -2.4 0 
C -2.4 0.636487 -2.147121 1.246992 -1.697056 1.697056 
C -1.246992 2.147121 -0.636487 2.4 0 2.4 
z
" style="stroke: #ffffff; stroke-opacity: 0.7; stroke-width: 0.384"/>
    </defs>
    <g clip-path="url(#p3db534cb43)">
     <use xlink:href="#mdea16590e0" x="431.128313" y="165.883589" style="fill: #4c72b0; fill-opacity: 0.7; stroke: #ffffff; stroke-opacity: 0.7; stroke-width: 0.384"/>
     <use xlink:href="#mdea16590e0" x="381.467418" y="282.2077" style="fill: #4c72b0; fill-opacity: 0.7; stroke: #ffffff; stroke-opacity: 0.7; stroke-width: 0.384"/>
     <use xlink:href="#mdea16590e0" x="290.902809" y="287.022158" style="fill: #4c72b0; fill-opacity: 0.7; stroke: #ffffff; stroke-opacity: 0.7; stroke-width: 0.384"/>
     <use xlink:href="#mdea16590e0" x="379.485163" y="149.781464" style="fill: #4c72b0; fill-opacity: 0.7; stroke: #ffffff; stroke-opacity: 0.7; stroke-width: 0.384"/>
     <use xlink:href="#mdea16590e0" x="90.818182" y="333.153014" style="fill: #4c72b0; fill-opacity: 0.7; stroke: #ffffff; stroke-opacity: 0.7; stroke-width: 0.384"/>
     <use xlink:href="#mdea16590e0" x="299.813451" y="248.057841" style="fill: #4c72b0; fill-opacity: 0.7; stroke: #ffffff; stroke-opacity: 0.7; stroke-width: 0.384"/>
     <use xlink:href="#mdea16590e0" x="543.021818" y="232.198534" style="fill: #4c72b0; fill-opacity: 0.7; stroke: #ffffff; stroke-opacity: 0.7; stroke-width: 0.384"/>
     <use xlink:href="#mdea16590e0" x="225.428894" y="310.299989" style="fill: #4c72b0; fill-opacity: 0.7; stroke: #ffffff; stroke-opacity: 0.7; stroke-width: 0.384"/>
     <use xlink:href="#mdea16590e0" x="469.92589" y="171.214873" style="fill: #4c72b0; fill-opacity: 0.7; stroke: #ffffff; stroke-opacity: 0.7; stroke-width: 0.384"/>
     <use xlink:href="#mdea16590e0" x="346.303809" y="346.553708" style="fill: #4c72b0; fill-opacity: 0.7; stroke: #ffffff; stroke-opacity: 0.7; stroke-width: 0.384"/>
     <use xlink:href="#mdea16590e0" x="430.301629" y="294.935435" style="fill: #4c72b0; fill-opacity: 0.7; stroke: #ffffff; stroke-opacity: 0.7; stroke-width: 0.384"/>
     <use xlink:href="#mdea16590e0" x="258.862376" y="348.719021" style="fill: #4c72b0; fill-opacity: 0.7; stroke: #ffffff; stroke-opacity: 0.7; stroke-width: 0.384"/>
     <use xlink:href="#mdea16590e0" x="406.741267" y="223.871966" style="fill: #4c72b0; fill-opacity: 0.7; stroke: #ffffff; stroke-opacity: 0.7; stroke-width: 0.384"/>
     <use xlink:href="#mdea16590e0" x="270.460716" y="232.496778" style="fill: #4c72b0; fill-opacity: 0.7; stroke: #ffffff; stroke-opacity: 0.7; stroke-width: 0.384"/>
     <use xlink:href="#mdea16590e0" x="280.372036" y="187.961553" style="fill: #4c72b0; fill-opacity: 0.7; stroke: #ffffff; stroke-opacity: 0.7; stroke-width: 0.384"/>
     <use xlink:href="#mdea16590e0" x="154.002804" y="316.950016" style="fill: #4c72b0; fill-opacity: 0.7; stroke: #ffffff; stroke-opacity: 0.7; stroke-width: 0.384"/>
     <use xlink:href="#mdea16590e0" x="485.423992" y="200.319783" style="fill: #4c72b0; fill-opacity: 0.7; stroke: #ffffff; stroke-opacity: 0.7; stroke-width: 0.384"/>
     <use xlink:href="#mdea16590e0" x="328.058542" y="269.029383" style="fill: #4c72b0; fill-opacity: 0.7; stroke: #ffffff; stroke-opacity: 0.7; stroke-width: 0.384"/>
     <use xlink:href="#mdea16590e0" x="485.423992" y="131.239869" style="fill: #4c72b0; fill-opacity: 0.7; stroke: #ffffff; stroke-opacity: 0.7; stroke-width: 0.384"/>
     <use xlink:href="#mdea16590e0" x="309.760231" y="264.309179" style="fill: #4c72b0; fill-opacity: 0.7; stroke: #ffffff; stroke-opacity: 0.7; stroke-width: 0.384"/>
     <use xlink:href="#mdea16590e0" x="364.61819" y="123.313828" style="fill: #4c72b0; fill-opacity: 0.7; stroke: #ffffff; stroke-opacity: 0.7; stroke-width: 0.384"/>
     <use xlink:href="#mdea16590e0" x="223.148233" y="266.095683" style="fill: #4c72b0; fill-opacity: 0.7; stroke: #ffffff; stroke-opacity: 0.7; stroke-width: 0.384"/>
     <use xlink:href="#mdea16590e0" x="324.972939" y="214.783034" style="fill: #4c72b0; fill-opacity: 0.7; stroke: #ffffff; stroke-opacity: 0.7; stroke-width: 0.384"/>
     <use xlink:href="#mdea16590e0" x="303.77375" y="300.295642" style="fill: #4c72b0; fill-opacity: 0.7; stroke: #ffffff; stroke-opacity: 0.7; stroke-width: 0.384"/>
     <use xlink:href="#mdea16590e0" x="190.509463" y="320.870275" style="fill: #4c72b0; fill-opacity: 0.7; stroke: #ffffff; stroke-opacity: 0.7; stroke-width: 0.384"/>
     <use xlink:href="#mdea16590e0" x="454.674426" y="150.041245" style="fill: #4c72b0; fill-opacity: 0.7; stroke: #ffffff; stroke-opacity: 0.7; stroke-width: 0.384"/>
     <use xlink:href="#mdea16590e0" x="406.741267" y="184.584855" style="fill: #4c72b0; fill-opacity: 0.7; stroke: #ffffff; stroke-opacity: 0.7; stroke-width: 0.384"/>
     <use xlink:href="#mdea16590e0" x="456.386329" y="335.10499" style="fill: #4c72b0; fill-opacity: 0.7; stroke: #ffffff; stroke-opacity: 0.7; stroke-width: 0.384"/>
     <use xlink:href="#mdea16590e0" x="381.467418" y="257.640045" style="fill: #4c72b0; fill-opacity: 0.7; stroke: #ffffff; stroke-opacity: 0.7; stroke-width: 0.384"/>
     <use xlink:href="#mdea16590e0" x="280.372036" y="297.561484" style="fill: #4c72b0; fill-opacity: 0.7; stroke: #ffffff; stroke-opacity: 0.7; stroke-width: 0.384"/>
     <use xlink:href="#mdea16590e0" x="543.021818" y="43.524545" style="fill: #4c72b0; fill-opacity: 0.7; stroke: #ffffff; stroke-opacity: 0.7; stroke-width: 0.384"/>
     <use xlink:href="#mdea16590e0" x="406.741267" y="157.38461" style="fill: #4c72b0; fill-opacity: 0.7; stroke: #ffffff; stroke-opacity: 0.7; stroke-width: 0.384"/>
     <use xlink:href="#mdea16590e0" x="208.161048" y="300.187948" style="fill: #4c72b0; fill-opacity: 0.7; stroke: #ffffff; stroke-opacity: 0.7; stroke-width: 0.384"/>
     <use xlink:href="#mdea16590e0" x="433.997372" y="248.467146" style="fill: #4c72b0; fill-opacity: 0.7; stroke: #ffffff; stroke-opacity: 0.7; stroke-width: 0.384"/>
     <use xlink:href="#mdea16590e0" x="330.919734" y="290.826111" style="fill: #4c72b0; fill-opacity: 0.7; stroke: #ffffff; stroke-opacity: 0.7; stroke-width: 0.384"/>
     <use xlink:href="#mdea16590e0" x="485.423992" y="253.010809" style="fill: #4c72b0; fill-opacity: 0.7; stroke: #ffffff; stroke-opacity: 0.7; stroke-width: 0.384"/>
     <use xlink:href="#mdea16590e0" x="462.34373" y="136.306032" style="fill: #4c72b0; fill-opacity: 0.7; stroke: #ffffff; stroke-opacity: 0.7; stroke-width: 0.384"/>
     <use xlink:href="#mdea16590e0" x="543.021818" y="153.880436" style="fill: #4c72b0; fill-opacity: 0.7; stroke: #ffffff; stroke-opacity: 0.7; stroke-width: 0.384"/>
     <use xlink:href="#mdea16590e0" x="454.674426" y="175.950407" style="fill: #4c72b0; fill-opacity: 0.7; stroke: #ffffff; stroke-opacity: 0.7; stroke-width: 0.384"/>
     <use xlink:href="#mdea16590e0" x="358.808108" y="316.814948" style="fill: #4c72b0; fill-opacity: 0.7; stroke: #ffffff; stroke-opacity: 0.7; stroke-width: 0.384"/>
     <use xlink:href="#mdea16590e0" x="458.225033" y="239.483636" style="fill: #4c72b0; fill-opacity: 0.7; stroke: #ffffff; stroke-opacity: 0.7; stroke-width: 0.384"/>
     <use xlink:href="#mdea16590e0" x="431.128313" y="236.676438" style="fill: #4c72b0; fill-opacity: 0.7; stroke: #ffffff; stroke-opacity: 0.7; stroke-width: 0.384"/>
     <use xlink:href="#mdea16590e0" x="348.822031" y="178.547523" style="fill: #4c72b0; fill-opacity: 0.7; stroke: #ffffff; stroke-opacity: 0.7; stroke-width: 0.384"/>
     <use xlink:href="#mdea16590e0" x="430.301629" y="310.43572" style="fill: #4c72b0; fill-opacity: 0.7; stroke: #ffffff; stroke-opacity: 0.7; stroke-width: 0.384"/>
     <use xlink:href="#mdea16590e0" x="382.354222" y="202.926562" style="fill: #4c72b0; fill-opacity: 0.7; stroke: #ffffff; stroke-opacity: 0.7; stroke-width: 0.384"/>
     <use xlink:href="#mdea16590e0" x="381.467418" y="292.33502" style="fill: #4c72b0; fill-opacity: 0.7; stroke: #ffffff; stroke-opacity: 0.7; stroke-width: 0.384"/>
     <use xlink:href="#mdea16590e0" x="232.983572" y="310.035612" style="fill: #4c72b0; fill-opacity: 0.7; stroke: #ffffff; stroke-opacity: 0.7; stroke-width: 0.384"/>
     <use xlink:href="#mdea16590e0" x="299.813451" y="233.16728" style="fill: #4c72b0; fill-opacity: 0.7; stroke: #ffffff; stroke-opacity: 0.7; stroke-width: 0.384"/>
     <use xlink:href="#mdea16590e0" x="454.674426" y="308.944571" style="fill: #4c72b0; fill-opacity: 0.7; stroke: #ffffff; stroke-opacity: 0.7; stroke-width: 0.384"/>
     <use xlink:href="#mdea16590e0" x="303.77375" y="338.145844" style="fill: #4c72b0; fill-opacity: 0.7; stroke: #ffffff; stroke-opacity: 0.7; stroke-width: 0.384"/>
     <use xlink:href="#mdea16590e0" x="406.741267" y="208.063834" style="fill: #4c72b0; fill-opacity: 0.7; stroke: #ffffff; stroke-opacity: 0.7; stroke-width: 0.384"/>
     <use xlink:href="#mdea16590e0" x="406.741267" y="248.656153" style="fill: #4c72b0; fill-opacity: 0.7; stroke: #ffffff; stroke-opacity: 0.7; stroke-width: 0.384"/>
     <use xlink:href="#mdea16590e0" x="353.277359" y="224.888972" style="fill: #4c72b0; fill-opacity: 0.7; stroke: #ffffff; stroke-opacity: 0.7; stroke-width: 0.384"/>
     <use xlink:href="#mdea16590e0" x="430.301629" y="247.502355" style="fill: #4c72b0; fill-opacity: 0.7; stroke: #ffffff; stroke-opacity: 0.7; stroke-width: 0.384"/>
     <use xlink:href="#mdea16590e0" x="275.603388" y="370.655455" style="fill: #4c72b0; fill-opacity: 0.7; stroke: #ffffff; stroke-opacity: 0.7; stroke-width: 0.384"/>
     <use xlink:href="#mdea16590e0" x="406.741267" y="170.086596" style="fill: #4c72b0; fill-opacity: 0.7; stroke: #ffffff; stroke-opacity: 0.7; stroke-width: 0.384"/>
     <use xlink:href="#mdea16590e0" x="430.301629" y="213.60932" style="fill: #4c72b0; fill-opacity: 0.7; stroke: #ffffff; stroke-opacity: 0.7; stroke-width: 0.384"/>
     <use xlink:href="#mdea16590e0" x="330.919734" y="212.516042" style="fill: #4c72b0; fill-opacity: 0.7; stroke: #ffffff; stroke-opacity: 0.7; stroke-width: 0.384"/>
     <use xlink:href="#mdea16590e0" x="357.096206" y="331.452754" style="fill: #4c72b0; fill-opacity: 0.7; stroke: #ffffff; stroke-opacity: 0.7; stroke-width: 0.384"/>
     <use xlink:href="#mdea16590e0" x="280.372036" y="238.737986" style="fill: #4c72b0; fill-opacity: 0.7; stroke: #ffffff; stroke-opacity: 0.7; stroke-width: 0.384"/>
     <use xlink:href="#mdea16590e0" x="333.580131" y="337.722689" style="fill: #4c72b0; fill-opacity: 0.7; stroke: #ffffff; stroke-opacity: 0.7; stroke-width: 0.384"/>
     <use xlink:href="#mdea16590e0" x="379.485163" y="195.444691" style="fill: #4c72b0; fill-opacity: 0.7; stroke: #ffffff; stroke-opacity: 0.7; stroke-width: 0.384"/>
     <use xlink:href="#mdea16590e0" x="358.808108" y="255.729971" style="fill: #4c72b0; fill-opacity: 0.7; stroke: #ffffff; stroke-opacity: 0.7; stroke-width: 0.384"/>
     <use xlink:href="#mdea16590e0" x="330.919734" y="315.446185" style="fill: #4c72b0; fill-opacity: 0.7; stroke: #ffffff; stroke-opacity: 0.7; stroke-width: 0.384"/>
     <use xlink:href="#mdea16590e0" x="406.741267" y="250.959213" style="fill: #4c72b0; fill-opacity: 0.7; stroke: #ffffff; stroke-opacity: 0.7; stroke-width: 0.384"/>
     <use xlink:href="#mdea16590e0" x="280.372036" y="267.994434" style="fill: #4c72b0; fill-opacity: 0.7; stroke: #ffffff; stroke-opacity: 0.7; stroke-width: 0.384"/>
     <use xlink:href="#mdea16590e0" x="290.902809" y="271.39269" style="fill: #4c72b0; fill-opacity: 0.7; stroke: #ffffff; stroke-opacity: 0.7; stroke-width: 0.384"/>
     <use xlink:href="#mdea16590e0" x="184.331418" y="198.449581" style="fill: #4c72b0; fill-opacity: 0.7; stroke: #ffffff; stroke-opacity: 0.7; stroke-width: 0.384"/>
     <use xlink:href="#mdea16590e0" x="280.372036" y="347.87001" style="fill: #4c72b0; fill-opacity: 0.7; stroke: #ffffff; stroke-opacity: 0.7; stroke-width: 0.384"/>
     <use xlink:href="#mdea16590e0" x="295.536342" y="241.940242" style="fill: #4c72b0; fill-opacity: 0.7; stroke: #ffffff; stroke-opacity: 0.7; stroke-width: 0.384"/>
     <use xlink:href="#mdea16590e0" x="381.467418" y="250.103858" style="fill: #4c72b0; fill-opacity: 0.7; stroke: #ffffff; stroke-opacity: 0.7; stroke-width: 0.384"/>
     <use xlink:href="#mdea16590e0" x="454.674426" y="315.146552" style="fill: #4c72b0; fill-opacity: 0.7; stroke: #ffffff; stroke-opacity: 0.7; stroke-width: 0.384"/>
     <use xlink:href="#mdea16590e0" x="406.741267" y="239.804716" style="fill: #4c72b0; fill-opacity: 0.7; stroke: #ffffff; stroke-opacity: 0.7; stroke-width: 0.384"/>
     <use xlink:href="#mdea16590e0" x="406.741267" y="269.218089" style="fill: #4c72b0; fill-opacity: 0.7; stroke: #ffffff; stroke-opacity: 0.7; stroke-width: 0.384"/>
     <use xlink:href="#mdea16590e0" x="454.674426" y="196.849722" style="fill: #4c72b0; fill-opacity: 0.7; stroke: #ffffff; stroke-opacity: 0.7; stroke-width: 0.384"/>
     <use xlink:href="#mdea16590e0" x="351.138805" y="249.756198" style="fill: #4c72b0; fill-opacity: 0.7; stroke: #ffffff; stroke-opacity: 0.7; stroke-width: 0.384"/>
     <use xlink:href="#mdea16590e0" x="379.485163" y="242.375617" style="fill: #4c72b0; fill-opacity: 0.7; stroke: #ffffff; stroke-opacity: 0.7; stroke-width: 0.384"/>
     <use xlink:href="#mdea16590e0" x="280.372036" y="235.081096" style="fill: #4c72b0; fill-opacity: 0.7; stroke: #ffffff; stroke-opacity: 0.7; stroke-width: 0.384"/>
     <use xlink:href="#mdea16590e0" x="406.741267" y="161.562162" style="fill: #4c72b0; fill-opacity: 0.7; stroke: #ffffff; stroke-opacity: 0.7; stroke-width: 0.384"/>
     <use xlink:href="#mdea16590e0" x="499.412042" y="152.594121" style="fill: #4c72b0; fill-opacity: 0.7; stroke: #ffffff; stroke-opacity: 0.7; stroke-width: 0.384"/>
     <use xlink:href="#mdea16590e0" x="104.553978" y="246.084062" style="fill: #4c72b0; fill-opacity: 0.7; stroke: #ffffff; stroke-opacity: 0.7; stroke-width: 0.384"/>
     <use xlink:href="#mdea16590e0" x="382.354222" y="145.954858" style="fill: #4c72b0; fill-opacity: 0.7; stroke: #ffffff; stroke-opacity: 0.7; stroke-width: 0.384"/>
     <use xlink:href="#mdea16590e0" x="406.741267" y="223.766323" style="fill: #4c72b0; fill-opacity: 0.7; stroke: #ffffff; stroke-opacity: 0.7; stroke-width: 0.384"/>
     <use xlink:href="#mdea16590e0" x="357.096206" y="274.98068" style="fill: #4c72b0; fill-opacity: 0.7; stroke: #ffffff; stroke-opacity: 0.7; stroke-width: 0.384"/>
     <use xlink:href="#mdea16590e0" x="406.741267" y="344.154302" style="fill: #4c72b0; fill-opacity: 0.7; stroke: #ffffff; stroke-opacity: 0.7; stroke-width: 0.384"/>
     <use xlink:href="#mdea16590e0" x="406.741267" y="311.041516" style="fill: #4c72b0; fill-opacity: 0.7; stroke: #ffffff; stroke-opacity: 0.7; stroke-width: 0.384"/>
     <use xlink:href="#mdea16590e0" x="357.096206" y="287.013198" style="fill: #4c72b0; fill-opacity: 0.7; stroke: #ffffff; stroke-opacity: 0.7; stroke-width: 0.384"/>
     <use xlink:href="#mdea16590e0" x="406.741267" y="243.735242" style="fill: #4c72b0; fill-opacity: 0.7; stroke: #ffffff; stroke-opacity: 0.7; stroke-width: 0.384"/>
     <use xlink:href="#mdea16590e0" x="432.968837" y="217.620711" style="fill: #4c72b0; fill-opacity: 0.7; stroke: #ffffff; stroke-opacity: 0.7; stroke-width: 0.384"/>
     <use xlink:href="#mdea16590e0" x="406.741267" y="266.934562" style="fill: #4c72b0; fill-opacity: 0.7; stroke: #ffffff; stroke-opacity: 0.7; stroke-width: 0.384"/>
     <use xlink:href="#mdea16590e0" x="431.128313" y="289.707509" style="fill: #4c72b0; fill-opacity: 0.7; stroke: #ffffff; stroke-opacity: 0.7; stroke-width: 0.384"/>
     <use xlink:href="#mdea16590e0" x="280.372036" y="257.791006" style="fill: #4c72b0; fill-opacity: 0.7; stroke: #ffffff; stroke-opacity: 0.7; stroke-width: 0.384"/>
     <use xlink:href="#mdea16590e0" x="383.180905" y="204.378219" style="fill: #4c72b0; fill-opacity: 0.7; stroke: #ffffff; stroke-opacity: 0.7; stroke-width: 0.384"/>
     <use xlink:href="#mdea16590e0" x="264.898246" y="319.330089" style="fill: #4c72b0; fill-opacity: 0.7; stroke: #ffffff; stroke-opacity: 0.7; stroke-width: 0.384"/>
    </g>
   </g>
   <g id="FillBetweenPolyCollection_1">
    <defs>
     <path id="m8517608870" d="M 90.818182 -132.772237 
L 90.818182 -57.473603 
L 95.385895 -59.575965 
L 99.953609 -61.678326 
L 104.521322 -63.780688 
L 109.089036 -65.88305 
L 113.656749 -67.988677 
L 118.224463 -70.09814 
L 122.792176 -72.253357 
L 127.35989 -74.303845 
L 131.927603 -76.402255 
L 136.495317 -78.500665 
L 141.06303 -80.599582 
L 145.630744 -82.701943 
L 150.198457 -84.809116 
L 154.766171 -86.919536 
L 159.333884 -88.928585 
L 163.901598 -91.035775 
L 168.469311 -93.239204 
L 173.037025 -95.340768 
L 177.604738 -97.392875 
L 182.172452 -99.353234 
L 186.740165 -101.315246 
L 191.307879 -103.45686 
L 195.875592 -105.655814 
L 200.443306 -107.720154 
L 205.011019 -109.782308 
L 209.578733 -111.708363 
L 214.146446 -113.791644 
L 218.71416 -115.970138 
L 223.281873 -117.929989 
L 227.849587 -119.966043 
L 232.4173 -122.02468 
L 236.985014 -124.224402 
L 241.552727 -126.285165 
L 246.120441 -128.286191 
L 250.688154 -130.363113 
L 255.255868 -132.276472 
L 259.823581 -134.160801 
L 264.391295 -136.143509 
L 268.959008 -138.016207 
L 273.526722 -140.048505 
L 278.094435 -142.092629 
L 282.662149 -143.979432 
L 287.229862 -146.006835 
L 291.797576 -148.011889 
L 296.365289 -149.653251 
L 300.933003 -151.529671 
L 305.500716 -153.388001 
L 310.06843 -155.179828 
L 314.636143 -156.963103 
L 319.203857 -158.771984 
L 323.77157 -160.728759 
L 328.339284 -162.374875 
L 332.906997 -164.182735 
L 337.474711 -165.85406 
L 342.042424 -167.207677 
L 346.610138 -168.687318 
L 351.177851 -170.238918 
L 355.745565 -171.604554 
L 360.313278 -172.924649 
L 364.880992 -174.271705 
L 369.448705 -175.488448 
L 374.016419 -176.745052 
L 378.584132 -177.939617 
L 383.151846 -179.328116 
L 387.719559 -180.721957 
L 392.287273 -182.069126 
L 396.854986 -183.334659 
L 401.4227 -184.387384 
L 405.990413 -185.440176 
L 410.558127 -186.490061 
L 415.12584 -187.669007 
L 419.693554 -188.776711 
L 424.261267 -189.887538 
L 428.828981 -190.925567 
L 433.396694 -191.990784 
L 437.964408 -193.106495 
L 442.532121 -193.994882 
L 447.099835 -195.052343 
L 451.667548 -196.428635 
L 456.235262 -197.290503 
L 460.802975 -198.279566 
L 465.370689 -199.219011 
L 469.938402 -200.204799 
L 474.506116 -201.437598 
L 479.073829 -202.670397 
L 483.641543 -203.835015 
L 488.209256 -204.650935 
L 492.77697 -205.385372 
L 497.344683 -206.217244 
L 501.912397 -207.12623 
L 506.48011 -207.96899 
L 511.047824 -208.694978 
L 515.615537 -209.407451 
L 520.183251 -210.122355 
L 524.750964 -210.83758 
L 529.318678 -211.667209 
L 533.886391 -212.647484 
L 538.454105 -213.633467 
L 543.021818 -214.497098 
L 543.021818 -272.066387 
L 543.021818 -272.066387 
L 538.454105 -269.974776 
L 533.886391 -268.030087 
L 529.318678 -266.03801 
L 524.750964 -263.953819 
L 520.183251 -261.869627 
L 515.615537 -259.834623 
L 511.047824 -257.82509 
L 506.48011 -255.625182 
L 501.912397 -253.517192 
L 497.344683 -251.427246 
L 492.77697 -249.337299 
L 488.209256 -247.302331 
L 483.641543 -245.165813 
L 479.073829 -243.148955 
L 474.506116 -241.194499 
L 469.938402 -239.36967 
L 465.370689 -237.607389 
L 460.802975 -235.441889 
L 456.235262 -233.437291 
L 451.667548 -231.542552 
L 447.099835 -229.649837 
L 442.532121 -227.75735 
L 437.964408 -225.867782 
L 433.396694 -224.046702 
L 428.828981 -222.239436 
L 424.261267 -220.454442 
L 419.693554 -218.655132 
L 415.12584 -217.066476 
L 410.558127 -215.310253 
L 405.990413 -213.552221 
L 401.4227 -211.739541 
L 396.854986 -209.949796 
L 392.287273 -208.123337 
L 387.719559 -206.278644 
L 383.151846 -204.276112 
L 378.584132 -202.702697 
L 374.016419 -201.195522 
L 369.448705 -199.468654 
L 364.880992 -197.730973 
L 360.313278 -195.973115 
L 355.745565 -193.938314 
L 351.177851 -192.279507 
L 346.610138 -190.676365 
L 342.042424 -189.290189 
L 337.474711 -187.913323 
L 332.906997 -186.592611 
L 328.339284 -185.184817 
L 323.77157 -183.896846 
L 319.203857 -182.47247 
L 314.636143 -181.256092 
L 310.06843 -179.932082 
L 305.500716 -178.505763 
L 300.933003 -177.244813 
L 296.365289 -175.907661 
L 291.797576 -174.566521 
L 287.229862 -173.505103 
L 282.662149 -172.547767 
L 278.094435 -171.372405 
L 273.526722 -170.275236 
L 268.959008 -169.063848 
L 264.391295 -167.850229 
L 259.823581 -166.783365 
L 255.255868 -165.975999 
L 250.688154 -165.022072 
L 246.120441 -163.995055 
L 241.552727 -162.91432 
L 236.985014 -162.036005 
L 232.4173 -161.163455 
L 227.849587 -160.288576 
L 223.281873 -159.412099 
L 218.71416 -158.457826 
L 214.146446 -157.199494 
L 209.578733 -156.345937 
L 205.011019 -155.513241 
L 200.443306 -154.681123 
L 195.875592 -153.84503 
L 191.307879 -153.008938 
L 186.740165 -152.172846 
L 182.172452 -151.336753 
L 177.604738 -150.500661 
L 173.037025 -149.664568 
L 168.469311 -148.828476 
L 163.901598 -147.953552 
L 159.333884 -146.90699 
L 154.766171 -145.859798 
L 150.198457 -144.812317 
L 145.630744 -143.966688 
L 141.06303 -143.178154 
L 136.495317 -142.389029 
L 131.927603 -141.470933 
L 127.35989 -140.463196 
L 122.792176 -139.450808 
L 118.224463 -138.641095 
L 113.656749 -137.824513 
L 109.089036 -136.801185 
L 104.521322 -135.797896 
L 99.953609 -134.789343 
L 95.385895 -133.78079 
L 90.818182 -132.772237 
z
" style="stroke: #ffffff; stroke-opacity: 0.15; stroke-width: 0.8"/>
    </defs>
    <g clip-path="url(#p3db534cb43)">
     <use xlink:href="#m8517608870" x="0" y="432" style="fill: #808080; fill-opacity: 0.15; stroke: #ffffff; stroke-opacity: 0.15; stroke-width: 0.8"/>
    </g>
   </g>
   <g id="FillBetweenPolyCollection_2">
    <defs>
     <path id="mc4c068f32c" d="M 90.818182 -131.656425 
L 90.818182 -58.858719 
L 95.385895 -61.105534 
L 99.953609 -63.35235 
L 104.521322 -65.599166 
L 109.089036 -67.780164 
L 113.656749 -69.772619 
L 118.224463 -71.921207 
L 122.792176 -74.10794 
L 127.35989 -76.294672 
L 131.927603 -78.337447 
L 136.495317 -80.34209 
L 141.06303 -82.336616 
L 145.630744 -84.331141 
L 150.198457 -86.325666 
L 154.766171 -88.320192 
L 159.333884 -90.314717 
L 163.901598 -92.309242 
L 168.469311 -94.30799 
L 173.037025 -96.307646 
L 177.604738 -98.307302 
L 182.172452 -100.302746 
L 186.740165 -102.299006 
L 191.307879 -104.291177 
L 195.875592 -106.287703 
L 200.443306 -108.31316 
L 205.011019 -110.443332 
L 209.578733 -112.511015 
L 214.146446 -114.551537 
L 218.71416 -116.560601 
L 223.281873 -118.569664 
L 227.849587 -120.357296 
L 232.4173 -122.244789 
L 236.985014 -124.234303 
L 241.552727 -126.112226 
L 246.120441 -128.168467 
L 250.688154 -130.217084 
L 255.255868 -132.123815 
L 259.823581 -134.175228 
L 264.391295 -135.908457 
L 268.959008 -137.818517 
L 273.526722 -139.491773 
L 278.094435 -141.364326 
L 282.662149 -143.301058 
L 287.229862 -145.09346 
L 291.797576 -146.766731 
L 296.365289 -148.630389 
L 300.933003 -150.505236 
L 305.500716 -152.174173 
L 310.06843 -154.089829 
L 314.636143 -156.145871 
L 319.203857 -157.94711 
L 323.77157 -159.889045 
L 328.339284 -161.754001 
L 332.906997 -163.365526 
L 337.474711 -164.817713 
L 342.042424 -166.452638 
L 346.610138 -167.911882 
L 351.177851 -169.558487 
L 355.745565 -170.7215 
L 360.313278 -172.133465 
L 364.880992 -173.479391 
L 369.448705 -175.101864 
L 374.016419 -176.520732 
L 378.584132 -177.828844 
L 383.151846 -179.164079 
L 387.719559 -180.289707 
L 392.287273 -181.229115 
L 396.854986 -182.276774 
L 401.4227 -183.244254 
L 405.990413 -184.513407 
L 410.558127 -185.601225 
L 415.12584 -186.585588 
L 419.693554 -187.592796 
L 424.261267 -188.71717 
L 428.828981 -189.878232 
L 433.396694 -190.929269 
L 437.964408 -191.964303 
L 442.532121 -192.875158 
L 447.099835 -193.847748 
L 451.667548 -194.872258 
L 456.235262 -195.74938 
L 460.802975 -196.698075 
L 465.370689 -197.643713 
L 469.938402 -198.69514 
L 474.506116 -199.834353 
L 479.073829 -200.520878 
L 483.641543 -201.424019 
L 488.209256 -202.362391 
L 492.77697 -203.167253 
L 497.344683 -203.883339 
L 501.912397 -204.600002 
L 506.48011 -205.319255 
L 511.047824 -206.210961 
L 515.615537 -207.205319 
L 520.183251 -207.970297 
L 524.750964 -209.024416 
L 529.318678 -209.861374 
L 533.886391 -210.62697 
L 538.454105 -211.392567 
L 543.021818 -212.15957 
L 543.021818 -270.846601 
L 543.021818 -270.846601 
L 538.454105 -268.962407 
L 533.886391 -267.076693 
L 529.318678 -265.082339 
L 524.750964 -263.0286 
L 520.183251 -260.974204 
L 515.615537 -259.134256 
L 511.047824 -257.018261 
L 506.48011 -254.795768 
L 501.912397 -252.736289 
L 497.344683 -250.860892 
L 492.77697 -248.717874 
L 488.209256 -246.602216 
L 483.641543 -244.582232 
L 479.073829 -242.704358 
L 474.506116 -240.591055 
L 469.938402 -238.55881 
L 465.370689 -236.489029 
L 460.802975 -234.575561 
L 456.235262 -232.592638 
L 451.667548 -230.601668 
L 447.099835 -228.618106 
L 442.532121 -226.629965 
L 437.964408 -224.641824 
L 433.396694 -222.798063 
L 428.828981 -220.968705 
L 424.261267 -218.873102 
L 419.693554 -217.165226 
L 415.12584 -215.220212 
L 410.558127 -213.381524 
L 405.990413 -211.628798 
L 401.4227 -209.877624 
L 396.854986 -208.122392 
L 392.287273 -206.37019 
L 387.719559 -204.554591 
L 383.151846 -202.729596 
L 378.584132 -201.021759 
L 374.016419 -199.363314 
L 369.448705 -197.616248 
L 364.880992 -196.326131 
L 360.313278 -194.926362 
L 355.745565 -193.263232 
L 351.177851 -191.654261 
L 346.610138 -190.218833 
L 342.042424 -188.730895 
L 337.474711 -187.095411 
L 332.906997 -185.691191 
L 328.339284 -184.479917 
L 323.77157 -183.06054 
L 319.203857 -181.678447 
L 314.636143 -180.396926 
L 310.06843 -178.98266 
L 305.500716 -177.797017 
L 300.933003 -176.768994 
L 296.365289 -175.531476 
L 291.797576 -174.64431 
L 287.229862 -173.684806 
L 282.662149 -172.655703 
L 278.094435 -171.361174 
L 273.526722 -170.169359 
L 268.959008 -169.415119 
L 264.391295 -168.359997 
L 259.823581 -167.413702 
L 255.255868 -166.479694 
L 250.688154 -165.443556 
L 246.120441 -164.42903 
L 241.552727 -163.310801 
L 236.985014 -162.144378 
L 232.4173 -161.344177 
L 227.849587 -160.285558 
L 223.281873 -159.052382 
L 218.71416 -158.001206 
L 214.146446 -156.998524 
L 209.578733 -156.014088 
L 205.011019 -155.122327 
L 200.443306 -154.146263 
L 195.875592 -153.123936 
L 191.307879 -152.243028 
L 186.740165 -151.348081 
L 182.172452 -150.262869 
L 177.604738 -149.329993 
L 173.037025 -148.397118 
L 168.469311 -147.512908 
L 163.901598 -146.784728 
L 159.333884 -146.056449 
L 154.766171 -145.324334 
L 150.198457 -144.542661 
L 145.630744 -143.476202 
L 141.06303 -142.409743 
L 136.495317 -141.340365 
L 131.927603 -140.263731 
L 127.35989 -139.182991 
L 122.792176 -138.102251 
L 118.224463 -137.151366 
L 113.656749 -135.978702 
L 109.089036 -134.888466 
L 104.521322 -134.090275 
L 99.953609 -133.292084 
L 95.385895 -132.468508 
L 90.818182 -131.656425 
z
" style="stroke: #ffffff; stroke-opacity: 0.15; stroke-width: 0.8"/>
    </defs>
    <g clip-path="url(#p3db534cb43)">
     <use xlink:href="#mc4c068f32c" x="0" y="432" style="fill: #808080; fill-opacity: 0.15; stroke: #ffffff; stroke-opacity: 0.15; stroke-width: 0.8"/>
    </g>
   </g>
   <g id="line2d_1">
    <path d="M 90.818182 334.762918 
L 95.385895 333.296148 
L 99.953609 331.829378 
L 104.521322 330.362608 
L 109.089036 328.895837 
L 113.656749 327.429067 
L 118.224463 325.962297 
L 122.792176 324.495527 
L 127.35989 323.028757 
L 131.927603 321.561987 
L 136.495317 320.095216 
L 141.06303 318.628446 
L 145.630744 317.161676 
L 150.198457 315.694906 
L 154.766171 314.228136 
L 159.333884 312.761366 
L 163.901598 311.294595 
L 168.469311 309.827825 
L 173.037025 308.361055 
L 177.604738 306.894285 
L 182.172452 305.427515 
L 186.740165 303.960744 
L 191.307879 302.493974 
L 195.875592 301.027204 
L 200.443306 299.560434 
L 205.011019 298.093664 
L 209.578733 296.626894 
L 214.146446 295.160123 
L 218.71416 293.693353 
L 223.281873 292.226583 
L 227.849587 290.759813 
L 232.4173 289.293043 
L 236.985014 287.826273 
L 241.552727 286.359502 
L 246.120441 284.892732 
L 250.688154 283.425962 
L 255.255868 281.959192 
L 259.823581 280.492422 
L 264.391295 279.025651 
L 268.959008 277.558881 
L 273.526722 276.092111 
L 278.094435 274.625341 
L 282.662149 273.158571 
L 287.229862 271.691801 
L 291.797576 270.22503 
L 296.365289 268.75826 
L 300.933003 267.29149 
L 305.500716 265.82472 
L 310.06843 264.35795 
L 314.636143 262.89118 
L 319.203857 261.424409 
L 323.77157 259.957639 
L 328.339284 258.490869 
L 332.906997 257.024099 
L 337.474711 255.557329 
L 342.042424 254.090558 
L 346.610138 252.623788 
L 351.177851 251.157018 
L 355.745565 249.690248 
L 360.313278 248.223478 
L 364.880992 246.756708 
L 369.448705 245.289937 
L 374.016419 243.823167 
L 378.584132 242.356397 
L 383.151846 240.889627 
L 387.719559 239.422857 
L 392.287273 237.956087 
L 396.854986 236.489316 
L 401.4227 235.022546 
L 405.990413 233.555776 
L 410.558127 232.089006 
L 415.12584 230.622236 
L 419.693554 229.155466 
L 424.261267 227.688695 
L 428.828981 226.221925 
L 433.396694 224.755155 
L 437.964408 223.288385 
L 442.532121 221.821615 
L 447.099835 220.354844 
L 451.667548 218.888074 
L 456.235262 217.421304 
L 460.802975 215.954534 
L 465.370689 214.487764 
L 469.938402 213.020994 
L 474.506116 211.554223 
L 479.073829 210.087453 
L 483.641543 208.620683 
L 488.209256 207.153913 
L 492.77697 205.687143 
L 497.344683 204.220373 
L 501.912397 202.753602 
L 506.48011 201.286832 
L 511.047824 199.820062 
L 515.615537 198.353292 
L 520.183251 196.886522 
L 524.750964 195.419751 
L 529.318678 193.952981 
L 533.886391 192.486211 
L 538.454105 191.019441 
L 543.021818 189.552671 
" clip-path="url(#p3db534cb43)" style="fill: none; stroke: #808080; stroke-width: 1.8; stroke-linecap: round"/>
   </g>
   <g id="line2d_2">
    <path d="M 90.818182 334.762918 
L 95.385895 333.296148 
L 99.953609 331.829378 
L 104.521322 330.362608 
L 109.089036 328.895837 
L 113.656749 327.429067 
L 118.224463 325.962297 
L 122.792176 324.495527 
L 127.35989 323.028757 
L 131.927603 321.561987 
L 136.495317 320.095216 
L 141.06303 318.628446 
L 145.630744 317.161676 
L 150.198457 315.694906 
L 154.766171 314.228136 
L 159.333884 312.761366 
L 163.901598 311.294595 
L 168.469311 309.827825 
L 173.037025 308.361055 
L 177.604738 306.894285 
L 182.172452 305.427515 
L 186.740165 303.960744 
L 191.307879 302.493974 
L 195.875592 301.027204 
L 200.443306 299.560434 
L 205.011019 298.093664 
L 209.578733 296.626894 
L 214.146446 295.160123 
L 218.71416 293.693353 
L 223.281873 292.226583 
L 227.849587 290.759813 
L 232.4173 289.293043 
L 236.985014 287.826273 
L 241.552727 286.359502 
L 246.120441 284.892732 
L 250.688154 283.425962 
L 255.255868 281.959192 
L 259.823581 280.492422 
L 264.391295 279.025651 
L 268.959008 277.558881 
L 273.526722 276.092111 
L 278.094435 274.625341 
L 282.662149 273.158571 
L 287.229862 271.691801 
L 291.797576 270.22503 
L 296.365289 268.75826 
L 300.933003 267.29149 
L 305.500716 265.82472 
L 310.06843 264.35795 
L 314.636143 262.89118 
L 319.203857 261.424409 
L 323.77157 259.957639 
L 328.339284 258.490869 
L 332.906997 257.024099 
L 337.474711 255.557329 
L 342.042424 254.090558 
L 346.610138 252.623788 
L 351.177851 251.157018 
L 355.745565 249.690248 
L 360.313278 248.223478 
L 364.880992 246.756708 
L 369.448705 245.289937 
L 374.016419 243.823167 
L 378.584132 242.356397 
L 383.151846 240.889627 
L 387.719559 239.422857 
L 392.287273 237.956087 
L 396.854986 236.489316 
L 401.4227 235.022546 
L 405.990413 233.555776 
L 410.558127 232.089006 
L 415.12584 230.622236 
L 419.693554 229.155466 
L 424.261267 227.688695 
L 428.828981 226.221925 
L 433.396694 224.755155 
L 437.964408 223.288385 
L 442.532121 221.821615 
L 447.099835 220.354844 
L 451.667548 218.888074 
L 456.235262 217.421304 
L 460.802975 215.954534 
L 465.370689 214.487764 
L 469.938402 213.020994 
L 474.506116 211.554223 
L 479.073829 210.087453 
L 483.641543 208.620683 
L 488.209256 207.153913 
L 492.77697 205.687143 
L 497.344683 204.220373 
L 501.912397 202.753602 
L 506.48011 201.286832 
L 511.047824 199.820062 
L 515.615537 198.353292 
L 520.183251 196.886522 
L 524.750964 195.419751 
L 529.318678 193.952981 
L 533.886391 192.486211 
L 538.454105 191.019441 
L 543.021818 189.552671 
" clip-path="url(#p3db534cb43)" style="fill: none; stroke: #808080; stroke-width: 1.8; stroke-linecap: round"/>
   </g>
   <g id="patch_5">
    <path d="M 68.208 387.012 
L 68.208 27.168 
" style="fill: none; stroke: #262626; stroke-linejoin: miter; stroke-linecap: square"/>
   </g>
   <g id="patch_6">
    <path d="M 68.208 387.012 
L 565.632 387.012 
" style="fill: none; stroke: #262626; stroke-linejoin: miter; stroke-linecap: square"/>
   </g>
   <g id="text_18">
    <g id="patch_7">
     <path d="M 89.1192 74.171325 
L 205.91295 74.171325 
L 205.91295 41.2002 
L 89.1192 41.2002 
z
" style="fill: #ffffff; opacity: 0.5; stroke: #ffffff; stroke-width: 0.8; stroke-linejoin: miter"/>
    </g>
    <!-- R: 0.46 -->
    <g style="fill: #262626" transform="translate(93.0792 54.278325) scale(0.12 -0.12)">
     <defs>
      <path id="DejaVuSans-3a" d="M 750 794 
L 1409 794 
L 1409 0 
L 750 0 
L 750 794 
z
M 750 3309 
L 1409 3309 
L 1409 2516 
L 750 2516 
L 750 3309 
z
" transform="scale(0.015625)"/>
      <path id="DejaVuSans-34" d="M 2419 4116 
L 825 1625 
L 2419 1625 
L 2419 4116 
z
M 2253 4666 
L 3047 4666 
L 3047 1625 
L 3713 1625 
L 3713 1100 
L 3047 1100 
L 3047 0 
L 2419 0 
L 2419 1100 
L 313 1100 
L 313 1709 
L 2253 4666 
z
" transform="scale(0.015625)"/>
      <path id="DejaVuSans-36" d="M 2113 2584 
Q 1688 2584 1439 2293 
Q 1191 2003 1191 1497 
Q 1191 994 1439 701 
Q 1688 409 2113 409 
Q 2538 409 2786 701 
Q 3034 994 3034 1497 
Q 3034 2003 2786 2293 
Q 2538 2584 2113 2584 
z
M 3366 4563 
L 3366 3988 
Q 3128 4100 2886 4159 
Q 2644 4219 2406 4219 
Q 1781 4219 1451 3797 
Q 1122 3375 1075 2522 
Q 1259 2794 1537 2939 
Q 1816 3084 2150 3084 
Q 2853 3084 3261 2657 
Q 3669 2231 3669 1497 
Q 3669 778 3244 343 
Q 2819 -91 2113 -91 
Q 1303 -91 875 529 
Q 447 1150 447 2328 
Q 447 3434 972 4092 
Q 1497 4750 2381 4750 
Q 2619 4750 2861 4703 
Q 3103 4656 3366 4563 
z
" transform="scale(0.015625)"/>
     </defs>
     <use xlink:href="#DejaVuSans-52"/>
     <use xlink:href="#DejaVuSans-3a" transform="translate(66.357422 0)"/>
     <use xlink:href="#DejaVuSans-20" transform="translate(100.048828 0)"/>
     <use xlink:href="#DejaVuSans-30" transform="translate(131.835938 0)"/>
     <use xlink:href="#DejaVuSans-2e" transform="translate(195.458984 0)"/>
     <use xlink:href="#DejaVuSans-34" transform="translate(227.246094 0)"/>
     <use xlink:href="#DejaVuSans-36" transform="translate(290.869141 0)"/>
    </g>
    <!-- P-value: 0.000003 -->
    <g style="fill: #262626" transform="translate(93.0792 67.7157) scale(0.12 -0.12)">
     <defs>
      <path id="DejaVuSans-2d" d="M 313 2009 
L 1997 2009 
L 1997 1497 
L 313 1497 
L 313 2009 
z
" transform="scale(0.015625)"/>
      <path id="DejaVuSans-76" d="M 191 3500 
L 800 3500 
L 1894 563 
L 2988 3500 
L 3597 3500 
L 2284 0 
L 1503 0 
L 191 3500 
z
" transform="scale(0.015625)"/>
      <path id="DejaVuSans-33" d="M 2597 2516 
Q 3050 2419 3304 2112 
Q 3559 1806 3559 1356 
Q 3559 666 3084 287 
Q 2609 -91 1734 -91 
Q 1441 -91 1130 -33 
Q 819 25 488 141 
L 488 750 
Q 750 597 1062 519 
Q 1375 441 1716 441 
Q 2309 441 2620 675 
Q 2931 909 2931 1356 
Q 2931 1769 2642 2001 
Q 2353 2234 1838 2234 
L 1294 2234 
L 1294 2753 
L 1863 2753 
Q 2328 2753 2575 2939 
Q 2822 3125 2822 3475 
Q 2822 3834 2567 4026 
Q 2313 4219 1838 4219 
Q 1578 4219 1281 4162 
Q 984 4106 628 3988 
L 628 4550 
Q 988 4650 1302 4700 
Q 1616 4750 1894 4750 
Q 2613 4750 3031 4423 
Q 3450 4097 3450 3541 
Q 3450 3153 3228 2886 
Q 3006 2619 2597 2516 
z
" transform="scale(0.015625)"/>
     </defs>
     <use xlink:href="#DejaVuSans-50"/>
     <use xlink:href="#DejaVuSans-2d" transform="translate(58.052734 0)"/>
     <use xlink:href="#DejaVuSans-76" transform="translate(91.511719 0)"/>
     <use xlink:href="#DejaVuSans-61" transform="translate(150.691406 0)"/>
     <use xlink:href="#DejaVuSans-6c" transform="translate(211.970703 0)"/>
     <use xlink:href="#DejaVuSans-75" transform="translate(239.753906 0)"/>
     <use xlink:href="#DejaVuSans-65" transform="translate(303.132812 0)"/>
     <use xlink:href="#DejaVuSans-3a" transform="translate(364.65625 0)"/>
     <use xlink:href="#DejaVuSans-20" transform="translate(398.347656 0)"/>
     <use xlink:href="#DejaVuSans-30" transform="translate(430.134766 0)"/>
     <use xlink:href="#DejaVuSans-2e" transform="translate(493.757812 0)"/>
     <use xlink:href="#DejaVuSans-30" transform="translate(525.544922 0)"/>
     <use xlink:href="#DejaVuSans-30" transform="translate(589.167969 0)"/>
     <use xlink:href="#DejaVuSans-30" transform="translate(652.791016 0)"/>
     <use xlink:href="#DejaVuSans-30" transform="translate(716.414062 0)"/>
     <use xlink:href="#DejaVuSans-30" transform="translate(780.037109 0)"/>
     <use xlink:href="#DejaVuSans-33" transform="translate(843.660156 0)"/>
    </g>
   </g>
   <g id="text_19">
    <!-- Model Predicted vs. Actual - Best Model  N=94 -->
    <g style="fill: #262626" transform="translate(154.246562 21.168) scale(0.14 -0.14)">
     <defs>
      <path id="DejaVuSans-73" d="M 2834 3397 
L 2834 2853 
Q 2591 2978 2328 3040 
Q 2066 3103 1784 3103 
Q 1356 3103 1142 2972 
Q 928 2841 928 2578 
Q 928 2378 1081 2264 
Q 1234 2150 1697 2047 
L 1894 2003 
Q 2506 1872 2764 1633 
Q 3022 1394 3022 966 
Q 3022 478 2636 193 
Q 2250 -91 1575 -91 
Q 1294 -91 989 -36 
Q 684 19 347 128 
L 347 722 
Q 666 556 975 473 
Q 1284 391 1588 391 
Q 1994 391 2212 530 
Q 2431 669 2431 922 
Q 2431 1156 2273 1281 
Q 2116 1406 1581 1522 
L 1381 1569 
Q 847 1681 609 1914 
Q 372 2147 372 2553 
Q 372 3047 722 3315 
Q 1072 3584 1716 3584 
Q 2034 3584 2315 3537 
Q 2597 3491 2834 3397 
z
" transform="scale(0.015625)"/>
      <path id="DejaVuSans-42" d="M 1259 2228 
L 1259 519 
L 2272 519 
Q 2781 519 3026 730 
Q 3272 941 3272 1375 
Q 3272 1813 3026 2020 
Q 2781 2228 2272 2228 
L 1259 2228 
z
M 1259 4147 
L 1259 2741 
L 2194 2741 
Q 2656 2741 2882 2914 
Q 3109 3088 3109 3444 
Q 3109 3797 2882 3972 
Q 2656 4147 2194 4147 
L 1259 4147 
z
M 628 4666 
L 2241 4666 
Q 2963 4666 3353 4366 
Q 3744 4066 3744 3513 
Q 3744 3084 3544 2831 
Q 3344 2578 2956 2516 
Q 3422 2416 3680 2098 
Q 3938 1781 3938 1306 
Q 3938 681 3513 340 
Q 3088 0 2303 0 
L 628 0 
L 628 4666 
z
" transform="scale(0.015625)"/>
      <path id="DejaVuSans-4e" d="M 628 4666 
L 1478 4666 
L 3547 763 
L 3547 4666 
L 4159 4666 
L 4159 0 
L 3309 0 
L 1241 3903 
L 1241 0 
L 628 0 
L 628 4666 
z
" transform="scale(0.015625)"/>
      <path id="DejaVuSans-3d" d="M 678 2906 
L 4684 2906 
L 4684 2381 
L 678 2381 
L 678 2906 
z
M 678 1631 
L 4684 1631 
L 4684 1100 
L 678 1100 
L 678 1631 
z
" transform="scale(0.015625)"/>
      <path id="DejaVuSans-39" d="M 703 97 
L 703 672 
Q 941 559 1184 500 
Q 1428 441 1663 441 
Q 2288 441 2617 861 
Q 2947 1281 2994 2138 
Q 2813 1869 2534 1725 
Q 2256 1581 1919 1581 
Q 1219 1581 811 2004 
Q 403 2428 403 3163 
Q 403 3881 828 4315 
Q 1253 4750 1959 4750 
Q 2769 4750 3195 4129 
Q 3622 3509 3622 2328 
Q 3622 1225 3098 567 
Q 2575 -91 1691 -91 
Q 1453 -91 1209 -44 
Q 966 3 703 97 
z
M 1959 2075 
Q 2384 2075 2632 2365 
Q 2881 2656 2881 3163 
Q 2881 3666 2632 3958 
Q 2384 4250 1959 4250 
Q 1534 4250 1286 3958 
Q 1038 3666 1038 3163 
Q 1038 2656 1286 2365 
Q 1534 2075 1959 2075 
z
" transform="scale(0.015625)"/>
     </defs>
     <use xlink:href="#DejaVuSans-4d"/>
     <use xlink:href="#DejaVuSans-6f" transform="translate(86.279297 0)"/>
     <use xlink:href="#DejaVuSans-64" transform="translate(147.460938 0)"/>
     <use xlink:href="#DejaVuSans-65" transform="translate(210.9375 0)"/>
     <use xlink:href="#DejaVuSans-6c" transform="translate(272.460938 0)"/>
     <use xlink:href="#DejaVuSans-20" transform="translate(300.244141 0)"/>
     <use xlink:href="#DejaVuSans-50" transform="translate(332.03125 0)"/>
     <use xlink:href="#DejaVuSans-72" transform="translate(390.583984 0)"/>
     <use xlink:href="#DejaVuSans-65" transform="translate(429.447266 0)"/>
     <use xlink:href="#DejaVuSans-64" transform="translate(490.970703 0)"/>
     <use xlink:href="#DejaVuSans-69" transform="translate(554.447266 0)"/>
     <use xlink:href="#DejaVuSans-63" transform="translate(582.230469 0)"/>
     <use xlink:href="#DejaVuSans-74" transform="translate(637.210938 0)"/>
     <use xlink:href="#DejaVuSans-65" transform="translate(676.419922 0)"/>
     <use xlink:href="#DejaVuSans-64" transform="translate(737.943359 0)"/>
     <use xlink:href="#DejaVuSans-20" transform="translate(801.419922 0)"/>
     <use xlink:href="#DejaVuSans-76" transform="translate(833.207031 0)"/>
     <use xlink:href="#DejaVuSans-73" transform="translate(892.386719 0)"/>
     <use xlink:href="#DejaVuSans-2e" transform="translate(944.486328 0)"/>
     <use xlink:href="#DejaVuSans-20" transform="translate(976.273438 0)"/>
     <use xlink:href="#DejaVuSans-41" transform="translate(1008.060547 0)"/>
     <use xlink:href="#DejaVuSans-63" transform="translate(1074.71875 0)"/>
     <use xlink:href="#DejaVuSans-74" transform="translate(1129.699219 0)"/>
     <use xlink:href="#DejaVuSans-75" transform="translate(1168.908203 0)"/>
     <use xlink:href="#DejaVuSans-61" transform="translate(1232.287109 0)"/>
     <use xlink:href="#DejaVuSans-6c" transform="translate(1293.566406 0)"/>
     <use xlink:href="#DejaVuSans-20" transform="translate(1321.349609 0)"/>
     <use xlink:href="#DejaVuSans-2d" transform="translate(1353.136719 0)"/>
     <use xlink:href="#DejaVuSans-20" transform="translate(1389.220703 0)"/>
     <use xlink:href="#DejaVuSans-42" transform="translate(1421.007812 0)"/>
     <use xlink:href="#DejaVuSans-65" transform="translate(1489.611328 0)"/>
     <use xlink:href="#DejaVuSans-73" transform="translate(1551.134766 0)"/>
     <use xlink:href="#DejaVuSans-74" transform="translate(1603.234375 0)"/>
     <use xlink:href="#DejaVuSans-20" transform="translate(1642.443359 0)"/>
     <use xlink:href="#DejaVuSans-4d" transform="translate(1674.230469 0)"/>
     <use xlink:href="#DejaVuSans-6f" transform="translate(1760.509766 0)"/>
     <use xlink:href="#DejaVuSans-64" transform="translate(1821.691406 0)"/>
     <use xlink:href="#DejaVuSans-65" transform="translate(1885.167969 0)"/>
     <use xlink:href="#DejaVuSans-6c" transform="translate(1946.691406 0)"/>
     <use xlink:href="#DejaVuSans-20" transform="translate(1974.474609 0)"/>
     <use xlink:href="#DejaVuSans-20" transform="translate(2006.261719 0)"/>
     <use xlink:href="#DejaVuSans-4e" transform="translate(2038.048828 0)"/>
     <use xlink:href="#DejaVuSans-3d" transform="translate(2112.853516 0)"/>
     <use xlink:href="#DejaVuSans-39" transform="translate(2196.642578 0)"/>
     <use xlink:href="#DejaVuSans-34" transform="translate(2260.265625 0)"/>
    </g>
   </g>
  </g>
 </g>
 <defs>
  <clipPath id="p3db534cb43">
   <rect x="68.208" y="27.168" width="497.424" height="359.844"/>
  </clipPath>
 </defs>
</svg>
