<?xml version="1.0" encoding="utf-8" standalone="no"?>
<!DOCTYPE svg PUBLIC "-//W3C//DTD SVG 1.1//EN"
  "http://www.w3.org/Graphics/SVG/1.1/DTD/svg11.dtd">
<svg xmlns:xlink="http://www.w3.org/1999/xlink" width="720pt" height="432pt" viewBox="0 0 720 432" xmlns="http://www.w3.org/2000/svg" version="1.1">
 <metadata>
  <rdf:RDF xmlns:dc="http://purl.org/dc/elements/1.1/" xmlns:cc="http://creativecommons.org/ns#" xmlns:rdf="http://www.w3.org/1999/02/22-rdf-syntax-ns#">
   <cc:Work>
    <dc:type rdf:resource="http://purl.org/dc/dcmitype/StillImage"/>
    <dc:date>2025-06-30T17:41:52.598215</dc:date>
    <dc:format>image/svg+xml</dc:format>
    <dc:creator>
     <cc:Agent>
      <dc:title>Matplotlib v3.10.0, https://matplotlib.org/</dc:title>
     </cc:Agent>
    </dc:creator>
   </cc:Work>
  </rdf:RDF>
 </metadata>
 <defs>
  <style type="text/css">*{stroke-linejoin: round; stroke-linecap: butt}</style>
 </defs>
 <g id="figure_1">
  <g id="patch_1">
   <path d="M 0 432 
L 720 432 
L 720 0 
L 0 0 
z
" style="fill: #ffffff"/>
  </g>
  <g id="axes_1">
   <g id="patch_2">
    <path d="M 68.208 387.012 
L 709.632 387.012 
L 709.632 27.168 
L 68.208 27.168 
z
" style="fill: #ffffff"/>
   </g>
   <g id="patch_3">
    <path d="M 68.208 387.012 
L 709.632 387.012 
L 709.632 130.894312 
L 68.208 130.894312 
z
" clip-path="url(#p1d283bb881)" style="fill: #ff5714; opacity: 0.08; stroke: #ff5714; stroke-width: 0.8; stroke-linejoin: miter"/>
   </g>
   <g id="patch_4">
    <path d="M 68.208 130.894312 
L 709.632 130.894312 
L 709.632 27.168 
L 68.208 27.168 
z
" clip-path="url(#p1d283bb881)" style="fill: #04e762; opacity: 0.08; stroke: #04e762; stroke-width: 0.8; stroke-linejoin: miter"/>
   </g>
   <g id="matplotlib.axis_1">
    <g id="xtick_1">
     <g id="text_1">
      <!-- −0.20 -->
      <g style="fill: #262626" transform="translate(132.765318 401.998625) scale(0.088 -0.088)">
       <defs>
        <path id="DejaVuSans-2212" d="M 678 2272 
L 4684 2272 
L 4684 1741 
L 678 1741 
L 678 2272 
z
" transform="scale(0.015625)"/>
        <path id="DejaVuSans-30" d="M 2034 4250 
Q 1547 4250 1301 3770 
Q 1056 3291 1056 2328 
Q 1056 1369 1301 889 
Q 1547 409 2034 409 
Q 2525 409 2770 889 
Q 3016 1369 3016 2328 
Q 3016 3291 2770 3770 
Q 2525 4250 2034 4250 
z
M 2034 4750 
Q 2819 4750 3233 4129 
Q 3647 3509 3647 2328 
Q 3647 1150 3233 529 
Q 2819 -91 2034 -91 
Q 1250 -91 836 529 
Q 422 1150 422 2328 
Q 422 3509 836 4129 
Q 1250 4750 2034 4750 
z
" transform="scale(0.015625)"/>
        <path id="DejaVuSans-2e" d="M 684 794 
L 1344 794 
L 1344 0 
L 684 0 
L 684 794 
z
" transform="scale(0.015625)"/>
        <path id="DejaVuSans-32" d="M 1228 531 
L 3431 531 
L 3431 0 
L 469 0 
L 469 531 
Q 828 903 1448 1529 
Q 2069 2156 2228 2338 
Q 2531 2678 2651 2914 
Q 2772 3150 2772 3378 
Q 2772 3750 2511 3984 
Q 2250 4219 1831 4219 
Q 1534 4219 1204 4116 
Q 875 4013 500 3803 
L 500 4441 
Q 881 4594 1212 4672 
Q 1544 4750 1819 4750 
Q 2544 4750 2975 4387 
Q 3406 4025 3406 3419 
Q 3406 3131 3298 2873 
Q 3191 2616 2906 2266 
Q 2828 2175 2409 1742 
Q 1991 1309 1228 531 
z
" transform="scale(0.015625)"/>
       </defs>
       <use xlink:href="#DejaVuSans-2212"/>
       <use xlink:href="#DejaVuSans-30" transform="translate(83.789062 0)"/>
       <use xlink:href="#DejaVuSans-2e" transform="translate(147.412109 0)"/>
       <use xlink:href="#DejaVuSans-32" transform="translate(179.199219 0)"/>
       <use xlink:href="#DejaVuSans-30" transform="translate(242.822266 0)"/>
      </g>
     </g>
    </g>
    <g id="xtick_2">
     <g id="text_2">
      <!-- −0.15 -->
      <g style="fill: #262626" transform="translate(222.388943 401.998625) scale(0.088 -0.088)">
       <defs>
        <path id="DejaVuSans-31" d="M 794 531 
L 1825 531 
L 1825 4091 
L 703 3866 
L 703 4441 
L 1819 4666 
L 2450 4666 
L 2450 531 
L 3481 531 
L 3481 0 
L 794 0 
L 794 531 
z
" transform="scale(0.015625)"/>
        <path id="DejaVuSans-35" d="M 691 4666 
L 3169 4666 
L 3169 4134 
L 1269 4134 
L 1269 2991 
Q 1406 3038 1543 3061 
Q 1681 3084 1819 3084 
Q 2600 3084 3056 2656 
Q 3513 2228 3513 1497 
Q 3513 744 3044 326 
Q 2575 -91 1722 -91 
Q 1428 -91 1123 -41 
Q 819 9 494 109 
L 494 744 
Q 775 591 1075 516 
Q 1375 441 1709 441 
Q 2250 441 2565 725 
Q 2881 1009 2881 1497 
Q 2881 1984 2565 2268 
Q 2250 2553 1709 2553 
Q 1456 2553 1204 2497 
Q 953 2441 691 2322 
L 691 4666 
z
" transform="scale(0.015625)"/>
       </defs>
       <use xlink:href="#DejaVuSans-2212"/>
       <use xlink:href="#DejaVuSans-30" transform="translate(83.789062 0)"/>
       <use xlink:href="#DejaVuSans-2e" transform="translate(147.412109 0)"/>
       <use xlink:href="#DejaVuSans-31" transform="translate(179.199219 0)"/>
       <use xlink:href="#DejaVuSans-35" transform="translate(242.822266 0)"/>
      </g>
     </g>
    </g>
    <g id="xtick_3">
     <g id="text_3">
      <!-- −0.10 -->
      <g style="fill: #262626" transform="translate(312.012569 401.998625) scale(0.088 -0.088)">
       <use xlink:href="#DejaVuSans-2212"/>
       <use xlink:href="#DejaVuSans-30" transform="translate(83.789062 0)"/>
       <use xlink:href="#DejaVuSans-2e" transform="translate(147.412109 0)"/>
       <use xlink:href="#DejaVuSans-31" transform="translate(179.199219 0)"/>
       <use xlink:href="#DejaVuSans-30" transform="translate(242.822266 0)"/>
      </g>
     </g>
    </g>
    <g id="xtick_4">
     <g id="text_4">
      <!-- −0.05 -->
      <g style="fill: #262626" transform="translate(401.636194 401.998625) scale(0.088 -0.088)">
       <use xlink:href="#DejaVuSans-2212"/>
       <use xlink:href="#DejaVuSans-30" transform="translate(83.789062 0)"/>
       <use xlink:href="#DejaVuSans-2e" transform="translate(147.412109 0)"/>
       <use xlink:href="#DejaVuSans-30" transform="translate(179.199219 0)"/>
       <use xlink:href="#DejaVuSans-35" transform="translate(242.822266 0)"/>
      </g>
     </g>
    </g>
    <g id="xtick_5">
     <g id="text_5">
      <!-- 0.00 -->
      <g style="fill: #262626" transform="translate(494.946882 401.998625) scale(0.088 -0.088)">
       <use xlink:href="#DejaVuSans-30"/>
       <use xlink:href="#DejaVuSans-2e" transform="translate(63.623047 0)"/>
       <use xlink:href="#DejaVuSans-30" transform="translate(95.410156 0)"/>
       <use xlink:href="#DejaVuSans-30" transform="translate(159.033203 0)"/>
      </g>
     </g>
    </g>
    <g id="xtick_6">
     <g id="text_6">
      <!-- 0.05 -->
      <g style="fill: #262626" transform="translate(584.570507 401.998625) scale(0.088 -0.088)">
       <use xlink:href="#DejaVuSans-30"/>
       <use xlink:href="#DejaVuSans-2e" transform="translate(63.623047 0)"/>
       <use xlink:href="#DejaVuSans-30" transform="translate(95.410156 0)"/>
       <use xlink:href="#DejaVuSans-35" transform="translate(159.033203 0)"/>
      </g>
     </g>
    </g>
    <g id="xtick_7">
     <g id="text_7">
      <!-- 0.10 -->
      <g style="fill: #262626" transform="translate(674.194133 401.998625) scale(0.088 -0.088)">
       <use xlink:href="#DejaVuSans-30"/>
       <use xlink:href="#DejaVuSans-2e" transform="translate(63.623047 0)"/>
       <use xlink:href="#DejaVuSans-31" transform="translate(95.410156 0)"/>
       <use xlink:href="#DejaVuSans-30" transform="translate(159.033203 0)"/>
      </g>
     </g>
    </g>
    <g id="text_8">
     <!-- Actual MoCA Ratio -->
     <g style="fill: #262626" transform="translate(333.765938 416.946875) scale(0.12 -0.12)">
      <defs>
       <path id="DejaVuSans-41" d="M 2188 4044 
L 1331 1722 
L 3047 1722 
L 2188 4044 
z
M 1831 4666 
L 2547 4666 
L 4325 0 
L 3669 0 
L 3244 1197 
L 1141 1197 
L 716 0 
L 50 0 
L 1831 4666 
z
" transform="scale(0.015625)"/>
       <path id="DejaVuSans-63" d="M 3122 3366 
L 3122 2828 
Q 2878 2963 2633 3030 
Q 2388 3097 2138 3097 
Q 1578 3097 1268 2742 
Q 959 2388 959 1747 
Q 959 1106 1268 751 
Q 1578 397 2138 397 
Q 2388 397 2633 464 
Q 2878 531 3122 666 
L 3122 134 
Q 2881 22 2623 -34 
Q 2366 -91 2075 -91 
Q 1284 -91 818 406 
Q 353 903 353 1747 
Q 353 2603 823 3093 
Q 1294 3584 2113 3584 
Q 2378 3584 2631 3529 
Q 2884 3475 3122 3366 
z
" transform="scale(0.015625)"/>
       <path id="DejaVuSans-74" d="M 1172 4494 
L 1172 3500 
L 2356 3500 
L 2356 3053 
L 1172 3053 
L 1172 1153 
Q 1172 725 1289 603 
Q 1406 481 1766 481 
L 2356 481 
L 2356 0 
L 1766 0 
Q 1100 0 847 248 
Q 594 497 594 1153 
L 594 3053 
L 172 3053 
L 172 3500 
L 594 3500 
L 594 4494 
L 1172 4494 
z
" transform="scale(0.015625)"/>
       <path id="DejaVuSans-75" d="M 544 1381 
L 544 3500 
L 1119 3500 
L 1119 1403 
Q 1119 906 1312 657 
Q 1506 409 1894 409 
Q 2359 409 2629 706 
Q 2900 1003 2900 1516 
L 2900 3500 
L 3475 3500 
L 3475 0 
L 2900 0 
L 2900 538 
Q 2691 219 2414 64 
Q 2138 -91 1772 -91 
Q 1169 -91 856 284 
Q 544 659 544 1381 
z
M 1991 3584 
L 1991 3584 
z
" transform="scale(0.015625)"/>
       <path id="DejaVuSans-61" d="M 2194 1759 
Q 1497 1759 1228 1600 
Q 959 1441 959 1056 
Q 959 750 1161 570 
Q 1363 391 1709 391 
Q 2188 391 2477 730 
Q 2766 1069 2766 1631 
L 2766 1759 
L 2194 1759 
z
M 3341 1997 
L 3341 0 
L 2766 0 
L 2766 531 
Q 2569 213 2275 61 
Q 1981 -91 1556 -91 
Q 1019 -91 701 211 
Q 384 513 384 1019 
Q 384 1609 779 1909 
Q 1175 2209 1959 2209 
L 2766 2209 
L 2766 2266 
Q 2766 2663 2505 2880 
Q 2244 3097 1772 3097 
Q 1472 3097 1187 3025 
Q 903 2953 641 2809 
L 641 3341 
Q 956 3463 1253 3523 
Q 1550 3584 1831 3584 
Q 2591 3584 2966 3190 
Q 3341 2797 3341 1997 
z
" transform="scale(0.015625)"/>
       <path id="DejaVuSans-6c" d="M 603 4863 
L 1178 4863 
L 1178 0 
L 603 0 
L 603 4863 
z
" transform="scale(0.015625)"/>
       <path id="DejaVuSans-20" transform="scale(0.015625)"/>
       <path id="DejaVuSans-4d" d="M 628 4666 
L 1569 4666 
L 2759 1491 
L 3956 4666 
L 4897 4666 
L 4897 0 
L 4281 0 
L 4281 4097 
L 3078 897 
L 2444 897 
L 1241 4097 
L 1241 0 
L 628 0 
L 628 4666 
z
" transform="scale(0.015625)"/>
       <path id="DejaVuSans-6f" d="M 1959 3097 
Q 1497 3097 1228 2736 
Q 959 2375 959 1747 
Q 959 1119 1226 758 
Q 1494 397 1959 397 
Q 2419 397 2687 759 
Q 2956 1122 2956 1747 
Q 2956 2369 2687 2733 
Q 2419 3097 1959 3097 
z
M 1959 3584 
Q 2709 3584 3137 3096 
Q 3566 2609 3566 1747 
Q 3566 888 3137 398 
Q 2709 -91 1959 -91 
Q 1206 -91 779 398 
Q 353 888 353 1747 
Q 353 2609 779 3096 
Q 1206 3584 1959 3584 
z
" transform="scale(0.015625)"/>
       <path id="DejaVuSans-43" d="M 4122 4306 
L 4122 3641 
Q 3803 3938 3442 4084 
Q 3081 4231 2675 4231 
Q 1875 4231 1450 3742 
Q 1025 3253 1025 2328 
Q 1025 1406 1450 917 
Q 1875 428 2675 428 
Q 3081 428 3442 575 
Q 3803 722 4122 1019 
L 4122 359 
Q 3791 134 3420 21 
Q 3050 -91 2638 -91 
Q 1578 -91 968 557 
Q 359 1206 359 2328 
Q 359 3453 968 4101 
Q 1578 4750 2638 4750 
Q 3056 4750 3426 4639 
Q 3797 4528 4122 4306 
z
" transform="scale(0.015625)"/>
       <path id="DejaVuSans-52" d="M 2841 2188 
Q 3044 2119 3236 1894 
Q 3428 1669 3622 1275 
L 4263 0 
L 3584 0 
L 2988 1197 
Q 2756 1666 2539 1819 
Q 2322 1972 1947 1972 
L 1259 1972 
L 1259 0 
L 628 0 
L 628 4666 
L 2053 4666 
Q 2853 4666 3247 4331 
Q 3641 3997 3641 3322 
Q 3641 2881 3436 2590 
Q 3231 2300 2841 2188 
z
M 1259 4147 
L 1259 2491 
L 2053 2491 
Q 2509 2491 2742 2702 
Q 2975 2913 2975 3322 
Q 2975 3731 2742 3939 
Q 2509 4147 2053 4147 
L 1259 4147 
z
" transform="scale(0.015625)"/>
       <path id="DejaVuSans-69" d="M 603 3500 
L 1178 3500 
L 1178 0 
L 603 0 
L 603 3500 
z
M 603 4863 
L 1178 4863 
L 1178 4134 
L 603 4134 
L 603 4863 
z
" transform="scale(0.015625)"/>
      </defs>
      <use xlink:href="#DejaVuSans-41"/>
      <use xlink:href="#DejaVuSans-63" transform="translate(66.658203 0)"/>
      <use xlink:href="#DejaVuSans-74" transform="translate(121.638672 0)"/>
      <use xlink:href="#DejaVuSans-75" transform="translate(160.847656 0)"/>
      <use xlink:href="#DejaVuSans-61" transform="translate(224.226562 0)"/>
      <use xlink:href="#DejaVuSans-6c" transform="translate(285.505859 0)"/>
      <use xlink:href="#DejaVuSans-20" transform="translate(313.289062 0)"/>
      <use xlink:href="#DejaVuSans-4d" transform="translate(345.076172 0)"/>
      <use xlink:href="#DejaVuSans-6f" transform="translate(431.355469 0)"/>
      <use xlink:href="#DejaVuSans-43" transform="translate(492.537109 0)"/>
      <use xlink:href="#DejaVuSans-41" transform="translate(562.361328 0)"/>
      <use xlink:href="#DejaVuSans-20" transform="translate(630.769531 0)"/>
      <use xlink:href="#DejaVuSans-52" transform="translate(662.556641 0)"/>
      <use xlink:href="#DejaVuSans-61" transform="translate(729.789062 0)"/>
      <use xlink:href="#DejaVuSans-74" transform="translate(791.068359 0)"/>
      <use xlink:href="#DejaVuSans-69" transform="translate(830.277344 0)"/>
      <use xlink:href="#DejaVuSans-6f" transform="translate(858.060547 0)"/>
     </g>
    </g>
   </g>
   <g id="matplotlib.axis_2">
    <g id="ytick_1">
     <g id="text_9">
      <!-- −0.150 -->
      <g style="fill: #262626" transform="translate(27.341125 383.700218) scale(0.088 -0.088)">
       <use xlink:href="#DejaVuSans-2212"/>
       <use xlink:href="#DejaVuSans-30" transform="translate(83.789062 0)"/>
       <use xlink:href="#DejaVuSans-2e" transform="translate(147.412109 0)"/>
       <use xlink:href="#DejaVuSans-31" transform="translate(179.199219 0)"/>
       <use xlink:href="#DejaVuSans-35" transform="translate(242.822266 0)"/>
       <use xlink:href="#DejaVuSans-30" transform="translate(306.445312 0)"/>
      </g>
     </g>
    </g>
    <g id="ytick_2">
     <g id="text_10">
      <!-- −0.125 -->
      <g style="fill: #262626" transform="translate(27.341125 342.123119) scale(0.088 -0.088)">
       <use xlink:href="#DejaVuSans-2212"/>
       <use xlink:href="#DejaVuSans-30" transform="translate(83.789062 0)"/>
       <use xlink:href="#DejaVuSans-2e" transform="translate(147.412109 0)"/>
       <use xlink:href="#DejaVuSans-31" transform="translate(179.199219 0)"/>
       <use xlink:href="#DejaVuSans-32" transform="translate(242.822266 0)"/>
       <use xlink:href="#DejaVuSans-35" transform="translate(306.445312 0)"/>
      </g>
     </g>
    </g>
    <g id="ytick_3">
     <g id="text_11">
      <!-- −0.100 -->
      <g style="fill: #262626" transform="translate(27.341125 300.54602) scale(0.088 -0.088)">
       <use xlink:href="#DejaVuSans-2212"/>
       <use xlink:href="#DejaVuSans-30" transform="translate(83.789062 0)"/>
       <use xlink:href="#DejaVuSans-2e" transform="translate(147.412109 0)"/>
       <use xlink:href="#DejaVuSans-31" transform="translate(179.199219 0)"/>
       <use xlink:href="#DejaVuSans-30" transform="translate(242.822266 0)"/>
       <use xlink:href="#DejaVuSans-30" transform="translate(306.445312 0)"/>
      </g>
     </g>
    </g>
    <g id="ytick_4">
     <g id="text_12">
      <!-- −0.075 -->
      <g style="fill: #262626" transform="translate(27.341125 258.968921) scale(0.088 -0.088)">
       <defs>
        <path id="DejaVuSans-37" d="M 525 4666 
L 3525 4666 
L 3525 4397 
L 1831 0 
L 1172 0 
L 2766 4134 
L 525 4134 
L 525 4666 
z
" transform="scale(0.015625)"/>
       </defs>
       <use xlink:href="#DejaVuSans-2212"/>
       <use xlink:href="#DejaVuSans-30" transform="translate(83.789062 0)"/>
       <use xlink:href="#DejaVuSans-2e" transform="translate(147.412109 0)"/>
       <use xlink:href="#DejaVuSans-30" transform="translate(179.199219 0)"/>
       <use xlink:href="#DejaVuSans-37" transform="translate(242.822266 0)"/>
       <use xlink:href="#DejaVuSans-35" transform="translate(306.445312 0)"/>
      </g>
     </g>
    </g>
    <g id="ytick_5">
     <g id="text_13">
      <!-- −0.050 -->
      <g style="fill: #262626" transform="translate(27.341125 217.391822) scale(0.088 -0.088)">
       <use xlink:href="#DejaVuSans-2212"/>
       <use xlink:href="#DejaVuSans-30" transform="translate(83.789062 0)"/>
       <use xlink:href="#DejaVuSans-2e" transform="translate(147.412109 0)"/>
       <use xlink:href="#DejaVuSans-30" transform="translate(179.199219 0)"/>
       <use xlink:href="#DejaVuSans-35" transform="translate(242.822266 0)"/>
       <use xlink:href="#DejaVuSans-30" transform="translate(306.445312 0)"/>
      </g>
     </g>
    </g>
    <g id="ytick_6">
     <g id="text_14">
      <!-- −0.025 -->
      <g style="fill: #262626" transform="translate(27.341125 175.814723) scale(0.088 -0.088)">
       <use xlink:href="#DejaVuSans-2212"/>
       <use xlink:href="#DejaVuSans-30" transform="translate(83.789062 0)"/>
       <use xlink:href="#DejaVuSans-2e" transform="translate(147.412109 0)"/>
       <use xlink:href="#DejaVuSans-30" transform="translate(179.199219 0)"/>
       <use xlink:href="#DejaVuSans-32" transform="translate(242.822266 0)"/>
       <use xlink:href="#DejaVuSans-35" transform="translate(306.445312 0)"/>
      </g>
     </g>
    </g>
    <g id="ytick_7">
     <g id="text_15">
      <!-- 0.000 -->
      <g style="fill: #262626" transform="translate(34.71525 134.237624) scale(0.088 -0.088)">
       <use xlink:href="#DejaVuSans-30"/>
       <use xlink:href="#DejaVuSans-2e" transform="translate(63.623047 0)"/>
       <use xlink:href="#DejaVuSans-30" transform="translate(95.410156 0)"/>
       <use xlink:href="#DejaVuSans-30" transform="translate(159.033203 0)"/>
       <use xlink:href="#DejaVuSans-30" transform="translate(222.65625 0)"/>
      </g>
     </g>
    </g>
    <g id="ytick_8">
     <g id="text_16">
      <!-- 0.025 -->
      <g style="fill: #262626" transform="translate(34.71525 92.660525) scale(0.088 -0.088)">
       <use xlink:href="#DejaVuSans-30"/>
       <use xlink:href="#DejaVuSans-2e" transform="translate(63.623047 0)"/>
       <use xlink:href="#DejaVuSans-30" transform="translate(95.410156 0)"/>
       <use xlink:href="#DejaVuSans-32" transform="translate(159.033203 0)"/>
       <use xlink:href="#DejaVuSans-35" transform="translate(222.65625 0)"/>
      </g>
     </g>
    </g>
    <g id="ytick_9">
     <g id="text_17">
      <!-- 0.050 -->
      <g style="fill: #262626" transform="translate(34.71525 51.083427) scale(0.088 -0.088)">
       <use xlink:href="#DejaVuSans-30"/>
       <use xlink:href="#DejaVuSans-2e" transform="translate(63.623047 0)"/>
       <use xlink:href="#DejaVuSans-30" transform="translate(95.410156 0)"/>
       <use xlink:href="#DejaVuSans-35" transform="translate(159.033203 0)"/>
       <use xlink:href="#DejaVuSans-30" transform="translate(222.65625 0)"/>
      </g>
     </g>
    </g>
    <g id="text_18">
     <!-- Predicted MoCA Ratio -->
     <g style="fill: #262626" transform="translate(20.8455 271.611562) rotate(-90) scale(0.12 -0.12)">
      <defs>
       <path id="DejaVuSans-50" d="M 1259 4147 
L 1259 2394 
L 2053 2394 
Q 2494 2394 2734 2622 
Q 2975 2850 2975 3272 
Q 2975 3691 2734 3919 
Q 2494 4147 2053 4147 
L 1259 4147 
z
M 628 4666 
L 2053 4666 
Q 2838 4666 3239 4311 
Q 3641 3956 3641 3272 
Q 3641 2581 3239 2228 
Q 2838 1875 2053 1875 
L 1259 1875 
L 1259 0 
L 628 0 
L 628 4666 
z
" transform="scale(0.015625)"/>
       <path id="DejaVuSans-72" d="M 2631 2963 
Q 2534 3019 2420 3045 
Q 2306 3072 2169 3072 
Q 1681 3072 1420 2755 
Q 1159 2438 1159 1844 
L 1159 0 
L 581 0 
L 581 3500 
L 1159 3500 
L 1159 2956 
Q 1341 3275 1631 3429 
Q 1922 3584 2338 3584 
Q 2397 3584 2469 3576 
Q 2541 3569 2628 3553 
L 2631 2963 
z
" transform="scale(0.015625)"/>
       <path id="DejaVuSans-65" d="M 3597 1894 
L 3597 1613 
L 953 1613 
Q 991 1019 1311 708 
Q 1631 397 2203 397 
Q 2534 397 2845 478 
Q 3156 559 3463 722 
L 3463 178 
Q 3153 47 2828 -22 
Q 2503 -91 2169 -91 
Q 1331 -91 842 396 
Q 353 884 353 1716 
Q 353 2575 817 3079 
Q 1281 3584 2069 3584 
Q 2775 3584 3186 3129 
Q 3597 2675 3597 1894 
z
M 3022 2063 
Q 3016 2534 2758 2815 
Q 2500 3097 2075 3097 
Q 1594 3097 1305 2825 
Q 1016 2553 972 2059 
L 3022 2063 
z
" transform="scale(0.015625)"/>
       <path id="DejaVuSans-64" d="M 2906 2969 
L 2906 4863 
L 3481 4863 
L 3481 0 
L 2906 0 
L 2906 525 
Q 2725 213 2448 61 
Q 2172 -91 1784 -91 
Q 1150 -91 751 415 
Q 353 922 353 1747 
Q 353 2572 751 3078 
Q 1150 3584 1784 3584 
Q 2172 3584 2448 3432 
Q 2725 3281 2906 2969 
z
M 947 1747 
Q 947 1113 1208 752 
Q 1469 391 1925 391 
Q 2381 391 2643 752 
Q 2906 1113 2906 1747 
Q 2906 2381 2643 2742 
Q 2381 3103 1925 3103 
Q 1469 3103 1208 2742 
Q 947 2381 947 1747 
z
" transform="scale(0.015625)"/>
      </defs>
      <use xlink:href="#DejaVuSans-50"/>
      <use xlink:href="#DejaVuSans-72" transform="translate(58.552734 0)"/>
      <use xlink:href="#DejaVuSans-65" transform="translate(97.416016 0)"/>
      <use xlink:href="#DejaVuSans-64" transform="translate(158.939453 0)"/>
      <use xlink:href="#DejaVuSans-69" transform="translate(222.416016 0)"/>
      <use xlink:href="#DejaVuSans-63" transform="translate(250.199219 0)"/>
      <use xlink:href="#DejaVuSans-74" transform="translate(305.179688 0)"/>
      <use xlink:href="#DejaVuSans-65" transform="translate(344.388672 0)"/>
      <use xlink:href="#DejaVuSans-64" transform="translate(405.912109 0)"/>
      <use xlink:href="#DejaVuSans-20" transform="translate(469.388672 0)"/>
      <use xlink:href="#DejaVuSans-4d" transform="translate(501.175781 0)"/>
      <use xlink:href="#DejaVuSans-6f" transform="translate(587.455078 0)"/>
      <use xlink:href="#DejaVuSans-43" transform="translate(648.636719 0)"/>
      <use xlink:href="#DejaVuSans-41" transform="translate(718.460938 0)"/>
      <use xlink:href="#DejaVuSans-20" transform="translate(786.869141 0)"/>
      <use xlink:href="#DejaVuSans-52" transform="translate(818.65625 0)"/>
      <use xlink:href="#DejaVuSans-61" transform="translate(885.888672 0)"/>
      <use xlink:href="#DejaVuSans-74" transform="translate(947.167969 0)"/>
      <use xlink:href="#DejaVuSans-69" transform="translate(986.376953 0)"/>
      <use xlink:href="#DejaVuSans-6f" transform="translate(1014.160156 0)"/>
     </g>
    </g>
   </g>
   <g id="PathCollection_1">
    <defs>
     <path id="m68bbaf9e5a" d="M 0 2.4 
C 0.636487 2.4 1.246992 2.147121 1.697056 1.697056 
C 2.147121 1.246992 2.4 0.636487 2.4 0 
C 2.4 -0.636487 2.147121 -1.246992 1.697056 -1.697056 
C 1.246992 -2.147121 0.636487 -2.4 0 -2.4 
C -0.636487 -2.4 -1.246992 -2.147121 -1.697056 -1.697056 
C -2.147121 -1.246992 -2.4 -0.636487 -2.4 0 
C -2.4 0.636487 -2.147121 1.246992 -1.697056 1.697056 
C -1.246992 2.147121 -0.636487 2.4 0 2.4 
z
" style="stroke: #ffffff; stroke-opacity: 0.7; stroke-width: 0.384"/>
    </defs>
    <g clip-path="url(#p1d283bb881)">
     <use xlink:href="#m68bbaf9e5a" x="536.190644" y="91.874321" style="fill: #4c72b0; fill-opacity: 0.7; stroke: #ffffff; stroke-opacity: 0.7; stroke-width: 0.384"/>
     <use xlink:href="#m68bbaf9e5a" x="472.153344" y="167.530987" style="fill: #4c72b0; fill-opacity: 0.7; stroke: #ffffff; stroke-opacity: 0.7; stroke-width: 0.384"/>
     <use xlink:href="#m68bbaf9e5a" x="355.371054" y="225.874932" style="fill: #4c72b0; fill-opacity: 0.7; stroke: #ffffff; stroke-opacity: 0.7; stroke-width: 0.384"/>
     <use xlink:href="#m68bbaf9e5a" x="469.597243" y="101.939638" style="fill: #4c72b0; fill-opacity: 0.7; stroke: #ffffff; stroke-opacity: 0.7; stroke-width: 0.384"/>
     <use xlink:href="#m68bbaf9e5a" x="97.363636" y="223.895314" style="fill: #4c72b0; fill-opacity: 0.7; stroke: #ffffff; stroke-opacity: 0.7; stroke-width: 0.384"/>
     <use xlink:href="#m68bbaf9e5a" x="366.861251" y="189.565968" style="fill: #4c72b0; fill-opacity: 0.7; stroke: #ffffff; stroke-opacity: 0.7; stroke-width: 0.384"/>
     <use xlink:href="#m68bbaf9e5a" x="680.476364" y="126.904357" style="fill: #4c72b0; fill-opacity: 0.7; stroke: #ffffff; stroke-opacity: 0.7; stroke-width: 0.384"/>
     <use xlink:href="#m68bbaf9e5a" x="270.943" y="257.124513" style="fill: #4c72b0; fill-opacity: 0.7; stroke: #ffffff; stroke-opacity: 0.7; stroke-width: 0.384"/>
     <use xlink:href="#m68bbaf9e5a" x="586.219788" y="175.514888" style="fill: #4c72b0; fill-opacity: 0.7; stroke: #ffffff; stroke-opacity: 0.7; stroke-width: 0.384"/>
     <use xlink:href="#m68bbaf9e5a" x="426.810171" y="148.658327" style="fill: #4c72b0; fill-opacity: 0.7; stroke: #ffffff; stroke-opacity: 0.7; stroke-width: 0.384"/>
     <use xlink:href="#m68bbaf9e5a" x="535.124642" y="182.631856" style="fill: #4c72b0; fill-opacity: 0.7; stroke: #ffffff; stroke-opacity: 0.7; stroke-width: 0.384"/>
     <use xlink:href="#m68bbaf9e5a" x="314.05519" y="266.303921" style="fill: #4c72b0; fill-opacity: 0.7; stroke: #ffffff; stroke-opacity: 0.7; stroke-width: 0.384"/>
     <use xlink:href="#m68bbaf9e5a" x="504.743757" y="338.512715" style="fill: #4c72b0; fill-opacity: 0.7; stroke: #ffffff; stroke-opacity: 0.7; stroke-width: 0.384"/>
     <use xlink:href="#m68bbaf9e5a" x="329.01115" y="158.162186" style="fill: #4c72b0; fill-opacity: 0.7; stroke: #ffffff; stroke-opacity: 0.7; stroke-width: 0.384"/>
     <use xlink:href="#m68bbaf9e5a" x="341.791712" y="148.520657" style="fill: #4c72b0; fill-opacity: 0.7; stroke: #ffffff; stroke-opacity: 0.7; stroke-width: 0.384"/>
     <use xlink:href="#m68bbaf9e5a" x="178.839668" y="223.956332" style="fill: #4c72b0; fill-opacity: 0.7; stroke: #ffffff; stroke-opacity: 0.7; stroke-width: 0.384"/>
     <use xlink:href="#m68bbaf9e5a" x="606.204459" y="180.535705" style="fill: #4c72b0; fill-opacity: 0.7; stroke: #ffffff; stroke-opacity: 0.7; stroke-width: 0.384"/>
     <use xlink:href="#m68bbaf9e5a" x="403.283055" y="347.552907" style="fill: #4c72b0; fill-opacity: 0.7; stroke: #ffffff; stroke-opacity: 0.7; stroke-width: 0.384"/>
     <use xlink:href="#m68bbaf9e5a" x="606.204459" y="102.299912" style="fill: #4c72b0; fill-opacity: 0.7; stroke: #ffffff; stroke-opacity: 0.7; stroke-width: 0.384"/>
     <use xlink:href="#m68bbaf9e5a" x="379.687539" y="96.184003" style="fill: #4c72b0; fill-opacity: 0.7; stroke: #ffffff; stroke-opacity: 0.7; stroke-width: 0.384"/>
     <use xlink:href="#m68bbaf9e5a" x="450.426409" y="119.626236" style="fill: #4c72b0; fill-opacity: 0.7; stroke: #ffffff; stroke-opacity: 0.7; stroke-width: 0.384"/>
     <use xlink:href="#m68bbaf9e5a" x="268.002108" y="241.730642" style="fill: #4c72b0; fill-opacity: 0.7; stroke: #ffffff; stroke-opacity: 0.7; stroke-width: 0.384"/>
     <use xlink:href="#m68bbaf9e5a" x="399.304197" y="195.919098" style="fill: #4c72b0; fill-opacity: 0.7; stroke: #ffffff; stroke-opacity: 0.7; stroke-width: 0.384"/>
     <use xlink:href="#m68bbaf9e5a" x="371.968023" y="213.978594" style="fill: #4c72b0; fill-opacity: 0.7; stroke: #ffffff; stroke-opacity: 0.7; stroke-width: 0.384"/>
     <use xlink:href="#m68bbaf9e5a" x="225.914692" y="220.349718" style="fill: #4c72b0; fill-opacity: 0.7; stroke: #ffffff; stroke-opacity: 0.7; stroke-width: 0.384"/>
     <use xlink:href="#m68bbaf9e5a" x="566.553156" y="104.683643" style="fill: #4c72b0; fill-opacity: 0.7; stroke: #ffffff; stroke-opacity: 0.7; stroke-width: 0.384"/>
     <use xlink:href="#m68bbaf9e5a" x="504.743757" y="132.002358" style="fill: #4c72b0; fill-opacity: 0.7; stroke: #ffffff; stroke-opacity: 0.7; stroke-width: 0.384"/>
     <use xlink:href="#m68bbaf9e5a" x="568.76064" y="225.879789" style="fill: #4c72b0; fill-opacity: 0.7; stroke: #ffffff; stroke-opacity: 0.7; stroke-width: 0.384"/>
     <use xlink:href="#m68bbaf9e5a" x="472.153344" y="212.468796" style="fill: #4c72b0; fill-opacity: 0.7; stroke: #ffffff; stroke-opacity: 0.7; stroke-width: 0.384"/>
     <use xlink:href="#m68bbaf9e5a" x="341.791712" y="201.414626" style="fill: #4c72b0; fill-opacity: 0.7; stroke: #ffffff; stroke-opacity: 0.7; stroke-width: 0.384"/>
     <use xlink:href="#m68bbaf9e5a" x="680.476364" y="111.051442" style="fill: #4c72b0; fill-opacity: 0.7; stroke: #ffffff; stroke-opacity: 0.7; stroke-width: 0.384"/>
     <use xlink:href="#m68bbaf9e5a" x="504.743757" y="43.524545" style="fill: #4c72b0; fill-opacity: 0.7; stroke: #ffffff; stroke-opacity: 0.7; stroke-width: 0.384"/>
     <use xlink:href="#m68bbaf9e5a" x="248.676261" y="184.214563" style="fill: #4c72b0; fill-opacity: 0.7; stroke: #ffffff; stroke-opacity: 0.7; stroke-width: 0.384"/>
     <use xlink:href="#m68bbaf9e5a" x="539.890271" y="177.631811" style="fill: #4c72b0; fill-opacity: 0.7; stroke: #ffffff; stroke-opacity: 0.7; stroke-width: 0.384"/>
     <use xlink:href="#m68bbaf9e5a" x="406.972537" y="223.947801" style="fill: #4c72b0; fill-opacity: 0.7; stroke: #ffffff; stroke-opacity: 0.7; stroke-width: 0.384"/>
     <use xlink:href="#m68bbaf9e5a" x="606.204459" y="233.395664" style="fill: #4c72b0; fill-opacity: 0.7; stroke: #ffffff; stroke-opacity: 0.7; stroke-width: 0.384"/>
     <use xlink:href="#m68bbaf9e5a" x="576.442657" y="125.508281" style="fill: #4c72b0; fill-opacity: 0.7; stroke: #ffffff; stroke-opacity: 0.7; stroke-width: 0.384"/>
     <use xlink:href="#m68bbaf9e5a" x="680.476364" y="139.933073" style="fill: #4c72b0; fill-opacity: 0.7; stroke: #ffffff; stroke-opacity: 0.7; stroke-width: 0.384"/>
     <use xlink:href="#m68bbaf9e5a" x="566.553156" y="125.545002" style="fill: #4c72b0; fill-opacity: 0.7; stroke: #ffffff; stroke-opacity: 0.7; stroke-width: 0.384"/>
     <use xlink:href="#m68bbaf9e5a" x="442.934358" y="215.975375" style="fill: #4c72b0; fill-opacity: 0.7; stroke: #ffffff; stroke-opacity: 0.7; stroke-width: 0.384"/>
     <use xlink:href="#m68bbaf9e5a" x="571.131633" y="252.533719" style="fill: #4c72b0; fill-opacity: 0.7; stroke: #ffffff; stroke-opacity: 0.7; stroke-width: 0.384"/>
     <use xlink:href="#m68bbaf9e5a" x="536.190644" y="181.912406" style="fill: #4c72b0; fill-opacity: 0.7; stroke: #ffffff; stroke-opacity: 0.7; stroke-width: 0.384"/>
     <use xlink:href="#m68bbaf9e5a" x="430.057396" y="100.675877" style="fill: #4c72b0; fill-opacity: 0.7; stroke: #ffffff; stroke-opacity: 0.7; stroke-width: 0.384"/>
     <use xlink:href="#m68bbaf9e5a" x="535.124642" y="172.016507" style="fill: #4c72b0; fill-opacity: 0.7; stroke: #ffffff; stroke-opacity: 0.7; stroke-width: 0.384"/>
     <use xlink:href="#m68bbaf9e5a" x="473.29687" y="178.288546" style="fill: #4c72b0; fill-opacity: 0.7; stroke: #ffffff; stroke-opacity: 0.7; stroke-width: 0.384"/>
     <use xlink:href="#m68bbaf9e5a" x="472.153344" y="200.386092" style="fill: #4c72b0; fill-opacity: 0.7; stroke: #ffffff; stroke-opacity: 0.7; stroke-width: 0.384"/>
     <use xlink:href="#m68bbaf9e5a" x="280.684693" y="222.664665" style="fill: #4c72b0; fill-opacity: 0.7; stroke: #ffffff; stroke-opacity: 0.7; stroke-width: 0.384"/>
     <use xlink:href="#m68bbaf9e5a" x="366.861251" y="174.543314" style="fill: #4c72b0; fill-opacity: 0.7; stroke: #ffffff; stroke-opacity: 0.7; stroke-width: 0.384"/>
     <use xlink:href="#m68bbaf9e5a" x="566.553156" y="250.504408" style="fill: #4c72b0; fill-opacity: 0.7; stroke: #ffffff; stroke-opacity: 0.7; stroke-width: 0.384"/>
     <use xlink:href="#m68bbaf9e5a" x="371.968023" y="238.321553" style="fill: #4c72b0; fill-opacity: 0.7; stroke: #ffffff; stroke-opacity: 0.7; stroke-width: 0.384"/>
     <use xlink:href="#m68bbaf9e5a" x="504.743757" y="126.697669" style="fill: #4c72b0; fill-opacity: 0.7; stroke: #ffffff; stroke-opacity: 0.7; stroke-width: 0.384"/>
     <use xlink:href="#m68bbaf9e5a" x="504.743757" y="230.427575" style="fill: #4c72b0; fill-opacity: 0.7; stroke: #ffffff; stroke-opacity: 0.7; stroke-width: 0.384"/>
     <use xlink:href="#m68bbaf9e5a" x="435.802504" y="141.890141" style="fill: #4c72b0; fill-opacity: 0.7; stroke: #ffffff; stroke-opacity: 0.7; stroke-width: 0.384"/>
     <use xlink:href="#m68bbaf9e5a" x="535.124642" y="181.040351" style="fill: #4c72b0; fill-opacity: 0.7; stroke: #ffffff; stroke-opacity: 0.7; stroke-width: 0.384"/>
     <use xlink:href="#m68bbaf9e5a" x="335.642582" y="255.562511" style="fill: #4c72b0; fill-opacity: 0.7; stroke: #ffffff; stroke-opacity: 0.7; stroke-width: 0.384"/>
     <use xlink:href="#m68bbaf9e5a" x="504.743757" y="171.163162" style="fill: #4c72b0; fill-opacity: 0.7; stroke: #ffffff; stroke-opacity: 0.7; stroke-width: 0.384"/>
     <use xlink:href="#m68bbaf9e5a" x="535.124642" y="151.396462" style="fill: #4c72b0; fill-opacity: 0.7; stroke: #ffffff; stroke-opacity: 0.7; stroke-width: 0.384"/>
     <use xlink:href="#m68bbaf9e5a" x="406.972537" y="139.307172" style="fill: #4c72b0; fill-opacity: 0.7; stroke: #ffffff; stroke-opacity: 0.7; stroke-width: 0.384"/>
     <use xlink:href="#m68bbaf9e5a" x="440.726874" y="190.359608" style="fill: #4c72b0; fill-opacity: 0.7; stroke: #ffffff; stroke-opacity: 0.7; stroke-width: 0.384"/>
     <use xlink:href="#m68bbaf9e5a" x="341.791712" y="212.749059" style="fill: #4c72b0; fill-opacity: 0.7; stroke: #ffffff; stroke-opacity: 0.7; stroke-width: 0.384"/>
     <use xlink:href="#m68bbaf9e5a" x="410.403097" y="252.944002" style="fill: #4c72b0; fill-opacity: 0.7; stroke: #ffffff; stroke-opacity: 0.7; stroke-width: 0.384"/>
     <use xlink:href="#m68bbaf9e5a" x="469.597243" y="205.406926" style="fill: #4c72b0; fill-opacity: 0.7; stroke: #ffffff; stroke-opacity: 0.7; stroke-width: 0.384"/>
     <use xlink:href="#m68bbaf9e5a" x="442.934358" y="265.38861" style="fill: #4c72b0; fill-opacity: 0.7; stroke: #ffffff; stroke-opacity: 0.7; stroke-width: 0.384"/>
     <use xlink:href="#m68bbaf9e5a" x="406.972537" y="204.5677" style="fill: #4c72b0; fill-opacity: 0.7; stroke: #ffffff; stroke-opacity: 0.7; stroke-width: 0.384"/>
     <use xlink:href="#m68bbaf9e5a" x="504.743757" y="75.90316" style="fill: #4c72b0; fill-opacity: 0.7; stroke: #ffffff; stroke-opacity: 0.7; stroke-width: 0.384"/>
     <use xlink:href="#m68bbaf9e5a" x="341.791712" y="162.221093" style="fill: #4c72b0; fill-opacity: 0.7; stroke: #ffffff; stroke-opacity: 0.7; stroke-width: 0.384"/>
     <use xlink:href="#m68bbaf9e5a" x="355.371054" y="253.960895" style="fill: #4c72b0; fill-opacity: 0.7; stroke: #ffffff; stroke-opacity: 0.7; stroke-width: 0.384"/>
     <use xlink:href="#m68bbaf9e5a" x="217.948156" y="84.593439" style="fill: #4c72b0; fill-opacity: 0.7; stroke: #ffffff; stroke-opacity: 0.7; stroke-width: 0.384"/>
     <use xlink:href="#m68bbaf9e5a" x="341.791712" y="174.684726" style="fill: #4c72b0; fill-opacity: 0.7; stroke: #ffffff; stroke-opacity: 0.7; stroke-width: 0.384"/>
     <use xlink:href="#m68bbaf9e5a" x="361.345956" y="51.244282" style="fill: #4c72b0; fill-opacity: 0.7; stroke: #ffffff; stroke-opacity: 0.7; stroke-width: 0.384"/>
     <use xlink:href="#m68bbaf9e5a" x="472.153344" y="370.655455" style="fill: #4c72b0; fill-opacity: 0.7; stroke: #ffffff; stroke-opacity: 0.7; stroke-width: 0.384"/>
     <use xlink:href="#m68bbaf9e5a" x="566.553156" y="221.765269" style="fill: #4c72b0; fill-opacity: 0.7; stroke: #ffffff; stroke-opacity: 0.7; stroke-width: 0.384"/>
     <use xlink:href="#m68bbaf9e5a" x="504.743757" y="173.458135" style="fill: #4c72b0; fill-opacity: 0.7; stroke: #ffffff; stroke-opacity: 0.7; stroke-width: 0.384"/>
     <use xlink:href="#m68bbaf9e5a" x="504.743757" y="162.40646" style="fill: #4c72b0; fill-opacity: 0.7; stroke: #ffffff; stroke-opacity: 0.7; stroke-width: 0.384"/>
     <use xlink:href="#m68bbaf9e5a" x="566.553156" y="135.824075" style="fill: #4c72b0; fill-opacity: 0.7; stroke: #ffffff; stroke-opacity: 0.7; stroke-width: 0.384"/>
     <use xlink:href="#m68bbaf9e5a" x="433.044857" y="203.495743" style="fill: #4c72b0; fill-opacity: 0.7; stroke: #ffffff; stroke-opacity: 0.7; stroke-width: 0.384"/>
     <use xlink:href="#m68bbaf9e5a" x="469.597243" y="118.192957" style="fill: #4c72b0; fill-opacity: 0.7; stroke: #ffffff; stroke-opacity: 0.7; stroke-width: 0.384"/>
     <use xlink:href="#m68bbaf9e5a" x="341.791712" y="252.79005" style="fill: #4c72b0; fill-opacity: 0.7; stroke: #ffffff; stroke-opacity: 0.7; stroke-width: 0.384"/>
     <use xlink:href="#m68bbaf9e5a" x="504.743757" y="161.215359" style="fill: #4c72b0; fill-opacity: 0.7; stroke: #ffffff; stroke-opacity: 0.7; stroke-width: 0.384"/>
     <use xlink:href="#m68bbaf9e5a" x="624.24193" y="105.975676" style="fill: #4c72b0; fill-opacity: 0.7; stroke: #ffffff; stroke-opacity: 0.7; stroke-width: 0.384"/>
     <use xlink:href="#m68bbaf9e5a" x="115.075828" y="170.130238" style="fill: #4c72b0; fill-opacity: 0.7; stroke: #ffffff; stroke-opacity: 0.7; stroke-width: 0.384"/>
     <use xlink:href="#m68bbaf9e5a" x="473.29687" y="103.718372" style="fill: #4c72b0; fill-opacity: 0.7; stroke: #ffffff; stroke-opacity: 0.7; stroke-width: 0.384"/>
     <use xlink:href="#m68bbaf9e5a" x="504.743757" y="184.521884" style="fill: #4c72b0; fill-opacity: 0.7; stroke: #ffffff; stroke-opacity: 0.7; stroke-width: 0.384"/>
     <use xlink:href="#m68bbaf9e5a" x="440.726874" y="220.852585" style="fill: #4c72b0; fill-opacity: 0.7; stroke: #ffffff; stroke-opacity: 0.7; stroke-width: 0.384"/>
     <use xlink:href="#m68bbaf9e5a" x="504.743757" y="179.996616" style="fill: #4c72b0; fill-opacity: 0.7; stroke: #ffffff; stroke-opacity: 0.7; stroke-width: 0.384"/>
     <use xlink:href="#m68bbaf9e5a" x="504.743757" y="228.120279" style="fill: #4c72b0; fill-opacity: 0.7; stroke: #ffffff; stroke-opacity: 0.7; stroke-width: 0.384"/>
     <use xlink:href="#m68bbaf9e5a" x="440.726874" y="203.265755" style="fill: #4c72b0; fill-opacity: 0.7; stroke: #ffffff; stroke-opacity: 0.7; stroke-width: 0.384"/>
     <use xlink:href="#m68bbaf9e5a" x="504.743757" y="174.661576" style="fill: #4c72b0; fill-opacity: 0.7; stroke: #ffffff; stroke-opacity: 0.7; stroke-width: 0.384"/>
     <use xlink:href="#m68bbaf9e5a" x="538.563985" y="121.752406" style="fill: #4c72b0; fill-opacity: 0.7; stroke: #ffffff; stroke-opacity: 0.7; stroke-width: 0.384"/>
     <use xlink:href="#m68bbaf9e5a" x="504.743757" y="131.328776" style="fill: #4c72b0; fill-opacity: 0.7; stroke: #ffffff; stroke-opacity: 0.7; stroke-width: 0.384"/>
     <use xlink:href="#m68bbaf9e5a" x="536.190644" y="67.378225" style="fill: #4c72b0; fill-opacity: 0.7; stroke: #ffffff; stroke-opacity: 0.7; stroke-width: 0.384"/>
     <use xlink:href="#m68bbaf9e5a" x="341.791712" y="125.266851" style="fill: #4c72b0; fill-opacity: 0.7; stroke: #ffffff; stroke-opacity: 0.7; stroke-width: 0.384"/>
     <use xlink:href="#m68bbaf9e5a" x="474.362872" y="124.970407" style="fill: #4c72b0; fill-opacity: 0.7; stroke: #ffffff; stroke-opacity: 0.7; stroke-width: 0.384"/>
     <use xlink:href="#m68bbaf9e5a" x="321.838392" y="182.031033" style="fill: #4c72b0; fill-opacity: 0.7; stroke: #ffffff; stroke-opacity: 0.7; stroke-width: 0.384"/>
    </g>
   </g>
   <g id="FillBetweenPolyCollection_1">
    <defs>
     <path id="m405c14d2d3" d="M 97.363636 -241.273475 
L 97.363636 -172.257618 
L 103.253664 -173.570123 
L 109.143691 -174.882629 
L 115.033719 -176.195541 
L 120.923747 -177.50884 
L 126.813774 -178.822139 
L 132.703802 -180.135438 
L 138.593829 -181.448738 
L 144.483857 -182.762037 
L 150.373884 -184.067725 
L 156.263912 -185.326535 
L 162.153939 -186.485867 
L 168.043967 -187.769087 
L 173.933994 -189.152792 
L 179.824022 -190.587666 
L 185.71405 -191.891654 
L 191.604077 -193.195642 
L 197.494105 -194.49963 
L 203.384132 -195.803618 
L 209.27416 -197.107861 
L 215.164187 -198.414377 
L 221.054215 -199.688019 
L 226.944242 -200.904561 
L 232.83427 -202.139144 
L 238.724298 -203.377723 
L 244.614325 -204.591396 
L 250.504353 -205.748576 
L 256.39438 -206.919926 
L 262.284408 -208.101758 
L 268.174435 -209.283591 
L 274.064463 -210.465424 
L 279.95449 -211.64174 
L 285.844518 -212.844646 
L 291.734545 -214.083756 
L 297.624573 -215.192755 
L 303.514601 -216.374588 
L 309.404628 -217.351566 
L 315.294656 -218.502769 
L 321.184683 -219.654404 
L 327.074711 -220.438965 
L 332.964738 -221.184981 
L 338.854766 -222.115849 
L 344.744793 -223.211283 
L 350.634821 -224.35218 
L 356.524848 -225.392221 
L 362.414876 -226.552581 
L 368.304904 -227.621422 
L 374.194931 -228.582845 
L 380.084959 -229.405919 
L 385.974986 -230.620852 
L 391.865014 -231.784171 
L 397.755041 -232.711097 
L 403.645069 -233.969252 
L 409.535096 -234.889612 
L 415.425124 -235.825699 
L 421.315152 -236.556587 
L 427.205179 -237.541385 
L 433.095207 -238.258271 
L 438.985234 -238.93034 
L 444.875262 -239.653916 
L 450.765289 -240.375438 
L 456.655317 -241.090764 
L 462.545344 -241.99846 
L 468.435372 -242.669295 
L 474.325399 -243.267751 
L 480.215427 -243.986313 
L 486.105455 -244.480819 
L 491.995482 -244.987864 
L 497.88551 -245.792726 
L 503.775537 -246.611029 
L 509.665565 -247.309904 
L 515.555592 -247.813801 
L 521.44562 -248.425869 
L 527.335647 -249.105622 
L 533.225675 -249.582721 
L 539.115702 -250.084741 
L 545.00573 -250.67833 
L 550.895758 -251.126578 
L 556.785785 -251.574825 
L 562.675813 -252.023073 
L 568.56584 -252.47132 
L 574.455868 -252.950345 
L 580.345895 -253.431572 
L 586.235923 -253.97539 
L 592.12595 -254.487821 
L 598.015978 -255.037345 
L 603.906006 -255.492193 
L 609.796033 -256.010798 
L 615.686061 -256.53314 
L 621.576088 -257.037178 
L 627.466116 -257.329944 
L 633.356143 -257.830335 
L 639.246171 -258.236845 
L 645.136198 -258.662551 
L 651.026226 -258.765177 
L 656.916253 -259.178644 
L 662.806281 -259.628536 
L 668.696309 -259.94077 
L 674.586336 -260.334988 
L 680.476364 -260.558016 
L 680.476364 -306.725347 
L 680.476364 -306.725347 
L 674.586336 -305.56884 
L 668.696309 -304.360416 
L 662.806281 -303.032928 
L 656.916253 -301.836571 
L 651.026226 -300.42674 
L 645.136198 -299.148047 
L 639.246171 -297.943415 
L 633.356143 -296.661616 
L 627.466116 -295.492894 
L 621.576088 -294.362135 
L 615.686061 -293.167868 
L 609.796033 -291.973601 
L 603.906006 -290.774651 
L 598.015978 -289.522212 
L 592.12595 -288.451037 
L 586.235923 -287.438138 
L 580.345895 -286.420721 
L 574.455868 -285.348373 
L 568.56584 -284.222335 
L 562.675813 -283.092879 
L 556.785785 -281.884616 
L 550.895758 -280.837741 
L 545.00573 -280.016415 
L 539.115702 -279.030323 
L 533.225675 -277.978767 
L 527.335647 -276.895176 
L 521.44562 -275.870411 
L 515.555592 -274.828759 
L 509.665565 -274.162623 
L 503.775537 -273.06941 
L 497.88551 -272.023889 
L 491.995482 -271.192944 
L 486.105455 -270.227602 
L 480.215427 -269.23384 
L 474.325399 -268.428564 
L 468.435372 -267.537249 
L 462.545344 -266.703881 
L 456.655317 -265.945522 
L 450.765289 -265.141735 
L 444.875262 -264.456636 
L 438.985234 -263.790098 
L 433.095207 -263.184502 
L 427.205179 -262.600441 
L 421.315152 -261.944717 
L 415.425124 -261.296008 
L 409.535096 -260.660159 
L 403.645069 -260.036048 
L 397.755041 -259.387907 
L 391.865014 -258.545135 
L 385.974986 -258.113459 
L 380.084959 -257.574976 
L 374.194931 -257.091656 
L 368.304904 -256.681519 
L 362.414876 -256.263162 
L 356.524848 -255.823443 
L 350.634821 -255.507743 
L 344.744793 -255.037295 
L 338.854766 -254.788811 
L 332.964738 -254.227495 
L 327.074711 -253.792268 
L 321.184683 -253.320167 
L 315.294656 -253.192168 
L 309.404628 -252.896838 
L 303.514601 -252.592835 
L 297.624573 -252.385139 
L 291.734545 -251.924679 
L 285.844518 -251.575443 
L 279.95449 -251.243356 
L 274.064463 -250.906702 
L 268.174435 -250.570048 
L 262.284408 -250.233393 
L 256.39438 -249.763937 
L 250.504353 -249.436656 
L 244.614325 -249.143937 
L 238.724298 -248.904317 
L 232.83427 -248.572797 
L 226.944242 -248.238777 
L 221.054215 -247.975495 
L 215.164187 -247.687935 
L 209.27416 -247.397414 
L 203.384132 -247.101687 
L 197.494105 -246.72892 
L 191.604077 -246.387536 
L 185.71405 -246.125208 
L 179.824022 -245.675712 
L 173.933994 -245.31032 
L 168.043967 -244.917969 
L 162.153939 -244.643941 
L 156.263912 -244.288514 
L 150.373884 -243.975587 
L 144.483857 -243.675648 
L 138.593829 -243.259806 
L 132.703802 -242.930799 
L 126.813774 -242.601792 
L 120.923747 -242.272785 
L 115.033719 -241.941889 
L 109.143691 -241.610474 
L 103.253664 -241.279059 
L 97.363636 -241.273475 
z
" style="stroke: #ffffff; stroke-opacity: 0.15; stroke-width: 0.8"/>
    </defs>
    <g clip-path="url(#p1d283bb881)">
     <use xlink:href="#m405c14d2d3" x="0" y="432" style="fill: #808080; fill-opacity: 0.15; stroke: #ffffff; stroke-opacity: 0.15; stroke-width: 0.8"/>
    </g>
   </g>
   <g id="FillBetweenPolyCollection_2">
    <defs>
     <path id="m7f3a378cbc" d="M 97.363636 -239.769794 
L 97.363636 -171.298876 
L 103.253664 -172.463656 
L 109.143691 -173.613703 
L 115.033719 -174.76375 
L 120.923747 -175.913798 
L 126.813774 -177.063845 
L 132.703802 -178.38709 
L 138.593829 -179.783211 
L 144.483857 -181.182104 
L 150.373884 -182.583333 
L 156.263912 -183.984561 
L 162.153939 -185.38579 
L 168.043967 -186.711219 
L 173.933994 -187.995898 
L 179.824022 -189.217051 
L 185.71405 -190.432842 
L 191.604077 -191.672883 
L 197.494105 -193.137577 
L 203.384132 -194.419288 
L 209.27416 -195.689499 
L 215.164187 -196.888028 
L 221.054215 -198.128753 
L 226.944242 -199.458999 
L 232.83427 -200.821195 
L 238.724298 -202.093811 
L 244.614325 -203.346255 
L 250.504353 -204.686905 
L 256.39438 -205.968954 
L 262.284408 -207.265695 
L 268.174435 -208.732945 
L 274.064463 -209.876097 
L 279.95449 -210.990329 
L 285.844518 -212.079267 
L 291.734545 -213.133885 
L 297.624573 -214.188502 
L 303.514601 -215.244321 
L 309.404628 -216.575697 
L 315.294656 -218.019544 
L 321.184683 -219.067328 
L 327.074711 -220.189001 
L 332.964738 -221.186747 
L 338.854766 -222.21272 
L 344.744793 -223.258469 
L 350.634821 -224.405094 
L 356.524848 -225.486002 
L 362.414876 -226.395572 
L 368.304904 -227.44764 
L 374.194931 -228.76319 
L 380.084959 -229.60861 
L 385.974986 -230.748944 
L 391.865014 -231.797742 
L 397.755041 -232.667178 
L 403.645069 -233.536984 
L 409.535096 -234.36598 
L 415.425124 -235.285583 
L 421.315152 -236.380314 
L 427.205179 -237.290016 
L 433.095207 -238.14994 
L 438.985234 -238.983102 
L 444.875262 -239.74756 
L 450.765289 -240.492819 
L 456.655317 -241.142948 
L 462.545344 -242.24894 
L 468.435372 -242.781584 
L 474.325399 -243.551574 
L 480.215427 -244.26292 
L 486.105455 -245.107169 
L 491.995482 -245.886507 
L 497.88551 -246.282309 
L 503.775537 -246.658784 
L 509.665565 -247.273408 
L 515.555592 -247.867955 
L 521.44562 -248.293189 
L 527.335647 -248.678694 
L 533.225675 -249.185835 
L 539.115702 -249.623078 
L 545.00573 -250.132554 
L 550.895758 -250.710969 
L 556.785785 -251.219347 
L 562.675813 -251.630363 
L 568.56584 -251.730101 
L 574.455868 -252.175933 
L 580.345895 -252.616455 
L 586.235923 -253.057822 
L 592.12595 -253.508835 
L 598.015978 -254.029223 
L 603.906006 -254.462372 
L 609.796033 -254.78936 
L 615.686061 -255.101202 
L 621.576088 -255.588925 
L 627.466116 -256.076649 
L 633.356143 -256.456364 
L 639.246171 -256.632294 
L 645.136198 -257.060953 
L 651.026226 -257.350373 
L 656.916253 -257.674226 
L 662.806281 -258.0978 
L 668.696309 -258.529974 
L 674.586336 -258.962936 
L 680.476364 -259.355479 
L 680.476364 -308.534861 
L 680.476364 -308.534861 
L 674.586336 -307.191365 
L 668.696309 -305.847869 
L 662.806281 -304.504373 
L 656.916253 -303.223184 
L 651.026226 -302.088674 
L 645.136198 -300.930972 
L 639.246171 -299.76929 
L 633.356143 -298.607609 
L 627.466116 -297.387498 
L 621.576088 -296.111399 
L 615.686061 -295.04956 
L 609.796033 -293.557625 
L 603.906006 -292.281001 
L 598.015978 -291.001592 
L 592.12595 -289.857638 
L 586.235923 -288.857581 
L 580.345895 -287.477658 
L 574.455868 -286.10195 
L 568.56584 -284.781322 
L 562.675813 -283.597314 
L 556.785785 -282.437102 
L 550.895758 -281.249218 
L 545.00573 -279.864784 
L 539.115702 -278.671095 
L 533.225675 -277.520706 
L 527.335647 -276.221409 
L 521.44562 -274.955564 
L 515.555592 -273.811802 
L 509.665565 -272.656773 
L 503.775537 -271.819977 
L 497.88551 -271.035198 
L 491.995482 -270.092238 
L 486.105455 -269.351782 
L 480.215427 -268.482229 
L 474.325399 -267.675409 
L 468.435372 -266.874103 
L 462.545344 -266.166179 
L 456.655317 -265.287339 
L 450.765289 -264.533018 
L 444.875262 -263.893997 
L 438.985234 -263.237568 
L 433.095207 -262.615954 
L 427.205179 -261.974452 
L 421.315152 -261.263969 
L 415.425124 -260.549877 
L 409.535096 -259.858376 
L 403.645069 -259.288237 
L 397.755041 -258.699193 
L 391.865014 -258.155564 
L 385.974986 -257.634194 
L 380.084959 -256.981479 
L 374.194931 -256.704015 
L 368.304904 -256.147617 
L 362.414876 -255.817989 
L 356.524848 -255.305282 
L 350.634821 -254.792326 
L 344.744793 -254.339407 
L 338.854766 -253.737813 
L 332.964738 -253.2127 
L 327.074711 -252.6891 
L 321.184683 -252.338221 
L 315.294656 -252.114968 
L 309.404628 -251.896275 
L 303.514601 -251.476726 
L 297.624573 -250.837417 
L 291.734545 -250.642288 
L 285.844518 -250.229745 
L 279.95449 -249.812947 
L 274.064463 -249.396148 
L 268.174435 -249.058763 
L 262.284408 -248.801785 
L 256.39438 -248.398009 
L 250.504353 -248.121216 
L 244.614325 -247.863967 
L 238.724298 -247.67497 
L 232.83427 -247.302092 
L 226.944242 -247.108954 
L 221.054215 -246.856221 
L 215.164187 -246.481707 
L 209.27416 -246.099869 
L 203.384132 -245.872235 
L 197.494105 -245.397018 
L 191.604077 -244.920385 
L 185.71405 -244.47253 
L 179.824022 -243.97144 
L 173.933994 -243.497762 
L 168.043967 -243.297585 
L 162.153939 -242.977094 
L 156.263912 -242.594463 
L 150.373884 -242.211832 
L 144.483857 -241.8292 
L 138.593829 -241.446569 
L 132.703802 -241.116026 
L 126.813774 -240.892783 
L 120.923747 -240.66954 
L 115.033719 -240.446297 
L 109.143691 -240.22158 
L 103.253664 -239.995687 
L 97.363636 -239.769794 
z
" style="stroke: #ffffff; stroke-opacity: 0.15; stroke-width: 0.8"/>
    </defs>
    <g clip-path="url(#p1d283bb881)">
     <use xlink:href="#m7f3a378cbc" x="0" y="432" style="fill: #808080; fill-opacity: 0.15; stroke: #ffffff; stroke-opacity: 0.15; stroke-width: 0.8"/>
    </g>
   </g>
   <g id="line2d_1">
    <path d="M 97.363636 225.187805 
L 103.253664 224.411818 
L 109.143691 223.635831 
L 115.033719 222.859844 
L 120.923747 222.083857 
L 126.813774 221.30787 
L 132.703802 220.531883 
L 138.593829 219.755896 
L 144.483857 218.979909 
L 150.373884 218.203922 
L 156.263912 217.427935 
L 162.153939 216.651949 
L 168.043967 215.875962 
L 173.933994 215.099975 
L 179.824022 214.323988 
L 185.71405 213.548001 
L 191.604077 212.772014 
L 197.494105 211.996027 
L 203.384132 211.22004 
L 209.27416 210.444053 
L 215.164187 209.668066 
L 221.054215 208.892079 
L 226.944242 208.116092 
L 232.83427 207.340105 
L 238.724298 206.564118 
L 244.614325 205.788132 
L 250.504353 205.012145 
L 256.39438 204.236158 
L 262.284408 203.460171 
L 268.174435 202.684184 
L 274.064463 201.908197 
L 279.95449 201.13221 
L 285.844518 200.356223 
L 291.734545 199.580236 
L 297.624573 198.804249 
L 303.514601 198.028262 
L 309.404628 197.252275 
L 315.294656 196.476288 
L 321.184683 195.700301 
L 327.074711 194.924314 
L 332.964738 194.148328 
L 338.854766 193.372341 
L 344.744793 192.596354 
L 350.634821 191.820367 
L 356.524848 191.04438 
L 362.414876 190.268393 
L 368.304904 189.492406 
L 374.194931 188.716419 
L 380.084959 187.940432 
L 385.974986 187.164445 
L 391.865014 186.388458 
L 397.755041 185.612471 
L 403.645069 184.836484 
L 409.535096 184.060497 
L 415.425124 183.28451 
L 421.315152 182.508524 
L 427.205179 181.732537 
L 433.095207 180.95655 
L 438.985234 180.180563 
L 444.875262 179.404576 
L 450.765289 178.628589 
L 456.655317 177.852602 
L 462.545344 177.076615 
L 468.435372 176.300628 
L 474.325399 175.524641 
L 480.215427 174.748654 
L 486.105455 173.972667 
L 491.995482 173.19668 
L 497.88551 172.420693 
L 503.775537 171.644706 
L 509.665565 170.86872 
L 515.555592 170.092733 
L 521.44562 169.316746 
L 527.335647 168.540759 
L 533.225675 167.764772 
L 539.115702 166.988785 
L 545.00573 166.212798 
L 550.895758 165.436811 
L 556.785785 164.660824 
L 562.675813 163.884837 
L 568.56584 163.10885 
L 574.455868 162.332863 
L 580.345895 161.556876 
L 586.235923 160.780889 
L 592.12595 160.004903 
L 598.015978 159.228916 
L 603.906006 158.452929 
L 609.796033 157.676942 
L 615.686061 156.900955 
L 621.576088 156.124968 
L 627.466116 155.348981 
L 633.356143 154.572994 
L 639.246171 153.797007 
L 645.136198 153.02102 
L 651.026226 152.245033 
L 656.916253 151.469046 
L 662.806281 150.693059 
L 668.696309 149.917072 
L 674.586336 149.141085 
L 680.476364 148.365099 
" clip-path="url(#p1d283bb881)" style="fill: none; stroke: #808080; stroke-width: 1.8; stroke-linecap: round"/>
   </g>
   <g id="line2d_2">
    <path d="M 97.363636 225.187805 
L 103.253664 224.411818 
L 109.143691 223.635831 
L 115.033719 222.859844 
L 120.923747 222.083857 
L 126.813774 221.30787 
L 132.703802 220.531883 
L 138.593829 219.755896 
L 144.483857 218.979909 
L 150.373884 218.203922 
L 156.263912 217.427935 
L 162.153939 216.651949 
L 168.043967 215.875962 
L 173.933994 215.099975 
L 179.824022 214.323988 
L 185.71405 213.548001 
L 191.604077 212.772014 
L 197.494105 211.996027 
L 203.384132 211.22004 
L 209.27416 210.444053 
L 215.164187 209.668066 
L 221.054215 208.892079 
L 226.944242 208.116092 
L 232.83427 207.340105 
L 238.724298 206.564118 
L 244.614325 205.788132 
L 250.504353 205.012145 
L 256.39438 204.236158 
L 262.284408 203.460171 
L 268.174435 202.684184 
L 274.064463 201.908197 
L 279.95449 201.13221 
L 285.844518 200.356223 
L 291.734545 199.580236 
L 297.624573 198.804249 
L 303.514601 198.028262 
L 309.404628 197.252275 
L 315.294656 196.476288 
L 321.184683 195.700301 
L 327.074711 194.924314 
L 332.964738 194.148328 
L 338.854766 193.372341 
L 344.744793 192.596354 
L 350.634821 191.820367 
L 356.524848 191.04438 
L 362.414876 190.268393 
L 368.304904 189.492406 
L 374.194931 188.716419 
L 380.084959 187.940432 
L 385.974986 187.164445 
L 391.865014 186.388458 
L 397.755041 185.612471 
L 403.645069 184.836484 
L 409.535096 184.060497 
L 415.425124 183.28451 
L 421.315152 182.508524 
L 427.205179 181.732537 
L 433.095207 180.95655 
L 438.985234 180.180563 
L 444.875262 179.404576 
L 450.765289 178.628589 
L 456.655317 177.852602 
L 462.545344 177.076615 
L 468.435372 176.300628 
L 474.325399 175.524641 
L 480.215427 174.748654 
L 486.105455 173.972667 
L 491.995482 173.19668 
L 497.88551 172.420693 
L 503.775537 171.644706 
L 509.665565 170.86872 
L 515.555592 170.092733 
L 521.44562 169.316746 
L 527.335647 168.540759 
L 533.225675 167.764772 
L 539.115702 166.988785 
L 545.00573 166.212798 
L 550.895758 165.436811 
L 556.785785 164.660824 
L 562.675813 163.884837 
L 568.56584 163.10885 
L 574.455868 162.332863 
L 580.345895 161.556876 
L 586.235923 160.780889 
L 592.12595 160.004903 
L 598.015978 159.228916 
L 603.906006 158.452929 
L 609.796033 157.676942 
L 615.686061 156.900955 
L 621.576088 156.124968 
L 627.466116 155.348981 
L 633.356143 154.572994 
L 639.246171 153.797007 
L 645.136198 153.02102 
L 651.026226 152.245033 
L 656.916253 151.469046 
L 662.806281 150.693059 
L 668.696309 149.917072 
L 674.586336 149.141085 
L 680.476364 148.365099 
" clip-path="url(#p1d283bb881)" style="fill: none; stroke: #808080; stroke-width: 1.8; stroke-linecap: round"/>
   </g>
   <g id="patch_5">
    <path d="M 68.208 387.012 
L 68.208 27.168 
" style="fill: none; stroke: #262626; stroke-linejoin: miter; stroke-linecap: square"/>
   </g>
   <g id="patch_6">
    <path d="M 68.208 387.012 
L 709.632 387.012 
" style="fill: none; stroke: #262626; stroke-linejoin: miter; stroke-linecap: square"/>
   </g>
   <g id="text_19">
    <g id="patch_7">
     <path d="M 96.3192 74.171325 
L 213.11295 74.171325 
L 213.11295 41.2002 
L 96.3192 41.2002 
z
" style="fill: #ffffff; opacity: 0.5; stroke: #ffffff; stroke-width: 0.8; stroke-linejoin: miter"/>
    </g>
    <!-- R: 0.25 -->
    <g style="fill: #262626" transform="translate(100.2792 54.278325) scale(0.12 -0.12)">
     <defs>
      <path id="DejaVuSans-3a" d="M 750 794 
L 1409 794 
L 1409 0 
L 750 0 
L 750 794 
z
M 750 3309 
L 1409 3309 
L 1409 2516 
L 750 2516 
L 750 3309 
z
" transform="scale(0.015625)"/>
     </defs>
     <use xlink:href="#DejaVuSans-52"/>
     <use xlink:href="#DejaVuSans-3a" transform="translate(66.357422 0)"/>
     <use xlink:href="#DejaVuSans-20" transform="translate(100.048828 0)"/>
     <use xlink:href="#DejaVuSans-30" transform="translate(131.835938 0)"/>
     <use xlink:href="#DejaVuSans-2e" transform="translate(195.458984 0)"/>
     <use xlink:href="#DejaVuSans-32" transform="translate(227.246094 0)"/>
     <use xlink:href="#DejaVuSans-35" transform="translate(290.869141 0)"/>
    </g>
    <!-- P-value: 0.014482 -->
    <g style="fill: #262626" transform="translate(100.2792 67.7157) scale(0.12 -0.12)">
     <defs>
      <path id="DejaVuSans-2d" d="M 313 2009 
L 1997 2009 
L 1997 1497 
L 313 1497 
L 313 2009 
z
" transform="scale(0.015625)"/>
      <path id="DejaVuSans-76" d="M 191 3500 
L 800 3500 
L 1894 563 
L 2988 3500 
L 3597 3500 
L 2284 0 
L 1503 0 
L 191 3500 
z
" transform="scale(0.015625)"/>
      <path id="DejaVuSans-34" d="M 2419 4116 
L 825 1625 
L 2419 1625 
L 2419 4116 
z
M 2253 4666 
L 3047 4666 
L 3047 1625 
L 3713 1625 
L 3713 1100 
L 3047 1100 
L 3047 0 
L 2419 0 
L 2419 1100 
L 313 1100 
L 313 1709 
L 2253 4666 
z
" transform="scale(0.015625)"/>
      <path id="DejaVuSans-38" d="M 2034 2216 
Q 1584 2216 1326 1975 
Q 1069 1734 1069 1313 
Q 1069 891 1326 650 
Q 1584 409 2034 409 
Q 2484 409 2743 651 
Q 3003 894 3003 1313 
Q 3003 1734 2745 1975 
Q 2488 2216 2034 2216 
z
M 1403 2484 
Q 997 2584 770 2862 
Q 544 3141 544 3541 
Q 544 4100 942 4425 
Q 1341 4750 2034 4750 
Q 2731 4750 3128 4425 
Q 3525 4100 3525 3541 
Q 3525 3141 3298 2862 
Q 3072 2584 2669 2484 
Q 3125 2378 3379 2068 
Q 3634 1759 3634 1313 
Q 3634 634 3220 271 
Q 2806 -91 2034 -91 
Q 1263 -91 848 271 
Q 434 634 434 1313 
Q 434 1759 690 2068 
Q 947 2378 1403 2484 
z
M 1172 3481 
Q 1172 3119 1398 2916 
Q 1625 2713 2034 2713 
Q 2441 2713 2670 2916 
Q 2900 3119 2900 3481 
Q 2900 3844 2670 4047 
Q 2441 4250 2034 4250 
Q 1625 4250 1398 4047 
Q 1172 3844 1172 3481 
z
" transform="scale(0.015625)"/>
     </defs>
     <use xlink:href="#DejaVuSans-50"/>
     <use xlink:href="#DejaVuSans-2d" transform="translate(58.052734 0)"/>
     <use xlink:href="#DejaVuSans-76" transform="translate(91.511719 0)"/>
     <use xlink:href="#DejaVuSans-61" transform="translate(150.691406 0)"/>
     <use xlink:href="#DejaVuSans-6c" transform="translate(211.970703 0)"/>
     <use xlink:href="#DejaVuSans-75" transform="translate(239.753906 0)"/>
     <use xlink:href="#DejaVuSans-65" transform="translate(303.132812 0)"/>
     <use xlink:href="#DejaVuSans-3a" transform="translate(364.65625 0)"/>
     <use xlink:href="#DejaVuSans-20" transform="translate(398.347656 0)"/>
     <use xlink:href="#DejaVuSans-30" transform="translate(430.134766 0)"/>
     <use xlink:href="#DejaVuSans-2e" transform="translate(493.757812 0)"/>
     <use xlink:href="#DejaVuSans-30" transform="translate(525.544922 0)"/>
     <use xlink:href="#DejaVuSans-31" transform="translate(589.167969 0)"/>
     <use xlink:href="#DejaVuSans-34" transform="translate(652.791016 0)"/>
     <use xlink:href="#DejaVuSans-34" transform="translate(716.414062 0)"/>
     <use xlink:href="#DejaVuSans-38" transform="translate(780.037109 0)"/>
     <use xlink:href="#DejaVuSans-32" transform="translate(843.660156 0)"/>
    </g>
   </g>
   <g id="text_20">
    <!-- Model Predicted vs. Actual - Full Model  N=94 -->
    <g style="fill: #262626" transform="translate(229.780469 21.168) scale(0.14 -0.14)">
     <defs>
      <path id="DejaVuSans-73" d="M 2834 3397 
L 2834 2853 
Q 2591 2978 2328 3040 
Q 2066 3103 1784 3103 
Q 1356 3103 1142 2972 
Q 928 2841 928 2578 
Q 928 2378 1081 2264 
Q 1234 2150 1697 2047 
L 1894 2003 
Q 2506 1872 2764 1633 
Q 3022 1394 3022 966 
Q 3022 478 2636 193 
Q 2250 -91 1575 -91 
Q 1294 -91 989 -36 
Q 684 19 347 128 
L 347 722 
Q 666 556 975 473 
Q 1284 391 1588 391 
Q 1994 391 2212 530 
Q 2431 669 2431 922 
Q 2431 1156 2273 1281 
Q 2116 1406 1581 1522 
L 1381 1569 
Q 847 1681 609 1914 
Q 372 2147 372 2553 
Q 372 3047 722 3315 
Q 1072 3584 1716 3584 
Q 2034 3584 2315 3537 
Q 2597 3491 2834 3397 
z
" transform="scale(0.015625)"/>
      <path id="DejaVuSans-46" d="M 628 4666 
L 3309 4666 
L 3309 4134 
L 1259 4134 
L 1259 2759 
L 3109 2759 
L 3109 2228 
L 1259 2228 
L 1259 0 
L 628 0 
L 628 4666 
z
" transform="scale(0.015625)"/>
      <path id="DejaVuSans-4e" d="M 628 4666 
L 1478 4666 
L 3547 763 
L 3547 4666 
L 4159 4666 
L 4159 0 
L 3309 0 
L 1241 3903 
L 1241 0 
L 628 0 
L 628 4666 
z
" transform="scale(0.015625)"/>
      <path id="DejaVuSans-3d" d="M 678 2906 
L 4684 2906 
L 4684 2381 
L 678 2381 
L 678 2906 
z
M 678 1631 
L 4684 1631 
L 4684 1100 
L 678 1100 
L 678 1631 
z
" transform="scale(0.015625)"/>
      <path id="DejaVuSans-39" d="M 703 97 
L 703 672 
Q 941 559 1184 500 
Q 1428 441 1663 441 
Q 2288 441 2617 861 
Q 2947 1281 2994 2138 
Q 2813 1869 2534 1725 
Q 2256 1581 1919 1581 
Q 1219 1581 811 2004 
Q 403 2428 403 3163 
Q 403 3881 828 4315 
Q 1253 4750 1959 4750 
Q 2769 4750 3195 4129 
Q 3622 3509 3622 2328 
Q 3622 1225 3098 567 
Q 2575 -91 1691 -91 
Q 1453 -91 1209 -44 
Q 966 3 703 97 
z
M 1959 2075 
Q 2384 2075 2632 2365 
Q 2881 2656 2881 3163 
Q 2881 3666 2632 3958 
Q 2384 4250 1959 4250 
Q 1534 4250 1286 3958 
Q 1038 3666 1038 3163 
Q 1038 2656 1286 2365 
Q 1534 2075 1959 2075 
z
" transform="scale(0.015625)"/>
     </defs>
     <use xlink:href="#DejaVuSans-4d"/>
     <use xlink:href="#DejaVuSans-6f" transform="translate(86.279297 0)"/>
     <use xlink:href="#DejaVuSans-64" transform="translate(147.460938 0)"/>
     <use xlink:href="#DejaVuSans-65" transform="translate(210.9375 0)"/>
     <use xlink:href="#DejaVuSans-6c" transform="translate(272.460938 0)"/>
     <use xlink:href="#DejaVuSans-20" transform="translate(300.244141 0)"/>
     <use xlink:href="#DejaVuSans-50" transform="translate(332.03125 0)"/>
     <use xlink:href="#DejaVuSans-72" transform="translate(390.583984 0)"/>
     <use xlink:href="#DejaVuSans-65" transform="translate(429.447266 0)"/>
     <use xlink:href="#DejaVuSans-64" transform="translate(490.970703 0)"/>
     <use xlink:href="#DejaVuSans-69" transform="translate(554.447266 0)"/>
     <use xlink:href="#DejaVuSans-63" transform="translate(582.230469 0)"/>
     <use xlink:href="#DejaVuSans-74" transform="translate(637.210938 0)"/>
     <use xlink:href="#DejaVuSans-65" transform="translate(676.419922 0)"/>
     <use xlink:href="#DejaVuSans-64" transform="translate(737.943359 0)"/>
     <use xlink:href="#DejaVuSans-20" transform="translate(801.419922 0)"/>
     <use xlink:href="#DejaVuSans-76" transform="translate(833.207031 0)"/>
     <use xlink:href="#DejaVuSans-73" transform="translate(892.386719 0)"/>
     <use xlink:href="#DejaVuSans-2e" transform="translate(944.486328 0)"/>
     <use xlink:href="#DejaVuSans-20" transform="translate(976.273438 0)"/>
     <use xlink:href="#DejaVuSans-41" transform="translate(1008.060547 0)"/>
     <use xlink:href="#DejaVuSans-63" transform="translate(1074.71875 0)"/>
     <use xlink:href="#DejaVuSans-74" transform="translate(1129.699219 0)"/>
     <use xlink:href="#DejaVuSans-75" transform="translate(1168.908203 0)"/>
     <use xlink:href="#DejaVuSans-61" transform="translate(1232.287109 0)"/>
     <use xlink:href="#DejaVuSans-6c" transform="translate(1293.566406 0)"/>
     <use xlink:href="#DejaVuSans-20" transform="translate(1321.349609 0)"/>
     <use xlink:href="#DejaVuSans-2d" transform="translate(1353.136719 0)"/>
     <use xlink:href="#DejaVuSans-20" transform="translate(1389.220703 0)"/>
     <use xlink:href="#DejaVuSans-46" transform="translate(1421.007812 0)"/>
     <use xlink:href="#DejaVuSans-75" transform="translate(1473.027344 0)"/>
     <use xlink:href="#DejaVuSans-6c" transform="translate(1536.40625 0)"/>
     <use xlink:href="#DejaVuSans-6c" transform="translate(1564.189453 0)"/>
     <use xlink:href="#DejaVuSans-20" transform="translate(1591.972656 0)"/>
     <use xlink:href="#DejaVuSans-4d" transform="translate(1623.759766 0)"/>
     <use xlink:href="#DejaVuSans-6f" transform="translate(1710.039062 0)"/>
     <use xlink:href="#DejaVuSans-64" transform="translate(1771.220703 0)"/>
     <use xlink:href="#DejaVuSans-65" transform="translate(1834.697266 0)"/>
     <use xlink:href="#DejaVuSans-6c" transform="translate(1896.220703 0)"/>
     <use xlink:href="#DejaVuSans-20" transform="translate(1924.003906 0)"/>
     <use xlink:href="#DejaVuSans-20" transform="translate(1955.791016 0)"/>
     <use xlink:href="#DejaVuSans-4e" transform="translate(1987.578125 0)"/>
     <use xlink:href="#DejaVuSans-3d" transform="translate(2062.382812 0)"/>
     <use xlink:href="#DejaVuSans-39" transform="translate(2146.171875 0)"/>
     <use xlink:href="#DejaVuSans-34" transform="translate(2209.794922 0)"/>
    </g>
   </g>
  </g>
 </g>
 <defs>
  <clipPath id="p1d283bb881">
   <rect x="68.208" y="27.168" width="641.424" height="359.844"/>
  </clipPath>
 </defs>
</svg>
