<?xml version="1.0" encoding="utf-8" standalone="no"?>
<!DOCTYPE svg PUBLIC "-//W3C//DTD SVG 1.1//EN"
  "http://www.w3.org/Graphics/SVG/1.1/DTD/svg11.dtd">
<svg xmlns:xlink="http://www.w3.org/1999/xlink" width="576pt" height="432pt" viewBox="0 0 576 432" xmlns="http://www.w3.org/2000/svg" version="1.1">
 <metadata>
  <rdf:RDF xmlns:dc="http://purl.org/dc/elements/1.1/" xmlns:cc="http://creativecommons.org/ns#" xmlns:rdf="http://www.w3.org/1999/02/22-rdf-syntax-ns#">
   <cc:Work>
    <dc:type rdf:resource="http://purl.org/dc/dcmitype/StillImage"/>
    <dc:date>2025-07-04T17:50:29.587472</dc:date>
    <dc:format>image/svg+xml</dc:format>
    <dc:creator>
     <cc:Agent>
      <dc:title>Matplotlib v3.10.0, https://matplotlib.org/</dc:title>
     </cc:Agent>
    </dc:creator>
   </cc:Work>
  </rdf:RDF>
 </metadata>
 <defs>
  <style type="text/css">*{stroke-linejoin: round; stroke-linecap: butt}</style>
 </defs>
 <g id="figure_1">
  <g id="patch_1">
   <path d="M 0 432 
L 576 432 
L 576 0 
L 0 0 
z
" style="fill: #ffffff"/>
  </g>
  <g id="axes_1">
   <g id="patch_2">
    <path d="M 68.208 387.012 
L 565.632 387.012 
L 565.632 27.168 
L 68.208 27.168 
z
" style="fill: #ffffff"/>
   </g>
   <g id="patch_3">
    <path d="M 68.208 387.012 
L 565.632 387.012 
L 565.632 130.894312 
L 68.208 130.894312 
z
" clip-path="url(#pf7a6fea551)" style="fill: #ff5714; opacity: 0.08; stroke: #ff5714; stroke-width: 0.8; stroke-linejoin: miter"/>
   </g>
   <g id="patch_4">
    <path d="M 68.208 130.894312 
L 565.632 130.894312 
L 565.632 27.168 
L 68.208 27.168 
z
" clip-path="url(#pf7a6fea551)" style="fill: #04e762; opacity: 0.08; stroke: #04e762; stroke-width: 0.8; stroke-linejoin: miter"/>
   </g>
   <g id="matplotlib.axis_1">
    <g id="xtick_1">
     <g id="text_1">
      <!-- −0.20 -->
      <g style="fill: #262626" transform="translate(115.245018 401.998625) scale(0.088 -0.088)">
       <defs>
        <path id="DejaVuSans-2212" d="M 678 2272 
L 4684 2272 
L 4684 1741 
L 678 1741 
L 678 2272 
z
" transform="scale(0.015625)"/>
        <path id="DejaVuSans-30" d="M 2034 4250 
Q 1547 4250 1301 3770 
Q 1056 3291 1056 2328 
Q 1056 1369 1301 889 
Q 1547 409 2034 409 
Q 2525 409 2770 889 
Q 3016 1369 3016 2328 
Q 3016 3291 2770 3770 
Q 2525 4250 2034 4250 
z
M 2034 4750 
Q 2819 4750 3233 4129 
Q 3647 3509 3647 2328 
Q 3647 1150 3233 529 
Q 2819 -91 2034 -91 
Q 1250 -91 836 529 
Q 422 1150 422 2328 
Q 422 3509 836 4129 
Q 1250 4750 2034 4750 
z
" transform="scale(0.015625)"/>
        <path id="DejaVuSans-2e" d="M 684 794 
L 1344 794 
L 1344 0 
L 684 0 
L 684 794 
z
" transform="scale(0.015625)"/>
        <path id="DejaVuSans-32" d="M 1228 531 
L 3431 531 
L 3431 0 
L 469 0 
L 469 531 
Q 828 903 1448 1529 
Q 2069 2156 2228 2338 
Q 2531 2678 2651 2914 
Q 2772 3150 2772 3378 
Q 2772 3750 2511 3984 
Q 2250 4219 1831 4219 
Q 1534 4219 1204 4116 
Q 875 4013 500 3803 
L 500 4441 
Q 881 4594 1212 4672 
Q 1544 4750 1819 4750 
Q 2544 4750 2975 4387 
Q 3406 4025 3406 3419 
Q 3406 3131 3298 2873 
Q 3191 2616 2906 2266 
Q 2828 2175 2409 1742 
Q 1991 1309 1228 531 
z
" transform="scale(0.015625)"/>
       </defs>
       <use xlink:href="#DejaVuSans-2212"/>
       <use xlink:href="#DejaVuSans-30" transform="translate(83.789062 0)"/>
       <use xlink:href="#DejaVuSans-2e" transform="translate(147.412109 0)"/>
       <use xlink:href="#DejaVuSans-32" transform="translate(179.199219 0)"/>
       <use xlink:href="#DejaVuSans-30" transform="translate(242.822266 0)"/>
      </g>
     </g>
    </g>
    <g id="xtick_2">
     <g id="text_2">
      <!-- −0.15 -->
      <g style="fill: #262626" transform="translate(184.748096 401.998625) scale(0.088 -0.088)">
       <defs>
        <path id="DejaVuSans-31" d="M 794 531 
L 1825 531 
L 1825 4091 
L 703 3866 
L 703 4441 
L 1819 4666 
L 2450 4666 
L 2450 531 
L 3481 531 
L 3481 0 
L 794 0 
L 794 531 
z
" transform="scale(0.015625)"/>
        <path id="DejaVuSans-35" d="M 691 4666 
L 3169 4666 
L 3169 4134 
L 1269 4134 
L 1269 2991 
Q 1406 3038 1543 3061 
Q 1681 3084 1819 3084 
Q 2600 3084 3056 2656 
Q 3513 2228 3513 1497 
Q 3513 744 3044 326 
Q 2575 -91 1722 -91 
Q 1428 -91 1123 -41 
Q 819 9 494 109 
L 494 744 
Q 775 591 1075 516 
Q 1375 441 1709 441 
Q 2250 441 2565 725 
Q 2881 1009 2881 1497 
Q 2881 1984 2565 2268 
Q 2250 2553 1709 2553 
Q 1456 2553 1204 2497 
Q 953 2441 691 2322 
L 691 4666 
z
" transform="scale(0.015625)"/>
       </defs>
       <use xlink:href="#DejaVuSans-2212"/>
       <use xlink:href="#DejaVuSans-30" transform="translate(83.789062 0)"/>
       <use xlink:href="#DejaVuSans-2e" transform="translate(147.412109 0)"/>
       <use xlink:href="#DejaVuSans-31" transform="translate(179.199219 0)"/>
       <use xlink:href="#DejaVuSans-35" transform="translate(242.822266 0)"/>
      </g>
     </g>
    </g>
    <g id="xtick_3">
     <g id="text_3">
      <!-- −0.10 -->
      <g style="fill: #262626" transform="translate(254.251174 401.998625) scale(0.088 -0.088)">
       <use xlink:href="#DejaVuSans-2212"/>
       <use xlink:href="#DejaVuSans-30" transform="translate(83.789062 0)"/>
       <use xlink:href="#DejaVuSans-2e" transform="translate(147.412109 0)"/>
       <use xlink:href="#DejaVuSans-31" transform="translate(179.199219 0)"/>
       <use xlink:href="#DejaVuSans-30" transform="translate(242.822266 0)"/>
      </g>
     </g>
    </g>
    <g id="xtick_4">
     <g id="text_4">
      <!-- −0.05 -->
      <g style="fill: #262626" transform="translate(323.754252 401.998625) scale(0.088 -0.088)">
       <use xlink:href="#DejaVuSans-2212"/>
       <use xlink:href="#DejaVuSans-30" transform="translate(83.789062 0)"/>
       <use xlink:href="#DejaVuSans-2e" transform="translate(147.412109 0)"/>
       <use xlink:href="#DejaVuSans-30" transform="translate(179.199219 0)"/>
       <use xlink:href="#DejaVuSans-35" transform="translate(242.822266 0)"/>
      </g>
     </g>
    </g>
    <g id="xtick_5">
     <g id="text_5">
      <!-- 0.00 -->
      <g style="fill: #262626" transform="translate(396.944392 401.998625) scale(0.088 -0.088)">
       <use xlink:href="#DejaVuSans-30"/>
       <use xlink:href="#DejaVuSans-2e" transform="translate(63.623047 0)"/>
       <use xlink:href="#DejaVuSans-30" transform="translate(95.410156 0)"/>
       <use xlink:href="#DejaVuSans-30" transform="translate(159.033203 0)"/>
      </g>
     </g>
    </g>
    <g id="xtick_6">
     <g id="text_6">
      <!-- 0.05 -->
      <g style="fill: #262626" transform="translate(466.44747 401.998625) scale(0.088 -0.088)">
       <use xlink:href="#DejaVuSans-30"/>
       <use xlink:href="#DejaVuSans-2e" transform="translate(63.623047 0)"/>
       <use xlink:href="#DejaVuSans-30" transform="translate(95.410156 0)"/>
       <use xlink:href="#DejaVuSans-35" transform="translate(159.033203 0)"/>
      </g>
     </g>
    </g>
    <g id="xtick_7">
     <g id="text_7">
      <!-- 0.10 -->
      <g style="fill: #262626" transform="translate(535.950548 401.998625) scale(0.088 -0.088)">
       <use xlink:href="#DejaVuSans-30"/>
       <use xlink:href="#DejaVuSans-2e" transform="translate(63.623047 0)"/>
       <use xlink:href="#DejaVuSans-31" transform="translate(95.410156 0)"/>
       <use xlink:href="#DejaVuSans-30" transform="translate(159.033203 0)"/>
      </g>
     </g>
    </g>
    <g id="text_8">
     <!-- Actual MoCA Ratio -->
     <g style="fill: #262626" transform="translate(261.765937 416.946875) scale(0.12 -0.12)">
      <defs>
       <path id="DejaVuSans-41" d="M 2188 4044 
L 1331 1722 
L 3047 1722 
L 2188 4044 
z
M 1831 4666 
L 2547 4666 
L 4325 0 
L 3669 0 
L 3244 1197 
L 1141 1197 
L 716 0 
L 50 0 
L 1831 4666 
z
" transform="scale(0.015625)"/>
       <path id="DejaVuSans-63" d="M 3122 3366 
L 3122 2828 
Q 2878 2963 2633 3030 
Q 2388 3097 2138 3097 
Q 1578 3097 1268 2742 
Q 959 2388 959 1747 
Q 959 1106 1268 751 
Q 1578 397 2138 397 
Q 2388 397 2633 464 
Q 2878 531 3122 666 
L 3122 134 
Q 2881 22 2623 -34 
Q 2366 -91 2075 -91 
Q 1284 -91 818 406 
Q 353 903 353 1747 
Q 353 2603 823 3093 
Q 1294 3584 2113 3584 
Q 2378 3584 2631 3529 
Q 2884 3475 3122 3366 
z
" transform="scale(0.015625)"/>
       <path id="DejaVuSans-74" d="M 1172 4494 
L 1172 3500 
L 2356 3500 
L 2356 3053 
L 1172 3053 
L 1172 1153 
Q 1172 725 1289 603 
Q 1406 481 1766 481 
L 2356 481 
L 2356 0 
L 1766 0 
Q 1100 0 847 248 
Q 594 497 594 1153 
L 594 3053 
L 172 3053 
L 172 3500 
L 594 3500 
L 594 4494 
L 1172 4494 
z
" transform="scale(0.015625)"/>
       <path id="DejaVuSans-75" d="M 544 1381 
L 544 3500 
L 1119 3500 
L 1119 1403 
Q 1119 906 1312 657 
Q 1506 409 1894 409 
Q 2359 409 2629 706 
Q 2900 1003 2900 1516 
L 2900 3500 
L 3475 3500 
L 3475 0 
L 2900 0 
L 2900 538 
Q 2691 219 2414 64 
Q 2138 -91 1772 -91 
Q 1169 -91 856 284 
Q 544 659 544 1381 
z
M 1991 3584 
L 1991 3584 
z
" transform="scale(0.015625)"/>
       <path id="DejaVuSans-61" d="M 2194 1759 
Q 1497 1759 1228 1600 
Q 959 1441 959 1056 
Q 959 750 1161 570 
Q 1363 391 1709 391 
Q 2188 391 2477 730 
Q 2766 1069 2766 1631 
L 2766 1759 
L 2194 1759 
z
M 3341 1997 
L 3341 0 
L 2766 0 
L 2766 531 
Q 2569 213 2275 61 
Q 1981 -91 1556 -91 
Q 1019 -91 701 211 
Q 384 513 384 1019 
Q 384 1609 779 1909 
Q 1175 2209 1959 2209 
L 2766 2209 
L 2766 2266 
Q 2766 2663 2505 2880 
Q 2244 3097 1772 3097 
Q 1472 3097 1187 3025 
Q 903 2953 641 2809 
L 641 3341 
Q 956 3463 1253 3523 
Q 1550 3584 1831 3584 
Q 2591 3584 2966 3190 
Q 3341 2797 3341 1997 
z
" transform="scale(0.015625)"/>
       <path id="DejaVuSans-6c" d="M 603 4863 
L 1178 4863 
L 1178 0 
L 603 0 
L 603 4863 
z
" transform="scale(0.015625)"/>
       <path id="DejaVuSans-20" transform="scale(0.015625)"/>
       <path id="DejaVuSans-4d" d="M 628 4666 
L 1569 4666 
L 2759 1491 
L 3956 4666 
L 4897 4666 
L 4897 0 
L 4281 0 
L 4281 4097 
L 3078 897 
L 2444 897 
L 1241 4097 
L 1241 0 
L 628 0 
L 628 4666 
z
" transform="scale(0.015625)"/>
       <path id="DejaVuSans-6f" d="M 1959 3097 
Q 1497 3097 1228 2736 
Q 959 2375 959 1747 
Q 959 1119 1226 758 
Q 1494 397 1959 397 
Q 2419 397 2687 759 
Q 2956 1122 2956 1747 
Q 2956 2369 2687 2733 
Q 2419 3097 1959 3097 
z
M 1959 3584 
Q 2709 3584 3137 3096 
Q 3566 2609 3566 1747 
Q 3566 888 3137 398 
Q 2709 -91 1959 -91 
Q 1206 -91 779 398 
Q 353 888 353 1747 
Q 353 2609 779 3096 
Q 1206 3584 1959 3584 
z
" transform="scale(0.015625)"/>
       <path id="DejaVuSans-43" d="M 4122 4306 
L 4122 3641 
Q 3803 3938 3442 4084 
Q 3081 4231 2675 4231 
Q 1875 4231 1450 3742 
Q 1025 3253 1025 2328 
Q 1025 1406 1450 917 
Q 1875 428 2675 428 
Q 3081 428 3442 575 
Q 3803 722 4122 1019 
L 4122 359 
Q 3791 134 3420 21 
Q 3050 -91 2638 -91 
Q 1578 -91 968 557 
Q 359 1206 359 2328 
Q 359 3453 968 4101 
Q 1578 4750 2638 4750 
Q 3056 4750 3426 4639 
Q 3797 4528 4122 4306 
z
" transform="scale(0.015625)"/>
       <path id="DejaVuSans-52" d="M 2841 2188 
Q 3044 2119 3236 1894 
Q 3428 1669 3622 1275 
L 4263 0 
L 3584 0 
L 2988 1197 
Q 2756 1666 2539 1819 
Q 2322 1972 1947 1972 
L 1259 1972 
L 1259 0 
L 628 0 
L 628 4666 
L 2053 4666 
Q 2853 4666 3247 4331 
Q 3641 3997 3641 3322 
Q 3641 2881 3436 2590 
Q 3231 2300 2841 2188 
z
M 1259 4147 
L 1259 2491 
L 2053 2491 
Q 2509 2491 2742 2702 
Q 2975 2913 2975 3322 
Q 2975 3731 2742 3939 
Q 2509 4147 2053 4147 
L 1259 4147 
z
" transform="scale(0.015625)"/>
       <path id="DejaVuSans-69" d="M 603 3500 
L 1178 3500 
L 1178 0 
L 603 0 
L 603 3500 
z
M 603 4863 
L 1178 4863 
L 1178 4134 
L 603 4134 
L 603 4863 
z
" transform="scale(0.015625)"/>
      </defs>
      <use xlink:href="#DejaVuSans-41"/>
      <use xlink:href="#DejaVuSans-63" transform="translate(66.658203 0)"/>
      <use xlink:href="#DejaVuSans-74" transform="translate(121.638672 0)"/>
      <use xlink:href="#DejaVuSans-75" transform="translate(160.847656 0)"/>
      <use xlink:href="#DejaVuSans-61" transform="translate(224.226562 0)"/>
      <use xlink:href="#DejaVuSans-6c" transform="translate(285.505859 0)"/>
      <use xlink:href="#DejaVuSans-20" transform="translate(313.289062 0)"/>
      <use xlink:href="#DejaVuSans-4d" transform="translate(345.076172 0)"/>
      <use xlink:href="#DejaVuSans-6f" transform="translate(431.355469 0)"/>
      <use xlink:href="#DejaVuSans-43" transform="translate(492.537109 0)"/>
      <use xlink:href="#DejaVuSans-41" transform="translate(562.361328 0)"/>
      <use xlink:href="#DejaVuSans-20" transform="translate(630.769531 0)"/>
      <use xlink:href="#DejaVuSans-52" transform="translate(662.556641 0)"/>
      <use xlink:href="#DejaVuSans-61" transform="translate(729.789062 0)"/>
      <use xlink:href="#DejaVuSans-74" transform="translate(791.068359 0)"/>
      <use xlink:href="#DejaVuSans-69" transform="translate(830.277344 0)"/>
      <use xlink:href="#DejaVuSans-6f" transform="translate(858.060547 0)"/>
     </g>
    </g>
   </g>
   <g id="matplotlib.axis_2">
    <g id="ytick_1">
     <g id="text_9">
      <!-- −0.150 -->
      <g style="fill: #262626" transform="translate(27.341125 383.700218) scale(0.088 -0.088)">
       <use xlink:href="#DejaVuSans-2212"/>
       <use xlink:href="#DejaVuSans-30" transform="translate(83.789062 0)"/>
       <use xlink:href="#DejaVuSans-2e" transform="translate(147.412109 0)"/>
       <use xlink:href="#DejaVuSans-31" transform="translate(179.199219 0)"/>
       <use xlink:href="#DejaVuSans-35" transform="translate(242.822266 0)"/>
       <use xlink:href="#DejaVuSans-30" transform="translate(306.445312 0)"/>
      </g>
     </g>
    </g>
    <g id="ytick_2">
     <g id="text_10">
      <!-- −0.125 -->
      <g style="fill: #262626" transform="translate(27.341125 342.123119) scale(0.088 -0.088)">
       <use xlink:href="#DejaVuSans-2212"/>
       <use xlink:href="#DejaVuSans-30" transform="translate(83.789062 0)"/>
       <use xlink:href="#DejaVuSans-2e" transform="translate(147.412109 0)"/>
       <use xlink:href="#DejaVuSans-31" transform="translate(179.199219 0)"/>
       <use xlink:href="#DejaVuSans-32" transform="translate(242.822266 0)"/>
       <use xlink:href="#DejaVuSans-35" transform="translate(306.445312 0)"/>
      </g>
     </g>
    </g>
    <g id="ytick_3">
     <g id="text_11">
      <!-- −0.100 -->
      <g style="fill: #262626" transform="translate(27.341125 300.54602) scale(0.088 -0.088)">
       <use xlink:href="#DejaVuSans-2212"/>
       <use xlink:href="#DejaVuSans-30" transform="translate(83.789062 0)"/>
       <use xlink:href="#DejaVuSans-2e" transform="translate(147.412109 0)"/>
       <use xlink:href="#DejaVuSans-31" transform="translate(179.199219 0)"/>
       <use xlink:href="#DejaVuSans-30" transform="translate(242.822266 0)"/>
       <use xlink:href="#DejaVuSans-30" transform="translate(306.445312 0)"/>
      </g>
     </g>
    </g>
    <g id="ytick_4">
     <g id="text_12">
      <!-- −0.075 -->
      <g style="fill: #262626" transform="translate(27.341125 258.968921) scale(0.088 -0.088)">
       <defs>
        <path id="DejaVuSans-37" d="M 525 4666 
L 3525 4666 
L 3525 4397 
L 1831 0 
L 1172 0 
L 2766 4134 
L 525 4134 
L 525 4666 
z
" transform="scale(0.015625)"/>
       </defs>
       <use xlink:href="#DejaVuSans-2212"/>
       <use xlink:href="#DejaVuSans-30" transform="translate(83.789062 0)"/>
       <use xlink:href="#DejaVuSans-2e" transform="translate(147.412109 0)"/>
       <use xlink:href="#DejaVuSans-30" transform="translate(179.199219 0)"/>
       <use xlink:href="#DejaVuSans-37" transform="translate(242.822266 0)"/>
       <use xlink:href="#DejaVuSans-35" transform="translate(306.445312 0)"/>
      </g>
     </g>
    </g>
    <g id="ytick_5">
     <g id="text_13">
      <!-- −0.050 -->
      <g style="fill: #262626" transform="translate(27.341125 217.391822) scale(0.088 -0.088)">
       <use xlink:href="#DejaVuSans-2212"/>
       <use xlink:href="#DejaVuSans-30" transform="translate(83.789062 0)"/>
       <use xlink:href="#DejaVuSans-2e" transform="translate(147.412109 0)"/>
       <use xlink:href="#DejaVuSans-30" transform="translate(179.199219 0)"/>
       <use xlink:href="#DejaVuSans-35" transform="translate(242.822266 0)"/>
       <use xlink:href="#DejaVuSans-30" transform="translate(306.445312 0)"/>
      </g>
     </g>
    </g>
    <g id="ytick_6">
     <g id="text_14">
      <!-- −0.025 -->
      <g style="fill: #262626" transform="translate(27.341125 175.814723) scale(0.088 -0.088)">
       <use xlink:href="#DejaVuSans-2212"/>
       <use xlink:href="#DejaVuSans-30" transform="translate(83.789062 0)"/>
       <use xlink:href="#DejaVuSans-2e" transform="translate(147.412109 0)"/>
       <use xlink:href="#DejaVuSans-30" transform="translate(179.199219 0)"/>
       <use xlink:href="#DejaVuSans-32" transform="translate(242.822266 0)"/>
       <use xlink:href="#DejaVuSans-35" transform="translate(306.445312 0)"/>
      </g>
     </g>
    </g>
    <g id="ytick_7">
     <g id="text_15">
      <!-- 0.000 -->
      <g style="fill: #262626" transform="translate(34.71525 134.237624) scale(0.088 -0.088)">
       <use xlink:href="#DejaVuSans-30"/>
       <use xlink:href="#DejaVuSans-2e" transform="translate(63.623047 0)"/>
       <use xlink:href="#DejaVuSans-30" transform="translate(95.410156 0)"/>
       <use xlink:href="#DejaVuSans-30" transform="translate(159.033203 0)"/>
       <use xlink:href="#DejaVuSans-30" transform="translate(222.65625 0)"/>
      </g>
     </g>
    </g>
    <g id="ytick_8">
     <g id="text_16">
      <!-- 0.025 -->
      <g style="fill: #262626" transform="translate(34.71525 92.660525) scale(0.088 -0.088)">
       <use xlink:href="#DejaVuSans-30"/>
       <use xlink:href="#DejaVuSans-2e" transform="translate(63.623047 0)"/>
       <use xlink:href="#DejaVuSans-30" transform="translate(95.410156 0)"/>
       <use xlink:href="#DejaVuSans-32" transform="translate(159.033203 0)"/>
       <use xlink:href="#DejaVuSans-35" transform="translate(222.65625 0)"/>
      </g>
     </g>
    </g>
    <g id="ytick_9">
     <g id="text_17">
      <!-- 0.050 -->
      <g style="fill: #262626" transform="translate(34.71525 51.083427) scale(0.088 -0.088)">
       <use xlink:href="#DejaVuSans-30"/>
       <use xlink:href="#DejaVuSans-2e" transform="translate(63.623047 0)"/>
       <use xlink:href="#DejaVuSans-30" transform="translate(95.410156 0)"/>
       <use xlink:href="#DejaVuSans-35" transform="translate(159.033203 0)"/>
       <use xlink:href="#DejaVuSans-30" transform="translate(222.65625 0)"/>
      </g>
     </g>
    </g>
    <g id="text_18">
     <!-- Predicted MoCA Ratio -->
     <g style="fill: #262626" transform="translate(20.8455 271.611562) rotate(-90) scale(0.12 -0.12)">
      <defs>
       <path id="DejaVuSans-50" d="M 1259 4147 
L 1259 2394 
L 2053 2394 
Q 2494 2394 2734 2622 
Q 2975 2850 2975 3272 
Q 2975 3691 2734 3919 
Q 2494 4147 2053 4147 
L 1259 4147 
z
M 628 4666 
L 2053 4666 
Q 2838 4666 3239 4311 
Q 3641 3956 3641 3272 
Q 3641 2581 3239 2228 
Q 2838 1875 2053 1875 
L 1259 1875 
L 1259 0 
L 628 0 
L 628 4666 
z
" transform="scale(0.015625)"/>
       <path id="DejaVuSans-72" d="M 2631 2963 
Q 2534 3019 2420 3045 
Q 2306 3072 2169 3072 
Q 1681 3072 1420 2755 
Q 1159 2438 1159 1844 
L 1159 0 
L 581 0 
L 581 3500 
L 1159 3500 
L 1159 2956 
Q 1341 3275 1631 3429 
Q 1922 3584 2338 3584 
Q 2397 3584 2469 3576 
Q 2541 3569 2628 3553 
L 2631 2963 
z
" transform="scale(0.015625)"/>
       <path id="DejaVuSans-65" d="M 3597 1894 
L 3597 1613 
L 953 1613 
Q 991 1019 1311 708 
Q 1631 397 2203 397 
Q 2534 397 2845 478 
Q 3156 559 3463 722 
L 3463 178 
Q 3153 47 2828 -22 
Q 2503 -91 2169 -91 
Q 1331 -91 842 396 
Q 353 884 353 1716 
Q 353 2575 817 3079 
Q 1281 3584 2069 3584 
Q 2775 3584 3186 3129 
Q 3597 2675 3597 1894 
z
M 3022 2063 
Q 3016 2534 2758 2815 
Q 2500 3097 2075 3097 
Q 1594 3097 1305 2825 
Q 1016 2553 972 2059 
L 3022 2063 
z
" transform="scale(0.015625)"/>
       <path id="DejaVuSans-64" d="M 2906 2969 
L 2906 4863 
L 3481 4863 
L 3481 0 
L 2906 0 
L 2906 525 
Q 2725 213 2448 61 
Q 2172 -91 1784 -91 
Q 1150 -91 751 415 
Q 353 922 353 1747 
Q 353 2572 751 3078 
Q 1150 3584 1784 3584 
Q 2172 3584 2448 3432 
Q 2725 3281 2906 2969 
z
M 947 1747 
Q 947 1113 1208 752 
Q 1469 391 1925 391 
Q 2381 391 2643 752 
Q 2906 1113 2906 1747 
Q 2906 2381 2643 2742 
Q 2381 3103 1925 3103 
Q 1469 3103 1208 2742 
Q 947 2381 947 1747 
z
" transform="scale(0.015625)"/>
      </defs>
      <use xlink:href="#DejaVuSans-50"/>
      <use xlink:href="#DejaVuSans-72" transform="translate(58.552734 0)"/>
      <use xlink:href="#DejaVuSans-65" transform="translate(97.416016 0)"/>
      <use xlink:href="#DejaVuSans-64" transform="translate(158.939453 0)"/>
      <use xlink:href="#DejaVuSans-69" transform="translate(222.416016 0)"/>
      <use xlink:href="#DejaVuSans-63" transform="translate(250.199219 0)"/>
      <use xlink:href="#DejaVuSans-74" transform="translate(305.179688 0)"/>
      <use xlink:href="#DejaVuSans-65" transform="translate(344.388672 0)"/>
      <use xlink:href="#DejaVuSans-64" transform="translate(405.912109 0)"/>
      <use xlink:href="#DejaVuSans-20" transform="translate(469.388672 0)"/>
      <use xlink:href="#DejaVuSans-4d" transform="translate(501.175781 0)"/>
      <use xlink:href="#DejaVuSans-6f" transform="translate(587.455078 0)"/>
      <use xlink:href="#DejaVuSans-43" transform="translate(648.636719 0)"/>
      <use xlink:href="#DejaVuSans-41" transform="translate(718.460938 0)"/>
      <use xlink:href="#DejaVuSans-20" transform="translate(786.869141 0)"/>
      <use xlink:href="#DejaVuSans-52" transform="translate(818.65625 0)"/>
      <use xlink:href="#DejaVuSans-61" transform="translate(885.888672 0)"/>
      <use xlink:href="#DejaVuSans-74" transform="translate(947.167969 0)"/>
      <use xlink:href="#DejaVuSans-69" transform="translate(986.376953 0)"/>
      <use xlink:href="#DejaVuSans-6f" transform="translate(1014.160156 0)"/>
     </g>
    </g>
   </g>
   <g id="PathCollection_1">
    <defs>
     <path id="m95f9fe974a" d="M 0 2.4 
C 0.636487 2.4 1.246992 2.147121 1.697056 1.697056 
C 2.147121 1.246992 2.4 0.636487 2.4 0 
C 2.4 -0.636487 2.147121 -1.246992 1.697056 -1.697056 
C 1.246992 -2.147121 0.636487 -2.4 0 -2.4 
C -0.636487 -2.4 -1.246992 -2.147121 -1.697056 -1.697056 
C -2.147121 -1.246992 -2.4 -0.636487 -2.4 0 
C -2.4 0.636487 -2.147121 1.246992 -1.697056 1.697056 
C -1.246992 2.147121 -0.636487 2.4 0 2.4 
z
" style="stroke: #ffffff; stroke-opacity: 0.7; stroke-width: 0.384"/>
    </defs>
    <g clip-path="url(#pf7a6fea551)">
     <use xlink:href="#m95f9fe974a" x="431.128313" y="91.874321" style="fill: #4c72b0; fill-opacity: 0.7; stroke: #ffffff; stroke-opacity: 0.7; stroke-width: 0.384"/>
     <use xlink:href="#m95f9fe974a" x="381.467418" y="167.530987" style="fill: #4c72b0; fill-opacity: 0.7; stroke: #ffffff; stroke-opacity: 0.7; stroke-width: 0.384"/>
     <use xlink:href="#m95f9fe974a" x="290.902809" y="225.874932" style="fill: #4c72b0; fill-opacity: 0.7; stroke: #ffffff; stroke-opacity: 0.7; stroke-width: 0.384"/>
     <use xlink:href="#m95f9fe974a" x="379.485163" y="101.939638" style="fill: #4c72b0; fill-opacity: 0.7; stroke: #ffffff; stroke-opacity: 0.7; stroke-width: 0.384"/>
     <use xlink:href="#m95f9fe974a" x="90.818182" y="223.895314" style="fill: #4c72b0; fill-opacity: 0.7; stroke: #ffffff; stroke-opacity: 0.7; stroke-width: 0.384"/>
     <use xlink:href="#m95f9fe974a" x="299.813451" y="189.565968" style="fill: #4c72b0; fill-opacity: 0.7; stroke: #ffffff; stroke-opacity: 0.7; stroke-width: 0.384"/>
     <use xlink:href="#m95f9fe974a" x="543.021818" y="126.904357" style="fill: #4c72b0; fill-opacity: 0.7; stroke: #ffffff; stroke-opacity: 0.7; stroke-width: 0.384"/>
     <use xlink:href="#m95f9fe974a" x="225.428894" y="257.124513" style="fill: #4c72b0; fill-opacity: 0.7; stroke: #ffffff; stroke-opacity: 0.7; stroke-width: 0.384"/>
     <use xlink:href="#m95f9fe974a" x="469.92589" y="175.514888" style="fill: #4c72b0; fill-opacity: 0.7; stroke: #ffffff; stroke-opacity: 0.7; stroke-width: 0.384"/>
     <use xlink:href="#m95f9fe974a" x="346.303809" y="148.658327" style="fill: #4c72b0; fill-opacity: 0.7; stroke: #ffffff; stroke-opacity: 0.7; stroke-width: 0.384"/>
     <use xlink:href="#m95f9fe974a" x="430.301629" y="182.631856" style="fill: #4c72b0; fill-opacity: 0.7; stroke: #ffffff; stroke-opacity: 0.7; stroke-width: 0.384"/>
     <use xlink:href="#m95f9fe974a" x="258.862376" y="266.303921" style="fill: #4c72b0; fill-opacity: 0.7; stroke: #ffffff; stroke-opacity: 0.7; stroke-width: 0.384"/>
     <use xlink:href="#m95f9fe974a" x="406.741267" y="338.512715" style="fill: #4c72b0; fill-opacity: 0.7; stroke: #ffffff; stroke-opacity: 0.7; stroke-width: 0.384"/>
     <use xlink:href="#m95f9fe974a" x="270.460716" y="158.162186" style="fill: #4c72b0; fill-opacity: 0.7; stroke: #ffffff; stroke-opacity: 0.7; stroke-width: 0.384"/>
     <use xlink:href="#m95f9fe974a" x="280.372036" y="148.520657" style="fill: #4c72b0; fill-opacity: 0.7; stroke: #ffffff; stroke-opacity: 0.7; stroke-width: 0.384"/>
     <use xlink:href="#m95f9fe974a" x="154.002804" y="223.956332" style="fill: #4c72b0; fill-opacity: 0.7; stroke: #ffffff; stroke-opacity: 0.7; stroke-width: 0.384"/>
     <use xlink:href="#m95f9fe974a" x="485.423992" y="180.535705" style="fill: #4c72b0; fill-opacity: 0.7; stroke: #ffffff; stroke-opacity: 0.7; stroke-width: 0.384"/>
     <use xlink:href="#m95f9fe974a" x="328.058542" y="347.552907" style="fill: #4c72b0; fill-opacity: 0.7; stroke: #ffffff; stroke-opacity: 0.7; stroke-width: 0.384"/>
     <use xlink:href="#m95f9fe974a" x="485.423992" y="102.299912" style="fill: #4c72b0; fill-opacity: 0.7; stroke: #ffffff; stroke-opacity: 0.7; stroke-width: 0.384"/>
     <use xlink:href="#m95f9fe974a" x="309.760231" y="96.184003" style="fill: #4c72b0; fill-opacity: 0.7; stroke: #ffffff; stroke-opacity: 0.7; stroke-width: 0.384"/>
     <use xlink:href="#m95f9fe974a" x="364.61819" y="119.626236" style="fill: #4c72b0; fill-opacity: 0.7; stroke: #ffffff; stroke-opacity: 0.7; stroke-width: 0.384"/>
     <use xlink:href="#m95f9fe974a" x="223.148233" y="241.730642" style="fill: #4c72b0; fill-opacity: 0.7; stroke: #ffffff; stroke-opacity: 0.7; stroke-width: 0.384"/>
     <use xlink:href="#m95f9fe974a" x="324.972939" y="195.919098" style="fill: #4c72b0; fill-opacity: 0.7; stroke: #ffffff; stroke-opacity: 0.7; stroke-width: 0.384"/>
     <use xlink:href="#m95f9fe974a" x="303.77375" y="213.978594" style="fill: #4c72b0; fill-opacity: 0.7; stroke: #ffffff; stroke-opacity: 0.7; stroke-width: 0.384"/>
     <use xlink:href="#m95f9fe974a" x="190.509463" y="220.349718" style="fill: #4c72b0; fill-opacity: 0.7; stroke: #ffffff; stroke-opacity: 0.7; stroke-width: 0.384"/>
     <use xlink:href="#m95f9fe974a" x="454.674426" y="104.683643" style="fill: #4c72b0; fill-opacity: 0.7; stroke: #ffffff; stroke-opacity: 0.7; stroke-width: 0.384"/>
     <use xlink:href="#m95f9fe974a" x="406.741267" y="132.002358" style="fill: #4c72b0; fill-opacity: 0.7; stroke: #ffffff; stroke-opacity: 0.7; stroke-width: 0.384"/>
     <use xlink:href="#m95f9fe974a" x="456.386329" y="225.879789" style="fill: #4c72b0; fill-opacity: 0.7; stroke: #ffffff; stroke-opacity: 0.7; stroke-width: 0.384"/>
     <use xlink:href="#m95f9fe974a" x="381.467418" y="212.468796" style="fill: #4c72b0; fill-opacity: 0.7; stroke: #ffffff; stroke-opacity: 0.7; stroke-width: 0.384"/>
     <use xlink:href="#m95f9fe974a" x="280.372036" y="201.414626" style="fill: #4c72b0; fill-opacity: 0.7; stroke: #ffffff; stroke-opacity: 0.7; stroke-width: 0.384"/>
     <use xlink:href="#m95f9fe974a" x="543.021818" y="111.051442" style="fill: #4c72b0; fill-opacity: 0.7; stroke: #ffffff; stroke-opacity: 0.7; stroke-width: 0.384"/>
     <use xlink:href="#m95f9fe974a" x="406.741267" y="43.524545" style="fill: #4c72b0; fill-opacity: 0.7; stroke: #ffffff; stroke-opacity: 0.7; stroke-width: 0.384"/>
     <use xlink:href="#m95f9fe974a" x="208.161048" y="184.214563" style="fill: #4c72b0; fill-opacity: 0.7; stroke: #ffffff; stroke-opacity: 0.7; stroke-width: 0.384"/>
     <use xlink:href="#m95f9fe974a" x="433.997372" y="177.631811" style="fill: #4c72b0; fill-opacity: 0.7; stroke: #ffffff; stroke-opacity: 0.7; stroke-width: 0.384"/>
     <use xlink:href="#m95f9fe974a" x="330.919734" y="223.947801" style="fill: #4c72b0; fill-opacity: 0.7; stroke: #ffffff; stroke-opacity: 0.7; stroke-width: 0.384"/>
     <use xlink:href="#m95f9fe974a" x="485.423992" y="233.395664" style="fill: #4c72b0; fill-opacity: 0.7; stroke: #ffffff; stroke-opacity: 0.7; stroke-width: 0.384"/>
     <use xlink:href="#m95f9fe974a" x="462.34373" y="125.508281" style="fill: #4c72b0; fill-opacity: 0.7; stroke: #ffffff; stroke-opacity: 0.7; stroke-width: 0.384"/>
     <use xlink:href="#m95f9fe974a" x="543.021818" y="139.933073" style="fill: #4c72b0; fill-opacity: 0.7; stroke: #ffffff; stroke-opacity: 0.7; stroke-width: 0.384"/>
     <use xlink:href="#m95f9fe974a" x="454.674426" y="125.545002" style="fill: #4c72b0; fill-opacity: 0.7; stroke: #ffffff; stroke-opacity: 0.7; stroke-width: 0.384"/>
     <use xlink:href="#m95f9fe974a" x="358.808108" y="215.975375" style="fill: #4c72b0; fill-opacity: 0.7; stroke: #ffffff; stroke-opacity: 0.7; stroke-width: 0.384"/>
     <use xlink:href="#m95f9fe974a" x="458.225033" y="252.533719" style="fill: #4c72b0; fill-opacity: 0.7; stroke: #ffffff; stroke-opacity: 0.7; stroke-width: 0.384"/>
     <use xlink:href="#m95f9fe974a" x="431.128313" y="181.912406" style="fill: #4c72b0; fill-opacity: 0.7; stroke: #ffffff; stroke-opacity: 0.7; stroke-width: 0.384"/>
     <use xlink:href="#m95f9fe974a" x="348.822031" y="100.675877" style="fill: #4c72b0; fill-opacity: 0.7; stroke: #ffffff; stroke-opacity: 0.7; stroke-width: 0.384"/>
     <use xlink:href="#m95f9fe974a" x="430.301629" y="172.016507" style="fill: #4c72b0; fill-opacity: 0.7; stroke: #ffffff; stroke-opacity: 0.7; stroke-width: 0.384"/>
     <use xlink:href="#m95f9fe974a" x="382.354222" y="178.288546" style="fill: #4c72b0; fill-opacity: 0.7; stroke: #ffffff; stroke-opacity: 0.7; stroke-width: 0.384"/>
     <use xlink:href="#m95f9fe974a" x="381.467418" y="200.386092" style="fill: #4c72b0; fill-opacity: 0.7; stroke: #ffffff; stroke-opacity: 0.7; stroke-width: 0.384"/>
     <use xlink:href="#m95f9fe974a" x="232.983572" y="222.664665" style="fill: #4c72b0; fill-opacity: 0.7; stroke: #ffffff; stroke-opacity: 0.7; stroke-width: 0.384"/>
     <use xlink:href="#m95f9fe974a" x="299.813451" y="174.543314" style="fill: #4c72b0; fill-opacity: 0.7; stroke: #ffffff; stroke-opacity: 0.7; stroke-width: 0.384"/>
     <use xlink:href="#m95f9fe974a" x="454.674426" y="250.504408" style="fill: #4c72b0; fill-opacity: 0.7; stroke: #ffffff; stroke-opacity: 0.7; stroke-width: 0.384"/>
     <use xlink:href="#m95f9fe974a" x="303.77375" y="238.321553" style="fill: #4c72b0; fill-opacity: 0.7; stroke: #ffffff; stroke-opacity: 0.7; stroke-width: 0.384"/>
     <use xlink:href="#m95f9fe974a" x="406.741267" y="126.697669" style="fill: #4c72b0; fill-opacity: 0.7; stroke: #ffffff; stroke-opacity: 0.7; stroke-width: 0.384"/>
     <use xlink:href="#m95f9fe974a" x="406.741267" y="230.427575" style="fill: #4c72b0; fill-opacity: 0.7; stroke: #ffffff; stroke-opacity: 0.7; stroke-width: 0.384"/>
     <use xlink:href="#m95f9fe974a" x="353.277359" y="141.890141" style="fill: #4c72b0; fill-opacity: 0.7; stroke: #ffffff; stroke-opacity: 0.7; stroke-width: 0.384"/>
     <use xlink:href="#m95f9fe974a" x="430.301629" y="181.040351" style="fill: #4c72b0; fill-opacity: 0.7; stroke: #ffffff; stroke-opacity: 0.7; stroke-width: 0.384"/>
     <use xlink:href="#m95f9fe974a" x="275.603388" y="255.562511" style="fill: #4c72b0; fill-opacity: 0.7; stroke: #ffffff; stroke-opacity: 0.7; stroke-width: 0.384"/>
     <use xlink:href="#m95f9fe974a" x="406.741267" y="171.163162" style="fill: #4c72b0; fill-opacity: 0.7; stroke: #ffffff; stroke-opacity: 0.7; stroke-width: 0.384"/>
     <use xlink:href="#m95f9fe974a" x="430.301629" y="151.396462" style="fill: #4c72b0; fill-opacity: 0.7; stroke: #ffffff; stroke-opacity: 0.7; stroke-width: 0.384"/>
     <use xlink:href="#m95f9fe974a" x="330.919734" y="139.307172" style="fill: #4c72b0; fill-opacity: 0.7; stroke: #ffffff; stroke-opacity: 0.7; stroke-width: 0.384"/>
     <use xlink:href="#m95f9fe974a" x="357.096206" y="190.359608" style="fill: #4c72b0; fill-opacity: 0.7; stroke: #ffffff; stroke-opacity: 0.7; stroke-width: 0.384"/>
     <use xlink:href="#m95f9fe974a" x="280.372036" y="212.749059" style="fill: #4c72b0; fill-opacity: 0.7; stroke: #ffffff; stroke-opacity: 0.7; stroke-width: 0.384"/>
     <use xlink:href="#m95f9fe974a" x="333.580131" y="252.944002" style="fill: #4c72b0; fill-opacity: 0.7; stroke: #ffffff; stroke-opacity: 0.7; stroke-width: 0.384"/>
     <use xlink:href="#m95f9fe974a" x="379.485163" y="205.406926" style="fill: #4c72b0; fill-opacity: 0.7; stroke: #ffffff; stroke-opacity: 0.7; stroke-width: 0.384"/>
     <use xlink:href="#m95f9fe974a" x="358.808108" y="265.38861" style="fill: #4c72b0; fill-opacity: 0.7; stroke: #ffffff; stroke-opacity: 0.7; stroke-width: 0.384"/>
     <use xlink:href="#m95f9fe974a" x="330.919734" y="204.5677" style="fill: #4c72b0; fill-opacity: 0.7; stroke: #ffffff; stroke-opacity: 0.7; stroke-width: 0.384"/>
     <use xlink:href="#m95f9fe974a" x="406.741267" y="75.90316" style="fill: #4c72b0; fill-opacity: 0.7; stroke: #ffffff; stroke-opacity: 0.7; stroke-width: 0.384"/>
     <use xlink:href="#m95f9fe974a" x="280.372036" y="162.221093" style="fill: #4c72b0; fill-opacity: 0.7; stroke: #ffffff; stroke-opacity: 0.7; stroke-width: 0.384"/>
     <use xlink:href="#m95f9fe974a" x="290.902809" y="253.960895" style="fill: #4c72b0; fill-opacity: 0.7; stroke: #ffffff; stroke-opacity: 0.7; stroke-width: 0.384"/>
     <use xlink:href="#m95f9fe974a" x="184.331418" y="84.593439" style="fill: #4c72b0; fill-opacity: 0.7; stroke: #ffffff; stroke-opacity: 0.7; stroke-width: 0.384"/>
     <use xlink:href="#m95f9fe974a" x="280.372036" y="174.684726" style="fill: #4c72b0; fill-opacity: 0.7; stroke: #ffffff; stroke-opacity: 0.7; stroke-width: 0.384"/>
     <use xlink:href="#m95f9fe974a" x="295.536342" y="51.244282" style="fill: #4c72b0; fill-opacity: 0.7; stroke: #ffffff; stroke-opacity: 0.7; stroke-width: 0.384"/>
     <use xlink:href="#m95f9fe974a" x="381.467418" y="370.655455" style="fill: #4c72b0; fill-opacity: 0.7; stroke: #ffffff; stroke-opacity: 0.7; stroke-width: 0.384"/>
     <use xlink:href="#m95f9fe974a" x="454.674426" y="221.765269" style="fill: #4c72b0; fill-opacity: 0.7; stroke: #ffffff; stroke-opacity: 0.7; stroke-width: 0.384"/>
     <use xlink:href="#m95f9fe974a" x="406.741267" y="173.458135" style="fill: #4c72b0; fill-opacity: 0.7; stroke: #ffffff; stroke-opacity: 0.7; stroke-width: 0.384"/>
     <use xlink:href="#m95f9fe974a" x="406.741267" y="162.40646" style="fill: #4c72b0; fill-opacity: 0.7; stroke: #ffffff; stroke-opacity: 0.7; stroke-width: 0.384"/>
     <use xlink:href="#m95f9fe974a" x="454.674426" y="135.824075" style="fill: #4c72b0; fill-opacity: 0.7; stroke: #ffffff; stroke-opacity: 0.7; stroke-width: 0.384"/>
     <use xlink:href="#m95f9fe974a" x="351.138805" y="203.495743" style="fill: #4c72b0; fill-opacity: 0.7; stroke: #ffffff; stroke-opacity: 0.7; stroke-width: 0.384"/>
     <use xlink:href="#m95f9fe974a" x="379.485163" y="118.192957" style="fill: #4c72b0; fill-opacity: 0.7; stroke: #ffffff; stroke-opacity: 0.7; stroke-width: 0.384"/>
     <use xlink:href="#m95f9fe974a" x="280.372036" y="252.79005" style="fill: #4c72b0; fill-opacity: 0.7; stroke: #ffffff; stroke-opacity: 0.7; stroke-width: 0.384"/>
     <use xlink:href="#m95f9fe974a" x="406.741267" y="161.215359" style="fill: #4c72b0; fill-opacity: 0.7; stroke: #ffffff; stroke-opacity: 0.7; stroke-width: 0.384"/>
     <use xlink:href="#m95f9fe974a" x="499.412042" y="105.975676" style="fill: #4c72b0; fill-opacity: 0.7; stroke: #ffffff; stroke-opacity: 0.7; stroke-width: 0.384"/>
     <use xlink:href="#m95f9fe974a" x="104.553978" y="170.130238" style="fill: #4c72b0; fill-opacity: 0.7; stroke: #ffffff; stroke-opacity: 0.7; stroke-width: 0.384"/>
     <use xlink:href="#m95f9fe974a" x="382.354222" y="103.718372" style="fill: #4c72b0; fill-opacity: 0.7; stroke: #ffffff; stroke-opacity: 0.7; stroke-width: 0.384"/>
     <use xlink:href="#m95f9fe974a" x="406.741267" y="184.521884" style="fill: #4c72b0; fill-opacity: 0.7; stroke: #ffffff; stroke-opacity: 0.7; stroke-width: 0.384"/>
     <use xlink:href="#m95f9fe974a" x="357.096206" y="220.852585" style="fill: #4c72b0; fill-opacity: 0.7; stroke: #ffffff; stroke-opacity: 0.7; stroke-width: 0.384"/>
     <use xlink:href="#m95f9fe974a" x="406.741267" y="179.996616" style="fill: #4c72b0; fill-opacity: 0.7; stroke: #ffffff; stroke-opacity: 0.7; stroke-width: 0.384"/>
     <use xlink:href="#m95f9fe974a" x="406.741267" y="228.120279" style="fill: #4c72b0; fill-opacity: 0.7; stroke: #ffffff; stroke-opacity: 0.7; stroke-width: 0.384"/>
     <use xlink:href="#m95f9fe974a" x="357.096206" y="203.265755" style="fill: #4c72b0; fill-opacity: 0.7; stroke: #ffffff; stroke-opacity: 0.7; stroke-width: 0.384"/>
     <use xlink:href="#m95f9fe974a" x="406.741267" y="174.661576" style="fill: #4c72b0; fill-opacity: 0.7; stroke: #ffffff; stroke-opacity: 0.7; stroke-width: 0.384"/>
     <use xlink:href="#m95f9fe974a" x="432.968837" y="121.752406" style="fill: #4c72b0; fill-opacity: 0.7; stroke: #ffffff; stroke-opacity: 0.7; stroke-width: 0.384"/>
     <use xlink:href="#m95f9fe974a" x="406.741267" y="131.328776" style="fill: #4c72b0; fill-opacity: 0.7; stroke: #ffffff; stroke-opacity: 0.7; stroke-width: 0.384"/>
     <use xlink:href="#m95f9fe974a" x="431.128313" y="67.378225" style="fill: #4c72b0; fill-opacity: 0.7; stroke: #ffffff; stroke-opacity: 0.7; stroke-width: 0.384"/>
     <use xlink:href="#m95f9fe974a" x="280.372036" y="125.266851" style="fill: #4c72b0; fill-opacity: 0.7; stroke: #ffffff; stroke-opacity: 0.7; stroke-width: 0.384"/>
     <use xlink:href="#m95f9fe974a" x="383.180905" y="124.970407" style="fill: #4c72b0; fill-opacity: 0.7; stroke: #ffffff; stroke-opacity: 0.7; stroke-width: 0.384"/>
     <use xlink:href="#m95f9fe974a" x="264.898246" y="182.031033" style="fill: #4c72b0; fill-opacity: 0.7; stroke: #ffffff; stroke-opacity: 0.7; stroke-width: 0.384"/>
    </g>
   </g>
   <g id="FillBetweenPolyCollection_1">
    <defs>
     <path id="meb257fdb7f" d="M 90.818182 -238.595947 
L 90.818182 -171.752395 
L 95.385895 -173.007863 
L 99.953609 -174.295663 
L 104.521322 -175.514702 
L 109.089036 -176.765371 
L 113.656749 -178.016041 
L 118.224463 -179.26671 
L 122.792176 -180.51738 
L 127.35989 -181.768049 
L 131.927603 -183.020326 
L 136.495317 -184.275254 
L 141.06303 -185.530182 
L 145.630744 -186.78511 
L 150.198457 -188.040134 
L 154.766171 -189.249788 
L 159.333884 -190.378242 
L 163.901598 -191.754877 
L 168.469311 -193.059749 
L 173.037025 -194.314677 
L 177.604738 -195.655988 
L 182.172452 -197.19809 
L 186.740165 -198.606482 
L 191.307879 -199.752669 
L 195.875592 -200.900694 
L 200.443306 -202.109155 
L 205.011019 -203.427805 
L 209.578733 -204.709625 
L 214.146446 -206.030358 
L 218.71416 -207.397287 
L 223.281873 -208.573553 
L 227.849587 -209.891056 
L 232.4173 -211.181947 
L 236.985014 -212.433749 
L 241.552727 -213.680751 
L 246.120441 -214.998696 
L 250.688154 -216.168535 
L 255.255868 -217.407513 
L 259.823581 -218.646491 
L 264.391295 -219.867682 
L 268.959008 -221.011552 
L 273.526722 -221.89741 
L 278.094435 -223.148407 
L 282.662149 -223.996709 
L 287.229862 -225.100845 
L 291.797576 -226.27009 
L 296.365289 -227.411073 
L 300.933003 -228.623477 
L 305.500716 -229.825735 
L 310.06843 -231.069998 
L 314.636143 -232.223036 
L 319.203857 -232.987366 
L 323.77157 -233.862181 
L 328.339284 -234.679431 
L 332.906997 -235.447727 
L 337.474711 -236.444959 
L 342.042424 -237.353934 
L 346.610138 -238.001073 
L 351.177851 -238.576872 
L 355.745565 -239.319021 
L 360.313278 -240.149125 
L 364.880992 -241.140006 
L 369.448705 -241.977157 
L 374.016419 -242.663165 
L 378.584132 -243.444289 
L 383.151846 -244.086003 
L 387.719559 -244.500643 
L 392.287273 -245.201568 
L 396.854986 -245.598269 
L 401.4227 -246.308564 
L 405.990413 -247.044573 
L 410.558127 -247.443956 
L 415.12584 -247.89865 
L 419.693554 -248.353373 
L 424.261267 -248.832196 
L 428.828981 -249.272618 
L 433.396694 -249.938315 
L 437.964408 -250.55563 
L 442.532121 -250.804481 
L 447.099835 -251.079661 
L 451.667548 -251.528303 
L 456.235262 -251.607413 
L 460.802975 -251.778805 
L 465.370689 -252.020839 
L 469.938402 -252.337366 
L 474.506116 -252.654458 
L 479.073829 -253.398805 
L 483.641543 -253.686773 
L 488.209256 -253.975916 
L 492.77697 -254.265059 
L 497.344683 -254.553805 
L 501.912397 -254.838519 
L 506.48011 -255.329955 
L 511.047824 -255.517115 
L 515.615537 -255.898936 
L 520.183251 -256.294142 
L 524.750964 -256.686046 
L 529.318678 -257.083063 
L 533.886391 -257.29543 
L 538.454105 -257.575073 
L 543.021818 -257.968493 
L 543.021818 -306.344231 
L 543.021818 -306.344231 
L 538.454105 -305.168531 
L 533.886391 -303.921425 
L 529.318678 -302.716273 
L 524.750964 -301.505714 
L 520.183251 -300.097188 
L 515.615537 -298.793044 
L 511.047824 -297.427656 
L 506.48011 -296.088921 
L 501.912397 -295.069542 
L 497.344683 -294.111554 
L 492.77697 -292.980518 
L 488.209256 -291.643083 
L 483.641543 -290.318469 
L 479.073829 -289.161284 
L 474.506116 -287.939563 
L 469.938402 -286.665289 
L 465.370689 -285.581925 
L 460.802975 -284.614978 
L 456.235262 -283.62341 
L 451.667548 -282.655028 
L 447.099835 -281.607571 
L 442.532121 -280.484005 
L 437.964408 -279.680273 
L 433.396694 -278.573576 
L 428.828981 -277.460474 
L 424.261267 -276.347372 
L 419.693554 -275.363855 
L 415.12584 -274.40054 
L 410.558127 -273.244616 
L 405.990413 -271.93336 
L 401.4227 -270.934382 
L 396.854986 -270.037357 
L 392.287273 -269.178397 
L 387.719559 -268.469806 
L 383.151846 -267.890706 
L 378.584132 -266.953786 
L 374.016419 -266.270998 
L 369.448705 -265.621735 
L 364.880992 -265.051528 
L 360.313278 -264.150464 
L 355.745565 -263.514852 
L 351.177851 -262.816976 
L 346.610138 -262.132122 
L 342.042424 -261.488172 
L 337.474711 -260.740706 
L 332.906997 -260.15911 
L 328.339284 -259.494607 
L 323.77157 -258.832843 
L 319.203857 -258.212455 
L 314.636143 -257.615557 
L 310.06843 -256.890515 
L 305.500716 -256.562924 
L 300.933003 -256.159835 
L 296.365289 -255.802764 
L 291.797576 -255.436198 
L 287.229862 -255.075498 
L 282.662149 -254.665702 
L 278.094435 -254.195888 
L 273.526722 -253.707004 
L 268.959008 -253.203082 
L 264.391295 -252.664837 
L 259.823581 -252.103424 
L 255.255868 -251.824463 
L 250.688154 -251.208456 
L 246.120441 -251.017484 
L 241.552727 -250.720035 
L 236.985014 -250.446274 
L 232.4173 -250.071495 
L 227.849587 -249.463228 
L 223.281873 -248.854961 
L 218.71416 -248.246694 
L 214.146446 -247.914991 
L 209.578733 -247.591346 
L 205.011019 -246.954461 
L 200.443306 -246.552273 
L 195.875592 -246.312448 
L 191.307879 -245.968845 
L 186.740165 -245.462261 
L 182.172452 -244.976478 
L 177.604738 -244.624876 
L 173.037025 -244.203975 
L 168.469311 -243.918489 
L 163.901598 -243.630121 
L 159.333884 -243.337618 
L 154.766171 -243.045114 
L 150.198457 -242.752611 
L 145.630744 -242.460108 
L 141.06303 -242.167604 
L 136.495317 -241.78928 
L 131.927603 -241.373136 
L 127.35989 -240.956991 
L 122.792176 -240.540846 
L 118.224463 -240.124701 
L 113.656749 -239.706573 
L 109.089036 -239.49351 
L 104.521322 -239.304267 
L 99.953609 -238.970631 
L 95.385895 -238.783289 
L 90.818182 -238.595947 
z
" style="stroke: #ffffff; stroke-opacity: 0.15; stroke-width: 0.8"/>
    </defs>
    <g clip-path="url(#pf7a6fea551)">
     <use xlink:href="#meb257fdb7f" x="0" y="432" style="fill: #808080; fill-opacity: 0.15; stroke: #ffffff; stroke-opacity: 0.15; stroke-width: 0.8"/>
    </g>
   </g>
   <g id="FillBetweenPolyCollection_2">
    <defs>
     <path id="m51c2ff870f" d="M 90.818182 -237.332876 
L 90.818182 -173.057086 
L 95.385895 -174.501694 
L 99.953609 -175.839176 
L 104.521322 -177.010794 
L 109.089036 -178.182413 
L 113.656749 -179.354031 
L 118.224463 -180.525649 
L 122.792176 -181.697268 
L 127.35989 -182.94504 
L 131.927603 -184.310708 
L 136.495317 -185.676376 
L 141.06303 -187.042043 
L 145.630744 -188.406331 
L 150.198457 -189.63462 
L 154.766171 -190.862908 
L 159.333884 -192.091196 
L 163.901598 -193.319484 
L 168.469311 -194.607506 
L 173.037025 -196.015337 
L 177.604738 -197.423825 
L 182.172452 -198.832313 
L 186.740165 -200.039278 
L 191.307879 -201.210936 
L 195.875592 -202.354081 
L 200.443306 -203.557869 
L 205.011019 -204.84188 
L 209.578733 -205.985035 
L 214.146446 -207.12819 
L 218.71416 -208.271344 
L 223.281873 -209.414499 
L 227.849587 -210.581182 
L 232.4173 -211.9292 
L 236.985014 -213.087611 
L 241.552727 -214.528584 
L 246.120441 -215.668238 
L 250.688154 -216.789124 
L 255.255868 -217.853762 
L 259.823581 -218.950836 
L 264.391295 -220.226704 
L 268.959008 -221.255823 
L 273.526722 -222.380385 
L 278.094435 -223.300858 
L 282.662149 -224.56714 
L 287.229862 -225.73863 
L 291.797576 -226.904252 
L 296.365289 -227.810864 
L 300.933003 -228.753916 
L 305.500716 -229.818665 
L 310.06843 -230.893886 
L 314.636143 -231.878978 
L 319.203857 -232.756762 
L 323.77157 -233.516728 
L 328.339284 -234.597199 
L 332.906997 -235.781601 
L 337.474711 -236.852504 
L 342.042424 -237.509889 
L 346.610138 -238.370975 
L 351.177851 -239.387484 
L 355.745565 -240.011184 
L 360.313278 -240.560579 
L 364.880992 -240.931483 
L 369.448705 -241.699978 
L 374.016419 -242.451616 
L 378.584132 -243.017666 
L 383.151846 -243.339227 
L 387.719559 -244.106393 
L 392.287273 -244.714566 
L 396.854986 -245.494357 
L 401.4227 -246.176197 
L 405.990413 -246.627373 
L 410.558127 -247.10136 
L 415.12584 -247.685164 
L 419.693554 -248.043032 
L 424.261267 -248.508689 
L 428.828981 -248.745154 
L 433.396694 -249.226986 
L 437.964408 -249.641585 
L 442.532121 -250.207589 
L 447.099835 -250.80584 
L 451.667548 -251.0697 
L 456.235262 -251.303606 
L 460.802975 -251.56727 
L 465.370689 -252.110072 
L 469.938402 -252.394444 
L 474.506116 -252.808172 
L 479.073829 -253.335878 
L 483.641543 -253.792313 
L 488.209256 -254.055105 
L 492.77697 -254.293254 
L 497.344683 -254.528165 
L 501.912397 -254.814895 
L 506.48011 -255.308702 
L 511.047824 -255.805304 
L 515.615537 -256.23932 
L 520.183251 -256.448047 
L 524.750964 -256.717178 
L 529.318678 -257.122244 
L 533.886391 -257.52731 
L 538.454105 -257.932376 
L 543.021818 -258.337441 
L 543.021818 -306.975577 
L 543.021818 -306.975577 
L 538.454105 -305.658354 
L 533.886391 -304.663626 
L 529.318678 -303.308058 
L 524.750964 -301.952491 
L 520.183251 -300.683999 
L 515.615537 -299.53337 
L 511.047824 -298.381639 
L 506.48011 -297.229908 
L 501.912397 -296.07691 
L 497.344683 -294.933884 
L 492.77697 -293.669939 
L 488.209256 -292.52833 
L 483.641543 -291.103471 
L 479.073829 -289.961941 
L 474.506116 -288.471756 
L 469.938402 -287.029435 
L 465.370689 -285.864464 
L 460.802975 -284.705121 
L 456.235262 -283.544004 
L 451.667548 -282.393862 
L 447.099835 -281.423492 
L 442.532121 -280.593618 
L 437.964408 -279.467603 
L 433.396694 -278.655464 
L 428.828981 -277.738037 
L 424.261267 -276.619352 
L 419.693554 -275.520251 
L 415.12584 -274.681331 
L 410.558127 -273.875553 
L 405.990413 -272.975323 
L 401.4227 -271.989396 
L 396.854986 -271.00578 
L 392.287273 -270.133508 
L 387.719559 -269.279334 
L 383.151846 -268.197883 
L 378.584132 -267.405564 
L 374.016419 -266.621027 
L 369.448705 -265.688875 
L 364.880992 -264.743896 
L 360.313278 -263.893651 
L 355.745565 -262.836107 
L 351.177851 -262.183112 
L 346.610138 -261.394082 
L 342.042424 -260.605611 
L 337.474711 -260.010192 
L 332.906997 -259.387263 
L 328.339284 -258.742332 
L 323.77157 -257.985441 
L 319.203857 -257.399452 
L 314.636143 -256.911811 
L 310.06843 -256.269912 
L 305.500716 -255.645611 
L 300.933003 -255.042346 
L 296.365289 -254.393252 
L 291.797576 -253.876888 
L 287.229862 -253.455218 
L 282.662149 -252.887927 
L 278.094435 -252.535033 
L 273.526722 -252.217676 
L 268.959008 -251.775435 
L 264.391295 -251.351854 
L 259.823581 -250.910119 
L 255.255868 -250.468385 
L 250.688154 -249.852494 
L 246.120441 -249.43202 
L 241.552727 -249.107898 
L 236.985014 -248.680129 
L 232.4173 -248.175299 
L 227.849587 -247.764077 
L 223.281873 -247.34416 
L 218.71416 -246.929088 
L 214.146446 -246.48682 
L 209.578733 -246.05578 
L 205.011019 -245.726353 
L 200.443306 -245.436052 
L 195.875592 -245.047206 
L 191.307879 -244.636905 
L 186.740165 -244.217783 
L 182.172452 -243.798661 
L 177.604738 -243.377378 
L 173.037025 -242.974447 
L 168.469311 -242.720029 
L 163.901598 -242.336701 
L 159.333884 -241.952136 
L 154.766171 -241.56749 
L 150.198457 -241.217062 
L 145.630744 -240.868953 
L 141.06303 -240.55932 
L 136.495317 -240.494625 
L 131.927603 -240.214562 
L 127.35989 -239.714141 
L 122.792176 -239.211735 
L 118.224463 -238.776922 
L 113.656749 -238.426912 
L 109.089036 -238.159562 
L 104.521322 -237.952891 
L 99.953609 -237.746219 
L 95.385895 -237.539548 
L 90.818182 -237.332876 
z
" style="stroke: #ffffff; stroke-opacity: 0.15; stroke-width: 0.8"/>
    </defs>
    <g clip-path="url(#pf7a6fea551)">
     <use xlink:href="#m51c2ff870f" x="0" y="432" style="fill: #808080; fill-opacity: 0.15; stroke: #ffffff; stroke-opacity: 0.15; stroke-width: 0.8"/>
    </g>
   </g>
   <g id="line2d_1">
    <path d="M 90.818182 225.187805 
L 95.385895 224.411818 
L 99.953609 223.635831 
L 104.521322 222.859844 
L 109.089036 222.083857 
L 113.656749 221.30787 
L 118.224463 220.531883 
L 122.792176 219.755896 
L 127.35989 218.979909 
L 131.927603 218.203922 
L 136.495317 217.427935 
L 141.06303 216.651949 
L 145.630744 215.875962 
L 150.198457 215.099975 
L 154.766171 214.323988 
L 159.333884 213.548001 
L 163.901598 212.772014 
L 168.469311 211.996027 
L 173.037025 211.22004 
L 177.604738 210.444053 
L 182.172452 209.668066 
L 186.740165 208.892079 
L 191.307879 208.116092 
L 195.875592 207.340105 
L 200.443306 206.564118 
L 205.011019 205.788132 
L 209.578733 205.012145 
L 214.146446 204.236158 
L 218.71416 203.460171 
L 223.281873 202.684184 
L 227.849587 201.908197 
L 232.4173 201.13221 
L 236.985014 200.356223 
L 241.552727 199.580236 
L 246.120441 198.804249 
L 250.688154 198.028262 
L 255.255868 197.252275 
L 259.823581 196.476288 
L 264.391295 195.700301 
L 268.959008 194.924314 
L 273.526722 194.148328 
L 278.094435 193.372341 
L 282.662149 192.596354 
L 287.229862 191.820367 
L 291.797576 191.04438 
L 296.365289 190.268393 
L 300.933003 189.492406 
L 305.500716 188.716419 
L 310.06843 187.940432 
L 314.636143 187.164445 
L 319.203857 186.388458 
L 323.77157 185.612471 
L 328.339284 184.836484 
L 332.906997 184.060497 
L 337.474711 183.28451 
L 342.042424 182.508524 
L 346.610138 181.732537 
L 351.177851 180.95655 
L 355.745565 180.180563 
L 360.313278 179.404576 
L 364.880992 178.628589 
L 369.448705 177.852602 
L 374.016419 177.076615 
L 378.584132 176.300628 
L 383.151846 175.524641 
L 387.719559 174.748654 
L 392.287273 173.972667 
L 396.854986 173.19668 
L 401.4227 172.420693 
L 405.990413 171.644706 
L 410.558127 170.86872 
L 415.12584 170.092733 
L 419.693554 169.316746 
L 424.261267 168.540759 
L 428.828981 167.764772 
L 433.396694 166.988785 
L 437.964408 166.212798 
L 442.532121 165.436811 
L 447.099835 164.660824 
L 451.667548 163.884837 
L 456.235262 163.10885 
L 460.802975 162.332863 
L 465.370689 161.556876 
L 469.938402 160.780889 
L 474.506116 160.004903 
L 479.073829 159.228916 
L 483.641543 158.452929 
L 488.209256 157.676942 
L 492.77697 156.900955 
L 497.344683 156.124968 
L 501.912397 155.348981 
L 506.48011 154.572994 
L 511.047824 153.797007 
L 515.615537 153.02102 
L 520.183251 152.245033 
L 524.750964 151.469046 
L 529.318678 150.693059 
L 533.886391 149.917072 
L 538.454105 149.141085 
L 543.021818 148.365099 
" clip-path="url(#pf7a6fea551)" style="fill: none; stroke: #808080; stroke-width: 1.8; stroke-linecap: round"/>
   </g>
   <g id="line2d_2">
    <path d="M 90.818182 225.187805 
L 95.385895 224.411818 
L 99.953609 223.635831 
L 104.521322 222.859844 
L 109.089036 222.083857 
L 113.656749 221.30787 
L 118.224463 220.531883 
L 122.792176 219.755896 
L 127.35989 218.979909 
L 131.927603 218.203922 
L 136.495317 217.427935 
L 141.06303 216.651949 
L 145.630744 215.875962 
L 150.198457 215.099975 
L 154.766171 214.323988 
L 159.333884 213.548001 
L 163.901598 212.772014 
L 168.469311 211.996027 
L 173.037025 211.22004 
L 177.604738 210.444053 
L 182.172452 209.668066 
L 186.740165 208.892079 
L 191.307879 208.116092 
L 195.875592 207.340105 
L 200.443306 206.564118 
L 205.011019 205.788132 
L 209.578733 205.012145 
L 214.146446 204.236158 
L 218.71416 203.460171 
L 223.281873 202.684184 
L 227.849587 201.908197 
L 232.4173 201.13221 
L 236.985014 200.356223 
L 241.552727 199.580236 
L 246.120441 198.804249 
L 250.688154 198.028262 
L 255.255868 197.252275 
L 259.823581 196.476288 
L 264.391295 195.700301 
L 268.959008 194.924314 
L 273.526722 194.148328 
L 278.094435 193.372341 
L 282.662149 192.596354 
L 287.229862 191.820367 
L 291.797576 191.04438 
L 296.365289 190.268393 
L 300.933003 189.492406 
L 305.500716 188.716419 
L 310.06843 187.940432 
L 314.636143 187.164445 
L 319.203857 186.388458 
L 323.77157 185.612471 
L 328.339284 184.836484 
L 332.906997 184.060497 
L 337.474711 183.28451 
L 342.042424 182.508524 
L 346.610138 181.732537 
L 351.177851 180.95655 
L 355.745565 180.180563 
L 360.313278 179.404576 
L 364.880992 178.628589 
L 369.448705 177.852602 
L 374.016419 177.076615 
L 378.584132 176.300628 
L 383.151846 175.524641 
L 387.719559 174.748654 
L 392.287273 173.972667 
L 396.854986 173.19668 
L 401.4227 172.420693 
L 405.990413 171.644706 
L 410.558127 170.86872 
L 415.12584 170.092733 
L 419.693554 169.316746 
L 424.261267 168.540759 
L 428.828981 167.764772 
L 433.396694 166.988785 
L 437.964408 166.212798 
L 442.532121 165.436811 
L 447.099835 164.660824 
L 451.667548 163.884837 
L 456.235262 163.10885 
L 460.802975 162.332863 
L 465.370689 161.556876 
L 469.938402 160.780889 
L 474.506116 160.004903 
L 479.073829 159.228916 
L 483.641543 158.452929 
L 488.209256 157.676942 
L 492.77697 156.900955 
L 497.344683 156.124968 
L 501.912397 155.348981 
L 506.48011 154.572994 
L 511.047824 153.797007 
L 515.615537 153.02102 
L 520.183251 152.245033 
L 524.750964 151.469046 
L 529.318678 150.693059 
L 533.886391 149.917072 
L 538.454105 149.141085 
L 543.021818 148.365099 
" clip-path="url(#pf7a6fea551)" style="fill: none; stroke: #808080; stroke-width: 1.8; stroke-linecap: round"/>
   </g>
   <g id="patch_5">
    <path d="M 68.208 387.012 
L 68.208 27.168 
" style="fill: none; stroke: #262626; stroke-linejoin: miter; stroke-linecap: square"/>
   </g>
   <g id="patch_6">
    <path d="M 68.208 387.012 
L 565.632 387.012 
" style="fill: none; stroke: #262626; stroke-linejoin: miter; stroke-linecap: square"/>
   </g>
   <g id="text_19">
    <g id="patch_7">
     <path d="M 89.1192 74.171325 
L 205.91295 74.171325 
L 205.91295 41.2002 
L 89.1192 41.2002 
z
" style="fill: #ffffff; opacity: 0.5; stroke: #ffffff; stroke-width: 0.8; stroke-linejoin: miter"/>
    </g>
    <!-- R: 0.25 -->
    <g style="fill: #262626" transform="translate(93.0792 54.278325) scale(0.12 -0.12)">
     <defs>
      <path id="DejaVuSans-3a" d="M 750 794 
L 1409 794 
L 1409 0 
L 750 0 
L 750 794 
z
M 750 3309 
L 1409 3309 
L 1409 2516 
L 750 2516 
L 750 3309 
z
" transform="scale(0.015625)"/>
     </defs>
     <use xlink:href="#DejaVuSans-52"/>
     <use xlink:href="#DejaVuSans-3a" transform="translate(66.357422 0)"/>
     <use xlink:href="#DejaVuSans-20" transform="translate(100.048828 0)"/>
     <use xlink:href="#DejaVuSans-30" transform="translate(131.835938 0)"/>
     <use xlink:href="#DejaVuSans-2e" transform="translate(195.458984 0)"/>
     <use xlink:href="#DejaVuSans-32" transform="translate(227.246094 0)"/>
     <use xlink:href="#DejaVuSans-35" transform="translate(290.869141 0)"/>
    </g>
    <!-- P-value: 0.014482 -->
    <g style="fill: #262626" transform="translate(93.0792 67.7157) scale(0.12 -0.12)">
     <defs>
      <path id="DejaVuSans-2d" d="M 313 2009 
L 1997 2009 
L 1997 1497 
L 313 1497 
L 313 2009 
z
" transform="scale(0.015625)"/>
      <path id="DejaVuSans-76" d="M 191 3500 
L 800 3500 
L 1894 563 
L 2988 3500 
L 3597 3500 
L 2284 0 
L 1503 0 
L 191 3500 
z
" transform="scale(0.015625)"/>
      <path id="DejaVuSans-34" d="M 2419 4116 
L 825 1625 
L 2419 1625 
L 2419 4116 
z
M 2253 4666 
L 3047 4666 
L 3047 1625 
L 3713 1625 
L 3713 1100 
L 3047 1100 
L 3047 0 
L 2419 0 
L 2419 1100 
L 313 1100 
L 313 1709 
L 2253 4666 
z
" transform="scale(0.015625)"/>
      <path id="DejaVuSans-38" d="M 2034 2216 
Q 1584 2216 1326 1975 
Q 1069 1734 1069 1313 
Q 1069 891 1326 650 
Q 1584 409 2034 409 
Q 2484 409 2743 651 
Q 3003 894 3003 1313 
Q 3003 1734 2745 1975 
Q 2488 2216 2034 2216 
z
M 1403 2484 
Q 997 2584 770 2862 
Q 544 3141 544 3541 
Q 544 4100 942 4425 
Q 1341 4750 2034 4750 
Q 2731 4750 3128 4425 
Q 3525 4100 3525 3541 
Q 3525 3141 3298 2862 
Q 3072 2584 2669 2484 
Q 3125 2378 3379 2068 
Q 3634 1759 3634 1313 
Q 3634 634 3220 271 
Q 2806 -91 2034 -91 
Q 1263 -91 848 271 
Q 434 634 434 1313 
Q 434 1759 690 2068 
Q 947 2378 1403 2484 
z
M 1172 3481 
Q 1172 3119 1398 2916 
Q 1625 2713 2034 2713 
Q 2441 2713 2670 2916 
Q 2900 3119 2900 3481 
Q 2900 3844 2670 4047 
Q 2441 4250 2034 4250 
Q 1625 4250 1398 4047 
Q 1172 3844 1172 3481 
z
" transform="scale(0.015625)"/>
     </defs>
     <use xlink:href="#DejaVuSans-50"/>
     <use xlink:href="#DejaVuSans-2d" transform="translate(58.052734 0)"/>
     <use xlink:href="#DejaVuSans-76" transform="translate(91.511719 0)"/>
     <use xlink:href="#DejaVuSans-61" transform="translate(150.691406 0)"/>
     <use xlink:href="#DejaVuSans-6c" transform="translate(211.970703 0)"/>
     <use xlink:href="#DejaVuSans-75" transform="translate(239.753906 0)"/>
     <use xlink:href="#DejaVuSans-65" transform="translate(303.132812 0)"/>
     <use xlink:href="#DejaVuSans-3a" transform="translate(364.65625 0)"/>
     <use xlink:href="#DejaVuSans-20" transform="translate(398.347656 0)"/>
     <use xlink:href="#DejaVuSans-30" transform="translate(430.134766 0)"/>
     <use xlink:href="#DejaVuSans-2e" transform="translate(493.757812 0)"/>
     <use xlink:href="#DejaVuSans-30" transform="translate(525.544922 0)"/>
     <use xlink:href="#DejaVuSans-31" transform="translate(589.167969 0)"/>
     <use xlink:href="#DejaVuSans-34" transform="translate(652.791016 0)"/>
     <use xlink:href="#DejaVuSans-34" transform="translate(716.414062 0)"/>
     <use xlink:href="#DejaVuSans-38" transform="translate(780.037109 0)"/>
     <use xlink:href="#DejaVuSans-32" transform="translate(843.660156 0)"/>
    </g>
   </g>
   <g id="text_20">
    <!-- Model Predicted vs. Actual - Full Model  N=94 -->
    <g style="fill: #262626" transform="translate(157.780469 21.168) scale(0.14 -0.14)">
     <defs>
      <path id="DejaVuSans-73" d="M 2834 3397 
L 2834 2853 
Q 2591 2978 2328 3040 
Q 2066 3103 1784 3103 
Q 1356 3103 1142 2972 
Q 928 2841 928 2578 
Q 928 2378 1081 2264 
Q 1234 2150 1697 2047 
L 1894 2003 
Q 2506 1872 2764 1633 
Q 3022 1394 3022 966 
Q 3022 478 2636 193 
Q 2250 -91 1575 -91 
Q 1294 -91 989 -36 
Q 684 19 347 128 
L 347 722 
Q 666 556 975 473 
Q 1284 391 1588 391 
Q 1994 391 2212 530 
Q 2431 669 2431 922 
Q 2431 1156 2273 1281 
Q 2116 1406 1581 1522 
L 1381 1569 
Q 847 1681 609 1914 
Q 372 2147 372 2553 
Q 372 3047 722 3315 
Q 1072 3584 1716 3584 
Q 2034 3584 2315 3537 
Q 2597 3491 2834 3397 
z
" transform="scale(0.015625)"/>
      <path id="DejaVuSans-46" d="M 628 4666 
L 3309 4666 
L 3309 4134 
L 1259 4134 
L 1259 2759 
L 3109 2759 
L 3109 2228 
L 1259 2228 
L 1259 0 
L 628 0 
L 628 4666 
z
" transform="scale(0.015625)"/>
      <path id="DejaVuSans-4e" d="M 628 4666 
L 1478 4666 
L 3547 763 
L 3547 4666 
L 4159 4666 
L 4159 0 
L 3309 0 
L 1241 3903 
L 1241 0 
L 628 0 
L 628 4666 
z
" transform="scale(0.015625)"/>
      <path id="DejaVuSans-3d" d="M 678 2906 
L 4684 2906 
L 4684 2381 
L 678 2381 
L 678 2906 
z
M 678 1631 
L 4684 1631 
L 4684 1100 
L 678 1100 
L 678 1631 
z
" transform="scale(0.015625)"/>
      <path id="DejaVuSans-39" d="M 703 97 
L 703 672 
Q 941 559 1184 500 
Q 1428 441 1663 441 
Q 2288 441 2617 861 
Q 2947 1281 2994 2138 
Q 2813 1869 2534 1725 
Q 2256 1581 1919 1581 
Q 1219 1581 811 2004 
Q 403 2428 403 3163 
Q 403 3881 828 4315 
Q 1253 4750 1959 4750 
Q 2769 4750 3195 4129 
Q 3622 3509 3622 2328 
Q 3622 1225 3098 567 
Q 2575 -91 1691 -91 
Q 1453 -91 1209 -44 
Q 966 3 703 97 
z
M 1959 2075 
Q 2384 2075 2632 2365 
Q 2881 2656 2881 3163 
Q 2881 3666 2632 3958 
Q 2384 4250 1959 4250 
Q 1534 4250 1286 3958 
Q 1038 3666 1038 3163 
Q 1038 2656 1286 2365 
Q 1534 2075 1959 2075 
z
" transform="scale(0.015625)"/>
     </defs>
     <use xlink:href="#DejaVuSans-4d"/>
     <use xlink:href="#DejaVuSans-6f" transform="translate(86.279297 0)"/>
     <use xlink:href="#DejaVuSans-64" transform="translate(147.460938 0)"/>
     <use xlink:href="#DejaVuSans-65" transform="translate(210.9375 0)"/>
     <use xlink:href="#DejaVuSans-6c" transform="translate(272.460938 0)"/>
     <use xlink:href="#DejaVuSans-20" transform="translate(300.244141 0)"/>
     <use xlink:href="#DejaVuSans-50" transform="translate(332.03125 0)"/>
     <use xlink:href="#DejaVuSans-72" transform="translate(390.583984 0)"/>
     <use xlink:href="#DejaVuSans-65" transform="translate(429.447266 0)"/>
     <use xlink:href="#DejaVuSans-64" transform="translate(490.970703 0)"/>
     <use xlink:href="#DejaVuSans-69" transform="translate(554.447266 0)"/>
     <use xlink:href="#DejaVuSans-63" transform="translate(582.230469 0)"/>
     <use xlink:href="#DejaVuSans-74" transform="translate(637.210938 0)"/>
     <use xlink:href="#DejaVuSans-65" transform="translate(676.419922 0)"/>
     <use xlink:href="#DejaVuSans-64" transform="translate(737.943359 0)"/>
     <use xlink:href="#DejaVuSans-20" transform="translate(801.419922 0)"/>
     <use xlink:href="#DejaVuSans-76" transform="translate(833.207031 0)"/>
     <use xlink:href="#DejaVuSans-73" transform="translate(892.386719 0)"/>
     <use xlink:href="#DejaVuSans-2e" transform="translate(944.486328 0)"/>
     <use xlink:href="#DejaVuSans-20" transform="translate(976.273438 0)"/>
     <use xlink:href="#DejaVuSans-41" transform="translate(1008.060547 0)"/>
     <use xlink:href="#DejaVuSans-63" transform="translate(1074.71875 0)"/>
     <use xlink:href="#DejaVuSans-74" transform="translate(1129.699219 0)"/>
     <use xlink:href="#DejaVuSans-75" transform="translate(1168.908203 0)"/>
     <use xlink:href="#DejaVuSans-61" transform="translate(1232.287109 0)"/>
     <use xlink:href="#DejaVuSans-6c" transform="translate(1293.566406 0)"/>
     <use xlink:href="#DejaVuSans-20" transform="translate(1321.349609 0)"/>
     <use xlink:href="#DejaVuSans-2d" transform="translate(1353.136719 0)"/>
     <use xlink:href="#DejaVuSans-20" transform="translate(1389.220703 0)"/>
     <use xlink:href="#DejaVuSans-46" transform="translate(1421.007812 0)"/>
     <use xlink:href="#DejaVuSans-75" transform="translate(1473.027344 0)"/>
     <use xlink:href="#DejaVuSans-6c" transform="translate(1536.40625 0)"/>
     <use xlink:href="#DejaVuSans-6c" transform="translate(1564.189453 0)"/>
     <use xlink:href="#DejaVuSans-20" transform="translate(1591.972656 0)"/>
     <use xlink:href="#DejaVuSans-4d" transform="translate(1623.759766 0)"/>
     <use xlink:href="#DejaVuSans-6f" transform="translate(1710.039062 0)"/>
     <use xlink:href="#DejaVuSans-64" transform="translate(1771.220703 0)"/>
     <use xlink:href="#DejaVuSans-65" transform="translate(1834.697266 0)"/>
     <use xlink:href="#DejaVuSans-6c" transform="translate(1896.220703 0)"/>
     <use xlink:href="#DejaVuSans-20" transform="translate(1924.003906 0)"/>
     <use xlink:href="#DejaVuSans-20" transform="translate(1955.791016 0)"/>
     <use xlink:href="#DejaVuSans-4e" transform="translate(1987.578125 0)"/>
     <use xlink:href="#DejaVuSans-3d" transform="translate(2062.382812 0)"/>
     <use xlink:href="#DejaVuSans-39" transform="translate(2146.171875 0)"/>
     <use xlink:href="#DejaVuSans-34" transform="translate(2209.794922 0)"/>
    </g>
   </g>
  </g>
 </g>
 <defs>
  <clipPath id="pf7a6fea551">
   <rect x="68.208" y="27.168" width="497.424" height="359.844"/>
  </clipPath>
 </defs>
</svg>
