<?xml version="1.0" encoding="utf-8" standalone="no"?>
<!DOCTYPE svg PUBLIC "-//W3C//DTD SVG 1.1//EN"
  "http://www.w3.org/Graphics/SVG/1.1/DTD/svg11.dtd">
<svg xmlns:xlink="http://www.w3.org/1999/xlink" width="576pt" height="432pt" viewBox="0 0 576 432" xmlns="http://www.w3.org/2000/svg" version="1.1">
 <metadata>
  <rdf:RDF xmlns:dc="http://purl.org/dc/elements/1.1/" xmlns:cc="http://creativecommons.org/ns#" xmlns:rdf="http://www.w3.org/1999/02/22-rdf-syntax-ns#">
   <cc:Work>
    <dc:type rdf:resource="http://purl.org/dc/dcmitype/StillImage"/>
    <dc:date>2025-07-04T17:50:30.063392</dc:date>
    <dc:format>image/svg+xml</dc:format>
    <dc:creator>
     <cc:Agent>
      <dc:title>Matplotlib v3.10.0, https://matplotlib.org/</dc:title>
     </cc:Agent>
    </dc:creator>
   </cc:Work>
  </rdf:RDF>
 </metadata>
 <defs>
  <style type="text/css">*{stroke-linejoin: round; stroke-linecap: butt}</style>
 </defs>
 <g id="figure_1">
  <g id="patch_1">
   <path d="M 0 432 
L 576 432 
L 576 0 
L 0 0 
z
" style="fill: #ffffff"/>
  </g>
  <g id="axes_1">
   <g id="patch_2">
    <path d="M 62.628 387.012 
L 565.632 387.012 
L 565.632 27.168 
L 62.628 27.168 
z
" style="fill: #ffffff"/>
   </g>
   <g id="patch_3">
    <path d="M 62.628 387.533222 
L 565.632 387.533222 
L 565.632 142.111943 
L 62.628 142.111943 
z
" clip-path="url(#pec3faf3b64)" style="fill: #ff5714; opacity: 0.08; stroke: #ff5714; stroke-width: 0.8; stroke-linejoin: miter"/>
   </g>
   <g id="patch_4">
    <path d="M 62.628 142.111943 
L 565.632 142.111943 
L 565.632 16.222335 
L 62.628 16.222335 
z
" clip-path="url(#pec3faf3b64)" style="fill: #04e762; opacity: 0.08; stroke: #04e762; stroke-width: 0.8; stroke-linejoin: miter"/>
   </g>
   <g id="matplotlib.axis_1">
    <g id="xtick_1">
     <g id="text_1">
      <!-- 14 -->
      <g style="fill: #262626" transform="translate(79.892818 401.998625) scale(0.088 -0.088)">
       <defs>
        <path id="DejaVuSans-31" d="M 794 531 
L 1825 531 
L 1825 4091 
L 703 3866 
L 703 4441 
L 1819 4666 
L 2450 4666 
L 2450 531 
L 3481 531 
L 3481 0 
L 794 0 
L 794 531 
z
" transform="scale(0.015625)"/>
        <path id="DejaVuSans-34" d="M 2419 4116 
L 825 1625 
L 2419 1625 
L 2419 4116 
z
M 2253 4666 
L 3047 4666 
L 3047 1625 
L 3713 1625 
L 3713 1100 
L 3047 1100 
L 3047 0 
L 2419 0 
L 2419 1100 
L 313 1100 
L 313 1709 
L 2253 4666 
z
" transform="scale(0.015625)"/>
       </defs>
       <use xlink:href="#DejaVuSans-31"/>
       <use xlink:href="#DejaVuSans-34" transform="translate(63.623047 0)"/>
      </g>
     </g>
    </g>
    <g id="xtick_2">
     <g id="text_2">
      <!-- 16 -->
      <g style="fill: #262626" transform="translate(137.052364 401.998625) scale(0.088 -0.088)">
       <defs>
        <path id="DejaVuSans-36" d="M 2113 2584 
Q 1688 2584 1439 2293 
Q 1191 2003 1191 1497 
Q 1191 994 1439 701 
Q 1688 409 2113 409 
Q 2538 409 2786 701 
Q 3034 994 3034 1497 
Q 3034 2003 2786 2293 
Q 2538 2584 2113 2584 
z
M 3366 4563 
L 3366 3988 
Q 3128 4100 2886 4159 
Q 2644 4219 2406 4219 
Q 1781 4219 1451 3797 
Q 1122 3375 1075 2522 
Q 1259 2794 1537 2939 
Q 1816 3084 2150 3084 
Q 2853 3084 3261 2657 
Q 3669 2231 3669 1497 
Q 3669 778 3244 343 
Q 2819 -91 2113 -91 
Q 1303 -91 875 529 
Q 447 1150 447 2328 
Q 447 3434 972 4092 
Q 1497 4750 2381 4750 
Q 2619 4750 2861 4703 
Q 3103 4656 3366 4563 
z
" transform="scale(0.015625)"/>
       </defs>
       <use xlink:href="#DejaVuSans-31"/>
       <use xlink:href="#DejaVuSans-36" transform="translate(63.623047 0)"/>
      </g>
     </g>
    </g>
    <g id="xtick_3">
     <g id="text_3">
      <!-- 18 -->
      <g style="fill: #262626" transform="translate(194.211909 401.998625) scale(0.088 -0.088)">
       <defs>
        <path id="DejaVuSans-38" d="M 2034 2216 
Q 1584 2216 1326 1975 
Q 1069 1734 1069 1313 
Q 1069 891 1326 650 
Q 1584 409 2034 409 
Q 2484 409 2743 651 
Q 3003 894 3003 1313 
Q 3003 1734 2745 1975 
Q 2488 2216 2034 2216 
z
M 1403 2484 
Q 997 2584 770 2862 
Q 544 3141 544 3541 
Q 544 4100 942 4425 
Q 1341 4750 2034 4750 
Q 2731 4750 3128 4425 
Q 3525 4100 3525 3541 
Q 3525 3141 3298 2862 
Q 3072 2584 2669 2484 
Q 3125 2378 3379 2068 
Q 3634 1759 3634 1313 
Q 3634 634 3220 271 
Q 2806 -91 2034 -91 
Q 1263 -91 848 271 
Q 434 634 434 1313 
Q 434 1759 690 2068 
Q 947 2378 1403 2484 
z
M 1172 3481 
Q 1172 3119 1398 2916 
Q 1625 2713 2034 2713 
Q 2441 2713 2670 2916 
Q 2900 3119 2900 3481 
Q 2900 3844 2670 4047 
Q 2441 4250 2034 4250 
Q 1625 4250 1398 4047 
Q 1172 3844 1172 3481 
z
" transform="scale(0.015625)"/>
       </defs>
       <use xlink:href="#DejaVuSans-31"/>
       <use xlink:href="#DejaVuSans-38" transform="translate(63.623047 0)"/>
      </g>
     </g>
    </g>
    <g id="xtick_4">
     <g id="text_4">
      <!-- 20 -->
      <g style="fill: #262626" transform="translate(251.371455 401.998625) scale(0.088 -0.088)">
       <defs>
        <path id="DejaVuSans-32" d="M 1228 531 
L 3431 531 
L 3431 0 
L 469 0 
L 469 531 
Q 828 903 1448 1529 
Q 2069 2156 2228 2338 
Q 2531 2678 2651 2914 
Q 2772 3150 2772 3378 
Q 2772 3750 2511 3984 
Q 2250 4219 1831 4219 
Q 1534 4219 1204 4116 
Q 875 4013 500 3803 
L 500 4441 
Q 881 4594 1212 4672 
Q 1544 4750 1819 4750 
Q 2544 4750 2975 4387 
Q 3406 4025 3406 3419 
Q 3406 3131 3298 2873 
Q 3191 2616 2906 2266 
Q 2828 2175 2409 1742 
Q 1991 1309 1228 531 
z
" transform="scale(0.015625)"/>
        <path id="DejaVuSans-30" d="M 2034 4250 
Q 1547 4250 1301 3770 
Q 1056 3291 1056 2328 
Q 1056 1369 1301 889 
Q 1547 409 2034 409 
Q 2525 409 2770 889 
Q 3016 1369 3016 2328 
Q 3016 3291 2770 3770 
Q 2525 4250 2034 4250 
z
M 2034 4750 
Q 2819 4750 3233 4129 
Q 3647 3509 3647 2328 
Q 3647 1150 3233 529 
Q 2819 -91 2034 -91 
Q 1250 -91 836 529 
Q 422 1150 422 2328 
Q 422 3509 836 4129 
Q 1250 4750 2034 4750 
z
" transform="scale(0.015625)"/>
       </defs>
       <use xlink:href="#DejaVuSans-32"/>
       <use xlink:href="#DejaVuSans-30" transform="translate(63.623047 0)"/>
      </g>
     </g>
    </g>
    <g id="xtick_5">
     <g id="text_5">
      <!-- 22 -->
      <g style="fill: #262626" transform="translate(308.531 401.998625) scale(0.088 -0.088)">
       <use xlink:href="#DejaVuSans-32"/>
       <use xlink:href="#DejaVuSans-32" transform="translate(63.623047 0)"/>
      </g>
     </g>
    </g>
    <g id="xtick_6">
     <g id="text_6">
      <!-- 24 -->
      <g style="fill: #262626" transform="translate(365.690545 401.998625) scale(0.088 -0.088)">
       <use xlink:href="#DejaVuSans-32"/>
       <use xlink:href="#DejaVuSans-34" transform="translate(63.623047 0)"/>
      </g>
     </g>
    </g>
    <g id="xtick_7">
     <g id="text_7">
      <!-- 26 -->
      <g style="fill: #262626" transform="translate(422.850091 401.998625) scale(0.088 -0.088)">
       <use xlink:href="#DejaVuSans-32"/>
       <use xlink:href="#DejaVuSans-36" transform="translate(63.623047 0)"/>
      </g>
     </g>
    </g>
    <g id="xtick_8">
     <g id="text_8">
      <!-- 28 -->
      <g style="fill: #262626" transform="translate(480.009636 401.998625) scale(0.088 -0.088)">
       <use xlink:href="#DejaVuSans-32"/>
       <use xlink:href="#DejaVuSans-38" transform="translate(63.623047 0)"/>
      </g>
     </g>
    </g>
    <g id="xtick_9">
     <g id="text_9">
      <!-- 30 -->
      <g style="fill: #262626" transform="translate(537.169182 401.998625) scale(0.088 -0.088)">
       <defs>
        <path id="DejaVuSans-33" d="M 2597 2516 
Q 3050 2419 3304 2112 
Q 3559 1806 3559 1356 
Q 3559 666 3084 287 
Q 2609 -91 1734 -91 
Q 1441 -91 1130 -33 
Q 819 25 488 141 
L 488 750 
Q 750 597 1062 519 
Q 1375 441 1716 441 
Q 2309 441 2620 675 
Q 2931 909 2931 1356 
Q 2931 1769 2642 2001 
Q 2353 2234 1838 2234 
L 1294 2234 
L 1294 2753 
L 1863 2753 
Q 2328 2753 2575 2939 
Q 2822 3125 2822 3475 
Q 2822 3834 2567 4026 
Q 2313 4219 1838 4219 
Q 1578 4219 1281 4162 
Q 984 4106 628 3988 
L 628 4550 
Q 988 4650 1302 4700 
Q 1616 4750 1894 4750 
Q 2613 4750 3031 4423 
Q 3450 4097 3450 3541 
Q 3450 3153 3228 2886 
Q 3006 2619 2597 2516 
z
" transform="scale(0.015625)"/>
       </defs>
       <use xlink:href="#DejaVuSans-33"/>
       <use xlink:href="#DejaVuSans-30" transform="translate(63.623047 0)"/>
      </g>
     </g>
    </g>
    <g id="text_10">
     <!-- MoCA Pre -->
     <g style="fill: #262626" transform="translate(285.544688 416.946875) scale(0.12 -0.12)">
      <defs>
       <path id="DejaVuSans-4d" d="M 628 4666 
L 1569 4666 
L 2759 1491 
L 3956 4666 
L 4897 4666 
L 4897 0 
L 4281 0 
L 4281 4097 
L 3078 897 
L 2444 897 
L 1241 4097 
L 1241 0 
L 628 0 
L 628 4666 
z
" transform="scale(0.015625)"/>
       <path id="DejaVuSans-6f" d="M 1959 3097 
Q 1497 3097 1228 2736 
Q 959 2375 959 1747 
Q 959 1119 1226 758 
Q 1494 397 1959 397 
Q 2419 397 2687 759 
Q 2956 1122 2956 1747 
Q 2956 2369 2687 2733 
Q 2419 3097 1959 3097 
z
M 1959 3584 
Q 2709 3584 3137 3096 
Q 3566 2609 3566 1747 
Q 3566 888 3137 398 
Q 2709 -91 1959 -91 
Q 1206 -91 779 398 
Q 353 888 353 1747 
Q 353 2609 779 3096 
Q 1206 3584 1959 3584 
z
" transform="scale(0.015625)"/>
       <path id="DejaVuSans-43" d="M 4122 4306 
L 4122 3641 
Q 3803 3938 3442 4084 
Q 3081 4231 2675 4231 
Q 1875 4231 1450 3742 
Q 1025 3253 1025 2328 
Q 1025 1406 1450 917 
Q 1875 428 2675 428 
Q 3081 428 3442 575 
Q 3803 722 4122 1019 
L 4122 359 
Q 3791 134 3420 21 
Q 3050 -91 2638 -91 
Q 1578 -91 968 557 
Q 359 1206 359 2328 
Q 359 3453 968 4101 
Q 1578 4750 2638 4750 
Q 3056 4750 3426 4639 
Q 3797 4528 4122 4306 
z
" transform="scale(0.015625)"/>
       <path id="DejaVuSans-41" d="M 2188 4044 
L 1331 1722 
L 3047 1722 
L 2188 4044 
z
M 1831 4666 
L 2547 4666 
L 4325 0 
L 3669 0 
L 3244 1197 
L 1141 1197 
L 716 0 
L 50 0 
L 1831 4666 
z
" transform="scale(0.015625)"/>
       <path id="DejaVuSans-20" transform="scale(0.015625)"/>
       <path id="DejaVuSans-50" d="M 1259 4147 
L 1259 2394 
L 2053 2394 
Q 2494 2394 2734 2622 
Q 2975 2850 2975 3272 
Q 2975 3691 2734 3919 
Q 2494 4147 2053 4147 
L 1259 4147 
z
M 628 4666 
L 2053 4666 
Q 2838 4666 3239 4311 
Q 3641 3956 3641 3272 
Q 3641 2581 3239 2228 
Q 2838 1875 2053 1875 
L 1259 1875 
L 1259 0 
L 628 0 
L 628 4666 
z
" transform="scale(0.015625)"/>
       <path id="DejaVuSans-72" d="M 2631 2963 
Q 2534 3019 2420 3045 
Q 2306 3072 2169 3072 
Q 1681 3072 1420 2755 
Q 1159 2438 1159 1844 
L 1159 0 
L 581 0 
L 581 3500 
L 1159 3500 
L 1159 2956 
Q 1341 3275 1631 3429 
Q 1922 3584 2338 3584 
Q 2397 3584 2469 3576 
Q 2541 3569 2628 3553 
L 2631 2963 
z
" transform="scale(0.015625)"/>
       <path id="DejaVuSans-65" d="M 3597 1894 
L 3597 1613 
L 953 1613 
Q 991 1019 1311 708 
Q 1631 397 2203 397 
Q 2534 397 2845 478 
Q 3156 559 3463 722 
L 3463 178 
Q 3153 47 2828 -22 
Q 2503 -91 2169 -91 
Q 1331 -91 842 396 
Q 353 884 353 1716 
Q 353 2575 817 3079 
Q 1281 3584 2069 3584 
Q 2775 3584 3186 3129 
Q 3597 2675 3597 1894 
z
M 3022 2063 
Q 3016 2534 2758 2815 
Q 2500 3097 2075 3097 
Q 1594 3097 1305 2825 
Q 1016 2553 972 2059 
L 3022 2063 
z
" transform="scale(0.015625)"/>
      </defs>
      <use xlink:href="#DejaVuSans-4d"/>
      <use xlink:href="#DejaVuSans-6f" transform="translate(86.279297 0)"/>
      <use xlink:href="#DejaVuSans-43" transform="translate(147.460938 0)"/>
      <use xlink:href="#DejaVuSans-41" transform="translate(217.285156 0)"/>
      <use xlink:href="#DejaVuSans-20" transform="translate(285.693359 0)"/>
      <use xlink:href="#DejaVuSans-50" transform="translate(317.480469 0)"/>
      <use xlink:href="#DejaVuSans-72" transform="translate(376.033203 0)"/>
      <use xlink:href="#DejaVuSans-65" transform="translate(414.896484 0)"/>
     </g>
    </g>
   </g>
   <g id="matplotlib.axis_2">
    <g id="ytick_1">
     <g id="text_11">
      <!-- −0.20 -->
      <g style="fill: #262626" transform="translate(27.360125 346.573546) scale(0.088 -0.088)">
       <defs>
        <path id="DejaVuSans-2212" d="M 678 2272 
L 4684 2272 
L 4684 1741 
L 678 1741 
L 678 2272 
z
" transform="scale(0.015625)"/>
        <path id="DejaVuSans-2e" d="M 684 794 
L 1344 794 
L 1344 0 
L 684 0 
L 684 794 
z
" transform="scale(0.015625)"/>
       </defs>
       <use xlink:href="#DejaVuSans-2212"/>
       <use xlink:href="#DejaVuSans-30" transform="translate(83.789062 0)"/>
       <use xlink:href="#DejaVuSans-2e" transform="translate(147.412109 0)"/>
       <use xlink:href="#DejaVuSans-32" transform="translate(179.199219 0)"/>
       <use xlink:href="#DejaVuSans-30" transform="translate(242.822266 0)"/>
      </g>
     </g>
    </g>
    <g id="ytick_2">
     <g id="text_12">
      <!-- −0.15 -->
      <g style="fill: #262626" transform="translate(27.360125 296.293973) scale(0.088 -0.088)">
       <defs>
        <path id="DejaVuSans-35" d="M 691 4666 
L 3169 4666 
L 3169 4134 
L 1269 4134 
L 1269 2991 
Q 1406 3038 1543 3061 
Q 1681 3084 1819 3084 
Q 2600 3084 3056 2656 
Q 3513 2228 3513 1497 
Q 3513 744 3044 326 
Q 2575 -91 1722 -91 
Q 1428 -91 1123 -41 
Q 819 9 494 109 
L 494 744 
Q 775 591 1075 516 
Q 1375 441 1709 441 
Q 2250 441 2565 725 
Q 2881 1009 2881 1497 
Q 2881 1984 2565 2268 
Q 2250 2553 1709 2553 
Q 1456 2553 1204 2497 
Q 953 2441 691 2322 
L 691 4666 
z
" transform="scale(0.015625)"/>
       </defs>
       <use xlink:href="#DejaVuSans-2212"/>
       <use xlink:href="#DejaVuSans-30" transform="translate(83.789062 0)"/>
       <use xlink:href="#DejaVuSans-2e" transform="translate(147.412109 0)"/>
       <use xlink:href="#DejaVuSans-31" transform="translate(179.199219 0)"/>
       <use xlink:href="#DejaVuSans-35" transform="translate(242.822266 0)"/>
      </g>
     </g>
    </g>
    <g id="ytick_3">
     <g id="text_13">
      <!-- −0.10 -->
      <g style="fill: #262626" transform="translate(27.360125 246.0144) scale(0.088 -0.088)">
       <use xlink:href="#DejaVuSans-2212"/>
       <use xlink:href="#DejaVuSans-30" transform="translate(83.789062 0)"/>
       <use xlink:href="#DejaVuSans-2e" transform="translate(147.412109 0)"/>
       <use xlink:href="#DejaVuSans-31" transform="translate(179.199219 0)"/>
       <use xlink:href="#DejaVuSans-30" transform="translate(242.822266 0)"/>
      </g>
     </g>
    </g>
    <g id="ytick_4">
     <g id="text_14">
      <!-- −0.05 -->
      <g style="fill: #262626" transform="translate(27.360125 195.734828) scale(0.088 -0.088)">
       <use xlink:href="#DejaVuSans-2212"/>
       <use xlink:href="#DejaVuSans-30" transform="translate(83.789062 0)"/>
       <use xlink:href="#DejaVuSans-2e" transform="translate(147.412109 0)"/>
       <use xlink:href="#DejaVuSans-30" transform="translate(179.199219 0)"/>
       <use xlink:href="#DejaVuSans-35" transform="translate(242.822266 0)"/>
      </g>
     </g>
    </g>
    <g id="ytick_5">
     <g id="text_15">
      <!-- 0.00 -->
      <g style="fill: #262626" transform="translate(34.73425 145.455255) scale(0.088 -0.088)">
       <use xlink:href="#DejaVuSans-30"/>
       <use xlink:href="#DejaVuSans-2e" transform="translate(63.623047 0)"/>
       <use xlink:href="#DejaVuSans-30" transform="translate(95.410156 0)"/>
       <use xlink:href="#DejaVuSans-30" transform="translate(159.033203 0)"/>
      </g>
     </g>
    </g>
    <g id="ytick_6">
     <g id="text_16">
      <!-- 0.05 -->
      <g style="fill: #262626" transform="translate(34.73425 95.175683) scale(0.088 -0.088)">
       <use xlink:href="#DejaVuSans-30"/>
       <use xlink:href="#DejaVuSans-2e" transform="translate(63.623047 0)"/>
       <use xlink:href="#DejaVuSans-30" transform="translate(95.410156 0)"/>
       <use xlink:href="#DejaVuSans-35" transform="translate(159.033203 0)"/>
      </g>
     </g>
    </g>
    <g id="ytick_7">
     <g id="text_17">
      <!-- 0.10 -->
      <g style="fill: #262626" transform="translate(34.73425 44.89611) scale(0.088 -0.088)">
       <use xlink:href="#DejaVuSans-30"/>
       <use xlink:href="#DejaVuSans-2e" transform="translate(63.623047 0)"/>
       <use xlink:href="#DejaVuSans-31" transform="translate(95.410156 0)"/>
       <use xlink:href="#DejaVuSans-30" transform="translate(159.033203 0)"/>
      </g>
     </g>
    </g>
    <g id="text_18">
     <!-- MoCA Ratio -->
     <g style="fill: #262626" transform="translate(20.8645 241.540312) rotate(-90) scale(0.12 -0.12)">
      <defs>
       <path id="DejaVuSans-52" d="M 2841 2188 
Q 3044 2119 3236 1894 
Q 3428 1669 3622 1275 
L 4263 0 
L 3584 0 
L 2988 1197 
Q 2756 1666 2539 1819 
Q 2322 1972 1947 1972 
L 1259 1972 
L 1259 0 
L 628 0 
L 628 4666 
L 2053 4666 
Q 2853 4666 3247 4331 
Q 3641 3997 3641 3322 
Q 3641 2881 3436 2590 
Q 3231 2300 2841 2188 
z
M 1259 4147 
L 1259 2491 
L 2053 2491 
Q 2509 2491 2742 2702 
Q 2975 2913 2975 3322 
Q 2975 3731 2742 3939 
Q 2509 4147 2053 4147 
L 1259 4147 
z
" transform="scale(0.015625)"/>
       <path id="DejaVuSans-61" d="M 2194 1759 
Q 1497 1759 1228 1600 
Q 959 1441 959 1056 
Q 959 750 1161 570 
Q 1363 391 1709 391 
Q 2188 391 2477 730 
Q 2766 1069 2766 1631 
L 2766 1759 
L 2194 1759 
z
M 3341 1997 
L 3341 0 
L 2766 0 
L 2766 531 
Q 2569 213 2275 61 
Q 1981 -91 1556 -91 
Q 1019 -91 701 211 
Q 384 513 384 1019 
Q 384 1609 779 1909 
Q 1175 2209 1959 2209 
L 2766 2209 
L 2766 2266 
Q 2766 2663 2505 2880 
Q 2244 3097 1772 3097 
Q 1472 3097 1187 3025 
Q 903 2953 641 2809 
L 641 3341 
Q 956 3463 1253 3523 
Q 1550 3584 1831 3584 
Q 2591 3584 2966 3190 
Q 3341 2797 3341 1997 
z
" transform="scale(0.015625)"/>
       <path id="DejaVuSans-74" d="M 1172 4494 
L 1172 3500 
L 2356 3500 
L 2356 3053 
L 1172 3053 
L 1172 1153 
Q 1172 725 1289 603 
Q 1406 481 1766 481 
L 2356 481 
L 2356 0 
L 1766 0 
Q 1100 0 847 248 
Q 594 497 594 1153 
L 594 3053 
L 172 3053 
L 172 3500 
L 594 3500 
L 594 4494 
L 1172 4494 
z
" transform="scale(0.015625)"/>
       <path id="DejaVuSans-69" d="M 603 3500 
L 1178 3500 
L 1178 0 
L 603 0 
L 603 3500 
z
M 603 4863 
L 1178 4863 
L 1178 4134 
L 603 4134 
L 603 4863 
z
" transform="scale(0.015625)"/>
      </defs>
      <use xlink:href="#DejaVuSans-4d"/>
      <use xlink:href="#DejaVuSans-6f" transform="translate(86.279297 0)"/>
      <use xlink:href="#DejaVuSans-43" transform="translate(147.460938 0)"/>
      <use xlink:href="#DejaVuSans-41" transform="translate(217.285156 0)"/>
      <use xlink:href="#DejaVuSans-20" transform="translate(285.693359 0)"/>
      <use xlink:href="#DejaVuSans-52" transform="translate(317.480469 0)"/>
      <use xlink:href="#DejaVuSans-61" transform="translate(384.712891 0)"/>
      <use xlink:href="#DejaVuSans-74" transform="translate(445.992188 0)"/>
      <use xlink:href="#DejaVuSans-69" transform="translate(485.201172 0)"/>
      <use xlink:href="#DejaVuSans-6f" transform="translate(512.984375 0)"/>
     </g>
    </g>
   </g>
   <g id="PathCollection_1">
    <defs>
     <path id="mf288e8bcb4" d="M 0 2.4 
C 0.636487 2.4 1.246992 2.147121 1.697056 1.697056 
C 2.147121 1.246992 2.4 0.636487 2.4 0 
C 2.4 -0.636487 2.147121 -1.246992 1.697056 -1.697056 
C 1.246992 -2.147121 0.636487 -2.4 0 -2.4 
C -0.636487 -2.4 -1.246992 -2.147121 -1.697056 -1.697056 
C -2.147121 -1.246992 -2.4 -0.636487 -2.4 0 
C -2.4 0.636487 -2.147121 1.246992 -1.697056 1.697056 
C -1.246992 2.147121 -0.636487 2.4 0 2.4 
z
" style="stroke: #ffffff; stroke-opacity: 0.7; stroke-width: 0.384"/>
    </defs>
    <g clip-path="url(#pec3faf3b64)">
     <use xlink:href="#mf288e8bcb4" x="485.608636" y="124.469987" style="fill: #4c72b0; fill-opacity: 0.7; stroke: #ffffff; stroke-opacity: 0.7; stroke-width: 0.384"/>
     <use xlink:href="#mf288e8bcb4" x="485.608636" y="160.395424" style="fill: #4c72b0; fill-opacity: 0.7; stroke: #ffffff; stroke-opacity: 0.7; stroke-width: 0.384"/>
     <use xlink:href="#mf288e8bcb4" x="428.449091" y="225.91123" style="fill: #4c72b0; fill-opacity: 0.7; stroke: #ffffff; stroke-opacity: 0.7; stroke-width: 0.384"/>
     <use xlink:href="#mf288e8bcb4" x="428.449091" y="161.829422" style="fill: #4c72b0; fill-opacity: 0.7; stroke: #ffffff; stroke-opacity: 0.7; stroke-width: 0.384"/>
     <use xlink:href="#mf288e8bcb4" x="457.028864" y="370.655455" style="fill: #4c72b0; fill-opacity: 0.7; stroke: #ffffff; stroke-opacity: 0.7; stroke-width: 0.384"/>
     <use xlink:href="#mf288e8bcb4" x="485.608636" y="219.465131" style="fill: #4c72b0; fill-opacity: 0.7; stroke: #ffffff; stroke-opacity: 0.7; stroke-width: 0.384"/>
     <use xlink:href="#mf288e8bcb4" x="342.709773" y="43.524545" style="fill: #4c72b0; fill-opacity: 0.7; stroke: #ffffff; stroke-opacity: 0.7; stroke-width: 0.384"/>
     <use xlink:href="#mf288e8bcb4" x="428.449091" y="273.276045" style="fill: #4c72b0; fill-opacity: 0.7; stroke: #ffffff; stroke-opacity: 0.7; stroke-width: 0.384"/>
     <use xlink:href="#mf288e8bcb4" x="285.550227" y="96.40324" style="fill: #4c72b0; fill-opacity: 0.7; stroke: #ffffff; stroke-opacity: 0.7; stroke-width: 0.384"/>
     <use xlink:href="#mf288e8bcb4" x="371.289545" y="185.83331" style="fill: #4c72b0; fill-opacity: 0.7; stroke: #ffffff; stroke-opacity: 0.7; stroke-width: 0.384"/>
     <use xlink:href="#mf288e8bcb4" x="514.188409" y="125.06802" style="fill: #4c72b0; fill-opacity: 0.7; stroke: #ffffff; stroke-opacity: 0.7; stroke-width: 0.384"/>
     <use xlink:href="#mf288e8bcb4" x="428.449091" y="249.089757" style="fill: #4c72b0; fill-opacity: 0.7; stroke: #ffffff; stroke-opacity: 0.7; stroke-width: 0.384"/>
     <use xlink:href="#mf288e8bcb4" x="514.188409" y="142.111943" style="fill: #4c72b0; fill-opacity: 0.7; stroke: #ffffff; stroke-opacity: 0.7; stroke-width: 0.384"/>
     <use xlink:href="#mf288e8bcb4" x="485.608636" y="240.69934" style="fill: #4c72b0; fill-opacity: 0.7; stroke: #ffffff; stroke-opacity: 0.7; stroke-width: 0.384"/>
     <use xlink:href="#mf288e8bcb4" x="371.289545" y="233.529347" style="fill: #4c72b0; fill-opacity: 0.7; stroke: #ffffff; stroke-opacity: 0.7; stroke-width: 0.384"/>
     <use xlink:href="#mf288e8bcb4" x="428.449091" y="324.946752" style="fill: #4c72b0; fill-opacity: 0.7; stroke: #ffffff; stroke-opacity: 0.7; stroke-width: 0.384"/>
     <use xlink:href="#mf288e8bcb4" x="399.869318" y="85.191672" style="fill: #4c72b0; fill-opacity: 0.7; stroke: #ffffff; stroke-opacity: 0.7; stroke-width: 0.384"/>
     <use xlink:href="#mf288e8bcb4" x="485.608636" y="199.032214" style="fill: #4c72b0; fill-opacity: 0.7; stroke: #ffffff; stroke-opacity: 0.7; stroke-width: 0.384"/>
     <use xlink:href="#mf288e8bcb4" x="399.869318" y="85.191672" style="fill: #4c72b0; fill-opacity: 0.7; stroke: #ffffff; stroke-opacity: 0.7; stroke-width: 0.384"/>
     <use xlink:href="#mf288e8bcb4" x="342.709773" y="212.269486" style="fill: #4c72b0; fill-opacity: 0.7; stroke: #ffffff; stroke-opacity: 0.7; stroke-width: 0.384"/>
     <use xlink:href="#mf288e8bcb4" x="171.231136" y="172.584411" style="fill: #4c72b0; fill-opacity: 0.7; stroke: #ffffff; stroke-opacity: 0.7; stroke-width: 0.384"/>
     <use xlink:href="#mf288e8bcb4" x="542.768182" y="274.925908" style="fill: #4c72b0; fill-opacity: 0.7; stroke: #ffffff; stroke-opacity: 0.7; stroke-width: 0.384"/>
     <use xlink:href="#mf288e8bcb4" x="457.028864" y="201.264381" style="fill: #4c72b0; fill-opacity: 0.7; stroke: #ffffff; stroke-opacity: 0.7; stroke-width: 0.384"/>
     <use xlink:href="#mf288e8bcb4" x="514.188409" y="216.600198" style="fill: #4c72b0; fill-opacity: 0.7; stroke: #ffffff; stroke-opacity: 0.7; stroke-width: 0.384"/>
     <use xlink:href="#mf288e8bcb4" x="428.449091" y="298.53728" style="fill: #4c72b0; fill-opacity: 0.7; stroke: #ffffff; stroke-opacity: 0.7; stroke-width: 0.384"/>
     <use xlink:href="#mf288e8bcb4" x="485.608636" y="107.436375" style="fill: #4c72b0; fill-opacity: 0.7; stroke: #ffffff; stroke-opacity: 0.7; stroke-width: 0.384"/>
     <use xlink:href="#mf288e8bcb4" x="485.608636" y="142.111943" style="fill: #4c72b0; fill-opacity: 0.7; stroke: #ffffff; stroke-opacity: 0.7; stroke-width: 0.384"/>
     <use xlink:href="#mf288e8bcb4" x="457.028864" y="106.197962" style="fill: #4c72b0; fill-opacity: 0.7; stroke: #ffffff; stroke-opacity: 0.7; stroke-width: 0.384"/>
     <use xlink:href="#mf288e8bcb4" x="485.608636" y="160.395424" style="fill: #4c72b0; fill-opacity: 0.7; stroke: #ffffff; stroke-opacity: 0.7; stroke-width: 0.384"/>
     <use xlink:href="#mf288e8bcb4" x="542.768182" y="233.529347" style="fill: #4c72b0; fill-opacity: 0.7; stroke: #ffffff; stroke-opacity: 0.7; stroke-width: 0.384"/>
     <use xlink:href="#mf288e8bcb4" x="342.709773" y="43.524545" style="fill: #4c72b0; fill-opacity: 0.7; stroke: #ffffff; stroke-opacity: 0.7; stroke-width: 0.384"/>
     <use xlink:href="#mf288e8bcb4" x="285.550227" y="142.111943" style="fill: #4c72b0; fill-opacity: 0.7; stroke: #ffffff; stroke-opacity: 0.7; stroke-width: 0.384"/>
     <use xlink:href="#mf288e8bcb4" x="371.289545" y="285.767864" style="fill: #4c72b0; fill-opacity: 0.7; stroke: #ffffff; stroke-opacity: 0.7; stroke-width: 0.384"/>
     <use xlink:href="#mf288e8bcb4" x="399.869318" y="122.394463" style="fill: #4c72b0; fill-opacity: 0.7; stroke: #ffffff; stroke-opacity: 0.7; stroke-width: 0.384"/>
     <use xlink:href="#mf288e8bcb4" x="514.188409" y="196.962386" style="fill: #4c72b0; fill-opacity: 0.7; stroke: #ffffff; stroke-opacity: 0.7; stroke-width: 0.384"/>
     <use xlink:href="#mf288e8bcb4" x="399.869318" y="85.191672" style="fill: #4c72b0; fill-opacity: 0.7; stroke: #ffffff; stroke-opacity: 0.7; stroke-width: 0.384"/>
     <use xlink:href="#mf288e8bcb4" x="371.289545" y="101.888285" style="fill: #4c72b0; fill-opacity: 0.7; stroke: #ffffff; stroke-opacity: 0.7; stroke-width: 0.384"/>
     <use xlink:href="#mf288e8bcb4" x="342.709773" y="43.524545" style="fill: #4c72b0; fill-opacity: 0.7; stroke: #ffffff; stroke-opacity: 0.7; stroke-width: 0.384"/>
     <use xlink:href="#mf288e8bcb4" x="485.608636" y="107.436375" style="fill: #4c72b0; fill-opacity: 0.7; stroke: #ffffff; stroke-opacity: 0.7; stroke-width: 0.384"/>
     <use xlink:href="#mf288e8bcb4" x="542.768182" y="176.78751" style="fill: #4c72b0; fill-opacity: 0.7; stroke: #ffffff; stroke-opacity: 0.7; stroke-width: 0.384"/>
     <use xlink:href="#mf288e8bcb4" x="428.449091" y="104.867815" style="fill: #4c72b0; fill-opacity: 0.7; stroke: #ffffff; stroke-opacity: 0.7; stroke-width: 0.384"/>
     <use xlink:href="#mf288e8bcb4" x="485.608636" y="124.469987" style="fill: #4c72b0; fill-opacity: 0.7; stroke: #ffffff; stroke-opacity: 0.7; stroke-width: 0.384"/>
     <use xlink:href="#mf288e8bcb4" x="399.869318" y="184.011587" style="fill: #4c72b0; fill-opacity: 0.7; stroke: #ffffff; stroke-opacity: 0.7; stroke-width: 0.384"/>
     <use xlink:href="#mf288e8bcb4" x="514.188409" y="125.06802" style="fill: #4c72b0; fill-opacity: 0.7; stroke: #ffffff; stroke-opacity: 0.7; stroke-width: 0.384"/>
     <use xlink:href="#mf288e8bcb4" x="514.188409" y="159.753898" style="fill: #4c72b0; fill-opacity: 0.7; stroke: #ffffff; stroke-opacity: 0.7; stroke-width: 0.384"/>
     <use xlink:href="#mf288e8bcb4" x="485.608636" y="160.395424" style="fill: #4c72b0; fill-opacity: 0.7; stroke: #ffffff; stroke-opacity: 0.7; stroke-width: 0.384"/>
     <use xlink:href="#mf288e8bcb4" x="457.028864" y="267.810874" style="fill: #4c72b0; fill-opacity: 0.7; stroke: #ffffff; stroke-opacity: 0.7; stroke-width: 0.384"/>
     <use xlink:href="#mf288e8bcb4" x="485.608636" y="219.465131" style="fill: #4c72b0; fill-opacity: 0.7; stroke: #ffffff; stroke-opacity: 0.7; stroke-width: 0.384"/>
     <use xlink:href="#mf288e8bcb4" x="485.608636" y="107.436375" style="fill: #4c72b0; fill-opacity: 0.7; stroke: #ffffff; stroke-opacity: 0.7; stroke-width: 0.384"/>
     <use xlink:href="#mf288e8bcb4" x="514.188409" y="216.600198" style="fill: #4c72b0; fill-opacity: 0.7; stroke: #ffffff; stroke-opacity: 0.7; stroke-width: 0.384"/>
     <use xlink:href="#mf288e8bcb4" x="542.768182" y="142.111943" style="fill: #4c72b0; fill-opacity: 0.7; stroke: #ffffff; stroke-opacity: 0.7; stroke-width: 0.384"/>
     <use xlink:href="#mf288e8bcb4" x="542.768182" y="142.111943" style="fill: #4c72b0; fill-opacity: 0.7; stroke: #ffffff; stroke-opacity: 0.7; stroke-width: 0.384"/>
     <use xlink:href="#mf288e8bcb4" x="457.028864" y="180.788537" style="fill: #4c72b0; fill-opacity: 0.7; stroke: #ffffff; stroke-opacity: 0.7; stroke-width: 0.384"/>
     <use xlink:href="#mf288e8bcb4" x="514.188409" y="125.06802" style="fill: #4c72b0; fill-opacity: 0.7; stroke: #ffffff; stroke-opacity: 0.7; stroke-width: 0.384"/>
     <use xlink:href="#mf288e8bcb4" x="514.188409" y="236.979061" style="fill: #4c72b0; fill-opacity: 0.7; stroke: #ffffff; stroke-opacity: 0.7; stroke-width: 0.384"/>
     <use xlink:href="#mf288e8bcb4" x="342.709773" y="142.111943" style="fill: #4c72b0; fill-opacity: 0.7; stroke: #ffffff; stroke-opacity: 0.7; stroke-width: 0.384"/>
     <use xlink:href="#mf288e8bcb4" x="514.188409" y="125.06802" style="fill: #4c72b0; fill-opacity: 0.7; stroke: #ffffff; stroke-opacity: 0.7; stroke-width: 0.384"/>
     <use xlink:href="#mf288e8bcb4" x="514.188409" y="196.962386" style="fill: #4c72b0; fill-opacity: 0.7; stroke: #ffffff; stroke-opacity: 0.7; stroke-width: 0.384"/>
     <use xlink:href="#mf288e8bcb4" x="514.188409" y="178.025923" style="fill: #4c72b0; fill-opacity: 0.7; stroke: #ffffff; stroke-opacity: 0.7; stroke-width: 0.384"/>
     <use xlink:href="#mf288e8bcb4" x="542.768182" y="233.529347" style="fill: #4c72b0; fill-opacity: 0.7; stroke: #ffffff; stroke-opacity: 0.7; stroke-width: 0.384"/>
     <use xlink:href="#mf288e8bcb4" x="542.768182" y="195.037809" style="fill: #4c72b0; fill-opacity: 0.7; stroke: #ffffff; stroke-opacity: 0.7; stroke-width: 0.384"/>
     <use xlink:href="#mf288e8bcb4" x="428.449091" y="161.829422" style="fill: #4c72b0; fill-opacity: 0.7; stroke: #ffffff; stroke-opacity: 0.7; stroke-width: 0.384"/>
     <use xlink:href="#mf288e8bcb4" x="542.768182" y="176.78751" style="fill: #4c72b0; fill-opacity: 0.7; stroke: #ffffff; stroke-opacity: 0.7; stroke-width: 0.384"/>
     <use xlink:href="#mf288e8bcb4" x="514.188409" y="196.962386" style="fill: #4c72b0; fill-opacity: 0.7; stroke: #ffffff; stroke-opacity: 0.7; stroke-width: 0.384"/>
     <use xlink:href="#mf288e8bcb4" x="399.869318" y="142.111943" style="fill: #4c72b0; fill-opacity: 0.7; stroke: #ffffff; stroke-opacity: 0.7; stroke-width: 0.384"/>
     <use xlink:href="#mf288e8bcb4" x="542.768182" y="233.529347" style="fill: #4c72b0; fill-opacity: 0.7; stroke: #ffffff; stroke-opacity: 0.7; stroke-width: 0.384"/>
     <use xlink:href="#mf288e8bcb4" x="428.449091" y="225.91123" style="fill: #4c72b0; fill-opacity: 0.7; stroke: #ffffff; stroke-opacity: 0.7; stroke-width: 0.384"/>
     <use xlink:href="#mf288e8bcb4" x="514.188409" y="303.006575" style="fill: #4c72b0; fill-opacity: 0.7; stroke: #ffffff; stroke-opacity: 0.7; stroke-width: 0.384"/>
     <use xlink:href="#mf288e8bcb4" x="542.768182" y="233.529347" style="fill: #4c72b0; fill-opacity: 0.7; stroke: #ffffff; stroke-opacity: 0.7; stroke-width: 0.384"/>
     <use xlink:href="#mf288e8bcb4" x="457.028864" y="222.559259" style="fill: #4c72b0; fill-opacity: 0.7; stroke: #ffffff; stroke-opacity: 0.7; stroke-width: 0.384"/>
     <use xlink:href="#mf288e8bcb4" x="485.608636" y="160.395424" style="fill: #4c72b0; fill-opacity: 0.7; stroke: #ffffff; stroke-opacity: 0.7; stroke-width: 0.384"/>
     <use xlink:href="#mf288e8bcb4" x="485.608636" y="107.436375" style="fill: #4c72b0; fill-opacity: 0.7; stroke: #ffffff; stroke-opacity: 0.7; stroke-width: 0.384"/>
     <use xlink:href="#mf288e8bcb4" x="542.768182" y="142.111943" style="fill: #4c72b0; fill-opacity: 0.7; stroke: #ffffff; stroke-opacity: 0.7; stroke-width: 0.384"/>
     <use xlink:href="#mf288e8bcb4" x="514.188409" y="142.111943" style="fill: #4c72b0; fill-opacity: 0.7; stroke: #ffffff; stroke-opacity: 0.7; stroke-width: 0.384"/>
     <use xlink:href="#mf288e8bcb4" x="485.608636" y="107.436375" style="fill: #4c72b0; fill-opacity: 0.7; stroke: #ffffff; stroke-opacity: 0.7; stroke-width: 0.384"/>
     <use xlink:href="#mf288e8bcb4" x="428.449091" y="182.335601" style="fill: #4c72b0; fill-opacity: 0.7; stroke: #ffffff; stroke-opacity: 0.7; stroke-width: 0.384"/>
     <use xlink:href="#mf288e8bcb4" x="428.449091" y="161.829422" style="fill: #4c72b0; fill-opacity: 0.7; stroke: #ffffff; stroke-opacity: 0.7; stroke-width: 0.384"/>
     <use xlink:href="#mf288e8bcb4" x="542.768182" y="233.529347" style="fill: #4c72b0; fill-opacity: 0.7; stroke: #ffffff; stroke-opacity: 0.7; stroke-width: 0.384"/>
     <use xlink:href="#mf288e8bcb4" x="485.608636" y="142.111943" style="fill: #4c72b0; fill-opacity: 0.7; stroke: #ffffff; stroke-opacity: 0.7; stroke-width: 0.384"/>
     <use xlink:href="#mf288e8bcb4" x="85.491818" y="75.072513" style="fill: #4c72b0; fill-opacity: 0.7; stroke: #ffffff; stroke-opacity: 0.7; stroke-width: 0.384"/>
     <use xlink:href="#mf288e8bcb4" x="485.608636" y="360.71878" style="fill: #4c72b0; fill-opacity: 0.7; stroke: #ffffff; stroke-opacity: 0.7; stroke-width: 0.384"/>
     <use xlink:href="#mf288e8bcb4" x="514.188409" y="159.753898" style="fill: #4c72b0; fill-opacity: 0.7; stroke: #ffffff; stroke-opacity: 0.7; stroke-width: 0.384"/>
     <use xlink:href="#mf288e8bcb4" x="514.188409" y="142.111943" style="fill: #4c72b0; fill-opacity: 0.7; stroke: #ffffff; stroke-opacity: 0.7; stroke-width: 0.384"/>
     <use xlink:href="#mf288e8bcb4" x="514.188409" y="178.025923" style="fill: #4c72b0; fill-opacity: 0.7; stroke: #ffffff; stroke-opacity: 0.7; stroke-width: 0.384"/>
     <use xlink:href="#mf288e8bcb4" x="514.188409" y="142.111943" style="fill: #4c72b0; fill-opacity: 0.7; stroke: #ffffff; stroke-opacity: 0.7; stroke-width: 0.384"/>
     <use xlink:href="#mf288e8bcb4" x="457.028864" y="142.111943" style="fill: #4c72b0; fill-opacity: 0.7; stroke: #ffffff; stroke-opacity: 0.7; stroke-width: 0.384"/>
     <use xlink:href="#mf288e8bcb4" x="514.188409" y="178.025923" style="fill: #4c72b0; fill-opacity: 0.7; stroke: #ffffff; stroke-opacity: 0.7; stroke-width: 0.384"/>
     <use xlink:href="#mf288e8bcb4" x="514.188409" y="142.111943" style="fill: #4c72b0; fill-opacity: 0.7; stroke: #ffffff; stroke-opacity: 0.7; stroke-width: 0.384"/>
     <use xlink:href="#mf288e8bcb4" x="428.449091" y="123.138519" style="fill: #4c72b0; fill-opacity: 0.7; stroke: #ffffff; stroke-opacity: 0.7; stroke-width: 0.384"/>
     <use xlink:href="#mf288e8bcb4" x="457.028864" y="142.111943" style="fill: #4c72b0; fill-opacity: 0.7; stroke: #ffffff; stroke-opacity: 0.7; stroke-width: 0.384"/>
     <use xlink:href="#mf288e8bcb4" x="485.608636" y="124.469987" style="fill: #4c72b0; fill-opacity: 0.7; stroke: #ffffff; stroke-opacity: 0.7; stroke-width: 0.384"/>
     <use xlink:href="#mf288e8bcb4" x="542.768182" y="233.529347" style="fill: #4c72b0; fill-opacity: 0.7; stroke: #ffffff; stroke-opacity: 0.7; stroke-width: 0.384"/>
     <use xlink:href="#mf288e8bcb4" x="542.768182" y="159.155866" style="fill: #4c72b0; fill-opacity: 0.7; stroke: #ffffff; stroke-opacity: 0.7; stroke-width: 0.384"/>
     <use xlink:href="#mf288e8bcb4" x="457.028864" y="244.723315" style="fill: #4c72b0; fill-opacity: 0.7; stroke: #ffffff; stroke-opacity: 0.7; stroke-width: 0.384"/>
    </g>
   </g>
   <g id="FillBetweenPolyCollection_1">
    <defs>
     <path id="m8f68aecb66" d="M 85.491818 -393.173405 
L 85.491818 -271.660715 
L 90.110771 -271.440643 
L 94.729725 -271.220571 
L 99.348678 -271.0005 
L 103.967631 -270.780428 
L 108.586584 -270.560356 
L 113.205537 -270.340284 
L 117.82449 -270.120212 
L 122.443444 -269.900141 
L 127.062397 -269.680069 
L 131.68135 -269.460999 
L 136.300303 -269.244419 
L 140.919256 -269.027839 
L 145.538209 -268.81126 
L 150.157163 -268.537413 
L 154.776116 -268.248132 
L 159.395069 -267.958852 
L 164.014022 -267.728161 
L 168.632975 -267.578038 
L 173.251928 -267.356735 
L 177.870882 -266.977807 
L 182.489835 -266.598878 
L 187.108788 -266.21995 
L 191.727741 -265.908595 
L 196.346694 -265.613448 
L 200.965647 -265.322877 
L 205.584601 -265.141642 
L 210.203554 -265.021629 
L 214.822507 -264.837376 
L 219.44146 -264.530822 
L 224.060413 -264.224269 
L 228.679366 -263.917715 
L 233.29832 -263.611162 
L 237.917273 -263.304608 
L 242.536226 -262.998055 
L 247.155179 -262.69324 
L 251.774132 -262.391453 
L 256.393085 -262.255655 
L 261.012039 -262.149161 
L 265.630992 -262.044625 
L 270.249945 -261.94009 
L 274.868898 -261.835555 
L 279.487851 -261.732062 
L 284.106804 -261.528469 
L 288.725758 -261.287547 
L 293.344711 -261.375718 
L 297.963664 -261.316708 
L 302.582617 -261.208343 
L 307.20157 -261.103808 
L 311.820523 -260.910327 
L 316.439477 -260.483065 
L 321.05843 -260.055804 
L 325.677383 -259.628542 
L 330.296336 -259.20128 
L 334.915289 -258.745482 
L 339.534242 -258.3273 
L 344.153196 -257.901227 
L 348.772149 -257.618257 
L 353.391102 -257.59509 
L 358.010055 -257.02693 
L 362.629008 -256.602376 
L 367.247961 -256.506537 
L 371.866915 -256.188202 
L 376.485868 -256.048436 
L 381.104821 -255.463276 
L 385.723774 -255.10967 
L 390.342727 -254.62217 
L 394.96168 -253.867054 
L 399.580634 -253.094493 
L 404.199587 -252.432393 
L 408.81854 -251.997961 
L 413.437493 -251.644557 
L 418.056446 -251.250312 
L 422.675399 -250.680705 
L 427.294353 -250.108485 
L 431.913306 -249.527363 
L 436.532259 -248.955782 
L 441.151212 -248.37906 
L 445.770165 -247.80692 
L 450.389118 -247.165848 
L 455.008072 -246.462356 
L 459.627025 -245.652693 
L 464.245978 -244.616832 
L 468.864931 -244.153062 
L 473.483884 -242.960466 
L 478.102837 -242.121069 
L 482.721791 -241.179387 
L 487.340744 -240.271193 
L 491.959697 -239.153959 
L 496.57865 -237.856424 
L 501.197603 -236.596489 
L 505.816556 -235.516472 
L 510.43551 -234.384027 
L 515.054463 -233.180632 
L 519.673416 -231.931553 
L 524.292369 -230.627132 
L 528.911322 -229.136077 
L 533.530275 -227.671233 
L 538.149229 -226.489218 
L 542.768182 -225.196029 
L 542.768182 -256.203149 
L 542.768182 -256.203149 
L 538.149229 -256.824668 
L 533.530275 -257.032267 
L 528.911322 -257.559588 
L 524.292369 -258.322908 
L 519.673416 -259.006474 
L 515.054463 -259.776226 
L 510.43551 -260.37594 
L 505.816556 -261.128227 
L 501.197603 -262.215461 
L 496.57865 -263.081283 
L 491.959697 -263.796393 
L 487.340744 -264.52412 
L 482.721791 -265.351497 
L 478.102837 -266.15037 
L 473.483884 -267.029314 
L 468.864931 -268.096169 
L 464.245978 -268.977653 
L 459.627025 -270.041133 
L 455.008072 -271.261037 
L 450.389118 -272.710907 
L 445.770165 -274.00509 
L 441.151212 -275.38062 
L 436.532259 -276.631529 
L 431.913306 -278.000811 
L 427.294353 -279.304808 
L 422.675399 -280.607841 
L 418.056446 -281.863588 
L 413.437493 -283.14894 
L 408.81854 -284.520798 
L 404.199587 -285.822039 
L 399.580634 -287.061365 
L 394.96168 -288.419545 
L 390.342727 -289.844363 
L 385.723774 -291.336255 
L 381.104821 -292.795968 
L 376.485868 -294.267851 
L 371.866915 -295.733503 
L 367.247961 -297.153114 
L 362.629008 -298.589809 
L 358.010055 -299.990286 
L 353.391102 -301.454516 
L 348.772149 -303.008831 
L 344.153196 -304.540565 
L 339.534242 -306.011907 
L 334.915289 -307.677515 
L 330.296336 -309.233599 
L 325.677383 -310.789683 
L 321.05843 -312.357406 
L 316.439477 -313.91559 
L 311.820523 -315.457933 
L 307.20157 -317.014017 
L 302.582617 -318.570101 
L 297.963664 -320.10978 
L 293.344711 -321.628161 
L 288.725758 -323.198993 
L 284.106804 -324.664797 
L 279.487851 -326.163323 
L 274.868898 -327.699605 
L 270.249945 -329.220068 
L 265.630992 -330.738449 
L 261.012039 -332.308568 
L 256.393085 -333.878887 
L 251.774132 -335.449206 
L 247.155179 -337.019525 
L 242.536226 -338.589843 
L 237.917273 -340.160162 
L 233.29832 -341.760995 
L 228.679366 -343.466766 
L 224.060413 -345.023522 
L 219.44146 -346.579606 
L 214.822507 -348.134641 
L 210.203554 -349.691773 
L 205.584601 -351.247857 
L 200.965647 -352.803941 
L 196.346694 -354.360024 
L 191.727741 -355.916108 
L 187.108788 -357.472191 
L 182.489835 -359.028275 
L 177.870882 -360.624476 
L 173.251928 -362.213093 
L 168.632975 -363.773194 
L 164.014022 -365.333295 
L 159.395069 -367.041434 
L 154.776116 -368.783967 
L 150.157163 -370.483875 
L 145.538209 -372.129594 
L 140.919256 -373.773175 
L 136.300303 -375.382295 
L 131.68135 -376.836419 
L 127.062397 -378.343679 
L 122.443444 -379.981501 
L 117.82449 -381.619324 
L 113.205537 -383.257147 
L 108.586584 -384.915602 
L 103.967631 -386.605044 
L 99.348678 -388.294485 
L 94.729725 -389.981906 
L 90.110771 -391.644953 
L 85.491818 -393.173405 
z
" style="stroke: #ffffff; stroke-opacity: 0.15; stroke-width: 0.8"/>
    </defs>
    <g clip-path="url(#pec3faf3b64)">
     <use xlink:href="#m8f68aecb66" x="0" y="432" style="fill: #808080; fill-opacity: 0.15; stroke: #ffffff; stroke-opacity: 0.15; stroke-width: 0.8"/>
    </g>
   </g>
   <g id="FillBetweenPolyCollection_2">
    <defs>
     <path id="m1930dbf61e" d="M 85.491818 -398.899898 
L 85.491818 -268.940167 
L 90.110771 -268.783036 
L 94.729725 -268.625906 
L 99.348678 -268.468776 
L 103.967631 -268.311646 
L 108.586584 -268.154516 
L 113.205537 -267.997386 
L 117.82449 -267.840255 
L 122.443444 -267.683125 
L 127.062397 -267.525995 
L 131.68135 -267.372464 
L 136.300303 -267.219421 
L 140.919256 -266.992827 
L 145.538209 -266.643608 
L 150.157163 -266.330932 
L 154.776116 -266.264674 
L 159.395069 -266.198415 
L 164.014022 -266.135292 
L 168.632975 -266.075233 
L 173.251928 -265.972419 
L 177.870882 -265.818128 
L 182.489835 -265.663838 
L 187.108788 -265.474366 
L 191.727741 -265.232794 
L 196.346694 -264.991222 
L 200.965647 -264.74965 
L 205.584601 -264.508077 
L 210.203554 -264.266505 
L 214.822507 -264.049624 
L 219.44146 -263.806374 
L 224.060413 -263.563124 
L 228.679366 -263.319875 
L 233.29832 -263.076625 
L 237.917273 -262.968866 
L 242.536226 -262.934227 
L 247.155179 -262.655177 
L 251.774132 -262.327109 
L 256.393085 -261.999041 
L 261.012039 -261.670973 
L 265.630992 -261.374258 
L 270.249945 -261.080975 
L 274.868898 -260.833044 
L 279.487851 -260.585934 
L 284.106804 -260.27182 
L 288.725758 -259.837613 
L 293.344711 -259.358926 
L 297.963664 -259.161447 
L 302.582617 -258.725064 
L 307.20157 -258.369305 
L 311.820523 -258.181841 
L 316.439477 -257.876872 
L 321.05843 -257.534737 
L 325.677383 -257.193535 
L 330.296336 -256.863701 
L 334.915289 -256.639499 
L 339.534242 -256.243605 
L 344.153196 -255.972342 
L 348.772149 -255.930425 
L 353.391102 -255.748238 
L 358.010055 -255.479218 
L 362.629008 -255.220099 
L 367.247961 -254.766577 
L 371.866915 -254.317274 
L 376.485868 -254.104834 
L 381.104821 -253.659954 
L 385.723774 -252.882424 
L 390.342727 -252.424908 
L 394.96168 -252.226775 
L 399.580634 -252.265259 
L 404.199587 -251.6345 
L 408.81854 -251.284812 
L 413.437493 -250.699257 
L 418.056446 -250.208715 
L 422.675399 -249.642597 
L 427.294353 -249.008598 
L 431.913306 -248.337206 
L 436.532259 -247.750754 
L 441.151212 -247.158376 
L 445.770165 -246.567085 
L 450.389118 -245.97838 
L 455.008072 -245.171661 
L 459.627025 -244.390849 
L 464.245978 -243.610789 
L 468.864931 -242.815047 
L 473.483884 -241.912564 
L 478.102837 -241.075921 
L 482.721791 -240.199088 
L 487.340744 -239.690789 
L 491.959697 -238.760809 
L 496.57865 -237.722316 
L 501.197603 -236.758404 
L 505.816556 -235.785051 
L 510.43551 -234.496078 
L 515.054463 -233.247605 
L 519.673416 -231.916779 
L 524.292369 -230.514398 
L 528.911322 -229.359023 
L 533.530275 -228.392116 
L 538.149229 -227.239983 
L 542.768182 -226.129253 
L 542.768182 -256.549047 
L 542.768182 -256.549047 
L 538.149229 -257.025218 
L 533.530275 -257.518986 
L 528.911322 -257.962215 
L 524.292369 -258.444495 
L 519.673416 -258.702312 
L 515.054463 -259.585764 
L 510.43551 -260.318436 
L 505.816556 -261.317279 
L 501.197603 -261.87346 
L 496.57865 -263.020115 
L 491.959697 -263.94136 
L 487.340744 -264.684491 
L 482.721791 -265.441815 
L 478.102837 -266.182875 
L 473.483884 -267.230886 
L 468.864931 -268.339652 
L 464.245978 -269.591814 
L 459.627025 -270.678329 
L 455.008072 -271.993518 
L 450.389118 -273.398406 
L 445.770165 -274.671849 
L 441.151212 -276.065746 
L 436.532259 -277.599068 
L 431.913306 -279.017454 
L 427.294353 -280.291559 
L 422.675399 -281.613619 
L 418.056446 -282.904565 
L 413.437493 -284.243284 
L 408.81854 -286.003887 
L 404.199587 -287.442268 
L 399.580634 -288.956527 
L 394.96168 -290.519212 
L 390.342727 -291.693403 
L 385.723774 -293.074012 
L 381.104821 -294.566637 
L 376.485868 -296.214737 
L 371.866915 -297.783367 
L 367.247961 -299.259869 
L 362.629008 -300.747215 
L 358.010055 -302.256931 
L 353.391102 -303.774843 
L 348.772149 -305.432705 
L 344.153196 -307.090568 
L 339.534242 -308.74843 
L 334.915289 -310.254085 
L 330.296336 -311.925619 
L 325.677383 -313.687774 
L 321.05843 -315.297853 
L 316.439477 -316.791014 
L 311.820523 -318.280627 
L 307.20157 -319.7732 
L 302.582617 -321.270166 
L 297.963664 -322.764123 
L 293.344711 -324.393398 
L 288.725758 -326.12099 
L 284.106804 -327.680582 
L 279.487851 -329.402962 
L 274.868898 -331.118043 
L 270.249945 -332.830131 
L 265.630992 -334.542219 
L 261.012039 -336.11313 
L 256.393085 -337.779413 
L 251.774132 -339.483088 
L 247.155179 -341.186762 
L 242.536226 -342.890437 
L 237.917273 -344.594112 
L 233.29832 -346.297787 
L 228.679366 -348.001461 
L 224.060413 -349.705136 
L 219.44146 -351.408811 
L 214.822507 -353.112485 
L 210.203554 -354.813988 
L 205.584601 -356.515038 
L 200.965647 -358.216088 
L 196.346694 -359.899227 
L 191.727741 -361.513843 
L 187.108788 -363.128459 
L 182.489835 -364.743075 
L 177.870882 -366.357691 
L 173.251928 -367.972307 
L 168.632975 -369.585232 
L 164.014022 -371.197292 
L 159.395069 -372.809352 
L 154.776116 -374.421413 
L 150.157163 -376.033473 
L 145.538209 -377.645533 
L 140.919256 -379.257593 
L 136.300303 -380.869654 
L 131.68135 -382.481714 
L 127.062397 -384.093774 
L 122.443444 -385.705834 
L 117.82449 -387.317895 
L 113.205537 -388.984325 
L 108.586584 -390.702488 
L 103.967631 -392.420652 
L 99.348678 -394.087618 
L 94.729725 -395.691711 
L 90.110771 -397.295805 
L 85.491818 -398.899898 
z
" style="stroke: #ffffff; stroke-opacity: 0.15; stroke-width: 0.8"/>
    </defs>
    <g clip-path="url(#pec3faf3b64)">
     <use xlink:href="#m1930dbf61e" x="0" y="432" style="fill: #808080; fill-opacity: 0.15; stroke: #ffffff; stroke-opacity: 0.15; stroke-width: 0.8"/>
    </g>
   </g>
   <g id="line2d_1">
    <path d="M 85.491818 96.176511 
L 90.110771 97.136234 
L 94.729725 98.095957 
L 99.348678 99.055681 
L 103.967631 100.015404 
L 108.586584 100.975128 
L 113.205537 101.934851 
L 117.82449 102.894575 
L 122.443444 103.854298 
L 127.062397 104.814021 
L 131.68135 105.773745 
L 136.300303 106.733468 
L 140.919256 107.693192 
L 145.538209 108.652915 
L 150.157163 109.612638 
L 154.776116 110.572362 
L 159.395069 111.532085 
L 164.014022 112.491809 
L 168.632975 113.451532 
L 173.251928 114.411256 
L 177.870882 115.370979 
L 182.489835 116.330702 
L 187.108788 117.290426 
L 191.727741 118.250149 
L 196.346694 119.209873 
L 200.965647 120.169596 
L 205.584601 121.12932 
L 210.203554 122.089043 
L 214.822507 123.048766 
L 219.44146 124.00849 
L 224.060413 124.968213 
L 228.679366 125.927937 
L 233.29832 126.88766 
L 237.917273 127.847384 
L 242.536226 128.807107 
L 247.155179 129.76683 
L 251.774132 130.726554 
L 256.393085 131.686277 
L 261.012039 132.646001 
L 265.630992 133.605724 
L 270.249945 134.565447 
L 274.868898 135.525171 
L 279.487851 136.484894 
L 284.106804 137.444618 
L 288.725758 138.404341 
L 293.344711 139.364065 
L 297.963664 140.323788 
L 302.582617 141.283511 
L 307.20157 142.243235 
L 311.820523 143.202958 
L 316.439477 144.162682 
L 321.05843 145.122405 
L 325.677383 146.082129 
L 330.296336 147.041852 
L 334.915289 148.001575 
L 339.534242 148.961299 
L 344.153196 149.921022 
L 348.772149 150.880746 
L 353.391102 151.840469 
L 358.010055 152.800193 
L 362.629008 153.759916 
L 367.247961 154.719639 
L 371.866915 155.679363 
L 376.485868 156.639086 
L 381.104821 157.59881 
L 385.723774 158.558533 
L 390.342727 159.518257 
L 394.96168 160.47798 
L 399.580634 161.437703 
L 404.199587 162.397427 
L 408.81854 163.35715 
L 413.437493 164.316874 
L 418.056446 165.276597 
L 422.675399 166.23632 
L 427.294353 167.196044 
L 431.913306 168.155767 
L 436.532259 169.115491 
L 441.151212 170.075214 
L 445.770165 171.034938 
L 450.389118 171.994661 
L 455.008072 172.954384 
L 459.627025 173.914108 
L 464.245978 174.873831 
L 468.864931 175.833555 
L 473.483884 176.793278 
L 478.102837 177.753002 
L 482.721791 178.712725 
L 487.340744 179.672448 
L 491.959697 180.632172 
L 496.57865 181.591895 
L 501.197603 182.551619 
L 505.816556 183.511342 
L 510.43551 184.471066 
L 515.054463 185.430789 
L 519.673416 186.390512 
L 524.292369 187.350236 
L 528.911322 188.309959 
L 533.530275 189.269683 
L 538.149229 190.229406 
L 542.768182 191.18913 
" clip-path="url(#pec3faf3b64)" style="fill: none; stroke: #808080; stroke-width: 1.8; stroke-linecap: round"/>
   </g>
   <g id="line2d_2">
    <path d="M 85.491818 96.176511 
L 90.110771 97.136234 
L 94.729725 98.095957 
L 99.348678 99.055681 
L 103.967631 100.015404 
L 108.586584 100.975128 
L 113.205537 101.934851 
L 117.82449 102.894575 
L 122.443444 103.854298 
L 127.062397 104.814021 
L 131.68135 105.773745 
L 136.300303 106.733468 
L 140.919256 107.693192 
L 145.538209 108.652915 
L 150.157163 109.612638 
L 154.776116 110.572362 
L 159.395069 111.532085 
L 164.014022 112.491809 
L 168.632975 113.451532 
L 173.251928 114.411256 
L 177.870882 115.370979 
L 182.489835 116.330702 
L 187.108788 117.290426 
L 191.727741 118.250149 
L 196.346694 119.209873 
L 200.965647 120.169596 
L 205.584601 121.12932 
L 210.203554 122.089043 
L 214.822507 123.048766 
L 219.44146 124.00849 
L 224.060413 124.968213 
L 228.679366 125.927937 
L 233.29832 126.88766 
L 237.917273 127.847384 
L 242.536226 128.807107 
L 247.155179 129.76683 
L 251.774132 130.726554 
L 256.393085 131.686277 
L 261.012039 132.646001 
L 265.630992 133.605724 
L 270.249945 134.565447 
L 274.868898 135.525171 
L 279.487851 136.484894 
L 284.106804 137.444618 
L 288.725758 138.404341 
L 293.344711 139.364065 
L 297.963664 140.323788 
L 302.582617 141.283511 
L 307.20157 142.243235 
L 311.820523 143.202958 
L 316.439477 144.162682 
L 321.05843 145.122405 
L 325.677383 146.082129 
L 330.296336 147.041852 
L 334.915289 148.001575 
L 339.534242 148.961299 
L 344.153196 149.921022 
L 348.772149 150.880746 
L 353.391102 151.840469 
L 358.010055 152.800193 
L 362.629008 153.759916 
L 367.247961 154.719639 
L 371.866915 155.679363 
L 376.485868 156.639086 
L 381.104821 157.59881 
L 385.723774 158.558533 
L 390.342727 159.518257 
L 394.96168 160.47798 
L 399.580634 161.437703 
L 404.199587 162.397427 
L 408.81854 163.35715 
L 413.437493 164.316874 
L 418.056446 165.276597 
L 422.675399 166.23632 
L 427.294353 167.196044 
L 431.913306 168.155767 
L 436.532259 169.115491 
L 441.151212 170.075214 
L 445.770165 171.034938 
L 450.389118 171.994661 
L 455.008072 172.954384 
L 459.627025 173.914108 
L 464.245978 174.873831 
L 468.864931 175.833555 
L 473.483884 176.793278 
L 478.102837 177.753002 
L 482.721791 178.712725 
L 487.340744 179.672448 
L 491.959697 180.632172 
L 496.57865 181.591895 
L 501.197603 182.551619 
L 505.816556 183.511342 
L 510.43551 184.471066 
L 515.054463 185.430789 
L 519.673416 186.390512 
L 524.292369 187.350236 
L 528.911322 188.309959 
L 533.530275 189.269683 
L 538.149229 190.229406 
L 542.768182 191.18913 
" clip-path="url(#pec3faf3b64)" style="fill: none; stroke: #808080; stroke-width: 1.8; stroke-linecap: round"/>
   </g>
   <g id="patch_5">
    <path d="M 62.628 387.012 
L 62.628 27.168 
" style="fill: none; stroke: #262626; stroke-linejoin: miter; stroke-linecap: square"/>
   </g>
   <g id="patch_6">
    <path d="M 62.628 387.012 
L 565.632 387.012 
" style="fill: none; stroke: #262626; stroke-linejoin: miter; stroke-linecap: square"/>
   </g>
   <g id="text_19">
    <g id="patch_7">
     <path d="M 83.8182 74.171325 
L 200.61195 74.171325 
L 200.61195 41.2002 
L 83.8182 41.2002 
z
" style="fill: #ffffff; opacity: 0.5; stroke: #ffffff; stroke-width: 0.8; stroke-linejoin: miter"/>
    </g>
    <!-- R: -0.25 -->
    <g style="fill: #262626" transform="translate(87.7782 54.278325) scale(0.12 -0.12)">
     <defs>
      <path id="DejaVuSans-3a" d="M 750 794 
L 1409 794 
L 1409 0 
L 750 0 
L 750 794 
z
M 750 3309 
L 1409 3309 
L 1409 2516 
L 750 2516 
L 750 3309 
z
" transform="scale(0.015625)"/>
      <path id="DejaVuSans-2d" d="M 313 2009 
L 1997 2009 
L 1997 1497 
L 313 1497 
L 313 2009 
z
" transform="scale(0.015625)"/>
     </defs>
     <use xlink:href="#DejaVuSans-52"/>
     <use xlink:href="#DejaVuSans-3a" transform="translate(66.357422 0)"/>
     <use xlink:href="#DejaVuSans-20" transform="translate(100.048828 0)"/>
     <use xlink:href="#DejaVuSans-2d" transform="translate(131.835938 0)"/>
     <use xlink:href="#DejaVuSans-30" transform="translate(167.919922 0)"/>
     <use xlink:href="#DejaVuSans-2e" transform="translate(231.542969 0)"/>
     <use xlink:href="#DejaVuSans-32" transform="translate(263.330078 0)"/>
     <use xlink:href="#DejaVuSans-35" transform="translate(326.953125 0)"/>
    </g>
    <!-- P-value: 0.014391 -->
    <g style="fill: #262626" transform="translate(87.7782 67.7157) scale(0.12 -0.12)">
     <defs>
      <path id="DejaVuSans-76" d="M 191 3500 
L 800 3500 
L 1894 563 
L 2988 3500 
L 3597 3500 
L 2284 0 
L 1503 0 
L 191 3500 
z
" transform="scale(0.015625)"/>
      <path id="DejaVuSans-6c" d="M 603 4863 
L 1178 4863 
L 1178 0 
L 603 0 
L 603 4863 
z
" transform="scale(0.015625)"/>
      <path id="DejaVuSans-75" d="M 544 1381 
L 544 3500 
L 1119 3500 
L 1119 1403 
Q 1119 906 1312 657 
Q 1506 409 1894 409 
Q 2359 409 2629 706 
Q 2900 1003 2900 1516 
L 2900 3500 
L 3475 3500 
L 3475 0 
L 2900 0 
L 2900 538 
Q 2691 219 2414 64 
Q 2138 -91 1772 -91 
Q 1169 -91 856 284 
Q 544 659 544 1381 
z
M 1991 3584 
L 1991 3584 
z
" transform="scale(0.015625)"/>
      <path id="DejaVuSans-39" d="M 703 97 
L 703 672 
Q 941 559 1184 500 
Q 1428 441 1663 441 
Q 2288 441 2617 861 
Q 2947 1281 2994 2138 
Q 2813 1869 2534 1725 
Q 2256 1581 1919 1581 
Q 1219 1581 811 2004 
Q 403 2428 403 3163 
Q 403 3881 828 4315 
Q 1253 4750 1959 4750 
Q 2769 4750 3195 4129 
Q 3622 3509 3622 2328 
Q 3622 1225 3098 567 
Q 2575 -91 1691 -91 
Q 1453 -91 1209 -44 
Q 966 3 703 97 
z
M 1959 2075 
Q 2384 2075 2632 2365 
Q 2881 2656 2881 3163 
Q 2881 3666 2632 3958 
Q 2384 4250 1959 4250 
Q 1534 4250 1286 3958 
Q 1038 3666 1038 3163 
Q 1038 2656 1286 2365 
Q 1534 2075 1959 2075 
z
" transform="scale(0.015625)"/>
     </defs>
     <use xlink:href="#DejaVuSans-50"/>
     <use xlink:href="#DejaVuSans-2d" transform="translate(58.052734 0)"/>
     <use xlink:href="#DejaVuSans-76" transform="translate(91.511719 0)"/>
     <use xlink:href="#DejaVuSans-61" transform="translate(150.691406 0)"/>
     <use xlink:href="#DejaVuSans-6c" transform="translate(211.970703 0)"/>
     <use xlink:href="#DejaVuSans-75" transform="translate(239.753906 0)"/>
     <use xlink:href="#DejaVuSans-65" transform="translate(303.132812 0)"/>
     <use xlink:href="#DejaVuSans-3a" transform="translate(364.65625 0)"/>
     <use xlink:href="#DejaVuSans-20" transform="translate(398.347656 0)"/>
     <use xlink:href="#DejaVuSans-30" transform="translate(430.134766 0)"/>
     <use xlink:href="#DejaVuSans-2e" transform="translate(493.757812 0)"/>
     <use xlink:href="#DejaVuSans-30" transform="translate(525.544922 0)"/>
     <use xlink:href="#DejaVuSans-31" transform="translate(589.167969 0)"/>
     <use xlink:href="#DejaVuSans-34" transform="translate(652.791016 0)"/>
     <use xlink:href="#DejaVuSans-33" transform="translate(716.414062 0)"/>
     <use xlink:href="#DejaVuSans-39" transform="translate(780.037109 0)"/>
     <use xlink:href="#DejaVuSans-31" transform="translate(843.660156 0)"/>
    </g>
   </g>
   <g id="text_20">
    <!-- Pre vs. Ratio  N=94 -->
    <g style="fill: #262626" transform="translate(246.112969 21.168) scale(0.14 -0.14)">
     <defs>
      <path id="DejaVuSans-73" d="M 2834 3397 
L 2834 2853 
Q 2591 2978 2328 3040 
Q 2066 3103 1784 3103 
Q 1356 3103 1142 2972 
Q 928 2841 928 2578 
Q 928 2378 1081 2264 
Q 1234 2150 1697 2047 
L 1894 2003 
Q 2506 1872 2764 1633 
Q 3022 1394 3022 966 
Q 3022 478 2636 193 
Q 2250 -91 1575 -91 
Q 1294 -91 989 -36 
Q 684 19 347 128 
L 347 722 
Q 666 556 975 473 
Q 1284 391 1588 391 
Q 1994 391 2212 530 
Q 2431 669 2431 922 
Q 2431 1156 2273 1281 
Q 2116 1406 1581 1522 
L 1381 1569 
Q 847 1681 609 1914 
Q 372 2147 372 2553 
Q 372 3047 722 3315 
Q 1072 3584 1716 3584 
Q 2034 3584 2315 3537 
Q 2597 3491 2834 3397 
z
" transform="scale(0.015625)"/>
      <path id="DejaVuSans-4e" d="M 628 4666 
L 1478 4666 
L 3547 763 
L 3547 4666 
L 4159 4666 
L 4159 0 
L 3309 0 
L 1241 3903 
L 1241 0 
L 628 0 
L 628 4666 
z
" transform="scale(0.015625)"/>
      <path id="DejaVuSans-3d" d="M 678 2906 
L 4684 2906 
L 4684 2381 
L 678 2381 
L 678 2906 
z
M 678 1631 
L 4684 1631 
L 4684 1100 
L 678 1100 
L 678 1631 
z
" transform="scale(0.015625)"/>
     </defs>
     <use xlink:href="#DejaVuSans-50"/>
     <use xlink:href="#DejaVuSans-72" transform="translate(58.552734 0)"/>
     <use xlink:href="#DejaVuSans-65" transform="translate(97.416016 0)"/>
     <use xlink:href="#DejaVuSans-20" transform="translate(158.939453 0)"/>
     <use xlink:href="#DejaVuSans-76" transform="translate(190.726562 0)"/>
     <use xlink:href="#DejaVuSans-73" transform="translate(249.90625 0)"/>
     <use xlink:href="#DejaVuSans-2e" transform="translate(302.005859 0)"/>
     <use xlink:href="#DejaVuSans-20" transform="translate(333.792969 0)"/>
     <use xlink:href="#DejaVuSans-52" transform="translate(365.580078 0)"/>
     <use xlink:href="#DejaVuSans-61" transform="translate(432.8125 0)"/>
     <use xlink:href="#DejaVuSans-74" transform="translate(494.091797 0)"/>
     <use xlink:href="#DejaVuSans-69" transform="translate(533.300781 0)"/>
     <use xlink:href="#DejaVuSans-6f" transform="translate(561.083984 0)"/>
     <use xlink:href="#DejaVuSans-20" transform="translate(622.265625 0)"/>
     <use xlink:href="#DejaVuSans-20" transform="translate(654.052734 0)"/>
     <use xlink:href="#DejaVuSans-4e" transform="translate(685.839844 0)"/>
     <use xlink:href="#DejaVuSans-3d" transform="translate(760.644531 0)"/>
     <use xlink:href="#DejaVuSans-39" transform="translate(844.433594 0)"/>
     <use xlink:href="#DejaVuSans-34" transform="translate(908.056641 0)"/>
    </g>
   </g>
  </g>
 </g>
 <defs>
  <clipPath id="pec3faf3b64">
   <rect x="62.628" y="27.168" width="503.004" height="359.844"/>
  </clipPath>
 </defs>
</svg>
