<?xml version="1.0" encoding="utf-8" standalone="no"?>
<!DOCTYPE svg PUBLIC "-//W3C//DTD SVG 1.1//EN"
  "http://www.w3.org/Graphics/SVG/1.1/DTD/svg11.dtd">
<svg xmlns:xlink="http://www.w3.org/1999/xlink" width="504pt" height="504pt" viewBox="0 0 504 504" xmlns="http://www.w3.org/2000/svg" version="1.1">
 <metadata>
  <rdf:RDF xmlns:dc="http://purl.org/dc/elements/1.1/" xmlns:cc="http://creativecommons.org/ns#" xmlns:rdf="http://www.w3.org/1999/02/22-rdf-syntax-ns#">
   <cc:Work>
    <dc:type rdf:resource="http://purl.org/dc/dcmitype/StillImage"/>
    <dc:date>2025-07-04T17:50:28.735823</dc:date>
    <dc:format>image/svg+xml</dc:format>
    <dc:creator>
     <cc:Agent>
      <dc:title>Matplotlib v3.10.0, https://matplotlib.org/</dc:title>
     </cc:Agent>
    </dc:creator>
   </cc:Work>
  </rdf:RDF>
 </metadata>
 <defs>
  <style type="text/css">*{stroke-linejoin: round; stroke-linecap: butt}</style>
 </defs>
 <g id="figure_1">
  <g id="patch_1">
   <path d="M 0 504 
L 504 504 
L 504 0 
L 0 0 
z
" style="fill: #ffffff"/>
  </g>
  <g id="axes_1">
   <g id="patch_2">
    <path d="M 58.758 474.532 
L 493.632 474.532 
L 493.632 27.168 
L 58.758 27.168 
z
" style="fill: #ffffff"/>
   </g>
   <g id="matplotlib.axis_1">
    <g id="xtick_1">
     <g id="text_1">
      <!-- Pre -->
      <g style="fill: #262626" transform="translate(158.734938 491.190281) scale(0.11 -0.11)">
       <defs>
        <path id="DejaVuSans-50" d="M 1259 4147 
L 1259 2394 
L 2053 2394 
Q 2494 2394 2734 2622 
Q 2975 2850 2975 3272 
Q 2975 3691 2734 3919 
Q 2494 4147 2053 4147 
L 1259 4147 
z
M 628 4666 
L 2053 4666 
Q 2838 4666 3239 4311 
Q 3641 3956 3641 3272 
Q 3641 2581 3239 2228 
Q 2838 1875 2053 1875 
L 1259 1875 
L 1259 0 
L 628 0 
L 628 4666 
z
" transform="scale(0.015625)"/>
        <path id="DejaVuSans-72" d="M 2631 2963 
Q 2534 3019 2420 3045 
Q 2306 3072 2169 3072 
Q 1681 3072 1420 2755 
Q 1159 2438 1159 1844 
L 1159 0 
L 581 0 
L 581 3500 
L 1159 3500 
L 1159 2956 
Q 1341 3275 1631 3429 
Q 1922 3584 2338 3584 
Q 2397 3584 2469 3576 
Q 2541 3569 2628 3553 
L 2631 2963 
z
" transform="scale(0.015625)"/>
        <path id="DejaVuSans-65" d="M 3597 1894 
L 3597 1613 
L 953 1613 
Q 991 1019 1311 708 
Q 1631 397 2203 397 
Q 2534 397 2845 478 
Q 3156 559 3463 722 
L 3463 178 
Q 3153 47 2828 -22 
Q 2503 -91 2169 -91 
Q 1331 -91 842 396 
Q 353 884 353 1716 
Q 353 2575 817 3079 
Q 1281 3584 2069 3584 
Q 2775 3584 3186 3129 
Q 3597 2675 3597 1894 
z
M 3022 2063 
Q 3016 2534 2758 2815 
Q 2500 3097 2075 3097 
Q 1594 3097 1305 2825 
Q 1016 2553 972 2059 
L 3022 2063 
z
" transform="scale(0.015625)"/>
       </defs>
       <use xlink:href="#DejaVuSans-50"/>
       <use xlink:href="#DejaVuSans-72" transform="translate(58.552734 0)"/>
       <use xlink:href="#DejaVuSans-65" transform="translate(97.416016 0)"/>
      </g>
     </g>
    </g>
    <g id="xtick_2">
     <g id="text_2">
      <!-- Post -->
      <g style="fill: #262626" transform="translate(373.409906 491.190281) scale(0.11 -0.11)">
       <defs>
        <path id="DejaVuSans-6f" d="M 1959 3097 
Q 1497 3097 1228 2736 
Q 959 2375 959 1747 
Q 959 1119 1226 758 
Q 1494 397 1959 397 
Q 2419 397 2687 759 
Q 2956 1122 2956 1747 
Q 2956 2369 2687 2733 
Q 2419 3097 1959 3097 
z
M 1959 3584 
Q 2709 3584 3137 3096 
Q 3566 2609 3566 1747 
Q 3566 888 3137 398 
Q 2709 -91 1959 -91 
Q 1206 -91 779 398 
Q 353 888 353 1747 
Q 353 2609 779 3096 
Q 1206 3584 1959 3584 
z
" transform="scale(0.015625)"/>
        <path id="DejaVuSans-73" d="M 2834 3397 
L 2834 2853 
Q 2591 2978 2328 3040 
Q 2066 3103 1784 3103 
Q 1356 3103 1142 2972 
Q 928 2841 928 2578 
Q 928 2378 1081 2264 
Q 1234 2150 1697 2047 
L 1894 2003 
Q 2506 1872 2764 1633 
Q 3022 1394 3022 966 
Q 3022 478 2636 193 
Q 2250 -91 1575 -91 
Q 1294 -91 989 -36 
Q 684 19 347 128 
L 347 722 
Q 666 556 975 473 
Q 1284 391 1588 391 
Q 1994 391 2212 530 
Q 2431 669 2431 922 
Q 2431 1156 2273 1281 
Q 2116 1406 1581 1522 
L 1381 1569 
Q 847 1681 609 1914 
Q 372 2147 372 2553 
Q 372 3047 722 3315 
Q 1072 3584 1716 3584 
Q 2034 3584 2315 3537 
Q 2597 3491 2834 3397 
z
" transform="scale(0.015625)"/>
        <path id="DejaVuSans-74" d="M 1172 4494 
L 1172 3500 
L 2356 3500 
L 2356 3053 
L 1172 3053 
L 1172 1153 
Q 1172 725 1289 603 
Q 1406 481 1766 481 
L 2356 481 
L 2356 0 
L 1766 0 
Q 1100 0 847 248 
Q 594 497 594 1153 
L 594 3053 
L 172 3053 
L 172 3500 
L 594 3500 
L 594 4494 
L 1172 4494 
z
" transform="scale(0.015625)"/>
       </defs>
       <use xlink:href="#DejaVuSans-50"/>
       <use xlink:href="#DejaVuSans-6f" transform="translate(56.677734 0)"/>
       <use xlink:href="#DejaVuSans-73" transform="translate(117.859375 0)"/>
       <use xlink:href="#DejaVuSans-74" transform="translate(169.958984 0)"/>
      </g>
     </g>
    </g>
   </g>
   <g id="matplotlib.axis_2">
    <g id="ytick_1">
     <g id="text_3">
      <!-- 0 -->
      <g style="fill: #262626" transform="translate(44.0955 458.005955) scale(0.1 -0.1)">
       <defs>
        <path id="DejaVuSans-30" d="M 2034 4250 
Q 1547 4250 1301 3770 
Q 1056 3291 1056 2328 
Q 1056 1369 1301 889 
Q 1547 409 2034 409 
Q 2525 409 2770 889 
Q 3016 1369 3016 2328 
Q 3016 3291 2770 3770 
Q 2525 4250 2034 4250 
z
M 2034 4750 
Q 2819 4750 3233 4129 
Q 3647 3509 3647 2328 
Q 3647 1150 3233 529 
Q 2819 -91 2034 -91 
Q 1250 -91 836 529 
Q 422 1150 422 2328 
Q 422 3509 836 4129 
Q 1250 4750 2034 4750 
z
" transform="scale(0.015625)"/>
       </defs>
       <use xlink:href="#DejaVuSans-30"/>
      </g>
     </g>
    </g>
    <g id="ytick_2">
     <g id="text_4">
      <!-- 500 -->
      <g style="fill: #262626" transform="translate(31.3705 398.858472) scale(0.1 -0.1)">
       <defs>
        <path id="DejaVuSans-35" d="M 691 4666 
L 3169 4666 
L 3169 4134 
L 1269 4134 
L 1269 2991 
Q 1406 3038 1543 3061 
Q 1681 3084 1819 3084 
Q 2600 3084 3056 2656 
Q 3513 2228 3513 1497 
Q 3513 744 3044 326 
Q 2575 -91 1722 -91 
Q 1428 -91 1123 -41 
Q 819 9 494 109 
L 494 744 
Q 775 591 1075 516 
Q 1375 441 1709 441 
Q 2250 441 2565 725 
Q 2881 1009 2881 1497 
Q 2881 1984 2565 2268 
Q 2250 2553 1709 2553 
Q 1456 2553 1204 2497 
Q 953 2441 691 2322 
L 691 4666 
z
" transform="scale(0.015625)"/>
       </defs>
       <use xlink:href="#DejaVuSans-35"/>
       <use xlink:href="#DejaVuSans-30" transform="translate(63.623047 0)"/>
       <use xlink:href="#DejaVuSans-30" transform="translate(127.246094 0)"/>
      </g>
     </g>
    </g>
    <g id="ytick_3">
     <g id="text_5">
      <!-- 1000 -->
      <g style="fill: #262626" transform="translate(25.008 339.710989) scale(0.1 -0.1)">
       <defs>
        <path id="DejaVuSans-31" d="M 794 531 
L 1825 531 
L 1825 4091 
L 703 3866 
L 703 4441 
L 1819 4666 
L 2450 4666 
L 2450 531 
L 3481 531 
L 3481 0 
L 794 0 
L 794 531 
z
" transform="scale(0.015625)"/>
       </defs>
       <use xlink:href="#DejaVuSans-31"/>
       <use xlink:href="#DejaVuSans-30" transform="translate(63.623047 0)"/>
       <use xlink:href="#DejaVuSans-30" transform="translate(127.246094 0)"/>
       <use xlink:href="#DejaVuSans-30" transform="translate(190.869141 0)"/>
      </g>
     </g>
    </g>
    <g id="ytick_4">
     <g id="text_6">
      <!-- 1500 -->
      <g style="fill: #262626" transform="translate(25.008 280.563506) scale(0.1 -0.1)">
       <use xlink:href="#DejaVuSans-31"/>
       <use xlink:href="#DejaVuSans-35" transform="translate(63.623047 0)"/>
       <use xlink:href="#DejaVuSans-30" transform="translate(127.246094 0)"/>
       <use xlink:href="#DejaVuSans-30" transform="translate(190.869141 0)"/>
      </g>
     </g>
    </g>
    <g id="ytick_5">
     <g id="text_7">
      <!-- 2000 -->
      <g style="fill: #262626" transform="translate(25.008 221.416022) scale(0.1 -0.1)">
       <defs>
        <path id="DejaVuSans-32" d="M 1228 531 
L 3431 531 
L 3431 0 
L 469 0 
L 469 531 
Q 828 903 1448 1529 
Q 2069 2156 2228 2338 
Q 2531 2678 2651 2914 
Q 2772 3150 2772 3378 
Q 2772 3750 2511 3984 
Q 2250 4219 1831 4219 
Q 1534 4219 1204 4116 
Q 875 4013 500 3803 
L 500 4441 
Q 881 4594 1212 4672 
Q 1544 4750 1819 4750 
Q 2544 4750 2975 4387 
Q 3406 4025 3406 3419 
Q 3406 3131 3298 2873 
Q 3191 2616 2906 2266 
Q 2828 2175 2409 1742 
Q 1991 1309 1228 531 
z
" transform="scale(0.015625)"/>
       </defs>
       <use xlink:href="#DejaVuSans-32"/>
       <use xlink:href="#DejaVuSans-30" transform="translate(63.623047 0)"/>
       <use xlink:href="#DejaVuSans-30" transform="translate(127.246094 0)"/>
       <use xlink:href="#DejaVuSans-30" transform="translate(190.869141 0)"/>
      </g>
     </g>
    </g>
    <g id="ytick_6">
     <g id="text_8">
      <!-- 2500 -->
      <g style="fill: #262626" transform="translate(25.008 162.268539) scale(0.1 -0.1)">
       <use xlink:href="#DejaVuSans-32"/>
       <use xlink:href="#DejaVuSans-35" transform="translate(63.623047 0)"/>
       <use xlink:href="#DejaVuSans-30" transform="translate(127.246094 0)"/>
       <use xlink:href="#DejaVuSans-30" transform="translate(190.869141 0)"/>
      </g>
     </g>
    </g>
    <g id="ytick_7">
     <g id="text_9">
      <!-- 3000 -->
      <g style="fill: #262626" transform="translate(25.008 103.121056) scale(0.1 -0.1)">
       <defs>
        <path id="DejaVuSans-33" d="M 2597 2516 
Q 3050 2419 3304 2112 
Q 3559 1806 3559 1356 
Q 3559 666 3084 287 
Q 2609 -91 1734 -91 
Q 1441 -91 1130 -33 
Q 819 25 488 141 
L 488 750 
Q 750 597 1062 519 
Q 1375 441 1716 441 
Q 2309 441 2620 675 
Q 2931 909 2931 1356 
Q 2931 1769 2642 2001 
Q 2353 2234 1838 2234 
L 1294 2234 
L 1294 2753 
L 1863 2753 
Q 2328 2753 2575 2939 
Q 2822 3125 2822 3475 
Q 2822 3834 2567 4026 
Q 2313 4219 1838 4219 
Q 1578 4219 1281 4162 
Q 984 4106 628 3988 
L 628 4550 
Q 988 4650 1302 4700 
Q 1616 4750 1894 4750 
Q 2613 4750 3031 4423 
Q 3450 4097 3450 3541 
Q 3450 3153 3228 2886 
Q 3006 2619 2597 2516 
z
" transform="scale(0.015625)"/>
       </defs>
       <use xlink:href="#DejaVuSans-33"/>
       <use xlink:href="#DejaVuSans-30" transform="translate(63.623047 0)"/>
       <use xlink:href="#DejaVuSans-30" transform="translate(127.246094 0)"/>
       <use xlink:href="#DejaVuSans-30" transform="translate(190.869141 0)"/>
      </g>
     </g>
    </g>
    <g id="ytick_8">
     <g id="text_10">
      <!-- 3500 -->
      <g style="fill: #262626" transform="translate(25.008 43.973573) scale(0.1 -0.1)">
       <use xlink:href="#DejaVuSans-33"/>
       <use xlink:href="#DejaVuSans-35" transform="translate(63.623047 0)"/>
       <use xlink:href="#DejaVuSans-30" transform="translate(127.246094 0)"/>
       <use xlink:href="#DejaVuSans-30" transform="translate(190.869141 0)"/>
      </g>
     </g>
    </g>
    <g id="text_11">
     <!-- LEDD -->
     <g style="fill: #262626" transform="translate(18.720344 265.859844) rotate(-90) scale(0.11 -0.11)">
      <defs>
       <path id="DejaVuSans-4c" d="M 628 4666 
L 1259 4666 
L 1259 531 
L 3531 531 
L 3531 0 
L 628 0 
L 628 4666 
z
" transform="scale(0.015625)"/>
       <path id="DejaVuSans-45" d="M 628 4666 
L 3578 4666 
L 3578 4134 
L 1259 4134 
L 1259 2753 
L 3481 2753 
L 3481 2222 
L 1259 2222 
L 1259 531 
L 3634 531 
L 3634 0 
L 628 0 
L 628 4666 
z
" transform="scale(0.015625)"/>
       <path id="DejaVuSans-44" d="M 1259 4147 
L 1259 519 
L 2022 519 
Q 2988 519 3436 956 
Q 3884 1394 3884 2338 
Q 3884 3275 3436 3711 
Q 2988 4147 2022 4147 
L 1259 4147 
z
M 628 4666 
L 1925 4666 
Q 3281 4666 3915 4102 
Q 4550 3538 4550 2338 
Q 4550 1131 3912 565 
Q 3275 0 1925 0 
L 628 0 
L 628 4666 
z
" transform="scale(0.015625)"/>
      </defs>
      <use xlink:href="#DejaVuSans-4c"/>
      <use xlink:href="#DejaVuSans-45" transform="translate(55.712891 0)"/>
      <use xlink:href="#DejaVuSans-44" transform="translate(118.896484 0)"/>
      <use xlink:href="#DejaVuSans-44" transform="translate(195.898438 0)"/>
     </g>
    </g>
   </g>
   <g id="FillBetweenPolyCollection_1">
    <defs>
     <path id="m8025bf3160" d="M 151.21311 -49.802727 
L 147.439129 -49.802727 
L 146.641364 -53.910753 
L 145.672503 -58.018779 
L 144.504737 -62.126804 
L 143.115697 -66.23483 
L 141.492174 -70.342856 
L 139.633049 -74.450882 
L 137.550795 -78.558907 
L 135.271118 -82.666933 
L 132.830691 -86.774959 
L 130.273295 -90.882984 
L 127.645057 -94.99101 
L 124.989674 -99.099036 
L 122.344541 -103.207062 
L 119.738483 -107.315087 
L 117.191456 -111.423113 
L 114.716116 -115.531139 
L 112.320786 -119.639164 
L 110.013073 -123.74719 
L 107.803351 -127.855216 
L 105.707438 -131.963242 
L 103.748069 -136.071267 
L 101.955054 -140.179293 
L 100.364225 -144.287319 
L 99.01542 -148.395344 
L 97.949724 -152.50337 
L 97.206186 -156.611396 
L 96.818157 -160.719421 
L 96.809475 -164.827447 
L 97.190788 -168.935473 
L 97.956467 -173.043499 
L 99.08266 -177.151524 
L 100.527005 -181.25955 
L 102.23041 -185.367576 
L 104.120991 -189.475601 
L 106.119934 -193.583627 
L 108.148677 -197.691653 
L 110.136541 -201.799679 
L 112.027789 -205.907704 
L 113.787106 -210.01573 
L 115.402684 -214.123756 
L 116.886382 -218.231781 
L 118.270888 -222.339807 
L 119.604224 -226.447833 
L 120.942353 -230.555859 
L 122.340965 -234.663884 
L 123.84759 -238.77191 
L 125.495147 -242.879936 
L 127.297724 -246.987961 
L 129.249039 -251.095987 
L 131.323551 -255.204013 
L 133.479853 -259.312039 
L 135.665678 -263.420064 
L 137.823739 -267.52809 
L 139.897581 -271.636116 
L 141.836786 -275.744141 
L 143.600969 -279.852167 
L 145.16229 -283.960193 
L 146.506363 -288.068219 
L 147.631683 -292.176244 
L 148.547864 -296.28427 
L 149.273063 -300.392296 
L 149.831039 -304.500321 
L 150.248264 -308.608347 
L 150.551397 -312.716373 
L 150.765353 -316.824399 
L 150.912033 -320.932424 
L 151.00969 -325.04045 
L 151.072825 -329.148476 
L 151.112454 -333.256501 
L 151.136602 -337.364527 
L 151.150882 -341.472553 
L 151.159071 -345.580579 
L 151.16361 -349.688604 
L 151.166013 -353.79663 
L 151.167168 -357.904656 
L 151.167547 -362.012681 
L 151.167335 -366.120707 
L 151.166496 -370.228733 
L 151.16479 -374.336758 
L 151.161747 -378.444784 
L 151.156613 -382.55281 
L 151.148278 -386.660836 
L 151.13521 -390.768861 
L 151.115406 -394.876887 
L 151.086399 -398.984913 
L 151.045364 -403.092938 
L 150.98933 -407.200964 
L 150.915544 -411.30899 
L 150.821954 -415.417016 
L 150.707786 -419.525041 
L 150.574113 -423.633067 
L 150.424313 -427.741093 
L 150.264279 -431.849118 
L 150.102274 -435.957144 
L 149.948363 -440.06517 
L 149.813455 -444.173196 
L 149.708054 -448.281221 
L 149.640919 -452.389247 
L 149.617861 -456.497273 
L 151.21311 -456.497273 
L 151.21311 -456.497273 
L 151.21311 -452.389247 
L 151.21311 -448.281221 
L 151.21311 -444.173196 
L 151.21311 -440.06517 
L 151.21311 -435.957144 
L 151.21311 -431.849118 
L 151.21311 -427.741093 
L 151.21311 -423.633067 
L 151.21311 -419.525041 
L 151.21311 -415.417016 
L 151.21311 -411.30899 
L 151.21311 -407.200964 
L 151.21311 -403.092938 
L 151.21311 -398.984913 
L 151.21311 -394.876887 
L 151.20224 -390.768861 
L 151.189172 -386.660836 
L 151.180837 -382.55281 
L 151.175703 -378.444784 
L 151.17266 -374.336758 
L 151.170954 -370.228733 
L 151.170115 -366.120707 
L 151.169903 -362.012681 
L 151.170282 -357.904656 
L 151.171437 -353.79663 
L 151.17384 -349.688604 
L 151.178379 -345.580579 
L 151.186568 -341.472553 
L 151.200848 -337.364527 
L 151.21311 -333.256501 
L 151.21311 -329.148476 
L 151.21311 -325.04045 
L 151.21311 -320.932424 
L 151.21311 -316.824399 
L 151.21311 -312.716373 
L 151.21311 -308.608347 
L 151.21311 -304.500321 
L 151.21311 -300.392296 
L 151.21311 -296.28427 
L 151.21311 -292.176244 
L 151.21311 -288.068219 
L 151.21311 -283.960193 
L 151.21311 -279.852167 
L 151.21311 -275.744141 
L 151.21311 -271.636116 
L 151.21311 -267.52809 
L 151.21311 -263.420064 
L 151.21311 -259.312039 
L 151.21311 -255.204013 
L 151.21311 -251.095987 
L 151.21311 -246.987961 
L 151.21311 -242.879936 
L 151.21311 -238.77191 
L 151.21311 -234.663884 
L 151.21311 -230.555859 
L 151.21311 -226.447833 
L 151.21311 -222.339807 
L 151.21311 -218.231781 
L 151.21311 -214.123756 
L 151.21311 -210.01573 
L 151.21311 -205.907704 
L 151.21311 -201.799679 
L 151.21311 -197.691653 
L 151.21311 -193.583627 
L 151.21311 -189.475601 
L 151.21311 -185.367576 
L 151.21311 -181.25955 
L 151.21311 -177.151524 
L 151.21311 -173.043499 
L 151.21311 -168.935473 
L 151.21311 -164.827447 
L 151.21311 -160.719421 
L 151.21311 -156.611396 
L 151.21311 -152.50337 
L 151.21311 -148.395344 
L 151.21311 -144.287319 
L 151.21311 -140.179293 
L 151.21311 -136.071267 
L 151.21311 -131.963242 
L 151.21311 -127.855216 
L 151.21311 -123.74719 
L 151.21311 -119.639164 
L 151.21311 -115.531139 
L 151.21311 -111.423113 
L 151.21311 -107.315087 
L 151.21311 -103.207062 
L 151.21311 -99.099036 
L 151.21311 -94.99101 
L 151.21311 -90.882984 
L 151.21311 -86.774959 
L 151.21311 -82.666933 
L 151.21311 -78.558907 
L 151.21311 -74.450882 
L 151.21311 -70.342856 
L 151.21311 -66.23483 
L 151.21311 -62.126804 
L 151.21311 -58.018779 
L 151.21311 -53.910753 
L 151.21311 -49.802727 
z
"/>
    </defs>
    <g clip-path="url(#p6d3e023071)">
     <use xlink:href="#m8025bf3160" x="0" y="504" style="fill: #5875a4"/>
    </g>
   </g>
   <g id="FillBetweenPolyCollection_2">
    <defs>
     <path id="me2647b966d" d="M 409.910069 -49.802727 
L 401.32656 -49.802727 
L 401.32656 -52.008415 
L 401.32656 -54.214102 
L 401.32656 -56.419789 
L 401.32656 -58.625477 
L 401.32656 -60.831164 
L 401.32656 -63.036851 
L 401.32656 -65.242538 
L 401.32656 -67.448226 
L 401.32656 -69.653913 
L 401.32656 -71.8596 
L 401.32656 -74.065288 
L 401.32656 -76.270975 
L 401.32656 -78.476662 
L 401.32656 -80.68235 
L 401.32656 -82.888037 
L 401.32656 -85.093724 
L 401.32656 -87.299412 
L 401.32656 -89.505099 
L 401.32656 -91.710786 
L 401.32656 -93.916474 
L 401.32656 -96.122161 
L 401.32656 -98.327848 
L 401.32656 -100.533536 
L 401.32656 -102.739223 
L 401.32656 -104.94491 
L 401.32656 -107.150597 
L 401.32656 -109.356285 
L 401.32656 -111.561972 
L 401.32656 -113.767659 
L 401.32656 -115.973347 
L 401.32656 -118.179034 
L 401.32656 -120.384721 
L 401.32656 -122.590409 
L 401.32656 -124.796096 
L 401.32656 -127.001783 
L 401.32656 -129.207471 
L 401.32656 -131.413158 
L 401.32656 -133.618845 
L 401.32656 -135.824533 
L 401.32656 -138.03022 
L 401.32656 -140.235907 
L 401.32656 -142.441595 
L 401.32656 -144.647282 
L 401.32656 -146.852969 
L 401.32656 -149.058656 
L 401.32656 -151.264344 
L 401.32656 -153.470031 
L 401.32656 -155.675718 
L 401.32656 -157.881406 
L 401.32656 -160.087093 
L 401.32656 -162.29278 
L 401.32656 -164.498468 
L 401.32656 -166.704155 
L 401.32656 -168.909842 
L 401.32656 -171.11553 
L 401.32656 -173.321217 
L 401.32656 -175.526904 
L 401.32656 -177.732592 
L 401.32656 -179.938279 
L 401.32656 -182.143966 
L 401.32656 -184.349654 
L 401.32656 -186.555341 
L 401.32656 -188.761028 
L 401.32656 -190.966715 
L 401.32656 -193.172403 
L 401.32656 -195.37809 
L 401.32656 -197.583777 
L 401.32656 -199.789465 
L 401.32656 -201.995152 
L 401.32656 -204.200839 
L 401.32656 -206.406527 
L 401.32656 -208.612214 
L 401.32656 -210.817901 
L 401.32656 -213.023589 
L 401.32656 -215.229276 
L 401.32656 -217.434963 
L 401.32656 -219.640651 
L 401.32656 -221.846338 
L 401.32656 -224.052025 
L 401.32656 -226.257713 
L 401.32656 -228.4634 
L 401.32656 -230.669087 
L 401.32656 -232.874774 
L 401.32656 -235.080462 
L 401.32656 -237.286149 
L 401.32656 -239.491836 
L 401.32656 -241.697524 
L 401.32656 -243.903211 
L 401.32656 -246.108898 
L 401.32656 -248.314586 
L 401.32656 -250.520273 
L 401.32656 -252.72596 
L 401.32656 -254.931648 
L 401.32656 -257.137335 
L 401.32656 -259.343022 
L 401.32656 -261.54871 
L 401.32656 -263.754397 
L 401.32656 -265.960084 
L 401.32656 -268.165772 
L 405.216616 -268.165772 
L 405.216616 -268.165772 
L 405.501899 -265.960084 
L 405.772308 -263.754397 
L 406.024388 -261.54871 
L 406.255151 -259.343022 
L 406.462145 -257.137335 
L 406.643516 -254.931648 
L 406.798065 -252.72596 
L 406.925322 -250.520273 
L 407.025621 -248.314586 
L 407.100185 -246.108898 
L 407.151206 -243.903211 
L 407.181906 -241.697524 
L 407.196576 -239.491836 
L 407.20055 -237.286149 
L 407.200132 -235.080462 
L 407.202435 -232.874774 
L 407.215158 -230.669087 
L 407.246276 -228.4634 
L 407.303697 -226.257713 
L 407.39487 -224.052025 
L 407.526406 -221.846338 
L 407.703717 -219.640651 
L 407.930728 -217.434963 
L 408.209679 -215.229276 
L 408.54103 -213.023589 
L 408.923503 -210.817901 
L 409.354243 -208.612214 
L 409.829094 -206.406527 
L 410.342988 -204.200839 
L 410.89039 -201.995152 
L 411.465803 -199.789465 
L 412.064267 -197.583777 
L 412.681845 -195.37809 
L 413.31604 -193.172403 
L 413.966138 -190.966715 
L 414.633433 -188.761028 
L 415.321342 -186.555341 
L 416.035389 -184.349654 
L 416.783052 -182.143966 
L 417.573505 -179.938279 
L 418.417226 -177.732592 
L 419.32552 -175.526904 
L 420.309953 -173.321217 
L 421.381718 -171.11553 
L 422.550967 -168.909842 
L 423.826109 -166.704155 
L 425.213127 -164.498468 
L 426.714924 -162.29278 
L 428.330743 -160.087093 
L 430.055698 -157.881406 
L 431.880451 -155.675718 
L 433.79107 -153.470031 
L 435.769114 -151.264344 
L 437.791938 -149.058656 
L 439.833262 -146.852969 
L 441.863952 -144.647282 
L 443.85302 -142.441595 
L 445.768762 -140.235907 
L 447.579979 -138.03022 
L 449.257202 -135.824533 
L 450.773823 -133.618845 
L 452.10706 -131.413158 
L 453.238681 -129.207471 
L 454.155426 -127.001783 
L 454.849128 -124.796096 
L 455.316505 -122.590409 
L 455.558688 -120.384721 
L 455.580525 -118.179034 
L 455.38976 -115.973347 
L 454.99616 -113.767659 
L 454.410687 -111.561972 
L 453.644805 -109.356285 
L 452.709965 -107.150597 
L 451.617305 -104.94491 
L 450.377576 -102.739223 
L 449.001266 -100.533536 
L 447.498872 -98.327848 
L 445.881253 -96.122161 
L 444.16001 -93.916474 
L 442.347793 -91.710786 
L 440.458508 -89.505099 
L 438.507364 -87.299412 
L 436.510748 -85.093724 
L 434.485931 -82.888037 
L 432.450631 -80.68235 
L 430.422481 -78.476662 
L 428.41845 -76.270975 
L 426.454273 -74.065288 
L 424.543957 -71.8596 
L 422.699395 -69.653913 
L 420.930121 -67.448226 
L 419.243231 -65.242538 
L 417.643453 -63.036851 
L 416.133352 -60.831164 
L 414.713649 -58.625477 
L 413.383592 -56.419789 
L 412.141366 -54.214102 
L 410.984472 -52.008415 
L 409.910069 -49.802727 
z
"/>
    </defs>
    <g clip-path="url(#p6d3e023071)">
     <use xlink:href="#me2647b966d" x="0" y="504" style="fill: #cc8963"/>
    </g>
   </g>
   <g id="patch_3">
    <path d="M 151.168725 368.442886 
L 183.784275 368.442886 
L 183.784275 298.04703 
L 151.168725 298.04703 
L 151.168725 368.442886 
z
" clip-path="url(#p6d3e023071)" style="fill: #5875a4; stroke: #4c4c4c; stroke-linejoin: miter"/>
   </g>
   <g id="line2d_1">
    <path d="M 167.4765 368.442886 
L 167.4765 454.197273 
" clip-path="url(#p6d3e023071)" style="fill: none; stroke: #000000"/>
   </g>
   <g id="line2d_2">
    <path d="M 167.4765 298.04703 
L 167.4765 239.79711 
" clip-path="url(#p6d3e023071)" style="fill: none; stroke: #000000"/>
   </g>
   <g id="line2d_3">
    <path d="M 159.322612 454.197273 
L 175.630388 454.197273 
" clip-path="url(#p6d3e023071)" style="fill: none; stroke: #4c4c4c; stroke-linecap: round"/>
   </g>
   <g id="line2d_4">
    <path d="M 159.322612 239.79711 
L 175.630388 239.79711 
" clip-path="url(#p6d3e023071)" style="fill: none; stroke: #4c4c4c; stroke-linecap: round"/>
   </g>
   <g id="line2d_5"/>
   <g id="patch_4">
    <path d="M 368.605725 405.971964 
L 401.221275 405.971964 
L 401.221275 358.9438 
L 368.605725 358.9438 
L 368.605725 405.971964 
z
" clip-path="url(#p6d3e023071)" style="fill: #cc8963; stroke: #4c4c4c; stroke-linejoin: miter"/>
   </g>
   <g id="line2d_6">
    <path d="M 384.9135 405.971964 
L 384.9135 454.197273 
" clip-path="url(#p6d3e023071)" style="fill: none; stroke: #000000"/>
   </g>
   <g id="line2d_7">
    <path d="M 384.9135 358.9438 
L 384.9135 294.644571 
" clip-path="url(#p6d3e023071)" style="fill: none; stroke: #000000"/>
   </g>
   <g id="line2d_8">
    <path d="M 376.759613 454.197273 
L 393.067387 454.197273 
" clip-path="url(#p6d3e023071)" style="fill: none; stroke: #4c4c4c; stroke-linecap: round"/>
   </g>
   <g id="line2d_9">
    <path d="M 376.759613 294.644571 
L 393.067387 294.644571 
" clip-path="url(#p6d3e023071)" style="fill: none; stroke: #4c4c4c; stroke-linecap: round"/>
   </g>
   <g id="line2d_10"/>
   <g id="PathCollection_1">
    <defs>
     <path id="m79d97539e1" d="M 0 1.581139 
C 0.419323 1.581139 0.821528 1.41454 1.118034 1.118034 
C 1.41454 0.821528 1.581139 0.419323 1.581139 0 
C 1.581139 -0.419323 1.41454 -0.821528 1.118034 -1.118034 
C 0.821528 -1.41454 0.419323 -1.581139 0 -1.581139 
C -0.419323 -1.581139 -0.821528 -1.41454 -1.118034 -1.118034 
C -1.41454 -0.821528 -1.581139 -0.419323 -1.581139 0 
C -1.581139 0.419323 -1.41454 0.821528 -1.118034 1.118034 
C -0.821528 1.41454 -0.419323 1.581139 0 1.581139 
z
" style="stroke: #000000; stroke-opacity: 0.9; stroke-width: 0.8"/>
    </defs>
    <g clip-path="url(#p6d3e023071)">
     <use xlink:href="#m79d97539e1" x="175.310509" y="268.554616" style="fill-opacity: 0.9; stroke: #000000; stroke-opacity: 0.9; stroke-width: 0.8"/>
     <use xlink:href="#m79d97539e1" x="173.175352" y="266.194632" style="fill-opacity: 0.9; stroke: #000000; stroke-opacity: 0.9; stroke-width: 0.8"/>
     <use xlink:href="#m79d97539e1" x="171.149199" y="305.308862" style="fill-opacity: 0.9; stroke: #000000; stroke-opacity: 0.9; stroke-width: 0.8"/>
     <use xlink:href="#m79d97539e1" x="164.033217" y="317.327631" style="fill-opacity: 0.9; stroke: #000000; stroke-opacity: 0.9; stroke-width: 0.8"/>
     <use xlink:href="#m79d97539e1" x="158.449228" y="395.177548" style="fill-opacity: 0.9; stroke: #000000; stroke-opacity: 0.9; stroke-width: 0.8"/>
     <use xlink:href="#m79d97539e1" x="161.946482" y="318.463262" style="fill-opacity: 0.9; stroke: #000000; stroke-opacity: 0.9; stroke-width: 0.8"/>
     <use xlink:href="#m79d97539e1" x="173.804195" y="297.649263" style="fill-opacity: 0.9; stroke: #000000; stroke-opacity: 0.9; stroke-width: 0.8"/>
     <use xlink:href="#m79d97539e1" x="174.642652" y="322.899324" style="fill-opacity: 0.9; stroke: #000000; stroke-opacity: 0.9; stroke-width: 0.8"/>
     <use xlink:href="#m79d97539e1" x="159.949098" y="348.545672" style="fill-opacity: 0.9; stroke: #000000; stroke-opacity: 0.9; stroke-width: 0.8"/>
     <use xlink:href="#m79d97539e1" x="158.80827" y="333.001714" style="fill-opacity: 0.9; stroke: #000000; stroke-opacity: 0.9; stroke-width: 0.8"/>
     <use xlink:href="#m79d97539e1" x="157.228376" y="338.567492" style="fill-opacity: 0.9; stroke: #000000; stroke-opacity: 0.9; stroke-width: 0.8"/>
     <use xlink:href="#m79d97539e1" x="164.580333" y="355.874046" style="fill-opacity: 0.9; stroke: #000000; stroke-opacity: 0.9; stroke-width: 0.8"/>
     <use xlink:href="#m79d97539e1" x="160.502088" y="343.009468" style="fill-opacity: 0.9; stroke: #000000; stroke-opacity: 0.9; stroke-width: 0.8"/>
     <use xlink:href="#m79d97539e1" x="167.621316" y="336.207507" style="fill-opacity: 0.9; stroke: #000000; stroke-opacity: 0.9; stroke-width: 0.8"/>
     <use xlink:href="#m79d97539e1" x="164.996648" y="341.235043" style="fill-opacity: 0.9; stroke: #000000; stroke-opacity: 0.9; stroke-width: 0.8"/>
     <use xlink:href="#m79d97539e1" x="177.3673" y="289.38636" style="fill-opacity: 0.9; stroke: #000000; stroke-opacity: 0.9; stroke-width: 0.8"/>
     <use xlink:href="#m79d97539e1" x="173.735241" y="338.508344" style="fill-opacity: 0.9; stroke: #000000; stroke-opacity: 0.9; stroke-width: 0.8"/>
     <use xlink:href="#m79d97539e1" x="170.532161" y="371.40026" style="fill-opacity: 0.9; stroke: #000000; stroke-opacity: 0.9; stroke-width: 0.8"/>
     <use xlink:href="#m79d97539e1" x="163.165467" y="328.908708" style="fill-opacity: 0.9; stroke: #000000; stroke-opacity: 0.9; stroke-width: 0.8"/>
     <use xlink:href="#m79d97539e1" x="171.383069" y="275.393544" style="fill-opacity: 0.9; stroke: #000000; stroke-opacity: 0.9; stroke-width: 0.8"/>
     <use xlink:href="#m79d97539e1" x="174.948814" y="273.688618" style="fill-opacity: 0.9; stroke: #000000; stroke-opacity: 0.9; stroke-width: 0.8"/>
     <use xlink:href="#m79d97539e1" x="177.883417" y="251.094279" style="fill-opacity: 0.9; stroke: #000000; stroke-opacity: 0.9; stroke-width: 0.8"/>
     <use xlink:href="#m79d97539e1" x="173.62359" y="347.741267" style="fill-opacity: 0.9; stroke: #000000; stroke-opacity: 0.9; stroke-width: 0.8"/>
     <use xlink:href="#m79d97539e1" x="168.402843" y="299.24033" style="fill-opacity: 0.9; stroke: #000000; stroke-opacity: 0.9; stroke-width: 0.8"/>
     <use xlink:href="#m79d97539e1" x="170.997762" y="338.277669" style="fill-opacity: 0.9; stroke: #000000; stroke-opacity: 0.9; stroke-width: 0.8"/>
     <use xlink:href="#m79d97539e1" x="158.129677" y="357.204864" style="fill-opacity: 0.9; stroke: #000000; stroke-opacity: 0.9; stroke-width: 0.8"/>
     <use xlink:href="#m79d97539e1" x="175.04076" y="314.098178" style="fill-opacity: 0.9; stroke: #000000; stroke-opacity: 0.9; stroke-width: 0.8"/>
     <use xlink:href="#m79d97539e1" x="159.307658" y="369.034361" style="fill-opacity: 0.9; stroke: #000000; stroke-opacity: 0.9; stroke-width: 0.8"/>
     <use xlink:href="#m79d97539e1" x="170.857929" y="361.936663" style="fill-opacity: 0.9; stroke: #000000; stroke-opacity: 0.9; stroke-width: 0.8"/>
     <use xlink:href="#m79d97539e1" x="167.359676" y="239.79711" style="fill-opacity: 0.9; stroke: #000000; stroke-opacity: 0.9; stroke-width: 0.8"/>
     <use xlink:href="#m79d97539e1" x="161.130741" y="406.88875" style="fill-opacity: 0.9; stroke: #000000; stroke-opacity: 0.9; stroke-width: 0.8"/>
     <use xlink:href="#m79d97539e1" x="175.709061" y="360.517123" style="fill-opacity: 0.9; stroke: #000000; stroke-opacity: 0.9; stroke-width: 0.8"/>
     <use xlink:href="#m79d97539e1" x="176.230918" y="394.467778" style="fill-opacity: 0.9; stroke: #000000; stroke-opacity: 0.9; stroke-width: 0.8"/>
     <use xlink:href="#m79d97539e1" x="162.152185" y="246.445287" style="fill-opacity: 0.9; stroke: #000000; stroke-opacity: 0.9; stroke-width: 0.8"/>
     <use xlink:href="#m79d97539e1" x="160.412116" y="395.059253" style="fill-opacity: 0.9; stroke: #000000; stroke-opacity: 0.9; stroke-width: 0.8"/>
     <use xlink:href="#m79d97539e1" x="157.990538" y="374.357634" style="fill-opacity: 0.9; stroke: #000000; stroke-opacity: 0.9; stroke-width: 0.8"/>
     <use xlink:href="#m79d97539e1" x="168.224898" y="454.197273" style="fill-opacity: 0.9; stroke: #000000; stroke-opacity: 0.9; stroke-width: 0.8"/>
     <use xlink:href="#m79d97539e1" x="176.897935" y="369.74413" style="fill-opacity: 0.9; stroke: #000000; stroke-opacity: 0.9; stroke-width: 0.8"/>
     <use xlink:href="#m79d97539e1" x="174.551636" y="297.643348" style="fill-opacity: 0.9; stroke: #000000; stroke-opacity: 0.9; stroke-width: 0.8"/>
     <use xlink:href="#m79d97539e1" x="176.486224" y="247.852997" style="fill-opacity: 0.9; stroke: #000000; stroke-opacity: 0.9; stroke-width: 0.8"/>
     <use xlink:href="#m79d97539e1" x="168.695291" y="247.663725" style="fill-opacity: 0.9; stroke: #000000; stroke-opacity: 0.9; stroke-width: 0.8"/>
     <use xlink:href="#m79d97539e1" x="174.84538" y="347.741267" style="fill-opacity: 0.9; stroke: #000000; stroke-opacity: 0.9; stroke-width: 0.8"/>
     <use xlink:href="#m79d97539e1" x="175.884172" y="345.966842" style="fill-opacity: 0.9; stroke: #000000; stroke-opacity: 0.9; stroke-width: 0.8"/>
     <use xlink:href="#m79d97539e1" x="168.077949" y="270.258064" style="fill-opacity: 0.9; stroke: #000000; stroke-opacity: 0.9; stroke-width: 0.8"/>
     <use xlink:href="#m79d97539e1" x="171.913256" y="402.156951" style="fill-opacity: 0.9; stroke: #000000; stroke-opacity: 0.9; stroke-width: 0.8"/>
     <use xlink:href="#m79d97539e1" x="169.890881" y="353.656015" style="fill-opacity: 0.9; stroke: #000000; stroke-opacity: 0.9; stroke-width: 0.8"/>
     <use xlink:href="#m79d97539e1" x="175.982098" y="378.497958" style="fill-opacity: 0.9; stroke: #000000; stroke-opacity: 0.9; stroke-width: 0.8"/>
     <use xlink:href="#m79d97539e1" x="161.089162" y="383.229757" style="fill-opacity: 0.9; stroke: #000000; stroke-opacity: 0.9; stroke-width: 0.8"/>
     <use xlink:href="#m79d97539e1" x="164.408054" y="273.570323" style="fill-opacity: 0.9; stroke: #000000; stroke-opacity: 0.9; stroke-width: 0.8"/>
     <use xlink:href="#m79d97539e1" x="168.073448" y="360.753713" style="fill-opacity: 0.9; stroke: #000000; stroke-opacity: 0.9; stroke-width: 0.8"/>
     <use xlink:href="#m79d97539e1" x="157.482842" y="265.975786" style="fill-opacity: 0.9; stroke: #000000; stroke-opacity: 0.9; stroke-width: 0.8"/>
     <use xlink:href="#m79d97539e1" x="160.017529" y="402.156951" style="fill-opacity: 0.9; stroke: #000000; stroke-opacity: 0.9; stroke-width: 0.8"/>
     <use xlink:href="#m79d97539e1" x="166.315009" y="355.430439" style="fill-opacity: 0.9; stroke: #000000; stroke-opacity: 0.9; stroke-width: 0.8"/>
     <use xlink:href="#m79d97539e1" x="161.278785" y="362.528137" style="fill-opacity: 0.9; stroke: #000000; stroke-opacity: 0.9; stroke-width: 0.8"/>
     <use xlink:href="#m79d97539e1" x="171.066578" y="318.167525" style="fill-opacity: 0.9; stroke: #000000; stroke-opacity: 0.9; stroke-width: 0.8"/>
     <use xlink:href="#m79d97539e1" x="165.783214" y="323.996509" style="fill-opacity: 0.9; stroke: #000000; stroke-opacity: 0.9; stroke-width: 0.8"/>
     <use xlink:href="#m79d97539e1" x="172.136533" y="264.93479" style="fill-opacity: 0.9; stroke: #000000; stroke-opacity: 0.9; stroke-width: 0.8"/>
     <use xlink:href="#m79d97539e1" x="159.060669" y="389.144505" style="fill-opacity: 0.9; stroke: #000000; stroke-opacity: 0.9; stroke-width: 0.8"/>
     <use xlink:href="#m79d97539e1" x="172.588912" y="308.425935" style="fill-opacity: 0.9; stroke: #000000; stroke-opacity: 0.9; stroke-width: 0.8"/>
     <use xlink:href="#m79d97539e1" x="160.97238" y="265.390226" style="fill-opacity: 0.9; stroke: #000000; stroke-opacity: 0.9; stroke-width: 0.8"/>
     <use xlink:href="#m79d97539e1" x="158.682835" y="418.718246" style="fill-opacity: 0.9; stroke: #000000; stroke-opacity: 0.9; stroke-width: 0.8"/>
     <use xlink:href="#m79d97539e1" x="164.905084" y="383.229757" style="fill-opacity: 0.9; stroke: #000000; stroke-opacity: 0.9; stroke-width: 0.8"/>
     <use xlink:href="#m79d97539e1" x="176.9341" y="361.936663" style="fill-opacity: 0.9; stroke: #000000; stroke-opacity: 0.9; stroke-width: 0.8"/>
     <use xlink:href="#m79d97539e1" x="161.178646" y="400.974001" style="fill-opacity: 0.9; stroke: #000000; stroke-opacity: 0.9; stroke-width: 0.8"/>
     <use xlink:href="#m79d97539e1" x="159.32667" y="328.340892" style="fill-opacity: 0.9; stroke: #000000; stroke-opacity: 0.9; stroke-width: 0.8"/>
     <use xlink:href="#m79d97539e1" x="173.326652" y="371.40026" style="fill-opacity: 0.9; stroke: #000000; stroke-opacity: 0.9; stroke-width: 0.8"/>
     <use xlink:href="#m79d97539e1" x="165.469951" y="418.718246" style="fill-opacity: 0.9; stroke: #000000; stroke-opacity: 0.9; stroke-width: 0.8"/>
     <use xlink:href="#m79d97539e1" x="172.527141" y="366.668461" style="fill-opacity: 0.9; stroke: #000000; stroke-opacity: 0.9; stroke-width: 0.8"/>
     <use xlink:href="#m79d97539e1" x="162.554096" y="301.156709" style="fill-opacity: 0.9; stroke: #000000; stroke-opacity: 0.9; stroke-width: 0.8"/>
     <use xlink:href="#m79d97539e1" x="161.517847" y="387.961555" style="fill-opacity: 0.9; stroke: #000000; stroke-opacity: 0.9; stroke-width: 0.8"/>
     <use xlink:href="#m79d97539e1" x="166.143883" y="328.814072" style="fill-opacity: 0.9; stroke: #000000; stroke-opacity: 0.9; stroke-width: 0.8"/>
     <use xlink:href="#m79d97539e1" x="172.933833" y="327.986007" style="fill-opacity: 0.9; stroke: #000000; stroke-opacity: 0.9; stroke-width: 0.8"/>
     <use xlink:href="#m79d97539e1" x="175.57074" y="296.874431" style="fill-opacity: 0.9; stroke: #000000; stroke-opacity: 0.9; stroke-width: 0.8"/>
     <use xlink:href="#m79d97539e1" x="166.834722" y="293.710041" style="fill-opacity: 0.9; stroke: #000000; stroke-opacity: 0.9; stroke-width: 0.8"/>
     <use xlink:href="#m79d97539e1" x="160.381742" y="314.313475" style="fill-opacity: 0.9; stroke: #000000; stroke-opacity: 0.9; stroke-width: 0.8"/>
     <use xlink:href="#m79d97539e1" x="172.183372" y="318.847721" style="fill-opacity: 0.9; stroke: #000000; stroke-opacity: 0.9; stroke-width: 0.8"/>
     <use xlink:href="#m79d97539e1" x="169.657351" y="276.764287" style="fill-opacity: 0.9; stroke: #000000; stroke-opacity: 0.9; stroke-width: 0.8"/>
     <use xlink:href="#m79d97539e1" x="157.564703" y="47.502727" style="fill-opacity: 0.9; stroke: #000000; stroke-opacity: 0.9; stroke-width: 0.8"/>
     <use xlink:href="#m79d97539e1" x="166.779978" y="406.297275" style="fill-opacity: 0.9; stroke: #000000; stroke-opacity: 0.9; stroke-width: 0.8"/>
     <use xlink:href="#m79d97539e1" x="173.362167" y="334.137345" style="fill-opacity: 0.9; stroke: #000000; stroke-opacity: 0.9; stroke-width: 0.8"/>
     <use xlink:href="#m79d97539e1" x="159.256103" y="331.179971" style="fill-opacity: 0.9; stroke: #000000; stroke-opacity: 0.9; stroke-width: 0.8"/>
     <use xlink:href="#m79d97539e1" x="166.514601" y="328.814072" style="fill-opacity: 0.9; stroke: #000000; stroke-opacity: 0.9; stroke-width: 0.8"/>
    </g>
   </g>
   <g id="PathCollection_2">
    <g clip-path="url(#p6d3e023071)">
     <use xlink:href="#m79d97539e1" x="374.679777" y="418.806968" style="fill-opacity: 0.9; stroke: #000000; stroke-opacity: 0.9; stroke-width: 0.8"/>
     <use xlink:href="#m79d97539e1" x="379.190902" y="303.735539" style="fill-opacity: 0.9; stroke: #000000; stroke-opacity: 0.9; stroke-width: 0.8"/>
     <use xlink:href="#m79d97539e1" x="388.106396" y="387.281359" style="fill-opacity: 0.9; stroke: #000000; stroke-opacity: 0.9; stroke-width: 0.8"/>
     <use xlink:href="#m79d97539e1" x="381.568712" y="358.979288" style="fill-opacity: 0.9; stroke: #000000; stroke-opacity: 0.9; stroke-width: 0.8"/>
     <use xlink:href="#m79d97539e1" x="385.096494" y="270.855453" style="fill-opacity: 0.9; stroke: #000000; stroke-opacity: 0.9; stroke-width: 0.8"/>
     <use xlink:href="#m79d97539e1" x="378.503034" y="361.345188" style="fill-opacity: 0.9; stroke: #000000; stroke-opacity: 0.9; stroke-width: 0.8"/>
     <use xlink:href="#m79d97539e1" x="386.441747" y="338.211424" style="fill-opacity: 0.9; stroke: #000000; stroke-opacity: 0.9; stroke-width: 0.8"/>
     <use xlink:href="#m79d97539e1" x="380.702479" y="324.082273" style="fill-opacity: 0.9; stroke: #000000; stroke-opacity: 0.9; stroke-width: 0.8"/>
     <use xlink:href="#m79d97539e1" x="379.731177" y="294.644571" style="fill-opacity: 0.9; stroke: #000000; stroke-opacity: 0.9; stroke-width: 0.8"/>
     <use xlink:href="#m79d97539e1" x="381.694828" y="379.444318" style="fill-opacity: 0.9; stroke: #000000; stroke-opacity: 0.9; stroke-width: 0.8"/>
     <use xlink:href="#m79d97539e1" x="390.830716" y="386.020335" style="fill-opacity: 0.9; stroke: #000000; stroke-opacity: 0.9; stroke-width: 0.8"/>
     <use xlink:href="#m79d97539e1" x="390.767839" y="391.273814" style="fill-opacity: 0.9; stroke: #000000; stroke-opacity: 0.9; stroke-width: 0.8"/>
     <use xlink:href="#m79d97539e1" x="376.711083" y="421.084146" style="fill-opacity: 0.9; stroke: #000000; stroke-opacity: 0.9; stroke-width: 0.8"/>
     <use xlink:href="#m79d97539e1" x="380.119966" y="235.834228" style="fill-opacity: 0.9; stroke: #000000; stroke-opacity: 0.9; stroke-width: 0.8"/>
     <use xlink:href="#m79d97539e1" x="374.512959" y="406.88875" style="fill-opacity: 0.9; stroke: #000000; stroke-opacity: 0.9; stroke-width: 0.8"/>
     <use xlink:href="#m79d97539e1" x="383.021385" y="384.412706" style="fill-opacity: 0.9; stroke: #000000; stroke-opacity: 0.9; stroke-width: 0.8"/>
     <use xlink:href="#m79d97539e1" x="381.206684" y="363.711087" style="fill-opacity: 0.9; stroke: #000000; stroke-opacity: 0.9; stroke-width: 0.8"/>
     <use xlink:href="#m79d97539e1" x="385.962656" y="400.974001" style="fill-opacity: 0.9; stroke: #000000; stroke-opacity: 0.9; stroke-width: 0.8"/>
     <use xlink:href="#m79d97539e1" x="374.077412" y="430.547743" style="fill-opacity: 0.9; stroke: #000000; stroke-opacity: 0.9; stroke-width: 0.8"/>
     <use xlink:href="#m79d97539e1" x="382.388624" y="311.761853" style="fill-opacity: 0.9; stroke: #000000; stroke-opacity: 0.9; stroke-width: 0.8"/>
     <use xlink:href="#m79d97539e1" x="380.732203" y="366.668461" style="fill-opacity: 0.9; stroke: #000000; stroke-opacity: 0.9; stroke-width: 0.8"/>
     <use xlink:href="#m79d97539e1" x="379.643014" y="341.116748" style="fill-opacity: 0.9; stroke: #000000; stroke-opacity: 0.9; stroke-width: 0.8"/>
     <use xlink:href="#m79d97539e1" x="378.753835" y="371.40026" style="fill-opacity: 0.9; stroke: #000000; stroke-opacity: 0.9; stroke-width: 0.8"/>
     <use xlink:href="#m79d97539e1" x="392.119582" y="363.711087" style="fill-opacity: 0.9; stroke: #000000; stroke-opacity: 0.9; stroke-width: 0.8"/>
     <use xlink:href="#m79d97539e1" x="394.405839" y="380.863857" style="fill-opacity: 0.9; stroke: #000000; stroke-opacity: 0.9; stroke-width: 0.8"/>
     <use xlink:href="#m79d97539e1" x="390.946175" y="373.766159" style="fill-opacity: 0.9; stroke: #000000; stroke-opacity: 0.9; stroke-width: 0.8"/>
     <use xlink:href="#m79d97539e1" x="376.340342" y="317.57605" style="fill-opacity: 0.9; stroke: #000000; stroke-opacity: 0.9; stroke-width: 0.8"/>
     <use xlink:href="#m79d97539e1" x="379.929269" y="391.273814" style="fill-opacity: 0.9; stroke: #000000; stroke-opacity: 0.9; stroke-width: 0.8"/>
     <use xlink:href="#m79d97539e1" x="387.049805" y="447.109038" style="fill-opacity: 0.9; stroke: #000000; stroke-opacity: 0.9; stroke-width: 0.8"/>
     <use xlink:href="#m79d97539e1" x="392.641534" y="329.997022" style="fill-opacity: 0.9; stroke: #000000; stroke-opacity: 0.9; stroke-width: 0.8"/>
     <use xlink:href="#m79d97539e1" x="391.506488" y="369.034361" style="fill-opacity: 0.9; stroke: #000000; stroke-opacity: 0.9; stroke-width: 0.8"/>
     <use xlink:href="#m79d97539e1" x="395.182816" y="364.302562" style="fill-opacity: 0.9; stroke: #000000; stroke-opacity: 0.9; stroke-width: 0.8"/>
     <use xlink:href="#m79d97539e1" x="394.22174" y="382.638282" style="fill-opacity: 0.9; stroke: #000000; stroke-opacity: 0.9; stroke-width: 0.8"/>
     <use xlink:href="#m79d97539e1" x="384.501145" y="323.57952" style="fill-opacity: 0.9; stroke: #000000; stroke-opacity: 0.9; stroke-width: 0.8"/>
     <use xlink:href="#m79d97539e1" x="376.312791" y="405.7058" style="fill-opacity: 0.9; stroke: #000000; stroke-opacity: 0.9; stroke-width: 0.8"/>
     <use xlink:href="#m79d97539e1" x="388.226667" y="407.480225" style="fill-opacity: 0.9; stroke: #000000; stroke-opacity: 0.9; stroke-width: 0.8"/>
     <use xlink:href="#m79d97539e1" x="378.142727" y="454.197273" style="fill-opacity: 0.9; stroke: #000000; stroke-opacity: 0.9; stroke-width: 0.8"/>
     <use xlink:href="#m79d97539e1" x="387.445408" y="406.060685" style="fill-opacity: 0.9; stroke: #000000; stroke-opacity: 0.9; stroke-width: 0.8"/>
     <use xlink:href="#m79d97539e1" x="392.626455" y="384.176116" style="fill-opacity: 0.9; stroke: #000000; stroke-opacity: 0.9; stroke-width: 0.8"/>
     <use xlink:href="#m79d97539e1" x="375.303844" y="311.602154" style="fill-opacity: 0.9; stroke: #000000; stroke-opacity: 0.9; stroke-width: 0.8"/>
     <use xlink:href="#m79d97539e1" x="383.164628" y="365.485512" style="fill-opacity: 0.9; stroke: #000000; stroke-opacity: 0.9; stroke-width: 0.8"/>
     <use xlink:href="#m79d97539e1" x="386.717061" y="267.300689" style="fill-opacity: 0.9; stroke: #000000; stroke-opacity: 0.9; stroke-width: 0.8"/>
     <use xlink:href="#m79d97539e1" x="380.435413" y="339.460619" style="fill-opacity: 0.9; stroke: #000000; stroke-opacity: 0.9; stroke-width: 0.8"/>
     <use xlink:href="#m79d97539e1" x="394.344769" y="350.698641" style="fill-opacity: 0.9; stroke: #000000; stroke-opacity: 0.9; stroke-width: 0.8"/>
     <use xlink:href="#m79d97539e1" x="394.727972" y="398.608102" style="fill-opacity: 0.9; stroke: #000000; stroke-opacity: 0.9; stroke-width: 0.8"/>
     <use xlink:href="#m79d97539e1" x="390.09818" y="406.88875" style="fill-opacity: 0.9; stroke: #000000; stroke-opacity: 0.9; stroke-width: 0.8"/>
     <use xlink:href="#m79d97539e1" x="391.462863" y="406.88875" style="fill-opacity: 0.9; stroke: #000000; stroke-opacity: 0.9; stroke-width: 0.8"/>
     <use xlink:href="#m79d97539e1" x="395.320261" y="413.986448" style="fill-opacity: 0.9; stroke: #000000; stroke-opacity: 0.9; stroke-width: 0.8"/>
     <use xlink:href="#m79d97539e1" x="381.257469" y="358.93197" style="fill-opacity: 0.9; stroke: #000000; stroke-opacity: 0.9; stroke-width: 0.8"/>
     <use xlink:href="#m79d97539e1" x="377.447107" y="413.986448" style="fill-opacity: 0.9; stroke: #000000; stroke-opacity: 0.9; stroke-width: 0.8"/>
     <use xlink:href="#m79d97539e1" x="393.710449" y="387.961555" style="fill-opacity: 0.9; stroke: #000000; stroke-opacity: 0.9; stroke-width: 0.8"/>
     <use xlink:href="#m79d97539e1" x="379.067185" y="422.267095" style="fill-opacity: 0.9; stroke: #000000; stroke-opacity: 0.9; stroke-width: 0.8"/>
     <use xlink:href="#m79d97539e1" x="384.218683" y="374.357634" style="fill-opacity: 0.9; stroke: #000000; stroke-opacity: 0.9; stroke-width: 0.8"/>
     <use xlink:href="#m79d97539e1" x="374.370471" y="395.059253" style="fill-opacity: 0.9; stroke: #000000; stroke-opacity: 0.9; stroke-width: 0.8"/>
     <use xlink:href="#m79d97539e1" x="394.788114" y="369.034361" style="fill-opacity: 0.9; stroke: #000000; stroke-opacity: 0.9; stroke-width: 0.8"/>
     <use xlink:href="#m79d97539e1" x="389.146899" y="375.994836" style="fill-opacity: 0.9; stroke: #000000; stroke-opacity: 0.9; stroke-width: 0.8"/>
     <use xlink:href="#m79d97539e1" x="377.954374" y="379.089433" style="fill-opacity: 0.9; stroke: #000000; stroke-opacity: 0.9; stroke-width: 0.8"/>
     <use xlink:href="#m79d97539e1" x="378.193088" y="382.046807" style="fill-opacity: 0.9; stroke: #000000; stroke-opacity: 0.9; stroke-width: 0.8"/>
     <use xlink:href="#m79d97539e1" x="374.191174" y="431.139218" style="fill-opacity: 0.9; stroke: #000000; stroke-opacity: 0.9; stroke-width: 0.8"/>
     <use xlink:href="#m79d97539e1" x="375.615303" y="369.98072" style="fill-opacity: 0.9; stroke: #000000; stroke-opacity: 0.9; stroke-width: 0.8"/>
     <use xlink:href="#m79d97539e1" x="385.473181" y="406.88875" style="fill-opacity: 0.9; stroke: #000000; stroke-opacity: 0.9; stroke-width: 0.8"/>
     <use xlink:href="#m79d97539e1" x="376.491459" y="383.229757" style="fill-opacity: 0.9; stroke: #000000; stroke-opacity: 0.9; stroke-width: 0.8"/>
     <use xlink:href="#m79d97539e1" x="385.936306" y="406.88875" style="fill-opacity: 0.9; stroke: #000000; stroke-opacity: 0.9; stroke-width: 0.8"/>
     <use xlink:href="#m79d97539e1" x="380.841743" y="389.144505" style="fill-opacity: 0.9; stroke: #000000; stroke-opacity: 0.9; stroke-width: 0.8"/>
     <use xlink:href="#m79d97539e1" x="394.601664" y="421.675621" style="fill-opacity: 0.9; stroke: #000000; stroke-opacity: 0.9; stroke-width: 0.8"/>
     <use xlink:href="#m79d97539e1" x="379.116496" y="418.718246" style="fill-opacity: 0.9; stroke: #000000; stroke-opacity: 0.9; stroke-width: 0.8"/>
     <use xlink:href="#m79d97539e1" x="382.477854" y="418.718246" style="fill-opacity: 0.9; stroke: #000000; stroke-opacity: 0.9; stroke-width: 0.8"/>
     <use xlink:href="#m79d97539e1" x="378.322733" y="369.034361" style="fill-opacity: 0.9; stroke: #000000; stroke-opacity: 0.9; stroke-width: 0.8"/>
     <use xlink:href="#m79d97539e1" x="380.600757" y="351.094929" style="fill-opacity: 0.9; stroke: #000000; stroke-opacity: 0.9; stroke-width: 0.8"/>
     <use xlink:href="#m79d97539e1" x="377.614671" y="445.334614" style="fill-opacity: 0.9; stroke: #000000; stroke-opacity: 0.9; stroke-width: 0.8"/>
     <use xlink:href="#m79d97539e1" x="390.450615" y="402.156951" style="fill-opacity: 0.9; stroke: #000000; stroke-opacity: 0.9; stroke-width: 0.8"/>
     <use xlink:href="#m79d97539e1" x="383.50903" y="347.741267" style="fill-opacity: 0.9; stroke: #000000; stroke-opacity: 0.9; stroke-width: 0.8"/>
     <use xlink:href="#m79d97539e1" x="380.408611" y="402.18061" style="fill-opacity: 0.9; stroke: #000000; stroke-opacity: 0.9; stroke-width: 0.8"/>
     <use xlink:href="#m79d97539e1" x="384.589437" y="396.005613" style="fill-opacity: 0.9; stroke: #000000; stroke-opacity: 0.9; stroke-width: 0.8"/>
     <use xlink:href="#m79d97539e1" x="390.163798" y="376.132059" style="fill-opacity: 0.9; stroke: #000000; stroke-opacity: 0.9; stroke-width: 0.8"/>
     <use xlink:href="#m79d97539e1" x="386.925536" y="346.558317" style="fill-opacity: 0.9; stroke: #000000; stroke-opacity: 0.9; stroke-width: 0.8"/>
     <use xlink:href="#m79d97539e1" x="383.13327" y="257.837092" style="fill-opacity: 0.9; stroke: #000000; stroke-opacity: 0.9; stroke-width: 0.8"/>
     <use xlink:href="#m79d97539e1" x="391.199382" y="244.150365" style="fill-opacity: 0.9; stroke: #000000; stroke-opacity: 0.9; stroke-width: 0.8"/>
     <use xlink:href="#m79d97539e1" x="379.869362" y="435.634427" style="fill-opacity: 0.9; stroke: #000000; stroke-opacity: 0.9; stroke-width: 0.8"/>
     <use xlink:href="#m79d97539e1" x="377.048027" y="376.132059" style="fill-opacity: 0.9; stroke: #000000; stroke-opacity: 0.9; stroke-width: 0.8"/>
     <use xlink:href="#m79d97539e1" x="377.390754" y="379.680908" style="fill-opacity: 0.9; stroke: #000000; stroke-opacity: 0.9; stroke-width: 0.8"/>
     <use xlink:href="#m79d97539e1" x="383.394248" y="397.425152" style="fill-opacity: 0.9; stroke: #000000; stroke-opacity: 0.9; stroke-width: 0.8"/>
    </g>
   </g>
   <g id="line2d_11">
    <path d="M 151.168725 335.172426 
L 183.784275 335.172426 
" clip-path="url(#p6d3e023071)" style="fill: none; stroke: #000000"/>
   </g>
   <g id="line2d_12">
    <path d="M 368.605725 380.272382 
L 401.221275 380.272382 
" clip-path="url(#p6d3e023071)" style="fill: none; stroke: #000000"/>
   </g>
   <g id="patch_5">
    <path d="M 58.758 474.532 
L 58.758 27.168 
" style="fill: none; stroke: #262626; stroke-linejoin: miter; stroke-linecap: square"/>
   </g>
   <g id="patch_6">
    <path d="M 58.758 474.532 
L 493.632 474.532 
" style="fill: none; stroke: #262626; stroke-linejoin: miter; stroke-linecap: square"/>
   </g>
   <g id="text_12">
    <!-- LEDD Raincloud Plot -->
    <g style="fill: #262626" transform="translate(205.115469 21.168) scale(0.14 -0.14)">
     <defs>
      <path id="DejaVuSans-20" transform="scale(0.015625)"/>
      <path id="DejaVuSans-52" d="M 2841 2188 
Q 3044 2119 3236 1894 
Q 3428 1669 3622 1275 
L 4263 0 
L 3584 0 
L 2988 1197 
Q 2756 1666 2539 1819 
Q 2322 1972 1947 1972 
L 1259 1972 
L 1259 0 
L 628 0 
L 628 4666 
L 2053 4666 
Q 2853 4666 3247 4331 
Q 3641 3997 3641 3322 
Q 3641 2881 3436 2590 
Q 3231 2300 2841 2188 
z
M 1259 4147 
L 1259 2491 
L 2053 2491 
Q 2509 2491 2742 2702 
Q 2975 2913 2975 3322 
Q 2975 3731 2742 3939 
Q 2509 4147 2053 4147 
L 1259 4147 
z
" transform="scale(0.015625)"/>
      <path id="DejaVuSans-61" d="M 2194 1759 
Q 1497 1759 1228 1600 
Q 959 1441 959 1056 
Q 959 750 1161 570 
Q 1363 391 1709 391 
Q 2188 391 2477 730 
Q 2766 1069 2766 1631 
L 2766 1759 
L 2194 1759 
z
M 3341 1997 
L 3341 0 
L 2766 0 
L 2766 531 
Q 2569 213 2275 61 
Q 1981 -91 1556 -91 
Q 1019 -91 701 211 
Q 384 513 384 1019 
Q 384 1609 779 1909 
Q 1175 2209 1959 2209 
L 2766 2209 
L 2766 2266 
Q 2766 2663 2505 2880 
Q 2244 3097 1772 3097 
Q 1472 3097 1187 3025 
Q 903 2953 641 2809 
L 641 3341 
Q 956 3463 1253 3523 
Q 1550 3584 1831 3584 
Q 2591 3584 2966 3190 
Q 3341 2797 3341 1997 
z
" transform="scale(0.015625)"/>
      <path id="DejaVuSans-69" d="M 603 3500 
L 1178 3500 
L 1178 0 
L 603 0 
L 603 3500 
z
M 603 4863 
L 1178 4863 
L 1178 4134 
L 603 4134 
L 603 4863 
z
" transform="scale(0.015625)"/>
      <path id="DejaVuSans-6e" d="M 3513 2113 
L 3513 0 
L 2938 0 
L 2938 2094 
Q 2938 2591 2744 2837 
Q 2550 3084 2163 3084 
Q 1697 3084 1428 2787 
Q 1159 2491 1159 1978 
L 1159 0 
L 581 0 
L 581 3500 
L 1159 3500 
L 1159 2956 
Q 1366 3272 1645 3428 
Q 1925 3584 2291 3584 
Q 2894 3584 3203 3211 
Q 3513 2838 3513 2113 
z
" transform="scale(0.015625)"/>
      <path id="DejaVuSans-63" d="M 3122 3366 
L 3122 2828 
Q 2878 2963 2633 3030 
Q 2388 3097 2138 3097 
Q 1578 3097 1268 2742 
Q 959 2388 959 1747 
Q 959 1106 1268 751 
Q 1578 397 2138 397 
Q 2388 397 2633 464 
Q 2878 531 3122 666 
L 3122 134 
Q 2881 22 2623 -34 
Q 2366 -91 2075 -91 
Q 1284 -91 818 406 
Q 353 903 353 1747 
Q 353 2603 823 3093 
Q 1294 3584 2113 3584 
Q 2378 3584 2631 3529 
Q 2884 3475 3122 3366 
z
" transform="scale(0.015625)"/>
      <path id="DejaVuSans-6c" d="M 603 4863 
L 1178 4863 
L 1178 0 
L 603 0 
L 603 4863 
z
" transform="scale(0.015625)"/>
      <path id="DejaVuSans-75" d="M 544 1381 
L 544 3500 
L 1119 3500 
L 1119 1403 
Q 1119 906 1312 657 
Q 1506 409 1894 409 
Q 2359 409 2629 706 
Q 2900 1003 2900 1516 
L 2900 3500 
L 3475 3500 
L 3475 0 
L 2900 0 
L 2900 538 
Q 2691 219 2414 64 
Q 2138 -91 1772 -91 
Q 1169 -91 856 284 
Q 544 659 544 1381 
z
M 1991 3584 
L 1991 3584 
z
" transform="scale(0.015625)"/>
      <path id="DejaVuSans-64" d="M 2906 2969 
L 2906 4863 
L 3481 4863 
L 3481 0 
L 2906 0 
L 2906 525 
Q 2725 213 2448 61 
Q 2172 -91 1784 -91 
Q 1150 -91 751 415 
Q 353 922 353 1747 
Q 353 2572 751 3078 
Q 1150 3584 1784 3584 
Q 2172 3584 2448 3432 
Q 2725 3281 2906 2969 
z
M 947 1747 
Q 947 1113 1208 752 
Q 1469 391 1925 391 
Q 2381 391 2643 752 
Q 2906 1113 2906 1747 
Q 2906 2381 2643 2742 
Q 2381 3103 1925 3103 
Q 1469 3103 1208 2742 
Q 947 2381 947 1747 
z
" transform="scale(0.015625)"/>
     </defs>
     <use xlink:href="#DejaVuSans-4c"/>
     <use xlink:href="#DejaVuSans-45" transform="translate(55.712891 0)"/>
     <use xlink:href="#DejaVuSans-44" transform="translate(118.896484 0)"/>
     <use xlink:href="#DejaVuSans-44" transform="translate(195.898438 0)"/>
     <use xlink:href="#DejaVuSans-20" transform="translate(272.900391 0)"/>
     <use xlink:href="#DejaVuSans-52" transform="translate(304.6875 0)"/>
     <use xlink:href="#DejaVuSans-61" transform="translate(371.919922 0)"/>
     <use xlink:href="#DejaVuSans-69" transform="translate(433.199219 0)"/>
     <use xlink:href="#DejaVuSans-6e" transform="translate(460.982422 0)"/>
     <use xlink:href="#DejaVuSans-63" transform="translate(524.361328 0)"/>
     <use xlink:href="#DejaVuSans-6c" transform="translate(579.341797 0)"/>
     <use xlink:href="#DejaVuSans-6f" transform="translate(607.125 0)"/>
     <use xlink:href="#DejaVuSans-75" transform="translate(668.306641 0)"/>
     <use xlink:href="#DejaVuSans-64" transform="translate(731.685547 0)"/>
     <use xlink:href="#DejaVuSans-20" transform="translate(795.162109 0)"/>
     <use xlink:href="#DejaVuSans-50" transform="translate(826.949219 0)"/>
     <use xlink:href="#DejaVuSans-6c" transform="translate(887.251953 0)"/>
     <use xlink:href="#DejaVuSans-6f" transform="translate(915.035156 0)"/>
     <use xlink:href="#DejaVuSans-74" transform="translate(976.216797 0)"/>
    </g>
   </g>
  </g>
 </g>
 <defs>
  <clipPath id="p6d3e023071">
   <rect x="58.758" y="27.168" width="434.874" height="447.364"/>
  </clipPath>
 </defs>
</svg>
