<?xml version="1.0" encoding="utf-8" standalone="no"?>
<!DOCTYPE svg PUBLIC "-//W3C//DTD SVG 1.1//EN"
  "http://www.w3.org/Graphics/SVG/1.1/DTD/svg11.dtd">
<svg xmlns:xlink="http://www.w3.org/1999/xlink" width="504pt" height="504pt" viewBox="0 0 504 504" xmlns="http://www.w3.org/2000/svg" version="1.1">
 <metadata>
  <rdf:RDF xmlns:dc="http://purl.org/dc/elements/1.1/" xmlns:cc="http://creativecommons.org/ns#" xmlns:rdf="http://www.w3.org/1999/02/22-rdf-syntax-ns#">
   <cc:Work>
    <dc:type rdf:resource="http://purl.org/dc/dcmitype/StillImage"/>
    <dc:date>2025-07-06T11:18:50.314496</dc:date>
    <dc:format>image/svg+xml</dc:format>
    <dc:creator>
     <cc:Agent>
      <dc:title>Matplotlib v3.10.0, https://matplotlib.org/</dc:title>
     </cc:Agent>
    </dc:creator>
   </cc:Work>
  </rdf:RDF>
 </metadata>
 <defs>
  <style type="text/css">*{stroke-linejoin: round; stroke-linecap: butt}</style>
 </defs>
 <g id="figure_1">
  <g id="patch_1">
   <path d="M 0 504 
L 504 504 
L 504 0 
L 0 0 
z
" style="fill: #ffffff"/>
  </g>
  <g id="axes_1">
   <g id="patch_2">
    <path d="M 55.428 474.892 
L 493.632 474.892 
L 493.632 26.448 
L 55.428 26.448 
z
" style="fill: #ffffff"/>
   </g>
   <g id="matplotlib.axis_1">
    <g id="xtick_1">
     <g id="text_1">
      <!-- Pre -->
      <g style="fill: #262626" transform="translate(156.420484 491.065594) scale(0.11 -0.11)">
       <defs>
        <path id="ArialMT-50" d="M 494 0 
L 494 4581 
L 2222 4581 
Q 2678 4581 2919 4538 
Q 3256 4481 3484 4323 
Q 3713 4166 3852 3881 
Q 3991 3597 3991 3256 
Q 3991 2672 3619 2267 
Q 3247 1863 2275 1863 
L 1100 1863 
L 1100 0 
L 494 0 
z
M 1100 2403 
L 2284 2403 
Q 2872 2403 3119 2622 
Q 3366 2841 3366 3238 
Q 3366 3525 3220 3729 
Q 3075 3934 2838 4000 
Q 2684 4041 2272 4041 
L 1100 4041 
L 1100 2403 
z
" transform="scale(0.015625)"/>
        <path id="ArialMT-72" d="M 416 0 
L 416 3319 
L 922 3319 
L 922 2816 
Q 1116 3169 1280 3281 
Q 1444 3394 1641 3394 
Q 1925 3394 2219 3213 
L 2025 2691 
Q 1819 2813 1613 2813 
Q 1428 2813 1281 2702 
Q 1134 2591 1072 2394 
Q 978 2094 978 1738 
L 978 0 
L 416 0 
z
" transform="scale(0.015625)"/>
        <path id="ArialMT-65" d="M 2694 1069 
L 3275 997 
Q 3138 488 2766 206 
Q 2394 -75 1816 -75 
Q 1088 -75 661 373 
Q 234 822 234 1631 
Q 234 2469 665 2931 
Q 1097 3394 1784 3394 
Q 2450 3394 2872 2941 
Q 3294 2488 3294 1666 
Q 3294 1616 3291 1516 
L 816 1516 
Q 847 969 1125 678 
Q 1403 388 1819 388 
Q 2128 388 2347 550 
Q 2566 713 2694 1069 
z
M 847 1978 
L 2700 1978 
Q 2663 2397 2488 2606 
Q 2219 2931 1791 2931 
Q 1403 2931 1139 2672 
Q 875 2413 847 1978 
z
" transform="scale(0.015625)"/>
       </defs>
       <use xlink:href="#ArialMT-50"/>
       <use xlink:href="#ArialMT-72" transform="translate(66.699219 0)"/>
       <use xlink:href="#ArialMT-65" transform="translate(100 0)"/>
      </g>
     </g>
    </g>
    <g id="xtick_2">
     <g id="text_2">
      <!-- Post -->
      <g style="fill: #262626" transform="translate(373.075844 491.065594) scale(0.11 -0.11)">
       <defs>
        <path id="ArialMT-6f" d="M 213 1659 
Q 213 2581 725 3025 
Q 1153 3394 1769 3394 
Q 2453 3394 2887 2945 
Q 3322 2497 3322 1706 
Q 3322 1066 3130 698 
Q 2938 331 2570 128 
Q 2203 -75 1769 -75 
Q 1072 -75 642 372 
Q 213 819 213 1659 
z
M 791 1659 
Q 791 1022 1069 705 
Q 1347 388 1769 388 
Q 2188 388 2466 706 
Q 2744 1025 2744 1678 
Q 2744 2294 2464 2611 
Q 2184 2928 1769 2928 
Q 1347 2928 1069 2612 
Q 791 2297 791 1659 
z
" transform="scale(0.015625)"/>
        <path id="ArialMT-73" d="M 197 991 
L 753 1078 
Q 800 744 1014 566 
Q 1228 388 1613 388 
Q 2000 388 2187 545 
Q 2375 703 2375 916 
Q 2375 1106 2209 1216 
Q 2094 1291 1634 1406 
Q 1016 1563 777 1677 
Q 538 1791 414 1992 
Q 291 2194 291 2438 
Q 291 2659 392 2848 
Q 494 3038 669 3163 
Q 800 3259 1026 3326 
Q 1253 3394 1513 3394 
Q 1903 3394 2198 3281 
Q 2494 3169 2634 2976 
Q 2775 2784 2828 2463 
L 2278 2388 
Q 2241 2644 2061 2787 
Q 1881 2931 1553 2931 
Q 1166 2931 1000 2803 
Q 834 2675 834 2503 
Q 834 2394 903 2306 
Q 972 2216 1119 2156 
Q 1203 2125 1616 2013 
Q 2213 1853 2448 1751 
Q 2684 1650 2818 1456 
Q 2953 1263 2953 975 
Q 2953 694 2789 445 
Q 2625 197 2315 61 
Q 2006 -75 1616 -75 
Q 969 -75 630 194 
Q 291 463 197 991 
z
" transform="scale(0.015625)"/>
        <path id="ArialMT-74" d="M 1650 503 
L 1731 6 
Q 1494 -44 1306 -44 
Q 1000 -44 831 53 
Q 663 150 594 308 
Q 525 466 525 972 
L 525 2881 
L 113 2881 
L 113 3319 
L 525 3319 
L 525 4141 
L 1084 4478 
L 1084 3319 
L 1650 3319 
L 1650 2881 
L 1084 2881 
L 1084 941 
Q 1084 700 1114 631 
Q 1144 563 1211 522 
Q 1278 481 1403 481 
Q 1497 481 1650 503 
z
" transform="scale(0.015625)"/>
       </defs>
       <use xlink:href="#ArialMT-50"/>
       <use xlink:href="#ArialMT-6f" transform="translate(66.699219 0)"/>
       <use xlink:href="#ArialMT-73" transform="translate(122.314453 0)"/>
       <use xlink:href="#ArialMT-74" transform="translate(172.314453 0)"/>
      </g>
     </g>
    </g>
   </g>
   <g id="matplotlib.axis_2">
    <g id="ytick_1">
     <g id="text_3">
      <!-- 0 -->
      <g style="fill: #262626" transform="translate(41.567062 458.096575) scale(0.1 -0.1)">
       <defs>
        <path id="ArialMT-30" d="M 266 2259 
Q 266 3072 433 3567 
Q 600 4063 929 4331 
Q 1259 4600 1759 4600 
Q 2128 4600 2406 4451 
Q 2684 4303 2865 4023 
Q 3047 3744 3150 3342 
Q 3253 2941 3253 2259 
Q 3253 1453 3087 958 
Q 2922 463 2592 192 
Q 2263 -78 1759 -78 
Q 1097 -78 719 397 
Q 266 969 266 2259 
z
M 844 2259 
Q 844 1131 1108 757 
Q 1372 384 1759 384 
Q 2147 384 2411 759 
Q 2675 1134 2675 2259 
Q 2675 3391 2411 3762 
Q 2147 4134 1753 4134 
Q 1366 4134 1134 3806 
Q 844 3388 844 2259 
z
" transform="scale(0.015625)"/>
       </defs>
       <use xlink:href="#ArialMT-30"/>
      </g>
     </g>
    </g>
    <g id="ytick_2">
     <g id="text_4">
      <!-- 500 -->
      <g style="fill: #262626" transform="translate(30.445187 398.806301) scale(0.1 -0.1)">
       <defs>
        <path id="ArialMT-35" d="M 266 1200 
L 856 1250 
Q 922 819 1161 601 
Q 1400 384 1738 384 
Q 2144 384 2425 690 
Q 2706 997 2706 1503 
Q 2706 1984 2436 2262 
Q 2166 2541 1728 2541 
Q 1456 2541 1237 2417 
Q 1019 2294 894 2097 
L 366 2166 
L 809 4519 
L 3088 4519 
L 3088 3981 
L 1259 3981 
L 1013 2750 
Q 1425 3038 1878 3038 
Q 2478 3038 2890 2622 
Q 3303 2206 3303 1553 
Q 3303 931 2941 478 
Q 2500 -78 1738 -78 
Q 1113 -78 717 272 
Q 322 622 266 1200 
z
" transform="scale(0.015625)"/>
       </defs>
       <use xlink:href="#ArialMT-35"/>
       <use xlink:href="#ArialMT-30" transform="translate(55.615234 0)"/>
       <use xlink:href="#ArialMT-30" transform="translate(111.230469 0)"/>
      </g>
     </g>
    </g>
    <g id="ytick_3">
     <g id="text_5">
      <!-- 1000 -->
      <g style="fill: #262626" transform="translate(24.88425 339.516027) scale(0.1 -0.1)">
       <defs>
        <path id="ArialMT-31" d="M 2384 0 
L 1822 0 
L 1822 3584 
Q 1619 3391 1289 3197 
Q 959 3003 697 2906 
L 697 3450 
Q 1169 3672 1522 3987 
Q 1875 4303 2022 4600 
L 2384 4600 
L 2384 0 
z
" transform="scale(0.015625)"/>
       </defs>
       <use xlink:href="#ArialMT-31"/>
       <use xlink:href="#ArialMT-30" transform="translate(55.615234 0)"/>
       <use xlink:href="#ArialMT-30" transform="translate(111.230469 0)"/>
       <use xlink:href="#ArialMT-30" transform="translate(166.845703 0)"/>
      </g>
     </g>
    </g>
    <g id="ytick_4">
     <g id="text_6">
      <!-- 1500 -->
      <g style="fill: #262626" transform="translate(24.88425 280.225754) scale(0.1 -0.1)">
       <use xlink:href="#ArialMT-31"/>
       <use xlink:href="#ArialMT-35" transform="translate(55.615234 0)"/>
       <use xlink:href="#ArialMT-30" transform="translate(111.230469 0)"/>
       <use xlink:href="#ArialMT-30" transform="translate(166.845703 0)"/>
      </g>
     </g>
    </g>
    <g id="ytick_5">
     <g id="text_7">
      <!-- 2000 -->
      <g style="fill: #262626" transform="translate(24.88425 220.93548) scale(0.1 -0.1)">
       <defs>
        <path id="ArialMT-32" d="M 3222 541 
L 3222 0 
L 194 0 
Q 188 203 259 391 
Q 375 700 629 1000 
Q 884 1300 1366 1694 
Q 2113 2306 2375 2664 
Q 2638 3022 2638 3341 
Q 2638 3675 2398 3904 
Q 2159 4134 1775 4134 
Q 1369 4134 1125 3890 
Q 881 3647 878 3216 
L 300 3275 
Q 359 3922 746 4261 
Q 1134 4600 1788 4600 
Q 2447 4600 2831 4234 
Q 3216 3869 3216 3328 
Q 3216 3053 3103 2787 
Q 2991 2522 2730 2228 
Q 2469 1934 1863 1422 
Q 1356 997 1212 845 
Q 1069 694 975 541 
L 3222 541 
z
" transform="scale(0.015625)"/>
       </defs>
       <use xlink:href="#ArialMT-32"/>
       <use xlink:href="#ArialMT-30" transform="translate(55.615234 0)"/>
       <use xlink:href="#ArialMT-30" transform="translate(111.230469 0)"/>
       <use xlink:href="#ArialMT-30" transform="translate(166.845703 0)"/>
      </g>
     </g>
    </g>
    <g id="ytick_6">
     <g id="text_8">
      <!-- 2500 -->
      <g style="fill: #262626" transform="translate(24.88425 161.645207) scale(0.1 -0.1)">
       <use xlink:href="#ArialMT-32"/>
       <use xlink:href="#ArialMT-35" transform="translate(55.615234 0)"/>
       <use xlink:href="#ArialMT-30" transform="translate(111.230469 0)"/>
       <use xlink:href="#ArialMT-30" transform="translate(166.845703 0)"/>
      </g>
     </g>
    </g>
    <g id="ytick_7">
     <g id="text_9">
      <!-- 3000 -->
      <g style="fill: #262626" transform="translate(24.88425 102.354933) scale(0.1 -0.1)">
       <defs>
        <path id="ArialMT-33" d="M 269 1209 
L 831 1284 
Q 928 806 1161 595 
Q 1394 384 1728 384 
Q 2125 384 2398 659 
Q 2672 934 2672 1341 
Q 2672 1728 2419 1979 
Q 2166 2231 1775 2231 
Q 1616 2231 1378 2169 
L 1441 2663 
Q 1497 2656 1531 2656 
Q 1891 2656 2178 2843 
Q 2466 3031 2466 3422 
Q 2466 3731 2256 3934 
Q 2047 4138 1716 4138 
Q 1388 4138 1169 3931 
Q 950 3725 888 3313 
L 325 3413 
Q 428 3978 793 4289 
Q 1159 4600 1703 4600 
Q 2078 4600 2393 4439 
Q 2709 4278 2876 4000 
Q 3044 3722 3044 3409 
Q 3044 3113 2884 2869 
Q 2725 2625 2413 2481 
Q 2819 2388 3044 2092 
Q 3269 1797 3269 1353 
Q 3269 753 2831 336 
Q 2394 -81 1725 -81 
Q 1122 -81 723 278 
Q 325 638 269 1209 
z
" transform="scale(0.015625)"/>
       </defs>
       <use xlink:href="#ArialMT-33"/>
       <use xlink:href="#ArialMT-30" transform="translate(55.615234 0)"/>
       <use xlink:href="#ArialMT-30" transform="translate(111.230469 0)"/>
       <use xlink:href="#ArialMT-30" transform="translate(166.845703 0)"/>
      </g>
     </g>
    </g>
    <g id="ytick_8">
     <g id="text_10">
      <!-- 3500 -->
      <g style="fill: #262626" transform="translate(24.88425 43.06466) scale(0.1 -0.1)">
       <use xlink:href="#ArialMT-33"/>
       <use xlink:href="#ArialMT-35" transform="translate(55.615234 0)"/>
       <use xlink:href="#ArialMT-30" transform="translate(111.230469 0)"/>
       <use xlink:href="#ArialMT-30" transform="translate(166.845703 0)"/>
      </g>
     </g>
    </g>
    <g id="text_11">
     <!-- LEDD -->
     <g style="fill: #262626" transform="translate(18.698 265.34125) rotate(-90) scale(0.11 -0.11)">
      <defs>
       <path id="ArialMT-4c" d="M 469 0 
L 469 4581 
L 1075 4581 
L 1075 541 
L 3331 541 
L 3331 0 
L 469 0 
z
" transform="scale(0.015625)"/>
       <path id="ArialMT-45" d="M 506 0 
L 506 4581 
L 3819 4581 
L 3819 4041 
L 1113 4041 
L 1113 2638 
L 3647 2638 
L 3647 2100 
L 1113 2100 
L 1113 541 
L 3925 541 
L 3925 0 
L 506 0 
z
" transform="scale(0.015625)"/>
       <path id="ArialMT-44" d="M 494 0 
L 494 4581 
L 2072 4581 
Q 2606 4581 2888 4516 
Q 3281 4425 3559 4188 
Q 3922 3881 4101 3404 
Q 4281 2928 4281 2316 
Q 4281 1794 4159 1391 
Q 4038 988 3847 723 
Q 3656 459 3429 307 
Q 3203 156 2883 78 
Q 2563 0 2147 0 
L 494 0 
z
M 1100 541 
L 2078 541 
Q 2531 541 2789 625 
Q 3047 709 3200 863 
Q 3416 1078 3536 1442 
Q 3656 1806 3656 2325 
Q 3656 3044 3420 3430 
Q 3184 3816 2847 3947 
Q 2603 4041 2063 4041 
L 1100 4041 
L 1100 541 
z
" transform="scale(0.015625)"/>
      </defs>
      <use xlink:href="#ArialMT-4c"/>
      <use xlink:href="#ArialMT-45" transform="translate(55.615234 0)"/>
      <use xlink:href="#ArialMT-44" transform="translate(122.314453 0)"/>
      <use xlink:href="#ArialMT-44" transform="translate(194.53125 0)"/>
     </g>
    </g>
   </g>
   <g id="FillBetweenPolyCollection_1">
    <defs>
     <path id="m9ee59a6332" d="M 148.57804 -49.491818 
L 145.950571 -49.491818 
L 145.376041 -53.609761 
L 144.651157 -57.727704 
L 143.737965 -61.845647 
L 142.600198 -65.96359 
L 141.207943 -70.081534 
L 139.542008 -74.199477 
L 137.597173 -78.31742 
L 135.383607 -82.435363 
L 132.926136 -86.553306 
L 130.261431 -90.671249 
L 127.433719 -94.789192 
L 124.489961 -98.907135 
L 121.475597 -103.025078 
L 118.431876 -107.143021 
L 115.395326 -111.260964 
L 112.399353 -115.378907 
L 109.477298 -119.49685 
L 106.665836 -123.614793 
L 104.007426 -127.732736 
L 101.550836 -131.85068 
L 99.349263 -135.968623 
L 97.456337 -140.086566 
L 95.92086 -144.204509 
L 94.781462 -148.322452 
L 94.062336 -152.440395 
L 93.77085 -156.558338 
L 93.897317 -160.676281 
L 94.41671 -164.794224 
L 95.291708 -168.912167 
L 96.47633 -173.03011 
L 97.919438 -177.148053 
L 99.567642 -181.265996 
L 101.367386 -185.383939 
L 103.266347 -189.501882 
L 105.214483 -193.619826 
L 107.165198 -197.737769 
L 109.077019 -201.855712 
L 110.91594 -205.973655 
L 112.658233 -210.091598 
L 114.29313 -214.209541 
L 115.824552 -218.327484 
L 117.271046 -222.445427 
L 118.663411 -226.56337 
L 120.040036 -230.681313 
L 121.440611 -234.799256 
L 122.899337 -238.917199 
L 124.439012 -243.035142 
L 126.067161 -247.153085 
L 127.774929 -251.271028 
L 129.538818 -255.388972 
L 131.324751 -259.506915 
L 133.093487 -263.624858 
L 134.8063 -267.742801 
L 136.429863 -271.860744 
L 137.939614 -275.978687 
L 139.321231 -280.09663 
L 140.570272 -284.214573 
L 141.690341 -288.332516 
L 142.690396 -292.450459 
L 143.581846 -296.568402 
L 144.376037 -300.686345 
L 145.082552 -304.804288 
L 145.708462 -308.922231 
L 146.258484 -313.040174 
L 146.73575 -317.158118 
L 147.142864 -321.276061 
L 147.482886 -325.394004 
L 147.760009 -329.511947 
L 147.979823 -333.62989 
L 148.149158 -337.747833 
L 148.275653 -341.865776 
L 148.367174 -345.983719 
L 148.431249 -350.101662 
L 148.474627 -354.219605 
L 148.502997 -358.337548 
L 148.52089 -362.455491 
L 148.531715 -366.573434 
L 148.537882 -370.691377 
L 148.54096 -374.80932 
L 148.541825 -378.927264 
L 148.540768 -383.045207 
L 148.537556 -387.16315 
L 148.531438 -391.281093 
L 148.521128 -395.399036 
L 148.504783 -399.516979 
L 148.480025 -403.634922 
L 148.444067 -407.752865 
L 148.393964 -411.870808 
L 148.327046 -415.988751 
L 148.241494 -420.106694 
L 148.137007 -424.224637 
L 148.01544 -428.34258 
L 147.881234 -432.460523 
L 147.741498 -436.578466 
L 147.605595 -440.69641 
L 147.484217 -444.814353 
L 147.388043 -448.932296 
L 147.326207 -453.050239 
L 147.304871 -457.168182 
L 148.57804 -457.168182 
L 148.57804 -457.168182 
L 148.57804 -453.050239 
L 148.57804 -448.932296 
L 148.57804 -444.814353 
L 148.57804 -440.69641 
L 148.57804 -436.578466 
L 148.57804 -432.460523 
L 148.57804 -428.34258 
L 148.57804 -424.224637 
L 148.57804 -420.106694 
L 148.57804 -415.988751 
L 148.57804 -411.870808 
L 148.57804 -407.752865 
L 148.57804 -403.634922 
L 148.57804 -399.516979 
L 148.571572 -395.399036 
L 148.561262 -391.281093 
L 148.555144 -387.16315 
L 148.551932 -383.045207 
L 148.550875 -378.927264 
L 148.55174 -374.80932 
L 148.554818 -370.691377 
L 148.560985 -366.573434 
L 148.57181 -362.455491 
L 148.57804 -358.337548 
L 148.57804 -354.219605 
L 148.57804 -350.101662 
L 148.57804 -345.983719 
L 148.57804 -341.865776 
L 148.57804 -337.747833 
L 148.57804 -333.62989 
L 148.57804 -329.511947 
L 148.57804 -325.394004 
L 148.57804 -321.276061 
L 148.57804 -317.158118 
L 148.57804 -313.040174 
L 148.57804 -308.922231 
L 148.57804 -304.804288 
L 148.57804 -300.686345 
L 148.57804 -296.568402 
L 148.57804 -292.450459 
L 148.57804 -288.332516 
L 148.57804 -284.214573 
L 148.57804 -280.09663 
L 148.57804 -275.978687 
L 148.57804 -271.860744 
L 148.57804 -267.742801 
L 148.57804 -263.624858 
L 148.57804 -259.506915 
L 148.57804 -255.388972 
L 148.57804 -251.271028 
L 148.57804 -247.153085 
L 148.57804 -243.035142 
L 148.57804 -238.917199 
L 148.57804 -234.799256 
L 148.57804 -230.681313 
L 148.57804 -226.56337 
L 148.57804 -222.445427 
L 148.57804 -218.327484 
L 148.57804 -214.209541 
L 148.57804 -210.091598 
L 148.57804 -205.973655 
L 148.57804 -201.855712 
L 148.57804 -197.737769 
L 148.57804 -193.619826 
L 148.57804 -189.501882 
L 148.57804 -185.383939 
L 148.57804 -181.265996 
L 148.57804 -177.148053 
L 148.57804 -173.03011 
L 148.57804 -168.912167 
L 148.57804 -164.794224 
L 148.57804 -160.676281 
L 148.57804 -156.558338 
L 148.57804 -152.440395 
L 148.57804 -148.322452 
L 148.57804 -144.204509 
L 148.57804 -140.086566 
L 148.57804 -135.968623 
L 148.57804 -131.85068 
L 148.57804 -127.732736 
L 148.57804 -123.614793 
L 148.57804 -119.49685 
L 148.57804 -115.378907 
L 148.57804 -111.260964 
L 148.57804 -107.143021 
L 148.57804 -103.025078 
L 148.57804 -98.907135 
L 148.57804 -94.789192 
L 148.57804 -90.671249 
L 148.57804 -86.553306 
L 148.57804 -82.435363 
L 148.57804 -78.31742 
L 148.57804 -74.199477 
L 148.57804 -70.081534 
L 148.57804 -65.96359 
L 148.57804 -61.845647 
L 148.57804 -57.727704 
L 148.57804 -53.609761 
L 148.57804 -49.491818 
z
"/>
    </defs>
    <g clip-path="url(#p3ded3332db)">
     <use xlink:href="#m9ee59a6332" x="0" y="504" style="fill: #5875a4"/>
    </g>
   </g>
   <g id="FillBetweenPolyCollection_2">
    <defs>
     <path id="m109785ad4e" d="M 409.228579 -49.491818 
L 400.615463 -49.491818 
L 400.615463 -51.70283 
L 400.615463 -53.913842 
L 400.615463 -56.124855 
L 400.615463 -58.335867 
L 400.615463 -60.546879 
L 400.615463 -62.757891 
L 400.615463 -64.968903 
L 400.615463 -67.179915 
L 400.615463 -69.390928 
L 400.615463 -71.60194 
L 400.615463 -73.812952 
L 400.615463 -76.023964 
L 400.615463 -78.234976 
L 400.615463 -80.445988 
L 400.615463 -82.657001 
L 400.615463 -84.868013 
L 400.615463 -87.079025 
L 400.615463 -89.290037 
L 400.615463 -91.501049 
L 400.615463 -93.712061 
L 400.615463 -95.923073 
L 400.615463 -98.134086 
L 400.615463 -100.345098 
L 400.615463 -102.55611 
L 400.615463 -104.767122 
L 400.615463 -106.978134 
L 400.615463 -109.189146 
L 400.615463 -111.400159 
L 400.615463 -113.611171 
L 400.615463 -115.822183 
L 400.615463 -118.033195 
L 400.615463 -120.244207 
L 400.615463 -122.455219 
L 400.615463 -124.666232 
L 400.615463 -126.877244 
L 400.615463 -129.088256 
L 400.615463 -131.299268 
L 400.615463 -133.51028 
L 400.615463 -135.721292 
L 400.615463 -137.932304 
L 400.615463 -140.143317 
L 400.615463 -142.354329 
L 400.615463 -144.565341 
L 400.615463 -146.776353 
L 400.615463 -148.987365 
L 400.615463 -151.198377 
L 400.615463 -153.40939 
L 400.615463 -155.620402 
L 400.615463 -157.831414 
L 400.615463 -160.042426 
L 400.615463 -162.253438 
L 400.615463 -164.46445 
L 400.615463 -166.675463 
L 400.615463 -168.886475 
L 400.615463 -171.097487 
L 400.615463 -173.308499 
L 400.615463 -175.519511 
L 400.615463 -177.730523 
L 400.615463 -179.941535 
L 400.615463 -182.152548 
L 400.615463 -184.36356 
L 400.615463 -186.574572 
L 400.615463 -188.785584 
L 400.615463 -190.996596 
L 400.615463 -193.207608 
L 400.615463 -195.418621 
L 400.615463 -197.629633 
L 400.615463 -199.840645 
L 400.615463 -202.051657 
L 400.615463 -204.262669 
L 400.615463 -206.473681 
L 400.615463 -208.684694 
L 400.615463 -210.895706 
L 400.615463 -213.106718 
L 400.615463 -215.31773 
L 400.615463 -217.528742 
L 400.615463 -219.739754 
L 400.615463 -221.950766 
L 400.615463 -224.161779 
L 400.615463 -226.372791 
L 400.615463 -228.583803 
L 400.615463 -230.794815 
L 400.615463 -233.005827 
L 400.615463 -235.216839 
L 400.615463 -237.427852 
L 400.615463 -239.638864 
L 400.615463 -241.849876 
L 400.615463 -244.060888 
L 400.615463 -246.2719 
L 400.615463 -248.482912 
L 400.615463 -250.693924 
L 400.615463 -252.904937 
L 400.615463 -255.115949 
L 400.615463 -257.326961 
L 400.615463 -259.537973 
L 400.615463 -261.748985 
L 400.615463 -263.959997 
L 400.615463 -266.17101 
L 400.615463 -268.382022 
L 403.751808 -268.382022 
L 403.751808 -268.382022 
L 404.000624 -266.17101 
L 404.234801 -263.959997 
L 404.451275 -261.748985 
L 404.647474 -259.537973 
L 404.821265 -257.326961 
L 404.970892 -255.115949 
L 405.094931 -252.904937 
L 405.192287 -250.693924 
L 405.262262 -248.482912 
L 405.304695 -246.2719 
L 405.320167 -244.060888 
L 405.310263 -241.849876 
L 405.277845 -239.638864 
L 405.227294 -237.427852 
L 405.164697 -235.216839 
L 405.09792 -233.005827 
L 405.036563 -230.794815 
L 404.99176 -228.583803 
L 404.975854 -226.372791 
L 405.001936 -224.161779 
L 405.083285 -221.950766 
L 405.232745 -219.739754 
L 405.462066 -217.528742 
L 405.78125 -215.31773 
L 406.197941 -213.106718 
L 406.7169 -210.895706 
L 407.339595 -208.684694 
L 408.063952 -206.473681 
L 408.884311 -204.262669 
L 409.791595 -202.051657 
L 410.773736 -199.840645 
L 411.81635 -197.629633 
L 412.903635 -195.418621 
L 414.019457 -193.207608 
L 415.148544 -190.996596 
L 416.277682 -188.785584 
L 417.396831 -186.574572 
L 418.500013 -184.36356 
L 419.585915 -182.152548 
L 420.658098 -179.941535 
L 421.724798 -177.730523 
L 422.798317 -175.519511 
L 423.894048 -173.308499 
L 425.029212 -171.097487 
L 426.221419 -168.886475 
L 427.487153 -166.675463 
L 428.840303 -164.46445 
L 430.290837 -162.253438 
L 431.843699 -160.042426 
L 433.497986 -157.831414 
L 435.246446 -155.620402 
L 437.075325 -153.40939 
L 438.964565 -151.198377 
L 440.888361 -148.987365 
L 442.816073 -146.776353 
L 444.713461 -144.565341 
L 446.544218 -142.354329 
L 448.271732 -140.143317 
L 449.860983 -137.932304 
L 451.280468 -135.721292 
L 452.503998 -133.51028 
L 453.512223 -131.299268 
L 454.293719 -129.088256 
L 454.845527 -126.877244 
L 455.173027 -124.666232 
L 455.28915 -122.455219 
L 455.212945 -120.244207 
L 454.967635 -118.033195 
L 454.578326 -115.822183 
L 454.069608 -113.611171 
L 453.463294 -111.400159 
L 452.776534 -109.189146 
L 452.020502 -106.978134 
L 451.199804 -104.767122 
L 450.31264 -102.55611 
L 449.351699 -100.345098 
L 448.305659 -98.134086 
L 447.161097 -95.923073 
L 445.9046 -93.712061 
L 444.524815 -91.501049 
L 443.014234 -89.290037 
L 441.370525 -87.079025 
L 439.597315 -84.868013 
L 437.704355 -82.657001 
L 435.707119 -80.445988 
L 433.62592 -78.234976 
L 431.484658 -76.023964 
L 429.309378 -73.812952 
L 427.12678 -71.60194 
L 424.962823 -69.390928 
L 422.84155 -67.179915 
L 420.784185 -64.968903 
L 418.808562 -62.757891 
L 416.928863 -60.546879 
L 415.155639 -58.335867 
L 413.496048 -56.124855 
L 411.954256 -53.913842 
L 410.531899 -51.70283 
L 409.228579 -49.491818 
z
"/>
    </defs>
    <g clip-path="url(#p3ded3332db)">
     <use xlink:href="#m109785ad4e" x="0" y="504" style="fill: #cc8963"/>
    </g>
   </g>
   <g id="patch_3">
    <path d="M 148.54635 365.878709 
L 181.41165 365.878709 
L 181.41165 297.580761 
L 148.54635 297.580761 
L 148.54635 365.878709 
z
" clip-path="url(#p3ded3332db)" style="fill: #5875a4; stroke: #4c4c4c; stroke-linejoin: miter"/>
   </g>
   <g id="line2d_1">
    <path d="M 164.979 365.878709 
L 164.979 454.508182 
" clip-path="url(#p3ded3332db)" style="fill: none; stroke: #000000"/>
   </g>
   <g id="line2d_2">
    <path d="M 164.979 297.580761 
L 164.979 204.609165 
" clip-path="url(#p3ded3332db)" style="fill: none; stroke: #000000"/>
   </g>
   <g id="line2d_3">
    <path d="M 156.762675 454.508182 
L 173.195325 454.508182 
" clip-path="url(#p3ded3332db)" style="fill: none; stroke: #4c4c4c; stroke-linecap: round"/>
   </g>
   <g id="line2d_4">
    <path d="M 156.762675 204.609165 
L 173.195325 204.609165 
" clip-path="url(#p3ded3332db)" style="fill: none; stroke: #4c4c4c; stroke-linecap: round"/>
   </g>
   <g id="line2d_5"/>
   <g id="patch_4">
    <path d="M 367.64835 407.085449 
L 400.51365 407.085449 
L 400.51365 353.427752 
L 367.64835 353.427752 
L 367.64835 407.085449 
z
" clip-path="url(#p3ded3332db)" style="fill: #cc8963; stroke: #4c4c4c; stroke-linejoin: miter"/>
   </g>
   <g id="line2d_6">
    <path d="M 384.081 407.085449 
L 384.081 454.508182 
" clip-path="url(#p3ded3332db)" style="fill: none; stroke: #000000"/>
   </g>
   <g id="line2d_7">
    <path d="M 384.081 353.427752 
L 384.081 294.570297 
" clip-path="url(#p3ded3332db)" style="fill: none; stroke: #000000"/>
   </g>
   <g id="line2d_8">
    <path d="M 375.864675 454.508182 
L 392.297325 454.508182 
" clip-path="url(#p3ded3332db)" style="fill: none; stroke: #4c4c4c; stroke-linecap: round"/>
   </g>
   <g id="line2d_9">
    <path d="M 375.864675 294.570297 
L 392.297325 294.570297 
" clip-path="url(#p3ded3332db)" style="fill: none; stroke: #4c4c4c; stroke-linecap: round"/>
   </g>
   <g id="line2d_10"/>
   <g id="PathCollection_1">
    <defs>
     <path id="md6fd870c80" d="M 0 1.581139 
C 0.419323 1.581139 0.821528 1.41454 1.118034 1.118034 
C 1.41454 0.821528 1.581139 0.419323 1.581139 0 
C 1.581139 -0.419323 1.41454 -0.821528 1.118034 -1.118034 
C 0.821528 -1.41454 0.419323 -1.581139 0 -1.581139 
C -0.419323 -1.581139 -0.821528 -1.41454 -1.118034 -1.118034 
C -1.41454 -0.821528 -1.581139 -0.419323 -1.581139 0 
C -1.581139 0.419323 -1.41454 0.821528 -1.118034 1.118034 
C -0.821528 1.41454 -0.419323 1.581139 0 1.581139 
z
" style="stroke: #000000; stroke-opacity: 0.9; stroke-width: 0.8"/>
    </defs>
    <g clip-path="url(#p3ded3332db)">
     <use xlink:href="#md6fd870c80" x="157.746936" y="350.11224" style="fill-opacity: 0.9; stroke: #000000; stroke-opacity: 0.9; stroke-width: 0.8"/>
     <use xlink:href="#md6fd870c80" x="169.785459" y="311.035206" style="fill-opacity: 0.9; stroke: #000000; stroke-opacity: 0.9; stroke-width: 0.8"/>
     <use xlink:href="#md6fd870c80" x="160.972336" y="268.417358" style="fill-opacity: 0.9; stroke: #000000; stroke-opacity: 0.9; stroke-width: 0.8"/>
     <use xlink:href="#md6fd870c80" x="156.680313" y="305.260334" style="fill-opacity: 0.9; stroke: #000000; stroke-opacity: 0.9; stroke-width: 0.8"/>
     <use xlink:href="#md6fd870c80" x="163.17163" y="317.308117" style="fill-opacity: 0.9; stroke: #000000; stroke-opacity: 0.9; stroke-width: 0.8"/>
     <use xlink:href="#md6fd870c80" x="161.780968" y="395.345975" style="fill-opacity: 0.9; stroke: #000000; stroke-opacity: 0.9; stroke-width: 0.8"/>
     <use xlink:href="#md6fd870c80" x="158.618524" y="318.44649" style="fill-opacity: 0.9; stroke: #000000; stroke-opacity: 0.9; stroke-width: 0.8"/>
     <use xlink:href="#md6fd870c80" x="173.284342" y="297.582243" style="fill-opacity: 0.9; stroke: #000000; stroke-opacity: 0.9; stroke-width: 0.8"/>
     <use xlink:href="#md6fd870c80" x="164.429668" y="322.893261" style="fill-opacity: 0.9; stroke: #000000; stroke-opacity: 0.9; stroke-width: 0.8"/>
     <use xlink:href="#md6fd870c80" x="162.857616" y="348.601524" style="fill-opacity: 0.9; stroke: #000000; stroke-opacity: 0.9; stroke-width: 0.8"/>
     <use xlink:href="#md6fd870c80" x="157.689718" y="333.02004" style="fill-opacity: 0.9; stroke: #000000; stroke-opacity: 0.9; stroke-width: 0.8"/>
     <use xlink:href="#md6fd870c80" x="159.396828" y="338.599254" style="fill-opacity: 0.9; stroke: #000000; stroke-opacity: 0.9; stroke-width: 0.8"/>
     <use xlink:href="#md6fd870c80" x="163.486413" y="355.947588" style="fill-opacity: 0.9; stroke: #000000; stroke-opacity: 0.9; stroke-width: 0.8"/>
     <use xlink:href="#md6fd870c80" x="157.669842" y="343.051954" style="fill-opacity: 0.9; stroke: #000000; stroke-opacity: 0.9; stroke-width: 0.8"/>
     <use xlink:href="#md6fd870c80" x="175.23797" y="226.997172" style="fill-opacity: 0.9; stroke: #000000; stroke-opacity: 0.9; stroke-width: 0.8"/>
     <use xlink:href="#md6fd870c80" x="173.872824" y="336.233572" style="fill-opacity: 0.9; stroke: #000000; stroke-opacity: 0.9; stroke-width: 0.8"/>
     <use xlink:href="#md6fd870c80" x="169.097875" y="341.273246" style="fill-opacity: 0.9; stroke: #000000; stroke-opacity: 0.9; stroke-width: 0.8"/>
     <use xlink:href="#md6fd870c80" x="154.521868" y="289.299392" style="fill-opacity: 0.9; stroke: #000000; stroke-opacity: 0.9; stroke-width: 0.8"/>
     <use xlink:href="#md6fd870c80" x="158.851783" y="338.539964" style="fill-opacity: 0.9; stroke: #000000; stroke-opacity: 0.9; stroke-width: 0.8"/>
     <use xlink:href="#md6fd870c80" x="164.464376" y="371.511285" style="fill-opacity: 0.9; stroke: #000000; stroke-opacity: 0.9; stroke-width: 0.8"/>
     <use xlink:href="#md6fd870c80" x="171.169148" y="328.917153" style="fill-opacity: 0.9; stroke: #000000; stroke-opacity: 0.9; stroke-width: 0.8"/>
     <use xlink:href="#md6fd870c80" x="164.997053" y="217.878328" style="fill-opacity: 0.9; stroke: #000000; stroke-opacity: 0.9; stroke-width: 0.8"/>
     <use xlink:href="#md6fd870c80" x="165.591745" y="275.272795" style="fill-opacity: 0.9; stroke: #000000; stroke-opacity: 0.9; stroke-width: 0.8"/>
     <use xlink:href="#md6fd870c80" x="164.57618" y="266.35287" style="fill-opacity: 0.9; stroke: #000000; stroke-opacity: 0.9; stroke-width: 0.8"/>
     <use xlink:href="#md6fd870c80" x="155.51286" y="273.563753" style="fill-opacity: 0.9; stroke: #000000; stroke-opacity: 0.9; stroke-width: 0.8"/>
     <use xlink:href="#md6fd870c80" x="163.23056" y="250.914869" style="fill-opacity: 0.9; stroke: #000000; stroke-opacity: 0.9; stroke-width: 0.8"/>
     <use xlink:href="#md6fd870c80" x="162.25327" y="268.417358" style="fill-opacity: 0.9; stroke: #000000; stroke-opacity: 0.9; stroke-width: 0.8"/>
     <use xlink:href="#md6fd870c80" x="160.077394" y="338.308732" style="fill-opacity: 0.9; stroke: #000000; stroke-opacity: 0.9; stroke-width: 0.8"/>
     <use xlink:href="#md6fd870c80" x="162.096998" y="309.79604" style="fill-opacity: 0.9; stroke: #000000; stroke-opacity: 0.9; stroke-width: 0.8"/>
     <use xlink:href="#md6fd870c80" x="160.842705" y="347.795176" style="fill-opacity: 0.9; stroke: #000000; stroke-opacity: 0.9; stroke-width: 0.8"/>
     <use xlink:href="#md6fd870c80" x="175.733531" y="299.177152" style="fill-opacity: 0.9; stroke: #000000; stroke-opacity: 0.9; stroke-width: 0.8"/>
     <use xlink:href="#md6fd870c80" x="167.954526" y="297.943914" style="fill-opacity: 0.9; stroke: #000000; stroke-opacity: 0.9; stroke-width: 0.8"/>
     <use xlink:href="#md6fd870c80" x="174.171211" y="290.16503" style="fill-opacity: 0.9; stroke: #000000; stroke-opacity: 0.9; stroke-width: 0.8"/>
     <use xlink:href="#md6fd870c80" x="166.671013" y="371.511285" style="fill-opacity: 0.9; stroke: #000000; stroke-opacity: 0.9; stroke-width: 0.8"/>
     <use xlink:href="#md6fd870c80" x="155.349189" y="338.308732" style="fill-opacity: 0.9; stroke: #000000; stroke-opacity: 0.9; stroke-width: 0.8"/>
     <use xlink:href="#md6fd870c80" x="166.246456" y="357.28162" style="fill-opacity: 0.9; stroke: #000000; stroke-opacity: 0.9; stroke-width: 0.8"/>
     <use xlink:href="#md6fd870c80" x="157.128422" y="314.070868" style="fill-opacity: 0.9; stroke: #000000; stroke-opacity: 0.9; stroke-width: 0.8"/>
     <use xlink:href="#md6fd870c80" x="154.756124" y="369.139674" style="fill-opacity: 0.9; stroke: #000000; stroke-opacity: 0.9; stroke-width: 0.8"/>
     <use xlink:href="#md6fd870c80" x="156.36658" y="362.024841" style="fill-opacity: 0.9; stroke: #000000; stroke-opacity: 0.9; stroke-width: 0.8"/>
     <use xlink:href="#md6fd870c80" x="172.420441" y="239.590427" style="fill-opacity: 0.9; stroke: #000000; stroke-opacity: 0.9; stroke-width: 0.8"/>
     <use xlink:href="#md6fd870c80" x="154.084172" y="407.085449" style="fill-opacity: 0.9; stroke: #000000; stroke-opacity: 0.9; stroke-width: 0.8"/>
     <use xlink:href="#md6fd870c80" x="158.041508" y="360.601875" style="fill-opacity: 0.9; stroke: #000000; stroke-opacity: 0.9; stroke-width: 0.8"/>
     <use xlink:href="#md6fd870c80" x="166.446707" y="394.634492" style="fill-opacity: 0.9; stroke: #000000; stroke-opacity: 0.9; stroke-width: 0.8"/>
     <use xlink:href="#md6fd870c80" x="154.742847" y="246.254653" style="fill-opacity: 0.9; stroke: #000000; stroke-opacity: 0.9; stroke-width: 0.8"/>
     <use xlink:href="#md6fd870c80" x="169.491602" y="395.227395" style="fill-opacity: 0.9; stroke: #000000; stroke-opacity: 0.9; stroke-width: 0.8"/>
     <use xlink:href="#md6fd870c80" x="161.210072" y="390.484173" style="fill-opacity: 0.9; stroke: #000000; stroke-opacity: 0.9; stroke-width: 0.8"/>
     <use xlink:href="#md6fd870c80" x="158.376677" y="374.475799" style="fill-opacity: 0.9; stroke: #000000; stroke-opacity: 0.9; stroke-width: 0.8"/>
     <use xlink:href="#md6fd870c80" x="168.761141" y="364.396452" style="fill-opacity: 0.9; stroke: #000000; stroke-opacity: 0.9; stroke-width: 0.8"/>
     <use xlink:href="#md6fd870c80" x="154.141324" y="454.508182" style="fill-opacity: 0.9; stroke: #000000; stroke-opacity: 0.9; stroke-width: 0.8"/>
     <use xlink:href="#md6fd870c80" x="160.517069" y="352.538398" style="fill-opacity: 0.9; stroke: #000000; stroke-opacity: 0.9; stroke-width: 0.8"/>
     <use xlink:href="#md6fd870c80" x="170.045888" y="369.851158" style="fill-opacity: 0.9; stroke: #000000; stroke-opacity: 0.9; stroke-width: 0.8"/>
     <use xlink:href="#md6fd870c80" x="169.706755" y="341.095375" style="fill-opacity: 0.9; stroke: #000000; stroke-opacity: 0.9; stroke-width: 0.8"/>
     <use xlink:href="#md6fd870c80" x="155.909488" y="297.576314" style="fill-opacity: 0.9; stroke: #000000; stroke-opacity: 0.9; stroke-width: 0.8"/>
     <use xlink:href="#md6fd870c80" x="160.225588" y="247.665762" style="fill-opacity: 0.9; stroke: #000000; stroke-opacity: 0.9; stroke-width: 0.8"/>
     <use xlink:href="#md6fd870c80" x="174.408008" y="357.28162" style="fill-opacity: 0.9; stroke: #000000; stroke-opacity: 0.9; stroke-width: 0.8"/>
     <use xlink:href="#md6fd870c80" x="155.391223" y="247.476033" style="fill-opacity: 0.9; stroke: #000000; stroke-opacity: 0.9; stroke-width: 0.8"/>
     <use xlink:href="#md6fd870c80" x="165.053609" y="347.795176" style="fill-opacity: 0.9; stroke: #000000; stroke-opacity: 0.9; stroke-width: 0.8"/>
     <use xlink:href="#md6fd870c80" x="171.563399" y="346.016468" style="fill-opacity: 0.9; stroke: #000000; stroke-opacity: 0.9; stroke-width: 0.8"/>
     <use xlink:href="#md6fd870c80" x="175.868057" y="253.820092" style="fill-opacity: 0.9; stroke: #000000; stroke-opacity: 0.9; stroke-width: 0.8"/>
     <use xlink:href="#md6fd870c80" x="154.069035" y="270.124917" style="fill-opacity: 0.9; stroke: #000000; stroke-opacity: 0.9; stroke-width: 0.8"/>
     <use xlink:href="#md6fd870c80" x="168.221429" y="402.342228" style="fill-opacity: 0.9; stroke: #000000; stroke-opacity: 0.9; stroke-width: 0.8"/>
     <use xlink:href="#md6fd870c80" x="170.603949" y="320.284489" style="fill-opacity: 0.9; stroke: #000000; stroke-opacity: 0.9; stroke-width: 0.8"/>
     <use xlink:href="#md6fd870c80" x="171.476104" y="353.724203" style="fill-opacity: 0.9; stroke: #000000; stroke-opacity: 0.9; stroke-width: 0.8"/>
     <use xlink:href="#md6fd870c80" x="162.92166" y="378.626118" style="fill-opacity: 0.9; stroke: #000000; stroke-opacity: 0.9; stroke-width: 0.8"/>
     <use xlink:href="#md6fd870c80" x="170.948815" y="204.609165" style="fill-opacity: 0.9; stroke: #000000; stroke-opacity: 0.9; stroke-width: 0.8"/>
     <use xlink:href="#md6fd870c80" x="171.313002" y="335.937121" style="fill-opacity: 0.9; stroke: #000000; stroke-opacity: 0.9; stroke-width: 0.8"/>
     <use xlink:href="#md6fd870c80" x="161.510313" y="383.36934" style="fill-opacity: 0.9; stroke: #000000; stroke-opacity: 0.9; stroke-width: 0.8"/>
     <use xlink:href="#md6fd870c80" x="175.627767" y="365.582258" style="fill-opacity: 0.9; stroke: #000000; stroke-opacity: 0.9; stroke-width: 0.8"/>
     <use xlink:href="#md6fd870c80" x="159.06036" y="273.445173" style="fill-opacity: 0.9; stroke: #000000; stroke-opacity: 0.9; stroke-width: 0.8"/>
     <use xlink:href="#md6fd870c80" x="169.630195" y="360.839036" style="fill-opacity: 0.9; stroke: #000000; stroke-opacity: 0.9; stroke-width: 0.8"/>
     <use xlink:href="#md6fd870c80" x="166.287998" y="265.832302" style="fill-opacity: 0.9; stroke: #000000; stroke-opacity: 0.9; stroke-width: 0.8"/>
     <use xlink:href="#md6fd870c80" x="156.743236" y="402.342228" style="fill-opacity: 0.9; stroke: #000000; stroke-opacity: 0.9; stroke-width: 0.8"/>
     <use xlink:href="#md6fd870c80" x="163.486683" y="355.502911" style="fill-opacity: 0.9; stroke: #000000; stroke-opacity: 0.9; stroke-width: 0.8"/>
     <use xlink:href="#md6fd870c80" x="163.284913" y="288.860644" style="fill-opacity: 0.9; stroke: #000000; stroke-opacity: 0.9; stroke-width: 0.8"/>
     <use xlink:href="#md6fd870c80" x="157.490245" y="371.511285" style="fill-opacity: 0.9; stroke: #000000; stroke-opacity: 0.9; stroke-width: 0.8"/>
     <use xlink:href="#md6fd870c80" x="168.9407" y="362.617744" style="fill-opacity: 0.9; stroke: #000000; stroke-opacity: 0.9; stroke-width: 0.8"/>
     <use xlink:href="#md6fd870c80" x="174.186413" y="318.150039" style="fill-opacity: 0.9; stroke: #000000; stroke-opacity: 0.9; stroke-width: 0.8"/>
     <use xlink:href="#md6fd870c80" x="173.429782" y="309.849401" style="fill-opacity: 0.9; stroke: #000000; stroke-opacity: 0.9; stroke-width: 0.8"/>
     <use xlink:href="#md6fd870c80" x="162.616931" y="357.28162" style="fill-opacity: 0.9; stroke: #000000; stroke-opacity: 0.9; stroke-width: 0.8"/>
     <use xlink:href="#md6fd870c80" x="159.965673" y="323.993096" style="fill-opacity: 0.9; stroke: #000000; stroke-opacity: 0.9; stroke-width: 0.8"/>
     <use xlink:href="#md6fd870c80" x="154.200864" y="264.788793" style="fill-opacity: 0.9; stroke: #000000; stroke-opacity: 0.9; stroke-width: 0.8"/>
     <use xlink:href="#md6fd870c80" x="164.262345" y="389.298367" style="fill-opacity: 0.9; stroke: #000000; stroke-opacity: 0.9; stroke-width: 0.8"/>
     <use xlink:href="#md6fd870c80" x="163.919305" y="383.36934" style="fill-opacity: 0.9; stroke: #000000; stroke-opacity: 0.9; stroke-width: 0.8"/>
     <use xlink:href="#md6fd870c80" x="154.530017" y="308.384931" style="fill-opacity: 0.9; stroke: #000000; stroke-opacity: 0.9; stroke-width: 0.8"/>
     <use xlink:href="#md6fd870c80" x="167.636543" y="265.245328" style="fill-opacity: 0.9; stroke: #000000; stroke-opacity: 0.9; stroke-width: 0.8"/>
     <use xlink:href="#md6fd870c80" x="158.939967" y="418.943504" style="fill-opacity: 0.9; stroke: #000000; stroke-opacity: 0.9; stroke-width: 0.8"/>
     <use xlink:href="#md6fd870c80" x="173.325731" y="383.36934" style="fill-opacity: 0.9; stroke: #000000; stroke-opacity: 0.9; stroke-width: 0.8"/>
     <use xlink:href="#md6fd870c80" x="174.197163" y="362.024841" style="fill-opacity: 0.9; stroke: #000000; stroke-opacity: 0.9; stroke-width: 0.8"/>
     <use xlink:href="#md6fd870c80" x="169.047735" y="401.156422" style="fill-opacity: 0.9; stroke: #000000; stroke-opacity: 0.9; stroke-width: 0.8"/>
     <use xlink:href="#md6fd870c80" x="170.10901" y="328.347966" style="fill-opacity: 0.9; stroke: #000000; stroke-opacity: 0.9; stroke-width: 0.8"/>
     <use xlink:href="#md6fd870c80" x="166.047919" y="371.511285" style="fill-opacity: 0.9; stroke: #000000; stroke-opacity: 0.9; stroke-width: 0.8"/>
     <use xlink:href="#md6fd870c80" x="165.84966" y="418.943504" style="fill-opacity: 0.9; stroke: #000000; stroke-opacity: 0.9; stroke-width: 0.8"/>
     <use xlink:href="#md6fd870c80" x="168.158446" y="366.768063" style="fill-opacity: 0.9; stroke: #000000; stroke-opacity: 0.9; stroke-width: 0.8"/>
     <use xlink:href="#md6fd870c80" x="157.923323" y="346.016468" style="fill-opacity: 0.9; stroke: #000000; stroke-opacity: 0.9; stroke-width: 0.8"/>
     <use xlink:href="#md6fd870c80" x="166.987687" y="301.098156" style="fill-opacity: 0.9; stroke: #000000; stroke-opacity: 0.9; stroke-width: 0.8"/>
     <use xlink:href="#md6fd870c80" x="170.64895" y="388.112562" style="fill-opacity: 0.9; stroke: #000000; stroke-opacity: 0.9; stroke-width: 0.8"/>
     <use xlink:href="#md6fd870c80" x="173.646114" y="328.822288" style="fill-opacity: 0.9; stroke: #000000; stroke-opacity: 0.9; stroke-width: 0.8"/>
     <use xlink:href="#md6fd870c80" x="158.143191" y="327.992224" style="fill-opacity: 0.9; stroke: #000000; stroke-opacity: 0.9; stroke-width: 0.8"/>
     <use xlink:href="#md6fd870c80" x="162.808329" y="296.805541" style="fill-opacity: 0.9; stroke: #000000; stroke-opacity: 0.9; stroke-width: 0.8"/>
     <use xlink:href="#md6fd870c80" x="167.356466" y="293.633511" style="fill-opacity: 0.9; stroke: #000000; stroke-opacity: 0.9; stroke-width: 0.8"/>
     <use xlink:href="#md6fd870c80" x="157.557746" y="314.286685" style="fill-opacity: 0.9; stroke: #000000; stroke-opacity: 0.9; stroke-width: 0.8"/>
     <use xlink:href="#md6fd870c80" x="163.014232" y="392.836811" style="fill-opacity: 0.9; stroke: #000000; stroke-opacity: 0.9; stroke-width: 0.8"/>
     <use xlink:href="#md6fd870c80" x="175.337025" y="318.831877" style="fill-opacity: 0.9; stroke: #000000; stroke-opacity: 0.9; stroke-width: 0.8"/>
     <use xlink:href="#md6fd870c80" x="164.152022" y="276.646848" style="fill-opacity: 0.9; stroke: #000000; stroke-opacity: 0.9; stroke-width: 0.8"/>
     <use xlink:href="#md6fd870c80" x="168.333476" y="46.831818" style="fill-opacity: 0.9; stroke: #000000; stroke-opacity: 0.9; stroke-width: 0.8"/>
     <use xlink:href="#md6fd870c80" x="156.95233" y="406.492547" style="fill-opacity: 0.9; stroke: #000000; stroke-opacity: 0.9; stroke-width: 0.8"/>
     <use xlink:href="#md6fd870c80" x="166.32033" y="334.158413" style="fill-opacity: 0.9; stroke: #000000; stroke-opacity: 0.9; stroke-width: 0.8"/>
     <use xlink:href="#md6fd870c80" x="161.4966" y="331.193899" style="fill-opacity: 0.9; stroke: #000000; stroke-opacity: 0.9; stroke-width: 0.8"/>
    </g>
   </g>
   <g id="PathCollection_2">
    <g clip-path="url(#p3ded3332db)">
     <use xlink:href="#md6fd870c80" x="373.636717" y="420.12931" style="fill-opacity: 0.9; stroke: #000000; stroke-opacity: 0.9; stroke-width: 0.8"/>
     <use xlink:href="#md6fd870c80" x="374.7138" y="430.801559" style="fill-opacity: 0.9; stroke: #000000; stroke-opacity: 0.9; stroke-width: 0.8"/>
     <use xlink:href="#md6fd870c80" x="384.341421" y="419.03244" style="fill-opacity: 0.9; stroke: #000000; stroke-opacity: 0.9; stroke-width: 0.8"/>
     <use xlink:href="#md6fd870c80" x="376.568056" y="387.430724" style="fill-opacity: 0.9; stroke: #000000; stroke-opacity: 0.9; stroke-width: 0.8"/>
     <use xlink:href="#md6fd870c80" x="394.10188" y="359.060328" style="fill-opacity: 0.9; stroke: #000000; stroke-opacity: 0.9; stroke-width: 0.8"/>
     <use xlink:href="#md6fd870c80" x="377.055795" y="270.723749" style="fill-opacity: 0.9; stroke: #000000; stroke-opacity: 0.9; stroke-width: 0.8"/>
     <use xlink:href="#md6fd870c80" x="380.700161" y="361.431939" style="fill-opacity: 0.9; stroke: #000000; stroke-opacity: 0.9; stroke-width: 0.8"/>
     <use xlink:href="#md6fd870c80" x="383.980861" y="338.242327" style="fill-opacity: 0.9; stroke: #000000; stroke-opacity: 0.9; stroke-width: 0.8"/>
     <use xlink:href="#md6fd870c80" x="393.783816" y="324.079066" style="fill-opacity: 0.9; stroke: #000000; stroke-opacity: 0.9; stroke-width: 0.8"/>
     <use xlink:href="#md6fd870c80" x="385.134853" y="294.570297" style="fill-opacity: 0.9; stroke: #000000; stroke-opacity: 0.9; stroke-width: 0.8"/>
     <use xlink:href="#md6fd870c80" x="388.55156" y="379.574762" style="fill-opacity: 0.9; stroke: #000000; stroke-opacity: 0.9; stroke-width: 0.8"/>
     <use xlink:href="#md6fd870c80" x="376.312364" y="386.166655" style="fill-opacity: 0.9; stroke: #000000; stroke-opacity: 0.9; stroke-width: 0.8"/>
     <use xlink:href="#md6fd870c80" x="394.074096" y="391.432817" style="fill-opacity: 0.9; stroke: #000000; stroke-opacity: 0.9; stroke-width: 0.8"/>
     <use xlink:href="#md6fd870c80" x="380.798331" y="421.315115" style="fill-opacity: 0.9; stroke: #000000; stroke-opacity: 0.9; stroke-width: 0.8"/>
     <use xlink:href="#md6fd870c80" x="385.948622" y="352.538398" style="fill-opacity: 0.9; stroke: #000000; stroke-opacity: 0.9; stroke-width: 0.8"/>
     <use xlink:href="#md6fd870c80" x="394.691506" y="235.617978" style="fill-opacity: 0.9; stroke: #000000; stroke-opacity: 0.9; stroke-width: 0.8"/>
     <use xlink:href="#md6fd870c80" x="390.460896" y="407.085449" style="fill-opacity: 0.9; stroke: #000000; stroke-opacity: 0.9; stroke-width: 0.8"/>
     <use xlink:href="#md6fd870c80" x="385.131171" y="384.555145" style="fill-opacity: 0.9; stroke: #000000; stroke-opacity: 0.9; stroke-width: 0.8"/>
     <use xlink:href="#md6fd870c80" x="378.712139" y="363.80355" style="fill-opacity: 0.9; stroke: #000000; stroke-opacity: 0.9; stroke-width: 0.8"/>
     <use xlink:href="#md6fd870c80" x="379.680845" y="401.156422" style="fill-opacity: 0.9; stroke: #000000; stroke-opacity: 0.9; stroke-width: 0.8"/>
     <use xlink:href="#md6fd870c80" x="385.307824" y="430.801559" style="fill-opacity: 0.9; stroke: #000000; stroke-opacity: 0.9; stroke-width: 0.8"/>
     <use xlink:href="#md6fd870c80" x="378.910938" y="324.079066" style="fill-opacity: 0.9; stroke: #000000; stroke-opacity: 0.9; stroke-width: 0.8"/>
     <use xlink:href="#md6fd870c80" x="387.784397" y="311.728902" style="fill-opacity: 0.9; stroke: #000000; stroke-opacity: 0.9; stroke-width: 0.8"/>
     <use xlink:href="#md6fd870c80" x="393.294284" y="385.740951" style="fill-opacity: 0.9; stroke: #000000; stroke-opacity: 0.9; stroke-width: 0.8"/>
     <use xlink:href="#md6fd870c80" x="385.957271" y="366.768063" style="fill-opacity: 0.9; stroke: #000000; stroke-opacity: 0.9; stroke-width: 0.8"/>
     <use xlink:href="#md6fd870c80" x="377.313006" y="341.154665" style="fill-opacity: 0.9; stroke: #000000; stroke-opacity: 0.9; stroke-width: 0.8"/>
     <use xlink:href="#md6fd870c80" x="391.18791" y="416.571893" style="fill-opacity: 0.9; stroke: #000000; stroke-opacity: 0.9; stroke-width: 0.8"/>
     <use xlink:href="#md6fd870c80" x="388.095735" y="362.024841" style="fill-opacity: 0.9; stroke: #000000; stroke-opacity: 0.9; stroke-width: 0.8"/>
     <use xlink:href="#md6fd870c80" x="382.460676" y="374.475799" style="fill-opacity: 0.9; stroke: #000000; stroke-opacity: 0.9; stroke-width: 0.8"/>
     <use xlink:href="#md6fd870c80" x="376.546388" y="371.511285" style="fill-opacity: 0.9; stroke: #000000; stroke-opacity: 0.9; stroke-width: 0.8"/>
     <use xlink:href="#md6fd870c80" x="376.29738" y="363.80355" style="fill-opacity: 0.9; stroke: #000000; stroke-opacity: 0.9; stroke-width: 0.8"/>
     <use xlink:href="#md6fd870c80" x="394.339885" y="324.138357" style="fill-opacity: 0.9; stroke: #000000; stroke-opacity: 0.9; stroke-width: 0.8"/>
     <use xlink:href="#md6fd870c80" x="394.814075" y="436.730586" style="fill-opacity: 0.9; stroke: #000000; stroke-opacity: 0.9; stroke-width: 0.8"/>
     <use xlink:href="#md6fd870c80" x="382.695023" y="383.36934" style="fill-opacity: 0.9; stroke: #000000; stroke-opacity: 0.9; stroke-width: 0.8"/>
     <use xlink:href="#md6fd870c80" x="383.396261" y="380.997729" style="fill-opacity: 0.9; stroke: #000000; stroke-opacity: 0.9; stroke-width: 0.8"/>
     <use xlink:href="#md6fd870c80" x="382.1585" y="373.882896" style="fill-opacity: 0.9; stroke: #000000; stroke-opacity: 0.9; stroke-width: 0.8"/>
     <use xlink:href="#md6fd870c80" x="378.344008" y="317.557136" style="fill-opacity: 0.9; stroke: #000000; stroke-opacity: 0.9; stroke-width: 0.8"/>
     <use xlink:href="#md6fd870c80" x="384.962696" y="391.432817" style="fill-opacity: 0.9; stroke: #000000; stroke-opacity: 0.9; stroke-width: 0.8"/>
     <use xlink:href="#md6fd870c80" x="376.665437" y="447.402835" style="fill-opacity: 0.9; stroke: #000000; stroke-opacity: 0.9; stroke-width: 0.8"/>
     <use xlink:href="#md6fd870c80" x="386.238923" y="330.008094" style="fill-opacity: 0.9; stroke: #000000; stroke-opacity: 0.9; stroke-width: 0.8"/>
     <use xlink:href="#md6fd870c80" x="388.583972" y="369.139674" style="fill-opacity: 0.9; stroke: #000000; stroke-opacity: 0.9; stroke-width: 0.8"/>
     <use xlink:href="#md6fd870c80" x="389.040168" y="364.396452" style="fill-opacity: 0.9; stroke: #000000; stroke-opacity: 0.9; stroke-width: 0.8"/>
     <use xlink:href="#md6fd870c80" x="385.652221" y="382.776437" style="fill-opacity: 0.9; stroke: #000000; stroke-opacity: 0.9; stroke-width: 0.8"/>
     <use xlink:href="#md6fd870c80" x="376.41605" y="323.575099" style="fill-opacity: 0.9; stroke: #000000; stroke-opacity: 0.9; stroke-width: 0.8"/>
     <use xlink:href="#md6fd870c80" x="393.423905" y="405.899644" style="fill-opacity: 0.9; stroke: #000000; stroke-opacity: 0.9; stroke-width: 0.8"/>
     <use xlink:href="#md6fd870c80" x="383.292391" y="411.828671" style="fill-opacity: 0.9; stroke: #000000; stroke-opacity: 0.9; stroke-width: 0.8"/>
     <use xlink:href="#md6fd870c80" x="386.183834" y="407.678352" style="fill-opacity: 0.9; stroke: #000000; stroke-opacity: 0.9; stroke-width: 0.8"/>
     <use xlink:href="#md6fd870c80" x="392.097452" y="344.237759" style="fill-opacity: 0.9; stroke: #000000; stroke-opacity: 0.9; stroke-width: 0.8"/>
     <use xlink:href="#md6fd870c80" x="374.575988" y="454.508182" style="fill-opacity: 0.9; stroke: #000000; stroke-opacity: 0.9; stroke-width: 0.8"/>
     <use xlink:href="#md6fd870c80" x="391.098692" y="401.156422" style="fill-opacity: 0.9; stroke: #000000; stroke-opacity: 0.9; stroke-width: 0.8"/>
     <use xlink:href="#md6fd870c80" x="391.664466" y="406.255386" style="fill-opacity: 0.9; stroke: #000000; stroke-opacity: 0.9; stroke-width: 0.8"/>
     <use xlink:href="#md6fd870c80" x="375.198976" y="314.444397" style="fill-opacity: 0.9; stroke: #000000; stroke-opacity: 0.9; stroke-width: 0.8"/>
     <use xlink:href="#md6fd870c80" x="389.629499" y="384.317984" style="fill-opacity: 0.9; stroke: #000000; stroke-opacity: 0.9; stroke-width: 0.8"/>
     <use xlink:href="#md6fd870c80" x="381.126262" y="311.568819" style="fill-opacity: 0.9; stroke: #000000; stroke-opacity: 0.9; stroke-width: 0.8"/>
     <use xlink:href="#md6fd870c80" x="389.320016" y="378.626118" style="fill-opacity: 0.9; stroke: #000000; stroke-opacity: 0.9; stroke-width: 0.8"/>
     <use xlink:href="#md6fd870c80" x="377.995232" y="365.582258" style="fill-opacity: 0.9; stroke: #000000; stroke-opacity: 0.9; stroke-width: 0.8"/>
     <use xlink:href="#md6fd870c80" x="383.53801" y="267.160404" style="fill-opacity: 0.9; stroke: #000000; stroke-opacity: 0.9; stroke-width: 0.8"/>
     <use xlink:href="#md6fd870c80" x="373.242115" y="339.494538" style="fill-opacity: 0.9; stroke: #000000; stroke-opacity: 0.9; stroke-width: 0.8"/>
     <use xlink:href="#md6fd870c80" x="374.345578" y="329.415191" style="fill-opacity: 0.9; stroke: #000000; stroke-opacity: 0.9; stroke-width: 0.8"/>
     <use xlink:href="#md6fd870c80" x="393.671719" y="350.75969" style="fill-opacity: 0.9; stroke: #000000; stroke-opacity: 0.9; stroke-width: 0.8"/>
     <use xlink:href="#md6fd870c80" x="389.63651" y="398.784811" style="fill-opacity: 0.9; stroke: #000000; stroke-opacity: 0.9; stroke-width: 0.8"/>
     <use xlink:href="#md6fd870c80" x="393.941774" y="368.546772" style="fill-opacity: 0.9; stroke: #000000; stroke-opacity: 0.9; stroke-width: 0.8"/>
     <use xlink:href="#md6fd870c80" x="387.571726" y="407.085449" style="fill-opacity: 0.9; stroke: #000000; stroke-opacity: 0.9; stroke-width: 0.8"/>
     <use xlink:href="#md6fd870c80" x="379.602008" y="407.085449" style="fill-opacity: 0.9; stroke: #000000; stroke-opacity: 0.9; stroke-width: 0.8"/>
     <use xlink:href="#md6fd870c80" x="379.531679" y="356.718362" style="fill-opacity: 0.9; stroke: #000000; stroke-opacity: 0.9; stroke-width: 0.8"/>
     <use xlink:href="#md6fd870c80" x="386.651687" y="371.511285" style="fill-opacity: 0.9; stroke: #000000; stroke-opacity: 0.9; stroke-width: 0.8"/>
     <use xlink:href="#md6fd870c80" x="379.393169" y="414.200282" style="fill-opacity: 0.9; stroke: #000000; stroke-opacity: 0.9; stroke-width: 0.8"/>
     <use xlink:href="#md6fd870c80" x="392.415453" y="410.049963" style="fill-opacity: 0.9; stroke: #000000; stroke-opacity: 0.9; stroke-width: 0.8"/>
     <use xlink:href="#md6fd870c80" x="394.795104" y="359.012896" style="fill-opacity: 0.9; stroke: #000000; stroke-opacity: 0.9; stroke-width: 0.8"/>
     <use xlink:href="#md6fd870c80" x="391.456004" y="414.200282" style="fill-opacity: 0.9; stroke: #000000; stroke-opacity: 0.9; stroke-width: 0.8"/>
     <use xlink:href="#md6fd870c80" x="376.685776" y="388.112562" style="fill-opacity: 0.9; stroke: #000000; stroke-opacity: 0.9; stroke-width: 0.8"/>
     <use xlink:href="#md6fd870c80" x="379.457903" y="422.500921" style="fill-opacity: 0.9; stroke: #000000; stroke-opacity: 0.9; stroke-width: 0.8"/>
     <use xlink:href="#md6fd870c80" x="380.48447" y="374.475799" style="fill-opacity: 0.9; stroke: #000000; stroke-opacity: 0.9; stroke-width: 0.8"/>
     <use xlink:href="#md6fd870c80" x="377.037473" y="324.316228" style="fill-opacity: 0.9; stroke: #000000; stroke-opacity: 0.9; stroke-width: 0.8"/>
     <use xlink:href="#md6fd870c80" x="379.379426" y="418.943504" style="fill-opacity: 0.9; stroke: #000000; stroke-opacity: 0.9; stroke-width: 0.8"/>
     <use xlink:href="#md6fd870c80" x="378.87803" y="395.227395" style="fill-opacity: 0.9; stroke: #000000; stroke-opacity: 0.9; stroke-width: 0.8"/>
     <use xlink:href="#md6fd870c80" x="384.826715" y="369.139674" style="fill-opacity: 0.9; stroke: #000000; stroke-opacity: 0.9; stroke-width: 0.8"/>
     <use xlink:href="#md6fd870c80" x="380.710654" y="395.227395" style="fill-opacity: 0.9; stroke: #000000; stroke-opacity: 0.9; stroke-width: 0.8"/>
     <use xlink:href="#md6fd870c80" x="376.196665" y="346.60937" style="fill-opacity: 0.9; stroke: #000000; stroke-opacity: 0.9; stroke-width: 0.8"/>
     <use xlink:href="#md6fd870c80" x="377.503832" y="376.116954" style="fill-opacity: 0.9; stroke: #000000; stroke-opacity: 0.9; stroke-width: 0.8"/>
     <use xlink:href="#md6fd870c80" x="394.389552" y="379.219021" style="fill-opacity: 0.9; stroke: #000000; stroke-opacity: 0.9; stroke-width: 0.8"/>
     <use xlink:href="#md6fd870c80" x="383.891473" y="382.183535" style="fill-opacity: 0.9; stroke: #000000; stroke-opacity: 0.9; stroke-width: 0.8"/>
     <use xlink:href="#md6fd870c80" x="390.357041" y="430.801559" style="fill-opacity: 0.9; stroke: #000000; stroke-opacity: 0.9; stroke-width: 0.8"/>
     <use xlink:href="#md6fd870c80" x="376.171504" y="431.394462" style="fill-opacity: 0.9; stroke: #000000; stroke-opacity: 0.9; stroke-width: 0.8"/>
     <use xlink:href="#md6fd870c80" x="387.760158" y="370.088319" style="fill-opacity: 0.9; stroke: #000000; stroke-opacity: 0.9; stroke-width: 0.8"/>
     <use xlink:href="#md6fd870c80" x="376.298737" y="407.085449" style="fill-opacity: 0.9; stroke: #000000; stroke-opacity: 0.9; stroke-width: 0.8"/>
     <use xlink:href="#md6fd870c80" x="385.609672" y="383.36934" style="fill-opacity: 0.9; stroke: #000000; stroke-opacity: 0.9; stroke-width: 0.8"/>
     <use xlink:href="#md6fd870c80" x="387.601281" y="407.085449" style="fill-opacity: 0.9; stroke: #000000; stroke-opacity: 0.9; stroke-width: 0.8"/>
     <use xlink:href="#md6fd870c80" x="381.201361" y="389.298367" style="fill-opacity: 0.9; stroke: #000000; stroke-opacity: 0.9; stroke-width: 0.8"/>
     <use xlink:href="#md6fd870c80" x="376.964311" y="421.908018" style="fill-opacity: 0.9; stroke: #000000; stroke-opacity: 0.9; stroke-width: 0.8"/>
     <use xlink:href="#md6fd870c80" x="378.187406" y="418.943504" style="fill-opacity: 0.9; stroke: #000000; stroke-opacity: 0.9; stroke-width: 0.8"/>
     <use xlink:href="#md6fd870c80" x="373.733633" y="418.943504" style="fill-opacity: 0.9; stroke: #000000; stroke-opacity: 0.9; stroke-width: 0.8"/>
     <use xlink:href="#md6fd870c80" x="380.312716" y="369.139674" style="fill-opacity: 0.9; stroke: #000000; stroke-opacity: 0.9; stroke-width: 0.8"/>
     <use xlink:href="#md6fd870c80" x="389.044866" y="353.724203" style="fill-opacity: 0.9; stroke: #000000; stroke-opacity: 0.9; stroke-width: 0.8"/>
     <use xlink:href="#md6fd870c80" x="381.312131" y="351.156934" style="fill-opacity: 0.9; stroke: #000000; stroke-opacity: 0.9; stroke-width: 0.8"/>
     <use xlink:href="#md6fd870c80" x="393.066139" y="445.624127" style="fill-opacity: 0.9; stroke: #000000; stroke-opacity: 0.9; stroke-width: 0.8"/>
     <use xlink:href="#md6fd870c80" x="379.765237" y="402.342228" style="fill-opacity: 0.9; stroke: #000000; stroke-opacity: 0.9; stroke-width: 0.8"/>
     <use xlink:href="#md6fd870c80" x="385.190399" y="347.795176" style="fill-opacity: 0.9; stroke: #000000; stroke-opacity: 0.9; stroke-width: 0.8"/>
     <use xlink:href="#md6fd870c80" x="385.773263" y="402.365944" style="fill-opacity: 0.9; stroke: #000000; stroke-opacity: 0.9; stroke-width: 0.8"/>
     <use xlink:href="#md6fd870c80" x="384.586729" y="396.176039" style="fill-opacity: 0.9; stroke: #000000; stroke-opacity: 0.9; stroke-width: 0.8"/>
     <use xlink:href="#md6fd870c80" x="381.593381" y="376.254507" style="fill-opacity: 0.9; stroke: #000000; stroke-opacity: 0.9; stroke-width: 0.8"/>
     <use xlink:href="#md6fd870c80" x="380.827159" y="416.809054" style="fill-opacity: 0.9; stroke: #000000; stroke-opacity: 0.9; stroke-width: 0.8"/>
     <use xlink:href="#md6fd870c80" x="375.053288" y="346.60937" style="fill-opacity: 0.9; stroke: #000000; stroke-opacity: 0.9; stroke-width: 0.8"/>
     <use xlink:href="#md6fd870c80" x="374.152299" y="257.67396" style="fill-opacity: 0.9; stroke: #000000; stroke-opacity: 0.9; stroke-width: 0.8"/>
     <use xlink:href="#md6fd870c80" x="394.64063" y="243.954191" style="fill-opacity: 0.9; stroke: #000000; stroke-opacity: 0.9; stroke-width: 0.8"/>
     <use xlink:href="#md6fd870c80" x="373.902709" y="435.900522" style="fill-opacity: 0.9; stroke: #000000; stroke-opacity: 0.9; stroke-width: 0.8"/>
     <use xlink:href="#md6fd870c80" x="386.532383" y="376.254507" style="fill-opacity: 0.9; stroke: #000000; stroke-opacity: 0.9; stroke-width: 0.8"/>
     <use xlink:href="#md6fd870c80" x="376.659731" y="379.811924" style="fill-opacity: 0.9; stroke: #000000; stroke-opacity: 0.9; stroke-width: 0.8"/>
    </g>
   </g>
   <g id="line2d_11">
    <path d="M 148.54635 337.271152 
L 181.41165 337.271152 
" clip-path="url(#p3ded3332db)" style="fill: none; stroke: #000000"/>
   </g>
   <g id="line2d_12">
    <path d="M 367.64835 379.693343 
L 400.51365 379.693343 
" clip-path="url(#p3ded3332db)" style="fill: none; stroke: #000000"/>
   </g>
   <g id="patch_5">
    <path d="M 55.428 474.892 
L 55.428 26.448 
" style="fill: none; stroke: #262626; stroke-linejoin: miter; stroke-linecap: square"/>
   </g>
   <g id="patch_6">
    <path d="M 55.428 474.892 
L 493.632 474.892 
" style="fill: none; stroke: #262626; stroke-linejoin: miter; stroke-linecap: square"/>
   </g>
   <g id="text_12">
    <!-- LEDD Raincloud Plot -->
    <g style="fill: #262626" transform="translate(208.777031 20.448) scale(0.14 -0.14)">
     <defs>
      <path id="ArialMT-20" transform="scale(0.015625)"/>
      <path id="ArialMT-52" d="M 503 0 
L 503 4581 
L 2534 4581 
Q 3147 4581 3465 4457 
Q 3784 4334 3975 4021 
Q 4166 3709 4166 3331 
Q 4166 2844 3850 2509 
Q 3534 2175 2875 2084 
Q 3116 1969 3241 1856 
Q 3506 1613 3744 1247 
L 4541 0 
L 3778 0 
L 3172 953 
Q 2906 1366 2734 1584 
Q 2563 1803 2427 1890 
Q 2291 1978 2150 2013 
Q 2047 2034 1813 2034 
L 1109 2034 
L 1109 0 
L 503 0 
z
M 1109 2559 
L 2413 2559 
Q 2828 2559 3062 2645 
Q 3297 2731 3419 2920 
Q 3541 3109 3541 3331 
Q 3541 3656 3305 3865 
Q 3069 4075 2559 4075 
L 1109 4075 
L 1109 2559 
z
" transform="scale(0.015625)"/>
      <path id="ArialMT-61" d="M 2588 409 
Q 2275 144 1986 34 
Q 1697 -75 1366 -75 
Q 819 -75 525 192 
Q 231 459 231 875 
Q 231 1119 342 1320 
Q 453 1522 633 1644 
Q 813 1766 1038 1828 
Q 1203 1872 1538 1913 
Q 2219 1994 2541 2106 
Q 2544 2222 2544 2253 
Q 2544 2597 2384 2738 
Q 2169 2928 1744 2928 
Q 1347 2928 1158 2789 
Q 969 2650 878 2297 
L 328 2372 
Q 403 2725 575 2942 
Q 747 3159 1072 3276 
Q 1397 3394 1825 3394 
Q 2250 3394 2515 3294 
Q 2781 3194 2906 3042 
Q 3031 2891 3081 2659 
Q 3109 2516 3109 2141 
L 3109 1391 
Q 3109 606 3145 398 
Q 3181 191 3288 0 
L 2700 0 
Q 2613 175 2588 409 
z
M 2541 1666 
Q 2234 1541 1622 1453 
Q 1275 1403 1131 1340 
Q 988 1278 909 1158 
Q 831 1038 831 891 
Q 831 666 1001 516 
Q 1172 366 1500 366 
Q 1825 366 2078 508 
Q 2331 650 2450 897 
Q 2541 1088 2541 1459 
L 2541 1666 
z
" transform="scale(0.015625)"/>
      <path id="ArialMT-69" d="M 425 3934 
L 425 4581 
L 988 4581 
L 988 3934 
L 425 3934 
z
M 425 0 
L 425 3319 
L 988 3319 
L 988 0 
L 425 0 
z
" transform="scale(0.015625)"/>
      <path id="ArialMT-6e" d="M 422 0 
L 422 3319 
L 928 3319 
L 928 2847 
Q 1294 3394 1984 3394 
Q 2284 3394 2536 3286 
Q 2788 3178 2913 3003 
Q 3038 2828 3088 2588 
Q 3119 2431 3119 2041 
L 3119 0 
L 2556 0 
L 2556 2019 
Q 2556 2363 2490 2533 
Q 2425 2703 2258 2804 
Q 2091 2906 1866 2906 
Q 1506 2906 1245 2678 
Q 984 2450 984 1813 
L 984 0 
L 422 0 
z
" transform="scale(0.015625)"/>
      <path id="ArialMT-63" d="M 2588 1216 
L 3141 1144 
Q 3050 572 2676 248 
Q 2303 -75 1759 -75 
Q 1078 -75 664 370 
Q 250 816 250 1647 
Q 250 2184 428 2587 
Q 606 2991 970 3192 
Q 1334 3394 1763 3394 
Q 2303 3394 2647 3120 
Q 2991 2847 3088 2344 
L 2541 2259 
Q 2463 2594 2264 2762 
Q 2066 2931 1784 2931 
Q 1359 2931 1093 2626 
Q 828 2322 828 1663 
Q 828 994 1084 691 
Q 1341 388 1753 388 
Q 2084 388 2306 591 
Q 2528 794 2588 1216 
z
" transform="scale(0.015625)"/>
      <path id="ArialMT-6c" d="M 409 0 
L 409 4581 
L 972 4581 
L 972 0 
L 409 0 
z
" transform="scale(0.015625)"/>
      <path id="ArialMT-75" d="M 2597 0 
L 2597 488 
Q 2209 -75 1544 -75 
Q 1250 -75 995 37 
Q 741 150 617 320 
Q 494 491 444 738 
Q 409 903 409 1263 
L 409 3319 
L 972 3319 
L 972 1478 
Q 972 1038 1006 884 
Q 1059 663 1231 536 
Q 1403 409 1656 409 
Q 1909 409 2131 539 
Q 2353 669 2445 892 
Q 2538 1116 2538 1541 
L 2538 3319 
L 3100 3319 
L 3100 0 
L 2597 0 
z
" transform="scale(0.015625)"/>
      <path id="ArialMT-64" d="M 2575 0 
L 2575 419 
Q 2259 -75 1647 -75 
Q 1250 -75 917 144 
Q 584 363 401 755 
Q 219 1147 219 1656 
Q 219 2153 384 2558 
Q 550 2963 881 3178 
Q 1213 3394 1622 3394 
Q 1922 3394 2156 3267 
Q 2391 3141 2538 2938 
L 2538 4581 
L 3097 4581 
L 3097 0 
L 2575 0 
z
M 797 1656 
Q 797 1019 1065 703 
Q 1334 388 1700 388 
Q 2069 388 2326 689 
Q 2584 991 2584 1609 
Q 2584 2291 2321 2609 
Q 2059 2928 1675 2928 
Q 1300 2928 1048 2622 
Q 797 2316 797 1656 
z
" transform="scale(0.015625)"/>
     </defs>
     <use xlink:href="#ArialMT-4c"/>
     <use xlink:href="#ArialMT-45" transform="translate(55.615234 0)"/>
     <use xlink:href="#ArialMT-44" transform="translate(122.314453 0)"/>
     <use xlink:href="#ArialMT-44" transform="translate(194.53125 0)"/>
     <use xlink:href="#ArialMT-20" transform="translate(266.748047 0)"/>
     <use xlink:href="#ArialMT-52" transform="translate(294.53125 0)"/>
     <use xlink:href="#ArialMT-61" transform="translate(366.748047 0)"/>
     <use xlink:href="#ArialMT-69" transform="translate(422.363281 0)"/>
     <use xlink:href="#ArialMT-6e" transform="translate(444.580078 0)"/>
     <use xlink:href="#ArialMT-63" transform="translate(500.195312 0)"/>
     <use xlink:href="#ArialMT-6c" transform="translate(550.195312 0)"/>
     <use xlink:href="#ArialMT-6f" transform="translate(572.412109 0)"/>
     <use xlink:href="#ArialMT-75" transform="translate(628.027344 0)"/>
     <use xlink:href="#ArialMT-64" transform="translate(683.642578 0)"/>
     <use xlink:href="#ArialMT-20" transform="translate(739.257812 0)"/>
     <use xlink:href="#ArialMT-50" transform="translate(767.041016 0)"/>
     <use xlink:href="#ArialMT-6c" transform="translate(833.740234 0)"/>
     <use xlink:href="#ArialMT-6f" transform="translate(855.957031 0)"/>
     <use xlink:href="#ArialMT-74" transform="translate(911.572266 0)"/>
    </g>
   </g>
  </g>
 </g>
 <defs>
  <clipPath id="p3ded3332db">
   <rect x="55.428" y="26.448" width="438.204" height="448.444"/>
  </clipPath>
 </defs>
</svg>
