<?xml version="1.0" encoding="utf-8" standalone="no"?>
<!DOCTYPE svg PUBLIC "-//W3C//DTD SVG 1.1//EN"
  "http://www.w3.org/Graphics/SVG/1.1/DTD/svg11.dtd">
<svg xmlns:xlink="http://www.w3.org/1999/xlink" width="504pt" height="504pt" viewBox="0 0 504 504" xmlns="http://www.w3.org/2000/svg" version="1.1">
 <metadata>
  <rdf:RDF xmlns:dc="http://purl.org/dc/elements/1.1/" xmlns:cc="http://creativecommons.org/ns#" xmlns:rdf="http://www.w3.org/1999/02/22-rdf-syntax-ns#">
   <cc:Work>
    <dc:type rdf:resource="http://purl.org/dc/dcmitype/StillImage"/>
    <dc:date>2025-07-06T11:18:50.226453</dc:date>
    <dc:format>image/svg+xml</dc:format>
    <dc:creator>
     <cc:Agent>
      <dc:title>Matplotlib v3.10.0, https://matplotlib.org/</dc:title>
     </cc:Agent>
    </dc:creator>
   </cc:Work>
  </rdf:RDF>
 </metadata>
 <defs>
  <style type="text/css">*{stroke-linejoin: round; stroke-linecap: butt}</style>
 </defs>
 <g id="figure_1">
  <g id="patch_1">
   <path d="M 0 504 
L 504 504 
L 504 0 
L 0 0 
z
" style="fill: #ffffff"/>
  </g>
  <g id="axes_1">
   <g id="patch_2">
    <path d="M 44.268 474.892 
L 493.632 474.892 
L 493.632 26.448 
L 44.268 26.448 
z
" style="fill: #ffffff"/>
   </g>
   <g id="matplotlib.axis_1">
    <g id="xtick_1">
     <g id="text_1">
      <!-- Pre OFF -->
      <g style="fill: #262626" transform="translate(98.078953 491.065594) scale(0.11 -0.11)">
       <defs>
        <path id="ArialMT-50" d="M 494 0 
L 494 4581 
L 2222 4581 
Q 2678 4581 2919 4538 
Q 3256 4481 3484 4323 
Q 3713 4166 3852 3881 
Q 3991 3597 3991 3256 
Q 3991 2672 3619 2267 
Q 3247 1863 2275 1863 
L 1100 1863 
L 1100 0 
L 494 0 
z
M 1100 2403 
L 2284 2403 
Q 2872 2403 3119 2622 
Q 3366 2841 3366 3238 
Q 3366 3525 3220 3729 
Q 3075 3934 2838 4000 
Q 2684 4041 2272 4041 
L 1100 4041 
L 1100 2403 
z
" transform="scale(0.015625)"/>
        <path id="ArialMT-72" d="M 416 0 
L 416 3319 
L 922 3319 
L 922 2816 
Q 1116 3169 1280 3281 
Q 1444 3394 1641 3394 
Q 1925 3394 2219 3213 
L 2025 2691 
Q 1819 2813 1613 2813 
Q 1428 2813 1281 2702 
Q 1134 2591 1072 2394 
Q 978 2094 978 1738 
L 978 0 
L 416 0 
z
" transform="scale(0.015625)"/>
        <path id="ArialMT-65" d="M 2694 1069 
L 3275 997 
Q 3138 488 2766 206 
Q 2394 -75 1816 -75 
Q 1088 -75 661 373 
Q 234 822 234 1631 
Q 234 2469 665 2931 
Q 1097 3394 1784 3394 
Q 2450 3394 2872 2941 
Q 3294 2488 3294 1666 
Q 3294 1616 3291 1516 
L 816 1516 
Q 847 969 1125 678 
Q 1403 388 1819 388 
Q 2128 388 2347 550 
Q 2566 713 2694 1069 
z
M 847 1978 
L 2700 1978 
Q 2663 2397 2488 2606 
Q 2219 2931 1791 2931 
Q 1403 2931 1139 2672 
Q 875 2413 847 1978 
z
" transform="scale(0.015625)"/>
        <path id="ArialMT-20" transform="scale(0.015625)"/>
        <path id="ArialMT-4f" d="M 309 2231 
Q 309 3372 921 4017 
Q 1534 4663 2503 4663 
Q 3138 4663 3647 4359 
Q 4156 4056 4423 3514 
Q 4691 2972 4691 2284 
Q 4691 1588 4409 1038 
Q 4128 488 3612 205 
Q 3097 -78 2500 -78 
Q 1853 -78 1343 234 
Q 834 547 571 1087 
Q 309 1628 309 2231 
z
M 934 2222 
Q 934 1394 1379 917 
Q 1825 441 2497 441 
Q 3181 441 3623 922 
Q 4066 1403 4066 2288 
Q 4066 2847 3877 3264 
Q 3688 3681 3323 3911 
Q 2959 4141 2506 4141 
Q 1863 4141 1398 3698 
Q 934 3256 934 2222 
z
" transform="scale(0.015625)"/>
        <path id="ArialMT-46" d="M 525 0 
L 525 4581 
L 3616 4581 
L 3616 4041 
L 1131 4041 
L 1131 2622 
L 3281 2622 
L 3281 2081 
L 1131 2081 
L 1131 0 
L 525 0 
z
" transform="scale(0.015625)"/>
       </defs>
       <use xlink:href="#ArialMT-50"/>
       <use xlink:href="#ArialMT-72" transform="translate(66.699219 0)"/>
       <use xlink:href="#ArialMT-65" transform="translate(100 0)"/>
       <use xlink:href="#ArialMT-20" transform="translate(155.615234 0)"/>
       <use xlink:href="#ArialMT-4f" transform="translate(183.398438 0)"/>
       <use xlink:href="#ArialMT-46" transform="translate(261.181641 0)"/>
       <use xlink:href="#ArialMT-46" transform="translate(322.265625 0)"/>
      </g>
     </g>
    </g>
    <g id="xtick_2">
     <g id="text_2">
      <!-- Pre ON -->
      <g style="fill: #262626" transform="translate(250.613516 491.065594) scale(0.11 -0.11)">
       <defs>
        <path id="ArialMT-4e" d="M 488 0 
L 488 4581 
L 1109 4581 
L 3516 984 
L 3516 4581 
L 4097 4581 
L 4097 0 
L 3475 0 
L 1069 3600 
L 1069 0 
L 488 0 
z
" transform="scale(0.015625)"/>
       </defs>
       <use xlink:href="#ArialMT-50"/>
       <use xlink:href="#ArialMT-72" transform="translate(66.699219 0)"/>
       <use xlink:href="#ArialMT-65" transform="translate(100 0)"/>
       <use xlink:href="#ArialMT-20" transform="translate(155.615234 0)"/>
       <use xlink:href="#ArialMT-4f" transform="translate(183.398438 0)"/>
       <use xlink:href="#ArialMT-4e" transform="translate(261.181641 0)"/>
      </g>
     </g>
    </g>
    <g id="xtick_3">
     <g id="text_3">
      <!-- Post ON/Stim On -->
      <g style="fill: #262626" transform="translate(376.562453 491.065594) scale(0.11 -0.11)">
       <defs>
        <path id="ArialMT-6f" d="M 213 1659 
Q 213 2581 725 3025 
Q 1153 3394 1769 3394 
Q 2453 3394 2887 2945 
Q 3322 2497 3322 1706 
Q 3322 1066 3130 698 
Q 2938 331 2570 128 
Q 2203 -75 1769 -75 
Q 1072 -75 642 372 
Q 213 819 213 1659 
z
M 791 1659 
Q 791 1022 1069 705 
Q 1347 388 1769 388 
Q 2188 388 2466 706 
Q 2744 1025 2744 1678 
Q 2744 2294 2464 2611 
Q 2184 2928 1769 2928 
Q 1347 2928 1069 2612 
Q 791 2297 791 1659 
z
" transform="scale(0.015625)"/>
        <path id="ArialMT-73" d="M 197 991 
L 753 1078 
Q 800 744 1014 566 
Q 1228 388 1613 388 
Q 2000 388 2187 545 
Q 2375 703 2375 916 
Q 2375 1106 2209 1216 
Q 2094 1291 1634 1406 
Q 1016 1563 777 1677 
Q 538 1791 414 1992 
Q 291 2194 291 2438 
Q 291 2659 392 2848 
Q 494 3038 669 3163 
Q 800 3259 1026 3326 
Q 1253 3394 1513 3394 
Q 1903 3394 2198 3281 
Q 2494 3169 2634 2976 
Q 2775 2784 2828 2463 
L 2278 2388 
Q 2241 2644 2061 2787 
Q 1881 2931 1553 2931 
Q 1166 2931 1000 2803 
Q 834 2675 834 2503 
Q 834 2394 903 2306 
Q 972 2216 1119 2156 
Q 1203 2125 1616 2013 
Q 2213 1853 2448 1751 
Q 2684 1650 2818 1456 
Q 2953 1263 2953 975 
Q 2953 694 2789 445 
Q 2625 197 2315 61 
Q 2006 -75 1616 -75 
Q 969 -75 630 194 
Q 291 463 197 991 
z
" transform="scale(0.015625)"/>
        <path id="ArialMT-74" d="M 1650 503 
L 1731 6 
Q 1494 -44 1306 -44 
Q 1000 -44 831 53 
Q 663 150 594 308 
Q 525 466 525 972 
L 525 2881 
L 113 2881 
L 113 3319 
L 525 3319 
L 525 4141 
L 1084 4478 
L 1084 3319 
L 1650 3319 
L 1650 2881 
L 1084 2881 
L 1084 941 
Q 1084 700 1114 631 
Q 1144 563 1211 522 
Q 1278 481 1403 481 
Q 1497 481 1650 503 
z
" transform="scale(0.015625)"/>
        <path id="ArialMT-2f" d="M 0 -78 
L 1328 4659 
L 1778 4659 
L 453 -78 
L 0 -78 
z
" transform="scale(0.015625)"/>
        <path id="ArialMT-53" d="M 288 1472 
L 859 1522 
Q 900 1178 1048 958 
Q 1197 738 1509 602 
Q 1822 466 2213 466 
Q 2559 466 2825 569 
Q 3091 672 3220 851 
Q 3350 1031 3350 1244 
Q 3350 1459 3225 1620 
Q 3100 1781 2813 1891 
Q 2628 1963 1997 2114 
Q 1366 2266 1113 2400 
Q 784 2572 623 2826 
Q 463 3081 463 3397 
Q 463 3744 659 4045 
Q 856 4347 1234 4503 
Q 1613 4659 2075 4659 
Q 2584 4659 2973 4495 
Q 3363 4331 3572 4012 
Q 3781 3694 3797 3291 
L 3216 3247 
Q 3169 3681 2898 3903 
Q 2628 4125 2100 4125 
Q 1550 4125 1298 3923 
Q 1047 3722 1047 3438 
Q 1047 3191 1225 3031 
Q 1400 2872 2139 2705 
Q 2878 2538 3153 2413 
Q 3553 2228 3743 1945 
Q 3934 1663 3934 1294 
Q 3934 928 3725 604 
Q 3516 281 3123 101 
Q 2731 -78 2241 -78 
Q 1619 -78 1198 103 
Q 778 284 539 648 
Q 300 1013 288 1472 
z
" transform="scale(0.015625)"/>
        <path id="ArialMT-69" d="M 425 3934 
L 425 4581 
L 988 4581 
L 988 3934 
L 425 3934 
z
M 425 0 
L 425 3319 
L 988 3319 
L 988 0 
L 425 0 
z
" transform="scale(0.015625)"/>
        <path id="ArialMT-6d" d="M 422 0 
L 422 3319 
L 925 3319 
L 925 2853 
Q 1081 3097 1340 3245 
Q 1600 3394 1931 3394 
Q 2300 3394 2536 3241 
Q 2772 3088 2869 2813 
Q 3263 3394 3894 3394 
Q 4388 3394 4653 3120 
Q 4919 2847 4919 2278 
L 4919 0 
L 4359 0 
L 4359 2091 
Q 4359 2428 4304 2576 
Q 4250 2725 4106 2815 
Q 3963 2906 3769 2906 
Q 3419 2906 3187 2673 
Q 2956 2441 2956 1928 
L 2956 0 
L 2394 0 
L 2394 2156 
Q 2394 2531 2256 2718 
Q 2119 2906 1806 2906 
Q 1569 2906 1367 2781 
Q 1166 2656 1075 2415 
Q 984 2175 984 1722 
L 984 0 
L 422 0 
z
" transform="scale(0.015625)"/>
        <path id="ArialMT-6e" d="M 422 0 
L 422 3319 
L 928 3319 
L 928 2847 
Q 1294 3394 1984 3394 
Q 2284 3394 2536 3286 
Q 2788 3178 2913 3003 
Q 3038 2828 3088 2588 
Q 3119 2431 3119 2041 
L 3119 0 
L 2556 0 
L 2556 2019 
Q 2556 2363 2490 2533 
Q 2425 2703 2258 2804 
Q 2091 2906 1866 2906 
Q 1506 2906 1245 2678 
Q 984 2450 984 1813 
L 984 0 
L 422 0 
z
" transform="scale(0.015625)"/>
       </defs>
       <use xlink:href="#ArialMT-50"/>
       <use xlink:href="#ArialMT-6f" transform="translate(66.699219 0)"/>
       <use xlink:href="#ArialMT-73" transform="translate(122.314453 0)"/>
       <use xlink:href="#ArialMT-74" transform="translate(172.314453 0)"/>
       <use xlink:href="#ArialMT-20" transform="translate(200.097656 0)"/>
       <use xlink:href="#ArialMT-4f" transform="translate(227.880859 0)"/>
       <use xlink:href="#ArialMT-4e" transform="translate(305.664062 0)"/>
       <use xlink:href="#ArialMT-2f" transform="translate(377.880859 0)"/>
       <use xlink:href="#ArialMT-53" transform="translate(405.664062 0)"/>
       <use xlink:href="#ArialMT-74" transform="translate(472.363281 0)"/>
       <use xlink:href="#ArialMT-69" transform="translate(500.146484 0)"/>
       <use xlink:href="#ArialMT-6d" transform="translate(522.363281 0)"/>
       <use xlink:href="#ArialMT-20" transform="translate(605.664062 0)"/>
       <use xlink:href="#ArialMT-4f" transform="translate(633.447266 0)"/>
       <use xlink:href="#ArialMT-6e" transform="translate(711.230469 0)"/>
      </g>
     </g>
    </g>
   </g>
   <g id="matplotlib.axis_2">
    <g id="ytick_1">
     <g id="text_4">
      <!-- 0 -->
      <g style="fill: #262626" transform="translate(30.407062 463.995441) scale(0.1 -0.1)">
       <defs>
        <path id="ArialMT-30" d="M 266 2259 
Q 266 3072 433 3567 
Q 600 4063 929 4331 
Q 1259 4600 1759 4600 
Q 2128 4600 2406 4451 
Q 2684 4303 2865 4023 
Q 3047 3744 3150 3342 
Q 3253 2941 3253 2259 
Q 3253 1453 3087 958 
Q 2922 463 2592 192 
Q 2263 -78 1759 -78 
Q 1097 -78 719 397 
Q 266 969 266 2259 
z
M 844 2259 
Q 844 1131 1108 757 
Q 1372 384 1759 384 
Q 2147 384 2411 759 
Q 2675 1134 2675 2259 
Q 2675 3391 2411 3762 
Q 2147 4134 1753 4134 
Q 1366 4134 1134 3806 
Q 844 3388 844 2259 
z
" transform="scale(0.015625)"/>
       </defs>
       <use xlink:href="#ArialMT-30"/>
      </g>
     </g>
    </g>
    <g id="ytick_2">
     <g id="text_5">
      <!-- 10 -->
      <g style="fill: #262626" transform="translate(24.846125 404.91191) scale(0.1 -0.1)">
       <defs>
        <path id="ArialMT-31" d="M 2384 0 
L 1822 0 
L 1822 3584 
Q 1619 3391 1289 3197 
Q 959 3003 697 2906 
L 697 3450 
Q 1169 3672 1522 3987 
Q 1875 4303 2022 4600 
L 2384 4600 
L 2384 0 
z
" transform="scale(0.015625)"/>
       </defs>
       <use xlink:href="#ArialMT-31"/>
       <use xlink:href="#ArialMT-30" transform="translate(55.615234 0)"/>
      </g>
     </g>
    </g>
    <g id="ytick_3">
     <g id="text_6">
      <!-- 20 -->
      <g style="fill: #262626" transform="translate(24.846125 345.828379) scale(0.1 -0.1)">
       <defs>
        <path id="ArialMT-32" d="M 3222 541 
L 3222 0 
L 194 0 
Q 188 203 259 391 
Q 375 700 629 1000 
Q 884 1300 1366 1694 
Q 2113 2306 2375 2664 
Q 2638 3022 2638 3341 
Q 2638 3675 2398 3904 
Q 2159 4134 1775 4134 
Q 1369 4134 1125 3890 
Q 881 3647 878 3216 
L 300 3275 
Q 359 3922 746 4261 
Q 1134 4600 1788 4600 
Q 2447 4600 2831 4234 
Q 3216 3869 3216 3328 
Q 3216 3053 3103 2787 
Q 2991 2522 2730 2228 
Q 2469 1934 1863 1422 
Q 1356 997 1212 845 
Q 1069 694 975 541 
L 3222 541 
z
" transform="scale(0.015625)"/>
       </defs>
       <use xlink:href="#ArialMT-32"/>
       <use xlink:href="#ArialMT-30" transform="translate(55.615234 0)"/>
      </g>
     </g>
    </g>
    <g id="ytick_4">
     <g id="text_7">
      <!-- 30 -->
      <g style="fill: #262626" transform="translate(24.846125 286.744848) scale(0.1 -0.1)">
       <defs>
        <path id="ArialMT-33" d="M 269 1209 
L 831 1284 
Q 928 806 1161 595 
Q 1394 384 1728 384 
Q 2125 384 2398 659 
Q 2672 934 2672 1341 
Q 2672 1728 2419 1979 
Q 2166 2231 1775 2231 
Q 1616 2231 1378 2169 
L 1441 2663 
Q 1497 2656 1531 2656 
Q 1891 2656 2178 2843 
Q 2466 3031 2466 3422 
Q 2466 3731 2256 3934 
Q 2047 4138 1716 4138 
Q 1388 4138 1169 3931 
Q 950 3725 888 3313 
L 325 3413 
Q 428 3978 793 4289 
Q 1159 4600 1703 4600 
Q 2078 4600 2393 4439 
Q 2709 4278 2876 4000 
Q 3044 3722 3044 3409 
Q 3044 3113 2884 2869 
Q 2725 2625 2413 2481 
Q 2819 2388 3044 2092 
Q 3269 1797 3269 1353 
Q 3269 753 2831 336 
Q 2394 -81 1725 -81 
Q 1122 -81 723 278 
Q 325 638 269 1209 
z
" transform="scale(0.015625)"/>
       </defs>
       <use xlink:href="#ArialMT-33"/>
       <use xlink:href="#ArialMT-30" transform="translate(55.615234 0)"/>
      </g>
     </g>
    </g>
    <g id="ytick_5">
     <g id="text_8">
      <!-- 40 -->
      <g style="fill: #262626" transform="translate(24.846125 227.661317) scale(0.1 -0.1)">
       <defs>
        <path id="ArialMT-34" d="M 2069 0 
L 2069 1097 
L 81 1097 
L 81 1613 
L 2172 4581 
L 2631 4581 
L 2631 1613 
L 3250 1613 
L 3250 1097 
L 2631 1097 
L 2631 0 
L 2069 0 
z
M 2069 1613 
L 2069 3678 
L 634 1613 
L 2069 1613 
z
" transform="scale(0.015625)"/>
       </defs>
       <use xlink:href="#ArialMT-34"/>
       <use xlink:href="#ArialMT-30" transform="translate(55.615234 0)"/>
      </g>
     </g>
    </g>
    <g id="ytick_6">
     <g id="text_9">
      <!-- 50 -->
      <g style="fill: #262626" transform="translate(24.846125 168.577786) scale(0.1 -0.1)">
       <defs>
        <path id="ArialMT-35" d="M 266 1200 
L 856 1250 
Q 922 819 1161 601 
Q 1400 384 1738 384 
Q 2144 384 2425 690 
Q 2706 997 2706 1503 
Q 2706 1984 2436 2262 
Q 2166 2541 1728 2541 
Q 1456 2541 1237 2417 
Q 1019 2294 894 2097 
L 366 2166 
L 809 4519 
L 3088 4519 
L 3088 3981 
L 1259 3981 
L 1013 2750 
Q 1425 3038 1878 3038 
Q 2478 3038 2890 2622 
Q 3303 2206 3303 1553 
Q 3303 931 2941 478 
Q 2500 -78 1738 -78 
Q 1113 -78 717 272 
Q 322 622 266 1200 
z
" transform="scale(0.015625)"/>
       </defs>
       <use xlink:href="#ArialMT-35"/>
       <use xlink:href="#ArialMT-30" transform="translate(55.615234 0)"/>
      </g>
     </g>
    </g>
    <g id="ytick_7">
     <g id="text_10">
      <!-- 60 -->
      <g style="fill: #262626" transform="translate(24.846125 109.494255) scale(0.1 -0.1)">
       <defs>
        <path id="ArialMT-36" d="M 3184 3459 
L 2625 3416 
Q 2550 3747 2413 3897 
Q 2184 4138 1850 4138 
Q 1581 4138 1378 3988 
Q 1113 3794 959 3422 
Q 806 3050 800 2363 
Q 1003 2672 1297 2822 
Q 1591 2972 1913 2972 
Q 2475 2972 2870 2558 
Q 3266 2144 3266 1488 
Q 3266 1056 3080 686 
Q 2894 316 2569 119 
Q 2244 -78 1831 -78 
Q 1128 -78 684 439 
Q 241 956 241 2144 
Q 241 3472 731 4075 
Q 1159 4600 1884 4600 
Q 2425 4600 2770 4297 
Q 3116 3994 3184 3459 
z
M 888 1484 
Q 888 1194 1011 928 
Q 1134 663 1356 523 
Q 1578 384 1822 384 
Q 2178 384 2434 671 
Q 2691 959 2691 1453 
Q 2691 1928 2437 2201 
Q 2184 2475 1800 2475 
Q 1419 2475 1153 2201 
Q 888 1928 888 1484 
z
" transform="scale(0.015625)"/>
       </defs>
       <use xlink:href="#ArialMT-36"/>
       <use xlink:href="#ArialMT-30" transform="translate(55.615234 0)"/>
      </g>
     </g>
    </g>
    <g id="ytick_8">
     <g id="text_11">
      <!-- 70 -->
      <g style="fill: #262626" transform="translate(24.846125 50.410724) scale(0.1 -0.1)">
       <defs>
        <path id="ArialMT-37" d="M 303 3981 
L 303 4522 
L 3269 4522 
L 3269 4084 
Q 2831 3619 2401 2847 
Q 1972 2075 1738 1259 
Q 1569 684 1522 0 
L 944 0 
Q 953 541 1156 1306 
Q 1359 2072 1739 2783 
Q 2119 3494 2547 3981 
L 303 3981 
z
" transform="scale(0.015625)"/>
       </defs>
       <use xlink:href="#ArialMT-37"/>
       <use xlink:href="#ArialMT-30" transform="translate(55.615234 0)"/>
      </g>
     </g>
    </g>
    <g id="text_12">
     <!-- MDS-UPDRS III -->
     <g style="fill: #262626" transform="translate(18.659875 290.088672) rotate(-90) scale(0.11 -0.11)">
      <defs>
       <path id="ArialMT-4d" d="M 475 0 
L 475 4581 
L 1388 4581 
L 2472 1338 
Q 2622 884 2691 659 
Q 2769 909 2934 1394 
L 4031 4581 
L 4847 4581 
L 4847 0 
L 4263 0 
L 4263 3834 
L 2931 0 
L 2384 0 
L 1059 3900 
L 1059 0 
L 475 0 
z
" transform="scale(0.015625)"/>
       <path id="ArialMT-44" d="M 494 0 
L 494 4581 
L 2072 4581 
Q 2606 4581 2888 4516 
Q 3281 4425 3559 4188 
Q 3922 3881 4101 3404 
Q 4281 2928 4281 2316 
Q 4281 1794 4159 1391 
Q 4038 988 3847 723 
Q 3656 459 3429 307 
Q 3203 156 2883 78 
Q 2563 0 2147 0 
L 494 0 
z
M 1100 541 
L 2078 541 
Q 2531 541 2789 625 
Q 3047 709 3200 863 
Q 3416 1078 3536 1442 
Q 3656 1806 3656 2325 
Q 3656 3044 3420 3430 
Q 3184 3816 2847 3947 
Q 2603 4041 2063 4041 
L 1100 4041 
L 1100 541 
z
" transform="scale(0.015625)"/>
       <path id="ArialMT-2d" d="M 203 1375 
L 203 1941 
L 1931 1941 
L 1931 1375 
L 203 1375 
z
" transform="scale(0.015625)"/>
       <path id="ArialMT-55" d="M 3500 4581 
L 4106 4581 
L 4106 1934 
Q 4106 1244 3950 837 
Q 3794 431 3386 176 
Q 2978 -78 2316 -78 
Q 1672 -78 1262 144 
Q 853 366 678 786 
Q 503 1206 503 1934 
L 503 4581 
L 1109 4581 
L 1109 1938 
Q 1109 1341 1220 1058 
Q 1331 775 1601 622 
Q 1872 469 2263 469 
Q 2931 469 3215 772 
Q 3500 1075 3500 1938 
L 3500 4581 
z
" transform="scale(0.015625)"/>
       <path id="ArialMT-52" d="M 503 0 
L 503 4581 
L 2534 4581 
Q 3147 4581 3465 4457 
Q 3784 4334 3975 4021 
Q 4166 3709 4166 3331 
Q 4166 2844 3850 2509 
Q 3534 2175 2875 2084 
Q 3116 1969 3241 1856 
Q 3506 1613 3744 1247 
L 4541 0 
L 3778 0 
L 3172 953 
Q 2906 1366 2734 1584 
Q 2563 1803 2427 1890 
Q 2291 1978 2150 2013 
Q 2047 2034 1813 2034 
L 1109 2034 
L 1109 0 
L 503 0 
z
M 1109 2559 
L 2413 2559 
Q 2828 2559 3062 2645 
Q 3297 2731 3419 2920 
Q 3541 3109 3541 3331 
Q 3541 3656 3305 3865 
Q 3069 4075 2559 4075 
L 1109 4075 
L 1109 2559 
z
" transform="scale(0.015625)"/>
       <path id="ArialMT-49" d="M 597 0 
L 597 4581 
L 1203 4581 
L 1203 0 
L 597 0 
z
" transform="scale(0.015625)"/>
      </defs>
      <use xlink:href="#ArialMT-4d"/>
      <use xlink:href="#ArialMT-44" transform="translate(83.300781 0)"/>
      <use xlink:href="#ArialMT-53" transform="translate(155.517578 0)"/>
      <use xlink:href="#ArialMT-2d" transform="translate(222.216797 0)"/>
      <use xlink:href="#ArialMT-55" transform="translate(255.517578 0)"/>
      <use xlink:href="#ArialMT-50" transform="translate(327.734375 0)"/>
      <use xlink:href="#ArialMT-44" transform="translate(394.433594 0)"/>
      <use xlink:href="#ArialMT-52" transform="translate(466.650391 0)"/>
      <use xlink:href="#ArialMT-53" transform="translate(538.867188 0)"/>
      <use xlink:href="#ArialMT-20" transform="translate(605.566406 0)"/>
      <use xlink:href="#ArialMT-49" transform="translate(633.349609 0)"/>
      <use xlink:href="#ArialMT-49" transform="translate(661.132812 0)"/>
      <use xlink:href="#ArialMT-49" transform="translate(688.916016 0)"/>
     </g>
    </g>
   </g>
   <g id="FillBetweenPolyCollection_1">
    <defs>
     <path id="m594a7547f0" d="M 108.073298 -149.933821 
L 97.481994 -149.933821 
L 96.629483 -153.037198 
L 95.745463 -156.140576 
L 94.831362 -159.243953 
L 93.888699 -162.34733 
L 92.919105 -165.450708 
L 91.924342 -168.554085 
L 90.906343 -171.657463 
L 89.867254 -174.76084 
L 88.809482 -177.864217 
L 87.735756 -180.967595 
L 86.649177 -184.070972 
L 85.553275 -187.174349 
L 84.45205 -190.277727 
L 83.350013 -193.381104 
L 82.252201 -196.484482 
L 81.164182 -199.587859 
L 80.092032 -202.691236 
L 79.042298 -205.794614 
L 78.021923 -208.897991 
L 77.038154 -212.001368 
L 76.098424 -215.104746 
L 75.210208 -218.208123 
L 74.380858 -221.311501 
L 73.617427 -224.414878 
L 72.926478 -227.518255 
L 72.313886 -230.621633 
L 71.784649 -233.72501 
L 71.342702 -236.828388 
L 70.990753 -239.931765 
L 70.730145 -243.035142 
L 70.56075 -246.13852 
L 70.4809 -249.241897 
L 70.487373 -252.345274 
L 70.575416 -255.448652 
L 70.738833 -258.552029 
L 70.970118 -261.655407 
L 71.260636 -264.758784 
L 71.600856 -267.862161 
L 71.980623 -270.965539 
L 72.389448 -274.068916 
L 72.816837 -277.172294 
L 73.252606 -280.275671 
L 73.687208 -283.379048 
L 74.112029 -286.482426 
L 74.519658 -289.585803 
L 74.904115 -292.68918 
L 75.261022 -295.792558 
L 75.587718 -298.895935 
L 75.883305 -301.999313 
L 76.148627 -305.10269 
L 76.386184 -308.206067 
L 76.599983 -311.309445 
L 76.795332 -314.412822 
L 76.978588 -317.5162 
L 77.156871 -320.619577 
L 77.337754 -323.722954 
L 77.528941 -326.826332 
L 77.737957 -329.929709 
L 77.971848 -333.033086 
L 78.236915 -336.136464 
L 78.538483 -339.239841 
L 78.880718 -342.343219 
L 79.266503 -345.446596 
L 79.697358 -348.549973 
L 80.173429 -351.653351 
L 80.693518 -354.756728 
L 81.255173 -357.860106 
L 81.854815 -360.963483 
L 82.487906 -364.06686 
L 83.14914 -367.170238 
L 83.832651 -370.273615 
L 84.532242 -373.376992 
L 85.241594 -376.48037 
L 85.954491 -379.583747 
L 86.665005 -382.687125 
L 87.367683 -385.790502 
L 88.05769 -388.893879 
L 88.730935 -391.997257 
L 89.384152 -395.100634 
L 90.014963 -398.204012 
L 90.621893 -401.307389 
L 91.204364 -404.410766 
L 91.76265 -407.514144 
L 92.297815 -410.617521 
L 92.811615 -413.720898 
L 93.306387 -416.824276 
L 93.784924 -419.927653 
L 94.250334 -423.031031 
L 94.705896 -426.134408 
L 95.154916 -429.237785 
L 95.60059 -432.341163 
L 96.045868 -435.44454 
L 96.49334 -438.547918 
L 96.945141 -441.651295 
L 97.402867 -444.754672 
L 97.867525 -447.85805 
L 98.339502 -450.961427 
L 98.818561 -454.064804 
L 99.303865 -457.168182 
L 108.073298 -457.168182 
L 108.073298 -457.168182 
L 108.073298 -454.064804 
L 108.073298 -450.961427 
L 108.073298 -447.85805 
L 108.073298 -444.754672 
L 108.073298 -441.651295 
L 108.073298 -438.547918 
L 108.073298 -435.44454 
L 108.073298 -432.341163 
L 108.073298 -429.237785 
L 108.073298 -426.134408 
L 108.073298 -423.031031 
L 108.073298 -419.927653 
L 108.073298 -416.824276 
L 108.073298 -413.720898 
L 108.073298 -410.617521 
L 108.073298 -407.514144 
L 108.073298 -404.410766 
L 108.073298 -401.307389 
L 108.073298 -398.204012 
L 108.073298 -395.100634 
L 108.073298 -391.997257 
L 108.073298 -388.893879 
L 108.073298 -385.790502 
L 108.073298 -382.687125 
L 108.073298 -379.583747 
L 108.073298 -376.48037 
L 108.073298 -373.376992 
L 108.073298 -370.273615 
L 108.073298 -367.170238 
L 108.073298 -364.06686 
L 108.073298 -360.963483 
L 108.073298 -357.860106 
L 108.073298 -354.756728 
L 108.073298 -351.653351 
L 108.073298 -348.549973 
L 108.073298 -345.446596 
L 108.073298 -342.343219 
L 108.073298 -339.239841 
L 108.073298 -336.136464 
L 108.073298 -333.033086 
L 108.073298 -329.929709 
L 108.073298 -326.826332 
L 108.073298 -323.722954 
L 108.073298 -320.619577 
L 108.073298 -317.5162 
L 108.073298 -314.412822 
L 108.073298 -311.309445 
L 108.073298 -308.206067 
L 108.073298 -305.10269 
L 108.073298 -301.999313 
L 108.073298 -298.895935 
L 108.073298 -295.792558 
L 108.073298 -292.68918 
L 108.073298 -289.585803 
L 108.073298 -286.482426 
L 108.073298 -283.379048 
L 108.073298 -280.275671 
L 108.073298 -277.172294 
L 108.073298 -274.068916 
L 108.073298 -270.965539 
L 108.073298 -267.862161 
L 108.073298 -264.758784 
L 108.073298 -261.655407 
L 108.073298 -258.552029 
L 108.073298 -255.448652 
L 108.073298 -252.345274 
L 108.073298 -249.241897 
L 108.073298 -246.13852 
L 108.073298 -243.035142 
L 108.073298 -239.931765 
L 108.073298 -236.828388 
L 108.073298 -233.72501 
L 108.073298 -230.621633 
L 108.073298 -227.518255 
L 108.073298 -224.414878 
L 108.073298 -221.311501 
L 108.073298 -218.208123 
L 108.073298 -215.104746 
L 108.073298 -212.001368 
L 108.073298 -208.897991 
L 108.073298 -205.794614 
L 108.073298 -202.691236 
L 108.073298 -199.587859 
L 108.073298 -196.484482 
L 108.073298 -193.381104 
L 108.073298 -190.277727 
L 108.073298 -187.174349 
L 108.073298 -184.070972 
L 108.073298 -180.967595 
L 108.073298 -177.864217 
L 108.073298 -174.76084 
L 108.073298 -171.657463 
L 108.073298 -168.554085 
L 108.073298 -165.450708 
L 108.073298 -162.34733 
L 108.073298 -159.243953 
L 108.073298 -156.140576 
L 108.073298 -153.037198 
L 108.073298 -149.933821 
z
"/>
    </defs>
    <g clip-path="url(#p08b69c2e5c)">
     <use xlink:href="#m594a7547f0" x="0" y="504" style="fill: #5875a4"/>
    </g>
   </g>
   <g id="FillBetweenPolyCollection_2">
    <defs>
     <path id="m04d665893e" d="M 257.839333 -61.308524 
L 246.530671 -61.308524 
L 245.598586 -63.755418 
L 244.628868 -66.202312 
L 243.621572 -68.649205 
L 242.576969 -71.096099 
L 241.495725 -73.542993 
L 240.379102 -75.989887 
L 239.229154 -78.43678 
L 238.048914 -80.883674 
L 236.842546 -83.330568 
L 235.615452 -85.777461 
L 234.374322 -88.224355 
L 233.127114 -90.671249 
L 231.882957 -93.118143 
L 230.651989 -95.565036 
L 229.445117 -98.01193 
L 228.273726 -100.458824 
L 227.149343 -102.905717 
L 226.083269 -105.352611 
L 225.086209 -107.799505 
L 224.167917 -110.246399 
L 223.336864 -112.693292 
L 222.599969 -115.140186 
L 221.962379 -117.58708 
L 221.427336 -120.033973 
L 220.996111 -122.480867 
L 220.668023 -124.927761 
L 220.440532 -127.374654 
L 220.309399 -129.821548 
L 220.2689 -132.268442 
L 220.31208 -134.715336 
L 220.431042 -137.162229 
L 220.617239 -139.609123 
L 220.861769 -142.056017 
L 221.155659 -144.50291 
L 221.490115 -146.949804 
L 221.856752 -149.396698 
L 222.247776 -151.843592 
L 222.656135 -154.290485 
L 223.07563 -156.737379 
L 223.500987 -159.184273 
L 223.927896 -161.631166 
L 224.353031 -164.07806 
L 224.774041 -166.524954 
L 225.189522 -168.971847 
L 225.598983 -171.418741 
L 226.002798 -173.865635 
L 226.402154 -176.312529 
L 226.798986 -178.759422 
L 227.19591 -181.206316 
L 227.596147 -183.65321 
L 228.00343 -186.100103 
L 228.421907 -188.546997 
L 228.856017 -190.993891 
L 229.310362 -193.440785 
L 229.789556 -195.887678 
L 230.298063 -198.334572 
L 230.840028 -200.781466 
L 231.4191 -203.228359 
L 232.038266 -205.675253 
L 232.699688 -208.122147 
L 233.404572 -210.56904 
L 234.153054 -213.015934 
L 234.944134 -215.462828 
L 235.775646 -217.909722 
L 236.644272 -220.356615 
L 237.545608 -222.803509 
L 238.474269 -225.250403 
L 239.424037 -227.697296 
L 240.388037 -230.14419 
L 241.358934 -232.591084 
L 242.329154 -235.037978 
L 243.29109 -237.484871 
L 244.237315 -239.931765 
L 245.160765 -242.378659 
L 246.054908 -244.825552 
L 246.913879 -247.272446 
L 247.732584 -249.71934 
L 248.50677 -252.166233 
L 249.233071 -254.613127 
L 249.909019 -257.060021 
L 250.533036 -259.506915 
L 251.104407 -261.953808 
L 251.623243 -264.400702 
L 252.090423 -266.847596 
L 252.507539 -269.294489 
L 252.876833 -271.741383 
L 253.201125 -274.188277 
L 253.483737 -276.635171 
L 253.728419 -279.082064 
L 253.939261 -281.528958 
L 254.120596 -283.975852 
L 254.276908 -286.422745 
L 254.412724 -288.869639 
L 254.532508 -291.316533 
L 254.640551 -293.763426 
L 254.740867 -296.21032 
L 254.837097 -298.657214 
L 254.932421 -301.104108 
L 255.029493 -303.551001 
L 257.839333 -303.551001 
L 257.839333 -303.551001 
L 257.839333 -301.104108 
L 257.839333 -298.657214 
L 257.839333 -296.21032 
L 257.839333 -293.763426 
L 257.839333 -291.316533 
L 257.839333 -288.869639 
L 257.839333 -286.422745 
L 257.839333 -283.975852 
L 257.839333 -281.528958 
L 257.839333 -279.082064 
L 257.839333 -276.635171 
L 257.839333 -274.188277 
L 257.839333 -271.741383 
L 257.839333 -269.294489 
L 257.839333 -266.847596 
L 257.839333 -264.400702 
L 257.839333 -261.953808 
L 257.839333 -259.506915 
L 257.839333 -257.060021 
L 257.839333 -254.613127 
L 257.839333 -252.166233 
L 257.839333 -249.71934 
L 257.839333 -247.272446 
L 257.839333 -244.825552 
L 257.839333 -242.378659 
L 257.839333 -239.931765 
L 257.839333 -237.484871 
L 257.839333 -235.037978 
L 257.839333 -232.591084 
L 257.839333 -230.14419 
L 257.839333 -227.697296 
L 257.839333 -225.250403 
L 257.839333 -222.803509 
L 257.839333 -220.356615 
L 257.839333 -217.909722 
L 257.839333 -215.462828 
L 257.839333 -213.015934 
L 257.839333 -210.56904 
L 257.839333 -208.122147 
L 257.839333 -205.675253 
L 257.839333 -203.228359 
L 257.839333 -200.781466 
L 257.839333 -198.334572 
L 257.839333 -195.887678 
L 257.839333 -193.440785 
L 257.839333 -190.993891 
L 257.839333 -188.546997 
L 257.839333 -186.100103 
L 257.839333 -183.65321 
L 257.839333 -181.206316 
L 257.839333 -178.759422 
L 257.839333 -176.312529 
L 257.839333 -173.865635 
L 257.839333 -171.418741 
L 257.839333 -168.971847 
L 257.839333 -166.524954 
L 257.839333 -164.07806 
L 257.839333 -161.631166 
L 257.839333 -159.184273 
L 257.839333 -156.737379 
L 257.839333 -154.290485 
L 257.839333 -151.843592 
L 257.839333 -149.396698 
L 257.839333 -146.949804 
L 257.839333 -144.50291 
L 257.839333 -142.056017 
L 257.839333 -139.609123 
L 257.839333 -137.162229 
L 257.839333 -134.715336 
L 257.839333 -132.268442 
L 257.839333 -129.821548 
L 257.839333 -127.374654 
L 257.839333 -124.927761 
L 257.839333 -122.480867 
L 257.839333 -120.033973 
L 257.839333 -117.58708 
L 257.839333 -115.140186 
L 257.839333 -112.693292 
L 257.839333 -110.246399 
L 257.839333 -107.799505 
L 257.839333 -105.352611 
L 257.839333 -102.905717 
L 257.839333 -100.458824 
L 257.839333 -98.01193 
L 257.839333 -95.565036 
L 257.839333 -93.118143 
L 257.839333 -90.671249 
L 257.839333 -88.224355 
L 257.839333 -85.777461 
L 257.839333 -83.330568 
L 257.839333 -80.883674 
L 257.839333 -78.43678 
L 257.839333 -75.989887 
L 257.839333 -73.542993 
L 257.839333 -71.096099 
L 257.839333 -68.649205 
L 257.839333 -66.202312 
L 257.839333 -63.755418 
L 257.839333 -61.308524 
z
"/>
    </defs>
    <g clip-path="url(#p08b69c2e5c)">
     <use xlink:href="#m04d665893e" x="0" y="504" style="fill: #cc8963"/>
    </g>
   </g>
   <g id="FillBetweenPolyCollection_3">
    <defs>
     <path id="m5c0c8fceef" d="M 407.62348 -49.491818 
L 396.778167 -49.491818 
L 395.748655 -53.072638 
L 394.670977 -56.653458 
L 393.547902 -60.234278 
L 392.382844 -63.815098 
L 391.179931 -67.395918 
L 389.944068 -70.976739 
L 388.680989 -74.557559 
L 387.397288 -78.138379 
L 386.100423 -81.719199 
L 384.798677 -85.300019 
L 383.501077 -88.880839 
L 382.217269 -92.461659 
L 380.957337 -96.042479 
L 379.731581 -99.623299 
L 378.550254 -103.204119 
L 377.423272 -106.784939 
L 376.359906 -110.365759 
L 375.368484 -113.946579 
L 374.456107 -117.527399 
L 373.628406 -121.108219 
L 372.889361 -124.689039 
L 372.241184 -128.269859 
L 371.684283 -131.85068 
L 371.217317 -135.4315 
L 370.837328 -139.01232 
L 370.539955 -142.59314 
L 370.319708 -146.17396 
L 370.170297 -149.75478 
L 370.084976 -153.3356 
L 370.0569 -156.91642 
L 370.079457 -160.49724 
L 370.146564 -164.07806 
L 370.252903 -167.65888 
L 370.394089 -171.2397 
L 370.566761 -174.82052 
L 370.768598 -178.40134 
L 370.998258 -181.98216 
L 371.255267 -185.56298 
L 371.539847 -189.1438 
L 371.852732 -192.724621 
L 372.194954 -196.305441 
L 372.56765 -199.886261 
L 372.971883 -203.467081 
L 373.408491 -207.047901 
L 373.877984 -210.628721 
L 374.380475 -214.209541 
L 374.915652 -217.790361 
L 375.482794 -221.371181 
L 376.080803 -224.952001 
L 376.70826 -228.532821 
L 377.363494 -232.113641 
L 378.044644 -235.694461 
L 378.749718 -239.275281 
L 379.476644 -242.856101 
L 380.223296 -246.436921 
L 380.987519 -250.017741 
L 381.767136 -253.598562 
L 382.559942 -257.179382 
L 383.363702 -260.760202 
L 384.176149 -264.341022 
L 384.99498 -267.921842 
L 385.817869 -271.502662 
L 386.64248 -275.083482 
L 387.466493 -278.664302 
L 388.287635 -282.245122 
L 389.103713 -285.825942 
L 389.912649 -289.406762 
L 390.712502 -292.987582 
L 391.50149 -296.568402 
L 392.277989 -300.149222 
L 393.04053 -303.730042 
L 393.787773 -307.310862 
L 394.518472 -310.891682 
L 395.231434 -314.472502 
L 395.925473 -318.053323 
L 396.59937 -321.634143 
L 397.251833 -325.214963 
L 397.881481 -328.795783 
L 398.48684 -332.376603 
L 399.066365 -335.957423 
L 399.618476 -339.538243 
L 400.141622 -343.119063 
L 400.634362 -346.699883 
L 401.095451 -350.280703 
L 401.523939 -353.861523 
L 401.919258 -357.442343 
L 402.281309 -361.023163 
L 402.610521 -364.603983 
L 402.907888 -368.184803 
L 403.17498 -371.765623 
L 403.413914 -375.346443 
L 403.627306 -378.927264 
L 403.818177 -382.508084 
L 403.98985 -386.088904 
L 404.145816 -389.669724 
L 404.289601 -393.250544 
L 404.424622 -396.831364 
L 404.554057 -400.412184 
L 404.680725 -403.993004 
L 407.62348 -403.993004 
L 407.62348 -403.993004 
L 407.62348 -400.412184 
L 407.62348 -396.831364 
L 407.62348 -393.250544 
L 407.62348 -389.669724 
L 407.62348 -386.088904 
L 407.62348 -382.508084 
L 407.62348 -378.927264 
L 407.62348 -375.346443 
L 407.62348 -371.765623 
L 407.62348 -368.184803 
L 407.62348 -364.603983 
L 407.62348 -361.023163 
L 407.62348 -357.442343 
L 407.62348 -353.861523 
L 407.62348 -350.280703 
L 407.62348 -346.699883 
L 407.62348 -343.119063 
L 407.62348 -339.538243 
L 407.62348 -335.957423 
L 407.62348 -332.376603 
L 407.62348 -328.795783 
L 407.62348 -325.214963 
L 407.62348 -321.634143 
L 407.62348 -318.053323 
L 407.62348 -314.472502 
L 407.62348 -310.891682 
L 407.62348 -307.310862 
L 407.62348 -303.730042 
L 407.62348 -300.149222 
L 407.62348 -296.568402 
L 407.62348 -292.987582 
L 407.62348 -289.406762 
L 407.62348 -285.825942 
L 407.62348 -282.245122 
L 407.62348 -278.664302 
L 407.62348 -275.083482 
L 407.62348 -271.502662 
L 407.62348 -267.921842 
L 407.62348 -264.341022 
L 407.62348 -260.760202 
L 407.62348 -257.179382 
L 407.62348 -253.598562 
L 407.62348 -250.017741 
L 407.62348 -246.436921 
L 407.62348 -242.856101 
L 407.62348 -239.275281 
L 407.62348 -235.694461 
L 407.62348 -232.113641 
L 407.62348 -228.532821 
L 407.62348 -224.952001 
L 407.62348 -221.371181 
L 407.62348 -217.790361 
L 407.62348 -214.209541 
L 407.62348 -210.628721 
L 407.62348 -207.047901 
L 407.62348 -203.467081 
L 407.62348 -199.886261 
L 407.62348 -196.305441 
L 407.62348 -192.724621 
L 407.62348 -189.1438 
L 407.62348 -185.56298 
L 407.62348 -181.98216 
L 407.62348 -178.40134 
L 407.62348 -174.82052 
L 407.62348 -171.2397 
L 407.62348 -167.65888 
L 407.62348 -164.07806 
L 407.62348 -160.49724 
L 407.62348 -156.91642 
L 407.62348 -153.3356 
L 407.62348 -149.75478 
L 407.62348 -146.17396 
L 407.62348 -142.59314 
L 407.62348 -139.01232 
L 407.62348 -135.4315 
L 407.62348 -131.85068 
L 407.62348 -128.269859 
L 407.62348 -124.689039 
L 407.62348 -121.108219 
L 407.62348 -117.527399 
L 407.62348 -113.946579 
L 407.62348 -110.365759 
L 407.62348 -106.784939 
L 407.62348 -103.204119 
L 407.62348 -99.623299 
L 407.62348 -96.042479 
L 407.62348 -92.461659 
L 407.62348 -88.880839 
L 407.62348 -85.300019 
L 407.62348 -81.719199 
L 407.62348 -78.138379 
L 407.62348 -74.557559 
L 407.62348 -70.976739 
L 407.62348 -67.395918 
L 407.62348 -63.815098 
L 407.62348 -60.234278 
L 407.62348 -56.653458 
L 407.62348 -53.072638 
L 407.62348 -49.491818 
z
"/>
    </defs>
    <g clip-path="url(#p08b69c2e5c)">
     <use xlink:href="#m5c0c8fceef" x="0" y="504" style="fill: #5f9e6e"/>
    </g>
   </g>
   <g id="patch_3">
    <path d="M 107.9279 271.349236 
L 130.3961 271.349236 
L 130.3961 159.090527 
L 107.9279 159.090527 
L 107.9279 271.349236 
z
" clip-path="url(#p08b69c2e5c)" style="fill: #5875a4; stroke: #4c4c4c; stroke-linejoin: miter"/>
   </g>
   <g id="line2d_1">
    <path d="M 119.162 271.349236 
L 119.162 354.066179 
" clip-path="url(#p08b69c2e5c)" style="fill: none; stroke: #000000"/>
   </g>
   <g id="line2d_2">
    <path d="M 119.162 159.090527 
L 119.162 46.831818 
" clip-path="url(#p08b69c2e5c)" style="fill: none; stroke: #000000"/>
   </g>
   <g id="line2d_3">
    <path d="M 113.54495 354.066179 
L 124.77905 354.066179 
" clip-path="url(#p08b69c2e5c)" style="fill: none; stroke: #4c4c4c; stroke-linecap: round"/>
   </g>
   <g id="line2d_4">
    <path d="M 113.54495 46.831818 
L 124.77905 46.831818 
" clip-path="url(#p08b69c2e5c)" style="fill: none; stroke: #4c4c4c; stroke-linecap: round"/>
   </g>
   <g id="line2d_5"/>
   <g id="patch_4">
    <path d="M 257.7159 389.516298 
L 280.1841 389.516298 
L 280.1841 311.230619 
L 257.7159 311.230619 
L 257.7159 389.516298 
z
" clip-path="url(#p08b69c2e5c)" style="fill: #cc8963; stroke: #4c4c4c; stroke-linejoin: miter"/>
   </g>
   <g id="line2d_6">
    <path d="M 268.95 389.516298 
L 268.95 442.691476 
" clip-path="url(#p08b69c2e5c)" style="fill: none; stroke: #000000"/>
   </g>
   <g id="line2d_7">
    <path d="M 268.95 311.230619 
L 268.95 200.448999 
" clip-path="url(#p08b69c2e5c)" style="fill: none; stroke: #000000"/>
   </g>
   <g id="line2d_8">
    <path d="M 263.33295 442.691476 
L 274.56705 442.691476 
" clip-path="url(#p08b69c2e5c)" style="fill: none; stroke: #4c4c4c; stroke-linecap: round"/>
   </g>
   <g id="line2d_9">
    <path d="M 263.33295 200.448999 
L 274.56705 200.448999 
" clip-path="url(#p08b69c2e5c)" style="fill: none; stroke: #4c4c4c; stroke-linecap: round"/>
   </g>
   <g id="line2d_10"/>
   <g id="patch_5">
    <path d="M 407.5039 377.699592 
L 429.9721 377.699592 
L 429.9721 266.917971 
L 407.5039 266.917971 
L 407.5039 377.699592 
z
" clip-path="url(#p08b69c2e5c)" style="fill: #5f9e6e; stroke: #4c4c4c; stroke-linejoin: miter"/>
   </g>
   <g id="line2d_11">
    <path d="M 418.738 377.699592 
L 418.738 454.508182 
" clip-path="url(#p08b69c2e5c)" style="fill: none; stroke: #000000"/>
   </g>
   <g id="line2d_12">
    <path d="M 418.738 266.917971 
L 418.738 170.907233 
" clip-path="url(#p08b69c2e5c)" style="fill: none; stroke: #000000"/>
   </g>
   <g id="line2d_13">
    <path d="M 413.12095 454.508182 
L 424.35505 454.508182 
" clip-path="url(#p08b69c2e5c)" style="fill: none; stroke: #4c4c4c; stroke-linecap: round"/>
   </g>
   <g id="line2d_14">
    <path d="M 413.12095 170.907233 
L 424.35505 170.907233 
" clip-path="url(#p08b69c2e5c)" style="fill: none; stroke: #4c4c4c; stroke-linecap: round"/>
   </g>
   <g id="line2d_15"/>
   <g id="PathCollection_1">
    <defs>
     <path id="m443b614ee7" d="M 0 1.581139 
C 0.419323 1.581139 0.821528 1.41454 1.118034 1.118034 
C 1.41454 0.821528 1.581139 0.419323 1.581139 0 
C 1.581139 -0.419323 1.41454 -0.821528 1.118034 -1.118034 
C 0.821528 -1.41454 0.419323 -1.581139 0 -1.581139 
C -0.419323 -1.581139 -0.821528 -1.41454 -1.118034 -1.118034 
C -1.41454 -0.821528 -1.581139 -0.419323 -1.581139 0 
C -1.581139 0.419323 -1.41454 0.821528 -1.118034 1.118034 
C -0.821528 1.41454 -0.419323 1.581139 0 1.581139 
z
" style="stroke: #000000; stroke-opacity: 0.9; stroke-width: 0.8"/>
    </defs>
    <g clip-path="url(#p08b69c2e5c)">
     <use xlink:href="#m443b614ee7" x="115.902772" y="194.540646" style="fill-opacity: 0.9; stroke: #000000; stroke-opacity: 0.9; stroke-width: 0.8"/>
     <use xlink:href="#m443b614ee7" x="114.742035" y="294.982648" style="fill-opacity: 0.9; stroke: #000000; stroke-opacity: 0.9; stroke-width: 0.8"/>
     <use xlink:href="#m443b614ee7" x="124.437562" y="277.257589" style="fill-opacity: 0.9; stroke: #000000; stroke-opacity: 0.9; stroke-width: 0.8"/>
     <use xlink:href="#m443b614ee7" x="119.415792" y="253.624177" style="fill-opacity: 0.9; stroke: #000000; stroke-opacity: 0.9; stroke-width: 0.8"/>
     <use xlink:href="#m443b614ee7" x="114.749202" y="259.53253" style="fill-opacity: 0.9; stroke: #000000; stroke-opacity: 0.9; stroke-width: 0.8"/>
     <use xlink:href="#m443b614ee7" x="119.157358" y="265.440883" style="fill-opacity: 0.9; stroke: #000000; stroke-opacity: 0.9; stroke-width: 0.8"/>
     <use xlink:href="#m443b614ee7" x="125.667252" y="117.732055" style="fill-opacity: 0.9; stroke: #000000; stroke-opacity: 0.9; stroke-width: 0.8"/>
     <use xlink:href="#m443b614ee7" x="113.547206" y="229.990764" style="fill-opacity: 0.9; stroke: #000000; stroke-opacity: 0.9; stroke-width: 0.8"/>
     <use xlink:href="#m443b614ee7" x="115.090413" y="170.907233" style="fill-opacity: 0.9; stroke: #000000; stroke-opacity: 0.9; stroke-width: 0.8"/>
     <use xlink:href="#m443b614ee7" x="117.795457" y="324.524414" style="fill-opacity: 0.9; stroke: #000000; stroke-opacity: 0.9; stroke-width: 0.8"/>
     <use xlink:href="#m443b614ee7" x="112.3169" y="283.165942" style="fill-opacity: 0.9; stroke: #000000; stroke-opacity: 0.9; stroke-width: 0.8"/>
     <use xlink:href="#m443b614ee7" x="117.258109" y="188.632292" style="fill-opacity: 0.9; stroke: #000000; stroke-opacity: 0.9; stroke-width: 0.8"/>
     <use xlink:href="#m443b614ee7" x="111.721031" y="283.165942" style="fill-opacity: 0.9; stroke: #000000; stroke-opacity: 0.9; stroke-width: 0.8"/>
     <use xlink:href="#m443b614ee7" x="120.434832" y="206.357352" style="fill-opacity: 0.9; stroke: #000000; stroke-opacity: 0.9; stroke-width: 0.8"/>
     <use xlink:href="#m443b614ee7" x="122.249678" y="170.907233" style="fill-opacity: 0.9; stroke: #000000; stroke-opacity: 0.9; stroke-width: 0.8"/>
     <use xlink:href="#m443b614ee7" x="113.523267" y="271.349236" style="fill-opacity: 0.9; stroke: #000000; stroke-opacity: 0.9; stroke-width: 0.8"/>
     <use xlink:href="#m443b614ee7" x="124.15312" y="224.082411" style="fill-opacity: 0.9; stroke: #000000; stroke-opacity: 0.9; stroke-width: 0.8"/>
     <use xlink:href="#m443b614ee7" x="114.252479" y="82.281937" style="fill-opacity: 0.9; stroke: #000000; stroke-opacity: 0.9; stroke-width: 0.8"/>
     <use xlink:href="#m443b614ee7" x="125.731823" y="247.715823" style="fill-opacity: 0.9; stroke: #000000; stroke-opacity: 0.9; stroke-width: 0.8"/>
     <use xlink:href="#m443b614ee7" x="123.560615" y="58.648524" style="fill-opacity: 0.9; stroke: #000000; stroke-opacity: 0.9; stroke-width: 0.8"/>
     <use xlink:href="#m443b614ee7" x="123.384906" y="247.715823" style="fill-opacity: 0.9; stroke: #000000; stroke-opacity: 0.9; stroke-width: 0.8"/>
     <use xlink:href="#m443b614ee7" x="113.715219" y="336.34112" style="fill-opacity: 0.9; stroke: #000000; stroke-opacity: 0.9; stroke-width: 0.8"/>
     <use xlink:href="#m443b614ee7" x="125.387623" y="164.99888" style="fill-opacity: 0.9; stroke: #000000; stroke-opacity: 0.9; stroke-width: 0.8"/>
     <use xlink:href="#m443b614ee7" x="119.430393" y="200.448999" style="fill-opacity: 0.9; stroke: #000000; stroke-opacity: 0.9; stroke-width: 0.8"/>
     <use xlink:href="#m443b614ee7" x="116.421506" y="147.273821" style="fill-opacity: 0.9; stroke: #000000; stroke-opacity: 0.9; stroke-width: 0.8"/>
     <use xlink:href="#m443b614ee7" x="124.887868" y="46.831818" style="fill-opacity: 0.9; stroke: #000000; stroke-opacity: 0.9; stroke-width: 0.8"/>
     <use xlink:href="#m443b614ee7" x="115.038502" y="64.556877" style="fill-opacity: 0.9; stroke: #000000; stroke-opacity: 0.9; stroke-width: 0.8"/>
     <use xlink:href="#m443b614ee7" x="122.065592" y="117.732055" style="fill-opacity: 0.9; stroke: #000000; stroke-opacity: 0.9; stroke-width: 0.8"/>
     <use xlink:href="#m443b614ee7" x="121.206414" y="135.457115" style="fill-opacity: 0.9; stroke: #000000; stroke-opacity: 0.9; stroke-width: 0.8"/>
     <use xlink:href="#m443b614ee7" x="117.37638" y="159.090527" style="fill-opacity: 0.9; stroke: #000000; stroke-opacity: 0.9; stroke-width: 0.8"/>
     <use xlink:href="#m443b614ee7" x="116.115089" y="164.99888" style="fill-opacity: 0.9; stroke: #000000; stroke-opacity: 0.9; stroke-width: 0.8"/>
     <use xlink:href="#m443b614ee7" x="116.549536" y="306.799354" style="fill-opacity: 0.9; stroke: #000000; stroke-opacity: 0.9; stroke-width: 0.8"/>
     <use xlink:href="#m443b614ee7" x="121.47163" y="141.365468" style="fill-opacity: 0.9; stroke: #000000; stroke-opacity: 0.9; stroke-width: 0.8"/>
     <use xlink:href="#m443b614ee7" x="117.46265" y="241.80747" style="fill-opacity: 0.9; stroke: #000000; stroke-opacity: 0.9; stroke-width: 0.8"/>
     <use xlink:href="#m443b614ee7" x="124.586281" y="253.624177" style="fill-opacity: 0.9; stroke: #000000; stroke-opacity: 0.9; stroke-width: 0.8"/>
     <use xlink:href="#m443b614ee7" x="115.390363" y="100.006996" style="fill-opacity: 0.9; stroke: #000000; stroke-opacity: 0.9; stroke-width: 0.8"/>
     <use xlink:href="#m443b614ee7" x="114.130993" y="241.80747" style="fill-opacity: 0.9; stroke: #000000; stroke-opacity: 0.9; stroke-width: 0.8"/>
     <use xlink:href="#m443b614ee7" x="120.434752" y="241.80747" style="fill-opacity: 0.9; stroke: #000000; stroke-opacity: 0.9; stroke-width: 0.8"/>
     <use xlink:href="#m443b614ee7" x="112.13886" y="235.899117" style="fill-opacity: 0.9; stroke: #000000; stroke-opacity: 0.9; stroke-width: 0.8"/>
     <use xlink:href="#m443b614ee7" x="120.502221" y="283.165942" style="fill-opacity: 0.9; stroke: #000000; stroke-opacity: 0.9; stroke-width: 0.8"/>
     <use xlink:href="#m443b614ee7" x="122.519256" y="159.090527" style="fill-opacity: 0.9; stroke: #000000; stroke-opacity: 0.9; stroke-width: 0.8"/>
     <use xlink:href="#m443b614ee7" x="123.780849" y="324.524414" style="fill-opacity: 0.9; stroke: #000000; stroke-opacity: 0.9; stroke-width: 0.8"/>
     <use xlink:href="#m443b614ee7" x="122.718334" y="294.982648" style="fill-opacity: 0.9; stroke: #000000; stroke-opacity: 0.9; stroke-width: 0.8"/>
     <use xlink:href="#m443b614ee7" x="117.470149" y="354.066179" style="fill-opacity: 0.9; stroke: #000000; stroke-opacity: 0.9; stroke-width: 0.8"/>
     <use xlink:href="#m443b614ee7" x="125.27318" y="170.907233" style="fill-opacity: 0.9; stroke: #000000; stroke-opacity: 0.9; stroke-width: 0.8"/>
    </g>
   </g>
   <g id="PathCollection_2">
    <g clip-path="url(#p08b69c2e5c)">
     <use xlink:href="#m443b614ee7" x="273.793182" y="330.432767" style="fill-opacity: 0.9; stroke: #000000; stroke-opacity: 0.9; stroke-width: 0.8"/>
     <use xlink:href="#m443b614ee7" x="263.575517" y="389.516298" style="fill-opacity: 0.9; stroke: #000000; stroke-opacity: 0.9; stroke-width: 0.8"/>
     <use xlink:href="#m443b614ee7" x="270.452458" y="377.699592" style="fill-opacity: 0.9; stroke: #000000; stroke-opacity: 0.9; stroke-width: 0.8"/>
     <use xlink:href="#m443b614ee7" x="263.03225" y="324.524414" style="fill-opacity: 0.9; stroke: #000000; stroke-opacity: 0.9; stroke-width: 0.8"/>
     <use xlink:href="#m443b614ee7" x="262.191339" y="365.882885" style="fill-opacity: 0.9; stroke: #000000; stroke-opacity: 0.9; stroke-width: 0.8"/>
     <use xlink:href="#m443b614ee7" x="262.291388" y="395.424651" style="fill-opacity: 0.9; stroke: #000000; stroke-opacity: 0.9; stroke-width: 0.8"/>
     <use xlink:href="#m443b614ee7" x="276.110988" y="247.715823" style="fill-opacity: 0.9; stroke: #000000; stroke-opacity: 0.9; stroke-width: 0.8"/>
     <use xlink:href="#m443b614ee7" x="271.827115" y="346.778265" style="fill-opacity: 0.9; stroke: #000000; stroke-opacity: 0.9; stroke-width: 0.8"/>
     <use xlink:href="#m443b614ee7" x="262.466395" y="395.424651" style="fill-opacity: 0.9; stroke: #000000; stroke-opacity: 0.9; stroke-width: 0.8"/>
     <use xlink:href="#m443b614ee7" x="268.821937" y="289.074295" style="fill-opacity: 0.9; stroke: #000000; stroke-opacity: 0.9; stroke-width: 0.8"/>
     <use xlink:href="#m443b614ee7" x="267.758595" y="407.241357" style="fill-opacity: 0.9; stroke: #000000; stroke-opacity: 0.9; stroke-width: 0.8"/>
     <use xlink:href="#m443b614ee7" x="264.367719" y="289.074295" style="fill-opacity: 0.9; stroke: #000000; stroke-opacity: 0.9; stroke-width: 0.8"/>
     <use xlink:href="#m443b614ee7" x="262.183515" y="383.607945" style="fill-opacity: 0.9; stroke: #000000; stroke-opacity: 0.9; stroke-width: 0.8"/>
     <use xlink:href="#m443b614ee7" x="272.696901" y="277.257589" style="fill-opacity: 0.9; stroke: #000000; stroke-opacity: 0.9; stroke-width: 0.8"/>
     <use xlink:href="#m443b614ee7" x="269.956101" y="442.691476" style="fill-opacity: 0.9; stroke: #000000; stroke-opacity: 0.9; stroke-width: 0.8"/>
     <use xlink:href="#m443b614ee7" x="264.255089" y="336.34112" style="fill-opacity: 0.9; stroke: #000000; stroke-opacity: 0.9; stroke-width: 0.8"/>
     <use xlink:href="#m443b614ee7" x="262.072696" y="354.066179" style="fill-opacity: 0.9; stroke: #000000; stroke-opacity: 0.9; stroke-width: 0.8"/>
     <use xlink:href="#m443b614ee7" x="270.381293" y="294.982648" style="fill-opacity: 0.9; stroke: #000000; stroke-opacity: 0.9; stroke-width: 0.8"/>
     <use xlink:href="#m443b614ee7" x="261.699172" y="401.333004" style="fill-opacity: 0.9; stroke: #000000; stroke-opacity: 0.9; stroke-width: 0.8"/>
     <use xlink:href="#m443b614ee7" x="270.055784" y="354.066179" style="fill-opacity: 0.9; stroke: #000000; stroke-opacity: 0.9; stroke-width: 0.8"/>
     <use xlink:href="#m443b614ee7" x="265.157733" y="430.874769" style="fill-opacity: 0.9; stroke: #000000; stroke-opacity: 0.9; stroke-width: 0.8"/>
     <use xlink:href="#m443b614ee7" x="261.732622" y="413.14971" style="fill-opacity: 0.9; stroke: #000000; stroke-opacity: 0.9; stroke-width: 0.8"/>
     <use xlink:href="#m443b614ee7" x="265.642886" y="289.074295" style="fill-opacity: 0.9; stroke: #000000; stroke-opacity: 0.9; stroke-width: 0.8"/>
     <use xlink:href="#m443b614ee7" x="271.989153" y="395.424651" style="fill-opacity: 0.9; stroke: #000000; stroke-opacity: 0.9; stroke-width: 0.8"/>
     <use xlink:href="#m443b614ee7" x="272.521607" y="377.699592" style="fill-opacity: 0.9; stroke: #000000; stroke-opacity: 0.9; stroke-width: 0.8"/>
     <use xlink:href="#m443b614ee7" x="266.421349" y="354.066179" style="fill-opacity: 0.9; stroke: #000000; stroke-opacity: 0.9; stroke-width: 0.8"/>
     <use xlink:href="#m443b614ee7" x="269.280097" y="354.066179" style="fill-opacity: 0.9; stroke: #000000; stroke-opacity: 0.9; stroke-width: 0.8"/>
     <use xlink:href="#m443b614ee7" x="262.450609" y="318.616061" style="fill-opacity: 0.9; stroke: #000000; stroke-opacity: 0.9; stroke-width: 0.8"/>
     <use xlink:href="#m443b614ee7" x="263.169392" y="324.524414" style="fill-opacity: 0.9; stroke: #000000; stroke-opacity: 0.9; stroke-width: 0.8"/>
     <use xlink:href="#m443b614ee7" x="272.821116" y="371.791238" style="fill-opacity: 0.9; stroke: #000000; stroke-opacity: 0.9; stroke-width: 0.8"/>
     <use xlink:href="#m443b614ee7" x="276.421006" y="306.799354" style="fill-opacity: 0.9; stroke: #000000; stroke-opacity: 0.9; stroke-width: 0.8"/>
     <use xlink:href="#m443b614ee7" x="268.842828" y="371.791238" style="fill-opacity: 0.9; stroke: #000000; stroke-opacity: 0.9; stroke-width: 0.8"/>
     <use xlink:href="#m443b614ee7" x="269.173858" y="200.448999" style="fill-opacity: 0.9; stroke: #000000; stroke-opacity: 0.9; stroke-width: 0.8"/>
     <use xlink:href="#m443b614ee7" x="271.147049" y="436.783123" style="fill-opacity: 0.9; stroke: #000000; stroke-opacity: 0.9; stroke-width: 0.8"/>
     <use xlink:href="#m443b614ee7" x="269.881533" y="389.516298" style="fill-opacity: 0.9; stroke: #000000; stroke-opacity: 0.9; stroke-width: 0.8"/>
     <use xlink:href="#m443b614ee7" x="270.140945" y="271.349236" style="fill-opacity: 0.9; stroke: #000000; stroke-opacity: 0.9; stroke-width: 0.8"/>
     <use xlink:href="#m443b614ee7" x="266.663071" y="377.699592" style="fill-opacity: 0.9; stroke: #000000; stroke-opacity: 0.9; stroke-width: 0.8"/>
     <use xlink:href="#m443b614ee7" x="272.819256" y="300.891001" style="fill-opacity: 0.9; stroke: #000000; stroke-opacity: 0.9; stroke-width: 0.8"/>
     <use xlink:href="#m443b614ee7" x="273.722549" y="312.707708" style="fill-opacity: 0.9; stroke: #000000; stroke-opacity: 0.9; stroke-width: 0.8"/>
     <use xlink:href="#m443b614ee7" x="268.332588" y="336.34112" style="fill-opacity: 0.9; stroke: #000000; stroke-opacity: 0.9; stroke-width: 0.8"/>
    </g>
   </g>
   <g id="PathCollection_3">
    <g clip-path="url(#p08b69c2e5c)">
     <use xlink:href="#m443b614ee7" x="425.420725" y="182.723939" style="fill-opacity: 0.9; stroke: #000000; stroke-opacity: 0.9; stroke-width: 0.8"/>
     <use xlink:href="#m443b614ee7" x="425.23889" y="277.257589" style="fill-opacity: 0.9; stroke: #000000; stroke-opacity: 0.9; stroke-width: 0.8"/>
     <use xlink:href="#m443b614ee7" x="419.622337" y="306.799354" style="fill-opacity: 0.9; stroke: #000000; stroke-opacity: 0.9; stroke-width: 0.8"/>
     <use xlink:href="#m443b614ee7" x="415.009434" y="383.607945" style="fill-opacity: 0.9; stroke: #000000; stroke-opacity: 0.9; stroke-width: 0.8"/>
     <use xlink:href="#m443b614ee7" x="417.437554" y="300.891001" style="fill-opacity: 0.9; stroke: #000000; stroke-opacity: 0.9; stroke-width: 0.8"/>
     <use xlink:href="#m443b614ee7" x="418.050493" y="253.624177" style="fill-opacity: 0.9; stroke: #000000; stroke-opacity: 0.9; stroke-width: 0.8"/>
     <use xlink:href="#m443b614ee7" x="418.585636" y="365.882885" style="fill-opacity: 0.9; stroke: #000000; stroke-opacity: 0.9; stroke-width: 0.8"/>
     <use xlink:href="#m443b614ee7" x="422.407746" y="170.907233" style="fill-opacity: 0.9; stroke: #000000; stroke-opacity: 0.9; stroke-width: 0.8"/>
     <use xlink:href="#m443b614ee7" x="425.645531" y="359.974532" style="fill-opacity: 0.9; stroke: #000000; stroke-opacity: 0.9; stroke-width: 0.8"/>
     <use xlink:href="#m443b614ee7" x="413.888739" y="271.349236" style="fill-opacity: 0.9; stroke: #000000; stroke-opacity: 0.9; stroke-width: 0.8"/>
     <use xlink:href="#m443b614ee7" x="423.581274" y="389.516298" style="fill-opacity: 0.9; stroke: #000000; stroke-opacity: 0.9; stroke-width: 0.8"/>
     <use xlink:href="#m443b614ee7" x="411.308909" y="324.524414" style="fill-opacity: 0.9; stroke: #000000; stroke-opacity: 0.9; stroke-width: 0.8"/>
     <use xlink:href="#m443b614ee7" x="419.995941" y="300.891001" style="fill-opacity: 0.9; stroke: #000000; stroke-opacity: 0.9; stroke-width: 0.8"/>
     <use xlink:href="#m443b614ee7" x="414.884624" y="454.508182" style="fill-opacity: 0.9; stroke: #000000; stroke-opacity: 0.9; stroke-width: 0.8"/>
     <use xlink:href="#m443b614ee7" x="418.402109" y="430.874769" style="fill-opacity: 0.9; stroke: #000000; stroke-opacity: 0.9; stroke-width: 0.8"/>
     <use xlink:href="#m443b614ee7" x="415.623579" y="318.616061" style="fill-opacity: 0.9; stroke: #000000; stroke-opacity: 0.9; stroke-width: 0.8"/>
     <use xlink:href="#m443b614ee7" x="423.053121" y="395.424651" style="fill-opacity: 0.9; stroke: #000000; stroke-opacity: 0.9; stroke-width: 0.8"/>
     <use xlink:href="#m443b614ee7" x="419.040143" y="407.241357" style="fill-opacity: 0.9; stroke: #000000; stroke-opacity: 0.9; stroke-width: 0.8"/>
     <use xlink:href="#m443b614ee7" x="413.26003" y="348.157826" style="fill-opacity: 0.9; stroke: #000000; stroke-opacity: 0.9; stroke-width: 0.8"/>
     <use xlink:href="#m443b614ee7" x="422.505994" y="253.624177" style="fill-opacity: 0.9; stroke: #000000; stroke-opacity: 0.9; stroke-width: 0.8"/>
     <use xlink:href="#m443b614ee7" x="418.885671" y="306.799354" style="fill-opacity: 0.9; stroke: #000000; stroke-opacity: 0.9; stroke-width: 0.8"/>
     <use xlink:href="#m443b614ee7" x="415.794544" y="100.006996" style="fill-opacity: 0.9; stroke: #000000; stroke-opacity: 0.9; stroke-width: 0.8"/>
     <use xlink:href="#m443b614ee7" x="411.915925" y="218.174058" style="fill-opacity: 0.9; stroke: #000000; stroke-opacity: 0.9; stroke-width: 0.8"/>
     <use xlink:href="#m443b614ee7" x="417.77078" y="277.257589" style="fill-opacity: 0.9; stroke: #000000; stroke-opacity: 0.9; stroke-width: 0.8"/>
     <use xlink:href="#m443b614ee7" x="414.737151" y="289.074295" style="fill-opacity: 0.9; stroke: #000000; stroke-opacity: 0.9; stroke-width: 0.8"/>
     <use xlink:href="#m443b614ee7" x="416.827431" y="318.616061" style="fill-opacity: 0.9; stroke: #000000; stroke-opacity: 0.9; stroke-width: 0.8"/>
     <use xlink:href="#m443b614ee7" x="412.182185" y="371.791238" style="fill-opacity: 0.9; stroke: #000000; stroke-opacity: 0.9; stroke-width: 0.8"/>
     <use xlink:href="#m443b614ee7" x="425.774665" y="342.249473" style="fill-opacity: 0.9; stroke: #000000; stroke-opacity: 0.9; stroke-width: 0.8"/>
     <use xlink:href="#m443b614ee7" x="421.436753" y="229.990764" style="fill-opacity: 0.9; stroke: #000000; stroke-opacity: 0.9; stroke-width: 0.8"/>
     <use xlink:href="#m443b614ee7" x="417.334055" y="407.241357" style="fill-opacity: 0.9; stroke: #000000; stroke-opacity: 0.9; stroke-width: 0.8"/>
     <use xlink:href="#m443b614ee7" x="419.071951" y="312.707708" style="fill-opacity: 0.9; stroke: #000000; stroke-opacity: 0.9; stroke-width: 0.8"/>
     <use xlink:href="#m443b614ee7" x="412.927268" y="354.066179" style="fill-opacity: 0.9; stroke: #000000; stroke-opacity: 0.9; stroke-width: 0.8"/>
     <use xlink:href="#m443b614ee7" x="417.685436" y="354.066179" style="fill-opacity: 0.9; stroke: #000000; stroke-opacity: 0.9; stroke-width: 0.8"/>
     <use xlink:href="#m443b614ee7" x="424.518033" y="377.699592" style="fill-opacity: 0.9; stroke: #000000; stroke-opacity: 0.9; stroke-width: 0.8"/>
     <use xlink:href="#m443b614ee7" x="422.638289" y="247.715823" style="fill-opacity: 0.9; stroke: #000000; stroke-opacity: 0.9; stroke-width: 0.8"/>
     <use xlink:href="#m443b614ee7" x="426.014973" y="206.357352" style="fill-opacity: 0.9; stroke: #000000; stroke-opacity: 0.9; stroke-width: 0.8"/>
     <use xlink:href="#m443b614ee7" x="417.665912" y="430.874769" style="fill-opacity: 0.9; stroke: #000000; stroke-opacity: 0.9; stroke-width: 0.8"/>
     <use xlink:href="#m443b614ee7" x="413.24993" y="241.80747" style="fill-opacity: 0.9; stroke: #000000; stroke-opacity: 0.9; stroke-width: 0.8"/>
     <use xlink:href="#m443b614ee7" x="426.057887" y="377.699592" style="fill-opacity: 0.9; stroke: #000000; stroke-opacity: 0.9; stroke-width: 0.8"/>
     <use xlink:href="#m443b614ee7" x="411.376769" y="377.699592" style="fill-opacity: 0.9; stroke: #000000; stroke-opacity: 0.9; stroke-width: 0.8"/>
    </g>
   </g>
   <g id="line2d_16">
    <path d="M 107.9279 229.990764 
L 130.3961 229.990764 
" clip-path="url(#p08b69c2e5c)" style="fill: none; stroke: #000000"/>
   </g>
   <g id="line2d_17">
    <path d="M 257.7159 354.066179 
L 280.1841 354.066179 
" clip-path="url(#p08b69c2e5c)" style="fill: none; stroke: #000000"/>
   </g>
   <g id="line2d_18">
    <path d="M 407.5039 318.616061 
L 429.9721 318.616061 
" clip-path="url(#p08b69c2e5c)" style="fill: none; stroke: #000000"/>
   </g>
   <g id="patch_6">
    <path d="M 44.268 474.892 
L 44.268 26.448 
" style="fill: none; stroke: #262626; stroke-linejoin: miter; stroke-linecap: square"/>
   </g>
   <g id="patch_7">
    <path d="M 44.268 474.892 
L 493.632 474.892 
" style="fill: none; stroke: #262626; stroke-linejoin: miter; stroke-linecap: square"/>
   </g>
   <g id="text_13">
    <!-- MDS-UPDRS III Raincloud Plot -->
    <g style="fill: #262626" transform="translate(171.700312 20.448) scale(0.14 -0.14)">
     <defs>
      <path id="ArialMT-61" d="M 2588 409 
Q 2275 144 1986 34 
Q 1697 -75 1366 -75 
Q 819 -75 525 192 
Q 231 459 231 875 
Q 231 1119 342 1320 
Q 453 1522 633 1644 
Q 813 1766 1038 1828 
Q 1203 1872 1538 1913 
Q 2219 1994 2541 2106 
Q 2544 2222 2544 2253 
Q 2544 2597 2384 2738 
Q 2169 2928 1744 2928 
Q 1347 2928 1158 2789 
Q 969 2650 878 2297 
L 328 2372 
Q 403 2725 575 2942 
Q 747 3159 1072 3276 
Q 1397 3394 1825 3394 
Q 2250 3394 2515 3294 
Q 2781 3194 2906 3042 
Q 3031 2891 3081 2659 
Q 3109 2516 3109 2141 
L 3109 1391 
Q 3109 606 3145 398 
Q 3181 191 3288 0 
L 2700 0 
Q 2613 175 2588 409 
z
M 2541 1666 
Q 2234 1541 1622 1453 
Q 1275 1403 1131 1340 
Q 988 1278 909 1158 
Q 831 1038 831 891 
Q 831 666 1001 516 
Q 1172 366 1500 366 
Q 1825 366 2078 508 
Q 2331 650 2450 897 
Q 2541 1088 2541 1459 
L 2541 1666 
z
" transform="scale(0.015625)"/>
      <path id="ArialMT-63" d="M 2588 1216 
L 3141 1144 
Q 3050 572 2676 248 
Q 2303 -75 1759 -75 
Q 1078 -75 664 370 
Q 250 816 250 1647 
Q 250 2184 428 2587 
Q 606 2991 970 3192 
Q 1334 3394 1763 3394 
Q 2303 3394 2647 3120 
Q 2991 2847 3088 2344 
L 2541 2259 
Q 2463 2594 2264 2762 
Q 2066 2931 1784 2931 
Q 1359 2931 1093 2626 
Q 828 2322 828 1663 
Q 828 994 1084 691 
Q 1341 388 1753 388 
Q 2084 388 2306 591 
Q 2528 794 2588 1216 
z
" transform="scale(0.015625)"/>
      <path id="ArialMT-6c" d="M 409 0 
L 409 4581 
L 972 4581 
L 972 0 
L 409 0 
z
" transform="scale(0.015625)"/>
      <path id="ArialMT-75" d="M 2597 0 
L 2597 488 
Q 2209 -75 1544 -75 
Q 1250 -75 995 37 
Q 741 150 617 320 
Q 494 491 444 738 
Q 409 903 409 1263 
L 409 3319 
L 972 3319 
L 972 1478 
Q 972 1038 1006 884 
Q 1059 663 1231 536 
Q 1403 409 1656 409 
Q 1909 409 2131 539 
Q 2353 669 2445 892 
Q 2538 1116 2538 1541 
L 2538 3319 
L 3100 3319 
L 3100 0 
L 2597 0 
z
" transform="scale(0.015625)"/>
      <path id="ArialMT-64" d="M 2575 0 
L 2575 419 
Q 2259 -75 1647 -75 
Q 1250 -75 917 144 
Q 584 363 401 755 
Q 219 1147 219 1656 
Q 219 2153 384 2558 
Q 550 2963 881 3178 
Q 1213 3394 1622 3394 
Q 1922 3394 2156 3267 
Q 2391 3141 2538 2938 
L 2538 4581 
L 3097 4581 
L 3097 0 
L 2575 0 
z
M 797 1656 
Q 797 1019 1065 703 
Q 1334 388 1700 388 
Q 2069 388 2326 689 
Q 2584 991 2584 1609 
Q 2584 2291 2321 2609 
Q 2059 2928 1675 2928 
Q 1300 2928 1048 2622 
Q 797 2316 797 1656 
z
" transform="scale(0.015625)"/>
     </defs>
     <use xlink:href="#ArialMT-4d"/>
     <use xlink:href="#ArialMT-44" transform="translate(83.300781 0)"/>
     <use xlink:href="#ArialMT-53" transform="translate(155.517578 0)"/>
     <use xlink:href="#ArialMT-2d" transform="translate(222.216797 0)"/>
     <use xlink:href="#ArialMT-55" transform="translate(255.517578 0)"/>
     <use xlink:href="#ArialMT-50" transform="translate(327.734375 0)"/>
     <use xlink:href="#ArialMT-44" transform="translate(394.433594 0)"/>
     <use xlink:href="#ArialMT-52" transform="translate(466.650391 0)"/>
     <use xlink:href="#ArialMT-53" transform="translate(538.867188 0)"/>
     <use xlink:href="#ArialMT-20" transform="translate(605.566406 0)"/>
     <use xlink:href="#ArialMT-49" transform="translate(633.349609 0)"/>
     <use xlink:href="#ArialMT-49" transform="translate(661.132812 0)"/>
     <use xlink:href="#ArialMT-49" transform="translate(688.916016 0)"/>
     <use xlink:href="#ArialMT-20" transform="translate(716.699219 0)"/>
     <use xlink:href="#ArialMT-52" transform="translate(744.482422 0)"/>
     <use xlink:href="#ArialMT-61" transform="translate(816.699219 0)"/>
     <use xlink:href="#ArialMT-69" transform="translate(872.314453 0)"/>
     <use xlink:href="#ArialMT-6e" transform="translate(894.53125 0)"/>
     <use xlink:href="#ArialMT-63" transform="translate(950.146484 0)"/>
     <use xlink:href="#ArialMT-6c" transform="translate(1000.146484 0)"/>
     <use xlink:href="#ArialMT-6f" transform="translate(1022.363281 0)"/>
     <use xlink:href="#ArialMT-75" transform="translate(1077.978516 0)"/>
     <use xlink:href="#ArialMT-64" transform="translate(1133.59375 0)"/>
     <use xlink:href="#ArialMT-20" transform="translate(1189.208984 0)"/>
     <use xlink:href="#ArialMT-50" transform="translate(1216.992188 0)"/>
     <use xlink:href="#ArialMT-6c" transform="translate(1283.691406 0)"/>
     <use xlink:href="#ArialMT-6f" transform="translate(1305.908203 0)"/>
     <use xlink:href="#ArialMT-74" transform="translate(1361.523438 0)"/>
    </g>
   </g>
  </g>
 </g>
 <defs>
  <clipPath id="p08b69c2e5c">
   <rect x="44.268" y="26.448" width="449.364" height="448.444"/>
  </clipPath>
 </defs>
</svg>
