<?xml version="1.0" encoding="utf-8" standalone="no"?>
<!DOCTYPE svg PUBLIC "-//W3C//DTD SVG 1.1//EN"
  "http://www.w3.org/Graphics/SVG/1.1/DTD/svg11.dtd">
<svg xmlns:xlink="http://www.w3.org/1999/xlink" width="504pt" height="504pt" viewBox="0 0 504 504" xmlns="http://www.w3.org/2000/svg" version="1.1">
 <metadata>
  <rdf:RDF xmlns:dc="http://purl.org/dc/elements/1.1/" xmlns:cc="http://creativecommons.org/ns#" xmlns:rdf="http://www.w3.org/1999/02/22-rdf-syntax-ns#">
   <cc:Work>
    <dc:type rdf:resource="http://purl.org/dc/dcmitype/StillImage"/>
    <dc:date>2025-06-30T17:41:50.631120</dc:date>
    <dc:format>image/svg+xml</dc:format>
    <dc:creator>
     <cc:Agent>
      <dc:title>Matplotlib v3.10.0, https://matplotlib.org/</dc:title>
     </cc:Agent>
    </dc:creator>
   </cc:Work>
  </rdf:RDF>
 </metadata>
 <defs>
  <style type="text/css">*{stroke-linejoin: round; stroke-linecap: butt}</style>
 </defs>
 <g id="figure_1">
  <g id="patch_1">
   <path d="M 0 504 
L 504 504 
L 504 0 
L 0 0 
z
" style="fill: #ffffff"/>
  </g>
  <g id="axes_1">
   <g id="patch_2">
    <path d="M 46.158 474.532 
L 493.632 474.532 
L 493.632 27.168 
L 46.158 27.168 
z
" style="fill: #ffffff"/>
   </g>
   <g id="matplotlib.axis_1">
    <g id="xtick_1">
     <g id="text_1">
      <!-- Pre OFF -->
      <g style="fill: #262626" transform="translate(99.591219 491.190281) scale(0.11 -0.11)">
       <defs>
        <path id="DejaVuSans-50" d="M 1259 4147 
L 1259 2394 
L 2053 2394 
Q 2494 2394 2734 2622 
Q 2975 2850 2975 3272 
Q 2975 3691 2734 3919 
Q 2494 4147 2053 4147 
L 1259 4147 
z
M 628 4666 
L 2053 4666 
Q 2838 4666 3239 4311 
Q 3641 3956 3641 3272 
Q 3641 2581 3239 2228 
Q 2838 1875 2053 1875 
L 1259 1875 
L 1259 0 
L 628 0 
L 628 4666 
z
" transform="scale(0.015625)"/>
        <path id="DejaVuSans-72" d="M 2631 2963 
Q 2534 3019 2420 3045 
Q 2306 3072 2169 3072 
Q 1681 3072 1420 2755 
Q 1159 2438 1159 1844 
L 1159 0 
L 581 0 
L 581 3500 
L 1159 3500 
L 1159 2956 
Q 1341 3275 1631 3429 
Q 1922 3584 2338 3584 
Q 2397 3584 2469 3576 
Q 2541 3569 2628 3553 
L 2631 2963 
z
" transform="scale(0.015625)"/>
        <path id="DejaVuSans-65" d="M 3597 1894 
L 3597 1613 
L 953 1613 
Q 991 1019 1311 708 
Q 1631 397 2203 397 
Q 2534 397 2845 478 
Q 3156 559 3463 722 
L 3463 178 
Q 3153 47 2828 -22 
Q 2503 -91 2169 -91 
Q 1331 -91 842 396 
Q 353 884 353 1716 
Q 353 2575 817 3079 
Q 1281 3584 2069 3584 
Q 2775 3584 3186 3129 
Q 3597 2675 3597 1894 
z
M 3022 2063 
Q 3016 2534 2758 2815 
Q 2500 3097 2075 3097 
Q 1594 3097 1305 2825 
Q 1016 2553 972 2059 
L 3022 2063 
z
" transform="scale(0.015625)"/>
        <path id="DejaVuSans-20" transform="scale(0.015625)"/>
        <path id="DejaVuSans-4f" d="M 2522 4238 
Q 1834 4238 1429 3725 
Q 1025 3213 1025 2328 
Q 1025 1447 1429 934 
Q 1834 422 2522 422 
Q 3209 422 3611 934 
Q 4013 1447 4013 2328 
Q 4013 3213 3611 3725 
Q 3209 4238 2522 4238 
z
M 2522 4750 
Q 3503 4750 4090 4092 
Q 4678 3434 4678 2328 
Q 4678 1225 4090 567 
Q 3503 -91 2522 -91 
Q 1538 -91 948 565 
Q 359 1222 359 2328 
Q 359 3434 948 4092 
Q 1538 4750 2522 4750 
z
" transform="scale(0.015625)"/>
        <path id="DejaVuSans-46" d="M 628 4666 
L 3309 4666 
L 3309 4134 
L 1259 4134 
L 1259 2759 
L 3109 2759 
L 3109 2228 
L 1259 2228 
L 1259 0 
L 628 0 
L 628 4666 
z
" transform="scale(0.015625)"/>
       </defs>
       <use xlink:href="#DejaVuSans-50"/>
       <use xlink:href="#DejaVuSans-72" transform="translate(58.552734 0)"/>
       <use xlink:href="#DejaVuSans-65" transform="translate(97.416016 0)"/>
       <use xlink:href="#DejaVuSans-20" transform="translate(158.939453 0)"/>
       <use xlink:href="#DejaVuSans-4f" transform="translate(190.726562 0)"/>
       <use xlink:href="#DejaVuSans-46" transform="translate(269.4375 0)"/>
       <use xlink:href="#DejaVuSans-46" transform="translate(326.957031 0)"/>
      </g>
     </g>
    </g>
    <g id="xtick_2">
     <g id="text_2">
      <!-- Pre ON -->
      <g style="fill: #262626" transform="translate(250.96125 491.190281) scale(0.11 -0.11)">
       <defs>
        <path id="DejaVuSans-4e" d="M 628 4666 
L 1478 4666 
L 3547 763 
L 3547 4666 
L 4159 4666 
L 4159 0 
L 3309 0 
L 1241 3903 
L 1241 0 
L 628 0 
L 628 4666 
z
" transform="scale(0.015625)"/>
       </defs>
       <use xlink:href="#DejaVuSans-50"/>
       <use xlink:href="#DejaVuSans-72" transform="translate(58.552734 0)"/>
       <use xlink:href="#DejaVuSans-65" transform="translate(97.416016 0)"/>
       <use xlink:href="#DejaVuSans-20" transform="translate(158.939453 0)"/>
       <use xlink:href="#DejaVuSans-4f" transform="translate(190.726562 0)"/>
       <use xlink:href="#DejaVuSans-4e" transform="translate(269.4375 0)"/>
      </g>
     </g>
    </g>
    <g id="xtick_3">
     <g id="text_3">
      <!-- Post ON/Stim On -->
      <g style="fill: #262626" transform="translate(373.408156 491.190281) scale(0.11 -0.11)">
       <defs>
        <path id="DejaVuSans-6f" d="M 1959 3097 
Q 1497 3097 1228 2736 
Q 959 2375 959 1747 
Q 959 1119 1226 758 
Q 1494 397 1959 397 
Q 2419 397 2687 759 
Q 2956 1122 2956 1747 
Q 2956 2369 2687 2733 
Q 2419 3097 1959 3097 
z
M 1959 3584 
Q 2709 3584 3137 3096 
Q 3566 2609 3566 1747 
Q 3566 888 3137 398 
Q 2709 -91 1959 -91 
Q 1206 -91 779 398 
Q 353 888 353 1747 
Q 353 2609 779 3096 
Q 1206 3584 1959 3584 
z
" transform="scale(0.015625)"/>
        <path id="DejaVuSans-73" d="M 2834 3397 
L 2834 2853 
Q 2591 2978 2328 3040 
Q 2066 3103 1784 3103 
Q 1356 3103 1142 2972 
Q 928 2841 928 2578 
Q 928 2378 1081 2264 
Q 1234 2150 1697 2047 
L 1894 2003 
Q 2506 1872 2764 1633 
Q 3022 1394 3022 966 
Q 3022 478 2636 193 
Q 2250 -91 1575 -91 
Q 1294 -91 989 -36 
Q 684 19 347 128 
L 347 722 
Q 666 556 975 473 
Q 1284 391 1588 391 
Q 1994 391 2212 530 
Q 2431 669 2431 922 
Q 2431 1156 2273 1281 
Q 2116 1406 1581 1522 
L 1381 1569 
Q 847 1681 609 1914 
Q 372 2147 372 2553 
Q 372 3047 722 3315 
Q 1072 3584 1716 3584 
Q 2034 3584 2315 3537 
Q 2597 3491 2834 3397 
z
" transform="scale(0.015625)"/>
        <path id="DejaVuSans-74" d="M 1172 4494 
L 1172 3500 
L 2356 3500 
L 2356 3053 
L 1172 3053 
L 1172 1153 
Q 1172 725 1289 603 
Q 1406 481 1766 481 
L 2356 481 
L 2356 0 
L 1766 0 
Q 1100 0 847 248 
Q 594 497 594 1153 
L 594 3053 
L 172 3053 
L 172 3500 
L 594 3500 
L 594 4494 
L 1172 4494 
z
" transform="scale(0.015625)"/>
        <path id="DejaVuSans-2f" d="M 1625 4666 
L 2156 4666 
L 531 -594 
L 0 -594 
L 1625 4666 
z
" transform="scale(0.015625)"/>
        <path id="DejaVuSans-53" d="M 3425 4513 
L 3425 3897 
Q 3066 4069 2747 4153 
Q 2428 4238 2131 4238 
Q 1616 4238 1336 4038 
Q 1056 3838 1056 3469 
Q 1056 3159 1242 3001 
Q 1428 2844 1947 2747 
L 2328 2669 
Q 3034 2534 3370 2195 
Q 3706 1856 3706 1288 
Q 3706 609 3251 259 
Q 2797 -91 1919 -91 
Q 1588 -91 1214 -16 
Q 841 59 441 206 
L 441 856 
Q 825 641 1194 531 
Q 1563 422 1919 422 
Q 2459 422 2753 634 
Q 3047 847 3047 1241 
Q 3047 1584 2836 1778 
Q 2625 1972 2144 2069 
L 1759 2144 
Q 1053 2284 737 2584 
Q 422 2884 422 3419 
Q 422 4038 858 4394 
Q 1294 4750 2059 4750 
Q 2388 4750 2728 4690 
Q 3069 4631 3425 4513 
z
" transform="scale(0.015625)"/>
        <path id="DejaVuSans-69" d="M 603 3500 
L 1178 3500 
L 1178 0 
L 603 0 
L 603 3500 
z
M 603 4863 
L 1178 4863 
L 1178 4134 
L 603 4134 
L 603 4863 
z
" transform="scale(0.015625)"/>
        <path id="DejaVuSans-6d" d="M 3328 2828 
Q 3544 3216 3844 3400 
Q 4144 3584 4550 3584 
Q 5097 3584 5394 3201 
Q 5691 2819 5691 2113 
L 5691 0 
L 5113 0 
L 5113 2094 
Q 5113 2597 4934 2840 
Q 4756 3084 4391 3084 
Q 3944 3084 3684 2787 
Q 3425 2491 3425 1978 
L 3425 0 
L 2847 0 
L 2847 2094 
Q 2847 2600 2669 2842 
Q 2491 3084 2119 3084 
Q 1678 3084 1418 2786 
Q 1159 2488 1159 1978 
L 1159 0 
L 581 0 
L 581 3500 
L 1159 3500 
L 1159 2956 
Q 1356 3278 1631 3431 
Q 1906 3584 2284 3584 
Q 2666 3584 2933 3390 
Q 3200 3197 3328 2828 
z
" transform="scale(0.015625)"/>
        <path id="DejaVuSans-6e" d="M 3513 2113 
L 3513 0 
L 2938 0 
L 2938 2094 
Q 2938 2591 2744 2837 
Q 2550 3084 2163 3084 
Q 1697 3084 1428 2787 
Q 1159 2491 1159 1978 
L 1159 0 
L 581 0 
L 581 3500 
L 1159 3500 
L 1159 2956 
Q 1366 3272 1645 3428 
Q 1925 3584 2291 3584 
Q 2894 3584 3203 3211 
Q 3513 2838 3513 2113 
z
" transform="scale(0.015625)"/>
       </defs>
       <use xlink:href="#DejaVuSans-50"/>
       <use xlink:href="#DejaVuSans-6f" transform="translate(56.677734 0)"/>
       <use xlink:href="#DejaVuSans-73" transform="translate(117.859375 0)"/>
       <use xlink:href="#DejaVuSans-74" transform="translate(169.958984 0)"/>
       <use xlink:href="#DejaVuSans-20" transform="translate(209.167969 0)"/>
       <use xlink:href="#DejaVuSans-4f" transform="translate(240.955078 0)"/>
       <use xlink:href="#DejaVuSans-4e" transform="translate(319.666016 0)"/>
       <use xlink:href="#DejaVuSans-2f" transform="translate(394.470703 0)"/>
       <use xlink:href="#DejaVuSans-53" transform="translate(428.162109 0)"/>
       <use xlink:href="#DejaVuSans-74" transform="translate(491.638672 0)"/>
       <use xlink:href="#DejaVuSans-69" transform="translate(530.847656 0)"/>
       <use xlink:href="#DejaVuSans-6d" transform="translate(558.630859 0)"/>
       <use xlink:href="#DejaVuSans-20" transform="translate(656.042969 0)"/>
       <use xlink:href="#DejaVuSans-4f" transform="translate(687.830078 0)"/>
       <use xlink:href="#DejaVuSans-6e" transform="translate(766.541016 0)"/>
      </g>
     </g>
    </g>
   </g>
   <g id="matplotlib.axis_2">
    <g id="ytick_1">
     <g id="text_4">
      <!-- 10 -->
      <g style="fill: #262626" transform="translate(25.133 426.306007) scale(0.1 -0.1)">
       <defs>
        <path id="DejaVuSans-31" d="M 794 531 
L 1825 531 
L 1825 4091 
L 703 3866 
L 703 4441 
L 1819 4666 
L 2450 4666 
L 2450 531 
L 3481 531 
L 3481 0 
L 794 0 
L 794 531 
z
" transform="scale(0.015625)"/>
        <path id="DejaVuSans-30" d="M 2034 4250 
Q 1547 4250 1301 3770 
Q 1056 3291 1056 2328 
Q 1056 1369 1301 889 
Q 1547 409 2034 409 
Q 2525 409 2770 889 
Q 3016 1369 3016 2328 
Q 3016 3291 2770 3770 
Q 2525 4250 2034 4250 
z
M 2034 4750 
Q 2819 4750 3233 4129 
Q 3647 3509 3647 2328 
Q 3647 1150 3233 529 
Q 2819 -91 2034 -91 
Q 1250 -91 836 529 
Q 422 1150 422 2328 
Q 422 3509 836 4129 
Q 1250 4750 2034 4750 
z
" transform="scale(0.015625)"/>
       </defs>
       <use xlink:href="#DejaVuSans-31"/>
       <use xlink:href="#DejaVuSans-30" transform="translate(63.623047 0)"/>
      </g>
     </g>
    </g>
    <g id="ytick_2">
     <g id="text_5">
      <!-- 20 -->
      <g style="fill: #262626" transform="translate(25.133 373.488534) scale(0.1 -0.1)">
       <defs>
        <path id="DejaVuSans-32" d="M 1228 531 
L 3431 531 
L 3431 0 
L 469 0 
L 469 531 
Q 828 903 1448 1529 
Q 2069 2156 2228 2338 
Q 2531 2678 2651 2914 
Q 2772 3150 2772 3378 
Q 2772 3750 2511 3984 
Q 2250 4219 1831 4219 
Q 1534 4219 1204 4116 
Q 875 4013 500 3803 
L 500 4441 
Q 881 4594 1212 4672 
Q 1544 4750 1819 4750 
Q 2544 4750 2975 4387 
Q 3406 4025 3406 3419 
Q 3406 3131 3298 2873 
Q 3191 2616 2906 2266 
Q 2828 2175 2409 1742 
Q 1991 1309 1228 531 
z
" transform="scale(0.015625)"/>
       </defs>
       <use xlink:href="#DejaVuSans-32"/>
       <use xlink:href="#DejaVuSans-30" transform="translate(63.623047 0)"/>
      </g>
     </g>
    </g>
    <g id="ytick_3">
     <g id="text_6">
      <!-- 30 -->
      <g style="fill: #262626" transform="translate(25.133 320.671061) scale(0.1 -0.1)">
       <defs>
        <path id="DejaVuSans-33" d="M 2597 2516 
Q 3050 2419 3304 2112 
Q 3559 1806 3559 1356 
Q 3559 666 3084 287 
Q 2609 -91 1734 -91 
Q 1441 -91 1130 -33 
Q 819 25 488 141 
L 488 750 
Q 750 597 1062 519 
Q 1375 441 1716 441 
Q 2309 441 2620 675 
Q 2931 909 2931 1356 
Q 2931 1769 2642 2001 
Q 2353 2234 1838 2234 
L 1294 2234 
L 1294 2753 
L 1863 2753 
Q 2328 2753 2575 2939 
Q 2822 3125 2822 3475 
Q 2822 3834 2567 4026 
Q 2313 4219 1838 4219 
Q 1578 4219 1281 4162 
Q 984 4106 628 3988 
L 628 4550 
Q 988 4650 1302 4700 
Q 1616 4750 1894 4750 
Q 2613 4750 3031 4423 
Q 3450 4097 3450 3541 
Q 3450 3153 3228 2886 
Q 3006 2619 2597 2516 
z
" transform="scale(0.015625)"/>
       </defs>
       <use xlink:href="#DejaVuSans-33"/>
       <use xlink:href="#DejaVuSans-30" transform="translate(63.623047 0)"/>
      </g>
     </g>
    </g>
    <g id="ytick_4">
     <g id="text_7">
      <!-- 40 -->
      <g style="fill: #262626" transform="translate(25.133 267.853587) scale(0.1 -0.1)">
       <defs>
        <path id="DejaVuSans-34" d="M 2419 4116 
L 825 1625 
L 2419 1625 
L 2419 4116 
z
M 2253 4666 
L 3047 4666 
L 3047 1625 
L 3713 1625 
L 3713 1100 
L 3047 1100 
L 3047 0 
L 2419 0 
L 2419 1100 
L 313 1100 
L 313 1709 
L 2253 4666 
z
" transform="scale(0.015625)"/>
       </defs>
       <use xlink:href="#DejaVuSans-34"/>
       <use xlink:href="#DejaVuSans-30" transform="translate(63.623047 0)"/>
      </g>
     </g>
    </g>
    <g id="ytick_5">
     <g id="text_8">
      <!-- 50 -->
      <g style="fill: #262626" transform="translate(25.133 215.036114) scale(0.1 -0.1)">
       <defs>
        <path id="DejaVuSans-35" d="M 691 4666 
L 3169 4666 
L 3169 4134 
L 1269 4134 
L 1269 2991 
Q 1406 3038 1543 3061 
Q 1681 3084 1819 3084 
Q 2600 3084 3056 2656 
Q 3513 2228 3513 1497 
Q 3513 744 3044 326 
Q 2575 -91 1722 -91 
Q 1428 -91 1123 -41 
Q 819 9 494 109 
L 494 744 
Q 775 591 1075 516 
Q 1375 441 1709 441 
Q 2250 441 2565 725 
Q 2881 1009 2881 1497 
Q 2881 1984 2565 2268 
Q 2250 2553 1709 2553 
Q 1456 2553 1204 2497 
Q 953 2441 691 2322 
L 691 4666 
z
" transform="scale(0.015625)"/>
       </defs>
       <use xlink:href="#DejaVuSans-35"/>
       <use xlink:href="#DejaVuSans-30" transform="translate(63.623047 0)"/>
      </g>
     </g>
    </g>
    <g id="ytick_6">
     <g id="text_9">
      <!-- 60 -->
      <g style="fill: #262626" transform="translate(25.133 162.21864) scale(0.1 -0.1)">
       <defs>
        <path id="DejaVuSans-36" d="M 2113 2584 
Q 1688 2584 1439 2293 
Q 1191 2003 1191 1497 
Q 1191 994 1439 701 
Q 1688 409 2113 409 
Q 2538 409 2786 701 
Q 3034 994 3034 1497 
Q 3034 2003 2786 2293 
Q 2538 2584 2113 2584 
z
M 3366 4563 
L 3366 3988 
Q 3128 4100 2886 4159 
Q 2644 4219 2406 4219 
Q 1781 4219 1451 3797 
Q 1122 3375 1075 2522 
Q 1259 2794 1537 2939 
Q 1816 3084 2150 3084 
Q 2853 3084 3261 2657 
Q 3669 2231 3669 1497 
Q 3669 778 3244 343 
Q 2819 -91 2113 -91 
Q 1303 -91 875 529 
Q 447 1150 447 2328 
Q 447 3434 972 4092 
Q 1497 4750 2381 4750 
Q 2619 4750 2861 4703 
Q 3103 4656 3366 4563 
z
" transform="scale(0.015625)"/>
       </defs>
       <use xlink:href="#DejaVuSans-36"/>
       <use xlink:href="#DejaVuSans-30" transform="translate(63.623047 0)"/>
      </g>
     </g>
    </g>
    <g id="ytick_7">
     <g id="text_10">
      <!-- 70 -->
      <g style="fill: #262626" transform="translate(25.133 109.401167) scale(0.1 -0.1)">
       <defs>
        <path id="DejaVuSans-37" d="M 525 4666 
L 3525 4666 
L 3525 4397 
L 1831 0 
L 1172 0 
L 2766 4134 
L 525 4134 
L 525 4666 
z
" transform="scale(0.015625)"/>
       </defs>
       <use xlink:href="#DejaVuSans-37"/>
       <use xlink:href="#DejaVuSans-30" transform="translate(63.623047 0)"/>
      </g>
     </g>
    </g>
    <g id="ytick_8">
     <g id="text_11">
      <!-- 80 -->
      <g style="fill: #262626" transform="translate(25.133 56.583693) scale(0.1 -0.1)">
       <defs>
        <path id="DejaVuSans-38" d="M 2034 2216 
Q 1584 2216 1326 1975 
Q 1069 1734 1069 1313 
Q 1069 891 1326 650 
Q 1584 409 2034 409 
Q 2484 409 2743 651 
Q 3003 894 3003 1313 
Q 3003 1734 2745 1975 
Q 2488 2216 2034 2216 
z
M 1403 2484 
Q 997 2584 770 2862 
Q 544 3141 544 3541 
Q 544 4100 942 4425 
Q 1341 4750 2034 4750 
Q 2731 4750 3128 4425 
Q 3525 4100 3525 3541 
Q 3525 3141 3298 2862 
Q 3072 2584 2669 2484 
Q 3125 2378 3379 2068 
Q 3634 1759 3634 1313 
Q 3634 634 3220 271 
Q 2806 -91 2034 -91 
Q 1263 -91 848 271 
Q 434 634 434 1313 
Q 434 1759 690 2068 
Q 947 2378 1403 2484 
z
M 1172 3481 
Q 1172 3119 1398 2916 
Q 1625 2713 2034 2713 
Q 2441 2713 2670 2916 
Q 2900 3119 2900 3481 
Q 2900 3844 2670 4047 
Q 2441 4250 2034 4250 
Q 1625 4250 1398 4047 
Q 1172 3844 1172 3481 
z
" transform="scale(0.015625)"/>
       </defs>
       <use xlink:href="#DejaVuSans-38"/>
       <use xlink:href="#DejaVuSans-30" transform="translate(63.623047 0)"/>
      </g>
     </g>
    </g>
    <g id="text_12">
     <!-- MDS-UPDRS III -->
     <g style="fill: #262626" transform="translate(18.845344 290.811797) rotate(-90) scale(0.11 -0.11)">
      <defs>
       <path id="DejaVuSans-4d" d="M 628 4666 
L 1569 4666 
L 2759 1491 
L 3956 4666 
L 4897 4666 
L 4897 0 
L 4281 0 
L 4281 4097 
L 3078 897 
L 2444 897 
L 1241 4097 
L 1241 0 
L 628 0 
L 628 4666 
z
" transform="scale(0.015625)"/>
       <path id="DejaVuSans-44" d="M 1259 4147 
L 1259 519 
L 2022 519 
Q 2988 519 3436 956 
Q 3884 1394 3884 2338 
Q 3884 3275 3436 3711 
Q 2988 4147 2022 4147 
L 1259 4147 
z
M 628 4666 
L 1925 4666 
Q 3281 4666 3915 4102 
Q 4550 3538 4550 2338 
Q 4550 1131 3912 565 
Q 3275 0 1925 0 
L 628 0 
L 628 4666 
z
" transform="scale(0.015625)"/>
       <path id="DejaVuSans-2d" d="M 313 2009 
L 1997 2009 
L 1997 1497 
L 313 1497 
L 313 2009 
z
" transform="scale(0.015625)"/>
       <path id="DejaVuSans-55" d="M 556 4666 
L 1191 4666 
L 1191 1831 
Q 1191 1081 1462 751 
Q 1734 422 2344 422 
Q 2950 422 3222 751 
Q 3494 1081 3494 1831 
L 3494 4666 
L 4128 4666 
L 4128 1753 
Q 4128 841 3676 375 
Q 3225 -91 2344 -91 
Q 1459 -91 1007 375 
Q 556 841 556 1753 
L 556 4666 
z
" transform="scale(0.015625)"/>
       <path id="DejaVuSans-52" d="M 2841 2188 
Q 3044 2119 3236 1894 
Q 3428 1669 3622 1275 
L 4263 0 
L 3584 0 
L 2988 1197 
Q 2756 1666 2539 1819 
Q 2322 1972 1947 1972 
L 1259 1972 
L 1259 0 
L 628 0 
L 628 4666 
L 2053 4666 
Q 2853 4666 3247 4331 
Q 3641 3997 3641 3322 
Q 3641 2881 3436 2590 
Q 3231 2300 2841 2188 
z
M 1259 4147 
L 1259 2491 
L 2053 2491 
Q 2509 2491 2742 2702 
Q 2975 2913 2975 3322 
Q 2975 3731 2742 3939 
Q 2509 4147 2053 4147 
L 1259 4147 
z
" transform="scale(0.015625)"/>
       <path id="DejaVuSans-49" d="M 628 4666 
L 1259 4666 
L 1259 0 
L 628 0 
L 628 4666 
z
" transform="scale(0.015625)"/>
      </defs>
      <use xlink:href="#DejaVuSans-4d"/>
      <use xlink:href="#DejaVuSans-44" transform="translate(86.279297 0)"/>
      <use xlink:href="#DejaVuSans-53" transform="translate(163.28125 0)"/>
      <use xlink:href="#DejaVuSans-2d" transform="translate(226.757812 0)"/>
      <use xlink:href="#DejaVuSans-55" transform="translate(262.841797 0)"/>
      <use xlink:href="#DejaVuSans-50" transform="translate(336.035156 0)"/>
      <use xlink:href="#DejaVuSans-44" transform="translate(396.337891 0)"/>
      <use xlink:href="#DejaVuSans-52" transform="translate(473.339844 0)"/>
      <use xlink:href="#DejaVuSans-53" transform="translate(542.822266 0)"/>
      <use xlink:href="#DejaVuSans-20" transform="translate(606.298828 0)"/>
      <use xlink:href="#DejaVuSans-49" transform="translate(638.085938 0)"/>
      <use xlink:href="#DejaVuSans-49" transform="translate(667.578125 0)"/>
      <use xlink:href="#DejaVuSans-49" transform="translate(697.070312 0)"/>
     </g>
    </g>
   </g>
   <g id="FillBetweenPolyCollection_1">
    <defs>
     <path id="m57447bd3a4" d="M 109.666821 -129.028937 
L 98.957033 -129.028937 
L 97.856963 -132.336698 
L 96.697885 -135.644459 
L 95.484141 -138.95222 
L 94.221289 -142.259981 
L 92.916097 -145.567742 
L 91.576483 -148.875503 
L 90.211402 -152.183264 
L 88.830694 -155.491025 
L 87.444876 -158.798786 
L 86.064909 -162.106547 
L 84.701949 -165.414308 
L 83.367085 -168.722069 
L 82.0711 -172.02983 
L 80.824254 -175.337591 
L 79.636111 -178.645352 
L 78.515415 -181.953113 
L 77.47001 -185.260874 
L 76.506818 -188.568635 
L 75.631852 -191.876396 
L 74.850256 -195.184157 
L 74.166355 -198.491918 
L 73.583706 -201.799679 
L 73.105126 -205.10744 
L 72.732686 -208.415201 
L 72.467674 -211.722961 
L 72.310512 -215.030722 
L 72.26065 -218.338483 
L 72.316434 -221.646244 
L 72.47498 -224.954005 
L 72.73206 -228.261766 
L 73.082039 -231.569527 
L 73.517864 -234.877288 
L 74.03114 -238.185049 
L 74.612284 -241.49281 
L 75.250772 -244.800571 
L 75.935463 -248.108332 
L 76.654998 -251.416093 
L 77.398233 -254.723854 
L 78.154694 -258.031615 
L 78.91502 -261.339376 
L 79.671355 -264.647137 
L 80.417672 -267.954898 
L 81.149999 -271.262659 
L 81.866526 -274.57042 
L 82.567594 -277.878181 
L 83.255558 -281.185942 
L 83.934531 -284.493703 
L 84.610031 -287.801464 
L 85.288559 -291.109225 
L 85.977114 -294.416986 
L 86.682703 -297.724747 
L 87.411857 -301.032507 
L 88.170191 -304.340268 
L 88.962024 -307.648029 
L 89.790093 -310.95579 
L 90.655352 -314.263551 
L 91.556894 -317.571312 
L 92.491955 -320.879073 
L 93.456034 -324.186834 
L 94.443083 -327.494595 
L 95.445775 -330.802356 
L 96.455815 -334.110117 
L 97.464286 -337.417878 
L 98.461994 -340.725639 
L 99.439809 -344.0334 
L 100.388978 -347.341161 
L 101.301396 -350.648922 
L 102.169827 -353.956683 
L 102.988065 -357.264444 
L 103.751046 -360.572205 
L 104.454894 -363.879966 
L 105.096923 -367.187727 
L 105.675588 -370.495488 
L 106.190404 -373.803249 
L 106.641843 -377.11101 
L 107.031205 -380.418771 
L 107.360494 -383.726532 
L 107.63229 -387.034293 
L 107.849635 -390.342053 
L 108.015932 -393.649814 
L 108.134861 -396.957575 
L 108.210316 -400.265336 
L 108.246363 -403.573097 
L 108.247208 -406.880858 
L 108.217179 -410.188619 
L 108.160714 -413.49638 
L 108.082351 -416.804141 
L 107.98671 -420.111902 
L 107.878466 -423.419663 
L 107.76231 -426.727424 
L 107.642899 -430.035185 
L 107.524778 -433.342946 
L 107.412304 -436.650707 
L 107.309549 -439.958468 
L 107.220201 -443.266229 
L 107.147472 -446.57399 
L 107.093999 -449.881751 
L 107.061779 -453.189512 
L 107.052105 -456.497273 
L 109.666821 -456.497273 
L 109.666821 -456.497273 
L 109.666821 -453.189512 
L 109.666821 -449.881751 
L 109.666821 -446.57399 
L 109.666821 -443.266229 
L 109.666821 -439.958468 
L 109.666821 -436.650707 
L 109.666821 -433.342946 
L 109.666821 -430.035185 
L 109.666821 -426.727424 
L 109.666821 -423.419663 
L 109.666821 -420.111902 
L 109.666821 -416.804141 
L 109.666821 -413.49638 
L 109.666821 -410.188619 
L 109.666821 -406.880858 
L 109.666821 -403.573097 
L 109.666821 -400.265336 
L 109.666821 -396.957575 
L 109.666821 -393.649814 
L 109.666821 -390.342053 
L 109.666821 -387.034293 
L 109.666821 -383.726532 
L 109.666821 -380.418771 
L 109.666821 -377.11101 
L 109.666821 -373.803249 
L 109.666821 -370.495488 
L 109.666821 -367.187727 
L 109.666821 -363.879966 
L 109.666821 -360.572205 
L 109.666821 -357.264444 
L 109.666821 -353.956683 
L 109.666821 -350.648922 
L 109.666821 -347.341161 
L 109.666821 -344.0334 
L 109.666821 -340.725639 
L 109.666821 -337.417878 
L 109.666821 -334.110117 
L 109.666821 -330.802356 
L 109.666821 -327.494595 
L 109.666821 -324.186834 
L 109.666821 -320.879073 
L 109.666821 -317.571312 
L 109.666821 -314.263551 
L 109.666821 -310.95579 
L 109.666821 -307.648029 
L 109.666821 -304.340268 
L 109.666821 -301.032507 
L 109.666821 -297.724747 
L 109.666821 -294.416986 
L 109.666821 -291.109225 
L 109.666821 -287.801464 
L 109.666821 -284.493703 
L 109.666821 -281.185942 
L 109.666821 -277.878181 
L 109.666821 -274.57042 
L 109.666821 -271.262659 
L 109.666821 -267.954898 
L 109.666821 -264.647137 
L 109.666821 -261.339376 
L 109.666821 -258.031615 
L 109.666821 -254.723854 
L 109.666821 -251.416093 
L 109.666821 -248.108332 
L 109.666821 -244.800571 
L 109.666821 -241.49281 
L 109.666821 -238.185049 
L 109.666821 -234.877288 
L 109.666821 -231.569527 
L 109.666821 -228.261766 
L 109.666821 -224.954005 
L 109.666821 -221.646244 
L 109.666821 -218.338483 
L 109.666821 -215.030722 
L 109.666821 -211.722961 
L 109.666821 -208.415201 
L 109.666821 -205.10744 
L 109.666821 -201.799679 
L 109.666821 -198.491918 
L 109.666821 -195.184157 
L 109.666821 -191.876396 
L 109.666821 -188.568635 
L 109.666821 -185.260874 
L 109.666821 -181.953113 
L 109.666821 -178.645352 
L 109.666821 -175.337591 
L 109.666821 -172.02983 
L 109.666821 -168.722069 
L 109.666821 -165.414308 
L 109.666821 -162.106547 
L 109.666821 -158.798786 
L 109.666821 -155.491025 
L 109.666821 -152.183264 
L 109.666821 -148.875503 
L 109.666821 -145.567742 
L 109.666821 -142.259981 
L 109.666821 -138.95222 
L 109.666821 -135.644459 
L 109.666821 -132.336698 
L 109.666821 -129.028937 
z
"/>
    </defs>
    <g clip-path="url(#p5c04ed7ddc)">
     <use xlink:href="#m57447bd3a4" x="0" y="504" style="fill: #5875a4"/>
    </g>
   </g>
   <g id="FillBetweenPolyCollection_2">
    <defs>
     <path id="m3e88b433e0" d="M 258.857352 -49.802727 
L 245.534396 -49.802727 
L 244.562926 -51.936767 
L 243.554567 -54.070806 
L 242.510791 -56.204845 
L 241.433633 -58.338885 
L 240.325779 -60.472924 
L 239.19064 -62.606963 
L 238.032408 -64.741003 
L 236.856101 -66.875042 
L 235.667569 -69.009081 
L 234.473483 -71.143121 
L 233.281292 -73.27716 
L 232.099138 -75.411199 
L 230.935752 -77.545239 
L 229.800318 -79.679278 
L 228.702302 -81.813317 
L 227.651273 -83.947357 
L 226.656698 -86.081396 
L 225.727729 -88.215435 
L 224.872994 -90.349475 
L 224.100384 -92.483514 
L 223.416854 -94.617553 
L 222.828247 -96.751593 
L 222.339134 -98.885632 
L 221.952693 -101.019671 
L 221.670619 -103.153711 
L 221.493067 -105.28775 
L 221.41865 -107.421789 
L 221.444464 -109.555829 
L 221.566163 -111.689868 
L 221.778076 -113.823907 
L 222.073356 -115.957947 
L 222.444163 -118.091986 
L 222.881884 -120.226025 
L 223.377363 -122.360065 
L 223.92115 -124.494104 
L 224.503759 -126.628143 
L 225.115914 -128.762183 
L 225.748798 -130.896222 
L 226.394261 -133.030261 
L 227.045021 -135.164301 
L 227.694814 -137.29834 
L 228.338505 -139.432379 
L 228.972161 -141.566418 
L 229.593068 -143.700458 
L 230.1997 -145.834497 
L 230.791652 -147.968536 
L 231.369516 -150.102576 
L 231.934735 -152.236615 
L 232.489426 -154.370654 
L 233.036181 -156.504694 
L 233.57786 -158.638733 
L 234.117396 -160.772772 
L 234.657599 -162.906812 
L 235.200987 -165.040851 
L 235.749648 -167.17489 
L 236.30513 -169.30893 
L 236.868376 -171.442969 
L 237.439693 -173.577008 
L 238.018764 -175.711048 
L 238.604689 -177.845087 
L 239.196064 -179.979126 
L 239.791079 -182.113166 
L 240.387631 -184.247205 
L 240.98345 -186.381244 
L 241.57622 -188.515284 
L 242.16369 -190.649323 
L 242.743779 -192.783362 
L 243.314652 -194.917402 
L 243.874777 -197.051441 
L 244.422953 -199.18548 
L 244.958323 -201.31952 
L 245.48035 -203.453559 
L 245.988783 -205.587598 
L 246.483606 -207.721638 
L 246.964976 -209.855677 
L 247.433156 -211.989716 
L 247.888455 -214.123756 
L 248.331167 -216.257795 
L 248.761525 -218.391834 
L 249.17967 -220.525874 
L 249.585633 -222.659913 
L 249.979333 -224.793952 
L 250.360592 -226.927992 
L 250.729161 -229.062031 
L 251.084756 -231.19607 
L 251.427105 -233.33011 
L 251.755988 -235.464149 
L 252.071285 -237.598188 
L 252.373012 -239.732228 
L 252.661349 -241.866267 
L 252.936661 -244.000306 
L 253.199503 -246.134346 
L 253.450608 -248.268385 
L 253.690873 -250.402424 
L 253.921323 -252.536464 
L 254.143071 -254.670503 
L 254.357272 -256.804542 
L 254.565074 -258.938582 
L 254.767565 -261.072621 
L 258.857352 -261.072621 
L 258.857352 -261.072621 
L 258.857352 -258.938582 
L 258.857352 -256.804542 
L 258.857352 -254.670503 
L 258.857352 -252.536464 
L 258.857352 -250.402424 
L 258.857352 -248.268385 
L 258.857352 -246.134346 
L 258.857352 -244.000306 
L 258.857352 -241.866267 
L 258.857352 -239.732228 
L 258.857352 -237.598188 
L 258.857352 -235.464149 
L 258.857352 -233.33011 
L 258.857352 -231.19607 
L 258.857352 -229.062031 
L 258.857352 -226.927992 
L 258.857352 -224.793952 
L 258.857352 -222.659913 
L 258.857352 -220.525874 
L 258.857352 -218.391834 
L 258.857352 -216.257795 
L 258.857352 -214.123756 
L 258.857352 -211.989716 
L 258.857352 -209.855677 
L 258.857352 -207.721638 
L 258.857352 -205.587598 
L 258.857352 -203.453559 
L 258.857352 -201.31952 
L 258.857352 -199.18548 
L 258.857352 -197.051441 
L 258.857352 -194.917402 
L 258.857352 -192.783362 
L 258.857352 -190.649323 
L 258.857352 -188.515284 
L 258.857352 -186.381244 
L 258.857352 -184.247205 
L 258.857352 -182.113166 
L 258.857352 -179.979126 
L 258.857352 -177.845087 
L 258.857352 -175.711048 
L 258.857352 -173.577008 
L 258.857352 -171.442969 
L 258.857352 -169.30893 
L 258.857352 -167.17489 
L 258.857352 -165.040851 
L 258.857352 -162.906812 
L 258.857352 -160.772772 
L 258.857352 -158.638733 
L 258.857352 -156.504694 
L 258.857352 -154.370654 
L 258.857352 -152.236615 
L 258.857352 -150.102576 
L 258.857352 -147.968536 
L 258.857352 -145.834497 
L 258.857352 -143.700458 
L 258.857352 -141.566418 
L 258.857352 -139.432379 
L 258.857352 -137.29834 
L 258.857352 -135.164301 
L 258.857352 -133.030261 
L 258.857352 -130.896222 
L 258.857352 -128.762183 
L 258.857352 -126.628143 
L 258.857352 -124.494104 
L 258.857352 -122.360065 
L 258.857352 -120.226025 
L 258.857352 -118.091986 
L 258.857352 -115.957947 
L 258.857352 -113.823907 
L 258.857352 -111.689868 
L 258.857352 -109.555829 
L 258.857352 -107.421789 
L 258.857352 -105.28775 
L 258.857352 -103.153711 
L 258.857352 -101.019671 
L 258.857352 -98.885632 
L 258.857352 -96.751593 
L 258.857352 -94.617553 
L 258.857352 -92.483514 
L 258.857352 -90.349475 
L 258.857352 -88.215435 
L 258.857352 -86.081396 
L 258.857352 -83.947357 
L 258.857352 -81.813317 
L 258.857352 -79.679278 
L 258.857352 -77.545239 
L 258.857352 -75.411199 
L 258.857352 -73.27716 
L 258.857352 -71.143121 
L 258.857352 -69.009081 
L 258.857352 -66.875042 
L 258.857352 -64.741003 
L 258.857352 -62.606963 
L 258.857352 -60.472924 
L 258.857352 -58.338885 
L 258.857352 -56.204845 
L 258.857352 -54.070806 
L 258.857352 -51.936767 
L 258.857352 -49.802727 
z
"/>
    </defs>
    <g clip-path="url(#p5c04ed7ddc)">
     <use xlink:href="#m3e88b433e0" x="0" y="504" style="fill: #cc8963"/>
    </g>
   </g>
   <g id="FillBetweenPolyCollection_3">
    <defs>
     <path id="mc856ba7aec" d="M 408.131408 -65.647969 
L 385.149975 -65.647969 
L 383.913417 -67.942062 
L 382.693379 -70.236154 
L 381.497661 -72.530246 
L 380.333998 -74.824338 
L 379.209957 -77.118431 
L 378.132827 -79.412523 
L 377.109514 -81.706615 
L 376.146433 -84.000708 
L 375.249408 -86.2948 
L 374.423578 -88.588892 
L 373.673305 -90.882984 
L 373.002094 -93.177077 
L 372.412531 -95.471169 
L 371.90622 -97.765261 
L 371.483748 -100.059354 
L 371.144659 -102.353446 
L 370.887446 -104.647538 
L 370.709566 -106.94163 
L 370.607469 -109.235723 
L 370.57665 -111.529815 
L 370.61172 -113.823907 
L 370.706491 -116.117999 
L 370.854084 -118.412092 
L 371.047051 -120.706184 
L 371.277501 -123.000276 
L 371.537252 -125.294369 
L 371.81797 -127.588461 
L 372.111331 -129.882553 
L 372.409164 -132.176645 
L 372.703602 -134.470738 
L 372.987223 -136.76483 
L 373.253175 -139.058922 
L 373.495294 -141.353015 
L 373.708201 -143.647107 
L 373.887382 -145.941199 
L 374.029254 -148.235291 
L 374.131202 -150.529384 
L 374.191604 -152.823476 
L 374.209835 -155.117568 
L 374.186251 -157.411661 
L 374.122158 -159.705753 
L 374.019767 -161.999845 
L 373.882136 -164.293937 
L 373.713099 -166.58803 
L 373.51719 -168.882122 
L 373.299561 -171.176214 
L 373.065887 -173.470306 
L 372.822281 -175.764399 
L 372.575196 -178.058491 
L 372.331331 -180.352583 
L 372.097533 -182.646676 
L 371.880709 -184.940768 
L 371.687722 -187.23486 
L 371.525306 -189.528952 
L 371.399966 -191.823045 
L 371.317893 -194.117137 
L 371.284871 -196.411229 
L 371.306192 -198.705322 
L 371.386571 -200.999414 
L 371.530069 -203.293506 
L 371.740018 -205.587598 
L 372.018958 -207.881691 
L 372.368576 -210.175783 
L 372.789667 -212.469875 
L 373.282094 -214.763968 
L 373.844777 -217.05806 
L 374.475688 -219.352152 
L 375.17187 -221.646244 
L 375.929469 -223.940337 
L 376.743789 -226.234429 
L 377.609366 -228.528521 
L 378.520059 -230.822614 
L 379.469156 -233.116706 
L 380.449501 -235.410798 
L 381.453622 -237.70489 
L 382.473878 -239.998983 
L 383.502608 -242.293075 
L 384.532279 -244.587167 
L 385.555632 -246.881259 
L 386.56582 -249.175352 
L 387.556537 -251.469444 
L 388.52213 -253.763536 
L 389.457693 -256.057629 
L 390.359134 -258.351721 
L 391.223232 -260.645813 
L 392.047653 -262.939905 
L 392.830957 -265.233998 
L 393.572564 -267.52809 
L 394.272715 -269.822182 
L 394.932394 -272.116275 
L 395.553249 -274.410367 
L 396.137485 -276.704459 
L 396.687755 -278.998551 
L 397.207038 -281.292644 
L 397.698525 -283.586736 
L 398.165493 -285.880828 
L 398.6112 -288.174921 
L 399.038775 -290.469013 
L 399.451134 -292.763105 
L 408.131408 -292.763105 
L 408.131408 -292.763105 
L 408.131408 -290.469013 
L 408.131408 -288.174921 
L 408.131408 -285.880828 
L 408.131408 -283.586736 
L 408.131408 -281.292644 
L 408.131408 -278.998551 
L 408.131408 -276.704459 
L 408.131408 -274.410367 
L 408.131408 -272.116275 
L 408.131408 -269.822182 
L 408.131408 -267.52809 
L 408.131408 -265.233998 
L 408.131408 -262.939905 
L 408.131408 -260.645813 
L 408.131408 -258.351721 
L 408.131408 -256.057629 
L 408.131408 -253.763536 
L 408.131408 -251.469444 
L 408.131408 -249.175352 
L 408.131408 -246.881259 
L 408.131408 -244.587167 
L 408.131408 -242.293075 
L 408.131408 -239.998983 
L 408.131408 -237.70489 
L 408.131408 -235.410798 
L 408.131408 -233.116706 
L 408.131408 -230.822614 
L 408.131408 -228.528521 
L 408.131408 -226.234429 
L 408.131408 -223.940337 
L 408.131408 -221.646244 
L 408.131408 -219.352152 
L 408.131408 -217.05806 
L 408.131408 -214.763968 
L 408.131408 -212.469875 
L 408.131408 -210.175783 
L 408.131408 -207.881691 
L 408.131408 -205.587598 
L 408.131408 -203.293506 
L 408.131408 -200.999414 
L 408.131408 -198.705322 
L 408.131408 -196.411229 
L 408.131408 -194.117137 
L 408.131408 -191.823045 
L 408.131408 -189.528952 
L 408.131408 -187.23486 
L 408.131408 -184.940768 
L 408.131408 -182.646676 
L 408.131408 -180.352583 
L 408.131408 -178.058491 
L 408.131408 -175.764399 
L 408.131408 -173.470306 
L 408.131408 -171.176214 
L 408.131408 -168.882122 
L 408.131408 -166.58803 
L 408.131408 -164.293937 
L 408.131408 -161.999845 
L 408.131408 -159.705753 
L 408.131408 -157.411661 
L 408.131408 -155.117568 
L 408.131408 -152.823476 
L 408.131408 -150.529384 
L 408.131408 -148.235291 
L 408.131408 -145.941199 
L 408.131408 -143.647107 
L 408.131408 -141.353015 
L 408.131408 -139.058922 
L 408.131408 -136.76483 
L 408.131408 -134.470738 
L 408.131408 -132.176645 
L 408.131408 -129.882553 
L 408.131408 -127.588461 
L 408.131408 -125.294369 
L 408.131408 -123.000276 
L 408.131408 -120.706184 
L 408.131408 -118.412092 
L 408.131408 -116.117999 
L 408.131408 -113.823907 
L 408.131408 -111.529815 
L 408.131408 -109.235723 
L 408.131408 -106.94163 
L 408.131408 -104.647538 
L 408.131408 -102.353446 
L 408.131408 -100.059354 
L 408.131408 -97.765261 
L 408.131408 -95.471169 
L 408.131408 -93.177077 
L 408.131408 -90.882984 
L 408.131408 -88.588892 
L 408.131408 -86.2948 
L 408.131408 -84.000708 
L 408.131408 -81.706615 
L 408.131408 -79.412523 
L 408.131408 -77.118431 
L 408.131408 -74.824338 
L 408.131408 -72.530246 
L 408.131408 -70.236154 
L 408.131408 -67.942062 
L 408.131408 -65.647969 
z
"/>
    </defs>
    <g clip-path="url(#p5c04ed7ddc)">
     <use xlink:href="#mc856ba7aec" x="0" y="504" style="fill: #5f9e6e"/>
    </g>
   </g>
   <g id="patch_3">
    <path d="M 109.55015 316.871842 
L 131.92385 316.871842 
L 131.92385 221.80039 
L 109.55015 221.80039 
L 109.55015 316.871842 
z
" clip-path="url(#p5c04ed7ddc)" style="fill: #5875a4; stroke: #4c4c4c; stroke-linejoin: miter"/>
   </g>
   <g id="line2d_1">
    <path d="M 120.737 316.871842 
L 120.737 374.971063 
" clip-path="url(#p5c04ed7ddc)" style="fill: none; stroke: #000000"/>
   </g>
   <g id="line2d_2">
    <path d="M 120.737 221.80039 
L 120.737 168.982916 
" clip-path="url(#p5c04ed7ddc)" style="fill: none; stroke: #000000"/>
   </g>
   <g id="line2d_3">
    <path d="M 115.143575 374.971063 
L 126.330425 374.971063 
" clip-path="url(#p5c04ed7ddc)" style="fill: none; stroke: #4c4c4c; stroke-linecap: round"/>
   </g>
   <g id="line2d_4">
    <path d="M 115.143575 168.982916 
L 126.330425 168.982916 
" clip-path="url(#p5c04ed7ddc)" style="fill: none; stroke: #4c4c4c; stroke-linecap: round"/>
   </g>
   <g id="line2d_5"/>
   <g id="patch_4">
    <path d="M 258.70815 411.943294 
L 281.08185 411.943294 
L 281.08185 337.998831 
L 258.70815 337.998831 
L 258.70815 411.943294 
z
" clip-path="url(#p5c04ed7ddc)" style="fill: #cc8963; stroke: #4c4c4c; stroke-linejoin: miter"/>
   </g>
   <g id="line2d_6">
    <path d="M 269.895 411.943294 
L 269.895 454.197273 
" clip-path="url(#p5c04ed7ddc)" style="fill: none; stroke: #000000"/>
   </g>
   <g id="line2d_7">
    <path d="M 269.895 337.998831 
L 269.895 242.927379 
" clip-path="url(#p5c04ed7ddc)" style="fill: none; stroke: #000000"/>
   </g>
   <g id="line2d_8">
    <path d="M 264.301575 454.197273 
L 275.488425 454.197273 
" clip-path="url(#p5c04ed7ddc)" style="fill: none; stroke: #4c4c4c; stroke-linecap: round"/>
   </g>
   <g id="line2d_9">
    <path d="M 264.301575 242.927379 
L 275.488425 242.927379 
" clip-path="url(#p5c04ed7ddc)" style="fill: none; stroke: #4c4c4c; stroke-linecap: round"/>
   </g>
   <g id="line2d_10"/>
   <g id="patch_5">
    <path d="M 407.86615 397.418489 
L 430.23985 397.418489 
L 430.23985 294.424416 
L 407.86615 294.424416 
L 407.86615 397.418489 
z
" clip-path="url(#p5c04ed7ddc)" style="fill: #5f9e6e; stroke: #4c4c4c; stroke-linejoin: miter"/>
   </g>
   <g id="line2d_11">
    <path d="M 419.053 397.418489 
L 419.053 438.352031 
" clip-path="url(#p5c04ed7ddc)" style="fill: none; stroke: #000000"/>
   </g>
   <g id="line2d_12">
    <path d="M 419.053 294.424416 
L 419.053 211.236895 
" clip-path="url(#p5c04ed7ddc)" style="fill: none; stroke: #000000"/>
   </g>
   <g id="line2d_13">
    <path d="M 413.459575 438.352031 
L 424.646425 438.352031 
" clip-path="url(#p5c04ed7ddc)" style="fill: none; stroke: #4c4c4c; stroke-linecap: round"/>
   </g>
   <g id="line2d_14">
    <path d="M 413.459575 211.236895 
L 424.646425 211.236895 
" clip-path="url(#p5c04ed7ddc)" style="fill: none; stroke: #4c4c4c; stroke-linecap: round"/>
   </g>
   <g id="line2d_15"/>
   <g id="PathCollection_1">
    <defs>
     <path id="m50a1bd0eef" d="M 0 1.581139 
C 0.419323 1.581139 0.821528 1.41454 1.118034 1.118034 
C 1.41454 0.821528 1.581139 0.419323 1.581139 0 
C 1.581139 -0.419323 1.41454 -0.821528 1.118034 -1.118034 
C 0.821528 -1.41454 0.419323 -1.581139 0 -1.581139 
C -0.419323 -1.581139 -0.821528 -1.41454 -1.118034 -1.118034 
C -1.41454 -0.821528 -1.581139 -0.419323 -1.581139 0 
C -1.581139 0.419323 -1.41454 0.821528 -1.118034 1.118034 
C -0.821528 1.41454 -0.419323 1.581139 0 1.581139 
z
" style="stroke: #000000; stroke-opacity: 0.9; stroke-width: 0.8"/>
    </defs>
    <g clip-path="url(#p5c04ed7ddc)">
     <use xlink:href="#m50a1bd0eef" x="120.346382" y="327.435336" style="fill-opacity: 0.9; stroke: #000000; stroke-opacity: 0.9; stroke-width: 0.8"/>
     <use xlink:href="#m50a1bd0eef" x="127.730863" y="316.871842" style="fill-opacity: 0.9; stroke: #000000; stroke-opacity: 0.9; stroke-width: 0.8"/>
     <use xlink:href="#m50a1bd0eef" x="114.729552" y="237.645632" style="fill-opacity: 0.9; stroke: #000000; stroke-opacity: 0.9; stroke-width: 0.8"/>
     <use xlink:href="#m50a1bd0eef" x="125.898971" y="295.744852" style="fill-opacity: 0.9; stroke: #000000; stroke-opacity: 0.9; stroke-width: 0.8"/>
     <use xlink:href="#m50a1bd0eef" x="119.51666" y="168.982916" style="fill-opacity: 0.9; stroke: #000000; stroke-opacity: 0.9; stroke-width: 0.8"/>
     <use xlink:href="#m50a1bd0eef" x="120.683155" y="269.336116" style="fill-opacity: 0.9; stroke: #000000; stroke-opacity: 0.9; stroke-width: 0.8"/>
     <use xlink:href="#m50a1bd0eef" x="122.484249" y="216.518642" style="fill-opacity: 0.9; stroke: #000000; stroke-opacity: 0.9; stroke-width: 0.8"/>
     <use xlink:href="#m50a1bd0eef" x="117.263799" y="316.871842" style="fill-opacity: 0.9; stroke: #000000; stroke-opacity: 0.9; stroke-width: 0.8"/>
     <use xlink:href="#m50a1bd0eef" x="121.901816" y="237.645632" style="fill-opacity: 0.9; stroke: #000000; stroke-opacity: 0.9; stroke-width: 0.8"/>
     <use xlink:href="#m50a1bd0eef" x="115.076853" y="195.391653" style="fill-opacity: 0.9; stroke: #000000; stroke-opacity: 0.9; stroke-width: 0.8"/>
     <use xlink:href="#m50a1bd0eef" x="120.286416" y="374.971063" style="fill-opacity: 0.9; stroke: #000000; stroke-opacity: 0.9; stroke-width: 0.8"/>
     <use xlink:href="#m50a1bd0eef" x="125.340241" y="279.89961" style="fill-opacity: 0.9; stroke: #000000; stroke-opacity: 0.9; stroke-width: 0.8"/>
     <use xlink:href="#m50a1bd0eef" x="126.464485" y="295.744852" style="fill-opacity: 0.9; stroke: #000000; stroke-opacity: 0.9; stroke-width: 0.8"/>
     <use xlink:href="#m50a1bd0eef" x="127.766955" y="264.054368" style="fill-opacity: 0.9; stroke: #000000; stroke-opacity: 0.9; stroke-width: 0.8"/>
     <use xlink:href="#m50a1bd0eef" x="116.516647" y="322.153589" style="fill-opacity: 0.9; stroke: #000000; stroke-opacity: 0.9; stroke-width: 0.8"/>
     <use xlink:href="#m50a1bd0eef" x="114.733934" y="332.717084" style="fill-opacity: 0.9; stroke: #000000; stroke-opacity: 0.9; stroke-width: 0.8"/>
     <use xlink:href="#m50a1bd0eef" x="120.200835" y="285.181358" style="fill-opacity: 0.9; stroke: #000000; stroke-opacity: 0.9; stroke-width: 0.8"/>
     <use xlink:href="#m50a1bd0eef" x="114.135302" y="195.391653" style="fill-opacity: 0.9; stroke: #000000; stroke-opacity: 0.9; stroke-width: 0.8"/>
     <use xlink:href="#m50a1bd0eef" x="125.911213" y="47.502727" style="fill-opacity: 0.9; stroke: #000000; stroke-opacity: 0.9; stroke-width: 0.8"/>
     <use xlink:href="#m50a1bd0eef" x="114.31195" y="205.955148" style="fill-opacity: 0.9; stroke: #000000; stroke-opacity: 0.9; stroke-width: 0.8"/>
     <use xlink:href="#m50a1bd0eef" x="123.599807" y="211.236895" style="fill-opacity: 0.9; stroke: #000000; stroke-opacity: 0.9; stroke-width: 0.8"/>
     <use xlink:href="#m50a1bd0eef" x="124.073335" y="253.490874" style="fill-opacity: 0.9; stroke: #000000; stroke-opacity: 0.9; stroke-width: 0.8"/>
     <use xlink:href="#m50a1bd0eef" x="124.168981" y="279.89961" style="fill-opacity: 0.9; stroke: #000000; stroke-opacity: 0.9; stroke-width: 0.8"/>
     <use xlink:href="#m50a1bd0eef" x="127.378826" y="274.617863" style="fill-opacity: 0.9; stroke: #000000; stroke-opacity: 0.9; stroke-width: 0.8"/>
     <use xlink:href="#m50a1bd0eef" x="122.628971" y="316.871842" style="fill-opacity: 0.9; stroke: #000000; stroke-opacity: 0.9; stroke-width: 0.8"/>
     <use xlink:href="#m50a1bd0eef" x="120.854393" y="353.844073" style="fill-opacity: 0.9; stroke: #000000; stroke-opacity: 0.9; stroke-width: 0.8"/>
     <use xlink:href="#m50a1bd0eef" x="123.913575" y="184.828158" style="fill-opacity: 0.9; stroke: #000000; stroke-opacity: 0.9; stroke-width: 0.8"/>
     <use xlink:href="#m50a1bd0eef" x="119.082804" y="327.435336" style="fill-opacity: 0.9; stroke: #000000; stroke-opacity: 0.9; stroke-width: 0.8"/>
     <use xlink:href="#m50a1bd0eef" x="118.41566" y="264.054368" style="fill-opacity: 0.9; stroke: #000000; stroke-opacity: 0.9; stroke-width: 0.8"/>
     <use xlink:href="#m50a1bd0eef" x="115.807446" y="269.336116" style="fill-opacity: 0.9; stroke: #000000; stroke-opacity: 0.9; stroke-width: 0.8"/>
    </g>
   </g>
   <g id="PathCollection_2">
    <g clip-path="url(#p5c04ed7ddc)">
     <use xlink:href="#m50a1bd0eef" x="273.46439" y="390.816305" style="fill-opacity: 0.9; stroke: #000000; stroke-opacity: 0.9; stroke-width: 0.8"/>
     <use xlink:href="#m50a1bd0eef" x="269.915526" y="417.225041" style="fill-opacity: 0.9; stroke: #000000; stroke-opacity: 0.9; stroke-width: 0.8"/>
     <use xlink:href="#m50a1bd0eef" x="270.596885" y="285.181358" style="fill-opacity: 0.9; stroke: #000000; stroke-opacity: 0.9; stroke-width: 0.8"/>
     <use xlink:href="#m50a1bd0eef" x="271.318087" y="332.717084" style="fill-opacity: 0.9; stroke: #000000; stroke-opacity: 0.9; stroke-width: 0.8"/>
     <use xlink:href="#m50a1bd0eef" x="271.20528" y="385.534557" style="fill-opacity: 0.9; stroke: #000000; stroke-opacity: 0.9; stroke-width: 0.8"/>
     <use xlink:href="#m50a1bd0eef" x="267.310902" y="417.225041" style="fill-opacity: 0.9; stroke: #000000; stroke-opacity: 0.9; stroke-width: 0.8"/>
     <use xlink:href="#m50a1bd0eef" x="276.714084" y="332.717084" style="fill-opacity: 0.9; stroke: #000000; stroke-opacity: 0.9; stroke-width: 0.8"/>
     <use xlink:href="#m50a1bd0eef" x="269.523721" y="385.534557" style="fill-opacity: 0.9; stroke: #000000; stroke-opacity: 0.9; stroke-width: 0.8"/>
     <use xlink:href="#m50a1bd0eef" x="265.408549" y="359.125821" style="fill-opacity: 0.9; stroke: #000000; stroke-opacity: 0.9; stroke-width: 0.8"/>
     <use xlink:href="#m50a1bd0eef" x="269.742165" y="290.463105" style="fill-opacity: 0.9; stroke: #000000; stroke-opacity: 0.9; stroke-width: 0.8"/>
     <use xlink:href="#m50a1bd0eef" x="270.364682" y="454.197273" style="fill-opacity: 0.9; stroke: #000000; stroke-opacity: 0.9; stroke-width: 0.8"/>
     <use xlink:href="#m50a1bd0eef" x="263.080504" y="417.225041" style="fill-opacity: 0.9; stroke: #000000; stroke-opacity: 0.9; stroke-width: 0.8"/>
     <use xlink:href="#m50a1bd0eef" x="277.277422" y="417.225041" style="fill-opacity: 0.9; stroke: #000000; stroke-opacity: 0.9; stroke-width: 0.8"/>
     <use xlink:href="#m50a1bd0eef" x="272.084091" y="401.379799" style="fill-opacity: 0.9; stroke: #000000; stroke-opacity: 0.9; stroke-width: 0.8"/>
     <use xlink:href="#m50a1bd0eef" x="269.711681" y="380.25281" style="fill-opacity: 0.9; stroke: #000000; stroke-opacity: 0.9; stroke-width: 0.8"/>
     <use xlink:href="#m50a1bd0eef" x="271.676706" y="380.25281" style="fill-opacity: 0.9; stroke: #000000; stroke-opacity: 0.9; stroke-width: 0.8"/>
     <use xlink:href="#m50a1bd0eef" x="272.498958" y="433.070283" style="fill-opacity: 0.9; stroke: #000000; stroke-opacity: 0.9; stroke-width: 0.8"/>
     <use xlink:href="#m50a1bd0eef" x="270.215656" y="374.971063" style="fill-opacity: 0.9; stroke: #000000; stroke-opacity: 0.9; stroke-width: 0.8"/>
     <use xlink:href="#m50a1bd0eef" x="263.121293" y="353.844073" style="fill-opacity: 0.9; stroke: #000000; stroke-opacity: 0.9; stroke-width: 0.8"/>
     <use xlink:href="#m50a1bd0eef" x="263.060778" y="401.379799" style="fill-opacity: 0.9; stroke: #000000; stroke-opacity: 0.9; stroke-width: 0.8"/>
     <use xlink:href="#m50a1bd0eef" x="274.08391" y="306.308347" style="fill-opacity: 0.9; stroke: #000000; stroke-opacity: 0.9; stroke-width: 0.8"/>
     <use xlink:href="#m50a1bd0eef" x="273.994367" y="337.998831" style="fill-opacity: 0.9; stroke: #000000; stroke-opacity: 0.9; stroke-width: 0.8"/>
     <use xlink:href="#m50a1bd0eef" x="273.800385" y="396.098052" style="fill-opacity: 0.9; stroke: #000000; stroke-opacity: 0.9; stroke-width: 0.8"/>
     <use xlink:href="#m50a1bd0eef" x="272.720916" y="242.927379" style="fill-opacity: 0.9; stroke: #000000; stroke-opacity: 0.9; stroke-width: 0.8"/>
     <use xlink:href="#m50a1bd0eef" x="276.023674" y="454.197273" style="fill-opacity: 0.9; stroke: #000000; stroke-opacity: 0.9; stroke-width: 0.8"/>
     <use xlink:href="#m50a1bd0eef" x="267.208663" y="411.943294" style="fill-opacity: 0.9; stroke: #000000; stroke-opacity: 0.9; stroke-width: 0.8"/>
     <use xlink:href="#m50a1bd0eef" x="264.389686" y="401.379799" style="fill-opacity: 0.9; stroke: #000000; stroke-opacity: 0.9; stroke-width: 0.8"/>
     <use xlink:href="#m50a1bd0eef" x="263.893942" y="332.717084" style="fill-opacity: 0.9; stroke: #000000; stroke-opacity: 0.9; stroke-width: 0.8"/>
     <use xlink:href="#m50a1bd0eef" x="264.865011" y="343.280579" style="fill-opacity: 0.9; stroke: #000000; stroke-opacity: 0.9; stroke-width: 0.8"/>
    </g>
   </g>
   <g id="PathCollection_3">
    <g clip-path="url(#p5c04ed7ddc)">
     <use xlink:href="#m50a1bd0eef" x="425.402608" y="269.336116" style="fill-opacity: 0.9; stroke: #000000; stroke-opacity: 0.9; stroke-width: 0.8"/>
     <use xlink:href="#m50a1bd0eef" x="426.332436" y="211.236895" style="fill-opacity: 0.9; stroke: #000000; stroke-opacity: 0.9; stroke-width: 0.8"/>
     <use xlink:href="#m50a1bd0eef" x="419.187387" y="295.744852" style="fill-opacity: 0.9; stroke: #000000; stroke-opacity: 0.9; stroke-width: 0.8"/>
     <use xlink:href="#m50a1bd0eef" x="414.289354" y="332.717084" style="fill-opacity: 0.9; stroke: #000000; stroke-opacity: 0.9; stroke-width: 0.8"/>
     <use xlink:href="#m50a1bd0eef" x="426.198521" y="290.463105" style="fill-opacity: 0.9; stroke: #000000; stroke-opacity: 0.9; stroke-width: 0.8"/>
     <use xlink:href="#m50a1bd0eef" x="420.009065" y="390.816305" style="fill-opacity: 0.9; stroke: #000000; stroke-opacity: 0.9; stroke-width: 0.8"/>
     <use xlink:href="#m50a1bd0eef" x="416.321556" y="433.070283" style="fill-opacity: 0.9; stroke: #000000; stroke-opacity: 0.9; stroke-width: 0.8"/>
     <use xlink:href="#m50a1bd0eef" x="425.803967" y="216.518642" style="fill-opacity: 0.9; stroke: #000000; stroke-opacity: 0.9; stroke-width: 0.8"/>
     <use xlink:href="#m50a1bd0eef" x="425.354739" y="385.534557" style="fill-opacity: 0.9; stroke: #000000; stroke-opacity: 0.9; stroke-width: 0.8"/>
     <use xlink:href="#m50a1bd0eef" x="415.25524" y="422.506789" style="fill-opacity: 0.9; stroke: #000000; stroke-opacity: 0.9; stroke-width: 0.8"/>
     <use xlink:href="#m50a1bd0eef" x="423.154559" y="301.0266" style="fill-opacity: 0.9; stroke: #000000; stroke-opacity: 0.9; stroke-width: 0.8"/>
     <use xlink:href="#m50a1bd0eef" x="424.674909" y="269.336116" style="fill-opacity: 0.9; stroke: #000000; stroke-opacity: 0.9; stroke-width: 0.8"/>
     <use xlink:href="#m50a1bd0eef" x="415.354163" y="301.0266" style="fill-opacity: 0.9; stroke: #000000; stroke-opacity: 0.9; stroke-width: 0.8"/>
     <use xlink:href="#m50a1bd0eef" x="426.063703" y="438.352031" style="fill-opacity: 0.9; stroke: #000000; stroke-opacity: 0.9; stroke-width: 0.8"/>
     <use xlink:href="#m50a1bd0eef" x="420.052236" y="311.590094" style="fill-opacity: 0.9; stroke: #000000; stroke-opacity: 0.9; stroke-width: 0.8"/>
     <use xlink:href="#m50a1bd0eef" x="419.165991" y="369.689315" style="fill-opacity: 0.9; stroke: #000000; stroke-opacity: 0.9; stroke-width: 0.8"/>
     <use xlink:href="#m50a1bd0eef" x="414.152123" y="322.153589" style="fill-opacity: 0.9; stroke: #000000; stroke-opacity: 0.9; stroke-width: 0.8"/>
     <use xlink:href="#m50a1bd0eef" x="414.842859" y="348.562326" style="fill-opacity: 0.9; stroke: #000000; stroke-opacity: 0.9; stroke-width: 0.8"/>
     <use xlink:href="#m50a1bd0eef" x="417.62502" y="396.098052" style="fill-opacity: 0.9; stroke: #000000; stroke-opacity: 0.9; stroke-width: 0.8"/>
     <use xlink:href="#m50a1bd0eef" x="424.207354" y="411.943294" style="fill-opacity: 0.9; stroke: #000000; stroke-opacity: 0.9; stroke-width: 0.8"/>
     <use xlink:href="#m50a1bd0eef" x="425.657332" y="337.998831" style="fill-opacity: 0.9; stroke: #000000; stroke-opacity: 0.9; stroke-width: 0.8"/>
     <use xlink:href="#m50a1bd0eef" x="416.714491" y="269.336116" style="fill-opacity: 0.9; stroke: #000000; stroke-opacity: 0.9; stroke-width: 0.8"/>
     <use xlink:href="#m50a1bd0eef" x="425.229263" y="427.788536" style="fill-opacity: 0.9; stroke: #000000; stroke-opacity: 0.9; stroke-width: 0.8"/>
     <use xlink:href="#m50a1bd0eef" x="419.032865" y="406.661547" style="fill-opacity: 0.9; stroke: #000000; stroke-opacity: 0.9; stroke-width: 0.8"/>
     <use xlink:href="#m50a1bd0eef" x="413.761913" y="343.280579" style="fill-opacity: 0.9; stroke: #000000; stroke-opacity: 0.9; stroke-width: 0.8"/>
     <use xlink:href="#m50a1bd0eef" x="425.517496" y="380.25281" style="fill-opacity: 0.9; stroke: #000000; stroke-opacity: 0.9; stroke-width: 0.8"/>
     <use xlink:href="#m50a1bd0eef" x="413.997644" y="380.25281" style="fill-opacity: 0.9; stroke: #000000; stroke-opacity: 0.9; stroke-width: 0.8"/>
     <use xlink:href="#m50a1bd0eef" x="420.483267" y="401.379799" style="fill-opacity: 0.9; stroke: #000000; stroke-opacity: 0.9; stroke-width: 0.8"/>
     <use xlink:href="#m50a1bd0eef" x="423.352488" y="285.181358" style="fill-opacity: 0.9; stroke: #000000; stroke-opacity: 0.9; stroke-width: 0.8"/>
     <use xlink:href="#m50a1bd0eef" x="412.458164" y="316.871842" style="fill-opacity: 0.9; stroke: #000000; stroke-opacity: 0.9; stroke-width: 0.8"/>
     <use xlink:href="#m50a1bd0eef" x="426.403789" y="279.89961" style="fill-opacity: 0.9; stroke: #000000; stroke-opacity: 0.9; stroke-width: 0.8"/>
     <use xlink:href="#m50a1bd0eef" x="425.530645" y="401.379799" style="fill-opacity: 0.9; stroke: #000000; stroke-opacity: 0.9; stroke-width: 0.8"/>
    </g>
   </g>
   <g id="line2d_16">
    <path d="M 109.55015 271.976989 
L 131.92385 271.976989 
" clip-path="url(#p5c04ed7ddc)" style="fill: none; stroke: #000000"/>
   </g>
   <g id="line2d_17">
    <path d="M 258.70815 385.534557 
L 281.08185 385.534557 
" clip-path="url(#p5c04ed7ddc)" style="fill: none; stroke: #000000"/>
   </g>
   <g id="line2d_18">
    <path d="M 407.86615 340.639705 
L 430.23985 340.639705 
" clip-path="url(#p5c04ed7ddc)" style="fill: none; stroke: #000000"/>
   </g>
   <g id="patch_6">
    <path d="M 46.158 474.532 
L 46.158 27.168 
" style="fill: none; stroke: #262626; stroke-linejoin: miter; stroke-linecap: square"/>
   </g>
   <g id="patch_7">
    <path d="M 46.158 474.532 
L 493.632 474.532 
" style="fill: none; stroke: #262626; stroke-linejoin: miter; stroke-linecap: square"/>
   </g>
   <g id="text_13">
    <!-- MDS-UPDRS III Raincloud Plot -->
    <g style="fill: #262626" transform="translate(167.058437 21.168) scale(0.14 -0.14)">
     <defs>
      <path id="DejaVuSans-61" d="M 2194 1759 
Q 1497 1759 1228 1600 
Q 959 1441 959 1056 
Q 959 750 1161 570 
Q 1363 391 1709 391 
Q 2188 391 2477 730 
Q 2766 1069 2766 1631 
L 2766 1759 
L 2194 1759 
z
M 3341 1997 
L 3341 0 
L 2766 0 
L 2766 531 
Q 2569 213 2275 61 
Q 1981 -91 1556 -91 
Q 1019 -91 701 211 
Q 384 513 384 1019 
Q 384 1609 779 1909 
Q 1175 2209 1959 2209 
L 2766 2209 
L 2766 2266 
Q 2766 2663 2505 2880 
Q 2244 3097 1772 3097 
Q 1472 3097 1187 3025 
Q 903 2953 641 2809 
L 641 3341 
Q 956 3463 1253 3523 
Q 1550 3584 1831 3584 
Q 2591 3584 2966 3190 
Q 3341 2797 3341 1997 
z
" transform="scale(0.015625)"/>
      <path id="DejaVuSans-63" d="M 3122 3366 
L 3122 2828 
Q 2878 2963 2633 3030 
Q 2388 3097 2138 3097 
Q 1578 3097 1268 2742 
Q 959 2388 959 1747 
Q 959 1106 1268 751 
Q 1578 397 2138 397 
Q 2388 397 2633 464 
Q 2878 531 3122 666 
L 3122 134 
Q 2881 22 2623 -34 
Q 2366 -91 2075 -91 
Q 1284 -91 818 406 
Q 353 903 353 1747 
Q 353 2603 823 3093 
Q 1294 3584 2113 3584 
Q 2378 3584 2631 3529 
Q 2884 3475 3122 3366 
z
" transform="scale(0.015625)"/>
      <path id="DejaVuSans-6c" d="M 603 4863 
L 1178 4863 
L 1178 0 
L 603 0 
L 603 4863 
z
" transform="scale(0.015625)"/>
      <path id="DejaVuSans-75" d="M 544 1381 
L 544 3500 
L 1119 3500 
L 1119 1403 
Q 1119 906 1312 657 
Q 1506 409 1894 409 
Q 2359 409 2629 706 
Q 2900 1003 2900 1516 
L 2900 3500 
L 3475 3500 
L 3475 0 
L 2900 0 
L 2900 538 
Q 2691 219 2414 64 
Q 2138 -91 1772 -91 
Q 1169 -91 856 284 
Q 544 659 544 1381 
z
M 1991 3584 
L 1991 3584 
z
" transform="scale(0.015625)"/>
      <path id="DejaVuSans-64" d="M 2906 2969 
L 2906 4863 
L 3481 4863 
L 3481 0 
L 2906 0 
L 2906 525 
Q 2725 213 2448 61 
Q 2172 -91 1784 -91 
Q 1150 -91 751 415 
Q 353 922 353 1747 
Q 353 2572 751 3078 
Q 1150 3584 1784 3584 
Q 2172 3584 2448 3432 
Q 2725 3281 2906 2969 
z
M 947 1747 
Q 947 1113 1208 752 
Q 1469 391 1925 391 
Q 2381 391 2643 752 
Q 2906 1113 2906 1747 
Q 2906 2381 2643 2742 
Q 2381 3103 1925 3103 
Q 1469 3103 1208 2742 
Q 947 2381 947 1747 
z
" transform="scale(0.015625)"/>
     </defs>
     <use xlink:href="#DejaVuSans-4d"/>
     <use xlink:href="#DejaVuSans-44" transform="translate(86.279297 0)"/>
     <use xlink:href="#DejaVuSans-53" transform="translate(163.28125 0)"/>
     <use xlink:href="#DejaVuSans-2d" transform="translate(226.757812 0)"/>
     <use xlink:href="#DejaVuSans-55" transform="translate(262.841797 0)"/>
     <use xlink:href="#DejaVuSans-50" transform="translate(336.035156 0)"/>
     <use xlink:href="#DejaVuSans-44" transform="translate(396.337891 0)"/>
     <use xlink:href="#DejaVuSans-52" transform="translate(473.339844 0)"/>
     <use xlink:href="#DejaVuSans-53" transform="translate(542.822266 0)"/>
     <use xlink:href="#DejaVuSans-20" transform="translate(606.298828 0)"/>
     <use xlink:href="#DejaVuSans-49" transform="translate(638.085938 0)"/>
     <use xlink:href="#DejaVuSans-49" transform="translate(667.578125 0)"/>
     <use xlink:href="#DejaVuSans-49" transform="translate(697.070312 0)"/>
     <use xlink:href="#DejaVuSans-20" transform="translate(726.5625 0)"/>
     <use xlink:href="#DejaVuSans-52" transform="translate(758.349609 0)"/>
     <use xlink:href="#DejaVuSans-61" transform="translate(825.582031 0)"/>
     <use xlink:href="#DejaVuSans-69" transform="translate(886.861328 0)"/>
     <use xlink:href="#DejaVuSans-6e" transform="translate(914.644531 0)"/>
     <use xlink:href="#DejaVuSans-63" transform="translate(978.023438 0)"/>
     <use xlink:href="#DejaVuSans-6c" transform="translate(1033.003906 0)"/>
     <use xlink:href="#DejaVuSans-6f" transform="translate(1060.787109 0)"/>
     <use xlink:href="#DejaVuSans-75" transform="translate(1121.96875 0)"/>
     <use xlink:href="#DejaVuSans-64" transform="translate(1185.347656 0)"/>
     <use xlink:href="#DejaVuSans-20" transform="translate(1248.824219 0)"/>
     <use xlink:href="#DejaVuSans-50" transform="translate(1280.611328 0)"/>
     <use xlink:href="#DejaVuSans-6c" transform="translate(1340.914062 0)"/>
     <use xlink:href="#DejaVuSans-6f" transform="translate(1368.697266 0)"/>
     <use xlink:href="#DejaVuSans-74" transform="translate(1429.878906 0)"/>
    </g>
   </g>
  </g>
 </g>
 <defs>
  <clipPath id="p5c04ed7ddc">
   <rect x="46.158" y="27.168" width="447.474" height="447.364"/>
  </clipPath>
 </defs>
</svg>
