<?xml version="1.0" encoding="utf-8" standalone="no"?>
<!DOCTYPE svg PUBLIC "-//W3C//DTD SVG 1.1//EN"
  "http://www.w3.org/Graphics/SVG/1.1/DTD/svg11.dtd">
<svg xmlns:xlink="http://www.w3.org/1999/xlink" width="504pt" height="504pt" viewBox="0 0 504 504" xmlns="http://www.w3.org/2000/svg" version="1.1">
 <metadata>
  <rdf:RDF xmlns:dc="http://purl.org/dc/elements/1.1/" xmlns:cc="http://creativecommons.org/ns#" xmlns:rdf="http://www.w3.org/1999/02/22-rdf-syntax-ns#">
   <cc:Work>
    <dc:type rdf:resource="http://purl.org/dc/dcmitype/StillImage"/>
    <dc:date>2025-07-04T17:50:28.562403</dc:date>
    <dc:format>image/svg+xml</dc:format>
    <dc:creator>
     <cc:Agent>
      <dc:title>Matplotlib v3.10.0, https://matplotlib.org/</dc:title>
     </cc:Agent>
    </dc:creator>
   </cc:Work>
  </rdf:RDF>
 </metadata>
 <defs>
  <style type="text/css">*{stroke-linejoin: round; stroke-linecap: butt}</style>
 </defs>
 <g id="figure_1">
  <g id="patch_1">
   <path d="M 0 504 
L 504 504 
L 504 0 
L 0 0 
z
" style="fill: #ffffff"/>
  </g>
  <g id="axes_1">
   <g id="patch_2">
    <path d="M 46.158 474.532 
L 493.632 474.532 
L 493.632 27.168 
L 46.158 27.168 
z
" style="fill: #ffffff"/>
   </g>
   <g id="matplotlib.axis_1">
    <g id="xtick_1">
     <g id="text_1">
      <!-- Pre OFF -->
      <g style="fill: #262626" transform="translate(99.591219 491.190281) scale(0.11 -0.11)">
       <defs>
        <path id="DejaVuSans-50" d="M 1259 4147 
L 1259 2394 
L 2053 2394 
Q 2494 2394 2734 2622 
Q 2975 2850 2975 3272 
Q 2975 3691 2734 3919 
Q 2494 4147 2053 4147 
L 1259 4147 
z
M 628 4666 
L 2053 4666 
Q 2838 4666 3239 4311 
Q 3641 3956 3641 3272 
Q 3641 2581 3239 2228 
Q 2838 1875 2053 1875 
L 1259 1875 
L 1259 0 
L 628 0 
L 628 4666 
z
" transform="scale(0.015625)"/>
        <path id="DejaVuSans-72" d="M 2631 2963 
Q 2534 3019 2420 3045 
Q 2306 3072 2169 3072 
Q 1681 3072 1420 2755 
Q 1159 2438 1159 1844 
L 1159 0 
L 581 0 
L 581 3500 
L 1159 3500 
L 1159 2956 
Q 1341 3275 1631 3429 
Q 1922 3584 2338 3584 
Q 2397 3584 2469 3576 
Q 2541 3569 2628 3553 
L 2631 2963 
z
" transform="scale(0.015625)"/>
        <path id="DejaVuSans-65" d="M 3597 1894 
L 3597 1613 
L 953 1613 
Q 991 1019 1311 708 
Q 1631 397 2203 397 
Q 2534 397 2845 478 
Q 3156 559 3463 722 
L 3463 178 
Q 3153 47 2828 -22 
Q 2503 -91 2169 -91 
Q 1331 -91 842 396 
Q 353 884 353 1716 
Q 353 2575 817 3079 
Q 1281 3584 2069 3584 
Q 2775 3584 3186 3129 
Q 3597 2675 3597 1894 
z
M 3022 2063 
Q 3016 2534 2758 2815 
Q 2500 3097 2075 3097 
Q 1594 3097 1305 2825 
Q 1016 2553 972 2059 
L 3022 2063 
z
" transform="scale(0.015625)"/>
        <path id="DejaVuSans-20" transform="scale(0.015625)"/>
        <path id="DejaVuSans-4f" d="M 2522 4238 
Q 1834 4238 1429 3725 
Q 1025 3213 1025 2328 
Q 1025 1447 1429 934 
Q 1834 422 2522 422 
Q 3209 422 3611 934 
Q 4013 1447 4013 2328 
Q 4013 3213 3611 3725 
Q 3209 4238 2522 4238 
z
M 2522 4750 
Q 3503 4750 4090 4092 
Q 4678 3434 4678 2328 
Q 4678 1225 4090 567 
Q 3503 -91 2522 -91 
Q 1538 -91 948 565 
Q 359 1222 359 2328 
Q 359 3434 948 4092 
Q 1538 4750 2522 4750 
z
" transform="scale(0.015625)"/>
        <path id="DejaVuSans-46" d="M 628 4666 
L 3309 4666 
L 3309 4134 
L 1259 4134 
L 1259 2759 
L 3109 2759 
L 3109 2228 
L 1259 2228 
L 1259 0 
L 628 0 
L 628 4666 
z
" transform="scale(0.015625)"/>
       </defs>
       <use xlink:href="#DejaVuSans-50"/>
       <use xlink:href="#DejaVuSans-72" transform="translate(58.552734 0)"/>
       <use xlink:href="#DejaVuSans-65" transform="translate(97.416016 0)"/>
       <use xlink:href="#DejaVuSans-20" transform="translate(158.939453 0)"/>
       <use xlink:href="#DejaVuSans-4f" transform="translate(190.726562 0)"/>
       <use xlink:href="#DejaVuSans-46" transform="translate(269.4375 0)"/>
       <use xlink:href="#DejaVuSans-46" transform="translate(326.957031 0)"/>
      </g>
     </g>
    </g>
    <g id="xtick_2">
     <g id="text_2">
      <!-- Pre ON -->
      <g style="fill: #262626" transform="translate(250.96125 491.190281) scale(0.11 -0.11)">
       <defs>
        <path id="DejaVuSans-4e" d="M 628 4666 
L 1478 4666 
L 3547 763 
L 3547 4666 
L 4159 4666 
L 4159 0 
L 3309 0 
L 1241 3903 
L 1241 0 
L 628 0 
L 628 4666 
z
" transform="scale(0.015625)"/>
       </defs>
       <use xlink:href="#DejaVuSans-50"/>
       <use xlink:href="#DejaVuSans-72" transform="translate(58.552734 0)"/>
       <use xlink:href="#DejaVuSans-65" transform="translate(97.416016 0)"/>
       <use xlink:href="#DejaVuSans-20" transform="translate(158.939453 0)"/>
       <use xlink:href="#DejaVuSans-4f" transform="translate(190.726562 0)"/>
       <use xlink:href="#DejaVuSans-4e" transform="translate(269.4375 0)"/>
      </g>
     </g>
    </g>
    <g id="xtick_3">
     <g id="text_3">
      <!-- Post ON/Stim On -->
      <g style="fill: #262626" transform="translate(373.408156 491.190281) scale(0.11 -0.11)">
       <defs>
        <path id="DejaVuSans-6f" d="M 1959 3097 
Q 1497 3097 1228 2736 
Q 959 2375 959 1747 
Q 959 1119 1226 758 
Q 1494 397 1959 397 
Q 2419 397 2687 759 
Q 2956 1122 2956 1747 
Q 2956 2369 2687 2733 
Q 2419 3097 1959 3097 
z
M 1959 3584 
Q 2709 3584 3137 3096 
Q 3566 2609 3566 1747 
Q 3566 888 3137 398 
Q 2709 -91 1959 -91 
Q 1206 -91 779 398 
Q 353 888 353 1747 
Q 353 2609 779 3096 
Q 1206 3584 1959 3584 
z
" transform="scale(0.015625)"/>
        <path id="DejaVuSans-73" d="M 2834 3397 
L 2834 2853 
Q 2591 2978 2328 3040 
Q 2066 3103 1784 3103 
Q 1356 3103 1142 2972 
Q 928 2841 928 2578 
Q 928 2378 1081 2264 
Q 1234 2150 1697 2047 
L 1894 2003 
Q 2506 1872 2764 1633 
Q 3022 1394 3022 966 
Q 3022 478 2636 193 
Q 2250 -91 1575 -91 
Q 1294 -91 989 -36 
Q 684 19 347 128 
L 347 722 
Q 666 556 975 473 
Q 1284 391 1588 391 
Q 1994 391 2212 530 
Q 2431 669 2431 922 
Q 2431 1156 2273 1281 
Q 2116 1406 1581 1522 
L 1381 1569 
Q 847 1681 609 1914 
Q 372 2147 372 2553 
Q 372 3047 722 3315 
Q 1072 3584 1716 3584 
Q 2034 3584 2315 3537 
Q 2597 3491 2834 3397 
z
" transform="scale(0.015625)"/>
        <path id="DejaVuSans-74" d="M 1172 4494 
L 1172 3500 
L 2356 3500 
L 2356 3053 
L 1172 3053 
L 1172 1153 
Q 1172 725 1289 603 
Q 1406 481 1766 481 
L 2356 481 
L 2356 0 
L 1766 0 
Q 1100 0 847 248 
Q 594 497 594 1153 
L 594 3053 
L 172 3053 
L 172 3500 
L 594 3500 
L 594 4494 
L 1172 4494 
z
" transform="scale(0.015625)"/>
        <path id="DejaVuSans-2f" d="M 1625 4666 
L 2156 4666 
L 531 -594 
L 0 -594 
L 1625 4666 
z
" transform="scale(0.015625)"/>
        <path id="DejaVuSans-53" d="M 3425 4513 
L 3425 3897 
Q 3066 4069 2747 4153 
Q 2428 4238 2131 4238 
Q 1616 4238 1336 4038 
Q 1056 3838 1056 3469 
Q 1056 3159 1242 3001 
Q 1428 2844 1947 2747 
L 2328 2669 
Q 3034 2534 3370 2195 
Q 3706 1856 3706 1288 
Q 3706 609 3251 259 
Q 2797 -91 1919 -91 
Q 1588 -91 1214 -16 
Q 841 59 441 206 
L 441 856 
Q 825 641 1194 531 
Q 1563 422 1919 422 
Q 2459 422 2753 634 
Q 3047 847 3047 1241 
Q 3047 1584 2836 1778 
Q 2625 1972 2144 2069 
L 1759 2144 
Q 1053 2284 737 2584 
Q 422 2884 422 3419 
Q 422 4038 858 4394 
Q 1294 4750 2059 4750 
Q 2388 4750 2728 4690 
Q 3069 4631 3425 4513 
z
" transform="scale(0.015625)"/>
        <path id="DejaVuSans-69" d="M 603 3500 
L 1178 3500 
L 1178 0 
L 603 0 
L 603 3500 
z
M 603 4863 
L 1178 4863 
L 1178 4134 
L 603 4134 
L 603 4863 
z
" transform="scale(0.015625)"/>
        <path id="DejaVuSans-6d" d="M 3328 2828 
Q 3544 3216 3844 3400 
Q 4144 3584 4550 3584 
Q 5097 3584 5394 3201 
Q 5691 2819 5691 2113 
L 5691 0 
L 5113 0 
L 5113 2094 
Q 5113 2597 4934 2840 
Q 4756 3084 4391 3084 
Q 3944 3084 3684 2787 
Q 3425 2491 3425 1978 
L 3425 0 
L 2847 0 
L 2847 2094 
Q 2847 2600 2669 2842 
Q 2491 3084 2119 3084 
Q 1678 3084 1418 2786 
Q 1159 2488 1159 1978 
L 1159 0 
L 581 0 
L 581 3500 
L 1159 3500 
L 1159 2956 
Q 1356 3278 1631 3431 
Q 1906 3584 2284 3584 
Q 2666 3584 2933 3390 
Q 3200 3197 3328 2828 
z
" transform="scale(0.015625)"/>
        <path id="DejaVuSans-6e" d="M 3513 2113 
L 3513 0 
L 2938 0 
L 2938 2094 
Q 2938 2591 2744 2837 
Q 2550 3084 2163 3084 
Q 1697 3084 1428 2787 
Q 1159 2491 1159 1978 
L 1159 0 
L 581 0 
L 581 3500 
L 1159 3500 
L 1159 2956 
Q 1366 3272 1645 3428 
Q 1925 3584 2291 3584 
Q 2894 3584 3203 3211 
Q 3513 2838 3513 2113 
z
" transform="scale(0.015625)"/>
       </defs>
       <use xlink:href="#DejaVuSans-50"/>
       <use xlink:href="#DejaVuSans-6f" transform="translate(56.677734 0)"/>
       <use xlink:href="#DejaVuSans-73" transform="translate(117.859375 0)"/>
       <use xlink:href="#DejaVuSans-74" transform="translate(169.958984 0)"/>
       <use xlink:href="#DejaVuSans-20" transform="translate(209.167969 0)"/>
       <use xlink:href="#DejaVuSans-4f" transform="translate(240.955078 0)"/>
       <use xlink:href="#DejaVuSans-4e" transform="translate(319.666016 0)"/>
       <use xlink:href="#DejaVuSans-2f" transform="translate(394.470703 0)"/>
       <use xlink:href="#DejaVuSans-53" transform="translate(428.162109 0)"/>
       <use xlink:href="#DejaVuSans-74" transform="translate(491.638672 0)"/>
       <use xlink:href="#DejaVuSans-69" transform="translate(530.847656 0)"/>
       <use xlink:href="#DejaVuSans-6d" transform="translate(558.630859 0)"/>
       <use xlink:href="#DejaVuSans-20" transform="translate(656.042969 0)"/>
       <use xlink:href="#DejaVuSans-4f" transform="translate(687.830078 0)"/>
       <use xlink:href="#DejaVuSans-6e" transform="translate(766.541016 0)"/>
      </g>
     </g>
    </g>
   </g>
   <g id="matplotlib.axis_2">
    <g id="ytick_1">
     <g id="text_4">
      <!-- 0 -->
      <g style="fill: #262626" transform="translate(31.4955 463.080173) scale(0.1 -0.1)">
       <defs>
        <path id="DejaVuSans-30" d="M 2034 4250 
Q 1547 4250 1301 3770 
Q 1056 3291 1056 2328 
Q 1056 1369 1301 889 
Q 1547 409 2034 409 
Q 2525 409 2770 889 
Q 3016 1369 3016 2328 
Q 3016 3291 2770 3770 
Q 2525 4250 2034 4250 
z
M 2034 4750 
Q 2819 4750 3233 4129 
Q 3647 3509 3647 2328 
Q 3647 1150 3233 529 
Q 2819 -91 2034 -91 
Q 1250 -91 836 529 
Q 422 1150 422 2328 
Q 422 3509 836 4129 
Q 1250 4750 2034 4750 
z
" transform="scale(0.015625)"/>
       </defs>
       <use xlink:href="#DejaVuSans-30"/>
      </g>
     </g>
    </g>
    <g id="ytick_2">
     <g id="text_5">
      <!-- 10 -->
      <g style="fill: #262626" transform="translate(25.133 412.243355) scale(0.1 -0.1)">
       <defs>
        <path id="DejaVuSans-31" d="M 794 531 
L 1825 531 
L 1825 4091 
L 703 3866 
L 703 4441 
L 1819 4666 
L 2450 4666 
L 2450 531 
L 3481 531 
L 3481 0 
L 794 0 
L 794 531 
z
" transform="scale(0.015625)"/>
       </defs>
       <use xlink:href="#DejaVuSans-31"/>
       <use xlink:href="#DejaVuSans-30" transform="translate(63.623047 0)"/>
      </g>
     </g>
    </g>
    <g id="ytick_3">
     <g id="text_6">
      <!-- 20 -->
      <g style="fill: #262626" transform="translate(25.133 361.406537) scale(0.1 -0.1)">
       <defs>
        <path id="DejaVuSans-32" d="M 1228 531 
L 3431 531 
L 3431 0 
L 469 0 
L 469 531 
Q 828 903 1448 1529 
Q 2069 2156 2228 2338 
Q 2531 2678 2651 2914 
Q 2772 3150 2772 3378 
Q 2772 3750 2511 3984 
Q 2250 4219 1831 4219 
Q 1534 4219 1204 4116 
Q 875 4013 500 3803 
L 500 4441 
Q 881 4594 1212 4672 
Q 1544 4750 1819 4750 
Q 2544 4750 2975 4387 
Q 3406 4025 3406 3419 
Q 3406 3131 3298 2873 
Q 3191 2616 2906 2266 
Q 2828 2175 2409 1742 
Q 1991 1309 1228 531 
z
" transform="scale(0.015625)"/>
       </defs>
       <use xlink:href="#DejaVuSans-32"/>
       <use xlink:href="#DejaVuSans-30" transform="translate(63.623047 0)"/>
      </g>
     </g>
    </g>
    <g id="ytick_4">
     <g id="text_7">
      <!-- 30 -->
      <g style="fill: #262626" transform="translate(25.133 310.569719) scale(0.1 -0.1)">
       <defs>
        <path id="DejaVuSans-33" d="M 2597 2516 
Q 3050 2419 3304 2112 
Q 3559 1806 3559 1356 
Q 3559 666 3084 287 
Q 2609 -91 1734 -91 
Q 1441 -91 1130 -33 
Q 819 25 488 141 
L 488 750 
Q 750 597 1062 519 
Q 1375 441 1716 441 
Q 2309 441 2620 675 
Q 2931 909 2931 1356 
Q 2931 1769 2642 2001 
Q 2353 2234 1838 2234 
L 1294 2234 
L 1294 2753 
L 1863 2753 
Q 2328 2753 2575 2939 
Q 2822 3125 2822 3475 
Q 2822 3834 2567 4026 
Q 2313 4219 1838 4219 
Q 1578 4219 1281 4162 
Q 984 4106 628 3988 
L 628 4550 
Q 988 4650 1302 4700 
Q 1616 4750 1894 4750 
Q 2613 4750 3031 4423 
Q 3450 4097 3450 3541 
Q 3450 3153 3228 2886 
Q 3006 2619 2597 2516 
z
" transform="scale(0.015625)"/>
       </defs>
       <use xlink:href="#DejaVuSans-33"/>
       <use xlink:href="#DejaVuSans-30" transform="translate(63.623047 0)"/>
      </g>
     </g>
    </g>
    <g id="ytick_5">
     <g id="text_8">
      <!-- 40 -->
      <g style="fill: #262626" transform="translate(25.133 259.732901) scale(0.1 -0.1)">
       <defs>
        <path id="DejaVuSans-34" d="M 2419 4116 
L 825 1625 
L 2419 1625 
L 2419 4116 
z
M 2253 4666 
L 3047 4666 
L 3047 1625 
L 3713 1625 
L 3713 1100 
L 3047 1100 
L 3047 0 
L 2419 0 
L 2419 1100 
L 313 1100 
L 313 1709 
L 2253 4666 
z
" transform="scale(0.015625)"/>
       </defs>
       <use xlink:href="#DejaVuSans-34"/>
       <use xlink:href="#DejaVuSans-30" transform="translate(63.623047 0)"/>
      </g>
     </g>
    </g>
    <g id="ytick_6">
     <g id="text_9">
      <!-- 50 -->
      <g style="fill: #262626" transform="translate(25.133 208.896082) scale(0.1 -0.1)">
       <defs>
        <path id="DejaVuSans-35" d="M 691 4666 
L 3169 4666 
L 3169 4134 
L 1269 4134 
L 1269 2991 
Q 1406 3038 1543 3061 
Q 1681 3084 1819 3084 
Q 2600 3084 3056 2656 
Q 3513 2228 3513 1497 
Q 3513 744 3044 326 
Q 2575 -91 1722 -91 
Q 1428 -91 1123 -41 
Q 819 9 494 109 
L 494 744 
Q 775 591 1075 516 
Q 1375 441 1709 441 
Q 2250 441 2565 725 
Q 2881 1009 2881 1497 
Q 2881 1984 2565 2268 
Q 2250 2553 1709 2553 
Q 1456 2553 1204 2497 
Q 953 2441 691 2322 
L 691 4666 
z
" transform="scale(0.015625)"/>
       </defs>
       <use xlink:href="#DejaVuSans-35"/>
       <use xlink:href="#DejaVuSans-30" transform="translate(63.623047 0)"/>
      </g>
     </g>
    </g>
    <g id="ytick_7">
     <g id="text_10">
      <!-- 60 -->
      <g style="fill: #262626" transform="translate(25.133 158.059264) scale(0.1 -0.1)">
       <defs>
        <path id="DejaVuSans-36" d="M 2113 2584 
Q 1688 2584 1439 2293 
Q 1191 2003 1191 1497 
Q 1191 994 1439 701 
Q 1688 409 2113 409 
Q 2538 409 2786 701 
Q 3034 994 3034 1497 
Q 3034 2003 2786 2293 
Q 2538 2584 2113 2584 
z
M 3366 4563 
L 3366 3988 
Q 3128 4100 2886 4159 
Q 2644 4219 2406 4219 
Q 1781 4219 1451 3797 
Q 1122 3375 1075 2522 
Q 1259 2794 1537 2939 
Q 1816 3084 2150 3084 
Q 2853 3084 3261 2657 
Q 3669 2231 3669 1497 
Q 3669 778 3244 343 
Q 2819 -91 2113 -91 
Q 1303 -91 875 529 
Q 447 1150 447 2328 
Q 447 3434 972 4092 
Q 1497 4750 2381 4750 
Q 2619 4750 2861 4703 
Q 3103 4656 3366 4563 
z
" transform="scale(0.015625)"/>
       </defs>
       <use xlink:href="#DejaVuSans-36"/>
       <use xlink:href="#DejaVuSans-30" transform="translate(63.623047 0)"/>
      </g>
     </g>
    </g>
    <g id="ytick_8">
     <g id="text_11">
      <!-- 70 -->
      <g style="fill: #262626" transform="translate(25.133 107.222446) scale(0.1 -0.1)">
       <defs>
        <path id="DejaVuSans-37" d="M 525 4666 
L 3525 4666 
L 3525 4397 
L 1831 0 
L 1172 0 
L 2766 4134 
L 525 4134 
L 525 4666 
z
" transform="scale(0.015625)"/>
       </defs>
       <use xlink:href="#DejaVuSans-37"/>
       <use xlink:href="#DejaVuSans-30" transform="translate(63.623047 0)"/>
      </g>
     </g>
    </g>
    <g id="ytick_9">
     <g id="text_12">
      <!-- 80 -->
      <g style="fill: #262626" transform="translate(25.133 56.385628) scale(0.1 -0.1)">
       <defs>
        <path id="DejaVuSans-38" d="M 2034 2216 
Q 1584 2216 1326 1975 
Q 1069 1734 1069 1313 
Q 1069 891 1326 650 
Q 1584 409 2034 409 
Q 2484 409 2743 651 
Q 3003 894 3003 1313 
Q 3003 1734 2745 1975 
Q 2488 2216 2034 2216 
z
M 1403 2484 
Q 997 2584 770 2862 
Q 544 3141 544 3541 
Q 544 4100 942 4425 
Q 1341 4750 2034 4750 
Q 2731 4750 3128 4425 
Q 3525 4100 3525 3541 
Q 3525 3141 3298 2862 
Q 3072 2584 2669 2484 
Q 3125 2378 3379 2068 
Q 3634 1759 3634 1313 
Q 3634 634 3220 271 
Q 2806 -91 2034 -91 
Q 1263 -91 848 271 
Q 434 634 434 1313 
Q 434 1759 690 2068 
Q 947 2378 1403 2484 
z
M 1172 3481 
Q 1172 3119 1398 2916 
Q 1625 2713 2034 2713 
Q 2441 2713 2670 2916 
Q 2900 3119 2900 3481 
Q 2900 3844 2670 4047 
Q 2441 4250 2034 4250 
Q 1625 4250 1398 4047 
Q 1172 3844 1172 3481 
z
" transform="scale(0.015625)"/>
       </defs>
       <use xlink:href="#DejaVuSans-38"/>
       <use xlink:href="#DejaVuSans-30" transform="translate(63.623047 0)"/>
      </g>
     </g>
    </g>
    <g id="text_13">
     <!-- MDS-UPDRS III -->
     <g style="fill: #262626" transform="translate(18.845344 290.811797) rotate(-90) scale(0.11 -0.11)">
      <defs>
       <path id="DejaVuSans-4d" d="M 628 4666 
L 1569 4666 
L 2759 1491 
L 3956 4666 
L 4897 4666 
L 4897 0 
L 4281 0 
L 4281 4097 
L 3078 897 
L 2444 897 
L 1241 4097 
L 1241 0 
L 628 0 
L 628 4666 
z
" transform="scale(0.015625)"/>
       <path id="DejaVuSans-44" d="M 1259 4147 
L 1259 519 
L 2022 519 
Q 2988 519 3436 956 
Q 3884 1394 3884 2338 
Q 3884 3275 3436 3711 
Q 2988 4147 2022 4147 
L 1259 4147 
z
M 628 4666 
L 1925 4666 
Q 3281 4666 3915 4102 
Q 4550 3538 4550 2338 
Q 4550 1131 3912 565 
Q 3275 0 1925 0 
L 628 0 
L 628 4666 
z
" transform="scale(0.015625)"/>
       <path id="DejaVuSans-2d" d="M 313 2009 
L 1997 2009 
L 1997 1497 
L 313 1497 
L 313 2009 
z
" transform="scale(0.015625)"/>
       <path id="DejaVuSans-55" d="M 556 4666 
L 1191 4666 
L 1191 1831 
Q 1191 1081 1462 751 
Q 1734 422 2344 422 
Q 2950 422 3222 751 
Q 3494 1081 3494 1831 
L 3494 4666 
L 4128 4666 
L 4128 1753 
Q 4128 841 3676 375 
Q 3225 -91 2344 -91 
Q 1459 -91 1007 375 
Q 556 841 556 1753 
L 556 4666 
z
" transform="scale(0.015625)"/>
       <path id="DejaVuSans-52" d="M 2841 2188 
Q 3044 2119 3236 1894 
Q 3428 1669 3622 1275 
L 4263 0 
L 3584 0 
L 2988 1197 
Q 2756 1666 2539 1819 
Q 2322 1972 1947 1972 
L 1259 1972 
L 1259 0 
L 628 0 
L 628 4666 
L 2053 4666 
Q 2853 4666 3247 4331 
Q 3641 3997 3641 3322 
Q 3641 2881 3436 2590 
Q 3231 2300 2841 2188 
z
M 1259 4147 
L 1259 2491 
L 2053 2491 
Q 2509 2491 2742 2702 
Q 2975 2913 2975 3322 
Q 2975 3731 2742 3939 
Q 2509 4147 2053 4147 
L 1259 4147 
z
" transform="scale(0.015625)"/>
       <path id="DejaVuSans-49" d="M 628 4666 
L 1259 4666 
L 1259 0 
L 628 0 
L 628 4666 
z
" transform="scale(0.015625)"/>
      </defs>
      <use xlink:href="#DejaVuSans-4d"/>
      <use xlink:href="#DejaVuSans-44" transform="translate(86.279297 0)"/>
      <use xlink:href="#DejaVuSans-53" transform="translate(163.28125 0)"/>
      <use xlink:href="#DejaVuSans-2d" transform="translate(226.757812 0)"/>
      <use xlink:href="#DejaVuSans-55" transform="translate(262.841797 0)"/>
      <use xlink:href="#DejaVuSans-50" transform="translate(336.035156 0)"/>
      <use xlink:href="#DejaVuSans-44" transform="translate(396.337891 0)"/>
      <use xlink:href="#DejaVuSans-52" transform="translate(473.339844 0)"/>
      <use xlink:href="#DejaVuSans-53" transform="translate(542.822266 0)"/>
      <use xlink:href="#DejaVuSans-20" transform="translate(606.298828 0)"/>
      <use xlink:href="#DejaVuSans-49" transform="translate(638.085938 0)"/>
      <use xlink:href="#DejaVuSans-49" transform="translate(667.578125 0)"/>
      <use xlink:href="#DejaVuSans-49" transform="translate(697.070312 0)"/>
     </g>
    </g>
   </g>
   <g id="FillBetweenPolyCollection_1">
    <defs>
     <path id="m96778f5ac1" d="M 109.752932 -161.643727 
L 90.581681 -161.643727 
L 89.263222 -164.622046 
L 87.942667 -167.600365 
L 86.62905 -170.578683 
L 85.33144 -173.557002 
L 84.058791 -176.53532 
L 82.819801 -179.513639 
L 81.622775 -182.491958 
L 80.475508 -185.470276 
L 79.385186 -188.448595 
L 78.358301 -191.426914 
L 77.400591 -194.405232 
L 76.516992 -197.383551 
L 75.711617 -200.36187 
L 74.987745 -203.340188 
L 74.347825 -206.318507 
L 73.793493 -209.296826 
L 73.325593 -212.275144 
L 72.944207 -215.253463 
L 72.64869 -218.231781 
L 72.437697 -221.2101 
L 72.309226 -224.188419 
L 72.26065 -227.166737 
L 72.288755 -230.145056 
L 72.389783 -233.123375 
L 72.559472 -236.101693 
L 72.793116 -239.080012 
L 73.085617 -242.058331 
L 73.431561 -245.036649 
L 73.82529 -248.014968 
L 74.261003 -250.993287 
L 74.732844 -253.971605 
L 75.23502 -256.949924 
L 75.761906 -259.928242 
L 76.308164 -262.906561 
L 76.868853 -265.88488 
L 77.439532 -268.863198 
L 78.016356 -271.841517 
L 78.596152 -274.819836 
L 79.176477 -277.798154 
L 79.755649 -280.776473 
L 80.33276 -283.754792 
L 80.907659 -286.73311 
L 81.480904 -289.711429 
L 82.0537 -292.689747 
L 82.627807 -295.668066 
L 83.205431 -298.646385 
L 83.7891 -301.624703 
L 84.381536 -304.603022 
L 84.98551 -307.581341 
L 85.603713 -310.559659 
L 86.23862 -313.537978 
L 86.892371 -316.516297 
L 87.566662 -319.494615 
L 88.262657 -322.472934 
L 88.980917 -325.451253 
L 89.721349 -328.429571 
L 90.483181 -331.40789 
L 91.264957 -334.386208 
L 92.064552 -337.364527 
L 92.879204 -340.342846 
L 93.705575 -343.321164 
L 94.539812 -346.299483 
L 95.377632 -349.277802 
L 96.214414 -352.25612 
L 97.045295 -355.234439 
L 97.865274 -358.212758 
L 98.669314 -361.191076 
L 99.452449 -364.169395 
L 100.209877 -367.147713 
L 100.937054 -370.126032 
L 101.629784 -373.104351 
L 102.284288 -376.082669 
L 102.897274 -379.060988 
L 103.465991 -382.039307 
L 103.988269 -385.017625 
L 104.462554 -387.995944 
L 104.887924 -390.974263 
L 105.264097 -393.952581 
L 105.591427 -396.9309 
L 105.870891 -399.909219 
L 106.10406 -402.887537 
L 106.293071 -405.865856 
L 106.440577 -408.844174 
L 106.5497 -411.822493 
L 106.62397 -414.800812 
L 106.66726 -417.77913 
L 106.683715 -420.757449 
L 106.677673 -423.735768 
L 106.65359 -426.714086 
L 106.615954 -429.692405 
L 106.569203 -432.670724 
L 106.517643 -435.649042 
L 106.46537 -438.627361 
L 106.416194 -441.60568 
L 106.37357 -444.583998 
L 106.340544 -447.562317 
L 106.319696 -450.540635 
L 106.31311 -453.518954 
L 106.322348 -456.497273 
L 109.752932 -456.497273 
L 109.752932 -456.497273 
L 109.752932 -453.518954 
L 109.752932 -450.540635 
L 109.752932 -447.562317 
L 109.752932 -444.583998 
L 109.752932 -441.60568 
L 109.752932 -438.627361 
L 109.752932 -435.649042 
L 109.752932 -432.670724 
L 109.752932 -429.692405 
L 109.752932 -426.714086 
L 109.752932 -423.735768 
L 109.752932 -420.757449 
L 109.752932 -417.77913 
L 109.752932 -414.800812 
L 109.752932 -411.822493 
L 109.752932 -408.844174 
L 109.752932 -405.865856 
L 109.752932 -402.887537 
L 109.752932 -399.909219 
L 109.752932 -396.9309 
L 109.752932 -393.952581 
L 109.752932 -390.974263 
L 109.752932 -387.995944 
L 109.752932 -385.017625 
L 109.752932 -382.039307 
L 109.752932 -379.060988 
L 109.752932 -376.082669 
L 109.752932 -373.104351 
L 109.752932 -370.126032 
L 109.752932 -367.147713 
L 109.752932 -364.169395 
L 109.752932 -361.191076 
L 109.752932 -358.212758 
L 109.752932 -355.234439 
L 109.752932 -352.25612 
L 109.752932 -349.277802 
L 109.752932 -346.299483 
L 109.752932 -343.321164 
L 109.752932 -340.342846 
L 109.752932 -337.364527 
L 109.752932 -334.386208 
L 109.752932 -331.40789 
L 109.752932 -328.429571 
L 109.752932 -325.451253 
L 109.752932 -322.472934 
L 109.752932 -319.494615 
L 109.752932 -316.516297 
L 109.752932 -313.537978 
L 109.752932 -310.559659 
L 109.752932 -307.581341 
L 109.752932 -304.603022 
L 109.752932 -301.624703 
L 109.752932 -298.646385 
L 109.752932 -295.668066 
L 109.752932 -292.689747 
L 109.752932 -289.711429 
L 109.752932 -286.73311 
L 109.752932 -283.754792 
L 109.752932 -280.776473 
L 109.752932 -277.798154 
L 109.752932 -274.819836 
L 109.752932 -271.841517 
L 109.752932 -268.863198 
L 109.752932 -265.88488 
L 109.752932 -262.906561 
L 109.752932 -259.928242 
L 109.752932 -256.949924 
L 109.752932 -253.971605 
L 109.752932 -250.993287 
L 109.752932 -248.014968 
L 109.752932 -245.036649 
L 109.752932 -242.058331 
L 109.752932 -239.080012 
L 109.752932 -236.101693 
L 109.752932 -233.123375 
L 109.752932 -230.145056 
L 109.752932 -227.166737 
L 109.752932 -224.188419 
L 109.752932 -221.2101 
L 109.752932 -218.231781 
L 109.752932 -215.253463 
L 109.752932 -212.275144 
L 109.752932 -209.296826 
L 109.752932 -206.318507 
L 109.752932 -203.340188 
L 109.752932 -200.36187 
L 109.752932 -197.383551 
L 109.752932 -194.405232 
L 109.752932 -191.426914 
L 109.752932 -188.448595 
L 109.752932 -185.470276 
L 109.752932 -182.491958 
L 109.752932 -179.513639 
L 109.752932 -176.53532 
L 109.752932 -173.557002 
L 109.752932 -170.578683 
L 109.752932 -167.600365 
L 109.752932 -164.622046 
L 109.752932 -161.643727 
z
"/>
    </defs>
    <g clip-path="url(#p256f05d667)">
     <use xlink:href="#m96778f5ac1" x="0" y="504" style="fill: #5875a4"/>
    </g>
   </g>
   <g id="FillBetweenPolyCollection_2">
    <defs>
     <path id="ma5f619b5db" d="M 258.886166 -59.970091 
L 243.470759 -59.970091 
L 242.578533 -62.075454 
L 241.679957 -64.180817 
L 240.775922 -66.28618 
L 239.867053 -68.391544 
L 238.953798 -70.496907 
L 238.036535 -72.60227 
L 237.115694 -74.707633 
L 236.191882 -76.812996 
L 235.266019 -78.91836 
L 234.339443 -81.023723 
L 233.41402 -83.129086 
L 232.49221 -85.234449 
L 231.577112 -87.339812 
L 230.672468 -89.445175 
L 229.782631 -91.550539 
L 228.912493 -93.655902 
L 228.067374 -95.761265 
L 227.252884 -97.866628 
L 226.474755 -99.971991 
L 225.738652 -102.077354 
L 225.049985 -104.182718 
L 224.413709 -106.288081 
L 223.834144 -108.393444 
L 223.314814 -110.498807 
L 222.858309 -112.60417 
L 222.466192 -114.709534 
L 222.138941 -116.814897 
L 221.875936 -118.92026 
L 221.675494 -121.025623 
L 221.534946 -123.130986 
L 221.450751 -125.236349 
L 221.41865 -127.341713 
L 221.433845 -129.447076 
L 221.491191 -131.552439 
L 221.585405 -133.657802 
L 221.711269 -135.763165 
L 221.863821 -137.868528 
L 222.038532 -139.973892 
L 222.231456 -142.079255 
L 222.439337 -144.184618 
L 222.659695 -146.289981 
L 222.89086 -148.395344 
L 223.13197 -150.500708 
L 223.382934 -152.606071 
L 223.644358 -154.711434 
L 223.917438 -156.816797 
L 224.203843 -158.92216 
L 224.505564 -161.027523 
L 224.824775 -163.132887 
L 225.163679 -165.23825 
L 225.524371 -167.343613 
L 225.90871 -169.448976 
L 226.318213 -171.554339 
L 226.753975 -173.659702 
L 227.216609 -175.765066 
L 227.70622 -177.870429 
L 228.222401 -179.975792 
L 228.764259 -182.081155 
L 229.330457 -184.186518 
L 229.919276 -186.291882 
L 230.528691 -188.397245 
L 231.156451 -190.502608 
L 231.800167 -192.607971 
L 232.45739 -194.713334 
L 233.125686 -196.818697 
L 233.802705 -198.924061 
L 234.486227 -201.029424 
L 235.174208 -203.134787 
L 235.864792 -205.24015 
L 236.556331 -207.345513 
L 237.247373 -209.450876 
L 237.93665 -211.55624 
L 238.623056 -213.661603 
L 239.305615 -215.766966 
L 239.983451 -217.872329 
L 240.655758 -219.977692 
L 241.321768 -222.083056 
L 241.980731 -224.188419 
L 242.631895 -226.293782 
L 243.274496 -228.399145 
L 243.907755 -230.504508 
L 244.530882 -232.609871 
L 245.143085 -234.715235 
L 245.743587 -236.820598 
L 246.331645 -238.925961 
L 246.906566 -241.031324 
L 247.467735 -243.136687 
L 248.014622 -245.242051 
L 248.546808 -247.347414 
L 249.063987 -249.452777 
L 249.565972 -251.55814 
L 250.052695 -253.663503 
L 250.5242 -255.768866 
L 250.980624 -257.87423 
L 251.422186 -259.979593 
L 251.849163 -262.084956 
L 252.261866 -264.190319 
L 252.660616 -266.295682 
L 253.04572 -268.401045 
L 258.886166 -268.401045 
L 258.886166 -268.401045 
L 258.886166 -266.295682 
L 258.886166 -264.190319 
L 258.886166 -262.084956 
L 258.886166 -259.979593 
L 258.886166 -257.87423 
L 258.886166 -255.768866 
L 258.886166 -253.663503 
L 258.886166 -251.55814 
L 258.886166 -249.452777 
L 258.886166 -247.347414 
L 258.886166 -245.242051 
L 258.886166 -243.136687 
L 258.886166 -241.031324 
L 258.886166 -238.925961 
L 258.886166 -236.820598 
L 258.886166 -234.715235 
L 258.886166 -232.609871 
L 258.886166 -230.504508 
L 258.886166 -228.399145 
L 258.886166 -226.293782 
L 258.886166 -224.188419 
L 258.886166 -222.083056 
L 258.886166 -219.977692 
L 258.886166 -217.872329 
L 258.886166 -215.766966 
L 258.886166 -213.661603 
L 258.886166 -211.55624 
L 258.886166 -209.450876 
L 258.886166 -207.345513 
L 258.886166 -205.24015 
L 258.886166 -203.134787 
L 258.886166 -201.029424 
L 258.886166 -198.924061 
L 258.886166 -196.818697 
L 258.886166 -194.713334 
L 258.886166 -192.607971 
L 258.886166 -190.502608 
L 258.886166 -188.397245 
L 258.886166 -186.291882 
L 258.886166 -184.186518 
L 258.886166 -182.081155 
L 258.886166 -179.975792 
L 258.886166 -177.870429 
L 258.886166 -175.765066 
L 258.886166 -173.659702 
L 258.886166 -171.554339 
L 258.886166 -169.448976 
L 258.886166 -167.343613 
L 258.886166 -165.23825 
L 258.886166 -163.132887 
L 258.886166 -161.027523 
L 258.886166 -158.92216 
L 258.886166 -156.816797 
L 258.886166 -154.711434 
L 258.886166 -152.606071 
L 258.886166 -150.500708 
L 258.886166 -148.395344 
L 258.886166 -146.289981 
L 258.886166 -144.184618 
L 258.886166 -142.079255 
L 258.886166 -139.973892 
L 258.886166 -137.868528 
L 258.886166 -135.763165 
L 258.886166 -133.657802 
L 258.886166 -131.552439 
L 258.886166 -129.447076 
L 258.886166 -127.341713 
L 258.886166 -125.236349 
L 258.886166 -123.130986 
L 258.886166 -121.025623 
L 258.886166 -118.92026 
L 258.886166 -116.814897 
L 258.886166 -114.709534 
L 258.886166 -112.60417 
L 258.886166 -110.498807 
L 258.886166 -108.393444 
L 258.886166 -106.288081 
L 258.886166 -104.182718 
L 258.886166 -102.077354 
L 258.886166 -99.971991 
L 258.886166 -97.866628 
L 258.886166 -95.761265 
L 258.886166 -93.655902 
L 258.886166 -91.550539 
L 258.886166 -89.445175 
L 258.886166 -87.339812 
L 258.886166 -85.234449 
L 258.886166 -83.129086 
L 258.886166 -81.023723 
L 258.886166 -78.91836 
L 258.886166 -76.812996 
L 258.886166 -74.707633 
L 258.886166 -72.60227 
L 258.886166 -70.496907 
L 258.886166 -68.391544 
L 258.886166 -66.28618 
L 258.886166 -64.180817 
L 258.886166 -62.075454 
L 258.886166 -59.970091 
z
"/>
    </defs>
    <g clip-path="url(#p256f05d667)">
     <use xlink:href="#ma5f619b5db" x="0" y="504" style="fill: #cc8963"/>
    </g>
   </g>
   <g id="FillBetweenPolyCollection_3">
    <defs>
     <path id="m0f0407814d" d="M 408.013145 -49.802727 
L 396.13612 -49.802727 
L 395.018898 -52.678345 
L 393.845345 -55.553963 
L 392.619761 -58.429581 
L 391.347605 -61.305199 
L 390.035498 -64.180817 
L 388.691206 -67.056435 
L 387.323576 -69.932053 
L 385.942436 -72.807671 
L 384.558461 -75.683289 
L 383.183001 -78.558907 
L 381.827875 -81.434525 
L 380.505141 -84.310143 
L 379.226843 -87.185761 
L 378.004741 -90.061379 
L 376.850047 -92.936997 
L 375.773153 -95.812615 
L 374.783382 -98.688233 
L 373.888759 -101.563851 
L 373.095818 -104.439469 
L 372.409439 -107.315087 
L 371.832741 -110.190705 
L 371.367018 -113.066323 
L 371.011727 -115.941941 
L 370.764528 -118.817559 
L 370.621375 -121.693177 
L 370.57665 -124.568795 
L 370.623339 -127.444413 
L 370.75324 -130.320031 
L 370.957194 -133.195649 
L 371.225333 -136.071267 
L 371.54734 -138.946885 
L 371.912692 -141.822503 
L 372.310913 -144.698121 
L 372.731791 -147.573739 
L 373.165581 -150.449357 
L 373.603181 -153.324975 
L 374.036276 -156.200593 
L 374.457448 -159.076211 
L 374.860261 -161.951829 
L 375.23932 -164.827447 
L 375.590293 -167.703065 
L 375.909929 -170.578683 
L 376.196044 -173.454301 
L 376.447503 -176.329919 
L 376.66419 -179.205537 
L 376.846968 -182.081155 
L 376.997638 -184.956773 
L 377.118891 -187.832391 
L 377.214252 -190.708009 
L 377.288023 -193.583627 
L 377.345212 -196.459245 
L 377.39145 -199.334863 
L 377.4329 -202.210481 
L 377.476144 -205.086099 
L 377.528056 -207.961717 
L 377.595658 -210.837335 
L 377.685963 -213.712953 
L 377.805797 -216.588571 
L 377.961629 -219.464189 
L 378.159383 -222.339807 
L 378.404264 -225.215425 
L 378.700595 -228.091043 
L 379.05167 -230.966661 
L 379.45964 -233.842279 
L 379.925425 -236.717897 
L 380.448673 -239.593515 
L 381.027753 -242.469133 
L 381.659796 -245.344751 
L 382.340776 -248.220369 
L 383.065635 -251.095987 
L 383.828435 -253.971605 
L 384.622552 -256.847223 
L 385.440876 -259.722841 
L 386.276031 -262.598459 
L 387.120602 -265.474077 
L 387.967346 -268.349695 
L 388.809394 -271.225313 
L 389.64043 -274.100931 
L 390.454843 -276.976549 
L 391.24784 -279.852167 
L 392.015529 -282.727785 
L 392.754958 -285.603403 
L 393.464126 -288.479021 
L 394.141948 -291.354639 
L 394.788197 -294.230257 
L 395.403417 -297.105875 
L 395.988816 -299.981493 
L 396.546139 -302.857111 
L 397.077541 -305.732729 
L 397.585452 -308.608347 
L 398.072442 -311.483965 
L 398.5411 -314.359583 
L 398.993923 -317.235201 
L 399.43322 -320.110819 
L 399.861032 -322.986437 
L 400.279076 -325.862055 
L 400.688701 -328.737673 
L 401.090874 -331.613291 
L 401.486174 -334.488909 
L 408.013145 -334.488909 
L 408.013145 -334.488909 
L 408.013145 -331.613291 
L 408.013145 -328.737673 
L 408.013145 -325.862055 
L 408.013145 -322.986437 
L 408.013145 -320.110819 
L 408.013145 -317.235201 
L 408.013145 -314.359583 
L 408.013145 -311.483965 
L 408.013145 -308.608347 
L 408.013145 -305.732729 
L 408.013145 -302.857111 
L 408.013145 -299.981493 
L 408.013145 -297.105875 
L 408.013145 -294.230257 
L 408.013145 -291.354639 
L 408.013145 -288.479021 
L 408.013145 -285.603403 
L 408.013145 -282.727785 
L 408.013145 -279.852167 
L 408.013145 -276.976549 
L 408.013145 -274.100931 
L 408.013145 -271.225313 
L 408.013145 -268.349695 
L 408.013145 -265.474077 
L 408.013145 -262.598459 
L 408.013145 -259.722841 
L 408.013145 -256.847223 
L 408.013145 -253.971605 
L 408.013145 -251.095987 
L 408.013145 -248.220369 
L 408.013145 -245.344751 
L 408.013145 -242.469133 
L 408.013145 -239.593515 
L 408.013145 -236.717897 
L 408.013145 -233.842279 
L 408.013145 -230.966661 
L 408.013145 -228.091043 
L 408.013145 -225.215425 
L 408.013145 -222.339807 
L 408.013145 -219.464189 
L 408.013145 -216.588571 
L 408.013145 -213.712953 
L 408.013145 -210.837335 
L 408.013145 -207.961717 
L 408.013145 -205.086099 
L 408.013145 -202.210481 
L 408.013145 -199.334863 
L 408.013145 -196.459245 
L 408.013145 -193.583627 
L 408.013145 -190.708009 
L 408.013145 -187.832391 
L 408.013145 -184.956773 
L 408.013145 -182.081155 
L 408.013145 -179.205537 
L 408.013145 -176.329919 
L 408.013145 -173.454301 
L 408.013145 -170.578683 
L 408.013145 -167.703065 
L 408.013145 -164.827447 
L 408.013145 -161.951829 
L 408.013145 -159.076211 
L 408.013145 -156.200593 
L 408.013145 -153.324975 
L 408.013145 -150.449357 
L 408.013145 -147.573739 
L 408.013145 -144.698121 
L 408.013145 -141.822503 
L 408.013145 -138.946885 
L 408.013145 -136.071267 
L 408.013145 -133.195649 
L 408.013145 -130.320031 
L 408.013145 -127.444413 
L 408.013145 -124.568795 
L 408.013145 -121.693177 
L 408.013145 -118.817559 
L 408.013145 -115.941941 
L 408.013145 -113.066323 
L 408.013145 -110.190705 
L 408.013145 -107.315087 
L 408.013145 -104.439469 
L 408.013145 -101.563851 
L 408.013145 -98.688233 
L 408.013145 -95.812615 
L 408.013145 -92.936997 
L 408.013145 -90.061379 
L 408.013145 -87.185761 
L 408.013145 -84.310143 
L 408.013145 -81.434525 
L 408.013145 -78.558907 
L 408.013145 -75.683289 
L 408.013145 -72.807671 
L 408.013145 -69.932053 
L 408.013145 -67.056435 
L 408.013145 -64.180817 
L 408.013145 -61.305199 
L 408.013145 -58.429581 
L 408.013145 -55.553963 
L 408.013145 -52.678345 
L 408.013145 -49.802727 
z
"/>
    </defs>
    <g clip-path="url(#p256f05d667)">
     <use xlink:href="#m0f0407814d" x="0" y="504" style="fill: #5f9e6e"/>
    </g>
   </g>
   <g id="patch_3">
    <path d="M 109.55015 299.144977 
L 131.92385 299.144977 
L 131.92385 205.096864 
L 109.55015 205.096864 
L 109.55015 299.144977 
z
" clip-path="url(#p256f05d667)" style="fill: #5875a4; stroke: #4c4c4c; stroke-linejoin: miter"/>
   </g>
   <g id="line2d_1">
    <path d="M 120.737 299.144977 
L 120.737 342.356273 
" clip-path="url(#p256f05d667)" style="fill: none; stroke: #000000"/>
   </g>
   <g id="line2d_2">
    <path d="M 120.737 205.096864 
L 120.737 154.260045 
" clip-path="url(#p256f05d667)" style="fill: none; stroke: #000000"/>
   </g>
   <g id="line2d_3">
    <path d="M 115.143575 342.356273 
L 126.330425 342.356273 
" clip-path="url(#p256f05d667)" style="fill: none; stroke: #4c4c4c; stroke-linecap: round"/>
   </g>
   <g id="line2d_4">
    <path d="M 115.143575 154.260045 
L 126.330425 154.260045 
" clip-path="url(#p256f05d667)" style="fill: none; stroke: #4c4c4c; stroke-linecap: round"/>
   </g>
   <g id="line2d_5"/>
   <g id="patch_4">
    <path d="M 258.70815 394.464011 
L 281.08185 394.464011 
L 281.08185 322.021545 
L 258.70815 322.021545 
L 258.70815 394.464011 
z
" clip-path="url(#p256f05d667)" style="fill: #cc8963; stroke: #4c4c4c; stroke-linejoin: miter"/>
   </g>
   <g id="line2d_6">
    <path d="M 269.895 394.464011 
L 269.895 444.029909 
" clip-path="url(#p256f05d667)" style="fill: none; stroke: #000000"/>
   </g>
   <g id="line2d_7">
    <path d="M 269.895 322.021545 
L 269.895 235.598955 
" clip-path="url(#p256f05d667)" style="fill: none; stroke: #000000"/>
   </g>
   <g id="line2d_8">
    <path d="M 264.301575 444.029909 
L 275.488425 444.029909 
" clip-path="url(#p256f05d667)" style="fill: none; stroke: #4c4c4c; stroke-linecap: round"/>
   </g>
   <g id="line2d_9">
    <path d="M 264.301575 235.598955 
L 275.488425 235.598955 
" clip-path="url(#p256f05d667)" style="fill: none; stroke: #4c4c4c; stroke-linecap: round"/>
   </g>
   <g id="line2d_10"/>
   <g id="patch_5">
    <path d="M 407.86615 389.38033 
L 430.23985 389.38033 
L 430.23985 271.184727 
L 407.86615 271.184727 
L 407.86615 389.38033 
z
" clip-path="url(#p256f05d667)" style="fill: #5f9e6e; stroke: #4c4c4c; stroke-linejoin: miter"/>
   </g>
   <g id="line2d_11">
    <path d="M 419.053 389.38033 
L 419.053 454.197273 
" clip-path="url(#p256f05d667)" style="fill: none; stroke: #000000"/>
   </g>
   <g id="line2d_12">
    <path d="M 419.053 271.184727 
L 419.053 169.511091 
" clip-path="url(#p256f05d667)" style="fill: none; stroke: #000000"/>
   </g>
   <g id="line2d_13">
    <path d="M 413.459575 454.197273 
L 424.646425 454.197273 
" clip-path="url(#p256f05d667)" style="fill: none; stroke: #4c4c4c; stroke-linecap: round"/>
   </g>
   <g id="line2d_14">
    <path d="M 413.459575 169.511091 
L 424.646425 169.511091 
" clip-path="url(#p256f05d667)" style="fill: none; stroke: #4c4c4c; stroke-linecap: round"/>
   </g>
   <g id="line2d_15"/>
   <g id="PathCollection_1">
    <defs>
     <path id="md1c3cd27cc" d="M 0 1.581139 
C 0.419323 1.581139 0.821528 1.41454 1.118034 1.118034 
C 1.41454 0.821528 1.581139 0.419323 1.581139 0 
C 1.581139 -0.419323 1.41454 -0.821528 1.118034 -1.118034 
C 0.821528 -1.41454 0.419323 -1.581139 0 -1.581139 
C -0.419323 -1.581139 -0.821528 -1.41454 -1.118034 -1.118034 
C -1.41454 -0.821528 -1.581139 -0.419323 -1.581139 0 
C -1.581139 0.419323 -1.41454 0.821528 -1.118034 1.118034 
C -0.821528 1.41454 -0.419323 1.581139 0 1.581139 
z
" style="stroke: #000000; stroke-opacity: 0.9; stroke-width: 0.8"/>
    </defs>
    <g clip-path="url(#p256f05d667)">
     <use xlink:href="#md1c3cd27cc" x="117.191177" y="316.937864" style="fill-opacity: 0.9; stroke: #000000; stroke-opacity: 0.9; stroke-width: 0.8"/>
     <use xlink:href="#md1c3cd27cc" x="116.903063" y="291.519455" style="fill-opacity: 0.9; stroke: #000000; stroke-opacity: 0.9; stroke-width: 0.8"/>
     <use xlink:href="#md1c3cd27cc" x="124.073971" y="164.427409" style="fill-opacity: 0.9; stroke: #000000; stroke-opacity: 0.9; stroke-width: 0.8"/>
     <use xlink:href="#md1c3cd27cc" x="117.625131" y="261.017364" style="fill-opacity: 0.9; stroke: #000000; stroke-opacity: 0.9; stroke-width: 0.8"/>
     <use xlink:href="#md1c3cd27cc" x="123.605091" y="210.180545" style="fill-opacity: 0.9; stroke: #000000; stroke-opacity: 0.9; stroke-width: 0.8"/>
     <use xlink:href="#md1c3cd27cc" x="117.834318" y="240.682636" style="fill-opacity: 0.9; stroke: #000000; stroke-opacity: 0.9; stroke-width: 0.8"/>
     <use xlink:href="#md1c3cd27cc" x="118.200166" y="322.021545" style="fill-opacity: 0.9; stroke: #000000; stroke-opacity: 0.9; stroke-width: 0.8"/>
     <use xlink:href="#md1c3cd27cc" x="120.874358" y="189.845818" style="fill-opacity: 0.9; stroke: #000000; stroke-opacity: 0.9; stroke-width: 0.8"/>
     <use xlink:href="#md1c3cd27cc" x="118.485452" y="47.502727" style="fill-opacity: 0.9; stroke: #000000; stroke-opacity: 0.9; stroke-width: 0.8"/>
     <use xlink:href="#md1c3cd27cc" x="126.785952" y="281.352091" style="fill-opacity: 0.9; stroke: #000000; stroke-opacity: 0.9; stroke-width: 0.8"/>
     <use xlink:href="#md1c3cd27cc" x="119.318213" y="154.260045" style="fill-opacity: 0.9; stroke: #000000; stroke-opacity: 0.9; stroke-width: 0.8"/>
     <use xlink:href="#md1c3cd27cc" x="113.45643" y="220.347909" style="fill-opacity: 0.9; stroke: #000000; stroke-opacity: 0.9; stroke-width: 0.8"/>
     <use xlink:href="#md1c3cd27cc" x="117.590824" y="200.013182" style="fill-opacity: 0.9; stroke: #000000; stroke-opacity: 0.9; stroke-width: 0.8"/>
     <use xlink:href="#md1c3cd27cc" x="118.223928" y="281.352091" style="fill-opacity: 0.9; stroke: #000000; stroke-opacity: 0.9; stroke-width: 0.8"/>
     <use xlink:href="#md1c3cd27cc" x="114.300021" y="184.762136" style="fill-opacity: 0.9; stroke: #000000; stroke-opacity: 0.9; stroke-width: 0.8"/>
     <use xlink:href="#md1c3cd27cc" x="119.518719" y="245.766318" style="fill-opacity: 0.9; stroke: #000000; stroke-opacity: 0.9; stroke-width: 0.8"/>
     <use xlink:href="#md1c3cd27cc" x="117.621687" y="306.7705" style="fill-opacity: 0.9; stroke: #000000; stroke-opacity: 0.9; stroke-width: 0.8"/>
     <use xlink:href="#md1c3cd27cc" x="116.706898" y="271.184727" style="fill-opacity: 0.9; stroke: #000000; stroke-opacity: 0.9; stroke-width: 0.8"/>
     <use xlink:href="#md1c3cd27cc" x="127.838772" y="306.7705" style="fill-opacity: 0.9; stroke: #000000; stroke-opacity: 0.9; stroke-width: 0.8"/>
     <use xlink:href="#md1c3cd27cc" x="125.520235" y="342.356273" style="fill-opacity: 0.9; stroke: #000000; stroke-opacity: 0.9; stroke-width: 0.8"/>
     <use xlink:href="#md1c3cd27cc" x="123.563386" y="316.937864" style="fill-opacity: 0.9; stroke: #000000; stroke-opacity: 0.9; stroke-width: 0.8"/>
     <use xlink:href="#md1c3cd27cc" x="127.555945" y="255.933682" style="fill-opacity: 0.9; stroke: #000000; stroke-opacity: 0.9; stroke-width: 0.8"/>
     <use xlink:href="#md1c3cd27cc" x="119.446077" y="261.017364" style="fill-opacity: 0.9; stroke: #000000; stroke-opacity: 0.9; stroke-width: 0.8"/>
    </g>
   </g>
   <g id="PathCollection_2">
    <g clip-path="url(#p256f05d667)">
     <use xlink:href="#md1c3cd27cc" x="264.412714" y="388.109409" style="fill-opacity: 0.9; stroke: #000000; stroke-opacity: 0.9; stroke-width: 0.8"/>
     <use xlink:href="#md1c3cd27cc" x="264.101684" y="342.356273" style="fill-opacity: 0.9; stroke: #000000; stroke-opacity: 0.9; stroke-width: 0.8"/>
     <use xlink:href="#md1c3cd27cc" x="269.876266" y="377.942045" style="fill-opacity: 0.9; stroke: #000000; stroke-opacity: 0.9; stroke-width: 0.8"/>
     <use xlink:href="#md1c3cd27cc" x="270.781302" y="327.105227" style="fill-opacity: 0.9; stroke: #000000; stroke-opacity: 0.9; stroke-width: 0.8"/>
     <use xlink:href="#md1c3cd27cc" x="275.251033" y="403.360455" style="fill-opacity: 0.9; stroke: #000000; stroke-opacity: 0.9; stroke-width: 0.8"/>
     <use xlink:href="#md1c3cd27cc" x="262.788423" y="276.268409" style="fill-opacity: 0.9; stroke: #000000; stroke-opacity: 0.9; stroke-width: 0.8"/>
     <use xlink:href="#md1c3cd27cc" x="271.327373" y="372.858364" style="fill-opacity: 0.9; stroke: #000000; stroke-opacity: 0.9; stroke-width: 0.8"/>
     <use xlink:href="#md1c3cd27cc" x="272.979115" y="403.360455" style="fill-opacity: 0.9; stroke: #000000; stroke-opacity: 0.9; stroke-width: 0.8"/>
     <use xlink:href="#md1c3cd27cc" x="276.171766" y="322.021545" style="fill-opacity: 0.9; stroke: #000000; stroke-opacity: 0.9; stroke-width: 0.8"/>
     <use xlink:href="#md1c3cd27cc" x="274.442319" y="367.774682" style="fill-opacity: 0.9; stroke: #000000; stroke-opacity: 0.9; stroke-width: 0.8"/>
     <use xlink:href="#md1c3cd27cc" x="272.601166" y="393.193091" style="fill-opacity: 0.9; stroke: #000000; stroke-opacity: 0.9; stroke-width: 0.8"/>
     <use xlink:href="#md1c3cd27cc" x="274.702803" y="301.686818" style="fill-opacity: 0.9; stroke: #000000; stroke-opacity: 0.9; stroke-width: 0.8"/>
     <use xlink:href="#md1c3cd27cc" x="270.435387" y="444.029909" style="fill-opacity: 0.9; stroke: #000000; stroke-opacity: 0.9; stroke-width: 0.8"/>
     <use xlink:href="#md1c3cd27cc" x="273.656688" y="347.439955" style="fill-opacity: 0.9; stroke: #000000; stroke-opacity: 0.9; stroke-width: 0.8"/>
     <use xlink:href="#md1c3cd27cc" x="266.847795" y="316.937864" style="fill-opacity: 0.9; stroke: #000000; stroke-opacity: 0.9; stroke-width: 0.8"/>
     <use xlink:href="#md1c3cd27cc" x="263.618363" y="281.352091" style="fill-opacity: 0.9; stroke: #000000; stroke-opacity: 0.9; stroke-width: 0.8"/>
     <use xlink:href="#md1c3cd27cc" x="267.777536" y="398.276773" style="fill-opacity: 0.9; stroke: #000000; stroke-opacity: 0.9; stroke-width: 0.8"/>
     <use xlink:href="#md1c3cd27cc" x="267.806478" y="367.774682" style="fill-opacity: 0.9; stroke: #000000; stroke-opacity: 0.9; stroke-width: 0.8"/>
     <use xlink:href="#md1c3cd27cc" x="275.320276" y="433.862545" style="fill-opacity: 0.9; stroke: #000000; stroke-opacity: 0.9; stroke-width: 0.8"/>
     <use xlink:href="#md1c3cd27cc" x="267.633339" y="347.439955" style="fill-opacity: 0.9; stroke: #000000; stroke-opacity: 0.9; stroke-width: 0.8"/>
     <use xlink:href="#md1c3cd27cc" x="263.581214" y="438.946227" style="fill-opacity: 0.9; stroke: #000000; stroke-opacity: 0.9; stroke-width: 0.8"/>
     <use xlink:href="#md1c3cd27cc" x="270.489608" y="403.360455" style="fill-opacity: 0.9; stroke: #000000; stroke-opacity: 0.9; stroke-width: 0.8"/>
     <use xlink:href="#md1c3cd27cc" x="264.285322" y="261.017364" style="fill-opacity: 0.9; stroke: #000000; stroke-opacity: 0.9; stroke-width: 0.8"/>
     <use xlink:href="#md1c3cd27cc" x="271.046183" y="418.6115" style="fill-opacity: 0.9; stroke: #000000; stroke-opacity: 0.9; stroke-width: 0.8"/>
     <use xlink:href="#md1c3cd27cc" x="268.650993" y="342.356273" style="fill-opacity: 0.9; stroke: #000000; stroke-opacity: 0.9; stroke-width: 0.8"/>
     <use xlink:href="#md1c3cd27cc" x="267.403987" y="388.109409" style="fill-opacity: 0.9; stroke: #000000; stroke-opacity: 0.9; stroke-width: 0.8"/>
     <use xlink:href="#md1c3cd27cc" x="275.110928" y="296.603136" style="fill-opacity: 0.9; stroke: #000000; stroke-opacity: 0.9; stroke-width: 0.8"/>
     <use xlink:href="#md1c3cd27cc" x="268.586613" y="383.025727" style="fill-opacity: 0.9; stroke: #000000; stroke-opacity: 0.9; stroke-width: 0.8"/>
     <use xlink:href="#md1c3cd27cc" x="264.892743" y="337.272591" style="fill-opacity: 0.9; stroke: #000000; stroke-opacity: 0.9; stroke-width: 0.8"/>
     <use xlink:href="#md1c3cd27cc" x="276.253524" y="362.691" style="fill-opacity: 0.9; stroke: #000000; stroke-opacity: 0.9; stroke-width: 0.8"/>
     <use xlink:href="#md1c3cd27cc" x="271.799022" y="235.598955" style="fill-opacity: 0.9; stroke: #000000; stroke-opacity: 0.9; stroke-width: 0.8"/>
     <use xlink:href="#md1c3cd27cc" x="275.628112" y="438.946227" style="fill-opacity: 0.9; stroke: #000000; stroke-opacity: 0.9; stroke-width: 0.8"/>
     <use xlink:href="#md1c3cd27cc" x="276.893818" y="296.603136" style="fill-opacity: 0.9; stroke: #000000; stroke-opacity: 0.9; stroke-width: 0.8"/>
     <use xlink:href="#md1c3cd27cc" x="262.963811" y="388.109409" style="fill-opacity: 0.9; stroke: #000000; stroke-opacity: 0.9; stroke-width: 0.8"/>
     <use xlink:href="#md1c3cd27cc" x="273.237134" y="322.021545" style="fill-opacity: 0.9; stroke: #000000; stroke-opacity: 0.9; stroke-width: 0.8"/>
     <use xlink:href="#md1c3cd27cc" x="265.158031" y="332.188909" style="fill-opacity: 0.9; stroke: #000000; stroke-opacity: 0.9; stroke-width: 0.8"/>
    </g>
   </g>
   <g id="PathCollection_3">
    <g clip-path="url(#p256f05d667)">
     <use xlink:href="#md1c3cd27cc" x="421.895793" y="327.105227" style="fill-opacity: 0.9; stroke: #000000; stroke-opacity: 0.9; stroke-width: 0.8"/>
     <use xlink:href="#md1c3cd27cc" x="413.068317" y="393.193091" style="fill-opacity: 0.9; stroke: #000000; stroke-opacity: 0.9; stroke-width: 0.8"/>
     <use xlink:href="#md1c3cd27cc" x="423.019779" y="322.021545" style="fill-opacity: 0.9; stroke: #000000; stroke-opacity: 0.9; stroke-width: 0.8"/>
     <use xlink:href="#md1c3cd27cc" x="417.251902" y="245.766318" style="fill-opacity: 0.9; stroke: #000000; stroke-opacity: 0.9; stroke-width: 0.8"/>
     <use xlink:href="#md1c3cd27cc" x="411.821117" y="281.352091" style="fill-opacity: 0.9; stroke: #000000; stroke-opacity: 0.9; stroke-width: 0.8"/>
     <use xlink:href="#md1c3cd27cc" x="426.479787" y="377.942045" style="fill-opacity: 0.9; stroke: #000000; stroke-opacity: 0.9; stroke-width: 0.8"/>
     <use xlink:href="#md1c3cd27cc" x="421.247031" y="210.180545" style="fill-opacity: 0.9; stroke: #000000; stroke-opacity: 0.9; stroke-width: 0.8"/>
     <use xlink:href="#md1c3cd27cc" x="414.860592" y="372.858364" style="fill-opacity: 0.9; stroke: #000000; stroke-opacity: 0.9; stroke-width: 0.8"/>
     <use xlink:href="#md1c3cd27cc" x="418.372562" y="408.444136" style="fill-opacity: 0.9; stroke: #000000; stroke-opacity: 0.9; stroke-width: 0.8"/>
     <use xlink:href="#md1c3cd27cc" x="419.688597" y="403.360455" style="fill-opacity: 0.9; stroke: #000000; stroke-opacity: 0.9; stroke-width: 0.8"/>
     <use xlink:href="#md1c3cd27cc" x="413.90092" y="322.021545" style="fill-opacity: 0.9; stroke: #000000; stroke-opacity: 0.9; stroke-width: 0.8"/>
     <use xlink:href="#md1c3cd27cc" x="422.264728" y="454.197273" style="fill-opacity: 0.9; stroke: #000000; stroke-opacity: 0.9; stroke-width: 0.8"/>
     <use xlink:href="#md1c3cd27cc" x="424.805312" y="169.511091" style="fill-opacity: 0.9; stroke: #000000; stroke-opacity: 0.9; stroke-width: 0.8"/>
     <use xlink:href="#md1c3cd27cc" x="417.280494" y="261.017364" style="fill-opacity: 0.9; stroke: #000000; stroke-opacity: 0.9; stroke-width: 0.8"/>
     <use xlink:href="#md1c3cd27cc" x="414.726707" y="413.527818" style="fill-opacity: 0.9; stroke: #000000; stroke-opacity: 0.9; stroke-width: 0.8"/>
     <use xlink:href="#md1c3cd27cc" x="423.665022" y="291.519455" style="fill-opacity: 0.9; stroke: #000000; stroke-opacity: 0.9; stroke-width: 0.8"/>
     <use xlink:href="#md1c3cd27cc" x="423.636642" y="271.184727" style="fill-opacity: 0.9; stroke: #000000; stroke-opacity: 0.9; stroke-width: 0.8"/>
     <use xlink:href="#md1c3cd27cc" x="415.755748" y="281.352091" style="fill-opacity: 0.9; stroke: #000000; stroke-opacity: 0.9; stroke-width: 0.8"/>
     <use xlink:href="#md1c3cd27cc" x="421.861906" y="327.105227" style="fill-opacity: 0.9; stroke: #000000; stroke-opacity: 0.9; stroke-width: 0.8"/>
     <use xlink:href="#md1c3cd27cc" x="424.669525" y="357.607318" style="fill-opacity: 0.9; stroke: #000000; stroke-opacity: 0.9; stroke-width: 0.8"/>
     <use xlink:href="#md1c3cd27cc" x="426.1728" y="423.695182" style="fill-opacity: 0.9; stroke: #000000; stroke-opacity: 0.9; stroke-width: 0.8"/>
     <use xlink:href="#md1c3cd27cc" x="413.826826" y="357.607318" style="fill-opacity: 0.9; stroke: #000000; stroke-opacity: 0.9; stroke-width: 0.8"/>
     <use xlink:href="#md1c3cd27cc" x="416.306595" y="194.9295" style="fill-opacity: 0.9; stroke: #000000; stroke-opacity: 0.9; stroke-width: 0.8"/>
     <use xlink:href="#md1c3cd27cc" x="415.929311" y="398.276773" style="fill-opacity: 0.9; stroke: #000000; stroke-opacity: 0.9; stroke-width: 0.8"/>
     <use xlink:href="#md1c3cd27cc" x="420.737772" y="261.017364" style="fill-opacity: 0.9; stroke: #000000; stroke-opacity: 0.9; stroke-width: 0.8"/>
     <use xlink:href="#md1c3cd27cc" x="415.326801" y="413.527818" style="fill-opacity: 0.9; stroke: #000000; stroke-opacity: 0.9; stroke-width: 0.8"/>
     <use xlink:href="#md1c3cd27cc" x="422.067644" y="393.193091" style="fill-opacity: 0.9; stroke: #000000; stroke-opacity: 0.9; stroke-width: 0.8"/>
     <use xlink:href="#md1c3cd27cc" x="422.646627" y="367.774682" style="fill-opacity: 0.9; stroke: #000000; stroke-opacity: 0.9; stroke-width: 0.8"/>
     <use xlink:href="#md1c3cd27cc" x="413.596332" y="271.184727" style="fill-opacity: 0.9; stroke: #000000; stroke-opacity: 0.9; stroke-width: 0.8"/>
     <use xlink:href="#md1c3cd27cc" x="413.783496" y="332.188909" style="fill-opacity: 0.9; stroke: #000000; stroke-opacity: 0.9; stroke-width: 0.8"/>
     <use xlink:href="#md1c3cd27cc" x="421.571537" y="367.774682" style="fill-opacity: 0.9; stroke: #000000; stroke-opacity: 0.9; stroke-width: 0.8"/>
     <use xlink:href="#md1c3cd27cc" x="416.757683" y="388.109409" style="fill-opacity: 0.9; stroke: #000000; stroke-opacity: 0.9; stroke-width: 0.8"/>
     <use xlink:href="#md1c3cd27cc" x="419.497818" y="240.682636" style="fill-opacity: 0.9; stroke: #000000; stroke-opacity: 0.9; stroke-width: 0.8"/>
     <use xlink:href="#md1c3cd27cc" x="418.695137" y="306.7705" style="fill-opacity: 0.9; stroke: #000000; stroke-opacity: 0.9; stroke-width: 0.8"/>
     <use xlink:href="#md1c3cd27cc" x="414.640004" y="271.184727" style="fill-opacity: 0.9; stroke: #000000; stroke-opacity: 0.9; stroke-width: 0.8"/>
     <use xlink:href="#md1c3cd27cc" x="415.560189" y="388.109409" style="fill-opacity: 0.9; stroke: #000000; stroke-opacity: 0.9; stroke-width: 0.8"/>
    </g>
   </g>
   <g id="line2d_16">
    <path d="M 109.55015 261.017364 
L 131.92385 261.017364 
" clip-path="url(#p256f05d667)" style="fill: none; stroke: #000000"/>
   </g>
   <g id="line2d_17">
    <path d="M 258.70815 365.232841 
L 281.08185 365.232841 
" clip-path="url(#p256f05d667)" style="fill: none; stroke: #000000"/>
   </g>
   <g id="line2d_18">
    <path d="M 407.86615 329.647068 
L 430.23985 329.647068 
" clip-path="url(#p256f05d667)" style="fill: none; stroke: #000000"/>
   </g>
   <g id="patch_6">
    <path d="M 46.158 474.532 
L 46.158 27.168 
" style="fill: none; stroke: #262626; stroke-linejoin: miter; stroke-linecap: square"/>
   </g>
   <g id="patch_7">
    <path d="M 46.158 474.532 
L 493.632 474.532 
" style="fill: none; stroke: #262626; stroke-linejoin: miter; stroke-linecap: square"/>
   </g>
   <g id="text_14">
    <!-- MDS-UPDRS III Raincloud Plot -->
    <g style="fill: #262626" transform="translate(167.058437 21.168) scale(0.14 -0.14)">
     <defs>
      <path id="DejaVuSans-61" d="M 2194 1759 
Q 1497 1759 1228 1600 
Q 959 1441 959 1056 
Q 959 750 1161 570 
Q 1363 391 1709 391 
Q 2188 391 2477 730 
Q 2766 1069 2766 1631 
L 2766 1759 
L 2194 1759 
z
M 3341 1997 
L 3341 0 
L 2766 0 
L 2766 531 
Q 2569 213 2275 61 
Q 1981 -91 1556 -91 
Q 1019 -91 701 211 
Q 384 513 384 1019 
Q 384 1609 779 1909 
Q 1175 2209 1959 2209 
L 2766 2209 
L 2766 2266 
Q 2766 2663 2505 2880 
Q 2244 3097 1772 3097 
Q 1472 3097 1187 3025 
Q 903 2953 641 2809 
L 641 3341 
Q 956 3463 1253 3523 
Q 1550 3584 1831 3584 
Q 2591 3584 2966 3190 
Q 3341 2797 3341 1997 
z
" transform="scale(0.015625)"/>
      <path id="DejaVuSans-63" d="M 3122 3366 
L 3122 2828 
Q 2878 2963 2633 3030 
Q 2388 3097 2138 3097 
Q 1578 3097 1268 2742 
Q 959 2388 959 1747 
Q 959 1106 1268 751 
Q 1578 397 2138 397 
Q 2388 397 2633 464 
Q 2878 531 3122 666 
L 3122 134 
Q 2881 22 2623 -34 
Q 2366 -91 2075 -91 
Q 1284 -91 818 406 
Q 353 903 353 1747 
Q 353 2603 823 3093 
Q 1294 3584 2113 3584 
Q 2378 3584 2631 3529 
Q 2884 3475 3122 3366 
z
" transform="scale(0.015625)"/>
      <path id="DejaVuSans-6c" d="M 603 4863 
L 1178 4863 
L 1178 0 
L 603 0 
L 603 4863 
z
" transform="scale(0.015625)"/>
      <path id="DejaVuSans-75" d="M 544 1381 
L 544 3500 
L 1119 3500 
L 1119 1403 
Q 1119 906 1312 657 
Q 1506 409 1894 409 
Q 2359 409 2629 706 
Q 2900 1003 2900 1516 
L 2900 3500 
L 3475 3500 
L 3475 0 
L 2900 0 
L 2900 538 
Q 2691 219 2414 64 
Q 2138 -91 1772 -91 
Q 1169 -91 856 284 
Q 544 659 544 1381 
z
M 1991 3584 
L 1991 3584 
z
" transform="scale(0.015625)"/>
      <path id="DejaVuSans-64" d="M 2906 2969 
L 2906 4863 
L 3481 4863 
L 3481 0 
L 2906 0 
L 2906 525 
Q 2725 213 2448 61 
Q 2172 -91 1784 -91 
Q 1150 -91 751 415 
Q 353 922 353 1747 
Q 353 2572 751 3078 
Q 1150 3584 1784 3584 
Q 2172 3584 2448 3432 
Q 2725 3281 2906 2969 
z
M 947 1747 
Q 947 1113 1208 752 
Q 1469 391 1925 391 
Q 2381 391 2643 752 
Q 2906 1113 2906 1747 
Q 2906 2381 2643 2742 
Q 2381 3103 1925 3103 
Q 1469 3103 1208 2742 
Q 947 2381 947 1747 
z
" transform="scale(0.015625)"/>
     </defs>
     <use xlink:href="#DejaVuSans-4d"/>
     <use xlink:href="#DejaVuSans-44" transform="translate(86.279297 0)"/>
     <use xlink:href="#DejaVuSans-53" transform="translate(163.28125 0)"/>
     <use xlink:href="#DejaVuSans-2d" transform="translate(226.757812 0)"/>
     <use xlink:href="#DejaVuSans-55" transform="translate(262.841797 0)"/>
     <use xlink:href="#DejaVuSans-50" transform="translate(336.035156 0)"/>
     <use xlink:href="#DejaVuSans-44" transform="translate(396.337891 0)"/>
     <use xlink:href="#DejaVuSans-52" transform="translate(473.339844 0)"/>
     <use xlink:href="#DejaVuSans-53" transform="translate(542.822266 0)"/>
     <use xlink:href="#DejaVuSans-20" transform="translate(606.298828 0)"/>
     <use xlink:href="#DejaVuSans-49" transform="translate(638.085938 0)"/>
     <use xlink:href="#DejaVuSans-49" transform="translate(667.578125 0)"/>
     <use xlink:href="#DejaVuSans-49" transform="translate(697.070312 0)"/>
     <use xlink:href="#DejaVuSans-20" transform="translate(726.5625 0)"/>
     <use xlink:href="#DejaVuSans-52" transform="translate(758.349609 0)"/>
     <use xlink:href="#DejaVuSans-61" transform="translate(825.582031 0)"/>
     <use xlink:href="#DejaVuSans-69" transform="translate(886.861328 0)"/>
     <use xlink:href="#DejaVuSans-6e" transform="translate(914.644531 0)"/>
     <use xlink:href="#DejaVuSans-63" transform="translate(978.023438 0)"/>
     <use xlink:href="#DejaVuSans-6c" transform="translate(1033.003906 0)"/>
     <use xlink:href="#DejaVuSans-6f" transform="translate(1060.787109 0)"/>
     <use xlink:href="#DejaVuSans-75" transform="translate(1121.96875 0)"/>
     <use xlink:href="#DejaVuSans-64" transform="translate(1185.347656 0)"/>
     <use xlink:href="#DejaVuSans-20" transform="translate(1248.824219 0)"/>
     <use xlink:href="#DejaVuSans-50" transform="translate(1280.611328 0)"/>
     <use xlink:href="#DejaVuSans-6c" transform="translate(1340.914062 0)"/>
     <use xlink:href="#DejaVuSans-6f" transform="translate(1368.697266 0)"/>
     <use xlink:href="#DejaVuSans-74" transform="translate(1429.878906 0)"/>
    </g>
   </g>
  </g>
 </g>
 <defs>
  <clipPath id="p256f05d667">
   <rect x="46.158" y="27.168" width="447.474" height="447.364"/>
  </clipPath>
 </defs>
</svg>
