<?xml version="1.0" encoding="utf-8" standalone="no"?>
<!DOCTYPE svg PUBLIC "-//W3C//DTD SVG 1.1//EN"
  "http://www.w3.org/Graphics/SVG/1.1/DTD/svg11.dtd">
<svg xmlns:xlink="http://www.w3.org/1999/xlink" width="504pt" height="504pt" viewBox="0 0 504 504" xmlns="http://www.w3.org/2000/svg" version="1.1">
 <metadata>
  <rdf:RDF xmlns:dc="http://purl.org/dc/elements/1.1/" xmlns:cc="http://creativecommons.org/ns#" xmlns:rdf="http://www.w3.org/1999/02/22-rdf-syntax-ns#">
   <cc:Work>
    <dc:type rdf:resource="http://purl.org/dc/dcmitype/StillImage"/>
    <dc:date>2025-07-19T14:47:33.252823</dc:date>
    <dc:format>image/svg+xml</dc:format>
    <dc:creator>
     <cc:Agent>
      <dc:title>Matplotlib v3.10.0, https://matplotlib.org/</dc:title>
     </cc:Agent>
    </dc:creator>
   </cc:Work>
  </rdf:RDF>
 </metadata>
 <defs>
  <style type="text/css">*{stroke-linejoin: round; stroke-linecap: butt}</style>
 </defs>
 <g id="figure_1">
  <g id="patch_1">
   <path d="M 0 504 
L 504 504 
L 504 0 
L 0 0 
z
" style="fill: #ffffff"/>
  </g>
  <g id="axes_1">
   <g id="patch_2">
    <path d="M 43.908 475.252 
L 493.632 475.252 
L 493.632 26.448 
L 43.908 26.448 
z
" style="fill: #ffffff"/>
   </g>
   <g id="matplotlib.axis_1">
    <g id="xtick_1">
     <g id="text_1">
      <!-- Pre -->
      <g style="fill: #262626" transform="translate(147.780484 491.425594) scale(0.11 -0.11)">
       <defs>
        <path id="ArialMT-50" d="M 494 0 
L 494 4581 
L 2222 4581 
Q 2678 4581 2919 4538 
Q 3256 4481 3484 4323 
Q 3713 4166 3852 3881 
Q 3991 3597 3991 3256 
Q 3991 2672 3619 2267 
Q 3247 1863 2275 1863 
L 1100 1863 
L 1100 0 
L 494 0 
z
M 1100 2403 
L 2284 2403 
Q 2872 2403 3119 2622 
Q 3366 2841 3366 3238 
Q 3366 3525 3220 3729 
Q 3075 3934 2838 4000 
Q 2684 4041 2272 4041 
L 1100 4041 
L 1100 2403 
z
" transform="scale(0.015625)"/>
        <path id="ArialMT-72" d="M 416 0 
L 416 3319 
L 922 3319 
L 922 2816 
Q 1116 3169 1280 3281 
Q 1444 3394 1641 3394 
Q 1925 3394 2219 3213 
L 2025 2691 
Q 1819 2813 1613 2813 
Q 1428 2813 1281 2702 
Q 1134 2591 1072 2394 
Q 978 2094 978 1738 
L 978 0 
L 416 0 
z
" transform="scale(0.015625)"/>
        <path id="ArialMT-65" d="M 2694 1069 
L 3275 997 
Q 3138 488 2766 206 
Q 2394 -75 1816 -75 
Q 1088 -75 661 373 
Q 234 822 234 1631 
Q 234 2469 665 2931 
Q 1097 3394 1784 3394 
Q 2450 3394 2872 2941 
Q 3294 2488 3294 1666 
Q 3294 1616 3291 1516 
L 816 1516 
Q 847 969 1125 678 
Q 1403 388 1819 388 
Q 2128 388 2347 550 
Q 2566 713 2694 1069 
z
M 847 1978 
L 2700 1978 
Q 2663 2397 2488 2606 
Q 2219 2931 1791 2931 
Q 1403 2931 1139 2672 
Q 875 2413 847 1978 
z
" transform="scale(0.015625)"/>
       </defs>
       <use xlink:href="#ArialMT-50"/>
       <use xlink:href="#ArialMT-72" transform="translate(66.699219 0)"/>
       <use xlink:href="#ArialMT-65" transform="translate(100 0)"/>
      </g>
     </g>
    </g>
    <g id="xtick_2">
     <g id="text_2">
      <!-- Post -->
      <g style="fill: #262626" transform="translate(370.195844 491.425594) scale(0.11 -0.11)">
       <defs>
        <path id="ArialMT-6f" d="M 213 1659 
Q 213 2581 725 3025 
Q 1153 3394 1769 3394 
Q 2453 3394 2887 2945 
Q 3322 2497 3322 1706 
Q 3322 1066 3130 698 
Q 2938 331 2570 128 
Q 2203 -75 1769 -75 
Q 1072 -75 642 372 
Q 213 819 213 1659 
z
M 791 1659 
Q 791 1022 1069 705 
Q 1347 388 1769 388 
Q 2188 388 2466 706 
Q 2744 1025 2744 1678 
Q 2744 2294 2464 2611 
Q 2184 2928 1769 2928 
Q 1347 2928 1069 2612 
Q 791 2297 791 1659 
z
" transform="scale(0.015625)"/>
        <path id="ArialMT-73" d="M 197 991 
L 753 1078 
Q 800 744 1014 566 
Q 1228 388 1613 388 
Q 2000 388 2187 545 
Q 2375 703 2375 916 
Q 2375 1106 2209 1216 
Q 2094 1291 1634 1406 
Q 1016 1563 777 1677 
Q 538 1791 414 1992 
Q 291 2194 291 2438 
Q 291 2659 392 2848 
Q 494 3038 669 3163 
Q 800 3259 1026 3326 
Q 1253 3394 1513 3394 
Q 1903 3394 2198 3281 
Q 2494 3169 2634 2976 
Q 2775 2784 2828 2463 
L 2278 2388 
Q 2241 2644 2061 2787 
Q 1881 2931 1553 2931 
Q 1166 2931 1000 2803 
Q 834 2675 834 2503 
Q 834 2394 903 2306 
Q 972 2216 1119 2156 
Q 1203 2125 1616 2013 
Q 2213 1853 2448 1751 
Q 2684 1650 2818 1456 
Q 2953 1263 2953 975 
Q 2953 694 2789 445 
Q 2625 197 2315 61 
Q 2006 -75 1616 -75 
Q 969 -75 630 194 
Q 291 463 197 991 
z
" transform="scale(0.015625)"/>
        <path id="ArialMT-74" d="M 1650 503 
L 1731 6 
Q 1494 -44 1306 -44 
Q 1000 -44 831 53 
Q 663 150 594 308 
Q 525 466 525 972 
L 525 2881 
L 113 2881 
L 113 3319 
L 525 3319 
L 525 4141 
L 1084 4478 
L 1084 3319 
L 1650 3319 
L 1650 2881 
L 1084 2881 
L 1084 941 
Q 1084 700 1114 631 
Q 1144 563 1211 522 
Q 1278 481 1403 481 
Q 1497 481 1650 503 
z
" transform="scale(0.015625)"/>
       </defs>
       <use xlink:href="#ArialMT-50"/>
       <use xlink:href="#ArialMT-6f" transform="translate(66.699219 0)"/>
       <use xlink:href="#ArialMT-73" transform="translate(122.314453 0)"/>
       <use xlink:href="#ArialMT-74" transform="translate(172.314453 0)"/>
      </g>
     </g>
    </g>
   </g>
   <g id="matplotlib.axis_2">
    <g id="ytick_1">
     <g id="text_3">
      <!-- 18 -->
      <g style="fill: #262626" transform="translate(24.486125 475.399671) scale(0.1 -0.1)">
       <defs>
        <path id="ArialMT-31" d="M 2384 0 
L 1822 0 
L 1822 3584 
Q 1619 3391 1289 3197 
Q 959 3003 697 2906 
L 697 3450 
Q 1169 3672 1522 3987 
Q 1875 4303 2022 4600 
L 2384 4600 
L 2384 0 
z
" transform="scale(0.015625)"/>
        <path id="ArialMT-38" d="M 1131 2484 
Q 781 2613 612 2850 
Q 444 3088 444 3419 
Q 444 3919 803 4259 
Q 1163 4600 1759 4600 
Q 2359 4600 2725 4251 
Q 3091 3903 3091 3403 
Q 3091 3084 2923 2848 
Q 2756 2613 2416 2484 
Q 2838 2347 3058 2040 
Q 3278 1734 3278 1309 
Q 3278 722 2862 322 
Q 2447 -78 1769 -78 
Q 1091 -78 675 323 
Q 259 725 259 1325 
Q 259 1772 486 2073 
Q 713 2375 1131 2484 
z
M 1019 3438 
Q 1019 3113 1228 2906 
Q 1438 2700 1772 2700 
Q 2097 2700 2305 2904 
Q 2513 3109 2513 3406 
Q 2513 3716 2298 3927 
Q 2084 4138 1766 4138 
Q 1444 4138 1231 3931 
Q 1019 3725 1019 3438 
z
M 838 1322 
Q 838 1081 952 856 
Q 1066 631 1291 507 
Q 1516 384 1775 384 
Q 2178 384 2440 643 
Q 2703 903 2703 1303 
Q 2703 1709 2433 1975 
Q 2163 2241 1756 2241 
Q 1359 2241 1098 1978 
Q 838 1716 838 1322 
z
" transform="scale(0.015625)"/>
       </defs>
       <use xlink:href="#ArialMT-31"/>
       <use xlink:href="#ArialMT-38" transform="translate(55.615234 0)"/>
      </g>
     </g>
    </g>
    <g id="ytick_2">
     <g id="text_4">
      <!-- 20 -->
      <g style="fill: #262626" transform="translate(24.486125 420.182194) scale(0.1 -0.1)">
       <defs>
        <path id="ArialMT-32" d="M 3222 541 
L 3222 0 
L 194 0 
Q 188 203 259 391 
Q 375 700 629 1000 
Q 884 1300 1366 1694 
Q 2113 2306 2375 2664 
Q 2638 3022 2638 3341 
Q 2638 3675 2398 3904 
Q 2159 4134 1775 4134 
Q 1369 4134 1125 3890 
Q 881 3647 878 3216 
L 300 3275 
Q 359 3922 746 4261 
Q 1134 4600 1788 4600 
Q 2447 4600 2831 4234 
Q 3216 3869 3216 3328 
Q 3216 3053 3103 2787 
Q 2991 2522 2730 2228 
Q 2469 1934 1863 1422 
Q 1356 997 1212 845 
Q 1069 694 975 541 
L 3222 541 
z
" transform="scale(0.015625)"/>
        <path id="ArialMT-30" d="M 266 2259 
Q 266 3072 433 3567 
Q 600 4063 929 4331 
Q 1259 4600 1759 4600 
Q 2128 4600 2406 4451 
Q 2684 4303 2865 4023 
Q 3047 3744 3150 3342 
Q 3253 2941 3253 2259 
Q 3253 1453 3087 958 
Q 2922 463 2592 192 
Q 2263 -78 1759 -78 
Q 1097 -78 719 397 
Q 266 969 266 2259 
z
M 844 2259 
Q 844 1131 1108 757 
Q 1372 384 1759 384 
Q 2147 384 2411 759 
Q 2675 1134 2675 2259 
Q 2675 3391 2411 3762 
Q 2147 4134 1753 4134 
Q 1366 4134 1134 3806 
Q 844 3388 844 2259 
z
" transform="scale(0.015625)"/>
       </defs>
       <use xlink:href="#ArialMT-32"/>
       <use xlink:href="#ArialMT-30" transform="translate(55.615234 0)"/>
      </g>
     </g>
    </g>
    <g id="ytick_3">
     <g id="text_5">
      <!-- 22 -->
      <g style="fill: #262626" transform="translate(24.486125 364.964718) scale(0.1 -0.1)">
       <use xlink:href="#ArialMT-32"/>
       <use xlink:href="#ArialMT-32" transform="translate(55.615234 0)"/>
      </g>
     </g>
    </g>
    <g id="ytick_4">
     <g id="text_6">
      <!-- 24 -->
      <g style="fill: #262626" transform="translate(24.486125 309.747242) scale(0.1 -0.1)">
       <defs>
        <path id="ArialMT-34" d="M 2069 0 
L 2069 1097 
L 81 1097 
L 81 1613 
L 2172 4581 
L 2631 4581 
L 2631 1613 
L 3250 1613 
L 3250 1097 
L 2631 1097 
L 2631 0 
L 2069 0 
z
M 2069 1613 
L 2069 3678 
L 634 1613 
L 2069 1613 
z
" transform="scale(0.015625)"/>
       </defs>
       <use xlink:href="#ArialMT-32"/>
       <use xlink:href="#ArialMT-34" transform="translate(55.615234 0)"/>
      </g>
     </g>
    </g>
    <g id="ytick_5">
     <g id="text_7">
      <!-- 26 -->
      <g style="fill: #262626" transform="translate(24.486125 254.529765) scale(0.1 -0.1)">
       <defs>
        <path id="ArialMT-36" d="M 3184 3459 
L 2625 3416 
Q 2550 3747 2413 3897 
Q 2184 4138 1850 4138 
Q 1581 4138 1378 3988 
Q 1113 3794 959 3422 
Q 806 3050 800 2363 
Q 1003 2672 1297 2822 
Q 1591 2972 1913 2972 
Q 2475 2972 2870 2558 
Q 3266 2144 3266 1488 
Q 3266 1056 3080 686 
Q 2894 316 2569 119 
Q 2244 -78 1831 -78 
Q 1128 -78 684 439 
Q 241 956 241 2144 
Q 241 3472 731 4075 
Q 1159 4600 1884 4600 
Q 2425 4600 2770 4297 
Q 3116 3994 3184 3459 
z
M 888 1484 
Q 888 1194 1011 928 
Q 1134 663 1356 523 
Q 1578 384 1822 384 
Q 2178 384 2434 671 
Q 2691 959 2691 1453 
Q 2691 1928 2437 2201 
Q 2184 2475 1800 2475 
Q 1419 2475 1153 2201 
Q 888 1928 888 1484 
z
" transform="scale(0.015625)"/>
       </defs>
       <use xlink:href="#ArialMT-32"/>
       <use xlink:href="#ArialMT-36" transform="translate(55.615234 0)"/>
      </g>
     </g>
    </g>
    <g id="ytick_6">
     <g id="text_8">
      <!-- 28 -->
      <g style="fill: #262626" transform="translate(24.486125 199.312289) scale(0.1 -0.1)">
       <use xlink:href="#ArialMT-32"/>
       <use xlink:href="#ArialMT-38" transform="translate(55.615234 0)"/>
      </g>
     </g>
    </g>
    <g id="ytick_7">
     <g id="text_9">
      <!-- 30 -->
      <g style="fill: #262626" transform="translate(24.486125 144.094812) scale(0.1 -0.1)">
       <defs>
        <path id="ArialMT-33" d="M 269 1209 
L 831 1284 
Q 928 806 1161 595 
Q 1394 384 1728 384 
Q 2125 384 2398 659 
Q 2672 934 2672 1341 
Q 2672 1728 2419 1979 
Q 2166 2231 1775 2231 
Q 1616 2231 1378 2169 
L 1441 2663 
Q 1497 2656 1531 2656 
Q 1891 2656 2178 2843 
Q 2466 3031 2466 3422 
Q 2466 3731 2256 3934 
Q 2047 4138 1716 4138 
Q 1388 4138 1169 3931 
Q 950 3725 888 3313 
L 325 3413 
Q 428 3978 793 4289 
Q 1159 4600 1703 4600 
Q 2078 4600 2393 4439 
Q 2709 4278 2876 4000 
Q 3044 3722 3044 3409 
Q 3044 3113 2884 2869 
Q 2725 2625 2413 2481 
Q 2819 2388 3044 2092 
Q 3269 1797 3269 1353 
Q 3269 753 2831 336 
Q 2394 -81 1725 -81 
Q 1122 -81 723 278 
Q 325 638 269 1209 
z
" transform="scale(0.015625)"/>
       </defs>
       <use xlink:href="#ArialMT-33"/>
       <use xlink:href="#ArialMT-30" transform="translate(55.615234 0)"/>
      </g>
     </g>
    </g>
    <g id="ytick_8">
     <g id="text_10">
      <!-- 32 -->
      <g style="fill: #262626" transform="translate(24.486125 88.877336) scale(0.1 -0.1)">
       <use xlink:href="#ArialMT-33"/>
       <use xlink:href="#ArialMT-32" transform="translate(55.615234 0)"/>
      </g>
     </g>
    </g>
    <g id="ytick_9">
     <g id="text_11">
      <!-- 34 -->
      <g style="fill: #262626" transform="translate(24.486125 33.659859) scale(0.1 -0.1)">
       <use xlink:href="#ArialMT-33"/>
       <use xlink:href="#ArialMT-34" transform="translate(55.615234 0)"/>
      </g>
     </g>
    </g>
    <g id="text_12">
     <!-- MoCA -->
     <g style="fill: #262626" transform="translate(18.299875 266.130547) rotate(-90) scale(0.11 -0.11)">
      <defs>
       <path id="ArialMT-4d" d="M 475 0 
L 475 4581 
L 1388 4581 
L 2472 1338 
Q 2622 884 2691 659 
Q 2769 909 2934 1394 
L 4031 4581 
L 4847 4581 
L 4847 0 
L 4263 0 
L 4263 3834 
L 2931 0 
L 2384 0 
L 1059 3900 
L 1059 0 
L 475 0 
z
" transform="scale(0.015625)"/>
       <path id="ArialMT-43" d="M 3763 1606 
L 4369 1453 
Q 4178 706 3683 314 
Q 3188 -78 2472 -78 
Q 1731 -78 1267 223 
Q 803 525 561 1097 
Q 319 1669 319 2325 
Q 319 3041 592 3573 
Q 866 4106 1370 4382 
Q 1875 4659 2481 4659 
Q 3169 4659 3637 4309 
Q 4106 3959 4291 3325 
L 3694 3184 
Q 3534 3684 3231 3912 
Q 2928 4141 2469 4141 
Q 1941 4141 1586 3887 
Q 1231 3634 1087 3207 
Q 944 2781 944 2328 
Q 944 1744 1114 1308 
Q 1284 872 1643 656 
Q 2003 441 2422 441 
Q 2931 441 3284 734 
Q 3638 1028 3763 1606 
z
" transform="scale(0.015625)"/>
       <path id="ArialMT-41" d="M -9 0 
L 1750 4581 
L 2403 4581 
L 4278 0 
L 3588 0 
L 3053 1388 
L 1138 1388 
L 634 0 
L -9 0 
z
M 1313 1881 
L 2866 1881 
L 2388 3150 
Q 2169 3728 2063 4100 
Q 1975 3659 1816 3225 
L 1313 1881 
z
" transform="scale(0.015625)"/>
      </defs>
      <use xlink:href="#ArialMT-4d"/>
      <use xlink:href="#ArialMT-6f" transform="translate(83.300781 0)"/>
      <use xlink:href="#ArialMT-43" transform="translate(138.916016 0)"/>
      <use xlink:href="#ArialMT-41" transform="translate(211.132812 0)"/>
     </g>
    </g>
   </g>
   <g id="FillBetweenPolyCollection_1">
    <defs>
     <path id="m28109abb82" d="M 139.676908 -115.00545 
L 136.211605 -115.00545 
L 136.073689 -117.515335 
L 135.932996 -120.025221 
L 135.783991 -122.535106 
L 135.620482 -125.044991 
L 135.435959 -127.554877 
L 135.224001 -130.064762 
L 134.978701 -132.574647 
L 134.695103 -135.084532 
L 134.369601 -137.594418 
L 134.00027 -140.104303 
L 133.587115 -142.614188 
L 133.132197 -145.124074 
L 132.639626 -147.633959 
L 132.115431 -150.143844 
L 131.567279 -152.653729 
L 131.004091 -155.163615 
L 130.435566 -157.6735 
L 129.871634 -160.183385 
L 129.321898 -162.693271 
L 128.795087 -165.203156 
L 128.298557 -167.713041 
L 127.837888 -170.222926 
L 127.416578 -172.732812 
L 127.035876 -175.242697 
L 126.694735 -177.752582 
L 126.389906 -180.262468 
L 126.116132 -182.772353 
L 125.866448 -185.282238 
L 125.632544 -187.792124 
L 125.405168 -190.302009 
L 125.174548 -192.811894 
L 124.9308 -195.321779 
L 124.664301 -197.831665 
L 124.36603 -200.34155 
L 124.027834 -202.851435 
L 123.642658 -205.361321 
L 123.204699 -207.871206 
L 122.709519 -210.381091 
L 122.154104 -212.890976 
L 121.536885 -215.400862 
L 120.857721 -217.910747 
L 120.117853 -220.420632 
L 119.319827 -222.930518 
L 118.467385 -225.440403 
L 117.565325 -227.950288 
L 116.619331 -230.460173 
L 115.635773 -232.970059 
L 114.62147 -235.479944 
L 113.583432 -237.989829 
L 112.52859 -240.499715 
L 111.463516 -243.0096 
L 110.394159 -245.519485 
L 109.325605 -248.029371 
L 108.261892 -250.539256 
L 107.205868 -253.049141 
L 106.159137 -255.559026 
L 105.122078 -258.068912 
L 104.093934 -260.578797 
L 103.072994 -263.088682 
L 102.056829 -265.598568 
L 101.042576 -268.108453 
L 100.027268 -270.618338 
L 99.008166 -273.128223 
L 97.983089 -275.638109 
L 96.950718 -278.147994 
L 95.910859 -280.657879 
L 94.864645 -283.167765 
L 93.814682 -285.67765 
L 92.76512 -288.187535 
L 91.721654 -290.69742 
L 90.691466 -293.207306 
L 89.683108 -295.717191 
L 88.706336 -298.227076 
L 87.771918 -300.736962 
L 86.891411 -303.246847 
L 86.076942 -305.756732 
L 85.340975 -308.266618 
L 84.696087 -310.776503 
L 84.154751 -313.286388 
L 83.729124 -315.796273 
L 83.430833 -318.306159 
L 83.270764 -320.816044 
L 83.25885 -323.325929 
L 83.403852 -325.835815 
L 83.713143 -328.3457 
L 84.192504 -330.855585 
L 84.84593 -333.36547 
L 85.675466 -335.875356 
L 86.681076 -338.385241 
L 87.860561 -340.895126 
L 89.209511 -343.405012 
L 90.721312 -345.914897 
L 92.38719 -348.424782 
L 94.196293 -350.934667 
L 96.135799 -353.444553 
L 98.191051 -355.954438 
L 100.345713 -358.464323 
L 102.581948 -360.974209 
L 104.880631 -363.484094 
L 139.676908 -363.484094 
L 139.676908 -363.484094 
L 139.676908 -360.974209 
L 139.676908 -358.464323 
L 139.676908 -355.954438 
L 139.676908 -353.444553 
L 139.676908 -350.934667 
L 139.676908 -348.424782 
L 139.676908 -345.914897 
L 139.676908 -343.405012 
L 139.676908 -340.895126 
L 139.676908 -338.385241 
L 139.676908 -335.875356 
L 139.676908 -333.36547 
L 139.676908 -330.855585 
L 139.676908 -328.3457 
L 139.676908 -325.835815 
L 139.676908 -323.325929 
L 139.676908 -320.816044 
L 139.676908 -318.306159 
L 139.676908 -315.796273 
L 139.676908 -313.286388 
L 139.676908 -310.776503 
L 139.676908 -308.266618 
L 139.676908 -305.756732 
L 139.676908 -303.246847 
L 139.676908 -300.736962 
L 139.676908 -298.227076 
L 139.676908 -295.717191 
L 139.676908 -293.207306 
L 139.676908 -290.69742 
L 139.676908 -288.187535 
L 139.676908 -285.67765 
L 139.676908 -283.167765 
L 139.676908 -280.657879 
L 139.676908 -278.147994 
L 139.676908 -275.638109 
L 139.676908 -273.128223 
L 139.676908 -270.618338 
L 139.676908 -268.108453 
L 139.676908 -265.598568 
L 139.676908 -263.088682 
L 139.676908 -260.578797 
L 139.676908 -258.068912 
L 139.676908 -255.559026 
L 139.676908 -253.049141 
L 139.676908 -250.539256 
L 139.676908 -248.029371 
L 139.676908 -245.519485 
L 139.676908 -243.0096 
L 139.676908 -240.499715 
L 139.676908 -237.989829 
L 139.676908 -235.479944 
L 139.676908 -232.970059 
L 139.676908 -230.460173 
L 139.676908 -227.950288 
L 139.676908 -225.440403 
L 139.676908 -222.930518 
L 139.676908 -220.420632 
L 139.676908 -217.910747 
L 139.676908 -215.400862 
L 139.676908 -212.890976 
L 139.676908 -210.381091 
L 139.676908 -207.871206 
L 139.676908 -205.361321 
L 139.676908 -202.851435 
L 139.676908 -200.34155 
L 139.676908 -197.831665 
L 139.676908 -195.321779 
L 139.676908 -192.811894 
L 139.676908 -190.302009 
L 139.676908 -187.792124 
L 139.676908 -185.282238 
L 139.676908 -182.772353 
L 139.676908 -180.262468 
L 139.676908 -177.752582 
L 139.676908 -175.242697 
L 139.676908 -172.732812 
L 139.676908 -170.222926 
L 139.676908 -167.713041 
L 139.676908 -165.203156 
L 139.676908 -162.693271 
L 139.676908 -160.183385 
L 139.676908 -157.6735 
L 139.676908 -155.163615 
L 139.676908 -152.653729 
L 139.676908 -150.143844 
L 139.676908 -147.633959 
L 139.676908 -145.124074 
L 139.676908 -142.614188 
L 139.676908 -140.104303 
L 139.676908 -137.594418 
L 139.676908 -135.084532 
L 139.676908 -132.574647 
L 139.676908 -130.064762 
L 139.676908 -127.554877 
L 139.676908 -125.044991 
L 139.676908 -122.535106 
L 139.676908 -120.025221 
L 139.676908 -117.515335 
L 139.676908 -115.00545 
z
"/>
    </defs>
    <g clip-path="url(#p0bccd0521f)">
     <use xlink:href="#m28109abb82" x="0" y="504" style="fill: #5875a4"/>
    </g>
   </g>
   <g id="FillBetweenPolyCollection_2">
    <defs>
     <path id="m0b8307a1f5" d="M 405.387535 -56.140823 
L 398.232883 -56.140823 
L 398.232883 -60.12106 
L 398.232883 -64.101296 
L 398.232883 -68.081533 
L 398.232883 -72.061769 
L 398.232883 -76.042005 
L 398.232883 -80.022242 
L 398.232883 -84.002478 
L 398.232883 -87.982714 
L 398.232883 -91.962951 
L 398.232883 -95.943187 
L 398.232883 -99.923424 
L 398.232883 -103.90366 
L 398.232883 -107.883896 
L 398.232883 -111.864133 
L 398.232883 -115.844369 
L 398.232883 -119.824605 
L 398.232883 -123.804842 
L 398.232883 -127.785078 
L 398.232883 -131.765315 
L 398.232883 -135.745551 
L 398.232883 -139.725787 
L 398.232883 -143.706024 
L 398.232883 -147.68626 
L 398.232883 -151.666496 
L 398.232883 -155.646733 
L 398.232883 -159.626969 
L 398.232883 -163.607206 
L 398.232883 -167.587442 
L 398.232883 -171.567678 
L 398.232883 -175.547915 
L 398.232883 -179.528151 
L 398.232883 -183.508387 
L 398.232883 -187.488624 
L 398.232883 -191.46886 
L 398.232883 -195.449097 
L 398.232883 -199.429333 
L 398.232883 -203.409569 
L 398.232883 -207.389806 
L 398.232883 -211.370042 
L 398.232883 -215.350278 
L 398.232883 -219.330515 
L 398.232883 -223.310751 
L 398.232883 -227.290988 
L 398.232883 -231.271224 
L 398.232883 -235.25146 
L 398.232883 -239.231697 
L 398.232883 -243.211933 
L 398.232883 -247.192169 
L 398.232883 -251.172406 
L 398.232883 -255.152642 
L 398.232883 -259.132879 
L 398.232883 -263.113115 
L 398.232883 -267.093351 
L 398.232883 -271.073588 
L 398.232883 -275.053824 
L 398.232883 -279.03406 
L 398.232883 -283.014297 
L 398.232883 -286.994533 
L 398.232883 -290.97477 
L 398.232883 -294.955006 
L 398.232883 -298.935242 
L 398.232883 -302.915479 
L 398.232883 -306.895715 
L 398.232883 -310.875951 
L 398.232883 -314.856188 
L 398.232883 -318.836424 
L 398.232883 -322.816661 
L 398.232883 -326.796897 
L 398.232883 -330.777133 
L 398.232883 -334.75737 
L 398.232883 -338.737606 
L 398.232883 -342.717842 
L 398.232883 -346.698079 
L 398.232883 -350.678315 
L 398.232883 -354.658552 
L 398.232883 -358.638788 
L 398.232883 -362.619024 
L 398.232883 -366.599261 
L 398.232883 -370.579497 
L 398.232883 -374.559733 
L 398.232883 -378.53997 
L 398.232883 -382.520206 
L 398.232883 -386.500443 
L 398.232883 -390.480679 
L 398.232883 -394.460915 
L 398.232883 -398.441152 
L 398.232883 -402.421388 
L 398.232883 -406.401624 
L 398.232883 -410.381861 
L 398.232883 -414.362097 
L 398.232883 -418.342334 
L 398.232883 -422.32257 
L 398.232883 -426.302806 
L 398.232883 -430.283043 
L 398.232883 -434.263279 
L 398.232883 -438.243515 
L 398.232883 -442.223752 
L 398.232883 -446.203988 
L 398.232883 -450.184225 
L 417.370116 -450.184225 
L 417.370116 -450.184225 
L 419.450586 -446.203988 
L 421.621423 -442.223752 
L 423.868041 -438.243515 
L 426.173561 -434.263279 
L 428.519013 -430.283043 
L 430.883623 -426.302806 
L 433.245161 -422.32257 
L 435.580363 -418.342334 
L 437.865403 -414.362097 
L 440.076401 -410.381861 
L 442.189964 -406.401624 
L 444.183729 -402.421388 
L 446.036895 -398.441152 
L 447.730733 -394.460915 
L 449.249046 -390.480679 
L 450.578565 -386.500443 
L 451.709282 -382.520206 
L 452.63469 -378.53997 
L 453.351932 -374.559733 
L 453.861849 -370.579497 
L 454.16893 -366.599261 
L 454.28115 -362.619024 
L 454.209715 -358.638788 
L 453.968705 -354.658552 
L 453.574628 -350.678315 
L 453.045898 -346.698079 
L 452.402254 -342.717842 
L 451.664124 -338.737606 
L 450.851984 -334.75737 
L 449.985698 -330.777133 
L 449.083907 -326.796897 
L 448.163455 -322.816661 
L 447.238912 -318.836424 
L 446.32219 -314.856188 
L 445.422294 -310.875951 
L 444.545208 -306.895715 
L 443.693934 -302.915479 
L 442.86867 -298.935242 
L 442.067137 -294.955006 
L 441.285016 -290.97477 
L 440.516485 -286.994533 
L 439.754814 -283.014297 
L 438.992993 -279.03406 
L 438.224334 -275.053824 
L 437.443033 -271.073588 
L 436.644641 -267.093351 
L 435.82642 -263.113115 
L 434.987567 -259.132879 
L 434.129289 -255.152642 
L 433.254739 -251.172406 
L 432.368815 -247.192169 
L 431.47784 -243.211933 
L 430.589162 -239.231697 
L 429.710693 -235.25146 
L 428.850426 -231.271224 
L 428.015964 -227.290988 
L 427.214099 -223.310751 
L 426.450447 -219.330515 
L 425.729179 -215.350278 
L 425.052848 -211.370042 
L 424.422314 -207.389806 
L 423.836773 -203.409569 
L 423.293866 -199.429333 
L 422.789875 -195.449097 
L 422.319959 -191.46886 
L 421.878446 -187.488624 
L 421.45913 -183.508387 
L 421.055581 -179.528151 
L 420.661437 -175.547915 
L 420.27067 -171.567678 
L 419.877812 -167.587442 
L 419.478145 -163.607206 
L 419.067829 -159.626969 
L 418.643984 -155.646733 
L 418.204719 -151.666496 
L 417.749104 -147.68626 
L 417.277099 -143.706024 
L 416.789443 -139.725787 
L 416.287509 -135.745551 
L 415.773134 -131.765315 
L 415.248442 -127.785078 
L 414.715667 -123.804842 
L 414.17698 -119.824605 
L 413.634346 -115.844369 
L 413.08941 -111.864133 
L 412.543416 -107.883896 
L 411.997173 -103.90366 
L 411.451063 -99.923424 
L 410.90508 -95.943187 
L 410.358918 -91.962951 
L 409.812075 -87.982714 
L 409.263983 -84.002478 
L 408.714137 -80.022242 
L 408.162233 -76.042005 
L 407.608277 -72.061769 
L 407.052686 -68.081533 
L 406.496352 -64.101296 
L 405.94067 -60.12106 
L 405.387535 -56.140823 
z
"/>
    </defs>
    <g clip-path="url(#p0bccd0521f)">
     <use xlink:href="#m0b8307a1f5" x="0" y="504" style="fill: #cc8963"/>
    </g>
   </g>
   <g id="patch_3">
    <path d="M 139.47435 250.950859 
L 173.20365 250.950859 
L 173.20365 168.124644 
L 139.47435 168.124644 
L 139.47435 250.950859 
z
" clip-path="url(#p0bccd0521f)" style="fill: #5875a4; stroke: #4c4c4c; stroke-linejoin: miter"/>
   </g>
   <g id="line2d_1">
    <path d="M 156.339 250.950859 
L 156.339 333.777074 
" clip-path="url(#p0bccd0521f)" style="fill: none; stroke: #000000"/>
   </g>
   <g id="line2d_2">
    <path d="M 156.339 168.124644 
L 156.339 140.515906 
" clip-path="url(#p0bccd0521f)" style="fill: none; stroke: #000000"/>
   </g>
   <g id="line2d_3">
    <path d="M 147.906675 333.777074 
L 164.771325 333.777074 
" clip-path="url(#p0bccd0521f)" style="fill: none; stroke: #4c4c4c; stroke-linecap: round"/>
   </g>
   <g id="line2d_4">
    <path d="M 147.906675 140.515906 
L 164.771325 140.515906 
" clip-path="url(#p0bccd0521f)" style="fill: none; stroke: #4c4c4c; stroke-linecap: round"/>
   </g>
   <g id="line2d_5"/>
   <g id="patch_4">
    <path d="M 364.33635 260.994695 
L 398.06565 260.994695 
L 398.06565 132.456271 
L 364.33635 132.456271 
L 364.33635 260.994695 
z
" clip-path="url(#p0bccd0521f)" style="fill: #cc8963; stroke: #4c4c4c; stroke-linejoin: miter"/>
   </g>
   <g id="line2d_6">
    <path d="M 381.201 260.994695 
L 381.201 447.859177 
" clip-path="url(#p0bccd0521f)" style="fill: none; stroke: #000000"/>
   </g>
   <g id="line2d_7">
    <path d="M 381.201 132.456271 
L 381.201 53.815775 
" clip-path="url(#p0bccd0521f)" style="fill: none; stroke: #000000"/>
   </g>
   <g id="line2d_8">
    <path d="M 372.768675 447.859177 
L 389.633325 447.859177 
" clip-path="url(#p0bccd0521f)" style="fill: none; stroke: #4c4c4c; stroke-linecap: round"/>
   </g>
   <g id="line2d_9">
    <path d="M 372.768675 53.815775 
L 389.633325 53.815775 
" clip-path="url(#p0bccd0521f)" style="fill: none; stroke: #4c4c4c; stroke-linecap: round"/>
   </g>
   <g id="line2d_10"/>
   <g id="PathCollection_1">
    <defs>
     <path id="mf0605f8a09" d="M 0 1.581139 
C 0.419323 1.581139 0.821528 1.41454 1.118034 1.118034 
C 1.41454 0.821528 1.581139 0.419323 1.581139 0 
C 1.581139 -0.419323 1.41454 -0.821528 1.118034 -1.118034 
C 0.821528 -1.41454 0.419323 -1.581139 0 -1.581139 
C -0.419323 -1.581139 -0.821528 -1.41454 -1.118034 -1.118034 
C -1.41454 -0.821528 -1.581139 -0.419323 -1.581139 0 
C -1.581139 0.419323 -1.41454 0.821528 -1.118034 1.118034 
C -0.821528 1.41454 -0.419323 1.581139 0 1.581139 
z
" style="stroke: #000000; stroke-opacity: 0.9; stroke-width: 0.8"/>
    </defs>
    <g clip-path="url(#p0bccd0521f)">
     <use xlink:href="#mf0605f8a09" x="147.521968" y="198.504414" style="fill-opacity: 0.9; stroke: #000000; stroke-opacity: 0.9; stroke-width: 0.8"/>
     <use xlink:href="#mf0605f8a09" x="145.802623" y="185.77846" style="fill-opacity: 0.9; stroke: #000000; stroke-opacity: 0.9; stroke-width: 0.8"/>
     <use xlink:href="#mf0605f8a09" x="159.406352" y="245.826811" style="fill-opacity: 0.9; stroke: #000000; stroke-opacity: 0.9; stroke-width: 0.8"/>
     <use xlink:href="#mf0605f8a09" x="152.164571" y="221.163052" style="fill-opacity: 0.9; stroke: #000000; stroke-opacity: 0.9; stroke-width: 0.8"/>
     <use xlink:href="#mf0605f8a09" x="156.531722" y="230.939634" style="fill-opacity: 0.9; stroke: #000000; stroke-opacity: 0.9; stroke-width: 0.8"/>
     <use xlink:href="#mf0605f8a09" x="165.503621" y="203.331428" style="fill-opacity: 0.9; stroke: #000000; stroke-opacity: 0.9; stroke-width: 0.8"/>
     <use xlink:href="#mf0605f8a09" x="150.701535" y="343.537677" style="fill-opacity: 0.9; stroke: #000000; stroke-opacity: 0.9; stroke-width: 0.8"/>
     <use xlink:href="#mf0605f8a09" x="154.323852" y="242.86313" style="fill-opacity: 0.9; stroke: #000000; stroke-opacity: 0.9; stroke-width: 0.8"/>
     <use xlink:href="#mf0605f8a09" x="162.085374" y="303.935009" style="fill-opacity: 0.9; stroke: #000000; stroke-opacity: 0.9; stroke-width: 0.8"/>
     <use xlink:href="#mf0605f8a09" x="150.240701" y="163.528947" style="fill-opacity: 0.9; stroke: #000000; stroke-opacity: 0.9; stroke-width: 0.8"/>
     <use xlink:href="#mf0605f8a09" x="146.826886" y="399.583396" style="fill-opacity: 0.9; stroke: #000000; stroke-opacity: 0.9; stroke-width: 0.8"/>
     <use xlink:href="#mf0605f8a09" x="151.611309" y="240.571964" style="fill-opacity: 0.9; stroke: #000000; stroke-opacity: 0.9; stroke-width: 0.8"/>
     <use xlink:href="#mf0605f8a09" x="148.721154" y="160.781987" style="fill-opacity: 0.9; stroke: #000000; stroke-opacity: 0.9; stroke-width: 0.8"/>
     <use xlink:href="#mf0605f8a09" x="166.001267" y="312.521899" style="fill-opacity: 0.9; stroke: #000000; stroke-opacity: 0.9; stroke-width: 0.8"/>
     <use xlink:href="#mf0605f8a09" x="163.267456" y="202.760911" style="fill-opacity: 0.9; stroke: #000000; stroke-opacity: 0.9; stroke-width: 0.8"/>
     <use xlink:href="#mf0605f8a09" x="159.338744" y="257.943501" style="fill-opacity: 0.9; stroke: #000000; stroke-opacity: 0.9; stroke-width: 0.8"/>
     <use xlink:href="#mf0605f8a09" x="164.691737" y="172.448344" style="fill-opacity: 0.9; stroke: #000000; stroke-opacity: 0.9; stroke-width: 0.8"/>
     <use xlink:href="#mf0605f8a09" x="163.167431" y="222.795326" style="fill-opacity: 0.9; stroke: #000000; stroke-opacity: 0.9; stroke-width: 0.8"/>
     <use xlink:href="#mf0605f8a09" x="149.291152" y="280.062727" style="fill-opacity: 0.9; stroke: #000000; stroke-opacity: 0.9; stroke-width: 0.8"/>
     <use xlink:href="#mf0605f8a09" x="165.16616" y="227.953241" style="fill-opacity: 0.9; stroke: #000000; stroke-opacity: 0.9; stroke-width: 0.8"/>
     <use xlink:href="#mf0605f8a09" x="157.223658" y="193.262889" style="fill-opacity: 0.9; stroke: #000000; stroke-opacity: 0.9; stroke-width: 0.8"/>
     <use xlink:href="#mf0605f8a09" x="163.252161" y="203.695878" style="fill-opacity: 0.9; stroke: #000000; stroke-opacity: 0.9; stroke-width: 0.8"/>
     <use xlink:href="#mf0605f8a09" x="165.245588" y="283.150496" style="fill-opacity: 0.9; stroke: #000000; stroke-opacity: 0.9; stroke-width: 0.8"/>
     <use xlink:href="#mf0605f8a09" x="152.24659" y="336.728738" style="fill-opacity: 0.9; stroke: #000000; stroke-opacity: 0.9; stroke-width: 0.8"/>
     <use xlink:href="#mf0605f8a09" x="147.57055" y="141.486188" style="fill-opacity: 0.9; stroke: #000000; stroke-opacity: 0.9; stroke-width: 0.8"/>
     <use xlink:href="#mf0605f8a09" x="150.221296" y="161.825966" style="fill-opacity: 0.9; stroke: #000000; stroke-opacity: 0.9; stroke-width: 0.8"/>
     <use xlink:href="#mf0605f8a09" x="154.699931" y="229.975423" style="fill-opacity: 0.9; stroke: #000000; stroke-opacity: 0.9; stroke-width: 0.8"/>
     <use xlink:href="#mf0605f8a09" x="163.489944" y="250.636463" style="fill-opacity: 0.9; stroke: #000000; stroke-opacity: 0.9; stroke-width: 0.8"/>
     <use xlink:href="#mf0605f8a09" x="164.45046" y="221.300961" style="fill-opacity: 0.9; stroke: #000000; stroke-opacity: 0.9; stroke-width: 0.8"/>
     <use xlink:href="#mf0605f8a09" x="145.252227" y="150.533452" style="fill-opacity: 0.9; stroke: #000000; stroke-opacity: 0.9; stroke-width: 0.8"/>
     <use xlink:href="#mf0605f8a09" x="156.580666" y="193.35804" style="fill-opacity: 0.9; stroke: #000000; stroke-opacity: 0.9; stroke-width: 0.8"/>
     <use xlink:href="#mf0605f8a09" x="154.481887" y="203.010513" style="fill-opacity: 0.9; stroke: #000000; stroke-opacity: 0.9; stroke-width: 0.8"/>
     <use xlink:href="#mf0605f8a09" x="150.090261" y="232.948822" style="fill-opacity: 0.9; stroke: #000000; stroke-opacity: 0.9; stroke-width: 0.8"/>
     <use xlink:href="#mf0605f8a09" x="147.791217" y="185.818852" style="fill-opacity: 0.9; stroke: #000000; stroke-opacity: 0.9; stroke-width: 0.8"/>
     <use xlink:href="#mf0605f8a09" x="152.687582" y="130.231496" style="fill-opacity: 0.9; stroke: #000000; stroke-opacity: 0.9; stroke-width: 0.8"/>
     <use xlink:href="#mf0605f8a09" x="166.298356" y="326.965504" style="fill-opacity: 0.9; stroke: #000000; stroke-opacity: 0.9; stroke-width: 0.8"/>
     <use xlink:href="#mf0605f8a09" x="152.363506" y="393.310044" style="fill-opacity: 0.9; stroke: #000000; stroke-opacity: 0.9; stroke-width: 0.8"/>
     <use xlink:href="#mf0605f8a09" x="156.76153" y="315.054548" style="fill-opacity: 0.9; stroke: #000000; stroke-opacity: 0.9; stroke-width: 0.8"/>
     <use xlink:href="#mf0605f8a09" x="160.904125" y="274.490444" style="fill-opacity: 0.9; stroke: #000000; stroke-opacity: 0.9; stroke-width: 0.8"/>
     <use xlink:href="#mf0605f8a09" x="153.272548" y="169.446496" style="fill-opacity: 0.9; stroke: #000000; stroke-opacity: 0.9; stroke-width: 0.8"/>
     <use xlink:href="#mf0605f8a09" x="166.947586" y="286.907635" style="fill-opacity: 0.9; stroke: #000000; stroke-opacity: 0.9; stroke-width: 0.8"/>
     <use xlink:href="#mf0605f8a09" x="166.737682" y="306.274863" style="fill-opacity: 0.9; stroke: #000000; stroke-opacity: 0.9; stroke-width: 0.8"/>
     <use xlink:href="#mf0605f8a09" x="150.757527" y="344.06103" style="fill-opacity: 0.9; stroke: #000000; stroke-opacity: 0.9; stroke-width: 0.8"/>
     <use xlink:href="#mf0605f8a09" x="156.277129" y="186.692727" style="fill-opacity: 0.9; stroke: #000000; stroke-opacity: 0.9; stroke-width: 0.8"/>
     <use xlink:href="#mf0605f8a09" x="151.86151" y="339.104898" style="fill-opacity: 0.9; stroke: #000000; stroke-opacity: 0.9; stroke-width: 0.8"/>
     <use xlink:href="#mf0605f8a09" x="151.50088" y="136.926278" style="fill-opacity: 0.9; stroke: #000000; stroke-opacity: 0.9; stroke-width: 0.8"/>
     <use xlink:href="#mf0605f8a09" x="145.925347" y="255.109595" style="fill-opacity: 0.9; stroke: #000000; stroke-opacity: 0.9; stroke-width: 0.8"/>
     <use xlink:href="#mf0605f8a09" x="158.802686" y="195.29014" style="fill-opacity: 0.9; stroke: #000000; stroke-opacity: 0.9; stroke-width: 0.8"/>
     <use xlink:href="#mf0605f8a09" x="156.399241" y="277.527908" style="fill-opacity: 0.9; stroke: #000000; stroke-opacity: 0.9; stroke-width: 0.8"/>
     <use xlink:href="#mf0605f8a09" x="146.253461" y="175.085261" style="fill-opacity: 0.9; stroke: #000000; stroke-opacity: 0.9; stroke-width: 0.8"/>
     <use xlink:href="#mf0605f8a09" x="151.3616" y="157.752933" style="fill-opacity: 0.9; stroke: #000000; stroke-opacity: 0.9; stroke-width: 0.8"/>
     <use xlink:href="#mf0605f8a09" x="165.519348" y="189.656526" style="fill-opacity: 0.9; stroke: #000000; stroke-opacity: 0.9; stroke-width: 0.8"/>
     <use xlink:href="#mf0605f8a09" x="150.482737" y="241.24365" style="fill-opacity: 0.9; stroke: #000000; stroke-opacity: 0.9; stroke-width: 0.8"/>
     <use xlink:href="#mf0605f8a09" x="148.354035" y="214.621573" style="fill-opacity: 0.9; stroke: #000000; stroke-opacity: 0.9; stroke-width: 0.8"/>
     <use xlink:href="#mf0605f8a09" x="156.101833" y="193.571067" style="fill-opacity: 0.9; stroke: #000000; stroke-opacity: 0.9; stroke-width: 0.8"/>
     <use xlink:href="#mf0605f8a09" x="167.259433" y="186.41545" style="fill-opacity: 0.9; stroke: #000000; stroke-opacity: 0.9; stroke-width: 0.8"/>
     <use xlink:href="#mf0605f8a09" x="150.538803" y="177.213607" style="fill-opacity: 0.9; stroke: #000000; stroke-opacity: 0.9; stroke-width: 0.8"/>
     <use xlink:href="#mf0605f8a09" x="160.209674" y="147.23073" style="fill-opacity: 0.9; stroke: #000000; stroke-opacity: 0.9; stroke-width: 0.8"/>
     <use xlink:href="#mf0605f8a09" x="162.221831" y="150.560467" style="fill-opacity: 0.9; stroke: #000000; stroke-opacity: 0.9; stroke-width: 0.8"/>
     <use xlink:href="#mf0605f8a09" x="150.439465" y="227.200048" style="fill-opacity: 0.9; stroke: #000000; stroke-opacity: 0.9; stroke-width: 0.8"/>
     <use xlink:href="#mf0605f8a09" x="161.470718" y="170.583428" style="fill-opacity: 0.9; stroke: #000000; stroke-opacity: 0.9; stroke-width: 0.8"/>
     <use xlink:href="#mf0605f8a09" x="153.365945" y="338.827285" style="fill-opacity: 0.9; stroke: #000000; stroke-opacity: 0.9; stroke-width: 0.8"/>
     <use xlink:href="#mf0605f8a09" x="159.314055" y="160.863822" style="fill-opacity: 0.9; stroke: #000000; stroke-opacity: 0.9; stroke-width: 0.8"/>
     <use xlink:href="#mf0605f8a09" x="159.341576" y="171.288532" style="fill-opacity: 0.9; stroke: #000000; stroke-opacity: 0.9; stroke-width: 0.8"/>
     <use xlink:href="#mf0605f8a09" x="157.143437" y="145.354403" style="fill-opacity: 0.9; stroke: #000000; stroke-opacity: 0.9; stroke-width: 0.8"/>
     <use xlink:href="#mf0605f8a09" x="147.126174" y="250.007831" style="fill-opacity: 0.9; stroke: #000000; stroke-opacity: 0.9; stroke-width: 0.8"/>
     <use xlink:href="#mf0605f8a09" x="163.878679" y="148.446809" style="fill-opacity: 0.9; stroke: #000000; stroke-opacity: 0.9; stroke-width: 0.8"/>
     <use xlink:href="#mf0605f8a09" x="152.309025" y="133.841284" style="fill-opacity: 0.9; stroke: #000000; stroke-opacity: 0.9; stroke-width: 0.8"/>
     <use xlink:href="#mf0605f8a09" x="149.289993" y="260.347755" style="fill-opacity: 0.9; stroke: #000000; stroke-opacity: 0.9; stroke-width: 0.8"/>
     <use xlink:href="#mf0605f8a09" x="146.012778" y="157.370777" style="fill-opacity: 0.9; stroke: #000000; stroke-opacity: 0.9; stroke-width: 0.8"/>
     <use xlink:href="#mf0605f8a09" x="158.382837" y="217.329053" style="fill-opacity: 0.9; stroke: #000000; stroke-opacity: 0.9; stroke-width: 0.8"/>
     <use xlink:href="#mf0605f8a09" x="160.331748" y="202.387846" style="fill-opacity: 0.9; stroke: #000000; stroke-opacity: 0.9; stroke-width: 0.8"/>
     <use xlink:href="#mf0605f8a09" x="145.468897" y="206.654911" style="fill-opacity: 0.9; stroke: #000000; stroke-opacity: 0.9; stroke-width: 0.8"/>
     <use xlink:href="#mf0605f8a09" x="156.610927" y="133.548312" style="fill-opacity: 0.9; stroke: #000000; stroke-opacity: 0.9; stroke-width: 0.8"/>
     <use xlink:href="#mf0605f8a09" x="150.188929" y="163.555788" style="fill-opacity: 0.9; stroke: #000000; stroke-opacity: 0.9; stroke-width: 0.8"/>
     <use xlink:href="#mf0605f8a09" x="159.603384" y="190.675303" style="fill-opacity: 0.9; stroke: #000000; stroke-opacity: 0.9; stroke-width: 0.8"/>
     <use xlink:href="#mf0605f8a09" x="149.016738" y="162.133099" style="fill-opacity: 0.9; stroke: #000000; stroke-opacity: 0.9; stroke-width: 0.8"/>
     <use xlink:href="#mf0605f8a09" x="160.632464" y="205.141454" style="fill-opacity: 0.9; stroke: #000000; stroke-opacity: 0.9; stroke-width: 0.8"/>
     <use xlink:href="#mf0605f8a09" x="153.792108" y="254.076925" style="fill-opacity: 0.9; stroke: #000000; stroke-opacity: 0.9; stroke-width: 0.8"/>
     <use xlink:href="#mf0605f8a09" x="166.159398" y="259.435155" style="fill-opacity: 0.9; stroke: #000000; stroke-opacity: 0.9; stroke-width: 0.8"/>
     <use xlink:href="#mf0605f8a09" x="148.188223" y="160.104782" style="fill-opacity: 0.9; stroke: #000000; stroke-opacity: 0.9; stroke-width: 0.8"/>
     <use xlink:href="#mf0605f8a09" x="152.765186" y="137.792622" style="fill-opacity: 0.9; stroke: #000000; stroke-opacity: 0.9; stroke-width: 0.8"/>
     <use xlink:href="#mf0605f8a09" x="147.647488" y="199.468336" style="fill-opacity: 0.9; stroke: #000000; stroke-opacity: 0.9; stroke-width: 0.8"/>
     <use xlink:href="#mf0605f8a09" x="165.888746" y="177.764327" style="fill-opacity: 0.9; stroke: #000000; stroke-opacity: 0.9; stroke-width: 0.8"/>
     <use xlink:href="#mf0605f8a09" x="164.823928" y="172.299476" style="fill-opacity: 0.9; stroke: #000000; stroke-opacity: 0.9; stroke-width: 0.8"/>
     <use xlink:href="#mf0605f8a09" x="150.896027" y="171.985819" style="fill-opacity: 0.9; stroke: #000000; stroke-opacity: 0.9; stroke-width: 0.8"/>
     <use xlink:href="#mf0605f8a09" x="159.936433" y="163.053335" style="fill-opacity: 0.9; stroke: #000000; stroke-opacity: 0.9; stroke-width: 0.8"/>
     <use xlink:href="#mf0605f8a09" x="163.472122" y="220.30389" style="fill-opacity: 0.9; stroke: #000000; stroke-opacity: 0.9; stroke-width: 0.8"/>
     <use xlink:href="#mf0605f8a09" x="157.580256" y="159.57228" style="fill-opacity: 0.9; stroke: #000000; stroke-opacity: 0.9; stroke-width: 0.8"/>
     <use xlink:href="#mf0605f8a09" x="157.005729" y="168.738333" style="fill-opacity: 0.9; stroke: #000000; stroke-opacity: 0.9; stroke-width: 0.8"/>
     <use xlink:href="#mf0605f8a09" x="150.534239" y="259.352877" style="fill-opacity: 0.9; stroke: #000000; stroke-opacity: 0.9; stroke-width: 0.8"/>
     <use xlink:href="#mf0605f8a09" x="147.189427" y="218.632185" style="fill-opacity: 0.9; stroke: #000000; stroke-opacity: 0.9; stroke-width: 0.8"/>
     <use xlink:href="#mf0605f8a09" x="165.270873" y="189.973426" style="fill-opacity: 0.9; stroke: #000000; stroke-opacity: 0.9; stroke-width: 0.8"/>
     <use xlink:href="#mf0605f8a09" x="165.342881" y="139.162477" style="fill-opacity: 0.9; stroke: #000000; stroke-opacity: 0.9; stroke-width: 0.8"/>
     <use xlink:href="#mf0605f8a09" x="159.331946" y="217.357271" style="fill-opacity: 0.9; stroke: #000000; stroke-opacity: 0.9; stroke-width: 0.8"/>
     <use xlink:href="#mf0605f8a09" x="152.719392" y="140.652943" style="fill-opacity: 0.9; stroke: #000000; stroke-opacity: 0.9; stroke-width: 0.8"/>
     <use xlink:href="#mf0605f8a09" x="152.948296" y="222.840021" style="fill-opacity: 0.9; stroke: #000000; stroke-opacity: 0.9; stroke-width: 0.8"/>
     <use xlink:href="#mf0605f8a09" x="161.419885" y="280.159998" style="fill-opacity: 0.9; stroke: #000000; stroke-opacity: 0.9; stroke-width: 0.8"/>
     <use xlink:href="#mf0605f8a09" x="165.268501" y="178.606708" style="fill-opacity: 0.9; stroke: #000000; stroke-opacity: 0.9; stroke-width: 0.8"/>
    </g>
   </g>
   <g id="line2d_11">
    <path d="M 147.521968 198.504414 
L 372.383968 86.538792 
" clip-path="url(#p0bccd0521f)" style="fill: none; stroke: #04e762; stroke-opacity: 0.4; stroke-width: 1.2; stroke-linecap: round"/>
   </g>
   <g id="line2d_12">
    <path d="M 145.802623 185.77846 
L 370.664623 137.874181 
" clip-path="url(#p0bccd0521f)" style="fill: none; stroke: #04e762; stroke-opacity: 0.4; stroke-width: 1.2; stroke-linecap: round"/>
   </g>
   <g id="line2d_13">
    <path d="M 159.406352 245.826811 
L 384.268352 323.305132 
" clip-path="url(#p0bccd0521f)" style="fill: none; stroke: #ff5714; stroke-opacity: 0.4; stroke-width: 1.2; stroke-linecap: round"/>
   </g>
   <g id="line2d_14">
    <path d="M 152.164571 221.163052 
L 377.026571 222.259086 
" clip-path="url(#p0bccd0521f)" style="fill: none; stroke: #ff5714; stroke-opacity: 0.4; stroke-width: 1.2; stroke-linecap: round"/>
   </g>
   <g id="line2d_15">
    <path d="M 156.531722 230.939634 
L 381.393722 451.393802 
" clip-path="url(#p0bccd0521f)" style="fill: none; stroke: #ff5714; stroke-opacity: 0.4; stroke-width: 1.2; stroke-linecap: round"/>
   </g>
   <g id="line2d_16">
    <path d="M 165.503621 203.331428 
L 390.365621 259.796117 
" clip-path="url(#p0bccd0521f)" style="fill: none; stroke: #ff5714; stroke-opacity: 0.4; stroke-width: 1.2; stroke-linecap: round"/>
   </g>
   <g id="line2d_17">
    <path d="M 150.701535 343.537677 
L 375.563535 154.547265 
" clip-path="url(#p0bccd0521f)" style="fill: none; stroke: #04e762; stroke-opacity: 0.4; stroke-width: 1.2; stroke-linecap: round"/>
   </g>
   <g id="line2d_18">
    <path d="M 154.323852 242.86313 
L 379.185852 381.303661 
" clip-path="url(#p0bccd0521f)" style="fill: none; stroke: #ff5714; stroke-opacity: 0.4; stroke-width: 1.2; stroke-linecap: round"/>
   </g>
   <g id="line2d_19">
    <path d="M 162.085374 303.935009 
L 386.947374 304.577512 
" clip-path="url(#p0bccd0521f)" style="fill: none; stroke: #ff5714; stroke-opacity: 0.4; stroke-width: 1.2; stroke-linecap: round"/>
   </g>
   <g id="line2d_20">
    <path d="M 150.240701 163.528947 
L 375.102701 80.211407 
" clip-path="url(#p0bccd0521f)" style="fill: none; stroke: #04e762; stroke-opacity: 0.4; stroke-width: 1.2; stroke-linecap: round"/>
   </g>
   <g id="line2d_21">
    <path d="M 146.826886 399.583396 
L 371.688886 368.97001 
" clip-path="url(#p0bccd0521f)" style="fill: none; stroke: #04e762; stroke-opacity: 0.4; stroke-width: 1.2; stroke-linecap: round"/>
   </g>
   <g id="line2d_22">
    <path d="M 151.611309 240.571964 
L 376.473309 327.215404 
" clip-path="url(#p0bccd0521f)" style="fill: none; stroke: #ff5714; stroke-opacity: 0.4; stroke-width: 1.2; stroke-linecap: round"/>
   </g>
   <g id="line2d_23">
    <path d="M 148.721154 160.781987 
L 373.583154 105.073184 
" clip-path="url(#p0bccd0521f)" style="fill: none; stroke: #04e762; stroke-opacity: 0.4; stroke-width: 1.2; stroke-linecap: round"/>
   </g>
   <g id="line2d_24">
    <path d="M 166.001267 312.521899 
L 390.863267 366.64334 
" clip-path="url(#p0bccd0521f)" style="fill: none; stroke: #ff5714; stroke-opacity: 0.4; stroke-width: 1.2; stroke-linecap: round"/>
   </g>
   <g id="line2d_25">
    <path d="M 163.267456 202.760911 
L 388.129456 168.67045 
" clip-path="url(#p0bccd0521f)" style="fill: none; stroke: #04e762; stroke-opacity: 0.4; stroke-width: 1.2; stroke-linecap: round"/>
   </g>
   <g id="line2d_26">
    <path d="M 159.338744 257.943501 
L 384.200744 454.851818 
" clip-path="url(#p0bccd0521f)" style="fill: none; stroke: #ff5714; stroke-opacity: 0.4; stroke-width: 1.2; stroke-linecap: round"/>
   </g>
   <g id="line2d_27">
    <path d="M 164.691737 172.448344 
L 389.553737 363.687516 
" clip-path="url(#p0bccd0521f)" style="fill: none; stroke: #ff5714; stroke-opacity: 0.4; stroke-width: 1.2; stroke-linecap: round"/>
   </g>
   <g id="line2d_28">
    <path d="M 163.167431 222.795326 
L 388.029431 109.676977 
" clip-path="url(#p0bccd0521f)" style="fill: none; stroke: #04e762; stroke-opacity: 0.4; stroke-width: 1.2; stroke-linecap: round"/>
   </g>
   <g id="line2d_29">
    <path d="M 149.291152 280.062727 
L 374.153152 138.2774 
" clip-path="url(#p0bccd0521f)" style="fill: none; stroke: #04e762; stroke-opacity: 0.4; stroke-width: 1.2; stroke-linecap: round"/>
   </g>
   <g id="line2d_30">
    <path d="M 165.16616 227.953241 
L 390.02816 245.281929 
" clip-path="url(#p0bccd0521f)" style="fill: none; stroke: #ff5714; stroke-opacity: 0.4; stroke-width: 1.2; stroke-linecap: round"/>
   </g>
   <g id="line2d_31">
    <path d="M 157.223658 193.262889 
L 382.085658 139.065858 
" clip-path="url(#p0bccd0521f)" style="fill: none; stroke: #04e762; stroke-opacity: 0.4; stroke-width: 1.2; stroke-linecap: round"/>
   </g>
   <g id="line2d_32">
    <path d="M 163.252161 203.695878 
L 388.114161 220.911183 
" clip-path="url(#p0bccd0521f)" style="fill: none; stroke: #ff5714; stroke-opacity: 0.4; stroke-width: 1.2; stroke-linecap: round"/>
   </g>
   <g id="line2d_33">
    <path d="M 165.245588 283.150496 
L 390.107588 175.153276 
" clip-path="url(#p0bccd0521f)" style="fill: none; stroke: #04e762; stroke-opacity: 0.4; stroke-width: 1.2; stroke-linecap: round"/>
   </g>
   <g id="line2d_34">
    <path d="M 152.24659 336.728738 
L 377.10859 365.055568 
" clip-path="url(#p0bccd0521f)" style="fill: none; stroke: #ff5714; stroke-opacity: 0.4; stroke-width: 1.2; stroke-linecap: round"/>
   </g>
   <g id="line2d_35">
    <path d="M 147.57055 141.486188 
L 372.43255 305.418976 
" clip-path="url(#p0bccd0521f)" style="fill: none; stroke: #ff5714; stroke-opacity: 0.4; stroke-width: 1.2; stroke-linecap: round"/>
   </g>
   <g id="line2d_36">
    <path d="M 150.221296 161.825966 
L 375.083296 134.85973 
" clip-path="url(#p0bccd0521f)" style="fill: none; stroke: #04e762; stroke-opacity: 0.4; stroke-width: 1.2; stroke-linecap: round"/>
   </g>
   <g id="line2d_37">
    <path d="M 154.699931 229.975423 
L 379.561931 182.411293 
" clip-path="url(#p0bccd0521f)" style="fill: none; stroke: #04e762; stroke-opacity: 0.4; stroke-width: 1.2; stroke-linecap: round"/>
   </g>
   <g id="line2d_38">
    <path d="M 163.489944 250.636463 
L 388.351944 416.761321 
" clip-path="url(#p0bccd0521f)" style="fill: none; stroke: #ff5714; stroke-opacity: 0.4; stroke-width: 1.2; stroke-linecap: round"/>
   </g>
   <g id="line2d_39">
    <path d="M 164.45046 221.300961 
L 389.31246 198.699968 
" clip-path="url(#p0bccd0521f)" style="fill: none; stroke: #04e762; stroke-opacity: 0.4; stroke-width: 1.2; stroke-linecap: round"/>
   </g>
   <g id="line2d_40">
    <path d="M 145.252227 150.533452 
L 370.114227 350.427519 
" clip-path="url(#p0bccd0521f)" style="fill: none; stroke: #ff5714; stroke-opacity: 0.4; stroke-width: 1.2; stroke-linecap: round"/>
   </g>
   <g id="line2d_41">
    <path d="M 156.580666 193.35804 
L 381.442666 108.509831 
" clip-path="url(#p0bccd0521f)" style="fill: none; stroke: #04e762; stroke-opacity: 0.4; stroke-width: 1.2; stroke-linecap: round"/>
   </g>
   <g id="line2d_42">
    <path d="M 154.481887 203.010513 
L 379.343887 120.24099 
" clip-path="url(#p0bccd0521f)" style="fill: none; stroke: #04e762; stroke-opacity: 0.4; stroke-width: 1.2; stroke-linecap: round"/>
   </g>
   <g id="line2d_43">
    <path d="M 150.090261 232.948822 
L 374.952261 141.448815 
" clip-path="url(#p0bccd0521f)" style="fill: none; stroke: #04e762; stroke-opacity: 0.4; stroke-width: 1.2; stroke-linecap: round"/>
   </g>
   <g id="line2d_44">
    <path d="M 147.791217 185.818852 
L 372.653217 146.531674 
" clip-path="url(#p0bccd0521f)" style="fill: none; stroke: #04e762; stroke-opacity: 0.4; stroke-width: 1.2; stroke-linecap: round"/>
   </g>
   <g id="line2d_45">
    <path d="M 152.687582 130.231496 
L 377.549582 239.022396 
" clip-path="url(#p0bccd0521f)" style="fill: none; stroke: #ff5714; stroke-opacity: 0.4; stroke-width: 1.2; stroke-linecap: round"/>
   </g>
   <g id="line2d_46">
    <path d="M 166.298356 326.965504 
L 391.160356 138.12627 
" clip-path="url(#p0bccd0521f)" style="fill: none; stroke: #04e762; stroke-opacity: 0.4; stroke-width: 1.2; stroke-linecap: round"/>
   </g>
   <g id="line2d_47">
    <path d="M 152.363506 393.310044 
L 377.225506 321.652046 
" clip-path="url(#p0bccd0521f)" style="fill: none; stroke: #04e762; stroke-opacity: 0.4; stroke-width: 1.2; stroke-linecap: round"/>
   </g>
   <g id="line2d_48">
    <path d="M 156.76153 315.054548 
L 381.62353 402.170416 
" clip-path="url(#p0bccd0521f)" style="fill: none; stroke: #ff5714; stroke-opacity: 0.4; stroke-width: 1.2; stroke-linecap: round"/>
   </g>
   <g id="line2d_49">
    <path d="M 160.904125 274.490444 
L 385.766125 216.192732 
" clip-path="url(#p0bccd0521f)" style="fill: none; stroke: #04e762; stroke-opacity: 0.4; stroke-width: 1.2; stroke-linecap: round"/>
   </g>
   <g id="line2d_50">
    <path d="M 153.272548 169.446496 
L 378.134548 166.857586 
" clip-path="url(#p0bccd0521f)" style="fill: none; stroke: #04e762; stroke-opacity: 0.4; stroke-width: 1.2; stroke-linecap: round"/>
   </g>
   <g id="line2d_51">
    <path d="M 166.947586 286.907635 
L 391.809586 145.651428 
" clip-path="url(#p0bccd0521f)" style="fill: none; stroke: #04e762; stroke-opacity: 0.4; stroke-width: 1.2; stroke-linecap: round"/>
   </g>
   <g id="line2d_52">
    <path d="M 166.737682 306.274863 
L 391.599682 240.474982 
" clip-path="url(#p0bccd0521f)" style="fill: none; stroke: #04e762; stroke-opacity: 0.4; stroke-width: 1.2; stroke-linecap: round"/>
   </g>
   <g id="line2d_53">
    <path d="M 150.757527 344.06103 
L 375.619527 161.117707 
" clip-path="url(#p0bccd0521f)" style="fill: none; stroke: #04e762; stroke-opacity: 0.4; stroke-width: 1.2; stroke-linecap: round"/>
   </g>
   <g id="line2d_54">
    <path d="M 156.277129 186.692727 
L 381.139129 81.511182 
" clip-path="url(#p0bccd0521f)" style="fill: none; stroke: #04e762; stroke-opacity: 0.4; stroke-width: 1.2; stroke-linecap: round"/>
   </g>
   <g id="line2d_55">
    <path d="M 151.86151 339.104898 
L 376.72351 195.354267 
" clip-path="url(#p0bccd0521f)" style="fill: none; stroke: #04e762; stroke-opacity: 0.4; stroke-width: 1.2; stroke-linecap: round"/>
   </g>
   <g id="line2d_56">
    <path d="M 151.50088 136.926278 
L 376.36288 137.946724 
" clip-path="url(#p0bccd0521f)" style="fill: none; stroke: #ff5714; stroke-opacity: 0.4; stroke-width: 1.2; stroke-linecap: round"/>
   </g>
   <g id="line2d_57">
    <path d="M 145.925347 255.109595 
L 370.787347 173.738461 
" clip-path="url(#p0bccd0521f)" style="fill: none; stroke: #04e762; stroke-opacity: 0.4; stroke-width: 1.2; stroke-linecap: round"/>
   </g>
   <g id="line2d_58">
    <path d="M 158.802686 195.29014 
L 383.664686 92.470739 
" clip-path="url(#p0bccd0521f)" style="fill: none; stroke: #04e762; stroke-opacity: 0.4; stroke-width: 1.2; stroke-linecap: round"/>
   </g>
   <g id="line2d_59">
    <path d="M 156.399241 277.527908 
L 381.261241 283.310436 
" clip-path="url(#p0bccd0521f)" style="fill: none; stroke: #ff5714; stroke-opacity: 0.4; stroke-width: 1.2; stroke-linecap: round"/>
   </g>
   <g id="line2d_60">
    <path d="M 146.253461 175.085261 
L 371.115461 131.37615 
" clip-path="url(#p0bccd0521f)" style="fill: none; stroke: #04e762; stroke-opacity: 0.4; stroke-width: 1.2; stroke-linecap: round"/>
   </g>
   <g id="line2d_61">
    <path d="M 151.3616 157.752933 
L 376.2236 122.698717 
" clip-path="url(#p0bccd0521f)" style="fill: none; stroke: #04e762; stroke-opacity: 0.4; stroke-width: 1.2; stroke-linecap: round"/>
   </g>
   <g id="line2d_62">
    <path d="M 165.519348 189.656526 
L 390.381348 155.887317 
" clip-path="url(#p0bccd0521f)" style="fill: none; stroke: #04e762; stroke-opacity: 0.4; stroke-width: 1.2; stroke-linecap: round"/>
   </g>
   <g id="line2d_63">
    <path d="M 150.482737 241.24365 
L 375.344737 89.310553 
" clip-path="url(#p0bccd0521f)" style="fill: none; stroke: #04e762; stroke-opacity: 0.4; stroke-width: 1.2; stroke-linecap: round"/>
   </g>
   <g id="line2d_64">
    <path d="M 148.354035 214.621573 
L 373.216035 322.070776 
" clip-path="url(#p0bccd0521f)" style="fill: none; stroke: #ff5714; stroke-opacity: 0.4; stroke-width: 1.2; stroke-linecap: round"/>
   </g>
   <g id="line2d_65">
    <path d="M 156.101833 193.571067 
L 380.963833 250.262521 
" clip-path="url(#p0bccd0521f)" style="fill: none; stroke: #ff5714; stroke-opacity: 0.4; stroke-width: 1.2; stroke-linecap: round"/>
   </g>
   <g id="line2d_66">
    <path d="M 167.259433 186.41545 
L 392.121433 113.283474 
" clip-path="url(#p0bccd0521f)" style="fill: none; stroke: #04e762; stroke-opacity: 0.4; stroke-width: 1.2; stroke-linecap: round"/>
   </g>
   <g id="line2d_67">
    <path d="M 150.538803 177.213607 
L 375.400803 214.327612 
" clip-path="url(#p0bccd0521f)" style="fill: none; stroke: #ff5714; stroke-opacity: 0.4; stroke-width: 1.2; stroke-linecap: round"/>
   </g>
   <g id="line2d_68">
    <path d="M 160.209674 147.23073 
L 385.071674 115.78587 
" clip-path="url(#p0bccd0521f)" style="fill: none; stroke: #04e762; stroke-opacity: 0.4; stroke-width: 1.2; stroke-linecap: round"/>
   </g>
   <g id="line2d_69">
    <path d="M 162.221831 150.560467 
L 387.083831 79.582766 
" clip-path="url(#p0bccd0521f)" style="fill: none; stroke: #04e762; stroke-opacity: 0.4; stroke-width: 1.2; stroke-linecap: round"/>
   </g>
   <g id="line2d_70">
    <path d="M 150.439465 227.200048 
L 375.301465 240.012317 
" clip-path="url(#p0bccd0521f)" style="fill: none; stroke: #ff5714; stroke-opacity: 0.4; stroke-width: 1.2; stroke-linecap: round"/>
   </g>
   <g id="line2d_71">
    <path d="M 161.470718 170.583428 
L 386.332718 72.299343 
" clip-path="url(#p0bccd0521f)" style="fill: none; stroke: #04e762; stroke-opacity: 0.4; stroke-width: 1.2; stroke-linecap: round"/>
   </g>
   <g id="line2d_72">
    <path d="M 153.365945 338.827285 
L 378.227945 286.217616 
" clip-path="url(#p0bccd0521f)" style="fill: none; stroke: #04e762; stroke-opacity: 0.4; stroke-width: 1.2; stroke-linecap: round"/>
   </g>
   <g id="line2d_73">
    <path d="M 159.314055 160.863822 
L 384.176055 189.115063 
" clip-path="url(#p0bccd0521f)" style="fill: none; stroke: #ff5714; stroke-opacity: 0.4; stroke-width: 1.2; stroke-linecap: round"/>
   </g>
   <g id="line2d_74">
    <path d="M 159.341576 171.288532 
L 384.203576 192.415547 
" clip-path="url(#p0bccd0521f)" style="fill: none; stroke: #ff5714; stroke-opacity: 0.4; stroke-width: 1.2; stroke-linecap: round"/>
   </g>
   <g id="line2d_75">
    <path d="M 157.143437 145.354403 
L 382.005437 255.127956 
" clip-path="url(#p0bccd0521f)" style="fill: none; stroke: #ff5714; stroke-opacity: 0.4; stroke-width: 1.2; stroke-linecap: round"/>
   </g>
   <g id="line2d_76">
    <path d="M 147.126174 250.007831 
L 371.988174 255.091165 
" clip-path="url(#p0bccd0521f)" style="fill: none; stroke: #ff5714; stroke-opacity: 0.4; stroke-width: 1.2; stroke-linecap: round"/>
   </g>
   <g id="line2d_77">
    <path d="M 163.878679 148.446809 
L 388.740679 154.07816 
" clip-path="url(#p0bccd0521f)" style="fill: none; stroke: #ff5714; stroke-opacity: 0.4; stroke-width: 1.2; stroke-linecap: round"/>
   </g>
   <g id="line2d_78">
    <path d="M 152.309025 133.841284 
L 377.171025 246.109261 
" clip-path="url(#p0bccd0521f)" style="fill: none; stroke: #ff5714; stroke-opacity: 0.4; stroke-width: 1.2; stroke-linecap: round"/>
   </g>
   <g id="line2d_79">
    <path d="M 149.289993 260.347755 
L 374.151993 307.288279 
" clip-path="url(#p0bccd0521f)" style="fill: none; stroke: #ff5714; stroke-opacity: 0.4; stroke-width: 1.2; stroke-linecap: round"/>
   </g>
   <g id="line2d_80">
    <path d="M 146.012778 157.370777 
L 370.874778 346.191114 
" clip-path="url(#p0bccd0521f)" style="fill: none; stroke: #ff5714; stroke-opacity: 0.4; stroke-width: 1.2; stroke-linecap: round"/>
   </g>
   <g id="line2d_81">
    <path d="M 158.382837 217.329053 
L 383.244837 296.848266 
" clip-path="url(#p0bccd0521f)" style="fill: none; stroke: #ff5714; stroke-opacity: 0.4; stroke-width: 1.2; stroke-linecap: round"/>
   </g>
   <g id="line2d_82">
    <path d="M 160.331748 202.387846 
L 385.193748 201.348503 
" clip-path="url(#p0bccd0521f)" style="fill: none; stroke: #04e762; stroke-opacity: 0.4; stroke-width: 1.2; stroke-linecap: round"/>
   </g>
   <g id="line2d_83">
    <path d="M 145.468897 206.654911 
L 370.330897 120.294929 
" clip-path="url(#p0bccd0521f)" style="fill: none; stroke: #04e762; stroke-opacity: 0.4; stroke-width: 1.2; stroke-linecap: round"/>
   </g>
   <g id="line2d_84">
    <path d="M 156.610927 133.548312 
L 381.472927 46.848182 
" clip-path="url(#p0bccd0521f)" style="fill: none; stroke: #04e762; stroke-opacity: 0.4; stroke-width: 1.2; stroke-linecap: round"/>
   </g>
   <g id="line2d_85">
    <path d="M 150.188929 163.555788 
L 375.050929 210.628592 
" clip-path="url(#p0bccd0521f)" style="fill: none; stroke: #ff5714; stroke-opacity: 0.4; stroke-width: 1.2; stroke-linecap: round"/>
   </g>
   <g id="line2d_86">
    <path d="M 159.603384 190.675303 
L 384.465384 179.88503 
" clip-path="url(#p0bccd0521f)" style="fill: none; stroke: #04e762; stroke-opacity: 0.4; stroke-width: 1.2; stroke-linecap: round"/>
   </g>
   <g id="line2d_87">
    <path d="M 149.016738 162.133099 
L 373.878738 108.087246 
" clip-path="url(#p0bccd0521f)" style="fill: none; stroke: #04e762; stroke-opacity: 0.4; stroke-width: 1.2; stroke-linecap: round"/>
   </g>
   <g id="line2d_88">
    <path d="M 160.632464 205.141454 
L 385.494464 115.002042 
" clip-path="url(#p0bccd0521f)" style="fill: none; stroke: #04e762; stroke-opacity: 0.4; stroke-width: 1.2; stroke-linecap: round"/>
   </g>
   <g id="line2d_89">
    <path d="M 153.792108 254.076925 
L 378.654108 269.081263 
" clip-path="url(#p0bccd0521f)" style="fill: none; stroke: #ff5714; stroke-opacity: 0.4; stroke-width: 1.2; stroke-linecap: round"/>
   </g>
   <g id="line2d_90">
    <path d="M 166.159398 259.435155 
L 391.021398 232.242154 
" clip-path="url(#p0bccd0521f)" style="fill: none; stroke: #04e762; stroke-opacity: 0.4; stroke-width: 1.2; stroke-linecap: round"/>
   </g>
   <g id="line2d_91">
    <path d="M 148.188223 160.104782 
L 373.050223 222.01185 
" clip-path="url(#p0bccd0521f)" style="fill: none; stroke: #ff5714; stroke-opacity: 0.4; stroke-width: 1.2; stroke-linecap: round"/>
   </g>
   <g id="line2d_92">
    <path d="M 152.765186 137.792622 
L 377.627186 244.164687 
" clip-path="url(#p0bccd0521f)" style="fill: none; stroke: #ff5714; stroke-opacity: 0.4; stroke-width: 1.2; stroke-linecap: round"/>
   </g>
   <g id="line2d_93">
    <path d="M 147.647488 199.468336 
L 372.509488 428.010485 
" clip-path="url(#p0bccd0521f)" style="fill: none; stroke: #ff5714; stroke-opacity: 0.4; stroke-width: 1.2; stroke-linecap: round"/>
   </g>
   <g id="line2d_94">
    <path d="M 165.888746 177.764327 
L 390.750746 156.84518 
" clip-path="url(#p0bccd0521f)" style="fill: none; stroke: #04e762; stroke-opacity: 0.4; stroke-width: 1.2; stroke-linecap: round"/>
   </g>
   <g id="line2d_95">
    <path d="M 164.823928 172.299476 
L 389.685928 137.37754 
" clip-path="url(#p0bccd0521f)" style="fill: none; stroke: #04e762; stroke-opacity: 0.4; stroke-width: 1.2; stroke-linecap: round"/>
   </g>
   <g id="line2d_96">
    <path d="M 150.896027 171.985819 
L 375.758027 169.680366 
" clip-path="url(#p0bccd0521f)" style="fill: none; stroke: #04e762; stroke-opacity: 0.4; stroke-width: 1.2; stroke-linecap: round"/>
   </g>
   <g id="line2d_97">
    <path d="M 159.936433 163.053335 
L 384.798433 156.930658 
" clip-path="url(#p0bccd0521f)" style="fill: none; stroke: #04e762; stroke-opacity: 0.4; stroke-width: 1.2; stroke-linecap: round"/>
   </g>
   <g id="line2d_98">
    <path d="M 163.472122 220.30389 
L 388.334122 109.793349 
" clip-path="url(#p0bccd0521f)" style="fill: none; stroke: #04e762; stroke-opacity: 0.4; stroke-width: 1.2; stroke-linecap: round"/>
   </g>
   <g id="line2d_99">
    <path d="M 157.580256 159.57228 
L 382.442256 118.64105 
" clip-path="url(#p0bccd0521f)" style="fill: none; stroke: #04e762; stroke-opacity: 0.4; stroke-width: 1.2; stroke-linecap: round"/>
   </g>
   <g id="line2d_100">
    <path d="M 157.005729 168.738333 
L 381.867729 96.929158 
" clip-path="url(#p0bccd0521f)" style="fill: none; stroke: #04e762; stroke-opacity: 0.4; stroke-width: 1.2; stroke-linecap: round"/>
   </g>
   <g id="line2d_101">
    <path d="M 150.534239 259.352877 
L 375.396239 111.255902 
" clip-path="url(#p0bccd0521f)" style="fill: none; stroke: #04e762; stroke-opacity: 0.4; stroke-width: 1.2; stroke-linecap: round"/>
   </g>
   <g id="line2d_102">
    <path d="M 147.189427 218.632185 
L 372.051427 167.307522 
" clip-path="url(#p0bccd0521f)" style="fill: none; stroke: #04e762; stroke-opacity: 0.4; stroke-width: 1.2; stroke-linecap: round"/>
   </g>
   <g id="line2d_103">
    <path d="M 165.270873 189.973426 
L 390.132873 50.795905 
" clip-path="url(#p0bccd0521f)" style="fill: none; stroke: #04e762; stroke-opacity: 0.4; stroke-width: 1.2; stroke-linecap: round"/>
   </g>
   <g id="line2d_104">
    <path d="M 165.342881 139.162477 
L 390.204881 226.486214 
" clip-path="url(#p0bccd0521f)" style="fill: none; stroke: #ff5714; stroke-opacity: 0.4; stroke-width: 1.2; stroke-linecap: round"/>
   </g>
   <g id="line2d_105">
    <path d="M 159.331946 217.357271 
L 384.193946 223.857891 
" clip-path="url(#p0bccd0521f)" style="fill: none; stroke: #ff5714; stroke-opacity: 0.4; stroke-width: 1.2; stroke-linecap: round"/>
   </g>
   <g id="line2d_106">
    <path d="M 152.719392 140.652943 
L 377.581392 96.301328 
" clip-path="url(#p0bccd0521f)" style="fill: none; stroke: #04e762; stroke-opacity: 0.4; stroke-width: 1.2; stroke-linecap: round"/>
   </g>
   <g id="line2d_107">
    <path d="M 152.948296 222.840021 
L 377.810296 295.272802 
" clip-path="url(#p0bccd0521f)" style="fill: none; stroke: #ff5714; stroke-opacity: 0.4; stroke-width: 1.2; stroke-linecap: round"/>
   </g>
   <g id="line2d_108">
    <path d="M 161.419885 280.159998 
L 386.281885 403.161556 
" clip-path="url(#p0bccd0521f)" style="fill: none; stroke: #ff5714; stroke-opacity: 0.4; stroke-width: 1.2; stroke-linecap: round"/>
   </g>
   <g id="line2d_109">
    <path d="M 165.268501 178.606708 
L 390.130501 198.637688 
" clip-path="url(#p0bccd0521f)" style="fill: none; stroke: #ff5714; stroke-opacity: 0.4; stroke-width: 1.2; stroke-linecap: round"/>
   </g>
   <g id="PathCollection_2">
    <g clip-path="url(#p0bccd0521f)">
     <use xlink:href="#mf0605f8a09" x="372.383968" y="86.538792" style="fill-opacity: 0.9; stroke: #000000; stroke-opacity: 0.9; stroke-width: 0.8"/>
     <use xlink:href="#mf0605f8a09" x="370.664623" y="137.874181" style="fill-opacity: 0.9; stroke: #000000; stroke-opacity: 0.9; stroke-width: 0.8"/>
     <use xlink:href="#mf0605f8a09" x="384.268352" y="323.305132" style="fill-opacity: 0.9; stroke: #000000; stroke-opacity: 0.9; stroke-width: 0.8"/>
     <use xlink:href="#mf0605f8a09" x="377.026571" y="222.259086" style="fill-opacity: 0.9; stroke: #000000; stroke-opacity: 0.9; stroke-width: 0.8"/>
     <use xlink:href="#mf0605f8a09" x="381.393722" y="451.393802" style="fill-opacity: 0.9; stroke: #000000; stroke-opacity: 0.9; stroke-width: 0.8"/>
     <use xlink:href="#mf0605f8a09" x="390.365621" y="259.796117" style="fill-opacity: 0.9; stroke: #000000; stroke-opacity: 0.9; stroke-width: 0.8"/>
     <use xlink:href="#mf0605f8a09" x="375.563535" y="154.547265" style="fill-opacity: 0.9; stroke: #000000; stroke-opacity: 0.9; stroke-width: 0.8"/>
     <use xlink:href="#mf0605f8a09" x="379.185852" y="381.303661" style="fill-opacity: 0.9; stroke: #000000; stroke-opacity: 0.9; stroke-width: 0.8"/>
     <use xlink:href="#mf0605f8a09" x="386.947374" y="304.577512" style="fill-opacity: 0.9; stroke: #000000; stroke-opacity: 0.9; stroke-width: 0.8"/>
     <use xlink:href="#mf0605f8a09" x="375.102701" y="80.211407" style="fill-opacity: 0.9; stroke: #000000; stroke-opacity: 0.9; stroke-width: 0.8"/>
     <use xlink:href="#mf0605f8a09" x="371.688886" y="368.97001" style="fill-opacity: 0.9; stroke: #000000; stroke-opacity: 0.9; stroke-width: 0.8"/>
     <use xlink:href="#mf0605f8a09" x="376.473309" y="327.215404" style="fill-opacity: 0.9; stroke: #000000; stroke-opacity: 0.9; stroke-width: 0.8"/>
     <use xlink:href="#mf0605f8a09" x="373.583154" y="105.073184" style="fill-opacity: 0.9; stroke: #000000; stroke-opacity: 0.9; stroke-width: 0.8"/>
     <use xlink:href="#mf0605f8a09" x="390.863267" y="366.64334" style="fill-opacity: 0.9; stroke: #000000; stroke-opacity: 0.9; stroke-width: 0.8"/>
     <use xlink:href="#mf0605f8a09" x="388.129456" y="168.67045" style="fill-opacity: 0.9; stroke: #000000; stroke-opacity: 0.9; stroke-width: 0.8"/>
     <use xlink:href="#mf0605f8a09" x="384.200744" y="454.851818" style="fill-opacity: 0.9; stroke: #000000; stroke-opacity: 0.9; stroke-width: 0.8"/>
     <use xlink:href="#mf0605f8a09" x="389.553737" y="363.687516" style="fill-opacity: 0.9; stroke: #000000; stroke-opacity: 0.9; stroke-width: 0.8"/>
     <use xlink:href="#mf0605f8a09" x="388.029431" y="109.676977" style="fill-opacity: 0.9; stroke: #000000; stroke-opacity: 0.9; stroke-width: 0.8"/>
     <use xlink:href="#mf0605f8a09" x="374.153152" y="138.2774" style="fill-opacity: 0.9; stroke: #000000; stroke-opacity: 0.9; stroke-width: 0.8"/>
     <use xlink:href="#mf0605f8a09" x="390.02816" y="245.281929" style="fill-opacity: 0.9; stroke: #000000; stroke-opacity: 0.9; stroke-width: 0.8"/>
     <use xlink:href="#mf0605f8a09" x="382.085658" y="139.065858" style="fill-opacity: 0.9; stroke: #000000; stroke-opacity: 0.9; stroke-width: 0.8"/>
     <use xlink:href="#mf0605f8a09" x="388.114161" y="220.911183" style="fill-opacity: 0.9; stroke: #000000; stroke-opacity: 0.9; stroke-width: 0.8"/>
     <use xlink:href="#mf0605f8a09" x="390.107588" y="175.153276" style="fill-opacity: 0.9; stroke: #000000; stroke-opacity: 0.9; stroke-width: 0.8"/>
     <use xlink:href="#mf0605f8a09" x="377.10859" y="365.055568" style="fill-opacity: 0.9; stroke: #000000; stroke-opacity: 0.9; stroke-width: 0.8"/>
     <use xlink:href="#mf0605f8a09" x="372.43255" y="305.418976" style="fill-opacity: 0.9; stroke: #000000; stroke-opacity: 0.9; stroke-width: 0.8"/>
     <use xlink:href="#mf0605f8a09" x="375.083296" y="134.85973" style="fill-opacity: 0.9; stroke: #000000; stroke-opacity: 0.9; stroke-width: 0.8"/>
     <use xlink:href="#mf0605f8a09" x="379.561931" y="182.411293" style="fill-opacity: 0.9; stroke: #000000; stroke-opacity: 0.9; stroke-width: 0.8"/>
     <use xlink:href="#mf0605f8a09" x="388.351944" y="416.761321" style="fill-opacity: 0.9; stroke: #000000; stroke-opacity: 0.9; stroke-width: 0.8"/>
     <use xlink:href="#mf0605f8a09" x="389.31246" y="198.699968" style="fill-opacity: 0.9; stroke: #000000; stroke-opacity: 0.9; stroke-width: 0.8"/>
     <use xlink:href="#mf0605f8a09" x="370.114227" y="350.427519" style="fill-opacity: 0.9; stroke: #000000; stroke-opacity: 0.9; stroke-width: 0.8"/>
     <use xlink:href="#mf0605f8a09" x="381.442666" y="108.509831" style="fill-opacity: 0.9; stroke: #000000; stroke-opacity: 0.9; stroke-width: 0.8"/>
     <use xlink:href="#mf0605f8a09" x="379.343887" y="120.24099" style="fill-opacity: 0.9; stroke: #000000; stroke-opacity: 0.9; stroke-width: 0.8"/>
     <use xlink:href="#mf0605f8a09" x="374.952261" y="141.448815" style="fill-opacity: 0.9; stroke: #000000; stroke-opacity: 0.9; stroke-width: 0.8"/>
     <use xlink:href="#mf0605f8a09" x="372.653217" y="146.531674" style="fill-opacity: 0.9; stroke: #000000; stroke-opacity: 0.9; stroke-width: 0.8"/>
     <use xlink:href="#mf0605f8a09" x="377.549582" y="239.022396" style="fill-opacity: 0.9; stroke: #000000; stroke-opacity: 0.9; stroke-width: 0.8"/>
     <use xlink:href="#mf0605f8a09" x="391.160356" y="138.12627" style="fill-opacity: 0.9; stroke: #000000; stroke-opacity: 0.9; stroke-width: 0.8"/>
     <use xlink:href="#mf0605f8a09" x="377.225506" y="321.652046" style="fill-opacity: 0.9; stroke: #000000; stroke-opacity: 0.9; stroke-width: 0.8"/>
     <use xlink:href="#mf0605f8a09" x="381.62353" y="402.170416" style="fill-opacity: 0.9; stroke: #000000; stroke-opacity: 0.9; stroke-width: 0.8"/>
     <use xlink:href="#mf0605f8a09" x="385.766125" y="216.192732" style="fill-opacity: 0.9; stroke: #000000; stroke-opacity: 0.9; stroke-width: 0.8"/>
     <use xlink:href="#mf0605f8a09" x="378.134548" y="166.857586" style="fill-opacity: 0.9; stroke: #000000; stroke-opacity: 0.9; stroke-width: 0.8"/>
     <use xlink:href="#mf0605f8a09" x="391.809586" y="145.651428" style="fill-opacity: 0.9; stroke: #000000; stroke-opacity: 0.9; stroke-width: 0.8"/>
     <use xlink:href="#mf0605f8a09" x="391.599682" y="240.474982" style="fill-opacity: 0.9; stroke: #000000; stroke-opacity: 0.9; stroke-width: 0.8"/>
     <use xlink:href="#mf0605f8a09" x="375.619527" y="161.117707" style="fill-opacity: 0.9; stroke: #000000; stroke-opacity: 0.9; stroke-width: 0.8"/>
     <use xlink:href="#mf0605f8a09" x="381.139129" y="81.511182" style="fill-opacity: 0.9; stroke: #000000; stroke-opacity: 0.9; stroke-width: 0.8"/>
     <use xlink:href="#mf0605f8a09" x="376.72351" y="195.354267" style="fill-opacity: 0.9; stroke: #000000; stroke-opacity: 0.9; stroke-width: 0.8"/>
     <use xlink:href="#mf0605f8a09" x="376.36288" y="137.946724" style="fill-opacity: 0.9; stroke: #000000; stroke-opacity: 0.9; stroke-width: 0.8"/>
     <use xlink:href="#mf0605f8a09" x="370.787347" y="173.738461" style="fill-opacity: 0.9; stroke: #000000; stroke-opacity: 0.9; stroke-width: 0.8"/>
     <use xlink:href="#mf0605f8a09" x="383.664686" y="92.470739" style="fill-opacity: 0.9; stroke: #000000; stroke-opacity: 0.9; stroke-width: 0.8"/>
     <use xlink:href="#mf0605f8a09" x="381.261241" y="283.310436" style="fill-opacity: 0.9; stroke: #000000; stroke-opacity: 0.9; stroke-width: 0.8"/>
     <use xlink:href="#mf0605f8a09" x="371.115461" y="131.37615" style="fill-opacity: 0.9; stroke: #000000; stroke-opacity: 0.9; stroke-width: 0.8"/>
     <use xlink:href="#mf0605f8a09" x="376.2236" y="122.698717" style="fill-opacity: 0.9; stroke: #000000; stroke-opacity: 0.9; stroke-width: 0.8"/>
     <use xlink:href="#mf0605f8a09" x="390.381348" y="155.887317" style="fill-opacity: 0.9; stroke: #000000; stroke-opacity: 0.9; stroke-width: 0.8"/>
     <use xlink:href="#mf0605f8a09" x="375.344737" y="89.310553" style="fill-opacity: 0.9; stroke: #000000; stroke-opacity: 0.9; stroke-width: 0.8"/>
     <use xlink:href="#mf0605f8a09" x="373.216035" y="322.070776" style="fill-opacity: 0.9; stroke: #000000; stroke-opacity: 0.9; stroke-width: 0.8"/>
     <use xlink:href="#mf0605f8a09" x="380.963833" y="250.262521" style="fill-opacity: 0.9; stroke: #000000; stroke-opacity: 0.9; stroke-width: 0.8"/>
     <use xlink:href="#mf0605f8a09" x="392.121433" y="113.283474" style="fill-opacity: 0.9; stroke: #000000; stroke-opacity: 0.9; stroke-width: 0.8"/>
     <use xlink:href="#mf0605f8a09" x="375.400803" y="214.327612" style="fill-opacity: 0.9; stroke: #000000; stroke-opacity: 0.9; stroke-width: 0.8"/>
     <use xlink:href="#mf0605f8a09" x="385.071674" y="115.78587" style="fill-opacity: 0.9; stroke: #000000; stroke-opacity: 0.9; stroke-width: 0.8"/>
     <use xlink:href="#mf0605f8a09" x="387.083831" y="79.582766" style="fill-opacity: 0.9; stroke: #000000; stroke-opacity: 0.9; stroke-width: 0.8"/>
     <use xlink:href="#mf0605f8a09" x="375.301465" y="240.012317" style="fill-opacity: 0.9; stroke: #000000; stroke-opacity: 0.9; stroke-width: 0.8"/>
     <use xlink:href="#mf0605f8a09" x="386.332718" y="72.299343" style="fill-opacity: 0.9; stroke: #000000; stroke-opacity: 0.9; stroke-width: 0.8"/>
     <use xlink:href="#mf0605f8a09" x="378.227945" y="286.217616" style="fill-opacity: 0.9; stroke: #000000; stroke-opacity: 0.9; stroke-width: 0.8"/>
     <use xlink:href="#mf0605f8a09" x="384.176055" y="189.115063" style="fill-opacity: 0.9; stroke: #000000; stroke-opacity: 0.9; stroke-width: 0.8"/>
     <use xlink:href="#mf0605f8a09" x="384.203576" y="192.415547" style="fill-opacity: 0.9; stroke: #000000; stroke-opacity: 0.9; stroke-width: 0.8"/>
     <use xlink:href="#mf0605f8a09" x="382.005437" y="255.127956" style="fill-opacity: 0.9; stroke: #000000; stroke-opacity: 0.9; stroke-width: 0.8"/>
     <use xlink:href="#mf0605f8a09" x="371.988174" y="255.091165" style="fill-opacity: 0.9; stroke: #000000; stroke-opacity: 0.9; stroke-width: 0.8"/>
     <use xlink:href="#mf0605f8a09" x="388.740679" y="154.07816" style="fill-opacity: 0.9; stroke: #000000; stroke-opacity: 0.9; stroke-width: 0.8"/>
     <use xlink:href="#mf0605f8a09" x="377.171025" y="246.109261" style="fill-opacity: 0.9; stroke: #000000; stroke-opacity: 0.9; stroke-width: 0.8"/>
     <use xlink:href="#mf0605f8a09" x="374.151993" y="307.288279" style="fill-opacity: 0.9; stroke: #000000; stroke-opacity: 0.9; stroke-width: 0.8"/>
     <use xlink:href="#mf0605f8a09" x="370.874778" y="346.191114" style="fill-opacity: 0.9; stroke: #000000; stroke-opacity: 0.9; stroke-width: 0.8"/>
     <use xlink:href="#mf0605f8a09" x="383.244837" y="296.848266" style="fill-opacity: 0.9; stroke: #000000; stroke-opacity: 0.9; stroke-width: 0.8"/>
     <use xlink:href="#mf0605f8a09" x="385.193748" y="201.348503" style="fill-opacity: 0.9; stroke: #000000; stroke-opacity: 0.9; stroke-width: 0.8"/>
     <use xlink:href="#mf0605f8a09" x="370.330897" y="120.294929" style="fill-opacity: 0.9; stroke: #000000; stroke-opacity: 0.9; stroke-width: 0.8"/>
     <use xlink:href="#mf0605f8a09" x="381.472927" y="46.848182" style="fill-opacity: 0.9; stroke: #000000; stroke-opacity: 0.9; stroke-width: 0.8"/>
     <use xlink:href="#mf0605f8a09" x="375.050929" y="210.628592" style="fill-opacity: 0.9; stroke: #000000; stroke-opacity: 0.9; stroke-width: 0.8"/>
     <use xlink:href="#mf0605f8a09" x="384.465384" y="179.88503" style="fill-opacity: 0.9; stroke: #000000; stroke-opacity: 0.9; stroke-width: 0.8"/>
     <use xlink:href="#mf0605f8a09" x="373.878738" y="108.087246" style="fill-opacity: 0.9; stroke: #000000; stroke-opacity: 0.9; stroke-width: 0.8"/>
     <use xlink:href="#mf0605f8a09" x="385.494464" y="115.002042" style="fill-opacity: 0.9; stroke: #000000; stroke-opacity: 0.9; stroke-width: 0.8"/>
     <use xlink:href="#mf0605f8a09" x="378.654108" y="269.081263" style="fill-opacity: 0.9; stroke: #000000; stroke-opacity: 0.9; stroke-width: 0.8"/>
     <use xlink:href="#mf0605f8a09" x="391.021398" y="232.242154" style="fill-opacity: 0.9; stroke: #000000; stroke-opacity: 0.9; stroke-width: 0.8"/>
     <use xlink:href="#mf0605f8a09" x="373.050223" y="222.01185" style="fill-opacity: 0.9; stroke: #000000; stroke-opacity: 0.9; stroke-width: 0.8"/>
     <use xlink:href="#mf0605f8a09" x="377.627186" y="244.164687" style="fill-opacity: 0.9; stroke: #000000; stroke-opacity: 0.9; stroke-width: 0.8"/>
     <use xlink:href="#mf0605f8a09" x="372.509488" y="428.010485" style="fill-opacity: 0.9; stroke: #000000; stroke-opacity: 0.9; stroke-width: 0.8"/>
     <use xlink:href="#mf0605f8a09" x="390.750746" y="156.84518" style="fill-opacity: 0.9; stroke: #000000; stroke-opacity: 0.9; stroke-width: 0.8"/>
     <use xlink:href="#mf0605f8a09" x="389.685928" y="137.37754" style="fill-opacity: 0.9; stroke: #000000; stroke-opacity: 0.9; stroke-width: 0.8"/>
     <use xlink:href="#mf0605f8a09" x="375.758027" y="169.680366" style="fill-opacity: 0.9; stroke: #000000; stroke-opacity: 0.9; stroke-width: 0.8"/>
     <use xlink:href="#mf0605f8a09" x="384.798433" y="156.930658" style="fill-opacity: 0.9; stroke: #000000; stroke-opacity: 0.9; stroke-width: 0.8"/>
     <use xlink:href="#mf0605f8a09" x="388.334122" y="109.793349" style="fill-opacity: 0.9; stroke: #000000; stroke-opacity: 0.9; stroke-width: 0.8"/>
     <use xlink:href="#mf0605f8a09" x="382.442256" y="118.64105" style="fill-opacity: 0.9; stroke: #000000; stroke-opacity: 0.9; stroke-width: 0.8"/>
     <use xlink:href="#mf0605f8a09" x="381.867729" y="96.929158" style="fill-opacity: 0.9; stroke: #000000; stroke-opacity: 0.9; stroke-width: 0.8"/>
     <use xlink:href="#mf0605f8a09" x="375.396239" y="111.255902" style="fill-opacity: 0.9; stroke: #000000; stroke-opacity: 0.9; stroke-width: 0.8"/>
     <use xlink:href="#mf0605f8a09" x="372.051427" y="167.307522" style="fill-opacity: 0.9; stroke: #000000; stroke-opacity: 0.9; stroke-width: 0.8"/>
     <use xlink:href="#mf0605f8a09" x="390.132873" y="50.795905" style="fill-opacity: 0.9; stroke: #000000; stroke-opacity: 0.9; stroke-width: 0.8"/>
     <use xlink:href="#mf0605f8a09" x="390.204881" y="226.486214" style="fill-opacity: 0.9; stroke: #000000; stroke-opacity: 0.9; stroke-width: 0.8"/>
     <use xlink:href="#mf0605f8a09" x="384.193946" y="223.857891" style="fill-opacity: 0.9; stroke: #000000; stroke-opacity: 0.9; stroke-width: 0.8"/>
     <use xlink:href="#mf0605f8a09" x="377.581392" y="96.301328" style="fill-opacity: 0.9; stroke: #000000; stroke-opacity: 0.9; stroke-width: 0.8"/>
     <use xlink:href="#mf0605f8a09" x="377.810296" y="295.272802" style="fill-opacity: 0.9; stroke: #000000; stroke-opacity: 0.9; stroke-width: 0.8"/>
     <use xlink:href="#mf0605f8a09" x="386.281885" y="403.161556" style="fill-opacity: 0.9; stroke: #000000; stroke-opacity: 0.9; stroke-width: 0.8"/>
     <use xlink:href="#mf0605f8a09" x="390.130501" y="198.637688" style="fill-opacity: 0.9; stroke: #000000; stroke-opacity: 0.9; stroke-width: 0.8"/>
    </g>
   </g>
   <g id="line2d_110">
    <path d="M 139.47435 195.733382 
L 173.20365 195.733382 
" clip-path="url(#p0bccd0521f)" style="fill: none; stroke: #000000"/>
   </g>
   <g id="line2d_111">
    <path d="M 364.33635 188.155625 
L 398.06565 188.155625 
" clip-path="url(#p0bccd0521f)" style="fill: none; stroke: #000000"/>
   </g>
   <g id="patch_5">
    <path d="M 43.908 475.252 
L 43.908 26.448 
" style="fill: none; stroke: #262626; stroke-linejoin: miter; stroke-linecap: square"/>
   </g>
   <g id="patch_6">
    <path d="M 43.908 475.252 
L 493.632 475.252 
" style="fill: none; stroke: #262626; stroke-linejoin: miter; stroke-linecap: square"/>
   </g>
   <g id="text_13">
    <!-- MoCA Raincloud Plot -->
    <g style="fill: #262626" transform="translate(202.626562 20.448) scale(0.14 -0.14)">
     <defs>
      <path id="ArialMT-20" transform="scale(0.015625)"/>
      <path id="ArialMT-52" d="M 503 0 
L 503 4581 
L 2534 4581 
Q 3147 4581 3465 4457 
Q 3784 4334 3975 4021 
Q 4166 3709 4166 3331 
Q 4166 2844 3850 2509 
Q 3534 2175 2875 2084 
Q 3116 1969 3241 1856 
Q 3506 1613 3744 1247 
L 4541 0 
L 3778 0 
L 3172 953 
Q 2906 1366 2734 1584 
Q 2563 1803 2427 1890 
Q 2291 1978 2150 2013 
Q 2047 2034 1813 2034 
L 1109 2034 
L 1109 0 
L 503 0 
z
M 1109 2559 
L 2413 2559 
Q 2828 2559 3062 2645 
Q 3297 2731 3419 2920 
Q 3541 3109 3541 3331 
Q 3541 3656 3305 3865 
Q 3069 4075 2559 4075 
L 1109 4075 
L 1109 2559 
z
" transform="scale(0.015625)"/>
      <path id="ArialMT-61" d="M 2588 409 
Q 2275 144 1986 34 
Q 1697 -75 1366 -75 
Q 819 -75 525 192 
Q 231 459 231 875 
Q 231 1119 342 1320 
Q 453 1522 633 1644 
Q 813 1766 1038 1828 
Q 1203 1872 1538 1913 
Q 2219 1994 2541 2106 
Q 2544 2222 2544 2253 
Q 2544 2597 2384 2738 
Q 2169 2928 1744 2928 
Q 1347 2928 1158 2789 
Q 969 2650 878 2297 
L 328 2372 
Q 403 2725 575 2942 
Q 747 3159 1072 3276 
Q 1397 3394 1825 3394 
Q 2250 3394 2515 3294 
Q 2781 3194 2906 3042 
Q 3031 2891 3081 2659 
Q 3109 2516 3109 2141 
L 3109 1391 
Q 3109 606 3145 398 
Q 3181 191 3288 0 
L 2700 0 
Q 2613 175 2588 409 
z
M 2541 1666 
Q 2234 1541 1622 1453 
Q 1275 1403 1131 1340 
Q 988 1278 909 1158 
Q 831 1038 831 891 
Q 831 666 1001 516 
Q 1172 366 1500 366 
Q 1825 366 2078 508 
Q 2331 650 2450 897 
Q 2541 1088 2541 1459 
L 2541 1666 
z
" transform="scale(0.015625)"/>
      <path id="ArialMT-69" d="M 425 3934 
L 425 4581 
L 988 4581 
L 988 3934 
L 425 3934 
z
M 425 0 
L 425 3319 
L 988 3319 
L 988 0 
L 425 0 
z
" transform="scale(0.015625)"/>
      <path id="ArialMT-6e" d="M 422 0 
L 422 3319 
L 928 3319 
L 928 2847 
Q 1294 3394 1984 3394 
Q 2284 3394 2536 3286 
Q 2788 3178 2913 3003 
Q 3038 2828 3088 2588 
Q 3119 2431 3119 2041 
L 3119 0 
L 2556 0 
L 2556 2019 
Q 2556 2363 2490 2533 
Q 2425 2703 2258 2804 
Q 2091 2906 1866 2906 
Q 1506 2906 1245 2678 
Q 984 2450 984 1813 
L 984 0 
L 422 0 
z
" transform="scale(0.015625)"/>
      <path id="ArialMT-63" d="M 2588 1216 
L 3141 1144 
Q 3050 572 2676 248 
Q 2303 -75 1759 -75 
Q 1078 -75 664 370 
Q 250 816 250 1647 
Q 250 2184 428 2587 
Q 606 2991 970 3192 
Q 1334 3394 1763 3394 
Q 2303 3394 2647 3120 
Q 2991 2847 3088 2344 
L 2541 2259 
Q 2463 2594 2264 2762 
Q 2066 2931 1784 2931 
Q 1359 2931 1093 2626 
Q 828 2322 828 1663 
Q 828 994 1084 691 
Q 1341 388 1753 388 
Q 2084 388 2306 591 
Q 2528 794 2588 1216 
z
" transform="scale(0.015625)"/>
      <path id="ArialMT-6c" d="M 409 0 
L 409 4581 
L 972 4581 
L 972 0 
L 409 0 
z
" transform="scale(0.015625)"/>
      <path id="ArialMT-75" d="M 2597 0 
L 2597 488 
Q 2209 -75 1544 -75 
Q 1250 -75 995 37 
Q 741 150 617 320 
Q 494 491 444 738 
Q 409 903 409 1263 
L 409 3319 
L 972 3319 
L 972 1478 
Q 972 1038 1006 884 
Q 1059 663 1231 536 
Q 1403 409 1656 409 
Q 1909 409 2131 539 
Q 2353 669 2445 892 
Q 2538 1116 2538 1541 
L 2538 3319 
L 3100 3319 
L 3100 0 
L 2597 0 
z
" transform="scale(0.015625)"/>
      <path id="ArialMT-64" d="M 2575 0 
L 2575 419 
Q 2259 -75 1647 -75 
Q 1250 -75 917 144 
Q 584 363 401 755 
Q 219 1147 219 1656 
Q 219 2153 384 2558 
Q 550 2963 881 3178 
Q 1213 3394 1622 3394 
Q 1922 3394 2156 3267 
Q 2391 3141 2538 2938 
L 2538 4581 
L 3097 4581 
L 3097 0 
L 2575 0 
z
M 797 1656 
Q 797 1019 1065 703 
Q 1334 388 1700 388 
Q 2069 388 2326 689 
Q 2584 991 2584 1609 
Q 2584 2291 2321 2609 
Q 2059 2928 1675 2928 
Q 1300 2928 1048 2622 
Q 797 2316 797 1656 
z
" transform="scale(0.015625)"/>
     </defs>
     <use xlink:href="#ArialMT-4d"/>
     <use xlink:href="#ArialMT-6f" transform="translate(83.300781 0)"/>
     <use xlink:href="#ArialMT-43" transform="translate(138.916016 0)"/>
     <use xlink:href="#ArialMT-41" transform="translate(211.132812 0)"/>
     <use xlink:href="#ArialMT-20" transform="translate(272.332031 0)"/>
     <use xlink:href="#ArialMT-52" transform="translate(300.115234 0)"/>
     <use xlink:href="#ArialMT-61" transform="translate(372.332031 0)"/>
     <use xlink:href="#ArialMT-69" transform="translate(427.947266 0)"/>
     <use xlink:href="#ArialMT-6e" transform="translate(450.164062 0)"/>
     <use xlink:href="#ArialMT-63" transform="translate(505.779297 0)"/>
     <use xlink:href="#ArialMT-6c" transform="translate(555.779297 0)"/>
     <use xlink:href="#ArialMT-6f" transform="translate(577.996094 0)"/>
     <use xlink:href="#ArialMT-75" transform="translate(633.611328 0)"/>
     <use xlink:href="#ArialMT-64" transform="translate(689.226562 0)"/>
     <use xlink:href="#ArialMT-20" transform="translate(744.841797 0)"/>
     <use xlink:href="#ArialMT-50" transform="translate(772.625 0)"/>
     <use xlink:href="#ArialMT-6c" transform="translate(839.324219 0)"/>
     <use xlink:href="#ArialMT-6f" transform="translate(861.541016 0)"/>
     <use xlink:href="#ArialMT-74" transform="translate(917.15625 0)"/>
    </g>
   </g>
   <g id="legend_1">
    <g id="patch_7">
     <path d="M 50.068 70.93475 
L 129.576 70.93475 
Q 131.336 70.93475 131.336 69.17475 
L 131.336 32.608 
Q 131.336 30.848 129.576 30.848 
L 50.068 30.848 
Q 48.308 30.848 48.308 32.608 
L 48.308 69.17475 
Q 48.308 70.93475 50.068 70.93475 
z
" style="fill: #ffffff; opacity: 0.8; stroke: #cccccc; stroke-width: 0.8; stroke-linejoin: miter"/>
    </g>
    <g id="line2d_112">
     <path d="M 51.828 37.586875 
L 60.628 37.586875 
L 69.428 37.586875 
" style="fill: none; stroke: #04e762; stroke-width: 2; stroke-linecap: round"/>
    </g>
    <g id="text_14">
     <!-- Improvement -->
     <g style="fill: #262626" transform="translate(76.468 40.666875) scale(0.088 -0.088)">
      <defs>
       <path id="ArialMT-49" d="M 597 0 
L 597 4581 
L 1203 4581 
L 1203 0 
L 597 0 
z
" transform="scale(0.015625)"/>
       <path id="ArialMT-6d" d="M 422 0 
L 422 3319 
L 925 3319 
L 925 2853 
Q 1081 3097 1340 3245 
Q 1600 3394 1931 3394 
Q 2300 3394 2536 3241 
Q 2772 3088 2869 2813 
Q 3263 3394 3894 3394 
Q 4388 3394 4653 3120 
Q 4919 2847 4919 2278 
L 4919 0 
L 4359 0 
L 4359 2091 
Q 4359 2428 4304 2576 
Q 4250 2725 4106 2815 
Q 3963 2906 3769 2906 
Q 3419 2906 3187 2673 
Q 2956 2441 2956 1928 
L 2956 0 
L 2394 0 
L 2394 2156 
Q 2394 2531 2256 2718 
Q 2119 2906 1806 2906 
Q 1569 2906 1367 2781 
Q 1166 2656 1075 2415 
Q 984 2175 984 1722 
L 984 0 
L 422 0 
z
" transform="scale(0.015625)"/>
       <path id="ArialMT-70" d="M 422 -1272 
L 422 3319 
L 934 3319 
L 934 2888 
Q 1116 3141 1344 3267 
Q 1572 3394 1897 3394 
Q 2322 3394 2647 3175 
Q 2972 2956 3137 2557 
Q 3303 2159 3303 1684 
Q 3303 1175 3120 767 
Q 2938 359 2589 142 
Q 2241 -75 1856 -75 
Q 1575 -75 1351 44 
Q 1128 163 984 344 
L 984 -1272 
L 422 -1272 
z
M 931 1641 
Q 931 1000 1190 694 
Q 1450 388 1819 388 
Q 2194 388 2461 705 
Q 2728 1022 2728 1688 
Q 2728 2322 2467 2637 
Q 2206 2953 1844 2953 
Q 1484 2953 1207 2617 
Q 931 2281 931 1641 
z
" transform="scale(0.015625)"/>
       <path id="ArialMT-76" d="M 1344 0 
L 81 3319 
L 675 3319 
L 1388 1331 
Q 1503 1009 1600 663 
Q 1675 925 1809 1294 
L 2547 3319 
L 3125 3319 
L 1869 0 
L 1344 0 
z
" transform="scale(0.015625)"/>
      </defs>
      <use xlink:href="#ArialMT-49"/>
      <use xlink:href="#ArialMT-6d" transform="translate(27.783203 0)"/>
      <use xlink:href="#ArialMT-70" transform="translate(111.083984 0)"/>
      <use xlink:href="#ArialMT-72" transform="translate(166.699219 0)"/>
      <use xlink:href="#ArialMT-6f" transform="translate(200 0)"/>
      <use xlink:href="#ArialMT-76" transform="translate(255.615234 0)"/>
      <use xlink:href="#ArialMT-65" transform="translate(305.615234 0)"/>
      <use xlink:href="#ArialMT-6d" transform="translate(361.230469 0)"/>
      <use xlink:href="#ArialMT-65" transform="translate(444.53125 0)"/>
      <use xlink:href="#ArialMT-6e" transform="translate(500.146484 0)"/>
      <use xlink:href="#ArialMT-74" transform="translate(555.761719 0)"/>
     </g>
    </g>
    <g id="line2d_113">
     <path d="M 51.828 50.03475 
L 60.628 50.03475 
L 69.428 50.03475 
" style="fill: none; stroke: #ff5714; stroke-width: 2; stroke-linecap: round"/>
    </g>
    <g id="text_15">
     <!-- Deterioration -->
     <g style="fill: #262626" transform="translate(76.468 53.11475) scale(0.088 -0.088)">
      <defs>
       <path id="ArialMT-44" d="M 494 0 
L 494 4581 
L 2072 4581 
Q 2606 4581 2888 4516 
Q 3281 4425 3559 4188 
Q 3922 3881 4101 3404 
Q 4281 2928 4281 2316 
Q 4281 1794 4159 1391 
Q 4038 988 3847 723 
Q 3656 459 3429 307 
Q 3203 156 2883 78 
Q 2563 0 2147 0 
L 494 0 
z
M 1100 541 
L 2078 541 
Q 2531 541 2789 625 
Q 3047 709 3200 863 
Q 3416 1078 3536 1442 
Q 3656 1806 3656 2325 
Q 3656 3044 3420 3430 
Q 3184 3816 2847 3947 
Q 2603 4041 2063 4041 
L 1100 4041 
L 1100 541 
z
" transform="scale(0.015625)"/>
      </defs>
      <use xlink:href="#ArialMT-44"/>
      <use xlink:href="#ArialMT-65" transform="translate(72.216797 0)"/>
      <use xlink:href="#ArialMT-74" transform="translate(127.832031 0)"/>
      <use xlink:href="#ArialMT-65" transform="translate(155.615234 0)"/>
      <use xlink:href="#ArialMT-72" transform="translate(211.230469 0)"/>
      <use xlink:href="#ArialMT-69" transform="translate(244.53125 0)"/>
      <use xlink:href="#ArialMT-6f" transform="translate(266.748047 0)"/>
      <use xlink:href="#ArialMT-72" transform="translate(322.363281 0)"/>
      <use xlink:href="#ArialMT-61" transform="translate(355.664062 0)"/>
      <use xlink:href="#ArialMT-74" transform="translate(411.279297 0)"/>
      <use xlink:href="#ArialMT-69" transform="translate(439.0625 0)"/>
      <use xlink:href="#ArialMT-6f" transform="translate(461.279297 0)"/>
      <use xlink:href="#ArialMT-6e" transform="translate(516.894531 0)"/>
     </g>
    </g>
    <g id="line2d_114">
     <path d="M 51.828 62.482625 
L 60.628 62.482625 
L 69.428 62.482625 
" style="fill: none; stroke: #808080; stroke-width: 2; stroke-linecap: round"/>
    </g>
    <g id="text_16">
     <!-- No change -->
     <g style="fill: #262626" transform="translate(76.468 65.562625) scale(0.088 -0.088)">
      <defs>
       <path id="ArialMT-4e" d="M 488 0 
L 488 4581 
L 1109 4581 
L 3516 984 
L 3516 4581 
L 4097 4581 
L 4097 0 
L 3475 0 
L 1069 3600 
L 1069 0 
L 488 0 
z
" transform="scale(0.015625)"/>
       <path id="ArialMT-68" d="M 422 0 
L 422 4581 
L 984 4581 
L 984 2938 
Q 1378 3394 1978 3394 
Q 2347 3394 2619 3248 
Q 2891 3103 3008 2847 
Q 3125 2591 3125 2103 
L 3125 0 
L 2563 0 
L 2563 2103 
Q 2563 2525 2380 2717 
Q 2197 2909 1863 2909 
Q 1613 2909 1392 2779 
Q 1172 2650 1078 2428 
Q 984 2206 984 1816 
L 984 0 
L 422 0 
z
" transform="scale(0.015625)"/>
       <path id="ArialMT-67" d="M 319 -275 
L 866 -356 
Q 900 -609 1056 -725 
Q 1266 -881 1628 -881 
Q 2019 -881 2231 -725 
Q 2444 -569 2519 -288 
Q 2563 -116 2559 434 
Q 2191 0 1641 0 
Q 956 0 581 494 
Q 206 988 206 1678 
Q 206 2153 378 2554 
Q 550 2956 876 3175 
Q 1203 3394 1644 3394 
Q 2231 3394 2613 2919 
L 2613 3319 
L 3131 3319 
L 3131 450 
Q 3131 -325 2973 -648 
Q 2816 -972 2473 -1159 
Q 2131 -1347 1631 -1347 
Q 1038 -1347 672 -1080 
Q 306 -813 319 -275 
z
M 784 1719 
Q 784 1066 1043 766 
Q 1303 466 1694 466 
Q 2081 466 2343 764 
Q 2606 1063 2606 1700 
Q 2606 2309 2336 2618 
Q 2066 2928 1684 2928 
Q 1309 2928 1046 2623 
Q 784 2319 784 1719 
z
" transform="scale(0.015625)"/>
      </defs>
      <use xlink:href="#ArialMT-4e"/>
      <use xlink:href="#ArialMT-6f" transform="translate(72.216797 0)"/>
      <use xlink:href="#ArialMT-20" transform="translate(127.832031 0)"/>
      <use xlink:href="#ArialMT-63" transform="translate(155.615234 0)"/>
      <use xlink:href="#ArialMT-68" transform="translate(205.615234 0)"/>
      <use xlink:href="#ArialMT-61" transform="translate(261.230469 0)"/>
      <use xlink:href="#ArialMT-6e" transform="translate(316.845703 0)"/>
      <use xlink:href="#ArialMT-67" transform="translate(372.460938 0)"/>
      <use xlink:href="#ArialMT-65" transform="translate(428.076172 0)"/>
     </g>
    </g>
   </g>
  </g>
 </g>
 <defs>
  <clipPath id="p0bccd0521f">
   <rect x="43.908" y="26.448" width="449.724" height="448.804"/>
  </clipPath>
 </defs>
</svg>
