<?xml version="1.0" encoding="utf-8" standalone="no"?>
<!DOCTYPE svg PUBLIC "-//W3C//DTD SVG 1.1//EN"
  "http://www.w3.org/Graphics/SVG/1.1/DTD/svg11.dtd">
<svg xmlns:xlink="http://www.w3.org/1999/xlink" width="576pt" height="432pt" viewBox="0 0 576 432" xmlns="http://www.w3.org/2000/svg" version="1.1">
 <metadata>
  <rdf:RDF xmlns:dc="http://purl.org/dc/elements/1.1/" xmlns:cc="http://creativecommons.org/ns#" xmlns:rdf="http://www.w3.org/1999/02/22-rdf-syntax-ns#">
   <cc:Work>
    <dc:type rdf:resource="http://purl.org/dc/dcmitype/StillImage"/>
    <dc:date>2025-10-17T20:15:09.163864</dc:date>
    <dc:format>image/svg+xml</dc:format>
    <dc:creator>
     <cc:Agent>
      <dc:title>Matplotlib v3.10.0, https://matplotlib.org/</dc:title>
     </cc:Agent>
    </dc:creator>
   </cc:Work>
  </rdf:RDF>
 </metadata>
 <defs>
  <style type="text/css">*{stroke-linejoin: round; stroke-linecap: butt}</style>
 </defs>
 <g id="figure_1">
  <g id="patch_1">
   <path d="M 0 432 
L 576 432 
L 576 0 
L 0 0 
z
" style="fill: #ffffff"/>
  </g>
  <g id="axes_1">
   <g id="patch_2">
    <path d="M 46.878 387.012 
L 565.632 387.012 
L 565.632 27.168 
L 46.878 27.168 
z
" style="fill: #ffffff"/>
   </g>
   <g id="matplotlib.axis_1">
    <g id="xtick_1">
     <g id="line2d_1">
      <defs>
       <path id="m41749e4ebe" d="M 0 0 
L 0 4.8 
" style="stroke: #262626"/>
      </defs>
      <g>
       <use xlink:href="#m41749e4ebe" x="106.73423" y="387.012" style="fill: #262626; stroke: #262626"/>
      </g>
     </g>
     <g id="text_1">
      <!-- 18 -->
      <g style="fill: #262626" transform="translate(101.13523 401.998625) scale(0.088 -0.088)">
       <defs>
        <path id="DejaVuSans-31" d="M 794 531 
L 1825 531 
L 1825 4091 
L 703 3866 
L 703 4441 
L 1819 4666 
L 2450 4666 
L 2450 531 
L 3481 531 
L 3481 0 
L 794 0 
L 794 531 
z
" transform="scale(0.015625)"/>
        <path id="DejaVuSans-38" d="M 2034 2216 
Q 1584 2216 1326 1975 
Q 1069 1734 1069 1313 
Q 1069 891 1326 650 
Q 1584 409 2034 409 
Q 2484 409 2743 651 
Q 3003 894 3003 1313 
Q 3003 1734 2745 1975 
Q 2488 2216 2034 2216 
z
M 1403 2484 
Q 997 2584 770 2862 
Q 544 3141 544 3541 
Q 544 4100 942 4425 
Q 1341 4750 2034 4750 
Q 2731 4750 3128 4425 
Q 3525 4100 3525 3541 
Q 3525 3141 3298 2862 
Q 3072 2584 2669 2484 
Q 3125 2378 3379 2068 
Q 3634 1759 3634 1313 
Q 3634 634 3220 271 
Q 2806 -91 2034 -91 
Q 1263 -91 848 271 
Q 434 634 434 1313 
Q 434 1759 690 2068 
Q 947 2378 1403 2484 
z
M 1172 3481 
Q 1172 3119 1398 2916 
Q 1625 2713 2034 2713 
Q 2441 2713 2670 2916 
Q 2900 3119 2900 3481 
Q 2900 3844 2670 4047 
Q 2441 4250 2034 4250 
Q 1625 4250 1398 4047 
Q 1172 3844 1172 3481 
z
" transform="scale(0.015625)"/>
       </defs>
       <use xlink:href="#DejaVuSans-31"/>
       <use xlink:href="#DejaVuSans-38" transform="translate(63.623047 0)"/>
      </g>
     </g>
    </g>
    <g id="xtick_2">
     <g id="line2d_2">
      <g>
       <use xlink:href="#m41749e4ebe" x="179.287237" y="387.012" style="fill: #262626; stroke: #262626"/>
      </g>
     </g>
     <g id="text_2">
      <!-- 20 -->
      <g style="fill: #262626" transform="translate(173.688237 401.998625) scale(0.088 -0.088)">
       <defs>
        <path id="DejaVuSans-32" d="M 1228 531 
L 3431 531 
L 3431 0 
L 469 0 
L 469 531 
Q 828 903 1448 1529 
Q 2069 2156 2228 2338 
Q 2531 2678 2651 2914 
Q 2772 3150 2772 3378 
Q 2772 3750 2511 3984 
Q 2250 4219 1831 4219 
Q 1534 4219 1204 4116 
Q 875 4013 500 3803 
L 500 4441 
Q 881 4594 1212 4672 
Q 1544 4750 1819 4750 
Q 2544 4750 2975 4387 
Q 3406 4025 3406 3419 
Q 3406 3131 3298 2873 
Q 3191 2616 2906 2266 
Q 2828 2175 2409 1742 
Q 1991 1309 1228 531 
z
" transform="scale(0.015625)"/>
        <path id="DejaVuSans-30" d="M 2034 4250 
Q 1547 4250 1301 3770 
Q 1056 3291 1056 2328 
Q 1056 1369 1301 889 
Q 1547 409 2034 409 
Q 2525 409 2770 889 
Q 3016 1369 3016 2328 
Q 3016 3291 2770 3770 
Q 2525 4250 2034 4250 
z
M 2034 4750 
Q 2819 4750 3233 4129 
Q 3647 3509 3647 2328 
Q 3647 1150 3233 529 
Q 2819 -91 2034 -91 
Q 1250 -91 836 529 
Q 422 1150 422 2328 
Q 422 3509 836 4129 
Q 1250 4750 2034 4750 
z
" transform="scale(0.015625)"/>
       </defs>
       <use xlink:href="#DejaVuSans-32"/>
       <use xlink:href="#DejaVuSans-30" transform="translate(63.623047 0)"/>
      </g>
     </g>
    </g>
    <g id="xtick_3">
     <g id="line2d_3">
      <g>
       <use xlink:href="#m41749e4ebe" x="251.840244" y="387.012" style="fill: #262626; stroke: #262626"/>
      </g>
     </g>
     <g id="text_3">
      <!-- 22 -->
      <g style="fill: #262626" transform="translate(246.241244 401.998625) scale(0.088 -0.088)">
       <use xlink:href="#DejaVuSans-32"/>
       <use xlink:href="#DejaVuSans-32" transform="translate(63.623047 0)"/>
      </g>
     </g>
    </g>
    <g id="xtick_4">
     <g id="line2d_4">
      <g>
       <use xlink:href="#m41749e4ebe" x="324.393251" y="387.012" style="fill: #262626; stroke: #262626"/>
      </g>
     </g>
     <g id="text_4">
      <!-- 24 -->
      <g style="fill: #262626" transform="translate(318.794251 401.998625) scale(0.088 -0.088)">
       <defs>
        <path id="DejaVuSans-34" d="M 2419 4116 
L 825 1625 
L 2419 1625 
L 2419 4116 
z
M 2253 4666 
L 3047 4666 
L 3047 1625 
L 3713 1625 
L 3713 1100 
L 3047 1100 
L 3047 0 
L 2419 0 
L 2419 1100 
L 313 1100 
L 313 1709 
L 2253 4666 
z
" transform="scale(0.015625)"/>
       </defs>
       <use xlink:href="#DejaVuSans-32"/>
       <use xlink:href="#DejaVuSans-34" transform="translate(63.623047 0)"/>
      </g>
     </g>
    </g>
    <g id="xtick_5">
     <g id="line2d_5">
      <g>
       <use xlink:href="#m41749e4ebe" x="396.946259" y="387.012" style="fill: #262626; stroke: #262626"/>
      </g>
     </g>
     <g id="text_5">
      <!-- 26 -->
      <g style="fill: #262626" transform="translate(391.347259 401.998625) scale(0.088 -0.088)">
       <defs>
        <path id="DejaVuSans-36" d="M 2113 2584 
Q 1688 2584 1439 2293 
Q 1191 2003 1191 1497 
Q 1191 994 1439 701 
Q 1688 409 2113 409 
Q 2538 409 2786 701 
Q 3034 994 3034 1497 
Q 3034 2003 2786 2293 
Q 2538 2584 2113 2584 
z
M 3366 4563 
L 3366 3988 
Q 3128 4100 2886 4159 
Q 2644 4219 2406 4219 
Q 1781 4219 1451 3797 
Q 1122 3375 1075 2522 
Q 1259 2794 1537 2939 
Q 1816 3084 2150 3084 
Q 2853 3084 3261 2657 
Q 3669 2231 3669 1497 
Q 3669 778 3244 343 
Q 2819 -91 2113 -91 
Q 1303 -91 875 529 
Q 447 1150 447 2328 
Q 447 3434 972 4092 
Q 1497 4750 2381 4750 
Q 2619 4750 2861 4703 
Q 3103 4656 3366 4563 
z
" transform="scale(0.015625)"/>
       </defs>
       <use xlink:href="#DejaVuSans-32"/>
       <use xlink:href="#DejaVuSans-36" transform="translate(63.623047 0)"/>
      </g>
     </g>
    </g>
    <g id="xtick_6">
     <g id="line2d_6">
      <g>
       <use xlink:href="#m41749e4ebe" x="469.499266" y="387.012" style="fill: #262626; stroke: #262626"/>
      </g>
     </g>
     <g id="text_6">
      <!-- 28 -->
      <g style="fill: #262626" transform="translate(463.900266 401.998625) scale(0.088 -0.088)">
       <use xlink:href="#DejaVuSans-32"/>
       <use xlink:href="#DejaVuSans-38" transform="translate(63.623047 0)"/>
      </g>
     </g>
    </g>
    <g id="xtick_7">
     <g id="line2d_7">
      <g>
       <use xlink:href="#m41749e4ebe" x="542.052273" y="387.012" style="fill: #262626; stroke: #262626"/>
      </g>
     </g>
     <g id="text_7">
      <!-- 30 -->
      <g style="fill: #262626" transform="translate(536.453273 401.998625) scale(0.088 -0.088)">
       <defs>
        <path id="DejaVuSans-33" d="M 2597 2516 
Q 3050 2419 3304 2112 
Q 3559 1806 3559 1356 
Q 3559 666 3084 287 
Q 2609 -91 1734 -91 
Q 1441 -91 1130 -33 
Q 819 25 488 141 
L 488 750 
Q 750 597 1062 519 
Q 1375 441 1716 441 
Q 2309 441 2620 675 
Q 2931 909 2931 1356 
Q 2931 1769 2642 2001 
Q 2353 2234 1838 2234 
L 1294 2234 
L 1294 2753 
L 1863 2753 
Q 2328 2753 2575 2939 
Q 2822 3125 2822 3475 
Q 2822 3834 2567 4026 
Q 2313 4219 1838 4219 
Q 1578 4219 1281 4162 
Q 984 4106 628 3988 
L 628 4550 
Q 988 4650 1302 4700 
Q 1616 4750 1894 4750 
Q 2613 4750 3031 4423 
Q 3450 4097 3450 3541 
Q 3450 3153 3228 2886 
Q 3006 2619 2597 2516 
z
" transform="scale(0.015625)"/>
       </defs>
       <use xlink:href="#DejaVuSans-33"/>
       <use xlink:href="#DejaVuSans-30" transform="translate(63.623047 0)"/>
      </g>
     </g>
    </g>
    <g id="xtick_8">
     <g id="line2d_8">
      <defs>
       <path id="mf6b14ab82e" d="M 0 0 
L 0 4 
" style="stroke: #d3d3d3; stroke-width: 0.8"/>
      </defs>
      <g>
       <use xlink:href="#mf6b14ab82e" x="70.457726" y="387.012" style="fill: #d3d3d3; stroke: #d3d3d3; stroke-width: 0.8"/>
      </g>
     </g>
    </g>
    <g id="xtick_9">
     <g id="line2d_9">
      <g>
       <use xlink:href="#mf6b14ab82e" x="143.010733" y="387.012" style="fill: #d3d3d3; stroke: #d3d3d3; stroke-width: 0.8"/>
      </g>
     </g>
    </g>
    <g id="xtick_10">
     <g id="line2d_10">
      <g>
       <use xlink:href="#mf6b14ab82e" x="215.563741" y="387.012" style="fill: #d3d3d3; stroke: #d3d3d3; stroke-width: 0.8"/>
      </g>
     </g>
    </g>
    <g id="xtick_11">
     <g id="line2d_11">
      <g>
       <use xlink:href="#mf6b14ab82e" x="288.116748" y="387.012" style="fill: #d3d3d3; stroke: #d3d3d3; stroke-width: 0.8"/>
      </g>
     </g>
    </g>
    <g id="xtick_12">
     <g id="line2d_12">
      <g>
       <use xlink:href="#mf6b14ab82e" x="360.669755" y="387.012" style="fill: #d3d3d3; stroke: #d3d3d3; stroke-width: 0.8"/>
      </g>
     </g>
    </g>
    <g id="xtick_13">
     <g id="line2d_13">
      <g>
       <use xlink:href="#mf6b14ab82e" x="433.222762" y="387.012" style="fill: #d3d3d3; stroke: #d3d3d3; stroke-width: 0.8"/>
      </g>
     </g>
    </g>
    <g id="xtick_14">
     <g id="line2d_14">
      <g>
       <use xlink:href="#mf6b14ab82e" x="505.77577" y="387.012" style="fill: #d3d3d3; stroke: #d3d3d3; stroke-width: 0.8"/>
      </g>
     </g>
    </g>
    <g id="text_8">
     <!-- Actual MoCA Sum Post -->
     <g style="fill: #262626" transform="translate(238.59 416.946875) scale(0.12 -0.12)">
      <defs>
       <path id="DejaVuSans-41" d="M 2188 4044 
L 1331 1722 
L 3047 1722 
L 2188 4044 
z
M 1831 4666 
L 2547 4666 
L 4325 0 
L 3669 0 
L 3244 1197 
L 1141 1197 
L 716 0 
L 50 0 
L 1831 4666 
z
" transform="scale(0.015625)"/>
       <path id="DejaVuSans-63" d="M 3122 3366 
L 3122 2828 
Q 2878 2963 2633 3030 
Q 2388 3097 2138 3097 
Q 1578 3097 1268 2742 
Q 959 2388 959 1747 
Q 959 1106 1268 751 
Q 1578 397 2138 397 
Q 2388 397 2633 464 
Q 2878 531 3122 666 
L 3122 134 
Q 2881 22 2623 -34 
Q 2366 -91 2075 -91 
Q 1284 -91 818 406 
Q 353 903 353 1747 
Q 353 2603 823 3093 
Q 1294 3584 2113 3584 
Q 2378 3584 2631 3529 
Q 2884 3475 3122 3366 
z
" transform="scale(0.015625)"/>
       <path id="DejaVuSans-74" d="M 1172 4494 
L 1172 3500 
L 2356 3500 
L 2356 3053 
L 1172 3053 
L 1172 1153 
Q 1172 725 1289 603 
Q 1406 481 1766 481 
L 2356 481 
L 2356 0 
L 1766 0 
Q 1100 0 847 248 
Q 594 497 594 1153 
L 594 3053 
L 172 3053 
L 172 3500 
L 594 3500 
L 594 4494 
L 1172 4494 
z
" transform="scale(0.015625)"/>
       <path id="DejaVuSans-75" d="M 544 1381 
L 544 3500 
L 1119 3500 
L 1119 1403 
Q 1119 906 1312 657 
Q 1506 409 1894 409 
Q 2359 409 2629 706 
Q 2900 1003 2900 1516 
L 2900 3500 
L 3475 3500 
L 3475 0 
L 2900 0 
L 2900 538 
Q 2691 219 2414 64 
Q 2138 -91 1772 -91 
Q 1169 -91 856 284 
Q 544 659 544 1381 
z
M 1991 3584 
L 1991 3584 
z
" transform="scale(0.015625)"/>
       <path id="DejaVuSans-61" d="M 2194 1759 
Q 1497 1759 1228 1600 
Q 959 1441 959 1056 
Q 959 750 1161 570 
Q 1363 391 1709 391 
Q 2188 391 2477 730 
Q 2766 1069 2766 1631 
L 2766 1759 
L 2194 1759 
z
M 3341 1997 
L 3341 0 
L 2766 0 
L 2766 531 
Q 2569 213 2275 61 
Q 1981 -91 1556 -91 
Q 1019 -91 701 211 
Q 384 513 384 1019 
Q 384 1609 779 1909 
Q 1175 2209 1959 2209 
L 2766 2209 
L 2766 2266 
Q 2766 2663 2505 2880 
Q 2244 3097 1772 3097 
Q 1472 3097 1187 3025 
Q 903 2953 641 2809 
L 641 3341 
Q 956 3463 1253 3523 
Q 1550 3584 1831 3584 
Q 2591 3584 2966 3190 
Q 3341 2797 3341 1997 
z
" transform="scale(0.015625)"/>
       <path id="DejaVuSans-6c" d="M 603 4863 
L 1178 4863 
L 1178 0 
L 603 0 
L 603 4863 
z
" transform="scale(0.015625)"/>
       <path id="DejaVuSans-20" transform="scale(0.015625)"/>
       <path id="DejaVuSans-4d" d="M 628 4666 
L 1569 4666 
L 2759 1491 
L 3956 4666 
L 4897 4666 
L 4897 0 
L 4281 0 
L 4281 4097 
L 3078 897 
L 2444 897 
L 1241 4097 
L 1241 0 
L 628 0 
L 628 4666 
z
" transform="scale(0.015625)"/>
       <path id="DejaVuSans-6f" d="M 1959 3097 
Q 1497 3097 1228 2736 
Q 959 2375 959 1747 
Q 959 1119 1226 758 
Q 1494 397 1959 397 
Q 2419 397 2687 759 
Q 2956 1122 2956 1747 
Q 2956 2369 2687 2733 
Q 2419 3097 1959 3097 
z
M 1959 3584 
Q 2709 3584 3137 3096 
Q 3566 2609 3566 1747 
Q 3566 888 3137 398 
Q 2709 -91 1959 -91 
Q 1206 -91 779 398 
Q 353 888 353 1747 
Q 353 2609 779 3096 
Q 1206 3584 1959 3584 
z
" transform="scale(0.015625)"/>
       <path id="DejaVuSans-43" d="M 4122 4306 
L 4122 3641 
Q 3803 3938 3442 4084 
Q 3081 4231 2675 4231 
Q 1875 4231 1450 3742 
Q 1025 3253 1025 2328 
Q 1025 1406 1450 917 
Q 1875 428 2675 428 
Q 3081 428 3442 575 
Q 3803 722 4122 1019 
L 4122 359 
Q 3791 134 3420 21 
Q 3050 -91 2638 -91 
Q 1578 -91 968 557 
Q 359 1206 359 2328 
Q 359 3453 968 4101 
Q 1578 4750 2638 4750 
Q 3056 4750 3426 4639 
Q 3797 4528 4122 4306 
z
" transform="scale(0.015625)"/>
       <path id="DejaVuSans-53" d="M 3425 4513 
L 3425 3897 
Q 3066 4069 2747 4153 
Q 2428 4238 2131 4238 
Q 1616 4238 1336 4038 
Q 1056 3838 1056 3469 
Q 1056 3159 1242 3001 
Q 1428 2844 1947 2747 
L 2328 2669 
Q 3034 2534 3370 2195 
Q 3706 1856 3706 1288 
Q 3706 609 3251 259 
Q 2797 -91 1919 -91 
Q 1588 -91 1214 -16 
Q 841 59 441 206 
L 441 856 
Q 825 641 1194 531 
Q 1563 422 1919 422 
Q 2459 422 2753 634 
Q 3047 847 3047 1241 
Q 3047 1584 2836 1778 
Q 2625 1972 2144 2069 
L 1759 2144 
Q 1053 2284 737 2584 
Q 422 2884 422 3419 
Q 422 4038 858 4394 
Q 1294 4750 2059 4750 
Q 2388 4750 2728 4690 
Q 3069 4631 3425 4513 
z
" transform="scale(0.015625)"/>
       <path id="DejaVuSans-6d" d="M 3328 2828 
Q 3544 3216 3844 3400 
Q 4144 3584 4550 3584 
Q 5097 3584 5394 3201 
Q 5691 2819 5691 2113 
L 5691 0 
L 5113 0 
L 5113 2094 
Q 5113 2597 4934 2840 
Q 4756 3084 4391 3084 
Q 3944 3084 3684 2787 
Q 3425 2491 3425 1978 
L 3425 0 
L 2847 0 
L 2847 2094 
Q 2847 2600 2669 2842 
Q 2491 3084 2119 3084 
Q 1678 3084 1418 2786 
Q 1159 2488 1159 1978 
L 1159 0 
L 581 0 
L 581 3500 
L 1159 3500 
L 1159 2956 
Q 1356 3278 1631 3431 
Q 1906 3584 2284 3584 
Q 2666 3584 2933 3390 
Q 3200 3197 3328 2828 
z
" transform="scale(0.015625)"/>
       <path id="DejaVuSans-50" d="M 1259 4147 
L 1259 2394 
L 2053 2394 
Q 2494 2394 2734 2622 
Q 2975 2850 2975 3272 
Q 2975 3691 2734 3919 
Q 2494 4147 2053 4147 
L 1259 4147 
z
M 628 4666 
L 2053 4666 
Q 2838 4666 3239 4311 
Q 3641 3956 3641 3272 
Q 3641 2581 3239 2228 
Q 2838 1875 2053 1875 
L 1259 1875 
L 1259 0 
L 628 0 
L 628 4666 
z
" transform="scale(0.015625)"/>
       <path id="DejaVuSans-73" d="M 2834 3397 
L 2834 2853 
Q 2591 2978 2328 3040 
Q 2066 3103 1784 3103 
Q 1356 3103 1142 2972 
Q 928 2841 928 2578 
Q 928 2378 1081 2264 
Q 1234 2150 1697 2047 
L 1894 2003 
Q 2506 1872 2764 1633 
Q 3022 1394 3022 966 
Q 3022 478 2636 193 
Q 2250 -91 1575 -91 
Q 1294 -91 989 -36 
Q 684 19 347 128 
L 347 722 
Q 666 556 975 473 
Q 1284 391 1588 391 
Q 1994 391 2212 530 
Q 2431 669 2431 922 
Q 2431 1156 2273 1281 
Q 2116 1406 1581 1522 
L 1381 1569 
Q 847 1681 609 1914 
Q 372 2147 372 2553 
Q 372 3047 722 3315 
Q 1072 3584 1716 3584 
Q 2034 3584 2315 3537 
Q 2597 3491 2834 3397 
z
" transform="scale(0.015625)"/>
      </defs>
      <use xlink:href="#DejaVuSans-41"/>
      <use xlink:href="#DejaVuSans-63" transform="translate(66.658203 0)"/>
      <use xlink:href="#DejaVuSans-74" transform="translate(121.638672 0)"/>
      <use xlink:href="#DejaVuSans-75" transform="translate(160.847656 0)"/>
      <use xlink:href="#DejaVuSans-61" transform="translate(224.226562 0)"/>
      <use xlink:href="#DejaVuSans-6c" transform="translate(285.505859 0)"/>
      <use xlink:href="#DejaVuSans-20" transform="translate(313.289062 0)"/>
      <use xlink:href="#DejaVuSans-4d" transform="translate(345.076172 0)"/>
      <use xlink:href="#DejaVuSans-6f" transform="translate(431.355469 0)"/>
      <use xlink:href="#DejaVuSans-43" transform="translate(492.537109 0)"/>
      <use xlink:href="#DejaVuSans-41" transform="translate(562.361328 0)"/>
      <use xlink:href="#DejaVuSans-20" transform="translate(630.769531 0)"/>
      <use xlink:href="#DejaVuSans-53" transform="translate(662.556641 0)"/>
      <use xlink:href="#DejaVuSans-75" transform="translate(726.033203 0)"/>
      <use xlink:href="#DejaVuSans-6d" transform="translate(789.412109 0)"/>
      <use xlink:href="#DejaVuSans-20" transform="translate(886.824219 0)"/>
      <use xlink:href="#DejaVuSans-50" transform="translate(918.611328 0)"/>
      <use xlink:href="#DejaVuSans-6f" transform="translate(975.289062 0)"/>
      <use xlink:href="#DejaVuSans-73" transform="translate(1036.470703 0)"/>
      <use xlink:href="#DejaVuSans-74" transform="translate(1088.570312 0)"/>
     </g>
    </g>
   </g>
   <g id="matplotlib.axis_2">
    <g id="ytick_1">
     <g id="line2d_15">
      <defs>
       <path id="m1574c9d9fa" d="M 0 0 
L -4.8 0 
" style="stroke: #262626"/>
      </defs>
      <g>
       <use xlink:href="#m1574c9d9fa" x="46.878" y="345.491539" style="fill: #262626; stroke: #262626"/>
      </g>
     </g>
     <g id="text_9">
      <!-- 18 -->
      <g style="fill: #262626" transform="translate(27.38 348.834852) scale(0.088 -0.088)">
       <use xlink:href="#DejaVuSans-31"/>
       <use xlink:href="#DejaVuSans-38" transform="translate(63.623047 0)"/>
      </g>
     </g>
    </g>
    <g id="ytick_2">
     <g id="line2d_16">
      <g>
       <use xlink:href="#m1574c9d9fa" x="46.878" y="295.163707" style="fill: #262626; stroke: #262626"/>
      </g>
     </g>
     <g id="text_10">
      <!-- 20 -->
      <g style="fill: #262626" transform="translate(27.38 298.507019) scale(0.088 -0.088)">
       <use xlink:href="#DejaVuSans-32"/>
       <use xlink:href="#DejaVuSans-30" transform="translate(63.623047 0)"/>
      </g>
     </g>
    </g>
    <g id="ytick_3">
     <g id="line2d_17">
      <g>
       <use xlink:href="#m1574c9d9fa" x="46.878" y="244.835874" style="fill: #262626; stroke: #262626"/>
      </g>
     </g>
     <g id="text_11">
      <!-- 22 -->
      <g style="fill: #262626" transform="translate(27.38 248.179187) scale(0.088 -0.088)">
       <use xlink:href="#DejaVuSans-32"/>
       <use xlink:href="#DejaVuSans-32" transform="translate(63.623047 0)"/>
      </g>
     </g>
    </g>
    <g id="ytick_4">
     <g id="line2d_18">
      <g>
       <use xlink:href="#m1574c9d9fa" x="46.878" y="194.508042" style="fill: #262626; stroke: #262626"/>
      </g>
     </g>
     <g id="text_12">
      <!-- 24 -->
      <g style="fill: #262626" transform="translate(27.38 197.851355) scale(0.088 -0.088)">
       <use xlink:href="#DejaVuSans-32"/>
       <use xlink:href="#DejaVuSans-34" transform="translate(63.623047 0)"/>
      </g>
     </g>
    </g>
    <g id="ytick_5">
     <g id="line2d_19">
      <g>
       <use xlink:href="#m1574c9d9fa" x="46.878" y="144.18021" style="fill: #262626; stroke: #262626"/>
      </g>
     </g>
     <g id="text_13">
      <!-- 26 -->
      <g style="fill: #262626" transform="translate(27.38 147.523522) scale(0.088 -0.088)">
       <use xlink:href="#DejaVuSans-32"/>
       <use xlink:href="#DejaVuSans-36" transform="translate(63.623047 0)"/>
      </g>
     </g>
    </g>
    <g id="ytick_6">
     <g id="line2d_20">
      <g>
       <use xlink:href="#m1574c9d9fa" x="46.878" y="93.852377" style="fill: #262626; stroke: #262626"/>
      </g>
     </g>
     <g id="text_14">
      <!-- 28 -->
      <g style="fill: #262626" transform="translate(27.38 97.19569) scale(0.088 -0.088)">
       <use xlink:href="#DejaVuSans-32"/>
       <use xlink:href="#DejaVuSans-38" transform="translate(63.623047 0)"/>
      </g>
     </g>
    </g>
    <g id="ytick_7">
     <g id="line2d_21">
      <g>
       <use xlink:href="#m1574c9d9fa" x="46.878" y="43.524545" style="fill: #262626; stroke: #262626"/>
      </g>
     </g>
     <g id="text_15">
      <!-- 30 -->
      <g style="fill: #262626" transform="translate(27.38 46.867858) scale(0.088 -0.088)">
       <use xlink:href="#DejaVuSans-33"/>
       <use xlink:href="#DejaVuSans-30" transform="translate(63.623047 0)"/>
      </g>
     </g>
    </g>
    <g id="ytick_8">
     <g id="line2d_22">
      <defs>
       <path id="macefa6ba46" d="M 0 0 
L -4 0 
" style="stroke: #d3d3d3; stroke-width: 0.8"/>
      </defs>
      <g>
       <use xlink:href="#macefa6ba46" x="46.878" y="370.655455" style="fill: #d3d3d3; stroke: #d3d3d3; stroke-width: 0.8"/>
      </g>
     </g>
    </g>
    <g id="ytick_9">
     <g id="line2d_23">
      <g>
       <use xlink:href="#macefa6ba46" x="46.878" y="320.327623" style="fill: #d3d3d3; stroke: #d3d3d3; stroke-width: 0.8"/>
      </g>
     </g>
    </g>
    <g id="ytick_10">
     <g id="line2d_24">
      <g>
       <use xlink:href="#macefa6ba46" x="46.878" y="269.999791" style="fill: #d3d3d3; stroke: #d3d3d3; stroke-width: 0.8"/>
      </g>
     </g>
    </g>
    <g id="ytick_11">
     <g id="line2d_25">
      <g>
       <use xlink:href="#macefa6ba46" x="46.878" y="219.671958" style="fill: #d3d3d3; stroke: #d3d3d3; stroke-width: 0.8"/>
      </g>
     </g>
    </g>
    <g id="ytick_12">
     <g id="line2d_26">
      <g>
       <use xlink:href="#macefa6ba46" x="46.878" y="169.344126" style="fill: #d3d3d3; stroke: #d3d3d3; stroke-width: 0.8"/>
      </g>
     </g>
    </g>
    <g id="ytick_13">
     <g id="line2d_27">
      <g>
       <use xlink:href="#macefa6ba46" x="46.878" y="119.016294" style="fill: #d3d3d3; stroke: #d3d3d3; stroke-width: 0.8"/>
      </g>
     </g>
    </g>
    <g id="ytick_14">
     <g id="line2d_28">
      <g>
       <use xlink:href="#macefa6ba46" x="46.878" y="68.688461" style="fill: #d3d3d3; stroke: #d3d3d3; stroke-width: 0.8"/>
      </g>
     </g>
    </g>
    <g id="text_16">
     <!-- Predicted MoCA Sum Post -->
     <g style="fill: #262626" transform="translate(20.884375 284.1225) rotate(-90) scale(0.12 -0.12)">
      <defs>
       <path id="DejaVuSans-72" d="M 2631 2963 
Q 2534 3019 2420 3045 
Q 2306 3072 2169 3072 
Q 1681 3072 1420 2755 
Q 1159 2438 1159 1844 
L 1159 0 
L 581 0 
L 581 3500 
L 1159 3500 
L 1159 2956 
Q 1341 3275 1631 3429 
Q 1922 3584 2338 3584 
Q 2397 3584 2469 3576 
Q 2541 3569 2628 3553 
L 2631 2963 
z
" transform="scale(0.015625)"/>
       <path id="DejaVuSans-65" d="M 3597 1894 
L 3597 1613 
L 953 1613 
Q 991 1019 1311 708 
Q 1631 397 2203 397 
Q 2534 397 2845 478 
Q 3156 559 3463 722 
L 3463 178 
Q 3153 47 2828 -22 
Q 2503 -91 2169 -91 
Q 1331 -91 842 396 
Q 353 884 353 1716 
Q 353 2575 817 3079 
Q 1281 3584 2069 3584 
Q 2775 3584 3186 3129 
Q 3597 2675 3597 1894 
z
M 3022 2063 
Q 3016 2534 2758 2815 
Q 2500 3097 2075 3097 
Q 1594 3097 1305 2825 
Q 1016 2553 972 2059 
L 3022 2063 
z
" transform="scale(0.015625)"/>
       <path id="DejaVuSans-64" d="M 2906 2969 
L 2906 4863 
L 3481 4863 
L 3481 0 
L 2906 0 
L 2906 525 
Q 2725 213 2448 61 
Q 2172 -91 1784 -91 
Q 1150 -91 751 415 
Q 353 922 353 1747 
Q 353 2572 751 3078 
Q 1150 3584 1784 3584 
Q 2172 3584 2448 3432 
Q 2725 3281 2906 2969 
z
M 947 1747 
Q 947 1113 1208 752 
Q 1469 391 1925 391 
Q 2381 391 2643 752 
Q 2906 1113 2906 1747 
Q 2906 2381 2643 2742 
Q 2381 3103 1925 3103 
Q 1469 3103 1208 2742 
Q 947 2381 947 1747 
z
" transform="scale(0.015625)"/>
       <path id="DejaVuSans-69" d="M 603 3500 
L 1178 3500 
L 1178 0 
L 603 0 
L 603 3500 
z
M 603 4863 
L 1178 4863 
L 1178 4134 
L 603 4134 
L 603 4863 
z
" transform="scale(0.015625)"/>
      </defs>
      <use xlink:href="#DejaVuSans-50"/>
      <use xlink:href="#DejaVuSans-72" transform="translate(58.552734 0)"/>
      <use xlink:href="#DejaVuSans-65" transform="translate(97.416016 0)"/>
      <use xlink:href="#DejaVuSans-64" transform="translate(158.939453 0)"/>
      <use xlink:href="#DejaVuSans-69" transform="translate(222.416016 0)"/>
      <use xlink:href="#DejaVuSans-63" transform="translate(250.199219 0)"/>
      <use xlink:href="#DejaVuSans-74" transform="translate(305.179688 0)"/>
      <use xlink:href="#DejaVuSans-65" transform="translate(344.388672 0)"/>
      <use xlink:href="#DejaVuSans-64" transform="translate(405.912109 0)"/>
      <use xlink:href="#DejaVuSans-20" transform="translate(469.388672 0)"/>
      <use xlink:href="#DejaVuSans-4d" transform="translate(501.175781 0)"/>
      <use xlink:href="#DejaVuSans-6f" transform="translate(587.455078 0)"/>
      <use xlink:href="#DejaVuSans-43" transform="translate(648.636719 0)"/>
      <use xlink:href="#DejaVuSans-41" transform="translate(718.460938 0)"/>
      <use xlink:href="#DejaVuSans-20" transform="translate(786.869141 0)"/>
      <use xlink:href="#DejaVuSans-53" transform="translate(818.65625 0)"/>
      <use xlink:href="#DejaVuSans-75" transform="translate(882.132812 0)"/>
      <use xlink:href="#DejaVuSans-6d" transform="translate(945.511719 0)"/>
      <use xlink:href="#DejaVuSans-20" transform="translate(1042.923828 0)"/>
      <use xlink:href="#DejaVuSans-50" transform="translate(1074.710938 0)"/>
      <use xlink:href="#DejaVuSans-6f" transform="translate(1131.388672 0)"/>
      <use xlink:href="#DejaVuSans-73" transform="translate(1192.570312 0)"/>
      <use xlink:href="#DejaVuSans-74" transform="translate(1244.669922 0)"/>
     </g>
    </g>
   </g>
   <g id="PathCollection_1">
    <defs>
     <path id="m16c0634803" d="M 0 2.4 
C 0.636487 2.4 1.246992 2.147121 1.697056 1.697056 
C 2.147121 1.246992 2.4 0.636487 2.4 0 
C 2.4 -0.636487 2.147121 -1.246992 1.697056 -1.697056 
C 1.246992 -2.147121 0.636487 -2.4 0 -2.4 
C -0.636487 -2.4 -1.246992 -2.147121 -1.697056 -1.697056 
C -2.147121 -1.246992 -2.4 -0.636487 -2.4 0 
C -2.4 0.636487 -2.147121 1.246992 -1.697056 1.697056 
C -1.246992 2.147121 -0.636487 2.4 0 2.4 
z
" style="stroke: #ffffff; stroke-opacity: 0.7; stroke-width: 0.384"/>
    </defs>
    <g clip-path="url(#pc1122cbcde)">
     <use xlink:href="#m16c0634803" x="360.669755" y="145.235811" style="fill: #4c72b0; fill-opacity: 0.7; stroke: #ffffff; stroke-opacity: 0.7; stroke-width: 0.384"/>
     <use xlink:href="#m16c0634803" x="70.457727" y="174.381941" style="fill: #4c72b0; fill-opacity: 0.7; stroke: #ffffff; stroke-opacity: 0.7; stroke-width: 0.384"/>
     <use xlink:href="#m16c0634803" x="360.669755" y="117.166124" style="fill: #4c72b0; fill-opacity: 0.7; stroke: #ffffff; stroke-opacity: 0.7; stroke-width: 0.384"/>
     <use xlink:href="#m16c0634803" x="469.499266" y="141.13488" style="fill: #4c72b0; fill-opacity: 0.7; stroke: #ffffff; stroke-opacity: 0.7; stroke-width: 0.384"/>
     <use xlink:href="#m16c0634803" x="324.393252" y="183.081115" style="fill: #4c72b0; fill-opacity: 0.7; stroke: #ffffff; stroke-opacity: 0.7; stroke-width: 0.384"/>
     <use xlink:href="#m16c0634803" x="251.840245" y="244.911065" style="fill: #4c72b0; fill-opacity: 0.7; stroke: #ffffff; stroke-opacity: 0.7; stroke-width: 0.384"/>
     <use xlink:href="#m16c0634803" x="542.052273" y="172.722723" style="fill: #4c72b0; fill-opacity: 0.7; stroke: #ffffff; stroke-opacity: 0.7; stroke-width: 0.384"/>
     <use xlink:href="#m16c0634803" x="542.052273" y="128.611411" style="fill: #4c72b0; fill-opacity: 0.7; stroke: #ffffff; stroke-opacity: 0.7; stroke-width: 0.384"/>
     <use xlink:href="#m16c0634803" x="215.563741" y="260.529882" style="fill: #4c72b0; fill-opacity: 0.7; stroke: #ffffff; stroke-opacity: 0.7; stroke-width: 0.384"/>
     <use xlink:href="#m16c0634803" x="542.052273" y="127.99054" style="fill: #4c72b0; fill-opacity: 0.7; stroke: #ffffff; stroke-opacity: 0.7; stroke-width: 0.384"/>
     <use xlink:href="#m16c0634803" x="505.775769" y="143.377247" style="fill: #4c72b0; fill-opacity: 0.7; stroke: #ffffff; stroke-opacity: 0.7; stroke-width: 0.384"/>
     <use xlink:href="#m16c0634803" x="179.287238" y="209.889663" style="fill: #4c72b0; fill-opacity: 0.7; stroke: #ffffff; stroke-opacity: 0.7; stroke-width: 0.384"/>
     <use xlink:href="#m16c0634803" x="469.499266" y="158.68232" style="fill: #4c72b0; fill-opacity: 0.7; stroke: #ffffff; stroke-opacity: 0.7; stroke-width: 0.384"/>
     <use xlink:href="#m16c0634803" x="106.734231" y="159.194957" style="fill: #4c72b0; fill-opacity: 0.7; stroke: #ffffff; stroke-opacity: 0.7; stroke-width: 0.384"/>
     <use xlink:href="#m16c0634803" x="288.116748" y="237.266727" style="fill: #4c72b0; fill-opacity: 0.7; stroke: #ffffff; stroke-opacity: 0.7; stroke-width: 0.384"/>
     <use xlink:href="#m16c0634803" x="469.499266" y="167.071031" style="fill: #4c72b0; fill-opacity: 0.7; stroke: #ffffff; stroke-opacity: 0.7; stroke-width: 0.384"/>
     <use xlink:href="#m16c0634803" x="215.563741" y="176.808615" style="fill: #4c72b0; fill-opacity: 0.7; stroke: #ffffff; stroke-opacity: 0.7; stroke-width: 0.384"/>
     <use xlink:href="#m16c0634803" x="179.287238" y="269.515568" style="fill: #4c72b0; fill-opacity: 0.7; stroke: #ffffff; stroke-opacity: 0.7; stroke-width: 0.384"/>
     <use xlink:href="#m16c0634803" x="469.499266" y="151.926737" style="fill: #4c72b0; fill-opacity: 0.7; stroke: #ffffff; stroke-opacity: 0.7; stroke-width: 0.384"/>
     <use xlink:href="#m16c0634803" x="469.499266" y="192.256514" style="fill: #4c72b0; fill-opacity: 0.7; stroke: #ffffff; stroke-opacity: 0.7; stroke-width: 0.384"/>
     <use xlink:href="#m16c0634803" x="360.669755" y="166.484806" style="fill: #4c72b0; fill-opacity: 0.7; stroke: #ffffff; stroke-opacity: 0.7; stroke-width: 0.384"/>
     <use xlink:href="#m16c0634803" x="469.499266" y="127.586862" style="fill: #4c72b0; fill-opacity: 0.7; stroke: #ffffff; stroke-opacity: 0.7; stroke-width: 0.384"/>
     <use xlink:href="#m16c0634803" x="433.222762" y="126.122453" style="fill: #4c72b0; fill-opacity: 0.7; stroke: #ffffff; stroke-opacity: 0.7; stroke-width: 0.384"/>
     <use xlink:href="#m16c0634803" x="179.287238" y="226.155825" style="fill: #4c72b0; fill-opacity: 0.7; stroke: #ffffff; stroke-opacity: 0.7; stroke-width: 0.384"/>
     <use xlink:href="#m16c0634803" x="469.499266" y="103.095964" style="fill: #4c72b0; fill-opacity: 0.7; stroke: #ffffff; stroke-opacity: 0.7; stroke-width: 0.384"/>
     <use xlink:href="#m16c0634803" x="324.393252" y="212.730364" style="fill: #4c72b0; fill-opacity: 0.7; stroke: #ffffff; stroke-opacity: 0.7; stroke-width: 0.384"/>
     <use xlink:href="#m16c0634803" x="542.052273" y="133.893665" style="fill: #4c72b0; fill-opacity: 0.7; stroke: #ffffff; stroke-opacity: 0.7; stroke-width: 0.384"/>
     <use xlink:href="#m16c0634803" x="143.010734" y="198.791646" style="fill: #4c72b0; fill-opacity: 0.7; stroke: #ffffff; stroke-opacity: 0.7; stroke-width: 0.384"/>
     <use xlink:href="#m16c0634803" x="433.222762" y="162.697236" style="fill: #4c72b0; fill-opacity: 0.7; stroke: #ffffff; stroke-opacity: 0.7; stroke-width: 0.384"/>
     <use xlink:href="#m16c0634803" x="542.052273" y="102.239522" style="fill: #4c72b0; fill-opacity: 0.7; stroke: #ffffff; stroke-opacity: 0.7; stroke-width: 0.384"/>
     <use xlink:href="#m16c0634803" x="542.052273" y="94.750948" style="fill: #4c72b0; fill-opacity: 0.7; stroke: #ffffff; stroke-opacity: 0.7; stroke-width: 0.384"/>
     <use xlink:href="#m16c0634803" x="469.499266" y="133.962173" style="fill: #4c72b0; fill-opacity: 0.7; stroke: #ffffff; stroke-opacity: 0.7; stroke-width: 0.384"/>
     <use xlink:href="#m16c0634803" x="542.052273" y="85.244902" style="fill: #4c72b0; fill-opacity: 0.7; stroke: #ffffff; stroke-opacity: 0.7; stroke-width: 0.384"/>
     <use xlink:href="#m16c0634803" x="469.499266" y="133.869242" style="fill: #4c72b0; fill-opacity: 0.7; stroke: #ffffff; stroke-opacity: 0.7; stroke-width: 0.384"/>
     <use xlink:href="#m16c0634803" x="433.222762" y="137.606039" style="fill: #4c72b0; fill-opacity: 0.7; stroke: #ffffff; stroke-opacity: 0.7; stroke-width: 0.384"/>
     <use xlink:href="#m16c0634803" x="469.499266" y="142.252351" style="fill: #4c72b0; fill-opacity: 0.7; stroke: #ffffff; stroke-opacity: 0.7; stroke-width: 0.384"/>
     <use xlink:href="#m16c0634803" x="360.669755" y="168.969474" style="fill: #4c72b0; fill-opacity: 0.7; stroke: #ffffff; stroke-opacity: 0.7; stroke-width: 0.384"/>
     <use xlink:href="#m16c0634803" x="179.287238" y="166.125689" style="fill: #4c72b0; fill-opacity: 0.7; stroke: #ffffff; stroke-opacity: 0.7; stroke-width: 0.384"/>
     <use xlink:href="#m16c0634803" x="396.946259" y="114.94415" style="fill: #4c72b0; fill-opacity: 0.7; stroke: #ffffff; stroke-opacity: 0.7; stroke-width: 0.384"/>
     <use xlink:href="#m16c0634803" x="106.734231" y="223.099884" style="fill: #4c72b0; fill-opacity: 0.7; stroke: #ffffff; stroke-opacity: 0.7; stroke-width: 0.384"/>
     <use xlink:href="#m16c0634803" x="396.946259" y="165.215351" style="fill: #4c72b0; fill-opacity: 0.7; stroke: #ffffff; stroke-opacity: 0.7; stroke-width: 0.384"/>
     <use xlink:href="#m16c0634803" x="469.499266" y="169.046716" style="fill: #4c72b0; fill-opacity: 0.7; stroke: #ffffff; stroke-opacity: 0.7; stroke-width: 0.384"/>
     <use xlink:href="#m16c0634803" x="505.775769" y="65.000101" style="fill: #4c72b0; fill-opacity: 0.7; stroke: #ffffff; stroke-opacity: 0.7; stroke-width: 0.384"/>
     <use xlink:href="#m16c0634803" x="469.499266" y="117.241513" style="fill: #4c72b0; fill-opacity: 0.7; stroke: #ffffff; stroke-opacity: 0.7; stroke-width: 0.384"/>
     <use xlink:href="#m16c0634803" x="469.499266" y="120.749821" style="fill: #4c72b0; fill-opacity: 0.7; stroke: #ffffff; stroke-opacity: 0.7; stroke-width: 0.384"/>
     <use xlink:href="#m16c0634803" x="396.946259" y="132.381422" style="fill: #4c72b0; fill-opacity: 0.7; stroke: #ffffff; stroke-opacity: 0.7; stroke-width: 0.384"/>
     <use xlink:href="#m16c0634803" x="469.499266" y="210.099152" style="fill: #4c72b0; fill-opacity: 0.7; stroke: #ffffff; stroke-opacity: 0.7; stroke-width: 0.384"/>
     <use xlink:href="#m16c0634803" x="251.840245" y="105.568673" style="fill: #4c72b0; fill-opacity: 0.7; stroke: #ffffff; stroke-opacity: 0.7; stroke-width: 0.384"/>
     <use xlink:href="#m16c0634803" x="288.116748" y="136.405437" style="fill: #4c72b0; fill-opacity: 0.7; stroke: #ffffff; stroke-opacity: 0.7; stroke-width: 0.384"/>
     <use xlink:href="#m16c0634803" x="542.052273" y="130.603084" style="fill: #4c72b0; fill-opacity: 0.7; stroke: #ffffff; stroke-opacity: 0.7; stroke-width: 0.384"/>
     <use xlink:href="#m16c0634803" x="542.052273" y="169.537357" style="fill: #4c72b0; fill-opacity: 0.7; stroke: #ffffff; stroke-opacity: 0.7; stroke-width: 0.384"/>
     <use xlink:href="#m16c0634803" x="505.775769" y="103.390804" style="fill: #4c72b0; fill-opacity: 0.7; stroke: #ffffff; stroke-opacity: 0.7; stroke-width: 0.384"/>
     <use xlink:href="#m16c0634803" x="433.222762" y="165.406394" style="fill: #4c72b0; fill-opacity: 0.7; stroke: #ffffff; stroke-opacity: 0.7; stroke-width: 0.384"/>
     <use xlink:href="#m16c0634803" x="396.946259" y="229.71357" style="fill: #4c72b0; fill-opacity: 0.7; stroke: #ffffff; stroke-opacity: 0.7; stroke-width: 0.384"/>
     <use xlink:href="#m16c0634803" x="469.499266" y="77.306104" style="fill: #4c72b0; fill-opacity: 0.7; stroke: #ffffff; stroke-opacity: 0.7; stroke-width: 0.384"/>
     <use xlink:href="#m16c0634803" x="324.393252" y="121.742297" style="fill: #4c72b0; fill-opacity: 0.7; stroke: #ffffff; stroke-opacity: 0.7; stroke-width: 0.384"/>
     <use xlink:href="#m16c0634803" x="215.563741" y="150.865765" style="fill: #4c72b0; fill-opacity: 0.7; stroke: #ffffff; stroke-opacity: 0.7; stroke-width: 0.384"/>
     <use xlink:href="#m16c0634803" x="324.393252" y="175.44446" style="fill: #4c72b0; fill-opacity: 0.7; stroke: #ffffff; stroke-opacity: 0.7; stroke-width: 0.384"/>
     <use xlink:href="#m16c0634803" x="542.052273" y="139.947361" style="fill: #4c72b0; fill-opacity: 0.7; stroke: #ffffff; stroke-opacity: 0.7; stroke-width: 0.384"/>
     <use xlink:href="#m16c0634803" x="505.775769" y="86.437187" style="fill: #4c72b0; fill-opacity: 0.7; stroke: #ffffff; stroke-opacity: 0.7; stroke-width: 0.384"/>
     <use xlink:href="#m16c0634803" x="542.052273" y="131.677274" style="fill: #4c72b0; fill-opacity: 0.7; stroke: #ffffff; stroke-opacity: 0.7; stroke-width: 0.384"/>
     <use xlink:href="#m16c0634803" x="360.669755" y="159.709033" style="fill: #4c72b0; fill-opacity: 0.7; stroke: #ffffff; stroke-opacity: 0.7; stroke-width: 0.384"/>
     <use xlink:href="#m16c0634803" x="542.052273" y="85.470274" style="fill: #4c72b0; fill-opacity: 0.7; stroke: #ffffff; stroke-opacity: 0.7; stroke-width: 0.384"/>
     <use xlink:href="#m16c0634803" x="360.669755" y="90.006225" style="fill: #4c72b0; fill-opacity: 0.7; stroke: #ffffff; stroke-opacity: 0.7; stroke-width: 0.384"/>
     <use xlink:href="#m16c0634803" x="251.840245" y="112.306529" style="fill: #4c72b0; fill-opacity: 0.7; stroke: #ffffff; stroke-opacity: 0.7; stroke-width: 0.384"/>
     <use xlink:href="#m16c0634803" x="251.840245" y="118.931059" style="fill: #4c72b0; fill-opacity: 0.7; stroke: #ffffff; stroke-opacity: 0.7; stroke-width: 0.384"/>
     <use xlink:href="#m16c0634803" x="542.052273" y="122.746253" style="fill: #4c72b0; fill-opacity: 0.7; stroke: #ffffff; stroke-opacity: 0.7; stroke-width: 0.384"/>
     <use xlink:href="#m16c0634803" x="360.669755" y="148.072887" style="fill: #4c72b0; fill-opacity: 0.7; stroke: #ffffff; stroke-opacity: 0.7; stroke-width: 0.384"/>
     <use xlink:href="#m16c0634803" x="360.669755" y="115.852726" style="fill: #4c72b0; fill-opacity: 0.7; stroke: #ffffff; stroke-opacity: 0.7; stroke-width: 0.384"/>
     <use xlink:href="#m16c0634803" x="542.052273" y="54.736988" style="fill: #4c72b0; fill-opacity: 0.7; stroke: #ffffff; stroke-opacity: 0.7; stroke-width: 0.384"/>
     <use xlink:href="#m16c0634803" x="433.222762" y="170.915619" style="fill: #4c72b0; fill-opacity: 0.7; stroke: #ffffff; stroke-opacity: 0.7; stroke-width: 0.384"/>
     <use xlink:href="#m16c0634803" x="433.222762" y="115.621852" style="fill: #4c72b0; fill-opacity: 0.7; stroke: #ffffff; stroke-opacity: 0.7; stroke-width: 0.384"/>
     <use xlink:href="#m16c0634803" x="469.499266" y="96.786211" style="fill: #4c72b0; fill-opacity: 0.7; stroke: #ffffff; stroke-opacity: 0.7; stroke-width: 0.384"/>
     <use xlink:href="#m16c0634803" x="360.669755" y="243.666296" style="fill: #4c72b0; fill-opacity: 0.7; stroke: #ffffff; stroke-opacity: 0.7; stroke-width: 0.384"/>
     <use xlink:href="#m16c0634803" x="360.669755" y="151.20744" style="fill: #4c72b0; fill-opacity: 0.7; stroke: #ffffff; stroke-opacity: 0.7; stroke-width: 0.384"/>
     <use xlink:href="#m16c0634803" x="469.499266" y="109.692257" style="fill: #4c72b0; fill-opacity: 0.7; stroke: #ffffff; stroke-opacity: 0.7; stroke-width: 0.384"/>
     <use xlink:href="#m16c0634803" x="433.222762" y="140.523326" style="fill: #4c72b0; fill-opacity: 0.7; stroke: #ffffff; stroke-opacity: 0.7; stroke-width: 0.384"/>
     <use xlink:href="#m16c0634803" x="542.052273" y="85.373858" style="fill: #4c72b0; fill-opacity: 0.7; stroke: #ffffff; stroke-opacity: 0.7; stroke-width: 0.384"/>
     <use xlink:href="#m16c0634803" x="251.840245" y="174.298566" style="fill: #4c72b0; fill-opacity: 0.7; stroke: #ffffff; stroke-opacity: 0.7; stroke-width: 0.384"/>
     <use xlink:href="#m16c0634803" x="396.946259" y="131.136109" style="fill: #4c72b0; fill-opacity: 0.7; stroke: #ffffff; stroke-opacity: 0.7; stroke-width: 0.384"/>
     <use xlink:href="#m16c0634803" x="288.116748" y="141.398828" style="fill: #4c72b0; fill-opacity: 0.7; stroke: #ffffff; stroke-opacity: 0.7; stroke-width: 0.384"/>
     <use xlink:href="#m16c0634803" x="215.563741" y="106.384756" style="fill: #4c72b0; fill-opacity: 0.7; stroke: #ffffff; stroke-opacity: 0.7; stroke-width: 0.384"/>
     <use xlink:href="#m16c0634803" x="542.052273" y="137.53911" style="fill: #4c72b0; fill-opacity: 0.7; stroke: #ffffff; stroke-opacity: 0.7; stroke-width: 0.384"/>
     <use xlink:href="#m16c0634803" x="433.222762" y="122.328445" style="fill: #4c72b0; fill-opacity: 0.7; stroke: #ffffff; stroke-opacity: 0.7; stroke-width: 0.384"/>
     <use xlink:href="#m16c0634803" x="396.946259" y="177.520398" style="fill: #4c72b0; fill-opacity: 0.7; stroke: #ffffff; stroke-opacity: 0.7; stroke-width: 0.384"/>
     <use xlink:href="#m16c0634803" x="360.669755" y="87.292966" style="fill: #4c72b0; fill-opacity: 0.7; stroke: #ffffff; stroke-opacity: 0.7; stroke-width: 0.384"/>
     <use xlink:href="#m16c0634803" x="433.222762" y="110.591726" style="fill: #4c72b0; fill-opacity: 0.7; stroke: #ffffff; stroke-opacity: 0.7; stroke-width: 0.384"/>
     <use xlink:href="#m16c0634803" x="324.393252" y="169.768043" style="fill: #4c72b0; fill-opacity: 0.7; stroke: #ffffff; stroke-opacity: 0.7; stroke-width: 0.384"/>
     <use xlink:href="#m16c0634803" x="505.775769" y="162.938187" style="fill: #4c72b0; fill-opacity: 0.7; stroke: #ffffff; stroke-opacity: 0.7; stroke-width: 0.384"/>
     <use xlink:href="#m16c0634803" x="469.499266" y="129.91009" style="fill: #4c72b0; fill-opacity: 0.7; stroke: #ffffff; stroke-opacity: 0.7; stroke-width: 0.384"/>
     <use xlink:href="#m16c0634803" x="542.052273" y="105.52362" style="fill: #4c72b0; fill-opacity: 0.7; stroke: #ffffff; stroke-opacity: 0.7; stroke-width: 0.384"/>
     <use xlink:href="#m16c0634803" x="505.775769" y="192.128466" style="fill: #4c72b0; fill-opacity: 0.7; stroke: #ffffff; stroke-opacity: 0.7; stroke-width: 0.384"/>
     <use xlink:href="#m16c0634803" x="469.499266" y="105.825012" style="fill: #4c72b0; fill-opacity: 0.7; stroke: #ffffff; stroke-opacity: 0.7; stroke-width: 0.384"/>
     <use xlink:href="#m16c0634803" x="360.669755" y="133.852266" style="fill: #4c72b0; fill-opacity: 0.7; stroke: #ffffff; stroke-opacity: 0.7; stroke-width: 0.384"/>
     <use xlink:href="#m16c0634803" x="433.222762" y="129.551821" style="fill: #4c72b0; fill-opacity: 0.7; stroke: #ffffff; stroke-opacity: 0.7; stroke-width: 0.384"/>
     <use xlink:href="#m16c0634803" x="360.669755" y="102.093694" style="fill: #4c72b0; fill-opacity: 0.7; stroke: #ffffff; stroke-opacity: 0.7; stroke-width: 0.384"/>
     <use xlink:href="#m16c0634803" x="433.222762" y="167.802617" style="fill: #4c72b0; fill-opacity: 0.7; stroke: #ffffff; stroke-opacity: 0.7; stroke-width: 0.384"/>
     <use xlink:href="#m16c0634803" x="469.499266" y="92.908671" style="fill: #4c72b0; fill-opacity: 0.7; stroke: #ffffff; stroke-opacity: 0.7; stroke-width: 0.384"/>
     <use xlink:href="#m16c0634803" x="433.222762" y="141.272889" style="fill: #4c72b0; fill-opacity: 0.7; stroke: #ffffff; stroke-opacity: 0.7; stroke-width: 0.384"/>
     <use xlink:href="#m16c0634803" x="542.052273" y="131.190697" style="fill: #4c72b0; fill-opacity: 0.7; stroke: #ffffff; stroke-opacity: 0.7; stroke-width: 0.384"/>
     <use xlink:href="#m16c0634803" x="433.222762" y="145.442214" style="fill: #4c72b0; fill-opacity: 0.7; stroke: #ffffff; stroke-opacity: 0.7; stroke-width: 0.384"/>
     <use xlink:href="#m16c0634803" x="106.734231" y="126.740196" style="fill: #4c72b0; fill-opacity: 0.7; stroke: #ffffff; stroke-opacity: 0.7; stroke-width: 0.384"/>
     <use xlink:href="#m16c0634803" x="360.669755" y="140.450852" style="fill: #4c72b0; fill-opacity: 0.7; stroke: #ffffff; stroke-opacity: 0.7; stroke-width: 0.384"/>
     <use xlink:href="#m16c0634803" x="433.222762" y="123.443723" style="fill: #4c72b0; fill-opacity: 0.7; stroke: #ffffff; stroke-opacity: 0.7; stroke-width: 0.384"/>
     <use xlink:href="#m16c0634803" x="505.775769" y="100.268598" style="fill: #4c72b0; fill-opacity: 0.7; stroke: #ffffff; stroke-opacity: 0.7; stroke-width: 0.384"/>
     <use xlink:href="#m16c0634803" x="505.775769" y="124.79456" style="fill: #4c72b0; fill-opacity: 0.7; stroke: #ffffff; stroke-opacity: 0.7; stroke-width: 0.384"/>
     <use xlink:href="#m16c0634803" x="288.116748" y="116.721561" style="fill: #4c72b0; fill-opacity: 0.7; stroke: #ffffff; stroke-opacity: 0.7; stroke-width: 0.384"/>
     <use xlink:href="#m16c0634803" x="542.052273" y="78.971406" style="fill: #4c72b0; fill-opacity: 0.7; stroke: #ffffff; stroke-opacity: 0.7; stroke-width: 0.384"/>
     <use xlink:href="#m16c0634803" x="360.669755" y="110.99728" style="fill: #4c72b0; fill-opacity: 0.7; stroke: #ffffff; stroke-opacity: 0.7; stroke-width: 0.384"/>
     <use xlink:href="#m16c0634803" x="433.222762" y="106.785368" style="fill: #4c72b0; fill-opacity: 0.7; stroke: #ffffff; stroke-opacity: 0.7; stroke-width: 0.384"/>
     <use xlink:href="#m16c0634803" x="505.775769" y="136.216386" style="fill: #4c72b0; fill-opacity: 0.7; stroke: #ffffff; stroke-opacity: 0.7; stroke-width: 0.384"/>
     <use xlink:href="#m16c0634803" x="505.775769" y="149.200266" style="fill: #4c72b0; fill-opacity: 0.7; stroke: #ffffff; stroke-opacity: 0.7; stroke-width: 0.384"/>
     <use xlink:href="#m16c0634803" x="215.563741" y="160.541134" style="fill: #4c72b0; fill-opacity: 0.7; stroke: #ffffff; stroke-opacity: 0.7; stroke-width: 0.384"/>
     <use xlink:href="#m16c0634803" x="396.946259" y="148.613494" style="fill: #4c72b0; fill-opacity: 0.7; stroke: #ffffff; stroke-opacity: 0.7; stroke-width: 0.384"/>
     <use xlink:href="#m16c0634803" x="433.222762" y="100.212786" style="fill: #4c72b0; fill-opacity: 0.7; stroke: #ffffff; stroke-opacity: 0.7; stroke-width: 0.384"/>
     <use xlink:href="#m16c0634803" x="179.287238" y="155.139764" style="fill: #4c72b0; fill-opacity: 0.7; stroke: #ffffff; stroke-opacity: 0.7; stroke-width: 0.384"/>
     <use xlink:href="#m16c0634803" x="360.669755" y="78.89925" style="fill: #4c72b0; fill-opacity: 0.7; stroke: #ffffff; stroke-opacity: 0.7; stroke-width: 0.384"/>
    </g>
   </g>
   <g id="FillBetweenPolyCollection_1">
    <defs>
     <path id="m492f6ac8f4" d="M 70.457727 -259.456009 
L 70.457727 -212.117548 
L 75.221309 -213.237151 
L 79.98489 -214.379618 
L 84.748471 -215.468989 
L 89.512052 -216.465202 
L 94.275634 -217.461415 
L 99.039215 -218.492443 
L 103.802796 -219.627599 
L 108.566377 -220.767398 
L 113.329959 -221.907198 
L 118.09354 -223.046997 
L 122.857121 -224.186796 
L 127.620702 -225.231551 
L 132.384284 -226.308038 
L 137.147865 -227.42262 
L 141.911446 -228.537202 
L 146.675028 -229.651784 
L 151.438609 -230.766932 
L 156.20219 -231.795976 
L 160.965771 -232.794441 
L 165.729353 -233.792907 
L 170.492934 -234.819739 
L 175.256515 -235.918772 
L 180.020096 -237.02412 
L 184.783678 -238.149617 
L 189.547259 -239.275113 
L 194.31084 -240.400609 
L 199.074421 -241.526105 
L 203.838003 -242.651601 
L 208.601584 -243.777097 
L 213.365165 -244.902593 
L 218.128747 -246.028089 
L 222.892328 -247.106002 
L 227.655909 -248.159332 
L 232.41949 -249.12138 
L 237.183072 -250.200721 
L 241.946653 -251.30095 
L 246.710234 -252.386452 
L 251.473815 -253.460769 
L 256.237397 -254.465868 
L 261.000978 -255.433821 
L 265.764559 -256.513122 
L 270.52814 -257.606519 
L 275.291722 -258.453925 
L 280.055303 -259.602607 
L 284.818884 -260.637793 
L 289.582466 -261.478004 
L 294.346047 -262.373263 
L 299.109628 -263.393368 
L 303.873209 -264.408268 
L 308.636791 -265.30986 
L 313.400372 -266.38421 
L 318.163953 -267.303506 
L 322.927534 -268.347465 
L 327.691116 -269.304903 
L 332.454697 -270.117947 
L 337.218278 -271.198183 
L 341.98186 -272.222227 
L 346.745441 -273.150724 
L 351.509022 -274.031722 
L 356.272603 -274.960825 
L 361.036185 -275.850679 
L 365.799766 -276.671752 
L 370.563347 -277.621072 
L 375.326928 -278.587287 
L 380.09051 -279.585608 
L 384.854091 -280.483357 
L 389.617672 -281.354587 
L 394.381253 -282.262265 
L 399.144835 -283.14012 
L 403.908416 -284.037269 
L 408.671997 -284.895548 
L 413.435579 -285.621822 
L 418.19916 -286.525763 
L 422.962741 -287.202065 
L 427.726322 -287.93021 
L 432.489904 -288.665557 
L 437.253485 -289.276037 
L 442.017066 -290.025909 
L 446.780647 -290.758648 
L 451.544229 -291.520494 
L 456.30781 -292.32638 
L 461.071391 -293.070827 
L 465.834972 -293.619503 
L 470.598554 -294.338433 
L 475.362135 -295.010373 
L 480.125716 -295.592279 
L 484.889298 -296.184597 
L 489.652879 -296.817342 
L 494.41646 -297.441538 
L 499.180041 -298.056002 
L 503.943623 -298.671776 
L 508.707204 -299.287789 
L 513.470785 -299.90069 
L 518.234366 -300.505384 
L 522.997948 -301.075446 
L 527.761529 -301.643304 
L 532.52511 -302.162725 
L 537.288691 -302.870199 
L 542.052273 -303.567341 
L 542.052273 -322.865014 
L 542.052273 -322.865014 
L 537.288691 -321.903016 
L 532.52511 -320.85055 
L 527.761529 -319.90049 
L 522.997948 -318.873233 
L 518.234366 -317.950731 
L 513.470785 -316.953603 
L 508.707204 -315.954685 
L 503.943623 -314.989745 
L 499.180041 -314.085986 
L 494.41646 -313.121865 
L 489.652879 -312.169482 
L 484.889298 -311.361222 
L 480.125716 -310.55445 
L 475.362135 -309.632352 
L 470.598554 -308.743419 
L 465.834972 -307.822527 
L 461.071391 -306.901635 
L 456.30781 -306.020158 
L 451.544229 -305.199354 
L 446.780647 -304.284728 
L 442.017066 -303.464904 
L 437.253485 -302.82729 
L 432.489904 -302.188438 
L 427.726322 -301.35231 
L 422.962741 -300.524449 
L 418.19916 -299.723158 
L 413.435579 -298.994288 
L 408.671997 -298.294132 
L 403.908416 -297.559645 
L 399.144835 -296.812982 
L 394.381253 -296.127029 
L 389.617672 -295.427002 
L 384.854091 -294.729165 
L 380.09051 -293.943889 
L 375.326928 -293.344104 
L 370.563347 -292.797206 
L 365.799766 -292.293258 
L 361.036185 -291.894244 
L 356.272603 -291.223952 
L 351.509022 -290.566476 
L 346.745441 -289.981099 
L 341.98186 -289.448146 
L 337.218278 -288.961996 
L 332.454697 -288.413933 
L 327.691116 -287.891701 
L 322.927534 -287.393753 
L 318.163953 -286.875804 
L 313.400372 -286.333298 
L 308.636791 -285.716112 
L 303.873209 -284.963365 
L 299.109628 -284.300572 
L 294.346047 -283.735351 
L 289.582466 -283.393846 
L 284.818884 -283.02677 
L 280.055303 -282.401175 
L 275.291722 -281.7752 
L 270.52814 -281.272964 
L 265.764559 -280.827118 
L 261.000978 -280.170492 
L 256.237397 -279.445502 
L 251.473815 -278.844425 
L 246.710234 -278.307634 
L 241.946653 -277.773547 
L 237.183072 -277.242532 
L 232.41949 -276.763077 
L 227.655909 -276.328073 
L 222.892328 -275.891796 
L 218.128747 -275.454333 
L 213.365165 -274.918498 
L 208.601584 -274.413599 
L 203.838003 -273.944757 
L 199.074421 -273.475915 
L 194.31084 -273.007073 
L 189.547259 -272.53823 
L 184.783678 -272.069388 
L 180.020096 -271.599381 
L 175.256515 -271.127888 
L 170.492934 -270.656395 
L 165.729353 -270.184903 
L 160.965771 -269.712654 
L 156.20219 -269.136414 
L 151.438609 -268.535703 
L 146.675028 -267.991277 
L 141.911446 -267.532838 
L 137.147865 -267.063089 
L 132.384284 -266.524438 
L 127.620702 -265.985274 
L 122.857121 -265.443906 
L 118.09354 -264.902539 
L 113.329959 -264.361171 
L 108.566377 -263.819804 
L 103.802796 -263.278436 
L 99.039215 -262.737069 
L 94.275634 -262.186905 
L 89.512052 -261.622531 
L 84.748471 -261.058157 
L 79.98489 -260.493782 
L 75.221309 -259.945183 
L 70.457727 -259.456009 
z
" style="stroke: #ffffff; stroke-opacity: 0.15; stroke-width: 0.8"/>
    </defs>
    <g clip-path="url(#pc1122cbcde)">
     <use xlink:href="#m492f6ac8f4" x="0" y="432" style="fill: #808080; fill-opacity: 0.15; stroke: #ffffff; stroke-opacity: 0.15; stroke-width: 0.8"/>
    </g>
   </g>
   <g id="FillBetweenPolyCollection_2">
    <defs>
     <path id="m17063816ad" d="M 70.457727 -259.720508 
L 70.457727 -212.812975 
L 75.221309 -213.852523 
L 79.98489 -214.892072 
L 84.748471 -216.005635 
L 89.512052 -217.138816 
L 94.275634 -218.195571 
L 99.039215 -219.252327 
L 103.802796 -220.309809 
L 108.566377 -221.368208 
L 113.329959 -222.426607 
L 118.09354 -223.485006 
L 122.857121 -224.536645 
L 127.620702 -225.619953 
L 132.384284 -226.721561 
L 137.147865 -227.823169 
L 141.911446 -228.924777 
L 146.675028 -230.021087 
L 151.438609 -231.076485 
L 156.20219 -232.116637 
L 160.965771 -233.125239 
L 165.729353 -234.133841 
L 170.492934 -235.194722 
L 175.256515 -236.272485 
L 180.020096 -237.350858 
L 184.783678 -238.429231 
L 189.547259 -239.507604 
L 194.31084 -240.573337 
L 199.074421 -241.534621 
L 203.838003 -242.516969 
L 208.601584 -243.57177 
L 213.365165 -244.601994 
L 218.128747 -245.601531 
L 222.892328 -246.728968 
L 227.655909 -247.710974 
L 232.41949 -248.73972 
L 237.183072 -249.745765 
L 241.946653 -250.751099 
L 246.710234 -251.75864 
L 251.473815 -252.766182 
L 256.237397 -253.773724 
L 261.000978 -254.781266 
L 265.764559 -255.789554 
L 270.52814 -256.743704 
L 275.291722 -257.805678 
L 280.055303 -258.819885 
L 284.818884 -259.898636 
L 289.582466 -260.980328 
L 294.346047 -262.030864 
L 299.109628 -263.057921 
L 303.873209 -264.095861 
L 308.636791 -265.063127 
L 313.400372 -266.007724 
L 318.163953 -266.998736 
L 322.927534 -268.023322 
L 327.691116 -268.984338 
L 332.454697 -269.944112 
L 337.218278 -270.971928 
L 341.98186 -271.926909 
L 346.745441 -272.957611 
L 351.509022 -273.951433 
L 356.272603 -274.90562 
L 361.036185 -275.906823 
L 365.799766 -276.929032 
L 370.563347 -277.85165 
L 375.326928 -278.690511 
L 380.09051 -279.626962 
L 384.854091 -280.436628 
L 389.617672 -281.333032 
L 394.381253 -282.254629 
L 399.144835 -283.146007 
L 403.908416 -284.043643 
L 408.671997 -284.920405 
L 413.435579 -285.758849 
L 418.19916 -286.433439 
L 422.962741 -287.169412 
L 427.726322 -288.130163 
L 432.489904 -288.962936 
L 437.253485 -289.703654 
L 442.017066 -290.457227 
L 446.780647 -291.350357 
L 451.544229 -292.242501 
L 456.30781 -292.987584 
L 461.071391 -293.669878 
L 465.834972 -294.325303 
L 470.598554 -294.997776 
L 475.362135 -295.628762 
L 480.125716 -296.291197 
L 484.889298 -296.77515 
L 489.652879 -297.288006 
L 494.41646 -297.920827 
L 499.180041 -298.557984 
L 503.943623 -299.20896 
L 508.707204 -299.827022 
L 513.470785 -300.46264 
L 518.234366 -301.110968 
L 522.997948 -301.734304 
L 527.761529 -302.304883 
L 532.52511 -302.851621 
L 537.288691 -303.403406 
L 542.052273 -303.87619 
L 542.052273 -322.103077 
L 542.052273 -322.103077 
L 537.288691 -321.043016 
L 532.52511 -320.024171 
L 527.761529 -319.054567 
L 522.997948 -318.040977 
L 518.234366 -317.245577 
L 513.470785 -316.189972 
L 508.707204 -315.070624 
L 503.943623 -314.106846 
L 499.180041 -313.300247 
L 494.41646 -312.36648 
L 489.652879 -311.6122 
L 484.889298 -310.609673 
L 480.125716 -309.704244 
L 475.362135 -308.789128 
L 470.598554 -307.816312 
L 465.834972 -306.9627 
L 461.071391 -306.159837 
L 456.30781 -305.344555 
L 451.544229 -304.544816 
L 446.780647 -303.827835 
L 442.017066 -303.069832 
L 437.253485 -302.302043 
L 432.489904 -301.582956 
L 427.726322 -300.933721 
L 422.962741 -300.247278 
L 418.19916 -299.529917 
L 413.435579 -298.810577 
L 408.671997 -298.27934 
L 403.908416 -297.576916 
L 399.144835 -296.925177 
L 394.381253 -296.352536 
L 389.617672 -295.737422 
L 384.854091 -295.085091 
L 380.09051 -294.41007 
L 375.326928 -293.717347 
L 370.563347 -293.040992 
L 365.799766 -292.414966 
L 361.036185 -291.958842 
L 356.272603 -291.403795 
L 351.509022 -290.754117 
L 346.745441 -290.080708 
L 341.98186 -289.655949 
L 337.218278 -289.132758 
L 332.454697 -288.518835 
L 327.691116 -287.917409 
L 322.927534 -287.317466 
L 318.163953 -286.720878 
L 313.400372 -286.214155 
L 308.636791 -285.711803 
L 303.873209 -285.160509 
L 299.109628 -284.546639 
L 294.346047 -283.936167 
L 289.582466 -283.401755 
L 284.818884 -282.792304 
L 280.055303 -282.239464 
L 275.291722 -281.701134 
L 270.52814 -281.162804 
L 265.764559 -280.624475 
L 261.000978 -280.085095 
L 256.237397 -279.545292 
L 251.473815 -279.006261 
L 246.710234 -278.515937 
L 241.946653 -277.961858 
L 237.183072 -277.477211 
L 232.41949 -277.0214 
L 227.655909 -276.56665 
L 222.892328 -276.110607 
L 218.128747 -275.551142 
L 213.365165 -274.9906 
L 208.601584 -274.428938 
L 203.838003 -273.867276 
L 199.074421 -273.305615 
L 194.31084 -272.807239 
L 189.547259 -272.38328 
L 184.783678 -271.93582 
L 180.020096 -271.399961 
L 175.256515 -270.861534 
L 170.492934 -270.3218 
L 165.729353 -269.782066 
L 160.965771 -269.242332 
L 156.20219 -268.702598 
L 151.438609 -268.135814 
L 146.675028 -267.613574 
L 141.911446 -267.11018 
L 137.147865 -266.607248 
L 132.384284 -266.104316 
L 127.620702 -265.601384 
L 122.857121 -265.098453 
L 118.09354 -264.594253 
L 113.329959 -264.08887 
L 108.566377 -263.634527 
L 103.802796 -263.116657 
L 99.039215 -262.579438 
L 94.275634 -262.15109 
L 89.512052 -261.734065 
L 84.748471 -261.272058 
L 79.98489 -260.738401 
L 75.221309 -260.204744 
L 70.457727 -259.720508 
z
" style="stroke: #ffffff; stroke-opacity: 0.15; stroke-width: 0.8"/>
    </defs>
    <g clip-path="url(#pc1122cbcde)">
     <use xlink:href="#m17063816ad" x="0" y="432" style="fill: #808080; fill-opacity: 0.15; stroke: #ffffff; stroke-opacity: 0.15; stroke-width: 0.8"/>
    </g>
   </g>
   <g id="line2d_29">
    <path d="M 70.457727 194.567667 
L 75.221309 193.806008 
L 79.98489 193.044349 
L 84.748471 192.282691 
L 89.512052 191.521032 
L 94.275634 190.759373 
L 99.039215 189.997714 
L 103.802796 189.236056 
L 108.566377 188.474397 
L 113.329959 187.712738 
L 118.09354 186.951079 
L 122.857121 186.189421 
L 127.620702 185.427762 
L 132.384284 184.666103 
L 137.147865 183.904444 
L 141.911446 183.142786 
L 146.675028 182.381127 
L 151.438609 181.619468 
L 156.20219 180.857809 
L 160.965771 180.096151 
L 165.729353 179.334492 
L 170.492934 178.572833 
L 175.256515 177.811174 
L 180.020096 177.049516 
L 184.783678 176.287857 
L 189.547259 175.526198 
L 194.31084 174.764539 
L 199.074421 174.002881 
L 203.838003 173.241222 
L 208.601584 172.479563 
L 213.365165 171.717904 
L 218.128747 170.956246 
L 222.892328 170.194587 
L 227.655909 169.432928 
L 232.41949 168.671269 
L 237.183072 167.909611 
L 241.946653 167.147952 
L 246.710234 166.386293 
L 251.473815 165.624634 
L 256.237397 164.862975 
L 261.000978 164.101317 
L 265.764559 163.339658 
L 270.52814 162.577999 
L 275.291722 161.81634 
L 280.055303 161.054682 
L 284.818884 160.293023 
L 289.582466 159.531364 
L 294.346047 158.769705 
L 299.109628 158.008047 
L 303.873209 157.246388 
L 308.636791 156.484729 
L 313.400372 155.72307 
L 318.163953 154.961412 
L 322.927534 154.199753 
L 327.691116 153.438094 
L 332.454697 152.676435 
L 337.218278 151.914777 
L 341.98186 151.153118 
L 346.745441 150.391459 
L 351.509022 149.6298 
L 356.272603 148.868142 
L 361.036185 148.106483 
L 365.799766 147.344824 
L 370.563347 146.583165 
L 375.326928 145.821507 
L 380.09051 145.059848 
L 384.854091 144.298189 
L 389.617672 143.53653 
L 394.381253 142.774872 
L 399.144835 142.013213 
L 403.908416 141.251554 
L 408.671997 140.489895 
L 413.435579 139.728237 
L 418.19916 138.966578 
L 422.962741 138.204919 
L 427.726322 137.44326 
L 432.489904 136.681602 
L 437.253485 135.919943 
L 442.017066 135.158284 
L 446.780647 134.396625 
L 451.544229 133.634967 
L 456.30781 132.873308 
L 461.071391 132.111649 
L 465.834972 131.34999 
L 470.598554 130.588332 
L 475.362135 129.826673 
L 480.125716 129.065014 
L 484.889298 128.303355 
L 489.652879 127.541696 
L 494.41646 126.780038 
L 499.180041 126.018379 
L 503.943623 125.25672 
L 508.707204 124.495061 
L 513.470785 123.733403 
L 518.234366 122.971744 
L 522.997948 122.210085 
L 527.761529 121.448426 
L 532.52511 120.686768 
L 537.288691 119.925109 
L 542.052273 119.16345 
" clip-path="url(#pc1122cbcde)" style="fill: none; stroke: #808080; stroke-width: 1.8; stroke-linecap: round"/>
   </g>
   <g id="line2d_30">
    <path d="M 70.457727 194.567667 
L 75.221309 193.806008 
L 79.98489 193.044349 
L 84.748471 192.282691 
L 89.512052 191.521032 
L 94.275634 190.759373 
L 99.039215 189.997714 
L 103.802796 189.236056 
L 108.566377 188.474397 
L 113.329959 187.712738 
L 118.09354 186.951079 
L 122.857121 186.189421 
L 127.620702 185.427762 
L 132.384284 184.666103 
L 137.147865 183.904444 
L 141.911446 183.142786 
L 146.675028 182.381127 
L 151.438609 181.619468 
L 156.20219 180.857809 
L 160.965771 180.096151 
L 165.729353 179.334492 
L 170.492934 178.572833 
L 175.256515 177.811174 
L 180.020096 177.049516 
L 184.783678 176.287857 
L 189.547259 175.526198 
L 194.31084 174.764539 
L 199.074421 174.002881 
L 203.838003 173.241222 
L 208.601584 172.479563 
L 213.365165 171.717904 
L 218.128747 170.956246 
L 222.892328 170.194587 
L 227.655909 169.432928 
L 232.41949 168.671269 
L 237.183072 167.909611 
L 241.946653 167.147952 
L 246.710234 166.386293 
L 251.473815 165.624634 
L 256.237397 164.862975 
L 261.000978 164.101317 
L 265.764559 163.339658 
L 270.52814 162.577999 
L 275.291722 161.81634 
L 280.055303 161.054682 
L 284.818884 160.293023 
L 289.582466 159.531364 
L 294.346047 158.769705 
L 299.109628 158.008047 
L 303.873209 157.246388 
L 308.636791 156.484729 
L 313.400372 155.72307 
L 318.163953 154.961412 
L 322.927534 154.199753 
L 327.691116 153.438094 
L 332.454697 152.676435 
L 337.218278 151.914777 
L 341.98186 151.153118 
L 346.745441 150.391459 
L 351.509022 149.6298 
L 356.272603 148.868142 
L 361.036185 148.106483 
L 365.799766 147.344824 
L 370.563347 146.583165 
L 375.326928 145.821507 
L 380.09051 145.059848 
L 384.854091 144.298189 
L 389.617672 143.53653 
L 394.381253 142.774872 
L 399.144835 142.013213 
L 403.908416 141.251554 
L 408.671997 140.489895 
L 413.435579 139.728237 
L 418.19916 138.966578 
L 422.962741 138.204919 
L 427.726322 137.44326 
L 432.489904 136.681602 
L 437.253485 135.919943 
L 442.017066 135.158284 
L 446.780647 134.396625 
L 451.544229 133.634967 
L 456.30781 132.873308 
L 461.071391 132.111649 
L 465.834972 131.34999 
L 470.598554 130.588332 
L 475.362135 129.826673 
L 480.125716 129.065014 
L 484.889298 128.303355 
L 489.652879 127.541696 
L 494.41646 126.780038 
L 499.180041 126.018379 
L 503.943623 125.25672 
L 508.707204 124.495061 
L 513.470785 123.733403 
L 518.234366 122.971744 
L 522.997948 122.210085 
L 527.761529 121.448426 
L 532.52511 120.686768 
L 537.288691 119.925109 
L 542.052273 119.16345 
" clip-path="url(#pc1122cbcde)" style="fill: none; stroke: #808080; stroke-width: 1.8; stroke-linecap: round"/>
   </g>
   <g id="patch_3">
    <path d="M 46.878 387.012 
L 46.878 27.168 
" style="fill: none; stroke: #262626; stroke-linejoin: miter; stroke-linecap: square"/>
   </g>
   <g id="patch_4">
    <path d="M 46.878 387.012 
L 565.632 387.012 
" style="fill: none; stroke: #262626; stroke-linejoin: miter; stroke-linecap: square"/>
   </g>
   <g id="text_17">
    <g id="patch_5">
     <path d="M 68.8557 87.6087 
L 185.64945 87.6087 
L 185.64945 41.2002 
L 68.8557 41.2002 
z
" style="fill: #ffffff; opacity: 0.5; stroke: #ffffff; stroke-width: 0.8; stroke-linejoin: miter"/>
    </g>
    <!-- R: 0.46 -->
    <g style="fill: #262626" transform="translate(72.8157 54.278325) scale(0.12 -0.12)">
     <defs>
      <path id="DejaVuSans-52" d="M 2841 2188 
Q 3044 2119 3236 1894 
Q 3428 1669 3622 1275 
L 4263 0 
L 3584 0 
L 2988 1197 
Q 2756 1666 2539 1819 
Q 2322 1972 1947 1972 
L 1259 1972 
L 1259 0 
L 628 0 
L 628 4666 
L 2053 4666 
Q 2853 4666 3247 4331 
Q 3641 3997 3641 3322 
Q 3641 2881 3436 2590 
Q 3231 2300 2841 2188 
z
M 1259 4147 
L 1259 2491 
L 2053 2491 
Q 2509 2491 2742 2702 
Q 2975 2913 2975 3322 
Q 2975 3731 2742 3939 
Q 2509 4147 2053 4147 
L 1259 4147 
z
" transform="scale(0.015625)"/>
      <path id="DejaVuSans-3a" d="M 750 794 
L 1409 794 
L 1409 0 
L 750 0 
L 750 794 
z
M 750 3309 
L 1409 3309 
L 1409 2516 
L 750 2516 
L 750 3309 
z
" transform="scale(0.015625)"/>
      <path id="DejaVuSans-2e" d="M 684 794 
L 1344 794 
L 1344 0 
L 684 0 
L 684 794 
z
" transform="scale(0.015625)"/>
     </defs>
     <use xlink:href="#DejaVuSans-52"/>
     <use xlink:href="#DejaVuSans-3a" transform="translate(66.357422 0)"/>
     <use xlink:href="#DejaVuSans-20" transform="translate(100.048828 0)"/>
     <use xlink:href="#DejaVuSans-30" transform="translate(131.835938 0)"/>
     <use xlink:href="#DejaVuSans-2e" transform="translate(195.458984 0)"/>
     <use xlink:href="#DejaVuSans-34" transform="translate(227.246094 0)"/>
     <use xlink:href="#DejaVuSans-36" transform="translate(290.869141 0)"/>
    </g>
    <!-- Spearman : 0.40 -->
    <g style="fill: #262626" transform="translate(72.8157 67.7157) scale(0.12 -0.12)">
     <defs>
      <path id="DejaVuSans-70" d="M 1159 525 
L 1159 -1331 
L 581 -1331 
L 581 3500 
L 1159 3500 
L 1159 2969 
Q 1341 3281 1617 3432 
Q 1894 3584 2278 3584 
Q 2916 3584 3314 3078 
Q 3713 2572 3713 1747 
Q 3713 922 3314 415 
Q 2916 -91 2278 -91 
Q 1894 -91 1617 61 
Q 1341 213 1159 525 
z
M 3116 1747 
Q 3116 2381 2855 2742 
Q 2594 3103 2138 3103 
Q 1681 3103 1420 2742 
Q 1159 2381 1159 1747 
Q 1159 1113 1420 752 
Q 1681 391 2138 391 
Q 2594 391 2855 752 
Q 3116 1113 3116 1747 
z
" transform="scale(0.015625)"/>
      <path id="DejaVuSans-6e" d="M 3513 2113 
L 3513 0 
L 2938 0 
L 2938 2094 
Q 2938 2591 2744 2837 
Q 2550 3084 2163 3084 
Q 1697 3084 1428 2787 
Q 1159 2491 1159 1978 
L 1159 0 
L 581 0 
L 581 3500 
L 1159 3500 
L 1159 2956 
Q 1366 3272 1645 3428 
Q 1925 3584 2291 3584 
Q 2894 3584 3203 3211 
Q 3513 2838 3513 2113 
z
" transform="scale(0.015625)"/>
      <path id="DejaVuSans-3c1" d="M 863 2875 
Q 1053 3194 1525 3475 
Q 1709 3584 2278 3584 
Q 2916 3584 3314 3078 
Q 3713 2572 3713 1747 
Q 3713 922 3314 415 
Q 2916 -91 2278 -91 
Q 1894 -91 1617 61 
Q 1341 213 1159 525 
L 1159 -1331 
L 581 -1331 
L 581 1716 
Q 581 2438 863 2875 
z
M 3116 1747 
Q 3116 2381 2855 2742 
Q 2594 3103 2138 3103 
Q 1681 3103 1420 2742 
Q 1159 2381 1159 1747 
Q 1159 1113 1420 752 
Q 1681 391 2138 391 
Q 2594 391 2855 752 
Q 3116 1113 3116 1747 
z
" transform="scale(0.015625)"/>
     </defs>
     <use xlink:href="#DejaVuSans-53"/>
     <use xlink:href="#DejaVuSans-70" transform="translate(63.476562 0)"/>
     <use xlink:href="#DejaVuSans-65" transform="translate(126.953125 0)"/>
     <use xlink:href="#DejaVuSans-61" transform="translate(188.476562 0)"/>
     <use xlink:href="#DejaVuSans-72" transform="translate(249.755859 0)"/>
     <use xlink:href="#DejaVuSans-6d" transform="translate(289.119141 0)"/>
     <use xlink:href="#DejaVuSans-61" transform="translate(386.53125 0)"/>
     <use xlink:href="#DejaVuSans-6e" transform="translate(447.810547 0)"/>
     <use xlink:href="#DejaVuSans-20" transform="translate(511.189453 0)"/>
     <use xlink:href="#DejaVuSans-3c1" transform="translate(542.976562 0)"/>
     <use xlink:href="#DejaVuSans-3a" transform="translate(606.453125 0)"/>
     <use xlink:href="#DejaVuSans-20" transform="translate(640.144531 0)"/>
     <use xlink:href="#DejaVuSans-30" transform="translate(671.931641 0)"/>
     <use xlink:href="#DejaVuSans-2e" transform="translate(735.554688 0)"/>
     <use xlink:href="#DejaVuSans-34" transform="translate(767.341797 0)"/>
     <use xlink:href="#DejaVuSans-30" transform="translate(830.964844 0)"/>
    </g>
    <!-- P-value: 0.000000 -->
    <g style="fill: #262626" transform="translate(72.8157 81.153075) scale(0.12 -0.12)">
     <defs>
      <path id="DejaVuSans-2d" d="M 313 2009 
L 1997 2009 
L 1997 1497 
L 313 1497 
L 313 2009 
z
" transform="scale(0.015625)"/>
      <path id="DejaVuSans-76" d="M 191 3500 
L 800 3500 
L 1894 563 
L 2988 3500 
L 3597 3500 
L 2284 0 
L 1503 0 
L 191 3500 
z
" transform="scale(0.015625)"/>
     </defs>
     <use xlink:href="#DejaVuSans-50"/>
     <use xlink:href="#DejaVuSans-2d" transform="translate(58.052734 0)"/>
     <use xlink:href="#DejaVuSans-76" transform="translate(91.511719 0)"/>
     <use xlink:href="#DejaVuSans-61" transform="translate(150.691406 0)"/>
     <use xlink:href="#DejaVuSans-6c" transform="translate(211.970703 0)"/>
     <use xlink:href="#DejaVuSans-75" transform="translate(239.753906 0)"/>
     <use xlink:href="#DejaVuSans-65" transform="translate(303.132812 0)"/>
     <use xlink:href="#DejaVuSans-3a" transform="translate(364.65625 0)"/>
     <use xlink:href="#DejaVuSans-20" transform="translate(398.347656 0)"/>
     <use xlink:href="#DejaVuSans-30" transform="translate(430.134766 0)"/>
     <use xlink:href="#DejaVuSans-2e" transform="translate(493.757812 0)"/>
     <use xlink:href="#DejaVuSans-30" transform="translate(525.544922 0)"/>
     <use xlink:href="#DejaVuSans-30" transform="translate(589.167969 0)"/>
     <use xlink:href="#DejaVuSans-30" transform="translate(652.791016 0)"/>
     <use xlink:href="#DejaVuSans-30" transform="translate(716.414062 0)"/>
     <use xlink:href="#DejaVuSans-30" transform="translate(780.037109 0)"/>
     <use xlink:href="#DejaVuSans-30" transform="translate(843.660156 0)"/>
    </g>
   </g>
   <g id="text_18">
    <!-- Model Predicted vs. Actual - Best Ensemble  N=117 -->
    <g style="fill: #262626" transform="translate(125.819062 21.168) scale(0.14 -0.14)">
     <defs>
      <path id="DejaVuSans-42" d="M 1259 2228 
L 1259 519 
L 2272 519 
Q 2781 519 3026 730 
Q 3272 941 3272 1375 
Q 3272 1813 3026 2020 
Q 2781 2228 2272 2228 
L 1259 2228 
z
M 1259 4147 
L 1259 2741 
L 2194 2741 
Q 2656 2741 2882 2914 
Q 3109 3088 3109 3444 
Q 3109 3797 2882 3972 
Q 2656 4147 2194 4147 
L 1259 4147 
z
M 628 4666 
L 2241 4666 
Q 2963 4666 3353 4366 
Q 3744 4066 3744 3513 
Q 3744 3084 3544 2831 
Q 3344 2578 2956 2516 
Q 3422 2416 3680 2098 
Q 3938 1781 3938 1306 
Q 3938 681 3513 340 
Q 3088 0 2303 0 
L 628 0 
L 628 4666 
z
" transform="scale(0.015625)"/>
      <path id="DejaVuSans-45" d="M 628 4666 
L 3578 4666 
L 3578 4134 
L 1259 4134 
L 1259 2753 
L 3481 2753 
L 3481 2222 
L 1259 2222 
L 1259 531 
L 3634 531 
L 3634 0 
L 628 0 
L 628 4666 
z
" transform="scale(0.015625)"/>
      <path id="DejaVuSans-62" d="M 3116 1747 
Q 3116 2381 2855 2742 
Q 2594 3103 2138 3103 
Q 1681 3103 1420 2742 
Q 1159 2381 1159 1747 
Q 1159 1113 1420 752 
Q 1681 391 2138 391 
Q 2594 391 2855 752 
Q 3116 1113 3116 1747 
z
M 1159 2969 
Q 1341 3281 1617 3432 
Q 1894 3584 2278 3584 
Q 2916 3584 3314 3078 
Q 3713 2572 3713 1747 
Q 3713 922 3314 415 
Q 2916 -91 2278 -91 
Q 1894 -91 1617 61 
Q 1341 213 1159 525 
L 1159 0 
L 581 0 
L 581 4863 
L 1159 4863 
L 1159 2969 
z
" transform="scale(0.015625)"/>
      <path id="DejaVuSans-4e" d="M 628 4666 
L 1478 4666 
L 3547 763 
L 3547 4666 
L 4159 4666 
L 4159 0 
L 3309 0 
L 1241 3903 
L 1241 0 
L 628 0 
L 628 4666 
z
" transform="scale(0.015625)"/>
      <path id="DejaVuSans-3d" d="M 678 2906 
L 4684 2906 
L 4684 2381 
L 678 2381 
L 678 2906 
z
M 678 1631 
L 4684 1631 
L 4684 1100 
L 678 1100 
L 678 1631 
z
" transform="scale(0.015625)"/>
      <path id="DejaVuSans-37" d="M 525 4666 
L 3525 4666 
L 3525 4397 
L 1831 0 
L 1172 0 
L 2766 4134 
L 525 4134 
L 525 4666 
z
" transform="scale(0.015625)"/>
     </defs>
     <use xlink:href="#DejaVuSans-4d"/>
     <use xlink:href="#DejaVuSans-6f" transform="translate(86.279297 0)"/>
     <use xlink:href="#DejaVuSans-64" transform="translate(147.460938 0)"/>
     <use xlink:href="#DejaVuSans-65" transform="translate(210.9375 0)"/>
     <use xlink:href="#DejaVuSans-6c" transform="translate(272.460938 0)"/>
     <use xlink:href="#DejaVuSans-20" transform="translate(300.244141 0)"/>
     <use xlink:href="#DejaVuSans-50" transform="translate(332.03125 0)"/>
     <use xlink:href="#DejaVuSans-72" transform="translate(390.583984 0)"/>
     <use xlink:href="#DejaVuSans-65" transform="translate(429.447266 0)"/>
     <use xlink:href="#DejaVuSans-64" transform="translate(490.970703 0)"/>
     <use xlink:href="#DejaVuSans-69" transform="translate(554.447266 0)"/>
     <use xlink:href="#DejaVuSans-63" transform="translate(582.230469 0)"/>
     <use xlink:href="#DejaVuSans-74" transform="translate(637.210938 0)"/>
     <use xlink:href="#DejaVuSans-65" transform="translate(676.419922 0)"/>
     <use xlink:href="#DejaVuSans-64" transform="translate(737.943359 0)"/>
     <use xlink:href="#DejaVuSans-20" transform="translate(801.419922 0)"/>
     <use xlink:href="#DejaVuSans-76" transform="translate(833.207031 0)"/>
     <use xlink:href="#DejaVuSans-73" transform="translate(892.386719 0)"/>
     <use xlink:href="#DejaVuSans-2e" transform="translate(944.486328 0)"/>
     <use xlink:href="#DejaVuSans-20" transform="translate(976.273438 0)"/>
     <use xlink:href="#DejaVuSans-41" transform="translate(1008.060547 0)"/>
     <use xlink:href="#DejaVuSans-63" transform="translate(1074.71875 0)"/>
     <use xlink:href="#DejaVuSans-74" transform="translate(1129.699219 0)"/>
     <use xlink:href="#DejaVuSans-75" transform="translate(1168.908203 0)"/>
     <use xlink:href="#DejaVuSans-61" transform="translate(1232.287109 0)"/>
     <use xlink:href="#DejaVuSans-6c" transform="translate(1293.566406 0)"/>
     <use xlink:href="#DejaVuSans-20" transform="translate(1321.349609 0)"/>
     <use xlink:href="#DejaVuSans-2d" transform="translate(1353.136719 0)"/>
     <use xlink:href="#DejaVuSans-20" transform="translate(1389.220703 0)"/>
     <use xlink:href="#DejaVuSans-42" transform="translate(1421.007812 0)"/>
     <use xlink:href="#DejaVuSans-65" transform="translate(1489.611328 0)"/>
     <use xlink:href="#DejaVuSans-73" transform="translate(1551.134766 0)"/>
     <use xlink:href="#DejaVuSans-74" transform="translate(1603.234375 0)"/>
     <use xlink:href="#DejaVuSans-20" transform="translate(1642.443359 0)"/>
     <use xlink:href="#DejaVuSans-45" transform="translate(1674.230469 0)"/>
     <use xlink:href="#DejaVuSans-6e" transform="translate(1737.414062 0)"/>
     <use xlink:href="#DejaVuSans-73" transform="translate(1800.792969 0)"/>
     <use xlink:href="#DejaVuSans-65" transform="translate(1852.892578 0)"/>
     <use xlink:href="#DejaVuSans-6d" transform="translate(1914.416016 0)"/>
     <use xlink:href="#DejaVuSans-62" transform="translate(2011.828125 0)"/>
     <use xlink:href="#DejaVuSans-6c" transform="translate(2075.304688 0)"/>
     <use xlink:href="#DejaVuSans-65" transform="translate(2103.087891 0)"/>
     <use xlink:href="#DejaVuSans-20" transform="translate(2164.611328 0)"/>
     <use xlink:href="#DejaVuSans-20" transform="translate(2196.398438 0)"/>
     <use xlink:href="#DejaVuSans-4e" transform="translate(2228.185547 0)"/>
     <use xlink:href="#DejaVuSans-3d" transform="translate(2302.990234 0)"/>
     <use xlink:href="#DejaVuSans-31" transform="translate(2386.779297 0)"/>
     <use xlink:href="#DejaVuSans-31" transform="translate(2450.402344 0)"/>
     <use xlink:href="#DejaVuSans-37" transform="translate(2514.025391 0)"/>
    </g>
   </g>
  </g>
 </g>
 <defs>
  <clipPath id="pc1122cbcde">
   <rect x="46.878" y="27.168" width="518.754" height="359.844"/>
  </clipPath>
 </defs>
</svg>
