<?xml version="1.0" encoding="utf-8" standalone="no"?>
<!DOCTYPE svg PUBLIC "-//W3C//DTD SVG 1.1//EN"
  "http://www.w3.org/Graphics/SVG/1.1/DTD/svg11.dtd">
<svg xmlns:xlink="http://www.w3.org/1999/xlink" width="576pt" height="432pt" viewBox="0 0 576 432" xmlns="http://www.w3.org/2000/svg" version="1.1">
 <metadata>
  <rdf:RDF xmlns:dc="http://purl.org/dc/elements/1.1/" xmlns:cc="http://creativecommons.org/ns#" xmlns:rdf="http://www.w3.org/1999/02/22-rdf-syntax-ns#">
   <cc:Work>
    <dc:type rdf:resource="http://purl.org/dc/dcmitype/StillImage"/>
    <dc:date>2025-10-17T20:15:08.896013</dc:date>
    <dc:format>image/svg+xml</dc:format>
    <dc:creator>
     <cc:Agent>
      <dc:title>Matplotlib v3.10.0, https://matplotlib.org/</dc:title>
     </cc:Agent>
    </dc:creator>
   </cc:Work>
  </rdf:RDF>
 </metadata>
 <defs>
  <style type="text/css">*{stroke-linejoin: round; stroke-linecap: butt}</style>
 </defs>
 <g id="figure_1">
  <g id="patch_1">
   <path d="M 0 432 
L 576 432 
L 576 0 
L 0 0 
z
" style="fill: #ffffff"/>
  </g>
  <g id="axes_1">
   <g id="patch_2">
    <path d="M 46.878 387.012 
L 565.632 387.012 
L 565.632 27.168 
L 46.878 27.168 
z
" style="fill: #ffffff"/>
   </g>
   <g id="matplotlib.axis_1">
    <g id="xtick_1">
     <g id="line2d_1">
      <defs>
       <path id="md983dfb6c5" d="M 0 0 
L 0 4.8 
" style="stroke: #262626"/>
      </defs>
      <g>
       <use xlink:href="#md983dfb6c5" x="106.73423" y="387.012" style="fill: #262626; stroke: #262626"/>
      </g>
     </g>
     <g id="text_1">
      <!-- 18 -->
      <g style="fill: #262626" transform="translate(101.13523 401.998625) scale(0.088 -0.088)">
       <defs>
        <path id="DejaVuSans-31" d="M 794 531 
L 1825 531 
L 1825 4091 
L 703 3866 
L 703 4441 
L 1819 4666 
L 2450 4666 
L 2450 531 
L 3481 531 
L 3481 0 
L 794 0 
L 794 531 
z
" transform="scale(0.015625)"/>
        <path id="DejaVuSans-38" d="M 2034 2216 
Q 1584 2216 1326 1975 
Q 1069 1734 1069 1313 
Q 1069 891 1326 650 
Q 1584 409 2034 409 
Q 2484 409 2743 651 
Q 3003 894 3003 1313 
Q 3003 1734 2745 1975 
Q 2488 2216 2034 2216 
z
M 1403 2484 
Q 997 2584 770 2862 
Q 544 3141 544 3541 
Q 544 4100 942 4425 
Q 1341 4750 2034 4750 
Q 2731 4750 3128 4425 
Q 3525 4100 3525 3541 
Q 3525 3141 3298 2862 
Q 3072 2584 2669 2484 
Q 3125 2378 3379 2068 
Q 3634 1759 3634 1313 
Q 3634 634 3220 271 
Q 2806 -91 2034 -91 
Q 1263 -91 848 271 
Q 434 634 434 1313 
Q 434 1759 690 2068 
Q 947 2378 1403 2484 
z
M 1172 3481 
Q 1172 3119 1398 2916 
Q 1625 2713 2034 2713 
Q 2441 2713 2670 2916 
Q 2900 3119 2900 3481 
Q 2900 3844 2670 4047 
Q 2441 4250 2034 4250 
Q 1625 4250 1398 4047 
Q 1172 3844 1172 3481 
z
" transform="scale(0.015625)"/>
       </defs>
       <use xlink:href="#DejaVuSans-31"/>
       <use xlink:href="#DejaVuSans-38" transform="translate(63.623047 0)"/>
      </g>
     </g>
    </g>
    <g id="xtick_2">
     <g id="line2d_2">
      <g>
       <use xlink:href="#md983dfb6c5" x="179.287237" y="387.012" style="fill: #262626; stroke: #262626"/>
      </g>
     </g>
     <g id="text_2">
      <!-- 20 -->
      <g style="fill: #262626" transform="translate(173.688237 401.998625) scale(0.088 -0.088)">
       <defs>
        <path id="DejaVuSans-32" d="M 1228 531 
L 3431 531 
L 3431 0 
L 469 0 
L 469 531 
Q 828 903 1448 1529 
Q 2069 2156 2228 2338 
Q 2531 2678 2651 2914 
Q 2772 3150 2772 3378 
Q 2772 3750 2511 3984 
Q 2250 4219 1831 4219 
Q 1534 4219 1204 4116 
Q 875 4013 500 3803 
L 500 4441 
Q 881 4594 1212 4672 
Q 1544 4750 1819 4750 
Q 2544 4750 2975 4387 
Q 3406 4025 3406 3419 
Q 3406 3131 3298 2873 
Q 3191 2616 2906 2266 
Q 2828 2175 2409 1742 
Q 1991 1309 1228 531 
z
" transform="scale(0.015625)"/>
        <path id="DejaVuSans-30" d="M 2034 4250 
Q 1547 4250 1301 3770 
Q 1056 3291 1056 2328 
Q 1056 1369 1301 889 
Q 1547 409 2034 409 
Q 2525 409 2770 889 
Q 3016 1369 3016 2328 
Q 3016 3291 2770 3770 
Q 2525 4250 2034 4250 
z
M 2034 4750 
Q 2819 4750 3233 4129 
Q 3647 3509 3647 2328 
Q 3647 1150 3233 529 
Q 2819 -91 2034 -91 
Q 1250 -91 836 529 
Q 422 1150 422 2328 
Q 422 3509 836 4129 
Q 1250 4750 2034 4750 
z
" transform="scale(0.015625)"/>
       </defs>
       <use xlink:href="#DejaVuSans-32"/>
       <use xlink:href="#DejaVuSans-30" transform="translate(63.623047 0)"/>
      </g>
     </g>
    </g>
    <g id="xtick_3">
     <g id="line2d_3">
      <g>
       <use xlink:href="#md983dfb6c5" x="251.840244" y="387.012" style="fill: #262626; stroke: #262626"/>
      </g>
     </g>
     <g id="text_3">
      <!-- 22 -->
      <g style="fill: #262626" transform="translate(246.241244 401.998625) scale(0.088 -0.088)">
       <use xlink:href="#DejaVuSans-32"/>
       <use xlink:href="#DejaVuSans-32" transform="translate(63.623047 0)"/>
      </g>
     </g>
    </g>
    <g id="xtick_4">
     <g id="line2d_4">
      <g>
       <use xlink:href="#md983dfb6c5" x="324.393251" y="387.012" style="fill: #262626; stroke: #262626"/>
      </g>
     </g>
     <g id="text_4">
      <!-- 24 -->
      <g style="fill: #262626" transform="translate(318.794251 401.998625) scale(0.088 -0.088)">
       <defs>
        <path id="DejaVuSans-34" d="M 2419 4116 
L 825 1625 
L 2419 1625 
L 2419 4116 
z
M 2253 4666 
L 3047 4666 
L 3047 1625 
L 3713 1625 
L 3713 1100 
L 3047 1100 
L 3047 0 
L 2419 0 
L 2419 1100 
L 313 1100 
L 313 1709 
L 2253 4666 
z
" transform="scale(0.015625)"/>
       </defs>
       <use xlink:href="#DejaVuSans-32"/>
       <use xlink:href="#DejaVuSans-34" transform="translate(63.623047 0)"/>
      </g>
     </g>
    </g>
    <g id="xtick_5">
     <g id="line2d_5">
      <g>
       <use xlink:href="#md983dfb6c5" x="396.946259" y="387.012" style="fill: #262626; stroke: #262626"/>
      </g>
     </g>
     <g id="text_5">
      <!-- 26 -->
      <g style="fill: #262626" transform="translate(391.347259 401.998625) scale(0.088 -0.088)">
       <defs>
        <path id="DejaVuSans-36" d="M 2113 2584 
Q 1688 2584 1439 2293 
Q 1191 2003 1191 1497 
Q 1191 994 1439 701 
Q 1688 409 2113 409 
Q 2538 409 2786 701 
Q 3034 994 3034 1497 
Q 3034 2003 2786 2293 
Q 2538 2584 2113 2584 
z
M 3366 4563 
L 3366 3988 
Q 3128 4100 2886 4159 
Q 2644 4219 2406 4219 
Q 1781 4219 1451 3797 
Q 1122 3375 1075 2522 
Q 1259 2794 1537 2939 
Q 1816 3084 2150 3084 
Q 2853 3084 3261 2657 
Q 3669 2231 3669 1497 
Q 3669 778 3244 343 
Q 2819 -91 2113 -91 
Q 1303 -91 875 529 
Q 447 1150 447 2328 
Q 447 3434 972 4092 
Q 1497 4750 2381 4750 
Q 2619 4750 2861 4703 
Q 3103 4656 3366 4563 
z
" transform="scale(0.015625)"/>
       </defs>
       <use xlink:href="#DejaVuSans-32"/>
       <use xlink:href="#DejaVuSans-36" transform="translate(63.623047 0)"/>
      </g>
     </g>
    </g>
    <g id="xtick_6">
     <g id="line2d_6">
      <g>
       <use xlink:href="#md983dfb6c5" x="469.499266" y="387.012" style="fill: #262626; stroke: #262626"/>
      </g>
     </g>
     <g id="text_6">
      <!-- 28 -->
      <g style="fill: #262626" transform="translate(463.900266 401.998625) scale(0.088 -0.088)">
       <use xlink:href="#DejaVuSans-32"/>
       <use xlink:href="#DejaVuSans-38" transform="translate(63.623047 0)"/>
      </g>
     </g>
    </g>
    <g id="xtick_7">
     <g id="line2d_7">
      <g>
       <use xlink:href="#md983dfb6c5" x="542.052273" y="387.012" style="fill: #262626; stroke: #262626"/>
      </g>
     </g>
     <g id="text_7">
      <!-- 30 -->
      <g style="fill: #262626" transform="translate(536.453273 401.998625) scale(0.088 -0.088)">
       <defs>
        <path id="DejaVuSans-33" d="M 2597 2516 
Q 3050 2419 3304 2112 
Q 3559 1806 3559 1356 
Q 3559 666 3084 287 
Q 2609 -91 1734 -91 
Q 1441 -91 1130 -33 
Q 819 25 488 141 
L 488 750 
Q 750 597 1062 519 
Q 1375 441 1716 441 
Q 2309 441 2620 675 
Q 2931 909 2931 1356 
Q 2931 1769 2642 2001 
Q 2353 2234 1838 2234 
L 1294 2234 
L 1294 2753 
L 1863 2753 
Q 2328 2753 2575 2939 
Q 2822 3125 2822 3475 
Q 2822 3834 2567 4026 
Q 2313 4219 1838 4219 
Q 1578 4219 1281 4162 
Q 984 4106 628 3988 
L 628 4550 
Q 988 4650 1302 4700 
Q 1616 4750 1894 4750 
Q 2613 4750 3031 4423 
Q 3450 4097 3450 3541 
Q 3450 3153 3228 2886 
Q 3006 2619 2597 2516 
z
" transform="scale(0.015625)"/>
       </defs>
       <use xlink:href="#DejaVuSans-33"/>
       <use xlink:href="#DejaVuSans-30" transform="translate(63.623047 0)"/>
      </g>
     </g>
    </g>
    <g id="xtick_8">
     <g id="line2d_8">
      <defs>
       <path id="mf3c2566508" d="M 0 0 
L 0 4 
" style="stroke: #d3d3d3; stroke-width: 0.8"/>
      </defs>
      <g>
       <use xlink:href="#mf3c2566508" x="70.457726" y="387.012" style="fill: #d3d3d3; stroke: #d3d3d3; stroke-width: 0.8"/>
      </g>
     </g>
    </g>
    <g id="xtick_9">
     <g id="line2d_9">
      <g>
       <use xlink:href="#mf3c2566508" x="143.010733" y="387.012" style="fill: #d3d3d3; stroke: #d3d3d3; stroke-width: 0.8"/>
      </g>
     </g>
    </g>
    <g id="xtick_10">
     <g id="line2d_10">
      <g>
       <use xlink:href="#mf3c2566508" x="215.563741" y="387.012" style="fill: #d3d3d3; stroke: #d3d3d3; stroke-width: 0.8"/>
      </g>
     </g>
    </g>
    <g id="xtick_11">
     <g id="line2d_11">
      <g>
       <use xlink:href="#mf3c2566508" x="288.116748" y="387.012" style="fill: #d3d3d3; stroke: #d3d3d3; stroke-width: 0.8"/>
      </g>
     </g>
    </g>
    <g id="xtick_12">
     <g id="line2d_12">
      <g>
       <use xlink:href="#mf3c2566508" x="360.669755" y="387.012" style="fill: #d3d3d3; stroke: #d3d3d3; stroke-width: 0.8"/>
      </g>
     </g>
    </g>
    <g id="xtick_13">
     <g id="line2d_13">
      <g>
       <use xlink:href="#mf3c2566508" x="433.222762" y="387.012" style="fill: #d3d3d3; stroke: #d3d3d3; stroke-width: 0.8"/>
      </g>
     </g>
    </g>
    <g id="xtick_14">
     <g id="line2d_14">
      <g>
       <use xlink:href="#mf3c2566508" x="505.77577" y="387.012" style="fill: #d3d3d3; stroke: #d3d3d3; stroke-width: 0.8"/>
      </g>
     </g>
    </g>
    <g id="text_8">
     <!-- Actual MoCA Sum Post -->
     <g style="fill: #262626" transform="translate(238.59 416.946875) scale(0.12 -0.12)">
      <defs>
       <path id="DejaVuSans-41" d="M 2188 4044 
L 1331 1722 
L 3047 1722 
L 2188 4044 
z
M 1831 4666 
L 2547 4666 
L 4325 0 
L 3669 0 
L 3244 1197 
L 1141 1197 
L 716 0 
L 50 0 
L 1831 4666 
z
" transform="scale(0.015625)"/>
       <path id="DejaVuSans-63" d="M 3122 3366 
L 3122 2828 
Q 2878 2963 2633 3030 
Q 2388 3097 2138 3097 
Q 1578 3097 1268 2742 
Q 959 2388 959 1747 
Q 959 1106 1268 751 
Q 1578 397 2138 397 
Q 2388 397 2633 464 
Q 2878 531 3122 666 
L 3122 134 
Q 2881 22 2623 -34 
Q 2366 -91 2075 -91 
Q 1284 -91 818 406 
Q 353 903 353 1747 
Q 353 2603 823 3093 
Q 1294 3584 2113 3584 
Q 2378 3584 2631 3529 
Q 2884 3475 3122 3366 
z
" transform="scale(0.015625)"/>
       <path id="DejaVuSans-74" d="M 1172 4494 
L 1172 3500 
L 2356 3500 
L 2356 3053 
L 1172 3053 
L 1172 1153 
Q 1172 725 1289 603 
Q 1406 481 1766 481 
L 2356 481 
L 2356 0 
L 1766 0 
Q 1100 0 847 248 
Q 594 497 594 1153 
L 594 3053 
L 172 3053 
L 172 3500 
L 594 3500 
L 594 4494 
L 1172 4494 
z
" transform="scale(0.015625)"/>
       <path id="DejaVuSans-75" d="M 544 1381 
L 544 3500 
L 1119 3500 
L 1119 1403 
Q 1119 906 1312 657 
Q 1506 409 1894 409 
Q 2359 409 2629 706 
Q 2900 1003 2900 1516 
L 2900 3500 
L 3475 3500 
L 3475 0 
L 2900 0 
L 2900 538 
Q 2691 219 2414 64 
Q 2138 -91 1772 -91 
Q 1169 -91 856 284 
Q 544 659 544 1381 
z
M 1991 3584 
L 1991 3584 
z
" transform="scale(0.015625)"/>
       <path id="DejaVuSans-61" d="M 2194 1759 
Q 1497 1759 1228 1600 
Q 959 1441 959 1056 
Q 959 750 1161 570 
Q 1363 391 1709 391 
Q 2188 391 2477 730 
Q 2766 1069 2766 1631 
L 2766 1759 
L 2194 1759 
z
M 3341 1997 
L 3341 0 
L 2766 0 
L 2766 531 
Q 2569 213 2275 61 
Q 1981 -91 1556 -91 
Q 1019 -91 701 211 
Q 384 513 384 1019 
Q 384 1609 779 1909 
Q 1175 2209 1959 2209 
L 2766 2209 
L 2766 2266 
Q 2766 2663 2505 2880 
Q 2244 3097 1772 3097 
Q 1472 3097 1187 3025 
Q 903 2953 641 2809 
L 641 3341 
Q 956 3463 1253 3523 
Q 1550 3584 1831 3584 
Q 2591 3584 2966 3190 
Q 3341 2797 3341 1997 
z
" transform="scale(0.015625)"/>
       <path id="DejaVuSans-6c" d="M 603 4863 
L 1178 4863 
L 1178 0 
L 603 0 
L 603 4863 
z
" transform="scale(0.015625)"/>
       <path id="DejaVuSans-20" transform="scale(0.015625)"/>
       <path id="DejaVuSans-4d" d="M 628 4666 
L 1569 4666 
L 2759 1491 
L 3956 4666 
L 4897 4666 
L 4897 0 
L 4281 0 
L 4281 4097 
L 3078 897 
L 2444 897 
L 1241 4097 
L 1241 0 
L 628 0 
L 628 4666 
z
" transform="scale(0.015625)"/>
       <path id="DejaVuSans-6f" d="M 1959 3097 
Q 1497 3097 1228 2736 
Q 959 2375 959 1747 
Q 959 1119 1226 758 
Q 1494 397 1959 397 
Q 2419 397 2687 759 
Q 2956 1122 2956 1747 
Q 2956 2369 2687 2733 
Q 2419 3097 1959 3097 
z
M 1959 3584 
Q 2709 3584 3137 3096 
Q 3566 2609 3566 1747 
Q 3566 888 3137 398 
Q 2709 -91 1959 -91 
Q 1206 -91 779 398 
Q 353 888 353 1747 
Q 353 2609 779 3096 
Q 1206 3584 1959 3584 
z
" transform="scale(0.015625)"/>
       <path id="DejaVuSans-43" d="M 4122 4306 
L 4122 3641 
Q 3803 3938 3442 4084 
Q 3081 4231 2675 4231 
Q 1875 4231 1450 3742 
Q 1025 3253 1025 2328 
Q 1025 1406 1450 917 
Q 1875 428 2675 428 
Q 3081 428 3442 575 
Q 3803 722 4122 1019 
L 4122 359 
Q 3791 134 3420 21 
Q 3050 -91 2638 -91 
Q 1578 -91 968 557 
Q 359 1206 359 2328 
Q 359 3453 968 4101 
Q 1578 4750 2638 4750 
Q 3056 4750 3426 4639 
Q 3797 4528 4122 4306 
z
" transform="scale(0.015625)"/>
       <path id="DejaVuSans-53" d="M 3425 4513 
L 3425 3897 
Q 3066 4069 2747 4153 
Q 2428 4238 2131 4238 
Q 1616 4238 1336 4038 
Q 1056 3838 1056 3469 
Q 1056 3159 1242 3001 
Q 1428 2844 1947 2747 
L 2328 2669 
Q 3034 2534 3370 2195 
Q 3706 1856 3706 1288 
Q 3706 609 3251 259 
Q 2797 -91 1919 -91 
Q 1588 -91 1214 -16 
Q 841 59 441 206 
L 441 856 
Q 825 641 1194 531 
Q 1563 422 1919 422 
Q 2459 422 2753 634 
Q 3047 847 3047 1241 
Q 3047 1584 2836 1778 
Q 2625 1972 2144 2069 
L 1759 2144 
Q 1053 2284 737 2584 
Q 422 2884 422 3419 
Q 422 4038 858 4394 
Q 1294 4750 2059 4750 
Q 2388 4750 2728 4690 
Q 3069 4631 3425 4513 
z
" transform="scale(0.015625)"/>
       <path id="DejaVuSans-6d" d="M 3328 2828 
Q 3544 3216 3844 3400 
Q 4144 3584 4550 3584 
Q 5097 3584 5394 3201 
Q 5691 2819 5691 2113 
L 5691 0 
L 5113 0 
L 5113 2094 
Q 5113 2597 4934 2840 
Q 4756 3084 4391 3084 
Q 3944 3084 3684 2787 
Q 3425 2491 3425 1978 
L 3425 0 
L 2847 0 
L 2847 2094 
Q 2847 2600 2669 2842 
Q 2491 3084 2119 3084 
Q 1678 3084 1418 2786 
Q 1159 2488 1159 1978 
L 1159 0 
L 581 0 
L 581 3500 
L 1159 3500 
L 1159 2956 
Q 1356 3278 1631 3431 
Q 1906 3584 2284 3584 
Q 2666 3584 2933 3390 
Q 3200 3197 3328 2828 
z
" transform="scale(0.015625)"/>
       <path id="DejaVuSans-50" d="M 1259 4147 
L 1259 2394 
L 2053 2394 
Q 2494 2394 2734 2622 
Q 2975 2850 2975 3272 
Q 2975 3691 2734 3919 
Q 2494 4147 2053 4147 
L 1259 4147 
z
M 628 4666 
L 2053 4666 
Q 2838 4666 3239 4311 
Q 3641 3956 3641 3272 
Q 3641 2581 3239 2228 
Q 2838 1875 2053 1875 
L 1259 1875 
L 1259 0 
L 628 0 
L 628 4666 
z
" transform="scale(0.015625)"/>
       <path id="DejaVuSans-73" d="M 2834 3397 
L 2834 2853 
Q 2591 2978 2328 3040 
Q 2066 3103 1784 3103 
Q 1356 3103 1142 2972 
Q 928 2841 928 2578 
Q 928 2378 1081 2264 
Q 1234 2150 1697 2047 
L 1894 2003 
Q 2506 1872 2764 1633 
Q 3022 1394 3022 966 
Q 3022 478 2636 193 
Q 2250 -91 1575 -91 
Q 1294 -91 989 -36 
Q 684 19 347 128 
L 347 722 
Q 666 556 975 473 
Q 1284 391 1588 391 
Q 1994 391 2212 530 
Q 2431 669 2431 922 
Q 2431 1156 2273 1281 
Q 2116 1406 1581 1522 
L 1381 1569 
Q 847 1681 609 1914 
Q 372 2147 372 2553 
Q 372 3047 722 3315 
Q 1072 3584 1716 3584 
Q 2034 3584 2315 3537 
Q 2597 3491 2834 3397 
z
" transform="scale(0.015625)"/>
      </defs>
      <use xlink:href="#DejaVuSans-41"/>
      <use xlink:href="#DejaVuSans-63" transform="translate(66.658203 0)"/>
      <use xlink:href="#DejaVuSans-74" transform="translate(121.638672 0)"/>
      <use xlink:href="#DejaVuSans-75" transform="translate(160.847656 0)"/>
      <use xlink:href="#DejaVuSans-61" transform="translate(224.226562 0)"/>
      <use xlink:href="#DejaVuSans-6c" transform="translate(285.505859 0)"/>
      <use xlink:href="#DejaVuSans-20" transform="translate(313.289062 0)"/>
      <use xlink:href="#DejaVuSans-4d" transform="translate(345.076172 0)"/>
      <use xlink:href="#DejaVuSans-6f" transform="translate(431.355469 0)"/>
      <use xlink:href="#DejaVuSans-43" transform="translate(492.537109 0)"/>
      <use xlink:href="#DejaVuSans-41" transform="translate(562.361328 0)"/>
      <use xlink:href="#DejaVuSans-20" transform="translate(630.769531 0)"/>
      <use xlink:href="#DejaVuSans-53" transform="translate(662.556641 0)"/>
      <use xlink:href="#DejaVuSans-75" transform="translate(726.033203 0)"/>
      <use xlink:href="#DejaVuSans-6d" transform="translate(789.412109 0)"/>
      <use xlink:href="#DejaVuSans-20" transform="translate(886.824219 0)"/>
      <use xlink:href="#DejaVuSans-50" transform="translate(918.611328 0)"/>
      <use xlink:href="#DejaVuSans-6f" transform="translate(975.289062 0)"/>
      <use xlink:href="#DejaVuSans-73" transform="translate(1036.470703 0)"/>
      <use xlink:href="#DejaVuSans-74" transform="translate(1088.570312 0)"/>
     </g>
    </g>
   </g>
   <g id="matplotlib.axis_2">
    <g id="ytick_1">
     <g id="line2d_15">
      <defs>
       <path id="me8db437b0b" d="M 0 0 
L -4.8 0 
" style="stroke: #262626"/>
      </defs>
      <g>
       <use xlink:href="#me8db437b0b" x="46.878" y="345.491539" style="fill: #262626; stroke: #262626"/>
      </g>
     </g>
     <g id="text_9">
      <!-- 18 -->
      <g style="fill: #262626" transform="translate(27.38 348.834852) scale(0.088 -0.088)">
       <use xlink:href="#DejaVuSans-31"/>
       <use xlink:href="#DejaVuSans-38" transform="translate(63.623047 0)"/>
      </g>
     </g>
    </g>
    <g id="ytick_2">
     <g id="line2d_16">
      <g>
       <use xlink:href="#me8db437b0b" x="46.878" y="295.163707" style="fill: #262626; stroke: #262626"/>
      </g>
     </g>
     <g id="text_10">
      <!-- 20 -->
      <g style="fill: #262626" transform="translate(27.38 298.507019) scale(0.088 -0.088)">
       <use xlink:href="#DejaVuSans-32"/>
       <use xlink:href="#DejaVuSans-30" transform="translate(63.623047 0)"/>
      </g>
     </g>
    </g>
    <g id="ytick_3">
     <g id="line2d_17">
      <g>
       <use xlink:href="#me8db437b0b" x="46.878" y="244.835874" style="fill: #262626; stroke: #262626"/>
      </g>
     </g>
     <g id="text_11">
      <!-- 22 -->
      <g style="fill: #262626" transform="translate(27.38 248.179187) scale(0.088 -0.088)">
       <use xlink:href="#DejaVuSans-32"/>
       <use xlink:href="#DejaVuSans-32" transform="translate(63.623047 0)"/>
      </g>
     </g>
    </g>
    <g id="ytick_4">
     <g id="line2d_18">
      <g>
       <use xlink:href="#me8db437b0b" x="46.878" y="194.508042" style="fill: #262626; stroke: #262626"/>
      </g>
     </g>
     <g id="text_12">
      <!-- 24 -->
      <g style="fill: #262626" transform="translate(27.38 197.851355) scale(0.088 -0.088)">
       <use xlink:href="#DejaVuSans-32"/>
       <use xlink:href="#DejaVuSans-34" transform="translate(63.623047 0)"/>
      </g>
     </g>
    </g>
    <g id="ytick_5">
     <g id="line2d_19">
      <g>
       <use xlink:href="#me8db437b0b" x="46.878" y="144.18021" style="fill: #262626; stroke: #262626"/>
      </g>
     </g>
     <g id="text_13">
      <!-- 26 -->
      <g style="fill: #262626" transform="translate(27.38 147.523522) scale(0.088 -0.088)">
       <use xlink:href="#DejaVuSans-32"/>
       <use xlink:href="#DejaVuSans-36" transform="translate(63.623047 0)"/>
      </g>
     </g>
    </g>
    <g id="ytick_6">
     <g id="line2d_20">
      <g>
       <use xlink:href="#me8db437b0b" x="46.878" y="93.852377" style="fill: #262626; stroke: #262626"/>
      </g>
     </g>
     <g id="text_14">
      <!-- 28 -->
      <g style="fill: #262626" transform="translate(27.38 97.19569) scale(0.088 -0.088)">
       <use xlink:href="#DejaVuSans-32"/>
       <use xlink:href="#DejaVuSans-38" transform="translate(63.623047 0)"/>
      </g>
     </g>
    </g>
    <g id="ytick_7">
     <g id="line2d_21">
      <g>
       <use xlink:href="#me8db437b0b" x="46.878" y="43.524545" style="fill: #262626; stroke: #262626"/>
      </g>
     </g>
     <g id="text_15">
      <!-- 30 -->
      <g style="fill: #262626" transform="translate(27.38 46.867858) scale(0.088 -0.088)">
       <use xlink:href="#DejaVuSans-33"/>
       <use xlink:href="#DejaVuSans-30" transform="translate(63.623047 0)"/>
      </g>
     </g>
    </g>
    <g id="ytick_8">
     <g id="line2d_22">
      <defs>
       <path id="mf9a252cc9e" d="M 0 0 
L -4 0 
" style="stroke: #d3d3d3; stroke-width: 0.8"/>
      </defs>
      <g>
       <use xlink:href="#mf9a252cc9e" x="46.878" y="370.655455" style="fill: #d3d3d3; stroke: #d3d3d3; stroke-width: 0.8"/>
      </g>
     </g>
    </g>
    <g id="ytick_9">
     <g id="line2d_23">
      <g>
       <use xlink:href="#mf9a252cc9e" x="46.878" y="320.327623" style="fill: #d3d3d3; stroke: #d3d3d3; stroke-width: 0.8"/>
      </g>
     </g>
    </g>
    <g id="ytick_10">
     <g id="line2d_24">
      <g>
       <use xlink:href="#mf9a252cc9e" x="46.878" y="269.999791" style="fill: #d3d3d3; stroke: #d3d3d3; stroke-width: 0.8"/>
      </g>
     </g>
    </g>
    <g id="ytick_11">
     <g id="line2d_25">
      <g>
       <use xlink:href="#mf9a252cc9e" x="46.878" y="219.671958" style="fill: #d3d3d3; stroke: #d3d3d3; stroke-width: 0.8"/>
      </g>
     </g>
    </g>
    <g id="ytick_12">
     <g id="line2d_26">
      <g>
       <use xlink:href="#mf9a252cc9e" x="46.878" y="169.344126" style="fill: #d3d3d3; stroke: #d3d3d3; stroke-width: 0.8"/>
      </g>
     </g>
    </g>
    <g id="ytick_13">
     <g id="line2d_27">
      <g>
       <use xlink:href="#mf9a252cc9e" x="46.878" y="119.016294" style="fill: #d3d3d3; stroke: #d3d3d3; stroke-width: 0.8"/>
      </g>
     </g>
    </g>
    <g id="ytick_14">
     <g id="line2d_28">
      <g>
       <use xlink:href="#mf9a252cc9e" x="46.878" y="68.688461" style="fill: #d3d3d3; stroke: #d3d3d3; stroke-width: 0.8"/>
      </g>
     </g>
    </g>
    <g id="text_16">
     <!-- Predicted MoCA Sum Post -->
     <g style="fill: #262626" transform="translate(20.884375 284.1225) rotate(-90) scale(0.12 -0.12)">
      <defs>
       <path id="DejaVuSans-72" d="M 2631 2963 
Q 2534 3019 2420 3045 
Q 2306 3072 2169 3072 
Q 1681 3072 1420 2755 
Q 1159 2438 1159 1844 
L 1159 0 
L 581 0 
L 581 3500 
L 1159 3500 
L 1159 2956 
Q 1341 3275 1631 3429 
Q 1922 3584 2338 3584 
Q 2397 3584 2469 3576 
Q 2541 3569 2628 3553 
L 2631 2963 
z
" transform="scale(0.015625)"/>
       <path id="DejaVuSans-65" d="M 3597 1894 
L 3597 1613 
L 953 1613 
Q 991 1019 1311 708 
Q 1631 397 2203 397 
Q 2534 397 2845 478 
Q 3156 559 3463 722 
L 3463 178 
Q 3153 47 2828 -22 
Q 2503 -91 2169 -91 
Q 1331 -91 842 396 
Q 353 884 353 1716 
Q 353 2575 817 3079 
Q 1281 3584 2069 3584 
Q 2775 3584 3186 3129 
Q 3597 2675 3597 1894 
z
M 3022 2063 
Q 3016 2534 2758 2815 
Q 2500 3097 2075 3097 
Q 1594 3097 1305 2825 
Q 1016 2553 972 2059 
L 3022 2063 
z
" transform="scale(0.015625)"/>
       <path id="DejaVuSans-64" d="M 2906 2969 
L 2906 4863 
L 3481 4863 
L 3481 0 
L 2906 0 
L 2906 525 
Q 2725 213 2448 61 
Q 2172 -91 1784 -91 
Q 1150 -91 751 415 
Q 353 922 353 1747 
Q 353 2572 751 3078 
Q 1150 3584 1784 3584 
Q 2172 3584 2448 3432 
Q 2725 3281 2906 2969 
z
M 947 1747 
Q 947 1113 1208 752 
Q 1469 391 1925 391 
Q 2381 391 2643 752 
Q 2906 1113 2906 1747 
Q 2906 2381 2643 2742 
Q 2381 3103 1925 3103 
Q 1469 3103 1208 2742 
Q 947 2381 947 1747 
z
" transform="scale(0.015625)"/>
       <path id="DejaVuSans-69" d="M 603 3500 
L 1178 3500 
L 1178 0 
L 603 0 
L 603 3500 
z
M 603 4863 
L 1178 4863 
L 1178 4134 
L 603 4134 
L 603 4863 
z
" transform="scale(0.015625)"/>
      </defs>
      <use xlink:href="#DejaVuSans-50"/>
      <use xlink:href="#DejaVuSans-72" transform="translate(58.552734 0)"/>
      <use xlink:href="#DejaVuSans-65" transform="translate(97.416016 0)"/>
      <use xlink:href="#DejaVuSans-64" transform="translate(158.939453 0)"/>
      <use xlink:href="#DejaVuSans-69" transform="translate(222.416016 0)"/>
      <use xlink:href="#DejaVuSans-63" transform="translate(250.199219 0)"/>
      <use xlink:href="#DejaVuSans-74" transform="translate(305.179688 0)"/>
      <use xlink:href="#DejaVuSans-65" transform="translate(344.388672 0)"/>
      <use xlink:href="#DejaVuSans-64" transform="translate(405.912109 0)"/>
      <use xlink:href="#DejaVuSans-20" transform="translate(469.388672 0)"/>
      <use xlink:href="#DejaVuSans-4d" transform="translate(501.175781 0)"/>
      <use xlink:href="#DejaVuSans-6f" transform="translate(587.455078 0)"/>
      <use xlink:href="#DejaVuSans-43" transform="translate(648.636719 0)"/>
      <use xlink:href="#DejaVuSans-41" transform="translate(718.460938 0)"/>
      <use xlink:href="#DejaVuSans-20" transform="translate(786.869141 0)"/>
      <use xlink:href="#DejaVuSans-53" transform="translate(818.65625 0)"/>
      <use xlink:href="#DejaVuSans-75" transform="translate(882.132812 0)"/>
      <use xlink:href="#DejaVuSans-6d" transform="translate(945.511719 0)"/>
      <use xlink:href="#DejaVuSans-20" transform="translate(1042.923828 0)"/>
      <use xlink:href="#DejaVuSans-50" transform="translate(1074.710938 0)"/>
      <use xlink:href="#DejaVuSans-6f" transform="translate(1131.388672 0)"/>
      <use xlink:href="#DejaVuSans-73" transform="translate(1192.570312 0)"/>
      <use xlink:href="#DejaVuSans-74" transform="translate(1244.669922 0)"/>
     </g>
    </g>
   </g>
   <g id="PathCollection_1">
    <defs>
     <path id="m69bab4be61" d="M 0 2.4 
C 0.636487 2.4 1.246992 2.147121 1.697056 1.697056 
C 2.147121 1.246992 2.4 0.636487 2.4 0 
C 2.4 -0.636487 2.147121 -1.246992 1.697056 -1.697056 
C 1.246992 -2.147121 0.636487 -2.4 0 -2.4 
C -0.636487 -2.4 -1.246992 -2.147121 -1.697056 -1.697056 
C -2.147121 -1.246992 -2.4 -0.636487 -2.4 0 
C -2.4 0.636487 -2.147121 1.246992 -1.697056 1.697056 
C -1.246992 2.147121 -0.636487 2.4 0 2.4 
z
" style="stroke: #ffffff; stroke-opacity: 0.7; stroke-width: 0.384"/>
    </defs>
    <g clip-path="url(#p357424cb36)">
     <use xlink:href="#m69bab4be61" x="360.669755" y="149.109147" style="fill: #4c72b0; fill-opacity: 0.7; stroke: #ffffff; stroke-opacity: 0.7; stroke-width: 0.384"/>
     <use xlink:href="#m69bab4be61" x="70.457727" y="156.858858" style="fill: #4c72b0; fill-opacity: 0.7; stroke: #ffffff; stroke-opacity: 0.7; stroke-width: 0.384"/>
     <use xlink:href="#m69bab4be61" x="360.669755" y="126.313776" style="fill: #4c72b0; fill-opacity: 0.7; stroke: #ffffff; stroke-opacity: 0.7; stroke-width: 0.384"/>
     <use xlink:href="#m69bab4be61" x="469.499266" y="154.141935" style="fill: #4c72b0; fill-opacity: 0.7; stroke: #ffffff; stroke-opacity: 0.7; stroke-width: 0.384"/>
     <use xlink:href="#m69bab4be61" x="324.393252" y="179.733795" style="fill: #4c72b0; fill-opacity: 0.7; stroke: #ffffff; stroke-opacity: 0.7; stroke-width: 0.384"/>
     <use xlink:href="#m69bab4be61" x="251.840245" y="220.165772" style="fill: #4c72b0; fill-opacity: 0.7; stroke: #ffffff; stroke-opacity: 0.7; stroke-width: 0.384"/>
     <use xlink:href="#m69bab4be61" x="542.052273" y="178.377194" style="fill: #4c72b0; fill-opacity: 0.7; stroke: #ffffff; stroke-opacity: 0.7; stroke-width: 0.384"/>
     <use xlink:href="#m69bab4be61" x="542.052273" y="133.659057" style="fill: #4c72b0; fill-opacity: 0.7; stroke: #ffffff; stroke-opacity: 0.7; stroke-width: 0.384"/>
     <use xlink:href="#m69bab4be61" x="215.563741" y="238.742103" style="fill: #4c72b0; fill-opacity: 0.7; stroke: #ffffff; stroke-opacity: 0.7; stroke-width: 0.384"/>
     <use xlink:href="#m69bab4be61" x="542.052273" y="132.065586" style="fill: #4c72b0; fill-opacity: 0.7; stroke: #ffffff; stroke-opacity: 0.7; stroke-width: 0.384"/>
     <use xlink:href="#m69bab4be61" x="505.775769" y="144.355466" style="fill: #4c72b0; fill-opacity: 0.7; stroke: #ffffff; stroke-opacity: 0.7; stroke-width: 0.384"/>
     <use xlink:href="#m69bab4be61" x="179.287238" y="209.105626" style="fill: #4c72b0; fill-opacity: 0.7; stroke: #ffffff; stroke-opacity: 0.7; stroke-width: 0.384"/>
     <use xlink:href="#m69bab4be61" x="469.499266" y="162.560439" style="fill: #4c72b0; fill-opacity: 0.7; stroke: #ffffff; stroke-opacity: 0.7; stroke-width: 0.384"/>
     <use xlink:href="#m69bab4be61" x="106.734231" y="151.189725" style="fill: #4c72b0; fill-opacity: 0.7; stroke: #ffffff; stroke-opacity: 0.7; stroke-width: 0.384"/>
     <use xlink:href="#m69bab4be61" x="288.116748" y="210.196105" style="fill: #4c72b0; fill-opacity: 0.7; stroke: #ffffff; stroke-opacity: 0.7; stroke-width: 0.384"/>
     <use xlink:href="#m69bab4be61" x="469.499266" y="169.842295" style="fill: #4c72b0; fill-opacity: 0.7; stroke: #ffffff; stroke-opacity: 0.7; stroke-width: 0.384"/>
     <use xlink:href="#m69bab4be61" x="215.563741" y="177.147931" style="fill: #4c72b0; fill-opacity: 0.7; stroke: #ffffff; stroke-opacity: 0.7; stroke-width: 0.384"/>
     <use xlink:href="#m69bab4be61" x="179.287238" y="246.116379" style="fill: #4c72b0; fill-opacity: 0.7; stroke: #ffffff; stroke-opacity: 0.7; stroke-width: 0.384"/>
     <use xlink:href="#m69bab4be61" x="469.499266" y="152.399448" style="fill: #4c72b0; fill-opacity: 0.7; stroke: #ffffff; stroke-opacity: 0.7; stroke-width: 0.384"/>
     <use xlink:href="#m69bab4be61" x="469.499266" y="166.007934" style="fill: #4c72b0; fill-opacity: 0.7; stroke: #ffffff; stroke-opacity: 0.7; stroke-width: 0.384"/>
     <use xlink:href="#m69bab4be61" x="360.669755" y="159.243415" style="fill: #4c72b0; fill-opacity: 0.7; stroke: #ffffff; stroke-opacity: 0.7; stroke-width: 0.384"/>
     <use xlink:href="#m69bab4be61" x="469.499266" y="128.136779" style="fill: #4c72b0; fill-opacity: 0.7; stroke: #ffffff; stroke-opacity: 0.7; stroke-width: 0.384"/>
     <use xlink:href="#m69bab4be61" x="433.222762" y="131.16657" style="fill: #4c72b0; fill-opacity: 0.7; stroke: #ffffff; stroke-opacity: 0.7; stroke-width: 0.384"/>
     <use xlink:href="#m69bab4be61" x="179.287238" y="194.89862" style="fill: #4c72b0; fill-opacity: 0.7; stroke: #ffffff; stroke-opacity: 0.7; stroke-width: 0.384"/>
     <use xlink:href="#m69bab4be61" x="469.499266" y="117.566391" style="fill: #4c72b0; fill-opacity: 0.7; stroke: #ffffff; stroke-opacity: 0.7; stroke-width: 0.384"/>
     <use xlink:href="#m69bab4be61" x="324.393252" y="189.227092" style="fill: #4c72b0; fill-opacity: 0.7; stroke: #ffffff; stroke-opacity: 0.7; stroke-width: 0.384"/>
     <use xlink:href="#m69bab4be61" x="542.052273" y="138.433648" style="fill: #4c72b0; fill-opacity: 0.7; stroke: #ffffff; stroke-opacity: 0.7; stroke-width: 0.384"/>
     <use xlink:href="#m69bab4be61" x="143.010734" y="195.894694" style="fill: #4c72b0; fill-opacity: 0.7; stroke: #ffffff; stroke-opacity: 0.7; stroke-width: 0.384"/>
     <use xlink:href="#m69bab4be61" x="433.222762" y="172.735537" style="fill: #4c72b0; fill-opacity: 0.7; stroke: #ffffff; stroke-opacity: 0.7; stroke-width: 0.384"/>
     <use xlink:href="#m69bab4be61" x="542.052273" y="111.303759" style="fill: #4c72b0; fill-opacity: 0.7; stroke: #ffffff; stroke-opacity: 0.7; stroke-width: 0.384"/>
     <use xlink:href="#m69bab4be61" x="542.052273" y="97.950013" style="fill: #4c72b0; fill-opacity: 0.7; stroke: #ffffff; stroke-opacity: 0.7; stroke-width: 0.384"/>
     <use xlink:href="#m69bab4be61" x="469.499266" y="136.575991" style="fill: #4c72b0; fill-opacity: 0.7; stroke: #ffffff; stroke-opacity: 0.7; stroke-width: 0.384"/>
     <use xlink:href="#m69bab4be61" x="542.052273" y="89.026242" style="fill: #4c72b0; fill-opacity: 0.7; stroke: #ffffff; stroke-opacity: 0.7; stroke-width: 0.384"/>
     <use xlink:href="#m69bab4be61" x="469.499266" y="131.241612" style="fill: #4c72b0; fill-opacity: 0.7; stroke: #ffffff; stroke-opacity: 0.7; stroke-width: 0.384"/>
     <use xlink:href="#m69bab4be61" x="433.222762" y="138.297961" style="fill: #4c72b0; fill-opacity: 0.7; stroke: #ffffff; stroke-opacity: 0.7; stroke-width: 0.384"/>
     <use xlink:href="#m69bab4be61" x="469.499266" y="128.116825" style="fill: #4c72b0; fill-opacity: 0.7; stroke: #ffffff; stroke-opacity: 0.7; stroke-width: 0.384"/>
     <use xlink:href="#m69bab4be61" x="360.669755" y="172.463199" style="fill: #4c72b0; fill-opacity: 0.7; stroke: #ffffff; stroke-opacity: 0.7; stroke-width: 0.384"/>
     <use xlink:href="#m69bab4be61" x="179.287238" y="171.71443" style="fill: #4c72b0; fill-opacity: 0.7; stroke: #ffffff; stroke-opacity: 0.7; stroke-width: 0.384"/>
     <use xlink:href="#m69bab4be61" x="396.946259" y="124.386371" style="fill: #4c72b0; fill-opacity: 0.7; stroke: #ffffff; stroke-opacity: 0.7; stroke-width: 0.384"/>
     <use xlink:href="#m69bab4be61" x="106.734231" y="207.709698" style="fill: #4c72b0; fill-opacity: 0.7; stroke: #ffffff; stroke-opacity: 0.7; stroke-width: 0.384"/>
     <use xlink:href="#m69bab4be61" x="396.946259" y="153.657022" style="fill: #4c72b0; fill-opacity: 0.7; stroke: #ffffff; stroke-opacity: 0.7; stroke-width: 0.384"/>
     <use xlink:href="#m69bab4be61" x="469.499266" y="187.112081" style="fill: #4c72b0; fill-opacity: 0.7; stroke: #ffffff; stroke-opacity: 0.7; stroke-width: 0.384"/>
     <use xlink:href="#m69bab4be61" x="505.775769" y="69.408338" style="fill: #4c72b0; fill-opacity: 0.7; stroke: #ffffff; stroke-opacity: 0.7; stroke-width: 0.384"/>
     <use xlink:href="#m69bab4be61" x="469.499266" y="124.145248" style="fill: #4c72b0; fill-opacity: 0.7; stroke: #ffffff; stroke-opacity: 0.7; stroke-width: 0.384"/>
     <use xlink:href="#m69bab4be61" x="469.499266" y="130.93567" style="fill: #4c72b0; fill-opacity: 0.7; stroke: #ffffff; stroke-opacity: 0.7; stroke-width: 0.384"/>
     <use xlink:href="#m69bab4be61" x="396.946259" y="122.069349" style="fill: #4c72b0; fill-opacity: 0.7; stroke: #ffffff; stroke-opacity: 0.7; stroke-width: 0.384"/>
     <use xlink:href="#m69bab4be61" x="469.499266" y="191.172022" style="fill: #4c72b0; fill-opacity: 0.7; stroke: #ffffff; stroke-opacity: 0.7; stroke-width: 0.384"/>
     <use xlink:href="#m69bab4be61" x="251.840245" y="76.575462" style="fill: #4c72b0; fill-opacity: 0.7; stroke: #ffffff; stroke-opacity: 0.7; stroke-width: 0.384"/>
     <use xlink:href="#m69bab4be61" x="288.116748" y="130.106569" style="fill: #4c72b0; fill-opacity: 0.7; stroke: #ffffff; stroke-opacity: 0.7; stroke-width: 0.384"/>
     <use xlink:href="#m69bab4be61" x="542.052273" y="151.323907" style="fill: #4c72b0; fill-opacity: 0.7; stroke: #ffffff; stroke-opacity: 0.7; stroke-width: 0.384"/>
     <use xlink:href="#m69bab4be61" x="542.052273" y="177.35727" style="fill: #4c72b0; fill-opacity: 0.7; stroke: #ffffff; stroke-opacity: 0.7; stroke-width: 0.384"/>
     <use xlink:href="#m69bab4be61" x="505.775769" y="109.116944" style="fill: #4c72b0; fill-opacity: 0.7; stroke: #ffffff; stroke-opacity: 0.7; stroke-width: 0.384"/>
     <use xlink:href="#m69bab4be61" x="433.222762" y="173.754605" style="fill: #4c72b0; fill-opacity: 0.7; stroke: #ffffff; stroke-opacity: 0.7; stroke-width: 0.384"/>
     <use xlink:href="#m69bab4be61" x="396.946259" y="214.982147" style="fill: #4c72b0; fill-opacity: 0.7; stroke: #ffffff; stroke-opacity: 0.7; stroke-width: 0.384"/>
     <use xlink:href="#m69bab4be61" x="469.499266" y="77.5255" style="fill: #4c72b0; fill-opacity: 0.7; stroke: #ffffff; stroke-opacity: 0.7; stroke-width: 0.384"/>
     <use xlink:href="#m69bab4be61" x="324.393252" y="117.085507" style="fill: #4c72b0; fill-opacity: 0.7; stroke: #ffffff; stroke-opacity: 0.7; stroke-width: 0.384"/>
     <use xlink:href="#m69bab4be61" x="215.563741" y="148.930971" style="fill: #4c72b0; fill-opacity: 0.7; stroke: #ffffff; stroke-opacity: 0.7; stroke-width: 0.384"/>
     <use xlink:href="#m69bab4be61" x="324.393252" y="167.918162" style="fill: #4c72b0; fill-opacity: 0.7; stroke: #ffffff; stroke-opacity: 0.7; stroke-width: 0.384"/>
     <use xlink:href="#m69bab4be61" x="542.052273" y="155.8997" style="fill: #4c72b0; fill-opacity: 0.7; stroke: #ffffff; stroke-opacity: 0.7; stroke-width: 0.384"/>
     <use xlink:href="#m69bab4be61" x="505.775769" y="86.817589" style="fill: #4c72b0; fill-opacity: 0.7; stroke: #ffffff; stroke-opacity: 0.7; stroke-width: 0.384"/>
     <use xlink:href="#m69bab4be61" x="542.052273" y="138.811523" style="fill: #4c72b0; fill-opacity: 0.7; stroke: #ffffff; stroke-opacity: 0.7; stroke-width: 0.384"/>
     <use xlink:href="#m69bab4be61" x="360.669755" y="163.950757" style="fill: #4c72b0; fill-opacity: 0.7; stroke: #ffffff; stroke-opacity: 0.7; stroke-width: 0.384"/>
     <use xlink:href="#m69bab4be61" x="542.052273" y="97.536105" style="fill: #4c72b0; fill-opacity: 0.7; stroke: #ffffff; stroke-opacity: 0.7; stroke-width: 0.384"/>
     <use xlink:href="#m69bab4be61" x="360.669755" y="97.426371" style="fill: #4c72b0; fill-opacity: 0.7; stroke: #ffffff; stroke-opacity: 0.7; stroke-width: 0.384"/>
     <use xlink:href="#m69bab4be61" x="251.840245" y="113.163314" style="fill: #4c72b0; fill-opacity: 0.7; stroke: #ffffff; stroke-opacity: 0.7; stroke-width: 0.384"/>
     <use xlink:href="#m69bab4be61" x="251.840245" y="114.248719" style="fill: #4c72b0; fill-opacity: 0.7; stroke: #ffffff; stroke-opacity: 0.7; stroke-width: 0.384"/>
     <use xlink:href="#m69bab4be61" x="542.052273" y="120.762819" style="fill: #4c72b0; fill-opacity: 0.7; stroke: #ffffff; stroke-opacity: 0.7; stroke-width: 0.384"/>
     <use xlink:href="#m69bab4be61" x="360.669755" y="134.71882" style="fill: #4c72b0; fill-opacity: 0.7; stroke: #ffffff; stroke-opacity: 0.7; stroke-width: 0.384"/>
     <use xlink:href="#m69bab4be61" x="360.669755" y="120.004573" style="fill: #4c72b0; fill-opacity: 0.7; stroke: #ffffff; stroke-opacity: 0.7; stroke-width: 0.384"/>
     <use xlink:href="#m69bab4be61" x="542.052273" y="64.82291" style="fill: #4c72b0; fill-opacity: 0.7; stroke: #ffffff; stroke-opacity: 0.7; stroke-width: 0.384"/>
     <use xlink:href="#m69bab4be61" x="433.222762" y="177.105279" style="fill: #4c72b0; fill-opacity: 0.7; stroke: #ffffff; stroke-opacity: 0.7; stroke-width: 0.384"/>
     <use xlink:href="#m69bab4be61" x="433.222762" y="127.610265" style="fill: #4c72b0; fill-opacity: 0.7; stroke: #ffffff; stroke-opacity: 0.7; stroke-width: 0.384"/>
     <use xlink:href="#m69bab4be61" x="469.499266" y="102.923715" style="fill: #4c72b0; fill-opacity: 0.7; stroke: #ffffff; stroke-opacity: 0.7; stroke-width: 0.384"/>
     <use xlink:href="#m69bab4be61" x="360.669755" y="219.814058" style="fill: #4c72b0; fill-opacity: 0.7; stroke: #ffffff; stroke-opacity: 0.7; stroke-width: 0.384"/>
     <use xlink:href="#m69bab4be61" x="360.669755" y="156.340466" style="fill: #4c72b0; fill-opacity: 0.7; stroke: #ffffff; stroke-opacity: 0.7; stroke-width: 0.384"/>
     <use xlink:href="#m69bab4be61" x="469.499266" y="117.066802" style="fill: #4c72b0; fill-opacity: 0.7; stroke: #ffffff; stroke-opacity: 0.7; stroke-width: 0.384"/>
     <use xlink:href="#m69bab4be61" x="433.222762" y="144.849068" style="fill: #4c72b0; fill-opacity: 0.7; stroke: #ffffff; stroke-opacity: 0.7; stroke-width: 0.384"/>
     <use xlink:href="#m69bab4be61" x="542.052273" y="79.866375" style="fill: #4c72b0; fill-opacity: 0.7; stroke: #ffffff; stroke-opacity: 0.7; stroke-width: 0.384"/>
     <use xlink:href="#m69bab4be61" x="251.840245" y="168.357815" style="fill: #4c72b0; fill-opacity: 0.7; stroke: #ffffff; stroke-opacity: 0.7; stroke-width: 0.384"/>
     <use xlink:href="#m69bab4be61" x="396.946259" y="127.842232" style="fill: #4c72b0; fill-opacity: 0.7; stroke: #ffffff; stroke-opacity: 0.7; stroke-width: 0.384"/>
     <use xlink:href="#m69bab4be61" x="288.116748" y="144.060721" style="fill: #4c72b0; fill-opacity: 0.7; stroke: #ffffff; stroke-opacity: 0.7; stroke-width: 0.384"/>
     <use xlink:href="#m69bab4be61" x="215.563741" y="107.060154" style="fill: #4c72b0; fill-opacity: 0.7; stroke: #ffffff; stroke-opacity: 0.7; stroke-width: 0.384"/>
     <use xlink:href="#m69bab4be61" x="542.052273" y="134.21525" style="fill: #4c72b0; fill-opacity: 0.7; stroke: #ffffff; stroke-opacity: 0.7; stroke-width: 0.384"/>
     <use xlink:href="#m69bab4be61" x="433.222762" y="125.469606" style="fill: #4c72b0; fill-opacity: 0.7; stroke: #ffffff; stroke-opacity: 0.7; stroke-width: 0.384"/>
     <use xlink:href="#m69bab4be61" x="396.946259" y="180.56028" style="fill: #4c72b0; fill-opacity: 0.7; stroke: #ffffff; stroke-opacity: 0.7; stroke-width: 0.384"/>
     <use xlink:href="#m69bab4be61" x="360.669755" y="96.296367" style="fill: #4c72b0; fill-opacity: 0.7; stroke: #ffffff; stroke-opacity: 0.7; stroke-width: 0.384"/>
     <use xlink:href="#m69bab4be61" x="433.222762" y="115.731108" style="fill: #4c72b0; fill-opacity: 0.7; stroke: #ffffff; stroke-opacity: 0.7; stroke-width: 0.384"/>
     <use xlink:href="#m69bab4be61" x="324.393252" y="149.712997" style="fill: #4c72b0; fill-opacity: 0.7; stroke: #ffffff; stroke-opacity: 0.7; stroke-width: 0.384"/>
     <use xlink:href="#m69bab4be61" x="505.775769" y="164.130915" style="fill: #4c72b0; fill-opacity: 0.7; stroke: #ffffff; stroke-opacity: 0.7; stroke-width: 0.384"/>
     <use xlink:href="#m69bab4be61" x="469.499266" y="129.8283" style="fill: #4c72b0; fill-opacity: 0.7; stroke: #ffffff; stroke-opacity: 0.7; stroke-width: 0.384"/>
     <use xlink:href="#m69bab4be61" x="542.052273" y="106.428386" style="fill: #4c72b0; fill-opacity: 0.7; stroke: #ffffff; stroke-opacity: 0.7; stroke-width: 0.384"/>
     <use xlink:href="#m69bab4be61" x="505.775769" y="199.981787" style="fill: #4c72b0; fill-opacity: 0.7; stroke: #ffffff; stroke-opacity: 0.7; stroke-width: 0.384"/>
     <use xlink:href="#m69bab4be61" x="469.499266" y="105.051039" style="fill: #4c72b0; fill-opacity: 0.7; stroke: #ffffff; stroke-opacity: 0.7; stroke-width: 0.384"/>
     <use xlink:href="#m69bab4be61" x="360.669755" y="129.865405" style="fill: #4c72b0; fill-opacity: 0.7; stroke: #ffffff; stroke-opacity: 0.7; stroke-width: 0.384"/>
     <use xlink:href="#m69bab4be61" x="433.222762" y="123.930948" style="fill: #4c72b0; fill-opacity: 0.7; stroke: #ffffff; stroke-opacity: 0.7; stroke-width: 0.384"/>
     <use xlink:href="#m69bab4be61" x="360.669755" y="112.833954" style="fill: #4c72b0; fill-opacity: 0.7; stroke: #ffffff; stroke-opacity: 0.7; stroke-width: 0.384"/>
     <use xlink:href="#m69bab4be61" x="433.222762" y="170.359411" style="fill: #4c72b0; fill-opacity: 0.7; stroke: #ffffff; stroke-opacity: 0.7; stroke-width: 0.384"/>
     <use xlink:href="#m69bab4be61" x="469.499266" y="103.404415" style="fill: #4c72b0; fill-opacity: 0.7; stroke: #ffffff; stroke-opacity: 0.7; stroke-width: 0.384"/>
     <use xlink:href="#m69bab4be61" x="433.222762" y="145.051904" style="fill: #4c72b0; fill-opacity: 0.7; stroke: #ffffff; stroke-opacity: 0.7; stroke-width: 0.384"/>
     <use xlink:href="#m69bab4be61" x="542.052273" y="131.213402" style="fill: #4c72b0; fill-opacity: 0.7; stroke: #ffffff; stroke-opacity: 0.7; stroke-width: 0.384"/>
     <use xlink:href="#m69bab4be61" x="433.222762" y="148.847143" style="fill: #4c72b0; fill-opacity: 0.7; stroke: #ffffff; stroke-opacity: 0.7; stroke-width: 0.384"/>
     <use xlink:href="#m69bab4be61" x="106.734231" y="137.682588" style="fill: #4c72b0; fill-opacity: 0.7; stroke: #ffffff; stroke-opacity: 0.7; stroke-width: 0.384"/>
     <use xlink:href="#m69bab4be61" x="360.669755" y="136.982958" style="fill: #4c72b0; fill-opacity: 0.7; stroke: #ffffff; stroke-opacity: 0.7; stroke-width: 0.384"/>
     <use xlink:href="#m69bab4be61" x="433.222762" y="129.290417" style="fill: #4c72b0; fill-opacity: 0.7; stroke: #ffffff; stroke-opacity: 0.7; stroke-width: 0.384"/>
     <use xlink:href="#m69bab4be61" x="505.775769" y="107.123067" style="fill: #4c72b0; fill-opacity: 0.7; stroke: #ffffff; stroke-opacity: 0.7; stroke-width: 0.384"/>
     <use xlink:href="#m69bab4be61" x="505.775769" y="133.957072" style="fill: #4c72b0; fill-opacity: 0.7; stroke: #ffffff; stroke-opacity: 0.7; stroke-width: 0.384"/>
     <use xlink:href="#m69bab4be61" x="288.116748" y="116.786242" style="fill: #4c72b0; fill-opacity: 0.7; stroke: #ffffff; stroke-opacity: 0.7; stroke-width: 0.384"/>
     <use xlink:href="#m69bab4be61" x="542.052273" y="98.641884" style="fill: #4c72b0; fill-opacity: 0.7; stroke: #ffffff; stroke-opacity: 0.7; stroke-width: 0.384"/>
     <use xlink:href="#m69bab4be61" x="360.669755" y="107.743511" style="fill: #4c72b0; fill-opacity: 0.7; stroke: #ffffff; stroke-opacity: 0.7; stroke-width: 0.384"/>
     <use xlink:href="#m69bab4be61" x="433.222762" y="103.61197" style="fill: #4c72b0; fill-opacity: 0.7; stroke: #ffffff; stroke-opacity: 0.7; stroke-width: 0.384"/>
     <use xlink:href="#m69bab4be61" x="505.775769" y="137.922719" style="fill: #4c72b0; fill-opacity: 0.7; stroke: #ffffff; stroke-opacity: 0.7; stroke-width: 0.384"/>
     <use xlink:href="#m69bab4be61" x="505.775769" y="137.667281" style="fill: #4c72b0; fill-opacity: 0.7; stroke: #ffffff; stroke-opacity: 0.7; stroke-width: 0.384"/>
     <use xlink:href="#m69bab4be61" x="215.563741" y="138.952494" style="fill: #4c72b0; fill-opacity: 0.7; stroke: #ffffff; stroke-opacity: 0.7; stroke-width: 0.384"/>
     <use xlink:href="#m69bab4be61" x="396.946259" y="143.501464" style="fill: #4c72b0; fill-opacity: 0.7; stroke: #ffffff; stroke-opacity: 0.7; stroke-width: 0.384"/>
     <use xlink:href="#m69bab4be61" x="433.222762" y="104.996403" style="fill: #4c72b0; fill-opacity: 0.7; stroke: #ffffff; stroke-opacity: 0.7; stroke-width: 0.384"/>
     <use xlink:href="#m69bab4be61" x="179.287238" y="157.418035" style="fill: #4c72b0; fill-opacity: 0.7; stroke: #ffffff; stroke-opacity: 0.7; stroke-width: 0.384"/>
     <use xlink:href="#m69bab4be61" x="360.669755" y="80.064194" style="fill: #4c72b0; fill-opacity: 0.7; stroke: #ffffff; stroke-opacity: 0.7; stroke-width: 0.384"/>
    </g>
   </g>
   <g id="FillBetweenPolyCollection_1">
    <defs>
     <path id="m736d8a9e32" d="M 70.457727 -271.546173 
L 70.457727 -232.21229 
L 75.221309 -233.00971 
L 79.98489 -233.808548 
L 84.748471 -234.607386 
L 89.512052 -235.406224 
L 94.275634 -236.205062 
L 99.039215 -236.984873 
L 103.802796 -237.793459 
L 108.566377 -238.596008 
L 113.329959 -239.391219 
L 118.09354 -240.186429 
L 122.857121 -240.98164 
L 127.620702 -241.776851 
L 132.384284 -242.573867 
L 137.147865 -243.370911 
L 141.911446 -244.167955 
L 146.675028 -244.965 
L 151.438609 -245.762044 
L 156.20219 -246.559089 
L 160.965771 -247.356915 
L 165.729353 -248.126998 
L 170.492934 -248.877643 
L 175.256515 -249.659962 
L 180.020096 -250.531908 
L 184.783678 -251.343746 
L 189.547259 -252.141601 
L 194.31084 -252.939635 
L 199.074421 -253.737669 
L 203.838003 -254.535704 
L 208.601584 -255.3357 
L 213.365165 -256.178638 
L 218.128747 -257.021576 
L 222.892328 -257.787423 
L 227.655909 -258.586128 
L 232.41949 -259.319593 
L 237.183072 -260.113865 
L 241.946653 -260.973492 
L 246.710234 -261.868766 
L 251.473815 -262.716149 
L 256.237397 -263.510663 
L 261.000978 -264.305177 
L 265.764559 -265.099691 
L 270.52814 -265.894403 
L 275.291722 -266.689987 
L 280.055303 -267.485571 
L 284.818884 -268.226368 
L 289.582466 -269.054862 
L 294.346047 -269.866547 
L 299.109628 -270.554809 
L 303.873209 -271.270032 
L 308.636791 -272.065973 
L 313.400372 -272.815883 
L 318.163953 -273.529683 
L 322.927534 -274.237154 
L 327.691116 -274.90404 
L 332.454697 -275.556814 
L 337.218278 -276.168843 
L 341.98186 -276.800371 
L 346.745441 -277.447669 
L 351.509022 -278.104379 
L 356.272603 -278.816107 
L 361.036185 -279.473165 
L 365.799766 -280.153341 
L 370.563347 -280.833997 
L 375.326928 -281.430318 
L 380.09051 -282.006372 
L 384.854091 -282.781157 
L 389.617672 -283.399707 
L 394.381253 -284.020008 
L 399.144835 -284.754778 
L 403.908416 -285.419719 
L 408.671997 -285.993361 
L 413.435579 -286.567927 
L 418.19916 -287.115002 
L 422.962741 -287.731916 
L 427.726322 -288.279135 
L 432.489904 -288.969954 
L 437.253485 -289.447904 
L 442.017066 -289.999716 
L 446.780647 -290.372491 
L 451.544229 -290.920545 
L 456.30781 -291.426221 
L 461.071391 -291.922927 
L 465.834972 -292.390324 
L 470.598554 -292.889742 
L 475.362135 -293.357264 
L 480.125716 -293.855715 
L 484.889298 -294.355196 
L 489.652879 -294.751842 
L 494.41646 -295.220985 
L 499.180041 -295.689277 
L 503.943623 -296.037226 
L 508.707204 -296.356365 
L 513.470785 -296.555583 
L 518.234366 -296.956134 
L 522.997948 -297.386471 
L 527.761529 -297.673655 
L 532.52511 -298.095668 
L 537.288691 -298.40713 
L 542.052273 -298.811522 
L 542.052273 -316.010622 
L 542.052273 -316.010622 
L 537.288691 -315.321146 
L 532.52511 -314.634129 
L 527.761529 -313.962697 
L 522.997948 -313.264989 
L 518.234366 -312.566807 
L 513.470785 -311.797707 
L 508.707204 -311.097958 
L 503.943623 -310.35491 
L 499.180041 -309.631754 
L 494.41646 -308.993131 
L 489.652879 -308.2678 
L 484.889298 -307.49348 
L 480.125716 -306.717206 
L 475.362135 -306.133721 
L 470.598554 -305.350573 
L 465.834972 -304.734075 
L 461.071391 -304.278612 
L 456.30781 -303.632456 
L 451.544229 -302.961531 
L 446.780647 -302.3244 
L 442.017066 -301.656441 
L 437.253485 -301.075663 
L 432.489904 -300.410145 
L 427.726322 -299.916086 
L 422.962741 -299.278134 
L 418.19916 -298.690978 
L 413.435579 -298.103872 
L 408.671997 -297.575396 
L 403.908416 -297.007497 
L 399.144835 -296.399141 
L 394.381253 -296.083968 
L 389.617672 -295.584658 
L 384.854091 -295.104018 
L 380.09051 -294.717401 
L 375.326928 -294.300142 
L 370.563347 -293.866769 
L 365.799766 -293.428004 
L 361.036185 -292.907976 
L 356.272603 -292.423621 
L 351.509022 -291.934304 
L 346.745441 -291.460067 
L 341.98186 -290.887512 
L 337.218278 -290.464779 
L 332.454697 -290.089448 
L 327.691116 -289.718415 
L 322.927534 -289.196579 
L 318.163953 -288.817612 
L 313.400372 -288.432355 
L 308.636791 -288.031235 
L 303.873209 -287.681173 
L 299.109628 -287.330998 
L 294.346047 -286.980823 
L 289.582466 -286.630647 
L 284.818884 -286.280472 
L 280.055303 -285.930115 
L 275.291722 -285.580121 
L 270.52814 -285.280811 
L 265.764559 -284.913549 
L 261.000978 -284.546287 
L 256.237397 -284.206584 
L 251.473815 -283.885019 
L 246.710234 -283.563455 
L 241.946653 -283.24189 
L 237.183072 -282.920326 
L 232.41949 -282.598762 
L 227.655909 -282.277197 
L 222.892328 -281.947358 
L 218.128747 -281.594174 
L 213.365165 -281.212588 
L 208.601584 -280.877359 
L 203.838003 -280.532834 
L 199.074421 -280.21684 
L 194.31084 -279.933872 
L 189.547259 -279.650905 
L 184.783678 -279.346965 
L 180.020096 -279.040991 
L 175.256515 -278.749649 
L 170.492934 -278.430309 
L 165.729353 -278.124756 
L 160.965771 -277.819204 
L 156.20219 -277.513652 
L 151.438609 -277.2081 
L 146.675028 -276.901555 
L 141.911446 -276.59415 
L 137.147865 -276.28613 
L 132.384284 -275.979017 
L 127.620702 -275.643906 
L 122.857121 -275.273994 
L 118.09354 -274.900398 
L 113.329959 -274.572746 
L 108.566377 -274.21514 
L 103.802796 -273.857534 
L 99.039215 -273.499928 
L 94.275634 -273.142322 
L 89.512052 -272.789953 
L 84.748471 -272.434584 
L 79.98489 -272.117124 
L 75.221309 -271.832099 
L 70.457727 -271.546173 
z
" style="stroke: #ffffff; stroke-opacity: 0.15; stroke-width: 0.8"/>
    </defs>
    <g clip-path="url(#p357424cb36)">
     <use xlink:href="#m736d8a9e32" x="0" y="432" style="fill: #808080; fill-opacity: 0.15; stroke: #ffffff; stroke-opacity: 0.15; stroke-width: 0.8"/>
    </g>
   </g>
   <g id="FillBetweenPolyCollection_2">
    <defs>
     <path id="m4994ade23b" d="M 70.457727 -272.849923 
L 70.457727 -230.337144 
L 75.221309 -231.172529 
L 79.98489 -232.007915 
L 84.748471 -232.843301 
L 89.512052 -233.678686 
L 94.275634 -234.514072 
L 99.039215 -235.349457 
L 103.802796 -236.184843 
L 108.566377 -237.020229 
L 113.329959 -237.887041 
L 118.09354 -238.769341 
L 122.857121 -239.57475 
L 127.620702 -240.390133 
L 132.384284 -241.233832 
L 137.147865 -242.077532 
L 141.911446 -242.921231 
L 146.675028 -243.764931 
L 151.438609 -244.60863 
L 156.20219 -245.44867 
L 160.965771 -246.222988 
L 165.729353 -247.041747 
L 170.492934 -247.941404 
L 175.256515 -248.827128 
L 180.020096 -249.609197 
L 184.783678 -250.385664 
L 189.547259 -251.216756 
L 194.31084 -252.050418 
L 199.074421 -252.884454 
L 203.838003 -253.719942 
L 208.601584 -254.557746 
L 213.365165 -255.453409 
L 218.128747 -256.372643 
L 222.892328 -257.152147 
L 227.655909 -257.931652 
L 232.41949 -258.734092 
L 237.183072 -259.489024 
L 241.946653 -260.26547 
L 246.710234 -261.073208 
L 251.473815 -261.956254 
L 256.237397 -262.794179 
L 261.000978 -263.569162 
L 265.764559 -264.306286 
L 270.52814 -265.16549 
L 275.291722 -265.885665 
L 280.055303 -266.584663 
L 284.818884 -267.283085 
L 289.582466 -268.031031 
L 294.346047 -268.758085 
L 299.109628 -269.599664 
L 303.873209 -270.376636 
L 308.636791 -271.153756 
L 313.400372 -271.839952 
L 318.163953 -272.653305 
L 322.927534 -273.354315 
L 327.691116 -274.146553 
L 332.454697 -275.02907 
L 337.218278 -275.733428 
L 341.98186 -276.496613 
L 346.745441 -277.162584 
L 351.509022 -277.833567 
L 356.272603 -278.50476 
L 361.036185 -279.277988 
L 365.799766 -279.984683 
L 370.563347 -280.67866 
L 375.326928 -281.383961 
L 380.09051 -282.040026 
L 384.854091 -282.653383 
L 389.617672 -283.386126 
L 394.381253 -284.029695 
L 399.144835 -284.604065 
L 403.908416 -285.15847 
L 408.671997 -285.614647 
L 413.435579 -286.145918 
L 418.19916 -286.679737 
L 422.962741 -287.184866 
L 427.726322 -287.69263 
L 432.489904 -288.175605 
L 437.253485 -288.777848 
L 442.017066 -289.402072 
L 446.780647 -289.881469 
L 451.544229 -290.464451 
L 456.30781 -290.989006 
L 461.071391 -291.417681 
L 465.834972 -291.850541 
L 470.598554 -292.346437 
L 475.362135 -292.758144 
L 480.125716 -293.223647 
L 484.889298 -293.645476 
L 489.652879 -294.002532 
L 494.41646 -294.504545 
L 499.180041 -294.862458 
L 503.943623 -295.23369 
L 508.707204 -295.645 
L 513.470785 -296.031723 
L 518.234366 -296.468697 
L 522.997948 -296.880546 
L 527.761529 -297.292395 
L 532.52511 -297.67061 
L 537.288691 -298.028165 
L 542.052273 -298.319336 
L 542.052273 -316.907238 
L 542.052273 -316.907238 
L 537.288691 -316.154248 
L 532.52511 -315.440038 
L 527.761529 -314.649263 
L 522.997948 -313.85051 
L 518.234366 -313.059515 
L 513.470785 -312.254073 
L 508.707204 -311.447255 
L 503.943623 -310.676028 
L 499.180041 -309.962573 
L 494.41646 -309.249286 
L 489.652879 -308.535482 
L 484.889298 -307.832246 
L 480.125716 -307.10557 
L 475.362135 -306.38235 
L 470.598554 -305.734997 
L 465.834972 -305.025298 
L 461.071391 -304.314327 
L 456.30781 -303.578929 
L 451.544229 -302.906102 
L 446.780647 -302.284269 
L 442.017066 -301.646048 
L 437.253485 -301.051212 
L 432.489904 -300.484485 
L 427.726322 -299.99342 
L 422.962741 -299.463903 
L 418.19916 -298.919414 
L 413.435579 -298.373715 
L 408.671997 -297.866721 
L 403.908416 -297.309652 
L 399.144835 -296.85469 
L 394.381253 -296.360215 
L 389.617672 -295.831212 
L 384.854091 -295.250351 
L 380.09051 -294.755194 
L 375.326928 -294.274928 
L 370.563347 -293.758548 
L 365.799766 -293.249803 
L 361.036185 -292.850858 
L 356.272603 -292.481636 
L 351.509022 -292.052969 
L 346.745441 -291.709338 
L 341.98186 -291.208914 
L 337.218278 -290.75075 
L 332.454697 -290.266372 
L 327.691116 -289.781994 
L 322.927534 -289.488952 
L 318.163953 -289.183014 
L 313.400372 -288.858505 
L 308.636791 -288.548496 
L 303.873209 -288.20227 
L 299.109628 -287.740096 
L 294.346047 -287.277487 
L 289.582466 -286.986212 
L 284.818884 -286.697415 
L 280.055303 -286.418596 
L 275.291722 -286.134563 
L 270.52814 -285.785383 
L 265.764559 -285.469835 
L 261.000978 -285.206706 
L 256.237397 -284.884525 
L 251.473815 -284.451643 
L 246.710234 -284.018761 
L 241.946653 -283.583268 
L 237.183072 -283.234758 
L 232.41949 -282.97898 
L 227.655909 -282.723202 
L 222.892328 -282.467423 
L 218.128747 -282.204245 
L 213.365165 -281.834954 
L 208.601584 -281.408895 
L 203.838003 -281.001612 
L 199.074421 -280.708255 
L 194.31084 -280.41652 
L 189.547259 -280.125646 
L 184.783678 -279.834771 
L 180.020096 -279.55684 
L 175.256515 -279.282795 
L 170.492934 -279.009926 
L 165.729353 -278.785097 
L 160.965771 -278.533996 
L 156.20219 -278.265223 
L 151.438609 -277.996451 
L 146.675028 -277.726716 
L 141.911446 -277.45489 
L 137.147865 -277.160357 
L 132.384284 -276.816421 
L 127.620702 -276.542348 
L 122.857121 -276.267358 
L 118.09354 -275.938947 
L 113.329959 -275.543616 
L 108.566377 -275.177761 
L 103.802796 -274.886781 
L 99.039215 -274.595802 
L 94.275634 -274.304822 
L 89.512052 -274.013842 
L 84.748471 -273.722862 
L 79.98489 -273.431883 
L 75.221309 -273.140903 
L 70.457727 -272.849923 
z
" style="stroke: #ffffff; stroke-opacity: 0.15; stroke-width: 0.8"/>
    </defs>
    <g clip-path="url(#p357424cb36)">
     <use xlink:href="#m4994ade23b" x="0" y="432" style="fill: #808080; fill-opacity: 0.15; stroke: #ffffff; stroke-opacity: 0.15; stroke-width: 0.8"/>
    </g>
   </g>
   <g id="line2d_29">
    <path d="M 70.457727 180.155413 
L 75.221309 179.594734 
L 79.98489 179.034055 
L 84.748471 178.473376 
L 89.512052 177.912696 
L 94.275634 177.352017 
L 99.039215 176.791338 
L 103.802796 176.230659 
L 108.566377 175.66998 
L 113.329959 175.109301 
L 118.09354 174.548622 
L 122.857121 173.987943 
L 127.620702 173.427263 
L 132.384284 172.866584 
L 137.147865 172.305905 
L 141.911446 171.745226 
L 146.675028 171.184547 
L 151.438609 170.623868 
L 156.20219 170.063189 
L 160.965771 169.502509 
L 165.729353 168.94183 
L 170.492934 168.381151 
L 175.256515 167.820472 
L 180.020096 167.259793 
L 184.783678 166.699114 
L 189.547259 166.138435 
L 194.31084 165.577755 
L 199.074421 165.017076 
L 203.838003 164.456397 
L 208.601584 163.895718 
L 213.365165 163.335039 
L 218.128747 162.77436 
L 222.892328 162.213681 
L 227.655909 161.653002 
L 232.41949 161.092322 
L 237.183072 160.531643 
L 241.946653 159.970964 
L 246.710234 159.410285 
L 251.473815 158.849606 
L 256.237397 158.288927 
L 261.000978 157.728248 
L 265.764559 157.167568 
L 270.52814 156.606889 
L 275.291722 156.04621 
L 280.055303 155.485531 
L 284.818884 154.924852 
L 289.582466 154.364173 
L 294.346047 153.803494 
L 299.109628 153.242815 
L 303.873209 152.682135 
L 308.636791 152.121456 
L 313.400372 151.560777 
L 318.163953 151.000098 
L 322.927534 150.439419 
L 327.691116 149.87874 
L 332.454697 149.318061 
L 337.218278 148.757381 
L 341.98186 148.196702 
L 346.745441 147.636023 
L 351.509022 147.075344 
L 356.272603 146.514665 
L 361.036185 145.953986 
L 365.799766 145.393307 
L 370.563347 144.832628 
L 375.326928 144.271948 
L 380.09051 143.711269 
L 384.854091 143.15059 
L 389.617672 142.589911 
L 394.381253 142.029232 
L 399.144835 141.468553 
L 403.908416 140.907874 
L 408.671997 140.347194 
L 413.435579 139.786515 
L 418.19916 139.225836 
L 422.962741 138.665157 
L 427.726322 138.104478 
L 432.489904 137.543799 
L 437.253485 136.98312 
L 442.017066 136.422441 
L 446.780647 135.861761 
L 451.544229 135.301082 
L 456.30781 134.740403 
L 461.071391 134.179724 
L 465.834972 133.619045 
L 470.598554 133.058366 
L 475.362135 132.497687 
L 480.125716 131.937007 
L 484.889298 131.376328 
L 489.652879 130.815649 
L 494.41646 130.25497 
L 499.180041 129.694291 
L 503.943623 129.133612 
L 508.707204 128.572933 
L 513.470785 128.012254 
L 518.234366 127.451574 
L 522.997948 126.890895 
L 527.761529 126.330216 
L 532.52511 125.769537 
L 537.288691 125.208858 
L 542.052273 124.648179 
" clip-path="url(#p357424cb36)" style="fill: none; stroke: #808080; stroke-width: 1.8; stroke-linecap: round"/>
   </g>
   <g id="line2d_30">
    <path d="M 70.457727 180.155413 
L 75.221309 179.594734 
L 79.98489 179.034055 
L 84.748471 178.473376 
L 89.512052 177.912696 
L 94.275634 177.352017 
L 99.039215 176.791338 
L 103.802796 176.230659 
L 108.566377 175.66998 
L 113.329959 175.109301 
L 118.09354 174.548622 
L 122.857121 173.987943 
L 127.620702 173.427263 
L 132.384284 172.866584 
L 137.147865 172.305905 
L 141.911446 171.745226 
L 146.675028 171.184547 
L 151.438609 170.623868 
L 156.20219 170.063189 
L 160.965771 169.502509 
L 165.729353 168.94183 
L 170.492934 168.381151 
L 175.256515 167.820472 
L 180.020096 167.259793 
L 184.783678 166.699114 
L 189.547259 166.138435 
L 194.31084 165.577755 
L 199.074421 165.017076 
L 203.838003 164.456397 
L 208.601584 163.895718 
L 213.365165 163.335039 
L 218.128747 162.77436 
L 222.892328 162.213681 
L 227.655909 161.653002 
L 232.41949 161.092322 
L 237.183072 160.531643 
L 241.946653 159.970964 
L 246.710234 159.410285 
L 251.473815 158.849606 
L 256.237397 158.288927 
L 261.000978 157.728248 
L 265.764559 157.167568 
L 270.52814 156.606889 
L 275.291722 156.04621 
L 280.055303 155.485531 
L 284.818884 154.924852 
L 289.582466 154.364173 
L 294.346047 153.803494 
L 299.109628 153.242815 
L 303.873209 152.682135 
L 308.636791 152.121456 
L 313.400372 151.560777 
L 318.163953 151.000098 
L 322.927534 150.439419 
L 327.691116 149.87874 
L 332.454697 149.318061 
L 337.218278 148.757381 
L 341.98186 148.196702 
L 346.745441 147.636023 
L 351.509022 147.075344 
L 356.272603 146.514665 
L 361.036185 145.953986 
L 365.799766 145.393307 
L 370.563347 144.832628 
L 375.326928 144.271948 
L 380.09051 143.711269 
L 384.854091 143.15059 
L 389.617672 142.589911 
L 394.381253 142.029232 
L 399.144835 141.468553 
L 403.908416 140.907874 
L 408.671997 140.347194 
L 413.435579 139.786515 
L 418.19916 139.225836 
L 422.962741 138.665157 
L 427.726322 138.104478 
L 432.489904 137.543799 
L 437.253485 136.98312 
L 442.017066 136.422441 
L 446.780647 135.861761 
L 451.544229 135.301082 
L 456.30781 134.740403 
L 461.071391 134.179724 
L 465.834972 133.619045 
L 470.598554 133.058366 
L 475.362135 132.497687 
L 480.125716 131.937007 
L 484.889298 131.376328 
L 489.652879 130.815649 
L 494.41646 130.25497 
L 499.180041 129.694291 
L 503.943623 129.133612 
L 508.707204 128.572933 
L 513.470785 128.012254 
L 518.234366 127.451574 
L 522.997948 126.890895 
L 527.761529 126.330216 
L 532.52511 125.769537 
L 537.288691 125.208858 
L 542.052273 124.648179 
" clip-path="url(#p357424cb36)" style="fill: none; stroke: #808080; stroke-width: 1.8; stroke-linecap: round"/>
   </g>
   <g id="patch_3">
    <path d="M 46.878 387.012 
L 46.878 27.168 
" style="fill: none; stroke: #262626; stroke-linejoin: miter; stroke-linecap: square"/>
   </g>
   <g id="patch_4">
    <path d="M 46.878 387.012 
L 565.632 387.012 
" style="fill: none; stroke: #262626; stroke-linejoin: miter; stroke-linecap: square"/>
   </g>
   <g id="text_17">
    <g id="patch_5">
     <path d="M 68.8557 87.6087 
L 185.64945 87.6087 
L 185.64945 41.2002 
L 68.8557 41.2002 
z
" style="fill: #ffffff; opacity: 0.5; stroke: #ffffff; stroke-width: 0.8; stroke-linejoin: miter"/>
    </g>
    <!-- R: 0.39 -->
    <g style="fill: #262626" transform="translate(72.8157 54.278325) scale(0.12 -0.12)">
     <defs>
      <path id="DejaVuSans-52" d="M 2841 2188 
Q 3044 2119 3236 1894 
Q 3428 1669 3622 1275 
L 4263 0 
L 3584 0 
L 2988 1197 
Q 2756 1666 2539 1819 
Q 2322 1972 1947 1972 
L 1259 1972 
L 1259 0 
L 628 0 
L 628 4666 
L 2053 4666 
Q 2853 4666 3247 4331 
Q 3641 3997 3641 3322 
Q 3641 2881 3436 2590 
Q 3231 2300 2841 2188 
z
M 1259 4147 
L 1259 2491 
L 2053 2491 
Q 2509 2491 2742 2702 
Q 2975 2913 2975 3322 
Q 2975 3731 2742 3939 
Q 2509 4147 2053 4147 
L 1259 4147 
z
" transform="scale(0.015625)"/>
      <path id="DejaVuSans-3a" d="M 750 794 
L 1409 794 
L 1409 0 
L 750 0 
L 750 794 
z
M 750 3309 
L 1409 3309 
L 1409 2516 
L 750 2516 
L 750 3309 
z
" transform="scale(0.015625)"/>
      <path id="DejaVuSans-2e" d="M 684 794 
L 1344 794 
L 1344 0 
L 684 0 
L 684 794 
z
" transform="scale(0.015625)"/>
      <path id="DejaVuSans-39" d="M 703 97 
L 703 672 
Q 941 559 1184 500 
Q 1428 441 1663 441 
Q 2288 441 2617 861 
Q 2947 1281 2994 2138 
Q 2813 1869 2534 1725 
Q 2256 1581 1919 1581 
Q 1219 1581 811 2004 
Q 403 2428 403 3163 
Q 403 3881 828 4315 
Q 1253 4750 1959 4750 
Q 2769 4750 3195 4129 
Q 3622 3509 3622 2328 
Q 3622 1225 3098 567 
Q 2575 -91 1691 -91 
Q 1453 -91 1209 -44 
Q 966 3 703 97 
z
M 1959 2075 
Q 2384 2075 2632 2365 
Q 2881 2656 2881 3163 
Q 2881 3666 2632 3958 
Q 2384 4250 1959 4250 
Q 1534 4250 1286 3958 
Q 1038 3666 1038 3163 
Q 1038 2656 1286 2365 
Q 1534 2075 1959 2075 
z
" transform="scale(0.015625)"/>
     </defs>
     <use xlink:href="#DejaVuSans-52"/>
     <use xlink:href="#DejaVuSans-3a" transform="translate(66.357422 0)"/>
     <use xlink:href="#DejaVuSans-20" transform="translate(100.048828 0)"/>
     <use xlink:href="#DejaVuSans-30" transform="translate(131.835938 0)"/>
     <use xlink:href="#DejaVuSans-2e" transform="translate(195.458984 0)"/>
     <use xlink:href="#DejaVuSans-33" transform="translate(227.246094 0)"/>
     <use xlink:href="#DejaVuSans-39" transform="translate(290.869141 0)"/>
    </g>
    <!-- Spearman : 0.33 -->
    <g style="fill: #262626" transform="translate(72.8157 67.7157) scale(0.12 -0.12)">
     <defs>
      <path id="DejaVuSans-70" d="M 1159 525 
L 1159 -1331 
L 581 -1331 
L 581 3500 
L 1159 3500 
L 1159 2969 
Q 1341 3281 1617 3432 
Q 1894 3584 2278 3584 
Q 2916 3584 3314 3078 
Q 3713 2572 3713 1747 
Q 3713 922 3314 415 
Q 2916 -91 2278 -91 
Q 1894 -91 1617 61 
Q 1341 213 1159 525 
z
M 3116 1747 
Q 3116 2381 2855 2742 
Q 2594 3103 2138 3103 
Q 1681 3103 1420 2742 
Q 1159 2381 1159 1747 
Q 1159 1113 1420 752 
Q 1681 391 2138 391 
Q 2594 391 2855 752 
Q 3116 1113 3116 1747 
z
" transform="scale(0.015625)"/>
      <path id="DejaVuSans-6e" d="M 3513 2113 
L 3513 0 
L 2938 0 
L 2938 2094 
Q 2938 2591 2744 2837 
Q 2550 3084 2163 3084 
Q 1697 3084 1428 2787 
Q 1159 2491 1159 1978 
L 1159 0 
L 581 0 
L 581 3500 
L 1159 3500 
L 1159 2956 
Q 1366 3272 1645 3428 
Q 1925 3584 2291 3584 
Q 2894 3584 3203 3211 
Q 3513 2838 3513 2113 
z
" transform="scale(0.015625)"/>
      <path id="DejaVuSans-3c1" d="M 863 2875 
Q 1053 3194 1525 3475 
Q 1709 3584 2278 3584 
Q 2916 3584 3314 3078 
Q 3713 2572 3713 1747 
Q 3713 922 3314 415 
Q 2916 -91 2278 -91 
Q 1894 -91 1617 61 
Q 1341 213 1159 525 
L 1159 -1331 
L 581 -1331 
L 581 1716 
Q 581 2438 863 2875 
z
M 3116 1747 
Q 3116 2381 2855 2742 
Q 2594 3103 2138 3103 
Q 1681 3103 1420 2742 
Q 1159 2381 1159 1747 
Q 1159 1113 1420 752 
Q 1681 391 2138 391 
Q 2594 391 2855 752 
Q 3116 1113 3116 1747 
z
" transform="scale(0.015625)"/>
     </defs>
     <use xlink:href="#DejaVuSans-53"/>
     <use xlink:href="#DejaVuSans-70" transform="translate(63.476562 0)"/>
     <use xlink:href="#DejaVuSans-65" transform="translate(126.953125 0)"/>
     <use xlink:href="#DejaVuSans-61" transform="translate(188.476562 0)"/>
     <use xlink:href="#DejaVuSans-72" transform="translate(249.755859 0)"/>
     <use xlink:href="#DejaVuSans-6d" transform="translate(289.119141 0)"/>
     <use xlink:href="#DejaVuSans-61" transform="translate(386.53125 0)"/>
     <use xlink:href="#DejaVuSans-6e" transform="translate(447.810547 0)"/>
     <use xlink:href="#DejaVuSans-20" transform="translate(511.189453 0)"/>
     <use xlink:href="#DejaVuSans-3c1" transform="translate(542.976562 0)"/>
     <use xlink:href="#DejaVuSans-3a" transform="translate(606.453125 0)"/>
     <use xlink:href="#DejaVuSans-20" transform="translate(640.144531 0)"/>
     <use xlink:href="#DejaVuSans-30" transform="translate(671.931641 0)"/>
     <use xlink:href="#DejaVuSans-2e" transform="translate(735.554688 0)"/>
     <use xlink:href="#DejaVuSans-33" transform="translate(767.341797 0)"/>
     <use xlink:href="#DejaVuSans-33" transform="translate(830.964844 0)"/>
    </g>
    <!-- P-value: 0.000015 -->
    <g style="fill: #262626" transform="translate(72.8157 81.153075) scale(0.12 -0.12)">
     <defs>
      <path id="DejaVuSans-2d" d="M 313 2009 
L 1997 2009 
L 1997 1497 
L 313 1497 
L 313 2009 
z
" transform="scale(0.015625)"/>
      <path id="DejaVuSans-76" d="M 191 3500 
L 800 3500 
L 1894 563 
L 2988 3500 
L 3597 3500 
L 2284 0 
L 1503 0 
L 191 3500 
z
" transform="scale(0.015625)"/>
      <path id="DejaVuSans-35" d="M 691 4666 
L 3169 4666 
L 3169 4134 
L 1269 4134 
L 1269 2991 
Q 1406 3038 1543 3061 
Q 1681 3084 1819 3084 
Q 2600 3084 3056 2656 
Q 3513 2228 3513 1497 
Q 3513 744 3044 326 
Q 2575 -91 1722 -91 
Q 1428 -91 1123 -41 
Q 819 9 494 109 
L 494 744 
Q 775 591 1075 516 
Q 1375 441 1709 441 
Q 2250 441 2565 725 
Q 2881 1009 2881 1497 
Q 2881 1984 2565 2268 
Q 2250 2553 1709 2553 
Q 1456 2553 1204 2497 
Q 953 2441 691 2322 
L 691 4666 
z
" transform="scale(0.015625)"/>
     </defs>
     <use xlink:href="#DejaVuSans-50"/>
     <use xlink:href="#DejaVuSans-2d" transform="translate(58.052734 0)"/>
     <use xlink:href="#DejaVuSans-76" transform="translate(91.511719 0)"/>
     <use xlink:href="#DejaVuSans-61" transform="translate(150.691406 0)"/>
     <use xlink:href="#DejaVuSans-6c" transform="translate(211.970703 0)"/>
     <use xlink:href="#DejaVuSans-75" transform="translate(239.753906 0)"/>
     <use xlink:href="#DejaVuSans-65" transform="translate(303.132812 0)"/>
     <use xlink:href="#DejaVuSans-3a" transform="translate(364.65625 0)"/>
     <use xlink:href="#DejaVuSans-20" transform="translate(398.347656 0)"/>
     <use xlink:href="#DejaVuSans-30" transform="translate(430.134766 0)"/>
     <use xlink:href="#DejaVuSans-2e" transform="translate(493.757812 0)"/>
     <use xlink:href="#DejaVuSans-30" transform="translate(525.544922 0)"/>
     <use xlink:href="#DejaVuSans-30" transform="translate(589.167969 0)"/>
     <use xlink:href="#DejaVuSans-30" transform="translate(652.791016 0)"/>
     <use xlink:href="#DejaVuSans-30" transform="translate(716.414062 0)"/>
     <use xlink:href="#DejaVuSans-31" transform="translate(780.037109 0)"/>
     <use xlink:href="#DejaVuSans-35" transform="translate(843.660156 0)"/>
    </g>
   </g>
   <g id="text_18">
    <!-- Model Predicted vs. Actual - Full Ensemble  N=117 -->
    <g style="fill: #262626" transform="translate(129.352969 21.168) scale(0.14 -0.14)">
     <defs>
      <path id="DejaVuSans-46" d="M 628 4666 
L 3309 4666 
L 3309 4134 
L 1259 4134 
L 1259 2759 
L 3109 2759 
L 3109 2228 
L 1259 2228 
L 1259 0 
L 628 0 
L 628 4666 
z
" transform="scale(0.015625)"/>
      <path id="DejaVuSans-45" d="M 628 4666 
L 3578 4666 
L 3578 4134 
L 1259 4134 
L 1259 2753 
L 3481 2753 
L 3481 2222 
L 1259 2222 
L 1259 531 
L 3634 531 
L 3634 0 
L 628 0 
L 628 4666 
z
" transform="scale(0.015625)"/>
      <path id="DejaVuSans-62" d="M 3116 1747 
Q 3116 2381 2855 2742 
Q 2594 3103 2138 3103 
Q 1681 3103 1420 2742 
Q 1159 2381 1159 1747 
Q 1159 1113 1420 752 
Q 1681 391 2138 391 
Q 2594 391 2855 752 
Q 3116 1113 3116 1747 
z
M 1159 2969 
Q 1341 3281 1617 3432 
Q 1894 3584 2278 3584 
Q 2916 3584 3314 3078 
Q 3713 2572 3713 1747 
Q 3713 922 3314 415 
Q 2916 -91 2278 -91 
Q 1894 -91 1617 61 
Q 1341 213 1159 525 
L 1159 0 
L 581 0 
L 581 4863 
L 1159 4863 
L 1159 2969 
z
" transform="scale(0.015625)"/>
      <path id="DejaVuSans-4e" d="M 628 4666 
L 1478 4666 
L 3547 763 
L 3547 4666 
L 4159 4666 
L 4159 0 
L 3309 0 
L 1241 3903 
L 1241 0 
L 628 0 
L 628 4666 
z
" transform="scale(0.015625)"/>
      <path id="DejaVuSans-3d" d="M 678 2906 
L 4684 2906 
L 4684 2381 
L 678 2381 
L 678 2906 
z
M 678 1631 
L 4684 1631 
L 4684 1100 
L 678 1100 
L 678 1631 
z
" transform="scale(0.015625)"/>
      <path id="DejaVuSans-37" d="M 525 4666 
L 3525 4666 
L 3525 4397 
L 1831 0 
L 1172 0 
L 2766 4134 
L 525 4134 
L 525 4666 
z
" transform="scale(0.015625)"/>
     </defs>
     <use xlink:href="#DejaVuSans-4d"/>
     <use xlink:href="#DejaVuSans-6f" transform="translate(86.279297 0)"/>
     <use xlink:href="#DejaVuSans-64" transform="translate(147.460938 0)"/>
     <use xlink:href="#DejaVuSans-65" transform="translate(210.9375 0)"/>
     <use xlink:href="#DejaVuSans-6c" transform="translate(272.460938 0)"/>
     <use xlink:href="#DejaVuSans-20" transform="translate(300.244141 0)"/>
     <use xlink:href="#DejaVuSans-50" transform="translate(332.03125 0)"/>
     <use xlink:href="#DejaVuSans-72" transform="translate(390.583984 0)"/>
     <use xlink:href="#DejaVuSans-65" transform="translate(429.447266 0)"/>
     <use xlink:href="#DejaVuSans-64" transform="translate(490.970703 0)"/>
     <use xlink:href="#DejaVuSans-69" transform="translate(554.447266 0)"/>
     <use xlink:href="#DejaVuSans-63" transform="translate(582.230469 0)"/>
     <use xlink:href="#DejaVuSans-74" transform="translate(637.210938 0)"/>
     <use xlink:href="#DejaVuSans-65" transform="translate(676.419922 0)"/>
     <use xlink:href="#DejaVuSans-64" transform="translate(737.943359 0)"/>
     <use xlink:href="#DejaVuSans-20" transform="translate(801.419922 0)"/>
     <use xlink:href="#DejaVuSans-76" transform="translate(833.207031 0)"/>
     <use xlink:href="#DejaVuSans-73" transform="translate(892.386719 0)"/>
     <use xlink:href="#DejaVuSans-2e" transform="translate(944.486328 0)"/>
     <use xlink:href="#DejaVuSans-20" transform="translate(976.273438 0)"/>
     <use xlink:href="#DejaVuSans-41" transform="translate(1008.060547 0)"/>
     <use xlink:href="#DejaVuSans-63" transform="translate(1074.71875 0)"/>
     <use xlink:href="#DejaVuSans-74" transform="translate(1129.699219 0)"/>
     <use xlink:href="#DejaVuSans-75" transform="translate(1168.908203 0)"/>
     <use xlink:href="#DejaVuSans-61" transform="translate(1232.287109 0)"/>
     <use xlink:href="#DejaVuSans-6c" transform="translate(1293.566406 0)"/>
     <use xlink:href="#DejaVuSans-20" transform="translate(1321.349609 0)"/>
     <use xlink:href="#DejaVuSans-2d" transform="translate(1353.136719 0)"/>
     <use xlink:href="#DejaVuSans-20" transform="translate(1389.220703 0)"/>
     <use xlink:href="#DejaVuSans-46" transform="translate(1421.007812 0)"/>
     <use xlink:href="#DejaVuSans-75" transform="translate(1473.027344 0)"/>
     <use xlink:href="#DejaVuSans-6c" transform="translate(1536.40625 0)"/>
     <use xlink:href="#DejaVuSans-6c" transform="translate(1564.189453 0)"/>
     <use xlink:href="#DejaVuSans-20" transform="translate(1591.972656 0)"/>
     <use xlink:href="#DejaVuSans-45" transform="translate(1623.759766 0)"/>
     <use xlink:href="#DejaVuSans-6e" transform="translate(1686.943359 0)"/>
     <use xlink:href="#DejaVuSans-73" transform="translate(1750.322266 0)"/>
     <use xlink:href="#DejaVuSans-65" transform="translate(1802.421875 0)"/>
     <use xlink:href="#DejaVuSans-6d" transform="translate(1863.945312 0)"/>
     <use xlink:href="#DejaVuSans-62" transform="translate(1961.357422 0)"/>
     <use xlink:href="#DejaVuSans-6c" transform="translate(2024.833984 0)"/>
     <use xlink:href="#DejaVuSans-65" transform="translate(2052.617188 0)"/>
     <use xlink:href="#DejaVuSans-20" transform="translate(2114.140625 0)"/>
     <use xlink:href="#DejaVuSans-20" transform="translate(2145.927734 0)"/>
     <use xlink:href="#DejaVuSans-4e" transform="translate(2177.714844 0)"/>
     <use xlink:href="#DejaVuSans-3d" transform="translate(2252.519531 0)"/>
     <use xlink:href="#DejaVuSans-31" transform="translate(2336.308594 0)"/>
     <use xlink:href="#DejaVuSans-31" transform="translate(2399.931641 0)"/>
     <use xlink:href="#DejaVuSans-37" transform="translate(2463.554688 0)"/>
    </g>
   </g>
  </g>
 </g>
 <defs>
  <clipPath id="p357424cb36">
   <rect x="46.878" y="27.168" width="518.754" height="359.844"/>
  </clipPath>
 </defs>
</svg>
