<?xml version="1.0" encoding="utf-8" standalone="no"?>
<!DOCTYPE svg PUBLIC "-//W3C//DTD SVG 1.1//EN"
  "http://www.w3.org/Graphics/SVG/1.1/DTD/svg11.dtd">
<svg xmlns:xlink="http://www.w3.org/1999/xlink" width="576pt" height="432pt" viewBox="0 0 576 432" xmlns="http://www.w3.org/2000/svg" version="1.1">
 <metadata>
  <rdf:RDF xmlns:dc="http://purl.org/dc/elements/1.1/" xmlns:cc="http://creativecommons.org/ns#" xmlns:rdf="http://www.w3.org/1999/02/22-rdf-syntax-ns#">
   <cc:Work>
    <dc:type rdf:resource="http://purl.org/dc/dcmitype/StillImage"/>
    <dc:date>2025-10-17T20:21:23.885812</dc:date>
    <dc:format>image/svg+xml</dc:format>
    <dc:creator>
     <cc:Agent>
      <dc:title>Matplotlib v3.10.0, https://matplotlib.org/</dc:title>
     </cc:Agent>
    </dc:creator>
   </cc:Work>
  </rdf:RDF>
 </metadata>
 <defs>
  <style type="text/css">*{stroke-linejoin: round; stroke-linecap: butt}</style>
 </defs>
 <g id="figure_1">
  <g id="patch_1">
   <path d="M 0 432 
L 576 432 
L 576 0 
L 0 0 
z
" style="fill: #ffffff"/>
  </g>
  <g id="axes_1">
   <g id="patch_2">
    <path d="M 46.878 387.012 
L 565.632 387.012 
L 565.632 27.168 
L 46.878 27.168 
z
" style="fill: #ffffff"/>
   </g>
   <g id="matplotlib.axis_1">
    <g id="xtick_1">
     <g id="line2d_1">
      <defs>
       <path id="m936fa87c5a" d="M 0 0 
L 0 4.8 
" style="stroke: #262626"/>
      </defs>
      <g>
       <use xlink:href="#m936fa87c5a" x="70.457726" y="387.012" style="fill: #262626; stroke: #262626"/>
      </g>
     </g>
     <g id="text_1">
      <!-- 18 -->
      <g style="fill: #262626" transform="translate(64.858726 401.998625) scale(0.088 -0.088)">
       <defs>
        <path id="DejaVuSans-31" d="M 794 531 
L 1825 531 
L 1825 4091 
L 703 3866 
L 703 4441 
L 1819 4666 
L 2450 4666 
L 2450 531 
L 3481 531 
L 3481 0 
L 794 0 
L 794 531 
z
" transform="scale(0.015625)"/>
        <path id="DejaVuSans-38" d="M 2034 2216 
Q 1584 2216 1326 1975 
Q 1069 1734 1069 1313 
Q 1069 891 1326 650 
Q 1584 409 2034 409 
Q 2484 409 2743 651 
Q 3003 894 3003 1313 
Q 3003 1734 2745 1975 
Q 2488 2216 2034 2216 
z
M 1403 2484 
Q 997 2584 770 2862 
Q 544 3141 544 3541 
Q 544 4100 942 4425 
Q 1341 4750 2034 4750 
Q 2731 4750 3128 4425 
Q 3525 4100 3525 3541 
Q 3525 3141 3298 2862 
Q 3072 2584 2669 2484 
Q 3125 2378 3379 2068 
Q 3634 1759 3634 1313 
Q 3634 634 3220 271 
Q 2806 -91 2034 -91 
Q 1263 -91 848 271 
Q 434 634 434 1313 
Q 434 1759 690 2068 
Q 947 2378 1403 2484 
z
M 1172 3481 
Q 1172 3119 1398 2916 
Q 1625 2713 2034 2713 
Q 2441 2713 2670 2916 
Q 2900 3119 2900 3481 
Q 2900 3844 2670 4047 
Q 2441 4250 2034 4250 
Q 1625 4250 1398 4047 
Q 1172 3844 1172 3481 
z
" transform="scale(0.015625)"/>
       </defs>
       <use xlink:href="#DejaVuSans-31"/>
       <use xlink:href="#DejaVuSans-38" transform="translate(63.623047 0)"/>
      </g>
     </g>
    </g>
    <g id="xtick_2">
     <g id="line2d_2">
      <g>
       <use xlink:href="#m936fa87c5a" x="149.056817" y="387.012" style="fill: #262626; stroke: #262626"/>
      </g>
     </g>
     <g id="text_2">
      <!-- 20 -->
      <g style="fill: #262626" transform="translate(143.457817 401.998625) scale(0.088 -0.088)">
       <defs>
        <path id="DejaVuSans-32" d="M 1228 531 
L 3431 531 
L 3431 0 
L 469 0 
L 469 531 
Q 828 903 1448 1529 
Q 2069 2156 2228 2338 
Q 2531 2678 2651 2914 
Q 2772 3150 2772 3378 
Q 2772 3750 2511 3984 
Q 2250 4219 1831 4219 
Q 1534 4219 1204 4116 
Q 875 4013 500 3803 
L 500 4441 
Q 881 4594 1212 4672 
Q 1544 4750 1819 4750 
Q 2544 4750 2975 4387 
Q 3406 4025 3406 3419 
Q 3406 3131 3298 2873 
Q 3191 2616 2906 2266 
Q 2828 2175 2409 1742 
Q 1991 1309 1228 531 
z
" transform="scale(0.015625)"/>
        <path id="DejaVuSans-30" d="M 2034 4250 
Q 1547 4250 1301 3770 
Q 1056 3291 1056 2328 
Q 1056 1369 1301 889 
Q 1547 409 2034 409 
Q 2525 409 2770 889 
Q 3016 1369 3016 2328 
Q 3016 3291 2770 3770 
Q 2525 4250 2034 4250 
z
M 2034 4750 
Q 2819 4750 3233 4129 
Q 3647 3509 3647 2328 
Q 3647 1150 3233 529 
Q 2819 -91 2034 -91 
Q 1250 -91 836 529 
Q 422 1150 422 2328 
Q 422 3509 836 4129 
Q 1250 4750 2034 4750 
z
" transform="scale(0.015625)"/>
       </defs>
       <use xlink:href="#DejaVuSans-32"/>
       <use xlink:href="#DejaVuSans-30" transform="translate(63.623047 0)"/>
      </g>
     </g>
    </g>
    <g id="xtick_3">
     <g id="line2d_3">
      <g>
       <use xlink:href="#m936fa87c5a" x="227.655909" y="387.012" style="fill: #262626; stroke: #262626"/>
      </g>
     </g>
     <g id="text_3">
      <!-- 22 -->
      <g style="fill: #262626" transform="translate(222.056909 401.998625) scale(0.088 -0.088)">
       <use xlink:href="#DejaVuSans-32"/>
       <use xlink:href="#DejaVuSans-32" transform="translate(63.623047 0)"/>
      </g>
     </g>
    </g>
    <g id="xtick_4">
     <g id="line2d_4">
      <g>
       <use xlink:href="#m936fa87c5a" x="306.255" y="387.012" style="fill: #262626; stroke: #262626"/>
      </g>
     </g>
     <g id="text_4">
      <!-- 24 -->
      <g style="fill: #262626" transform="translate(300.656 401.998625) scale(0.088 -0.088)">
       <defs>
        <path id="DejaVuSans-34" d="M 2419 4116 
L 825 1625 
L 2419 1625 
L 2419 4116 
z
M 2253 4666 
L 3047 4666 
L 3047 1625 
L 3713 1625 
L 3713 1100 
L 3047 1100 
L 3047 0 
L 2419 0 
L 2419 1100 
L 313 1100 
L 313 1709 
L 2253 4666 
z
" transform="scale(0.015625)"/>
       </defs>
       <use xlink:href="#DejaVuSans-32"/>
       <use xlink:href="#DejaVuSans-34" transform="translate(63.623047 0)"/>
      </g>
     </g>
    </g>
    <g id="xtick_5">
     <g id="line2d_5">
      <g>
       <use xlink:href="#m936fa87c5a" x="384.854091" y="387.012" style="fill: #262626; stroke: #262626"/>
      </g>
     </g>
     <g id="text_5">
      <!-- 26 -->
      <g style="fill: #262626" transform="translate(379.255091 401.998625) scale(0.088 -0.088)">
       <defs>
        <path id="DejaVuSans-36" d="M 2113 2584 
Q 1688 2584 1439 2293 
Q 1191 2003 1191 1497 
Q 1191 994 1439 701 
Q 1688 409 2113 409 
Q 2538 409 2786 701 
Q 3034 994 3034 1497 
Q 3034 2003 2786 2293 
Q 2538 2584 2113 2584 
z
M 3366 4563 
L 3366 3988 
Q 3128 4100 2886 4159 
Q 2644 4219 2406 4219 
Q 1781 4219 1451 3797 
Q 1122 3375 1075 2522 
Q 1259 2794 1537 2939 
Q 1816 3084 2150 3084 
Q 2853 3084 3261 2657 
Q 3669 2231 3669 1497 
Q 3669 778 3244 343 
Q 2819 -91 2113 -91 
Q 1303 -91 875 529 
Q 447 1150 447 2328 
Q 447 3434 972 4092 
Q 1497 4750 2381 4750 
Q 2619 4750 2861 4703 
Q 3103 4656 3366 4563 
z
" transform="scale(0.015625)"/>
       </defs>
       <use xlink:href="#DejaVuSans-32"/>
       <use xlink:href="#DejaVuSans-36" transform="translate(63.623047 0)"/>
      </g>
     </g>
    </g>
    <g id="xtick_6">
     <g id="line2d_6">
      <g>
       <use xlink:href="#m936fa87c5a" x="463.453182" y="387.012" style="fill: #262626; stroke: #262626"/>
      </g>
     </g>
     <g id="text_6">
      <!-- 28 -->
      <g style="fill: #262626" transform="translate(457.854182 401.998625) scale(0.088 -0.088)">
       <use xlink:href="#DejaVuSans-32"/>
       <use xlink:href="#DejaVuSans-38" transform="translate(63.623047 0)"/>
      </g>
     </g>
    </g>
    <g id="xtick_7">
     <g id="line2d_7">
      <g>
       <use xlink:href="#m936fa87c5a" x="542.052273" y="387.012" style="fill: #262626; stroke: #262626"/>
      </g>
     </g>
     <g id="text_7">
      <!-- 30 -->
      <g style="fill: #262626" transform="translate(536.453273 401.998625) scale(0.088 -0.088)">
       <defs>
        <path id="DejaVuSans-33" d="M 2597 2516 
Q 3050 2419 3304 2112 
Q 3559 1806 3559 1356 
Q 3559 666 3084 287 
Q 2609 -91 1734 -91 
Q 1441 -91 1130 -33 
Q 819 25 488 141 
L 488 750 
Q 750 597 1062 519 
Q 1375 441 1716 441 
Q 2309 441 2620 675 
Q 2931 909 2931 1356 
Q 2931 1769 2642 2001 
Q 2353 2234 1838 2234 
L 1294 2234 
L 1294 2753 
L 1863 2753 
Q 2328 2753 2575 2939 
Q 2822 3125 2822 3475 
Q 2822 3834 2567 4026 
Q 2313 4219 1838 4219 
Q 1578 4219 1281 4162 
Q 984 4106 628 3988 
L 628 4550 
Q 988 4650 1302 4700 
Q 1616 4750 1894 4750 
Q 2613 4750 3031 4423 
Q 3450 4097 3450 3541 
Q 3450 3153 3228 2886 
Q 3006 2619 2597 2516 
z
" transform="scale(0.015625)"/>
       </defs>
       <use xlink:href="#DejaVuSans-33"/>
       <use xlink:href="#DejaVuSans-30" transform="translate(63.623047 0)"/>
      </g>
     </g>
    </g>
    <g id="xtick_8">
     <g id="line2d_8">
      <defs>
       <path id="m1e12372885" d="M 0 0 
L 0 4 
" style="stroke: #d3d3d3; stroke-width: 0.8"/>
      </defs>
      <g>
       <use xlink:href="#m1e12372885" x="109.757272" y="387.012" style="fill: #d3d3d3; stroke: #d3d3d3; stroke-width: 0.8"/>
      </g>
     </g>
    </g>
    <g id="xtick_9">
     <g id="line2d_9">
      <g>
       <use xlink:href="#m1e12372885" x="188.356363" y="387.012" style="fill: #d3d3d3; stroke: #d3d3d3; stroke-width: 0.8"/>
      </g>
     </g>
    </g>
    <g id="xtick_10">
     <g id="line2d_10">
      <g>
       <use xlink:href="#m1e12372885" x="266.955454" y="387.012" style="fill: #d3d3d3; stroke: #d3d3d3; stroke-width: 0.8"/>
      </g>
     </g>
    </g>
    <g id="xtick_11">
     <g id="line2d_11">
      <g>
       <use xlink:href="#m1e12372885" x="345.554545" y="387.012" style="fill: #d3d3d3; stroke: #d3d3d3; stroke-width: 0.8"/>
      </g>
     </g>
    </g>
    <g id="xtick_12">
     <g id="line2d_12">
      <g>
       <use xlink:href="#m1e12372885" x="424.153636" y="387.012" style="fill: #d3d3d3; stroke: #d3d3d3; stroke-width: 0.8"/>
      </g>
     </g>
    </g>
    <g id="xtick_13">
     <g id="line2d_13">
      <g>
       <use xlink:href="#m1e12372885" x="502.752728" y="387.012" style="fill: #d3d3d3; stroke: #d3d3d3; stroke-width: 0.8"/>
      </g>
     </g>
    </g>
    <g id="text_8">
     <!-- Actual MoCA Sum Post -->
     <g style="fill: #262626" transform="translate(238.59 416.946875) scale(0.12 -0.12)">
      <defs>
       <path id="DejaVuSans-41" d="M 2188 4044 
L 1331 1722 
L 3047 1722 
L 2188 4044 
z
M 1831 4666 
L 2547 4666 
L 4325 0 
L 3669 0 
L 3244 1197 
L 1141 1197 
L 716 0 
L 50 0 
L 1831 4666 
z
" transform="scale(0.015625)"/>
       <path id="DejaVuSans-63" d="M 3122 3366 
L 3122 2828 
Q 2878 2963 2633 3030 
Q 2388 3097 2138 3097 
Q 1578 3097 1268 2742 
Q 959 2388 959 1747 
Q 959 1106 1268 751 
Q 1578 397 2138 397 
Q 2388 397 2633 464 
Q 2878 531 3122 666 
L 3122 134 
Q 2881 22 2623 -34 
Q 2366 -91 2075 -91 
Q 1284 -91 818 406 
Q 353 903 353 1747 
Q 353 2603 823 3093 
Q 1294 3584 2113 3584 
Q 2378 3584 2631 3529 
Q 2884 3475 3122 3366 
z
" transform="scale(0.015625)"/>
       <path id="DejaVuSans-74" d="M 1172 4494 
L 1172 3500 
L 2356 3500 
L 2356 3053 
L 1172 3053 
L 1172 1153 
Q 1172 725 1289 603 
Q 1406 481 1766 481 
L 2356 481 
L 2356 0 
L 1766 0 
Q 1100 0 847 248 
Q 594 497 594 1153 
L 594 3053 
L 172 3053 
L 172 3500 
L 594 3500 
L 594 4494 
L 1172 4494 
z
" transform="scale(0.015625)"/>
       <path id="DejaVuSans-75" d="M 544 1381 
L 544 3500 
L 1119 3500 
L 1119 1403 
Q 1119 906 1312 657 
Q 1506 409 1894 409 
Q 2359 409 2629 706 
Q 2900 1003 2900 1516 
L 2900 3500 
L 3475 3500 
L 3475 0 
L 2900 0 
L 2900 538 
Q 2691 219 2414 64 
Q 2138 -91 1772 -91 
Q 1169 -91 856 284 
Q 544 659 544 1381 
z
M 1991 3584 
L 1991 3584 
z
" transform="scale(0.015625)"/>
       <path id="DejaVuSans-61" d="M 2194 1759 
Q 1497 1759 1228 1600 
Q 959 1441 959 1056 
Q 959 750 1161 570 
Q 1363 391 1709 391 
Q 2188 391 2477 730 
Q 2766 1069 2766 1631 
L 2766 1759 
L 2194 1759 
z
M 3341 1997 
L 3341 0 
L 2766 0 
L 2766 531 
Q 2569 213 2275 61 
Q 1981 -91 1556 -91 
Q 1019 -91 701 211 
Q 384 513 384 1019 
Q 384 1609 779 1909 
Q 1175 2209 1959 2209 
L 2766 2209 
L 2766 2266 
Q 2766 2663 2505 2880 
Q 2244 3097 1772 3097 
Q 1472 3097 1187 3025 
Q 903 2953 641 2809 
L 641 3341 
Q 956 3463 1253 3523 
Q 1550 3584 1831 3584 
Q 2591 3584 2966 3190 
Q 3341 2797 3341 1997 
z
" transform="scale(0.015625)"/>
       <path id="DejaVuSans-6c" d="M 603 4863 
L 1178 4863 
L 1178 0 
L 603 0 
L 603 4863 
z
" transform="scale(0.015625)"/>
       <path id="DejaVuSans-20" transform="scale(0.015625)"/>
       <path id="DejaVuSans-4d" d="M 628 4666 
L 1569 4666 
L 2759 1491 
L 3956 4666 
L 4897 4666 
L 4897 0 
L 4281 0 
L 4281 4097 
L 3078 897 
L 2444 897 
L 1241 4097 
L 1241 0 
L 628 0 
L 628 4666 
z
" transform="scale(0.015625)"/>
       <path id="DejaVuSans-6f" d="M 1959 3097 
Q 1497 3097 1228 2736 
Q 959 2375 959 1747 
Q 959 1119 1226 758 
Q 1494 397 1959 397 
Q 2419 397 2687 759 
Q 2956 1122 2956 1747 
Q 2956 2369 2687 2733 
Q 2419 3097 1959 3097 
z
M 1959 3584 
Q 2709 3584 3137 3096 
Q 3566 2609 3566 1747 
Q 3566 888 3137 398 
Q 2709 -91 1959 -91 
Q 1206 -91 779 398 
Q 353 888 353 1747 
Q 353 2609 779 3096 
Q 1206 3584 1959 3584 
z
" transform="scale(0.015625)"/>
       <path id="DejaVuSans-43" d="M 4122 4306 
L 4122 3641 
Q 3803 3938 3442 4084 
Q 3081 4231 2675 4231 
Q 1875 4231 1450 3742 
Q 1025 3253 1025 2328 
Q 1025 1406 1450 917 
Q 1875 428 2675 428 
Q 3081 428 3442 575 
Q 3803 722 4122 1019 
L 4122 359 
Q 3791 134 3420 21 
Q 3050 -91 2638 -91 
Q 1578 -91 968 557 
Q 359 1206 359 2328 
Q 359 3453 968 4101 
Q 1578 4750 2638 4750 
Q 3056 4750 3426 4639 
Q 3797 4528 4122 4306 
z
" transform="scale(0.015625)"/>
       <path id="DejaVuSans-53" d="M 3425 4513 
L 3425 3897 
Q 3066 4069 2747 4153 
Q 2428 4238 2131 4238 
Q 1616 4238 1336 4038 
Q 1056 3838 1056 3469 
Q 1056 3159 1242 3001 
Q 1428 2844 1947 2747 
L 2328 2669 
Q 3034 2534 3370 2195 
Q 3706 1856 3706 1288 
Q 3706 609 3251 259 
Q 2797 -91 1919 -91 
Q 1588 -91 1214 -16 
Q 841 59 441 206 
L 441 856 
Q 825 641 1194 531 
Q 1563 422 1919 422 
Q 2459 422 2753 634 
Q 3047 847 3047 1241 
Q 3047 1584 2836 1778 
Q 2625 1972 2144 2069 
L 1759 2144 
Q 1053 2284 737 2584 
Q 422 2884 422 3419 
Q 422 4038 858 4394 
Q 1294 4750 2059 4750 
Q 2388 4750 2728 4690 
Q 3069 4631 3425 4513 
z
" transform="scale(0.015625)"/>
       <path id="DejaVuSans-6d" d="M 3328 2828 
Q 3544 3216 3844 3400 
Q 4144 3584 4550 3584 
Q 5097 3584 5394 3201 
Q 5691 2819 5691 2113 
L 5691 0 
L 5113 0 
L 5113 2094 
Q 5113 2597 4934 2840 
Q 4756 3084 4391 3084 
Q 3944 3084 3684 2787 
Q 3425 2491 3425 1978 
L 3425 0 
L 2847 0 
L 2847 2094 
Q 2847 2600 2669 2842 
Q 2491 3084 2119 3084 
Q 1678 3084 1418 2786 
Q 1159 2488 1159 1978 
L 1159 0 
L 581 0 
L 581 3500 
L 1159 3500 
L 1159 2956 
Q 1356 3278 1631 3431 
Q 1906 3584 2284 3584 
Q 2666 3584 2933 3390 
Q 3200 3197 3328 2828 
z
" transform="scale(0.015625)"/>
       <path id="DejaVuSans-50" d="M 1259 4147 
L 1259 2394 
L 2053 2394 
Q 2494 2394 2734 2622 
Q 2975 2850 2975 3272 
Q 2975 3691 2734 3919 
Q 2494 4147 2053 4147 
L 1259 4147 
z
M 628 4666 
L 2053 4666 
Q 2838 4666 3239 4311 
Q 3641 3956 3641 3272 
Q 3641 2581 3239 2228 
Q 2838 1875 2053 1875 
L 1259 1875 
L 1259 0 
L 628 0 
L 628 4666 
z
" transform="scale(0.015625)"/>
       <path id="DejaVuSans-73" d="M 2834 3397 
L 2834 2853 
Q 2591 2978 2328 3040 
Q 2066 3103 1784 3103 
Q 1356 3103 1142 2972 
Q 928 2841 928 2578 
Q 928 2378 1081 2264 
Q 1234 2150 1697 2047 
L 1894 2003 
Q 2506 1872 2764 1633 
Q 3022 1394 3022 966 
Q 3022 478 2636 193 
Q 2250 -91 1575 -91 
Q 1294 -91 989 -36 
Q 684 19 347 128 
L 347 722 
Q 666 556 975 473 
Q 1284 391 1588 391 
Q 1994 391 2212 530 
Q 2431 669 2431 922 
Q 2431 1156 2273 1281 
Q 2116 1406 1581 1522 
L 1381 1569 
Q 847 1681 609 1914 
Q 372 2147 372 2553 
Q 372 3047 722 3315 
Q 1072 3584 1716 3584 
Q 2034 3584 2315 3537 
Q 2597 3491 2834 3397 
z
" transform="scale(0.015625)"/>
      </defs>
      <use xlink:href="#DejaVuSans-41"/>
      <use xlink:href="#DejaVuSans-63" transform="translate(66.658203 0)"/>
      <use xlink:href="#DejaVuSans-74" transform="translate(121.638672 0)"/>
      <use xlink:href="#DejaVuSans-75" transform="translate(160.847656 0)"/>
      <use xlink:href="#DejaVuSans-61" transform="translate(224.226562 0)"/>
      <use xlink:href="#DejaVuSans-6c" transform="translate(285.505859 0)"/>
      <use xlink:href="#DejaVuSans-20" transform="translate(313.289062 0)"/>
      <use xlink:href="#DejaVuSans-4d" transform="translate(345.076172 0)"/>
      <use xlink:href="#DejaVuSans-6f" transform="translate(431.355469 0)"/>
      <use xlink:href="#DejaVuSans-43" transform="translate(492.537109 0)"/>
      <use xlink:href="#DejaVuSans-41" transform="translate(562.361328 0)"/>
      <use xlink:href="#DejaVuSans-20" transform="translate(630.769531 0)"/>
      <use xlink:href="#DejaVuSans-53" transform="translate(662.556641 0)"/>
      <use xlink:href="#DejaVuSans-75" transform="translate(726.033203 0)"/>
      <use xlink:href="#DejaVuSans-6d" transform="translate(789.412109 0)"/>
      <use xlink:href="#DejaVuSans-20" transform="translate(886.824219 0)"/>
      <use xlink:href="#DejaVuSans-50" transform="translate(918.611328 0)"/>
      <use xlink:href="#DejaVuSans-6f" transform="translate(975.289062 0)"/>
      <use xlink:href="#DejaVuSans-73" transform="translate(1036.470703 0)"/>
      <use xlink:href="#DejaVuSans-74" transform="translate(1088.570312 0)"/>
     </g>
    </g>
   </g>
   <g id="matplotlib.axis_2">
    <g id="ytick_1">
     <g id="line2d_14">
      <defs>
       <path id="m3222de3098" d="M 0 0 
L -4.8 0 
" style="stroke: #262626"/>
      </defs>
      <g>
       <use xlink:href="#m3222de3098" x="46.878" y="370.655455" style="fill: #262626; stroke: #262626"/>
      </g>
     </g>
     <g id="text_9">
      <!-- 18 -->
      <g style="fill: #262626" transform="translate(27.38 373.998768) scale(0.088 -0.088)">
       <use xlink:href="#DejaVuSans-31"/>
       <use xlink:href="#DejaVuSans-38" transform="translate(63.623047 0)"/>
      </g>
     </g>
    </g>
    <g id="ytick_2">
     <g id="line2d_15">
      <g>
       <use xlink:href="#m3222de3098" x="46.878" y="316.133637" style="fill: #262626; stroke: #262626"/>
      </g>
     </g>
     <g id="text_10">
      <!-- 20 -->
      <g style="fill: #262626" transform="translate(27.38 319.476949) scale(0.088 -0.088)">
       <use xlink:href="#DejaVuSans-32"/>
       <use xlink:href="#DejaVuSans-30" transform="translate(63.623047 0)"/>
      </g>
     </g>
    </g>
    <g id="ytick_3">
     <g id="line2d_16">
      <g>
       <use xlink:href="#m3222de3098" x="46.878" y="261.611819" style="fill: #262626; stroke: #262626"/>
      </g>
     </g>
     <g id="text_11">
      <!-- 22 -->
      <g style="fill: #262626" transform="translate(27.38 264.955131) scale(0.088 -0.088)">
       <use xlink:href="#DejaVuSans-32"/>
       <use xlink:href="#DejaVuSans-32" transform="translate(63.623047 0)"/>
      </g>
     </g>
    </g>
    <g id="ytick_4">
     <g id="line2d_17">
      <g>
       <use xlink:href="#m3222de3098" x="46.878" y="207.09" style="fill: #262626; stroke: #262626"/>
      </g>
     </g>
     <g id="text_12">
      <!-- 24 -->
      <g style="fill: #262626" transform="translate(27.38 210.433313) scale(0.088 -0.088)">
       <use xlink:href="#DejaVuSans-32"/>
       <use xlink:href="#DejaVuSans-34" transform="translate(63.623047 0)"/>
      </g>
     </g>
    </g>
    <g id="ytick_5">
     <g id="line2d_18">
      <g>
       <use xlink:href="#m3222de3098" x="46.878" y="152.568182" style="fill: #262626; stroke: #262626"/>
      </g>
     </g>
     <g id="text_13">
      <!-- 26 -->
      <g style="fill: #262626" transform="translate(27.38 155.911494) scale(0.088 -0.088)">
       <use xlink:href="#DejaVuSans-32"/>
       <use xlink:href="#DejaVuSans-36" transform="translate(63.623047 0)"/>
      </g>
     </g>
    </g>
    <g id="ytick_6">
     <g id="line2d_19">
      <g>
       <use xlink:href="#m3222de3098" x="46.878" y="98.046363" style="fill: #262626; stroke: #262626"/>
      </g>
     </g>
     <g id="text_14">
      <!-- 28 -->
      <g style="fill: #262626" transform="translate(27.38 101.389676) scale(0.088 -0.088)">
       <use xlink:href="#DejaVuSans-32"/>
       <use xlink:href="#DejaVuSans-38" transform="translate(63.623047 0)"/>
      </g>
     </g>
    </g>
    <g id="ytick_7">
     <g id="line2d_20">
      <g>
       <use xlink:href="#m3222de3098" x="46.878" y="43.524545" style="fill: #262626; stroke: #262626"/>
      </g>
     </g>
     <g id="text_15">
      <!-- 30 -->
      <g style="fill: #262626" transform="translate(27.38 46.867858) scale(0.088 -0.088)">
       <use xlink:href="#DejaVuSans-33"/>
       <use xlink:href="#DejaVuSans-30" transform="translate(63.623047 0)"/>
      </g>
     </g>
    </g>
    <g id="ytick_8">
     <g id="line2d_21">
      <defs>
       <path id="mf099338b42" d="M 0 0 
L -4 0 
" style="stroke: #d3d3d3; stroke-width: 0.8"/>
      </defs>
      <g>
       <use xlink:href="#mf099338b42" x="46.878" y="343.394546" style="fill: #d3d3d3; stroke: #d3d3d3; stroke-width: 0.8"/>
      </g>
     </g>
    </g>
    <g id="ytick_9">
     <g id="line2d_22">
      <g>
       <use xlink:href="#mf099338b42" x="46.878" y="288.872728" style="fill: #d3d3d3; stroke: #d3d3d3; stroke-width: 0.8"/>
      </g>
     </g>
    </g>
    <g id="ytick_10">
     <g id="line2d_23">
      <g>
       <use xlink:href="#mf099338b42" x="46.878" y="234.350909" style="fill: #d3d3d3; stroke: #d3d3d3; stroke-width: 0.8"/>
      </g>
     </g>
    </g>
    <g id="ytick_11">
     <g id="line2d_24">
      <g>
       <use xlink:href="#mf099338b42" x="46.878" y="179.829091" style="fill: #d3d3d3; stroke: #d3d3d3; stroke-width: 0.8"/>
      </g>
     </g>
    </g>
    <g id="ytick_12">
     <g id="line2d_25">
      <g>
       <use xlink:href="#mf099338b42" x="46.878" y="125.307273" style="fill: #d3d3d3; stroke: #d3d3d3; stroke-width: 0.8"/>
      </g>
     </g>
    </g>
    <g id="ytick_13">
     <g id="line2d_26">
      <g>
       <use xlink:href="#mf099338b42" x="46.878" y="70.785454" style="fill: #d3d3d3; stroke: #d3d3d3; stroke-width: 0.8"/>
      </g>
     </g>
    </g>
    <g id="text_16">
     <!-- Predicted MoCA Sum Post -->
     <g style="fill: #262626" transform="translate(20.884375 284.1225) rotate(-90) scale(0.12 -0.12)">
      <defs>
       <path id="DejaVuSans-72" d="M 2631 2963 
Q 2534 3019 2420 3045 
Q 2306 3072 2169 3072 
Q 1681 3072 1420 2755 
Q 1159 2438 1159 1844 
L 1159 0 
L 581 0 
L 581 3500 
L 1159 3500 
L 1159 2956 
Q 1341 3275 1631 3429 
Q 1922 3584 2338 3584 
Q 2397 3584 2469 3576 
Q 2541 3569 2628 3553 
L 2631 2963 
z
" transform="scale(0.015625)"/>
       <path id="DejaVuSans-65" d="M 3597 1894 
L 3597 1613 
L 953 1613 
Q 991 1019 1311 708 
Q 1631 397 2203 397 
Q 2534 397 2845 478 
Q 3156 559 3463 722 
L 3463 178 
Q 3153 47 2828 -22 
Q 2503 -91 2169 -91 
Q 1331 -91 842 396 
Q 353 884 353 1716 
Q 353 2575 817 3079 
Q 1281 3584 2069 3584 
Q 2775 3584 3186 3129 
Q 3597 2675 3597 1894 
z
M 3022 2063 
Q 3016 2534 2758 2815 
Q 2500 3097 2075 3097 
Q 1594 3097 1305 2825 
Q 1016 2553 972 2059 
L 3022 2063 
z
" transform="scale(0.015625)"/>
       <path id="DejaVuSans-64" d="M 2906 2969 
L 2906 4863 
L 3481 4863 
L 3481 0 
L 2906 0 
L 2906 525 
Q 2725 213 2448 61 
Q 2172 -91 1784 -91 
Q 1150 -91 751 415 
Q 353 922 353 1747 
Q 353 2572 751 3078 
Q 1150 3584 1784 3584 
Q 2172 3584 2448 3432 
Q 2725 3281 2906 2969 
z
M 947 1747 
Q 947 1113 1208 752 
Q 1469 391 1925 391 
Q 2381 391 2643 752 
Q 2906 1113 2906 1747 
Q 2906 2381 2643 2742 
Q 2381 3103 1925 3103 
Q 1469 3103 1208 2742 
Q 947 2381 947 1747 
z
" transform="scale(0.015625)"/>
       <path id="DejaVuSans-69" d="M 603 3500 
L 1178 3500 
L 1178 0 
L 603 0 
L 603 3500 
z
M 603 4863 
L 1178 4863 
L 1178 4134 
L 603 4134 
L 603 4863 
z
" transform="scale(0.015625)"/>
      </defs>
      <use xlink:href="#DejaVuSans-50"/>
      <use xlink:href="#DejaVuSans-72" transform="translate(58.552734 0)"/>
      <use xlink:href="#DejaVuSans-65" transform="translate(97.416016 0)"/>
      <use xlink:href="#DejaVuSans-64" transform="translate(158.939453 0)"/>
      <use xlink:href="#DejaVuSans-69" transform="translate(222.416016 0)"/>
      <use xlink:href="#DejaVuSans-63" transform="translate(250.199219 0)"/>
      <use xlink:href="#DejaVuSans-74" transform="translate(305.179688 0)"/>
      <use xlink:href="#DejaVuSans-65" transform="translate(344.388672 0)"/>
      <use xlink:href="#DejaVuSans-64" transform="translate(405.912109 0)"/>
      <use xlink:href="#DejaVuSans-20" transform="translate(469.388672 0)"/>
      <use xlink:href="#DejaVuSans-4d" transform="translate(501.175781 0)"/>
      <use xlink:href="#DejaVuSans-6f" transform="translate(587.455078 0)"/>
      <use xlink:href="#DejaVuSans-43" transform="translate(648.636719 0)"/>
      <use xlink:href="#DejaVuSans-41" transform="translate(718.460938 0)"/>
      <use xlink:href="#DejaVuSans-20" transform="translate(786.869141 0)"/>
      <use xlink:href="#DejaVuSans-53" transform="translate(818.65625 0)"/>
      <use xlink:href="#DejaVuSans-75" transform="translate(882.132812 0)"/>
      <use xlink:href="#DejaVuSans-6d" transform="translate(945.511719 0)"/>
      <use xlink:href="#DejaVuSans-20" transform="translate(1042.923828 0)"/>
      <use xlink:href="#DejaVuSans-50" transform="translate(1074.710938 0)"/>
      <use xlink:href="#DejaVuSans-6f" transform="translate(1131.388672 0)"/>
      <use xlink:href="#DejaVuSans-73" transform="translate(1192.570312 0)"/>
      <use xlink:href="#DejaVuSans-74" transform="translate(1244.669922 0)"/>
     </g>
    </g>
   </g>
   <g id="PathCollection_1">
    <defs>
     <path id="m0a5ff40a3e" d="M 0 2.4 
C 0.636487 2.4 1.246992 2.147121 1.697056 1.697056 
C 2.147121 1.246992 2.4 0.636487 2.4 0 
C 2.4 -0.636487 2.147121 -1.246992 1.697056 -1.697056 
C 1.246992 -2.147121 0.636487 -2.4 0 -2.4 
C -0.636487 -2.4 -1.246992 -2.147121 -1.697056 -1.697056 
C -2.147121 -1.246992 -2.4 -0.636487 -2.4 0 
C -2.4 0.636487 -2.147121 1.246992 -1.697056 1.697056 
C -1.246992 2.147121 -0.636487 2.4 0 2.4 
z
" style="stroke: #ffffff; stroke-opacity: 0.7; stroke-width: 0.384"/>
    </defs>
    <g clip-path="url(#p2187fdecd4)">
     <use xlink:href="#m0a5ff40a3e" x="345.554545" y="144.727367" style="fill: #4c72b0; fill-opacity: 0.7; stroke: #ffffff; stroke-opacity: 0.7; stroke-width: 0.384"/>
     <use xlink:href="#m0a5ff40a3e" x="463.453182" y="157.383421" style="fill: #4c72b0; fill-opacity: 0.7; stroke: #ffffff; stroke-opacity: 0.7; stroke-width: 0.384"/>
     <use xlink:href="#m0a5ff40a3e" x="306.255" y="185.087727" style="fill: #4c72b0; fill-opacity: 0.7; stroke: #ffffff; stroke-opacity: 0.7; stroke-width: 0.384"/>
     <use xlink:href="#m0a5ff40a3e" x="227.655909" y="251.054134" style="fill: #4c72b0; fill-opacity: 0.7; stroke: #ffffff; stroke-opacity: 0.7; stroke-width: 0.384"/>
     <use xlink:href="#m0a5ff40a3e" x="542.052273" y="135.024781" style="fill: #4c72b0; fill-opacity: 0.7; stroke: #ffffff; stroke-opacity: 0.7; stroke-width: 0.384"/>
     <use xlink:href="#m0a5ff40a3e" x="542.052273" y="143.856905" style="fill: #4c72b0; fill-opacity: 0.7; stroke: #ffffff; stroke-opacity: 0.7; stroke-width: 0.384"/>
     <use xlink:href="#m0a5ff40a3e" x="502.752727" y="149.994627" style="fill: #4c72b0; fill-opacity: 0.7; stroke: #ffffff; stroke-opacity: 0.7; stroke-width: 0.384"/>
     <use xlink:href="#m0a5ff40a3e" x="149.056818" y="245.316833" style="fill: #4c72b0; fill-opacity: 0.7; stroke: #ffffff; stroke-opacity: 0.7; stroke-width: 0.384"/>
     <use xlink:href="#m0a5ff40a3e" x="463.453182" y="149.069934" style="fill: #4c72b0; fill-opacity: 0.7; stroke: #ffffff; stroke-opacity: 0.7; stroke-width: 0.384"/>
     <use xlink:href="#m0a5ff40a3e" x="70.457727" y="155.702007" style="fill: #4c72b0; fill-opacity: 0.7; stroke: #ffffff; stroke-opacity: 0.7; stroke-width: 0.384"/>
     <use xlink:href="#m0a5ff40a3e" x="266.955455" y="228.861977" style="fill: #4c72b0; fill-opacity: 0.7; stroke: #ffffff; stroke-opacity: 0.7; stroke-width: 0.384"/>
     <use xlink:href="#m0a5ff40a3e" x="463.453182" y="168.271884" style="fill: #4c72b0; fill-opacity: 0.7; stroke: #ffffff; stroke-opacity: 0.7; stroke-width: 0.384"/>
     <use xlink:href="#m0a5ff40a3e" x="188.356364" y="170.859162" style="fill: #4c72b0; fill-opacity: 0.7; stroke: #ffffff; stroke-opacity: 0.7; stroke-width: 0.384"/>
     <use xlink:href="#m0a5ff40a3e" x="149.056818" y="258.707725" style="fill: #4c72b0; fill-opacity: 0.7; stroke: #ffffff; stroke-opacity: 0.7; stroke-width: 0.384"/>
     <use xlink:href="#m0a5ff40a3e" x="463.453182" y="156.660769" style="fill: #4c72b0; fill-opacity: 0.7; stroke: #ffffff; stroke-opacity: 0.7; stroke-width: 0.384"/>
     <use xlink:href="#m0a5ff40a3e" x="463.453182" y="183.413336" style="fill: #4c72b0; fill-opacity: 0.7; stroke: #ffffff; stroke-opacity: 0.7; stroke-width: 0.384"/>
     <use xlink:href="#m0a5ff40a3e" x="345.554545" y="169.537923" style="fill: #4c72b0; fill-opacity: 0.7; stroke: #ffffff; stroke-opacity: 0.7; stroke-width: 0.384"/>
     <use xlink:href="#m0a5ff40a3e" x="463.453182" y="134.88227" style="fill: #4c72b0; fill-opacity: 0.7; stroke: #ffffff; stroke-opacity: 0.7; stroke-width: 0.384"/>
     <use xlink:href="#m0a5ff40a3e" x="149.056818" y="227.948998" style="fill: #4c72b0; fill-opacity: 0.7; stroke: #ffffff; stroke-opacity: 0.7; stroke-width: 0.384"/>
     <use xlink:href="#m0a5ff40a3e" x="463.453182" y="138.273746" style="fill: #4c72b0; fill-opacity: 0.7; stroke: #ffffff; stroke-opacity: 0.7; stroke-width: 0.384"/>
     <use xlink:href="#m0a5ff40a3e" x="306.255" y="197.968901" style="fill: #4c72b0; fill-opacity: 0.7; stroke: #ffffff; stroke-opacity: 0.7; stroke-width: 0.384"/>
     <use xlink:href="#m0a5ff40a3e" x="109.757273" y="206.741826" style="fill: #4c72b0; fill-opacity: 0.7; stroke: #ffffff; stroke-opacity: 0.7; stroke-width: 0.384"/>
     <use xlink:href="#m0a5ff40a3e" x="424.153636" y="176.434487" style="fill: #4c72b0; fill-opacity: 0.7; stroke: #ffffff; stroke-opacity: 0.7; stroke-width: 0.384"/>
     <use xlink:href="#m0a5ff40a3e" x="542.052273" y="103.753821" style="fill: #4c72b0; fill-opacity: 0.7; stroke: #ffffff; stroke-opacity: 0.7; stroke-width: 0.384"/>
     <use xlink:href="#m0a5ff40a3e" x="542.052273" y="100.813509" style="fill: #4c72b0; fill-opacity: 0.7; stroke: #ffffff; stroke-opacity: 0.7; stroke-width: 0.384"/>
     <use xlink:href="#m0a5ff40a3e" x="463.453182" y="141.512353" style="fill: #4c72b0; fill-opacity: 0.7; stroke: #ffffff; stroke-opacity: 0.7; stroke-width: 0.384"/>
     <use xlink:href="#m0a5ff40a3e" x="424.153636" y="149.376595" style="fill: #4c72b0; fill-opacity: 0.7; stroke: #ffffff; stroke-opacity: 0.7; stroke-width: 0.384"/>
     <use xlink:href="#m0a5ff40a3e" x="463.453182" y="150.188021" style="fill: #4c72b0; fill-opacity: 0.7; stroke: #ffffff; stroke-opacity: 0.7; stroke-width: 0.384"/>
     <use xlink:href="#m0a5ff40a3e" x="345.554546" y="153.48539" style="fill: #4c72b0; fill-opacity: 0.7; stroke: #ffffff; stroke-opacity: 0.7; stroke-width: 0.384"/>
     <use xlink:href="#m0a5ff40a3e" x="149.056818" y="161.064006" style="fill: #4c72b0; fill-opacity: 0.7; stroke: #ffffff; stroke-opacity: 0.7; stroke-width: 0.384"/>
     <use xlink:href="#m0a5ff40a3e" x="384.854091" y="130.228024" style="fill: #4c72b0; fill-opacity: 0.7; stroke: #ffffff; stroke-opacity: 0.7; stroke-width: 0.384"/>
     <use xlink:href="#m0a5ff40a3e" x="70.457727" y="233.393408" style="fill: #4c72b0; fill-opacity: 0.7; stroke: #ffffff; stroke-opacity: 0.7; stroke-width: 0.384"/>
     <use xlink:href="#m0a5ff40a3e" x="384.854091" y="202.737217" style="fill: #4c72b0; fill-opacity: 0.7; stroke: #ffffff; stroke-opacity: 0.7; stroke-width: 0.384"/>
     <use xlink:href="#m0a5ff40a3e" x="463.453182" y="154.825546" style="fill: #4c72b0; fill-opacity: 0.7; stroke: #ffffff; stroke-opacity: 0.7; stroke-width: 0.384"/>
     <use xlink:href="#m0a5ff40a3e" x="502.752727" y="92.580031" style="fill: #4c72b0; fill-opacity: 0.7; stroke: #ffffff; stroke-opacity: 0.7; stroke-width: 0.384"/>
     <use xlink:href="#m0a5ff40a3e" x="463.453182" y="130.123965" style="fill: #4c72b0; fill-opacity: 0.7; stroke: #ffffff; stroke-opacity: 0.7; stroke-width: 0.384"/>
     <use xlink:href="#m0a5ff40a3e" x="463.453182" y="137.899053" style="fill: #4c72b0; fill-opacity: 0.7; stroke: #ffffff; stroke-opacity: 0.7; stroke-width: 0.384"/>
     <use xlink:href="#m0a5ff40a3e" x="384.854091" y="133.226562" style="fill: #4c72b0; fill-opacity: 0.7; stroke: #ffffff; stroke-opacity: 0.7; stroke-width: 0.384"/>
     <use xlink:href="#m0a5ff40a3e" x="463.453182" y="190.46659" style="fill: #4c72b0; fill-opacity: 0.7; stroke: #ffffff; stroke-opacity: 0.7; stroke-width: 0.384"/>
     <use xlink:href="#m0a5ff40a3e" x="227.655909" y="108.167069" style="fill: #4c72b0; fill-opacity: 0.7; stroke: #ffffff; stroke-opacity: 0.7; stroke-width: 0.384"/>
     <use xlink:href="#m0a5ff40a3e" x="266.955455" y="151.943646" style="fill: #4c72b0; fill-opacity: 0.7; stroke: #ffffff; stroke-opacity: 0.7; stroke-width: 0.384"/>
     <use xlink:href="#m0a5ff40a3e" x="542.052273" y="136.428575" style="fill: #4c72b0; fill-opacity: 0.7; stroke: #ffffff; stroke-opacity: 0.7; stroke-width: 0.384"/>
     <use xlink:href="#m0a5ff40a3e" x="542.052273" y="170.57212" style="fill: #4c72b0; fill-opacity: 0.7; stroke: #ffffff; stroke-opacity: 0.7; stroke-width: 0.384"/>
     <use xlink:href="#m0a5ff40a3e" x="502.752727" y="106.077149" style="fill: #4c72b0; fill-opacity: 0.7; stroke: #ffffff; stroke-opacity: 0.7; stroke-width: 0.384"/>
     <use xlink:href="#m0a5ff40a3e" x="424.153636" y="191.886945" style="fill: #4c72b0; fill-opacity: 0.7; stroke: #ffffff; stroke-opacity: 0.7; stroke-width: 0.384"/>
     <use xlink:href="#m0a5ff40a3e" x="384.854091" y="248.715557" style="fill: #4c72b0; fill-opacity: 0.7; stroke: #ffffff; stroke-opacity: 0.7; stroke-width: 0.384"/>
     <use xlink:href="#m0a5ff40a3e" x="463.453182" y="75.698594" style="fill: #4c72b0; fill-opacity: 0.7; stroke: #ffffff; stroke-opacity: 0.7; stroke-width: 0.384"/>
     <use xlink:href="#m0a5ff40a3e" x="306.255" y="140.976323" style="fill: #4c72b0; fill-opacity: 0.7; stroke: #ffffff; stroke-opacity: 0.7; stroke-width: 0.384"/>
     <use xlink:href="#m0a5ff40a3e" x="188.356364" y="156.973326" style="fill: #4c72b0; fill-opacity: 0.7; stroke: #ffffff; stroke-opacity: 0.7; stroke-width: 0.384"/>
     <use xlink:href="#m0a5ff40a3e" x="306.255" y="204.486937" style="fill: #4c72b0; fill-opacity: 0.7; stroke: #ffffff; stroke-opacity: 0.7; stroke-width: 0.384"/>
     <use xlink:href="#m0a5ff40a3e" x="542.052273" y="162.406511" style="fill: #4c72b0; fill-opacity: 0.7; stroke: #ffffff; stroke-opacity: 0.7; stroke-width: 0.384"/>
     <use xlink:href="#m0a5ff40a3e" x="502.752727" y="101.309985" style="fill: #4c72b0; fill-opacity: 0.7; stroke: #ffffff; stroke-opacity: 0.7; stroke-width: 0.384"/>
     <use xlink:href="#m0a5ff40a3e" x="542.052273" y="139.817797" style="fill: #4c72b0; fill-opacity: 0.7; stroke: #ffffff; stroke-opacity: 0.7; stroke-width: 0.384"/>
     <use xlink:href="#m0a5ff40a3e" x="345.554545" y="182.258846" style="fill: #4c72b0; fill-opacity: 0.7; stroke: #ffffff; stroke-opacity: 0.7; stroke-width: 0.384"/>
     <use xlink:href="#m0a5ff40a3e" x="542.052273" y="92.711672" style="fill: #4c72b0; fill-opacity: 0.7; stroke: #ffffff; stroke-opacity: 0.7; stroke-width: 0.384"/>
     <use xlink:href="#m0a5ff40a3e" x="345.554545" y="85.798979" style="fill: #4c72b0; fill-opacity: 0.7; stroke: #ffffff; stroke-opacity: 0.7; stroke-width: 0.384"/>
     <use xlink:href="#m0a5ff40a3e" x="227.655909" y="100.20614" style="fill: #4c72b0; fill-opacity: 0.7; stroke: #ffffff; stroke-opacity: 0.7; stroke-width: 0.384"/>
     <use xlink:href="#m0a5ff40a3e" x="227.655909" y="140.389856" style="fill: #4c72b0; fill-opacity: 0.7; stroke: #ffffff; stroke-opacity: 0.7; stroke-width: 0.384"/>
     <use xlink:href="#m0a5ff40a3e" x="542.052273" y="128.074421" style="fill: #4c72b0; fill-opacity: 0.7; stroke: #ffffff; stroke-opacity: 0.7; stroke-width: 0.384"/>
     <use xlink:href="#m0a5ff40a3e" x="345.554546" y="190.034964" style="fill: #4c72b0; fill-opacity: 0.7; stroke: #ffffff; stroke-opacity: 0.7; stroke-width: 0.384"/>
     <use xlink:href="#m0a5ff40a3e" x="345.554545" y="149.903388" style="fill: #4c72b0; fill-opacity: 0.7; stroke: #ffffff; stroke-opacity: 0.7; stroke-width: 0.384"/>
     <use xlink:href="#m0a5ff40a3e" x="345.554545" y="122.513257" style="fill: #4c72b0; fill-opacity: 0.7; stroke: #ffffff; stroke-opacity: 0.7; stroke-width: 0.384"/>
     <use xlink:href="#m0a5ff40a3e" x="542.052273" y="82.918906" style="fill: #4c72b0; fill-opacity: 0.7; stroke: #ffffff; stroke-opacity: 0.7; stroke-width: 0.384"/>
     <use xlink:href="#m0a5ff40a3e" x="424.153636" y="166.887092" style="fill: #4c72b0; fill-opacity: 0.7; stroke: #ffffff; stroke-opacity: 0.7; stroke-width: 0.384"/>
     <use xlink:href="#m0a5ff40a3e" x="424.153636" y="119.29904" style="fill: #4c72b0; fill-opacity: 0.7; stroke: #ffffff; stroke-opacity: 0.7; stroke-width: 0.384"/>
     <use xlink:href="#m0a5ff40a3e" x="463.453182" y="114.519953" style="fill: #4c72b0; fill-opacity: 0.7; stroke: #ffffff; stroke-opacity: 0.7; stroke-width: 0.384"/>
     <use xlink:href="#m0a5ff40a3e" x="345.554545" y="253.820096" style="fill: #4c72b0; fill-opacity: 0.7; stroke: #ffffff; stroke-opacity: 0.7; stroke-width: 0.384"/>
     <use xlink:href="#m0a5ff40a3e" x="345.554545" y="159.675471" style="fill: #4c72b0; fill-opacity: 0.7; stroke: #ffffff; stroke-opacity: 0.7; stroke-width: 0.384"/>
     <use xlink:href="#m0a5ff40a3e" x="463.453182" y="118.221642" style="fill: #4c72b0; fill-opacity: 0.7; stroke: #ffffff; stroke-opacity: 0.7; stroke-width: 0.384"/>
     <use xlink:href="#m0a5ff40a3e" x="424.153636" y="150.666899" style="fill: #4c72b0; fill-opacity: 0.7; stroke: #ffffff; stroke-opacity: 0.7; stroke-width: 0.384"/>
     <use xlink:href="#m0a5ff40a3e" x="542.052273" y="113.659987" style="fill: #4c72b0; fill-opacity: 0.7; stroke: #ffffff; stroke-opacity: 0.7; stroke-width: 0.384"/>
     <use xlink:href="#m0a5ff40a3e" x="227.655909" y="190.447916" style="fill: #4c72b0; fill-opacity: 0.7; stroke: #ffffff; stroke-opacity: 0.7; stroke-width: 0.384"/>
     <use xlink:href="#m0a5ff40a3e" x="384.854091" y="114.155691" style="fill: #4c72b0; fill-opacity: 0.7; stroke: #ffffff; stroke-opacity: 0.7; stroke-width: 0.384"/>
     <use xlink:href="#m0a5ff40a3e" x="266.955455" y="169.908315" style="fill: #4c72b0; fill-opacity: 0.7; stroke: #ffffff; stroke-opacity: 0.7; stroke-width: 0.384"/>
     <use xlink:href="#m0a5ff40a3e" x="188.356364" y="109.502902" style="fill: #4c72b0; fill-opacity: 0.7; stroke: #ffffff; stroke-opacity: 0.7; stroke-width: 0.384"/>
     <use xlink:href="#m0a5ff40a3e" x="542.052273" y="146.466623" style="fill: #4c72b0; fill-opacity: 0.7; stroke: #ffffff; stroke-opacity: 0.7; stroke-width: 0.384"/>
     <use xlink:href="#m0a5ff40a3e" x="424.153636" y="148.389869" style="fill: #4c72b0; fill-opacity: 0.7; stroke: #ffffff; stroke-opacity: 0.7; stroke-width: 0.384"/>
     <use xlink:href="#m0a5ff40a3e" x="384.854091" y="193.151936" style="fill: #4c72b0; fill-opacity: 0.7; stroke: #ffffff; stroke-opacity: 0.7; stroke-width: 0.384"/>
     <use xlink:href="#m0a5ff40a3e" x="345.554545" y="107.850998" style="fill: #4c72b0; fill-opacity: 0.7; stroke: #ffffff; stroke-opacity: 0.7; stroke-width: 0.384"/>
     <use xlink:href="#m0a5ff40a3e" x="306.255" y="157.498066" style="fill: #4c72b0; fill-opacity: 0.7; stroke: #ffffff; stroke-opacity: 0.7; stroke-width: 0.384"/>
     <use xlink:href="#m0a5ff40a3e" x="502.752727" y="163.460996" style="fill: #4c72b0; fill-opacity: 0.7; stroke: #ffffff; stroke-opacity: 0.7; stroke-width: 0.384"/>
     <use xlink:href="#m0a5ff40a3e" x="463.453182" y="132.148135" style="fill: #4c72b0; fill-opacity: 0.7; stroke: #ffffff; stroke-opacity: 0.7; stroke-width: 0.384"/>
     <use xlink:href="#m0a5ff40a3e" x="542.052273" y="107.887705" style="fill: #4c72b0; fill-opacity: 0.7; stroke: #ffffff; stroke-opacity: 0.7; stroke-width: 0.384"/>
     <use xlink:href="#m0a5ff40a3e" x="502.752727" y="234.419951" style="fill: #4c72b0; fill-opacity: 0.7; stroke: #ffffff; stroke-opacity: 0.7; stroke-width: 0.384"/>
     <use xlink:href="#m0a5ff40a3e" x="463.453182" y="120.021503" style="fill: #4c72b0; fill-opacity: 0.7; stroke: #ffffff; stroke-opacity: 0.7; stroke-width: 0.384"/>
     <use xlink:href="#m0a5ff40a3e" x="345.554545" y="130.156482" style="fill: #4c72b0; fill-opacity: 0.7; stroke: #ffffff; stroke-opacity: 0.7; stroke-width: 0.384"/>
     <use xlink:href="#m0a5ff40a3e" x="424.153636" y="144.640093" style="fill: #4c72b0; fill-opacity: 0.7; stroke: #ffffff; stroke-opacity: 0.7; stroke-width: 0.384"/>
     <use xlink:href="#m0a5ff40a3e" x="345.554545" y="122.403366" style="fill: #4c72b0; fill-opacity: 0.7; stroke: #ffffff; stroke-opacity: 0.7; stroke-width: 0.384"/>
     <use xlink:href="#m0a5ff40a3e" x="424.153636" y="193.140835" style="fill: #4c72b0; fill-opacity: 0.7; stroke: #ffffff; stroke-opacity: 0.7; stroke-width: 0.384"/>
     <use xlink:href="#m0a5ff40a3e" x="463.453182" y="110.467951" style="fill: #4c72b0; fill-opacity: 0.7; stroke: #ffffff; stroke-opacity: 0.7; stroke-width: 0.384"/>
     <use xlink:href="#m0a5ff40a3e" x="424.153636" y="149.377154" style="fill: #4c72b0; fill-opacity: 0.7; stroke: #ffffff; stroke-opacity: 0.7; stroke-width: 0.384"/>
     <use xlink:href="#m0a5ff40a3e" x="542.052273" y="150.729817" style="fill: #4c72b0; fill-opacity: 0.7; stroke: #ffffff; stroke-opacity: 0.7; stroke-width: 0.384"/>
     <use xlink:href="#m0a5ff40a3e" x="424.153636" y="180.709698" style="fill: #4c72b0; fill-opacity: 0.7; stroke: #ffffff; stroke-opacity: 0.7; stroke-width: 0.384"/>
     <use xlink:href="#m0a5ff40a3e" x="70.457727" y="155.264627" style="fill: #4c72b0; fill-opacity: 0.7; stroke: #ffffff; stroke-opacity: 0.7; stroke-width: 0.384"/>
     <use xlink:href="#m0a5ff40a3e" x="345.554545" y="161.350179" style="fill: #4c72b0; fill-opacity: 0.7; stroke: #ffffff; stroke-opacity: 0.7; stroke-width: 0.384"/>
     <use xlink:href="#m0a5ff40a3e" x="424.153636" y="118.810739" style="fill: #4c72b0; fill-opacity: 0.7; stroke: #ffffff; stroke-opacity: 0.7; stroke-width: 0.384"/>
     <use xlink:href="#m0a5ff40a3e" x="502.752727" y="128.037771" style="fill: #4c72b0; fill-opacity: 0.7; stroke: #ffffff; stroke-opacity: 0.7; stroke-width: 0.384"/>
     <use xlink:href="#m0a5ff40a3e" x="502.752727" y="151.927198" style="fill: #4c72b0; fill-opacity: 0.7; stroke: #ffffff; stroke-opacity: 0.7; stroke-width: 0.384"/>
     <use xlink:href="#m0a5ff40a3e" x="266.955455" y="139.275014" style="fill: #4c72b0; fill-opacity: 0.7; stroke: #ffffff; stroke-opacity: 0.7; stroke-width: 0.384"/>
     <use xlink:href="#m0a5ff40a3e" x="542.052273" y="104.323379" style="fill: #4c72b0; fill-opacity: 0.7; stroke: #ffffff; stroke-opacity: 0.7; stroke-width: 0.384"/>
     <use xlink:href="#m0a5ff40a3e" x="345.554545" y="126.559552" style="fill: #4c72b0; fill-opacity: 0.7; stroke: #ffffff; stroke-opacity: 0.7; stroke-width: 0.384"/>
     <use xlink:href="#m0a5ff40a3e" x="424.153636" y="113.641374" style="fill: #4c72b0; fill-opacity: 0.7; stroke: #ffffff; stroke-opacity: 0.7; stroke-width: 0.384"/>
     <use xlink:href="#m0a5ff40a3e" x="502.752727" y="143.37741" style="fill: #4c72b0; fill-opacity: 0.7; stroke: #ffffff; stroke-opacity: 0.7; stroke-width: 0.384"/>
     <use xlink:href="#m0a5ff40a3e" x="502.752727" y="147.080843" style="fill: #4c72b0; fill-opacity: 0.7; stroke: #ffffff; stroke-opacity: 0.7; stroke-width: 0.384"/>
     <use xlink:href="#m0a5ff40a3e" x="188.356364" y="139.867736" style="fill: #4c72b0; fill-opacity: 0.7; stroke: #ffffff; stroke-opacity: 0.7; stroke-width: 0.384"/>
     <use xlink:href="#m0a5ff40a3e" x="384.854091" y="161.80255" style="fill: #4c72b0; fill-opacity: 0.7; stroke: #ffffff; stroke-opacity: 0.7; stroke-width: 0.384"/>
     <use xlink:href="#m0a5ff40a3e" x="424.153636" y="127.865576" style="fill: #4c72b0; fill-opacity: 0.7; stroke: #ffffff; stroke-opacity: 0.7; stroke-width: 0.384"/>
     <use xlink:href="#m0a5ff40a3e" x="149.056818" y="144.088499" style="fill: #4c72b0; fill-opacity: 0.7; stroke: #ffffff; stroke-opacity: 0.7; stroke-width: 0.384"/>
     <use xlink:href="#m0a5ff40a3e" x="345.554545" y="74.71506" style="fill: #4c72b0; fill-opacity: 0.7; stroke: #ffffff; stroke-opacity: 0.7; stroke-width: 0.384"/>
    </g>
   </g>
   <g id="FillBetweenPolyCollection_1">
    <defs>
     <path id="mec90d6875e" d="M 70.457727 -263.234234 
L 70.457727 -218.634176 
L 75.221309 -219.486262 
L 79.98489 -220.338348 
L 84.748471 -221.190434 
L 89.512052 -222.04252 
L 94.275634 -222.894605 
L 99.039215 -223.747132 
L 103.802796 -224.600089 
L 108.566377 -225.453047 
L 113.329959 -226.306004 
L 118.09354 -227.158962 
L 122.857121 -228.011919 
L 127.620702 -228.864877 
L 132.384284 -229.717834 
L 137.147865 -230.570792 
L 141.911446 -231.423749 
L 146.675028 -232.277316 
L 151.438609 -233.132228 
L 156.20219 -233.95389 
L 160.965771 -234.821442 
L 165.729353 -235.746898 
L 170.492934 -236.678809 
L 175.256515 -237.607523 
L 180.020096 -238.536236 
L 184.783678 -239.464949 
L 189.547259 -240.393662 
L 194.31084 -241.322375 
L 199.074421 -242.20576 
L 203.838003 -243.117659 
L 208.601584 -243.923479 
L 213.365165 -244.729299 
L 218.128747 -245.53619 
L 222.892328 -246.378306 
L 227.655909 -247.151535 
L 232.41949 -247.954144 
L 237.183072 -248.758399 
L 241.946653 -249.564219 
L 246.710234 -250.370039 
L 251.473815 -251.176101 
L 256.237397 -251.983159 
L 261.000978 -252.790217 
L 265.764559 -253.620845 
L 270.52814 -254.537104 
L 275.291722 -255.453364 
L 280.055303 -256.369624 
L 284.818884 -257.285883 
L 289.582466 -258.201982 
L 294.346047 -259.027018 
L 299.109628 -259.831351 
L 303.873209 -260.576988 
L 308.636791 -261.491975 
L 313.400372 -262.223117 
L 318.163953 -263.060113 
L 322.927534 -263.837921 
L 327.691116 -264.660857 
L 332.454697 -265.397601 
L 337.218278 -266.070006 
L 341.98186 -266.887004 
L 346.745441 -267.797423 
L 351.509022 -268.705262 
L 356.272603 -269.449897 
L 361.036185 -270.189262 
L 365.799766 -270.902283 
L 370.563347 -271.653857 
L 375.326928 -272.419972 
L 380.09051 -273.190144 
L 384.854091 -273.866147 
L 389.617672 -274.521907 
L 394.381253 -275.183272 
L 399.144835 -275.832101 
L 403.908416 -276.339241 
L 408.671997 -276.949265 
L 413.435579 -277.531614 
L 418.19916 -278.189585 
L 422.962741 -278.857823 
L 427.726322 -279.468886 
L 432.489904 -279.967984 
L 437.253485 -280.581808 
L 442.017066 -281.274075 
L 446.780647 -281.920041 
L 451.544229 -282.368465 
L 456.30781 -283.042949 
L 461.071391 -283.476999 
L 465.834972 -284.014872 
L 470.598554 -284.496221 
L 475.362135 -284.942729 
L 480.125716 -285.427623 
L 484.889298 -285.99484 
L 489.652879 -286.420988 
L 494.41646 -286.792547 
L 499.180041 -287.187058 
L 503.943623 -287.605389 
L 508.707204 -288.042926 
L 513.470785 -288.484165 
L 518.234366 -288.957729 
L 522.997948 -289.307974 
L 527.761529 -289.648133 
L 532.52511 -290.006595 
L 537.288691 -290.333266 
L 542.052273 -290.760746 
L 542.052273 -309.385292 
L 542.052273 -309.385292 
L 537.288691 -308.596411 
L 532.52511 -307.912316 
L 527.761529 -307.185104 
L 522.997948 -306.479088 
L 518.234366 -305.743605 
L 513.470785 -304.928599 
L 508.707204 -304.162399 
L 503.943623 -303.346332 
L 499.180041 -302.678885 
L 494.41646 -302.011053 
L 489.652879 -301.28424 
L 484.889298 -300.541849 
L 480.125716 -299.831826 
L 475.362135 -299.17793 
L 470.598554 -298.526019 
L 465.834972 -297.829084 
L 461.071391 -297.160104 
L 456.30781 -296.518248 
L 451.544229 -295.701163 
L 446.780647 -294.993658 
L 442.017066 -294.264559 
L 437.253485 -293.535351 
L 432.489904 -292.862367 
L 427.726322 -292.190793 
L 422.962741 -291.643144 
L 418.19916 -291.020814 
L 413.435579 -290.420992 
L 408.671997 -289.887846 
L 403.908416 -289.291503 
L 399.144835 -288.607999 
L 394.381253 -288.04359 
L 389.617672 -287.432129 
L 384.854091 -286.915742 
L 380.09051 -286.452995 
L 375.326928 -285.942981 
L 370.563347 -285.497256 
L 365.799766 -285.151566 
L 361.036185 -284.746933 
L 356.272603 -284.392144 
L 351.509022 -284.071358 
L 346.745441 -283.757537 
L 341.98186 -283.383275 
L 337.218278 -283.03971 
L 332.454697 -282.606331 
L 327.691116 -282.249103 
L 322.927534 -281.891144 
L 318.163953 -281.370037 
L 313.400372 -280.881652 
L 308.636791 -280.403703 
L 303.873209 -280.010326 
L 299.109628 -279.706217 
L 294.346047 -279.26909 
L 289.582466 -278.754197 
L 284.818884 -278.343196 
L 280.055303 -277.914576 
L 275.291722 -277.522912 
L 270.52814 -277.134459 
L 265.764559 -276.815087 
L 261.000978 -276.495715 
L 256.237397 -276.213577 
L 251.473815 -275.886388 
L 246.710234 -275.528732 
L 241.946653 -275.206528 
L 237.183072 -274.88365 
L 232.41949 -274.560771 
L 227.655909 -274.23983 
L 222.892328 -273.918793 
L 218.128747 -273.477313 
L 213.365165 -273.030812 
L 208.601584 -272.646278 
L 203.838003 -272.261745 
L 199.074421 -271.881834 
L 194.31084 -271.592543 
L 189.547259 -271.303252 
L 184.783678 -271.01396 
L 180.020096 -270.724599 
L 175.256515 -270.433845 
L 170.492934 -270.14309 
L 165.729353 -269.852336 
L 160.965771 -269.506277 
L 156.20219 -269.128776 
L 151.438609 -268.751274 
L 146.675028 -268.373419 
L 141.911446 -268.042331 
L 137.147865 -267.735836 
L 132.384284 -267.429341 
L 127.620702 -267.122845 
L 122.857121 -266.81635 
L 118.09354 -266.509855 
L 113.329959 -266.132697 
L 108.566377 -265.721378 
L 103.802796 -265.317178 
L 99.039215 -265.050446 
L 94.275634 -264.757585 
L 89.512052 -264.402937 
L 84.748471 -264.106879 
L 79.98489 -263.816041 
L 75.221309 -263.525204 
L 70.457727 -263.234234 
z
" style="stroke: #ffffff; stroke-opacity: 0.15; stroke-width: 0.8"/>
    </defs>
    <g clip-path="url(#p2187fdecd4)">
     <use xlink:href="#mec90d6875e" x="0" y="432" style="fill: #808080; fill-opacity: 0.15; stroke: #ffffff; stroke-opacity: 0.15; stroke-width: 0.8"/>
    </g>
   </g>
   <g id="FillBetweenPolyCollection_2">
    <defs>
     <path id="ma01c732d60" d="M 70.457727 -260.322101 
L 70.457727 -217.418421 
L 75.221309 -218.315342 
L 79.98489 -219.212263 
L 84.748471 -220.061449 
L 89.512052 -220.873494 
L 94.275634 -221.68554 
L 99.039215 -222.583151 
L 103.802796 -223.542349 
L 108.566377 -224.504771 
L 113.329959 -225.467194 
L 118.09354 -226.379958 
L 122.857121 -227.276331 
L 127.620702 -228.172703 
L 132.384284 -229.069076 
L 137.147865 -229.965449 
L 141.911446 -230.861821 
L 146.675028 -231.776352 
L 151.438609 -232.716257 
L 156.20219 -233.656161 
L 160.965771 -234.596066 
L 165.729353 -235.535971 
L 170.492934 -236.475875 
L 175.256515 -237.41578 
L 180.020096 -238.244477 
L 184.783678 -239.048314 
L 189.547259 -239.852151 
L 194.31084 -240.708601 
L 199.074421 -241.543592 
L 203.838003 -242.320737 
L 208.601584 -243.23714 
L 213.365165 -244.104449 
L 218.128747 -244.929353 
L 222.892328 -245.799424 
L 227.655909 -246.741929 
L 232.41949 -247.684434 
L 237.183072 -248.539659 
L 241.946653 -249.337711 
L 246.710234 -250.182258 
L 251.473815 -250.928653 
L 256.237397 -251.843293 
L 261.000978 -252.774063 
L 265.764559 -253.538105 
L 270.52814 -254.300099 
L 275.291722 -255.115181 
L 280.055303 -256.02578 
L 284.818884 -256.935016 
L 289.582466 -257.846214 
L 294.346047 -258.757412 
L 299.109628 -259.477658 
L 303.873209 -260.268275 
L 308.636791 -260.911164 
L 313.400372 -261.554053 
L 318.163953 -262.262808 
L 322.927534 -263.131902 
L 327.691116 -264.011615 
L 332.454697 -264.859812 
L 337.218278 -265.567873 
L 341.98186 -266.297936 
L 346.745441 -267.098117 
L 351.509022 -267.845777 
L 356.272603 -268.624431 
L 361.036185 -269.362661 
L 365.799766 -270.092492 
L 370.563347 -270.794417 
L 375.326928 -271.624623 
L 380.09051 -272.380818 
L 384.854091 -273.180131 
L 389.617672 -273.972923 
L 394.381253 -274.833888 
L 399.144835 -275.570545 
L 403.908416 -276.215582 
L 408.671997 -276.733446 
L 413.435579 -277.407609 
L 418.19916 -278.007374 
L 422.962741 -278.577492 
L 427.726322 -279.331203 
L 432.489904 -279.715769 
L 437.253485 -280.357477 
L 442.017066 -280.826228 
L 446.780647 -281.489525 
L 451.544229 -281.966914 
L 456.30781 -282.599159 
L 461.071391 -283.127551 
L 465.834972 -283.674786 
L 470.598554 -284.112947 
L 475.362135 -284.420436 
L 480.125716 -285.023552 
L 484.889298 -285.482338 
L 489.652879 -285.93043 
L 494.41646 -286.233684 
L 499.180041 -286.65191 
L 503.943623 -287.286263 
L 508.707204 -287.772878 
L 513.470785 -288.298487 
L 518.234366 -288.643143 
L 522.997948 -289.09306 
L 527.761529 -289.542088 
L 532.52511 -289.996713 
L 537.288691 -290.524418 
L 542.052273 -290.964447 
L 542.052273 -309.937814 
L 542.052273 -309.937814 
L 537.288691 -309.293231 
L 532.52511 -308.48854 
L 527.761529 -307.634734 
L 522.997948 -306.780505 
L 518.234366 -305.926163 
L 513.470785 -305.070545 
L 508.707204 -304.31703 
L 503.943623 -303.529691 
L 499.180041 -302.803676 
L 494.41646 -302.102998 
L 489.652879 -301.390506 
L 484.889298 -300.522146 
L 480.125716 -299.625292 
L 475.362135 -298.887244 
L 470.598554 -298.071026 
L 465.834972 -297.418895 
L 461.071391 -296.760251 
L 456.30781 -296.12564 
L 451.544229 -295.487877 
L 446.780647 -294.700395 
L 442.017066 -293.969118 
L 437.253485 -293.310967 
L 432.489904 -292.634127 
L 427.726322 -291.9988 
L 422.962741 -291.399061 
L 418.19916 -290.872423 
L 413.435579 -290.364602 
L 408.671997 -289.833758 
L 403.908416 -289.318283 
L 399.144835 -288.66429 
L 394.381253 -288.106562 
L 389.617672 -287.511938 
L 384.854091 -287.134364 
L 380.09051 -286.740385 
L 375.326928 -286.225389 
L 370.563347 -285.794215 
L 365.799766 -285.286394 
L 361.036185 -284.779263 
L 356.272603 -284.270752 
L 351.509022 -283.762931 
L 346.745441 -283.30156 
L 341.98186 -282.927833 
L 337.218278 -282.465723 
L 332.454697 -281.956108 
L 327.691116 -281.596781 
L 322.927534 -281.236289 
L 318.163953 -280.857411 
L 313.400372 -280.451929 
L 308.636791 -279.958856 
L 303.873209 -279.509474 
L 299.109628 -278.990922 
L 294.346047 -278.539686 
L 289.582466 -278.057117 
L 284.818884 -277.766117 
L 280.055303 -277.56962 
L 275.291722 -277.211456 
L 270.52814 -276.806277 
L 265.764559 -276.401097 
L 261.000978 -275.995917 
L 256.237397 -275.590737 
L 251.473815 -275.185557 
L 246.710234 -274.780618 
L 241.946653 -274.429614 
L 237.183072 -274.023969 
L 232.41949 -273.657851 
L 227.655909 -273.252216 
L 222.892328 -272.901971 
L 218.128747 -272.551725 
L 213.365165 -272.201479 
L 208.601584 -271.851233 
L 203.838003 -271.500116 
L 199.074421 -271.148166 
L 194.31084 -270.796216 
L 189.547259 -270.444226 
L 184.783678 -270.042436 
L 180.020096 -269.637422 
L 175.256515 -269.232408 
L 170.492934 -268.827394 
L 165.729353 -268.422343 
L 160.965771 -267.984547 
L 156.20219 -267.512699 
L 151.438609 -267.040852 
L 146.675028 -266.569004 
L 141.911446 -266.097157 
L 137.147865 -265.625309 
L 132.384284 -265.153461 
L 127.620702 -264.80259 
L 122.857121 -264.49844 
L 118.09354 -264.194289 
L 113.329959 -263.890139 
L 108.566377 -263.559827 
L 103.802796 -263.157198 
L 99.039215 -262.752185 
L 94.275634 -262.347171 
L 89.512052 -261.942157 
L 84.748471 -261.537143 
L 79.98489 -261.132129 
L 75.221309 -260.727115 
L 70.457727 -260.322101 
z
" style="stroke: #ffffff; stroke-opacity: 0.15; stroke-width: 0.8"/>
    </defs>
    <g clip-path="url(#p2187fdecd4)">
     <use xlink:href="#ma01c732d60" x="0" y="432" style="fill: #808080; fill-opacity: 0.15; stroke: #ffffff; stroke-opacity: 0.15; stroke-width: 0.8"/>
    </g>
   </g>
   <g id="line2d_27">
    <path d="M 70.457727 191.346402 
L 75.221309 190.743325 
L 79.98489 190.140249 
L 84.748471 189.537173 
L 89.512052 188.934097 
L 94.275634 188.33102 
L 99.039215 187.727944 
L 103.802796 187.124868 
L 108.566377 186.521792 
L 113.329959 185.918715 
L 118.09354 185.315639 
L 122.857121 184.712563 
L 127.620702 184.109487 
L 132.384284 183.50641 
L 137.147865 182.903334 
L 141.911446 182.300258 
L 146.675028 181.697181 
L 151.438609 181.094105 
L 156.20219 180.491029 
L 160.965771 179.887953 
L 165.729353 179.284876 
L 170.492934 178.6818 
L 175.256515 178.078724 
L 180.020096 177.475648 
L 184.783678 176.872571 
L 189.547259 176.269495 
L 194.31084 175.666419 
L 199.074421 175.063343 
L 203.838003 174.460266 
L 208.601584 173.85719 
L 213.365165 173.254114 
L 218.128747 172.651037 
L 222.892328 172.047961 
L 227.655909 171.444885 
L 232.41949 170.841809 
L 237.183072 170.238732 
L 241.946653 169.635656 
L 246.710234 169.03258 
L 251.473815 168.429504 
L 256.237397 167.826427 
L 261.000978 167.223351 
L 265.764559 166.620275 
L 270.52814 166.017199 
L 275.291722 165.414122 
L 280.055303 164.811046 
L 284.818884 164.20797 
L 289.582466 163.604894 
L 294.346047 163.001817 
L 299.109628 162.398741 
L 303.873209 161.795665 
L 308.636791 161.192588 
L 313.400372 160.589512 
L 318.163953 159.986436 
L 322.927534 159.38336 
L 327.691116 158.780283 
L 332.454697 158.177207 
L 337.218278 157.574131 
L 341.98186 156.971055 
L 346.745441 156.367978 
L 351.509022 155.764902 
L 356.272603 155.161826 
L 361.036185 154.55875 
L 365.799766 153.955673 
L 370.563347 153.352597 
L 375.326928 152.749521 
L 380.09051 152.146444 
L 384.854091 151.543368 
L 389.617672 150.940292 
L 394.381253 150.337216 
L 399.144835 149.734139 
L 403.908416 149.131063 
L 408.671997 148.527987 
L 413.435579 147.924911 
L 418.19916 147.321834 
L 422.962741 146.718758 
L 427.726322 146.115682 
L 432.489904 145.512606 
L 437.253485 144.909529 
L 442.017066 144.306453 
L 446.780647 143.703377 
L 451.544229 143.100301 
L 456.30781 142.497224 
L 461.071391 141.894148 
L 465.834972 141.291072 
L 470.598554 140.687995 
L 475.362135 140.084919 
L 480.125716 139.481843 
L 484.889298 138.878767 
L 489.652879 138.27569 
L 494.41646 137.672614 
L 499.180041 137.069538 
L 503.943623 136.466462 
L 508.707204 135.863385 
L 513.470785 135.260309 
L 518.234366 134.657233 
L 522.997948 134.054157 
L 527.761529 133.45108 
L 532.52511 132.848004 
L 537.288691 132.244928 
L 542.052273 131.641852 
" clip-path="url(#p2187fdecd4)" style="fill: none; stroke: #808080; stroke-width: 1.8; stroke-linecap: round"/>
   </g>
   <g id="line2d_28">
    <path d="M 70.457727 191.346402 
L 75.221309 190.743325 
L 79.98489 190.140249 
L 84.748471 189.537173 
L 89.512052 188.934097 
L 94.275634 188.33102 
L 99.039215 187.727944 
L 103.802796 187.124868 
L 108.566377 186.521792 
L 113.329959 185.918715 
L 118.09354 185.315639 
L 122.857121 184.712563 
L 127.620702 184.109487 
L 132.384284 183.50641 
L 137.147865 182.903334 
L 141.911446 182.300258 
L 146.675028 181.697181 
L 151.438609 181.094105 
L 156.20219 180.491029 
L 160.965771 179.887953 
L 165.729353 179.284876 
L 170.492934 178.6818 
L 175.256515 178.078724 
L 180.020096 177.475648 
L 184.783678 176.872571 
L 189.547259 176.269495 
L 194.31084 175.666419 
L 199.074421 175.063343 
L 203.838003 174.460266 
L 208.601584 173.85719 
L 213.365165 173.254114 
L 218.128747 172.651037 
L 222.892328 172.047961 
L 227.655909 171.444885 
L 232.41949 170.841809 
L 237.183072 170.238732 
L 241.946653 169.635656 
L 246.710234 169.03258 
L 251.473815 168.429504 
L 256.237397 167.826427 
L 261.000978 167.223351 
L 265.764559 166.620275 
L 270.52814 166.017199 
L 275.291722 165.414122 
L 280.055303 164.811046 
L 284.818884 164.20797 
L 289.582466 163.604894 
L 294.346047 163.001817 
L 299.109628 162.398741 
L 303.873209 161.795665 
L 308.636791 161.192588 
L 313.400372 160.589512 
L 318.163953 159.986436 
L 322.927534 159.38336 
L 327.691116 158.780283 
L 332.454697 158.177207 
L 337.218278 157.574131 
L 341.98186 156.971055 
L 346.745441 156.367978 
L 351.509022 155.764902 
L 356.272603 155.161826 
L 361.036185 154.55875 
L 365.799766 153.955673 
L 370.563347 153.352597 
L 375.326928 152.749521 
L 380.09051 152.146444 
L 384.854091 151.543368 
L 389.617672 150.940292 
L 394.381253 150.337216 
L 399.144835 149.734139 
L 403.908416 149.131063 
L 408.671997 148.527987 
L 413.435579 147.924911 
L 418.19916 147.321834 
L 422.962741 146.718758 
L 427.726322 146.115682 
L 432.489904 145.512606 
L 437.253485 144.909529 
L 442.017066 144.306453 
L 446.780647 143.703377 
L 451.544229 143.100301 
L 456.30781 142.497224 
L 461.071391 141.894148 
L 465.834972 141.291072 
L 470.598554 140.687995 
L 475.362135 140.084919 
L 480.125716 139.481843 
L 484.889298 138.878767 
L 489.652879 138.27569 
L 494.41646 137.672614 
L 499.180041 137.069538 
L 503.943623 136.466462 
L 508.707204 135.863385 
L 513.470785 135.260309 
L 518.234366 134.657233 
L 522.997948 134.054157 
L 527.761529 133.45108 
L 532.52511 132.848004 
L 537.288691 132.244928 
L 542.052273 131.641852 
" clip-path="url(#p2187fdecd4)" style="fill: none; stroke: #808080; stroke-width: 1.8; stroke-linecap: round"/>
   </g>
   <g id="patch_3">
    <path d="M 46.878 387.012 
L 46.878 27.168 
" style="fill: none; stroke: #262626; stroke-linejoin: miter; stroke-linecap: square"/>
   </g>
   <g id="patch_4">
    <path d="M 46.878 387.012 
L 565.632 387.012 
" style="fill: none; stroke: #262626; stroke-linejoin: miter; stroke-linecap: square"/>
   </g>
   <g id="text_17">
    <g id="patch_5">
     <path d="M 68.8557 87.6087 
L 185.64945 87.6087 
L 185.64945 41.2002 
L 68.8557 41.2002 
z
" style="fill: #ffffff; opacity: 0.5; stroke: #ffffff; stroke-width: 0.8; stroke-linejoin: miter"/>
    </g>
    <!-- R: 0.40 -->
    <g style="fill: #262626" transform="translate(72.8157 54.278325) scale(0.12 -0.12)">
     <defs>
      <path id="DejaVuSans-52" d="M 2841 2188 
Q 3044 2119 3236 1894 
Q 3428 1669 3622 1275 
L 4263 0 
L 3584 0 
L 2988 1197 
Q 2756 1666 2539 1819 
Q 2322 1972 1947 1972 
L 1259 1972 
L 1259 0 
L 628 0 
L 628 4666 
L 2053 4666 
Q 2853 4666 3247 4331 
Q 3641 3997 3641 3322 
Q 3641 2881 3436 2590 
Q 3231 2300 2841 2188 
z
M 1259 4147 
L 1259 2491 
L 2053 2491 
Q 2509 2491 2742 2702 
Q 2975 2913 2975 3322 
Q 2975 3731 2742 3939 
Q 2509 4147 2053 4147 
L 1259 4147 
z
" transform="scale(0.015625)"/>
      <path id="DejaVuSans-3a" d="M 750 794 
L 1409 794 
L 1409 0 
L 750 0 
L 750 794 
z
M 750 3309 
L 1409 3309 
L 1409 2516 
L 750 2516 
L 750 3309 
z
" transform="scale(0.015625)"/>
      <path id="DejaVuSans-2e" d="M 684 794 
L 1344 794 
L 1344 0 
L 684 0 
L 684 794 
z
" transform="scale(0.015625)"/>
     </defs>
     <use xlink:href="#DejaVuSans-52"/>
     <use xlink:href="#DejaVuSans-3a" transform="translate(66.357422 0)"/>
     <use xlink:href="#DejaVuSans-20" transform="translate(100.048828 0)"/>
     <use xlink:href="#DejaVuSans-30" transform="translate(131.835938 0)"/>
     <use xlink:href="#DejaVuSans-2e" transform="translate(195.458984 0)"/>
     <use xlink:href="#DejaVuSans-34" transform="translate(227.246094 0)"/>
     <use xlink:href="#DejaVuSans-30" transform="translate(290.869141 0)"/>
    </g>
    <!-- Spearman : 0.38 -->
    <g style="fill: #262626" transform="translate(72.8157 67.7157) scale(0.12 -0.12)">
     <defs>
      <path id="DejaVuSans-70" d="M 1159 525 
L 1159 -1331 
L 581 -1331 
L 581 3500 
L 1159 3500 
L 1159 2969 
Q 1341 3281 1617 3432 
Q 1894 3584 2278 3584 
Q 2916 3584 3314 3078 
Q 3713 2572 3713 1747 
Q 3713 922 3314 415 
Q 2916 -91 2278 -91 
Q 1894 -91 1617 61 
Q 1341 213 1159 525 
z
M 3116 1747 
Q 3116 2381 2855 2742 
Q 2594 3103 2138 3103 
Q 1681 3103 1420 2742 
Q 1159 2381 1159 1747 
Q 1159 1113 1420 752 
Q 1681 391 2138 391 
Q 2594 391 2855 752 
Q 3116 1113 3116 1747 
z
" transform="scale(0.015625)"/>
      <path id="DejaVuSans-6e" d="M 3513 2113 
L 3513 0 
L 2938 0 
L 2938 2094 
Q 2938 2591 2744 2837 
Q 2550 3084 2163 3084 
Q 1697 3084 1428 2787 
Q 1159 2491 1159 1978 
L 1159 0 
L 581 0 
L 581 3500 
L 1159 3500 
L 1159 2956 
Q 1366 3272 1645 3428 
Q 1925 3584 2291 3584 
Q 2894 3584 3203 3211 
Q 3513 2838 3513 2113 
z
" transform="scale(0.015625)"/>
      <path id="DejaVuSans-3c1" d="M 863 2875 
Q 1053 3194 1525 3475 
Q 1709 3584 2278 3584 
Q 2916 3584 3314 3078 
Q 3713 2572 3713 1747 
Q 3713 922 3314 415 
Q 2916 -91 2278 -91 
Q 1894 -91 1617 61 
Q 1341 213 1159 525 
L 1159 -1331 
L 581 -1331 
L 581 1716 
Q 581 2438 863 2875 
z
M 3116 1747 
Q 3116 2381 2855 2742 
Q 2594 3103 2138 3103 
Q 1681 3103 1420 2742 
Q 1159 2381 1159 1747 
Q 1159 1113 1420 752 
Q 1681 391 2138 391 
Q 2594 391 2855 752 
Q 3116 1113 3116 1747 
z
" transform="scale(0.015625)"/>
     </defs>
     <use xlink:href="#DejaVuSans-53"/>
     <use xlink:href="#DejaVuSans-70" transform="translate(63.476562 0)"/>
     <use xlink:href="#DejaVuSans-65" transform="translate(126.953125 0)"/>
     <use xlink:href="#DejaVuSans-61" transform="translate(188.476562 0)"/>
     <use xlink:href="#DejaVuSans-72" transform="translate(249.755859 0)"/>
     <use xlink:href="#DejaVuSans-6d" transform="translate(289.119141 0)"/>
     <use xlink:href="#DejaVuSans-61" transform="translate(386.53125 0)"/>
     <use xlink:href="#DejaVuSans-6e" transform="translate(447.810547 0)"/>
     <use xlink:href="#DejaVuSans-20" transform="translate(511.189453 0)"/>
     <use xlink:href="#DejaVuSans-3c1" transform="translate(542.976562 0)"/>
     <use xlink:href="#DejaVuSans-3a" transform="translate(606.453125 0)"/>
     <use xlink:href="#DejaVuSans-20" transform="translate(640.144531 0)"/>
     <use xlink:href="#DejaVuSans-30" transform="translate(671.931641 0)"/>
     <use xlink:href="#DejaVuSans-2e" transform="translate(735.554688 0)"/>
     <use xlink:href="#DejaVuSans-33" transform="translate(767.341797 0)"/>
     <use xlink:href="#DejaVuSans-38" transform="translate(830.964844 0)"/>
    </g>
    <!-- P-value: 0.000017 -->
    <g style="fill: #262626" transform="translate(72.8157 81.153075) scale(0.12 -0.12)">
     <defs>
      <path id="DejaVuSans-2d" d="M 313 2009 
L 1997 2009 
L 1997 1497 
L 313 1497 
L 313 2009 
z
" transform="scale(0.015625)"/>
      <path id="DejaVuSans-76" d="M 191 3500 
L 800 3500 
L 1894 563 
L 2988 3500 
L 3597 3500 
L 2284 0 
L 1503 0 
L 191 3500 
z
" transform="scale(0.015625)"/>
      <path id="DejaVuSans-37" d="M 525 4666 
L 3525 4666 
L 3525 4397 
L 1831 0 
L 1172 0 
L 2766 4134 
L 525 4134 
L 525 4666 
z
" transform="scale(0.015625)"/>
     </defs>
     <use xlink:href="#DejaVuSans-50"/>
     <use xlink:href="#DejaVuSans-2d" transform="translate(58.052734 0)"/>
     <use xlink:href="#DejaVuSans-76" transform="translate(91.511719 0)"/>
     <use xlink:href="#DejaVuSans-61" transform="translate(150.691406 0)"/>
     <use xlink:href="#DejaVuSans-6c" transform="translate(211.970703 0)"/>
     <use xlink:href="#DejaVuSans-75" transform="translate(239.753906 0)"/>
     <use xlink:href="#DejaVuSans-65" transform="translate(303.132812 0)"/>
     <use xlink:href="#DejaVuSans-3a" transform="translate(364.65625 0)"/>
     <use xlink:href="#DejaVuSans-20" transform="translate(398.347656 0)"/>
     <use xlink:href="#DejaVuSans-30" transform="translate(430.134766 0)"/>
     <use xlink:href="#DejaVuSans-2e" transform="translate(493.757812 0)"/>
     <use xlink:href="#DejaVuSans-30" transform="translate(525.544922 0)"/>
     <use xlink:href="#DejaVuSans-30" transform="translate(589.167969 0)"/>
     <use xlink:href="#DejaVuSans-30" transform="translate(652.791016 0)"/>
     <use xlink:href="#DejaVuSans-30" transform="translate(716.414062 0)"/>
     <use xlink:href="#DejaVuSans-31" transform="translate(780.037109 0)"/>
     <use xlink:href="#DejaVuSans-37" transform="translate(843.660156 0)"/>
    </g>
   </g>
   <g id="text_18">
    <!-- Model Predicted vs. Actual - Full Ensemble  N=109 -->
    <g style="fill: #262626" transform="translate(129.352969 21.168) scale(0.14 -0.14)">
     <defs>
      <path id="DejaVuSans-46" d="M 628 4666 
L 3309 4666 
L 3309 4134 
L 1259 4134 
L 1259 2759 
L 3109 2759 
L 3109 2228 
L 1259 2228 
L 1259 0 
L 628 0 
L 628 4666 
z
" transform="scale(0.015625)"/>
      <path id="DejaVuSans-45" d="M 628 4666 
L 3578 4666 
L 3578 4134 
L 1259 4134 
L 1259 2753 
L 3481 2753 
L 3481 2222 
L 1259 2222 
L 1259 531 
L 3634 531 
L 3634 0 
L 628 0 
L 628 4666 
z
" transform="scale(0.015625)"/>
      <path id="DejaVuSans-62" d="M 3116 1747 
Q 3116 2381 2855 2742 
Q 2594 3103 2138 3103 
Q 1681 3103 1420 2742 
Q 1159 2381 1159 1747 
Q 1159 1113 1420 752 
Q 1681 391 2138 391 
Q 2594 391 2855 752 
Q 3116 1113 3116 1747 
z
M 1159 2969 
Q 1341 3281 1617 3432 
Q 1894 3584 2278 3584 
Q 2916 3584 3314 3078 
Q 3713 2572 3713 1747 
Q 3713 922 3314 415 
Q 2916 -91 2278 -91 
Q 1894 -91 1617 61 
Q 1341 213 1159 525 
L 1159 0 
L 581 0 
L 581 4863 
L 1159 4863 
L 1159 2969 
z
" transform="scale(0.015625)"/>
      <path id="DejaVuSans-4e" d="M 628 4666 
L 1478 4666 
L 3547 763 
L 3547 4666 
L 4159 4666 
L 4159 0 
L 3309 0 
L 1241 3903 
L 1241 0 
L 628 0 
L 628 4666 
z
" transform="scale(0.015625)"/>
      <path id="DejaVuSans-3d" d="M 678 2906 
L 4684 2906 
L 4684 2381 
L 678 2381 
L 678 2906 
z
M 678 1631 
L 4684 1631 
L 4684 1100 
L 678 1100 
L 678 1631 
z
" transform="scale(0.015625)"/>
      <path id="DejaVuSans-39" d="M 703 97 
L 703 672 
Q 941 559 1184 500 
Q 1428 441 1663 441 
Q 2288 441 2617 861 
Q 2947 1281 2994 2138 
Q 2813 1869 2534 1725 
Q 2256 1581 1919 1581 
Q 1219 1581 811 2004 
Q 403 2428 403 3163 
Q 403 3881 828 4315 
Q 1253 4750 1959 4750 
Q 2769 4750 3195 4129 
Q 3622 3509 3622 2328 
Q 3622 1225 3098 567 
Q 2575 -91 1691 -91 
Q 1453 -91 1209 -44 
Q 966 3 703 97 
z
M 1959 2075 
Q 2384 2075 2632 2365 
Q 2881 2656 2881 3163 
Q 2881 3666 2632 3958 
Q 2384 4250 1959 4250 
Q 1534 4250 1286 3958 
Q 1038 3666 1038 3163 
Q 1038 2656 1286 2365 
Q 1534 2075 1959 2075 
z
" transform="scale(0.015625)"/>
     </defs>
     <use xlink:href="#DejaVuSans-4d"/>
     <use xlink:href="#DejaVuSans-6f" transform="translate(86.279297 0)"/>
     <use xlink:href="#DejaVuSans-64" transform="translate(147.460938 0)"/>
     <use xlink:href="#DejaVuSans-65" transform="translate(210.9375 0)"/>
     <use xlink:href="#DejaVuSans-6c" transform="translate(272.460938 0)"/>
     <use xlink:href="#DejaVuSans-20" transform="translate(300.244141 0)"/>
     <use xlink:href="#DejaVuSans-50" transform="translate(332.03125 0)"/>
     <use xlink:href="#DejaVuSans-72" transform="translate(390.583984 0)"/>
     <use xlink:href="#DejaVuSans-65" transform="translate(429.447266 0)"/>
     <use xlink:href="#DejaVuSans-64" transform="translate(490.970703 0)"/>
     <use xlink:href="#DejaVuSans-69" transform="translate(554.447266 0)"/>
     <use xlink:href="#DejaVuSans-63" transform="translate(582.230469 0)"/>
     <use xlink:href="#DejaVuSans-74" transform="translate(637.210938 0)"/>
     <use xlink:href="#DejaVuSans-65" transform="translate(676.419922 0)"/>
     <use xlink:href="#DejaVuSans-64" transform="translate(737.943359 0)"/>
     <use xlink:href="#DejaVuSans-20" transform="translate(801.419922 0)"/>
     <use xlink:href="#DejaVuSans-76" transform="translate(833.207031 0)"/>
     <use xlink:href="#DejaVuSans-73" transform="translate(892.386719 0)"/>
     <use xlink:href="#DejaVuSans-2e" transform="translate(944.486328 0)"/>
     <use xlink:href="#DejaVuSans-20" transform="translate(976.273438 0)"/>
     <use xlink:href="#DejaVuSans-41" transform="translate(1008.060547 0)"/>
     <use xlink:href="#DejaVuSans-63" transform="translate(1074.71875 0)"/>
     <use xlink:href="#DejaVuSans-74" transform="translate(1129.699219 0)"/>
     <use xlink:href="#DejaVuSans-75" transform="translate(1168.908203 0)"/>
     <use xlink:href="#DejaVuSans-61" transform="translate(1232.287109 0)"/>
     <use xlink:href="#DejaVuSans-6c" transform="translate(1293.566406 0)"/>
     <use xlink:href="#DejaVuSans-20" transform="translate(1321.349609 0)"/>
     <use xlink:href="#DejaVuSans-2d" transform="translate(1353.136719 0)"/>
     <use xlink:href="#DejaVuSans-20" transform="translate(1389.220703 0)"/>
     <use xlink:href="#DejaVuSans-46" transform="translate(1421.007812 0)"/>
     <use xlink:href="#DejaVuSans-75" transform="translate(1473.027344 0)"/>
     <use xlink:href="#DejaVuSans-6c" transform="translate(1536.40625 0)"/>
     <use xlink:href="#DejaVuSans-6c" transform="translate(1564.189453 0)"/>
     <use xlink:href="#DejaVuSans-20" transform="translate(1591.972656 0)"/>
     <use xlink:href="#DejaVuSans-45" transform="translate(1623.759766 0)"/>
     <use xlink:href="#DejaVuSans-6e" transform="translate(1686.943359 0)"/>
     <use xlink:href="#DejaVuSans-73" transform="translate(1750.322266 0)"/>
     <use xlink:href="#DejaVuSans-65" transform="translate(1802.421875 0)"/>
     <use xlink:href="#DejaVuSans-6d" transform="translate(1863.945312 0)"/>
     <use xlink:href="#DejaVuSans-62" transform="translate(1961.357422 0)"/>
     <use xlink:href="#DejaVuSans-6c" transform="translate(2024.833984 0)"/>
     <use xlink:href="#DejaVuSans-65" transform="translate(2052.617188 0)"/>
     <use xlink:href="#DejaVuSans-20" transform="translate(2114.140625 0)"/>
     <use xlink:href="#DejaVuSans-20" transform="translate(2145.927734 0)"/>
     <use xlink:href="#DejaVuSans-4e" transform="translate(2177.714844 0)"/>
     <use xlink:href="#DejaVuSans-3d" transform="translate(2252.519531 0)"/>
     <use xlink:href="#DejaVuSans-31" transform="translate(2336.308594 0)"/>
     <use xlink:href="#DejaVuSans-30" transform="translate(2399.931641 0)"/>
     <use xlink:href="#DejaVuSans-39" transform="translate(2463.554688 0)"/>
    </g>
   </g>
  </g>
 </g>
 <defs>
  <clipPath id="p2187fdecd4">
   <rect x="46.878" y="27.168" width="518.754" height="359.844"/>
  </clipPath>
 </defs>
</svg>
