<?xml version="1.0" encoding="utf-8" standalone="no"?>
<!DOCTYPE svg PUBLIC "-//W3C//DTD SVG 1.1//EN"
  "http://www.w3.org/Graphics/SVG/1.1/DTD/svg11.dtd">
<svg xmlns:xlink="http://www.w3.org/1999/xlink" width="576pt" height="432pt" viewBox="0 0 576 432" xmlns="http://www.w3.org/2000/svg" version="1.1">
 <metadata>
  <rdf:RDF xmlns:dc="http://purl.org/dc/elements/1.1/" xmlns:cc="http://creativecommons.org/ns#" xmlns:rdf="http://www.w3.org/1999/02/22-rdf-syntax-ns#">
   <cc:Work>
    <dc:type rdf:resource="http://purl.org/dc/dcmitype/StillImage"/>
    <dc:date>2025-10-17T17:28:10.724141</dc:date>
    <dc:format>image/svg+xml</dc:format>
    <dc:creator>
     <cc:Agent>
      <dc:title>Matplotlib v3.10.0, https://matplotlib.org/</dc:title>
     </cc:Agent>
    </dc:creator>
   </cc:Work>
  </rdf:RDF>
 </metadata>
 <defs>
  <style type="text/css">*{stroke-linejoin: round; stroke-linecap: butt}</style>
 </defs>
 <g id="figure_1">
  <g id="patch_1">
   <path d="M 0 432 
L 576 432 
L 576 0 
L 0 0 
z
" style="fill: #ffffff"/>
  </g>
  <g id="axes_1">
   <g id="patch_2">
    <path d="M 46.878 387.012 
L 565.632 387.012 
L 565.632 27.168 
L 46.878 27.168 
z
" style="fill: #ffffff"/>
   </g>
   <g id="matplotlib.axis_1">
    <g id="xtick_1">
     <g id="line2d_1">
      <defs>
       <path id="me4a1114a9f" d="M 0 0 
L 0 4.8 
" style="stroke: #262626"/>
      </defs>
      <g>
       <use xlink:href="#me4a1114a9f" x="70.457726" y="387.012" style="fill: #262626; stroke: #262626"/>
      </g>
     </g>
     <g id="text_1">
      <!-- 18 -->
      <g style="fill: #262626" transform="translate(64.858726 401.998625) scale(0.088 -0.088)">
       <defs>
        <path id="DejaVuSans-31" d="M 794 531 
L 1825 531 
L 1825 4091 
L 703 3866 
L 703 4441 
L 1819 4666 
L 2450 4666 
L 2450 531 
L 3481 531 
L 3481 0 
L 794 0 
L 794 531 
z
" transform="scale(0.015625)"/>
        <path id="DejaVuSans-38" d="M 2034 2216 
Q 1584 2216 1326 1975 
Q 1069 1734 1069 1313 
Q 1069 891 1326 650 
Q 1584 409 2034 409 
Q 2484 409 2743 651 
Q 3003 894 3003 1313 
Q 3003 1734 2745 1975 
Q 2488 2216 2034 2216 
z
M 1403 2484 
Q 997 2584 770 2862 
Q 544 3141 544 3541 
Q 544 4100 942 4425 
Q 1341 4750 2034 4750 
Q 2731 4750 3128 4425 
Q 3525 4100 3525 3541 
Q 3525 3141 3298 2862 
Q 3072 2584 2669 2484 
Q 3125 2378 3379 2068 
Q 3634 1759 3634 1313 
Q 3634 634 3220 271 
Q 2806 -91 2034 -91 
Q 1263 -91 848 271 
Q 434 634 434 1313 
Q 434 1759 690 2068 
Q 947 2378 1403 2484 
z
M 1172 3481 
Q 1172 3119 1398 2916 
Q 1625 2713 2034 2713 
Q 2441 2713 2670 2916 
Q 2900 3119 2900 3481 
Q 2900 3844 2670 4047 
Q 2441 4250 2034 4250 
Q 1625 4250 1398 4047 
Q 1172 3844 1172 3481 
z
" transform="scale(0.015625)"/>
       </defs>
       <use xlink:href="#DejaVuSans-31"/>
       <use xlink:href="#DejaVuSans-38" transform="translate(63.623047 0)"/>
      </g>
     </g>
    </g>
    <g id="xtick_2">
     <g id="line2d_2">
      <g>
       <use xlink:href="#me4a1114a9f" x="149.056817" y="387.012" style="fill: #262626; stroke: #262626"/>
      </g>
     </g>
     <g id="text_2">
      <!-- 20 -->
      <g style="fill: #262626" transform="translate(143.457817 401.998625) scale(0.088 -0.088)">
       <defs>
        <path id="DejaVuSans-32" d="M 1228 531 
L 3431 531 
L 3431 0 
L 469 0 
L 469 531 
Q 828 903 1448 1529 
Q 2069 2156 2228 2338 
Q 2531 2678 2651 2914 
Q 2772 3150 2772 3378 
Q 2772 3750 2511 3984 
Q 2250 4219 1831 4219 
Q 1534 4219 1204 4116 
Q 875 4013 500 3803 
L 500 4441 
Q 881 4594 1212 4672 
Q 1544 4750 1819 4750 
Q 2544 4750 2975 4387 
Q 3406 4025 3406 3419 
Q 3406 3131 3298 2873 
Q 3191 2616 2906 2266 
Q 2828 2175 2409 1742 
Q 1991 1309 1228 531 
z
" transform="scale(0.015625)"/>
        <path id="DejaVuSans-30" d="M 2034 4250 
Q 1547 4250 1301 3770 
Q 1056 3291 1056 2328 
Q 1056 1369 1301 889 
Q 1547 409 2034 409 
Q 2525 409 2770 889 
Q 3016 1369 3016 2328 
Q 3016 3291 2770 3770 
Q 2525 4250 2034 4250 
z
M 2034 4750 
Q 2819 4750 3233 4129 
Q 3647 3509 3647 2328 
Q 3647 1150 3233 529 
Q 2819 -91 2034 -91 
Q 1250 -91 836 529 
Q 422 1150 422 2328 
Q 422 3509 836 4129 
Q 1250 4750 2034 4750 
z
" transform="scale(0.015625)"/>
       </defs>
       <use xlink:href="#DejaVuSans-32"/>
       <use xlink:href="#DejaVuSans-30" transform="translate(63.623047 0)"/>
      </g>
     </g>
    </g>
    <g id="xtick_3">
     <g id="line2d_3">
      <g>
       <use xlink:href="#me4a1114a9f" x="227.655909" y="387.012" style="fill: #262626; stroke: #262626"/>
      </g>
     </g>
     <g id="text_3">
      <!-- 22 -->
      <g style="fill: #262626" transform="translate(222.056909 401.998625) scale(0.088 -0.088)">
       <use xlink:href="#DejaVuSans-32"/>
       <use xlink:href="#DejaVuSans-32" transform="translate(63.623047 0)"/>
      </g>
     </g>
    </g>
    <g id="xtick_4">
     <g id="line2d_4">
      <g>
       <use xlink:href="#me4a1114a9f" x="306.255" y="387.012" style="fill: #262626; stroke: #262626"/>
      </g>
     </g>
     <g id="text_4">
      <!-- 24 -->
      <g style="fill: #262626" transform="translate(300.656 401.998625) scale(0.088 -0.088)">
       <defs>
        <path id="DejaVuSans-34" d="M 2419 4116 
L 825 1625 
L 2419 1625 
L 2419 4116 
z
M 2253 4666 
L 3047 4666 
L 3047 1625 
L 3713 1625 
L 3713 1100 
L 3047 1100 
L 3047 0 
L 2419 0 
L 2419 1100 
L 313 1100 
L 313 1709 
L 2253 4666 
z
" transform="scale(0.015625)"/>
       </defs>
       <use xlink:href="#DejaVuSans-32"/>
       <use xlink:href="#DejaVuSans-34" transform="translate(63.623047 0)"/>
      </g>
     </g>
    </g>
    <g id="xtick_5">
     <g id="line2d_5">
      <g>
       <use xlink:href="#me4a1114a9f" x="384.854091" y="387.012" style="fill: #262626; stroke: #262626"/>
      </g>
     </g>
     <g id="text_5">
      <!-- 26 -->
      <g style="fill: #262626" transform="translate(379.255091 401.998625) scale(0.088 -0.088)">
       <defs>
        <path id="DejaVuSans-36" d="M 2113 2584 
Q 1688 2584 1439 2293 
Q 1191 2003 1191 1497 
Q 1191 994 1439 701 
Q 1688 409 2113 409 
Q 2538 409 2786 701 
Q 3034 994 3034 1497 
Q 3034 2003 2786 2293 
Q 2538 2584 2113 2584 
z
M 3366 4563 
L 3366 3988 
Q 3128 4100 2886 4159 
Q 2644 4219 2406 4219 
Q 1781 4219 1451 3797 
Q 1122 3375 1075 2522 
Q 1259 2794 1537 2939 
Q 1816 3084 2150 3084 
Q 2853 3084 3261 2657 
Q 3669 2231 3669 1497 
Q 3669 778 3244 343 
Q 2819 -91 2113 -91 
Q 1303 -91 875 529 
Q 447 1150 447 2328 
Q 447 3434 972 4092 
Q 1497 4750 2381 4750 
Q 2619 4750 2861 4703 
Q 3103 4656 3366 4563 
z
" transform="scale(0.015625)"/>
       </defs>
       <use xlink:href="#DejaVuSans-32"/>
       <use xlink:href="#DejaVuSans-36" transform="translate(63.623047 0)"/>
      </g>
     </g>
    </g>
    <g id="xtick_6">
     <g id="line2d_6">
      <g>
       <use xlink:href="#me4a1114a9f" x="463.453182" y="387.012" style="fill: #262626; stroke: #262626"/>
      </g>
     </g>
     <g id="text_6">
      <!-- 28 -->
      <g style="fill: #262626" transform="translate(457.854182 401.998625) scale(0.088 -0.088)">
       <use xlink:href="#DejaVuSans-32"/>
       <use xlink:href="#DejaVuSans-38" transform="translate(63.623047 0)"/>
      </g>
     </g>
    </g>
    <g id="xtick_7">
     <g id="line2d_7">
      <g>
       <use xlink:href="#me4a1114a9f" x="542.052273" y="387.012" style="fill: #262626; stroke: #262626"/>
      </g>
     </g>
     <g id="text_7">
      <!-- 30 -->
      <g style="fill: #262626" transform="translate(536.453273 401.998625) scale(0.088 -0.088)">
       <defs>
        <path id="DejaVuSans-33" d="M 2597 2516 
Q 3050 2419 3304 2112 
Q 3559 1806 3559 1356 
Q 3559 666 3084 287 
Q 2609 -91 1734 -91 
Q 1441 -91 1130 -33 
Q 819 25 488 141 
L 488 750 
Q 750 597 1062 519 
Q 1375 441 1716 441 
Q 2309 441 2620 675 
Q 2931 909 2931 1356 
Q 2931 1769 2642 2001 
Q 2353 2234 1838 2234 
L 1294 2234 
L 1294 2753 
L 1863 2753 
Q 2328 2753 2575 2939 
Q 2822 3125 2822 3475 
Q 2822 3834 2567 4026 
Q 2313 4219 1838 4219 
Q 1578 4219 1281 4162 
Q 984 4106 628 3988 
L 628 4550 
Q 988 4650 1302 4700 
Q 1616 4750 1894 4750 
Q 2613 4750 3031 4423 
Q 3450 4097 3450 3541 
Q 3450 3153 3228 2886 
Q 3006 2619 2597 2516 
z
" transform="scale(0.015625)"/>
       </defs>
       <use xlink:href="#DejaVuSans-33"/>
       <use xlink:href="#DejaVuSans-30" transform="translate(63.623047 0)"/>
      </g>
     </g>
    </g>
    <g id="xtick_8">
     <g id="line2d_8">
      <defs>
       <path id="m84b9dabdfe" d="M 0 0 
L 0 4 
" style="stroke: #d3d3d3; stroke-width: 0.8"/>
      </defs>
      <g>
       <use xlink:href="#m84b9dabdfe" x="109.757272" y="387.012" style="fill: #d3d3d3; stroke: #d3d3d3; stroke-width: 0.8"/>
      </g>
     </g>
    </g>
    <g id="xtick_9">
     <g id="line2d_9">
      <g>
       <use xlink:href="#m84b9dabdfe" x="188.356363" y="387.012" style="fill: #d3d3d3; stroke: #d3d3d3; stroke-width: 0.8"/>
      </g>
     </g>
    </g>
    <g id="xtick_10">
     <g id="line2d_10">
      <g>
       <use xlink:href="#m84b9dabdfe" x="266.955454" y="387.012" style="fill: #d3d3d3; stroke: #d3d3d3; stroke-width: 0.8"/>
      </g>
     </g>
    </g>
    <g id="xtick_11">
     <g id="line2d_11">
      <g>
       <use xlink:href="#m84b9dabdfe" x="345.554545" y="387.012" style="fill: #d3d3d3; stroke: #d3d3d3; stroke-width: 0.8"/>
      </g>
     </g>
    </g>
    <g id="xtick_12">
     <g id="line2d_12">
      <g>
       <use xlink:href="#m84b9dabdfe" x="424.153636" y="387.012" style="fill: #d3d3d3; stroke: #d3d3d3; stroke-width: 0.8"/>
      </g>
     </g>
    </g>
    <g id="xtick_13">
     <g id="line2d_13">
      <g>
       <use xlink:href="#m84b9dabdfe" x="502.752728" y="387.012" style="fill: #d3d3d3; stroke: #d3d3d3; stroke-width: 0.8"/>
      </g>
     </g>
    </g>
    <g id="text_8">
     <!-- Actual MoCA Sum Post -->
     <g style="fill: #262626" transform="translate(238.59 416.946875) scale(0.12 -0.12)">
      <defs>
       <path id="DejaVuSans-41" d="M 2188 4044 
L 1331 1722 
L 3047 1722 
L 2188 4044 
z
M 1831 4666 
L 2547 4666 
L 4325 0 
L 3669 0 
L 3244 1197 
L 1141 1197 
L 716 0 
L 50 0 
L 1831 4666 
z
" transform="scale(0.015625)"/>
       <path id="DejaVuSans-63" d="M 3122 3366 
L 3122 2828 
Q 2878 2963 2633 3030 
Q 2388 3097 2138 3097 
Q 1578 3097 1268 2742 
Q 959 2388 959 1747 
Q 959 1106 1268 751 
Q 1578 397 2138 397 
Q 2388 397 2633 464 
Q 2878 531 3122 666 
L 3122 134 
Q 2881 22 2623 -34 
Q 2366 -91 2075 -91 
Q 1284 -91 818 406 
Q 353 903 353 1747 
Q 353 2603 823 3093 
Q 1294 3584 2113 3584 
Q 2378 3584 2631 3529 
Q 2884 3475 3122 3366 
z
" transform="scale(0.015625)"/>
       <path id="DejaVuSans-74" d="M 1172 4494 
L 1172 3500 
L 2356 3500 
L 2356 3053 
L 1172 3053 
L 1172 1153 
Q 1172 725 1289 603 
Q 1406 481 1766 481 
L 2356 481 
L 2356 0 
L 1766 0 
Q 1100 0 847 248 
Q 594 497 594 1153 
L 594 3053 
L 172 3053 
L 172 3500 
L 594 3500 
L 594 4494 
L 1172 4494 
z
" transform="scale(0.015625)"/>
       <path id="DejaVuSans-75" d="M 544 1381 
L 544 3500 
L 1119 3500 
L 1119 1403 
Q 1119 906 1312 657 
Q 1506 409 1894 409 
Q 2359 409 2629 706 
Q 2900 1003 2900 1516 
L 2900 3500 
L 3475 3500 
L 3475 0 
L 2900 0 
L 2900 538 
Q 2691 219 2414 64 
Q 2138 -91 1772 -91 
Q 1169 -91 856 284 
Q 544 659 544 1381 
z
M 1991 3584 
L 1991 3584 
z
" transform="scale(0.015625)"/>
       <path id="DejaVuSans-61" d="M 2194 1759 
Q 1497 1759 1228 1600 
Q 959 1441 959 1056 
Q 959 750 1161 570 
Q 1363 391 1709 391 
Q 2188 391 2477 730 
Q 2766 1069 2766 1631 
L 2766 1759 
L 2194 1759 
z
M 3341 1997 
L 3341 0 
L 2766 0 
L 2766 531 
Q 2569 213 2275 61 
Q 1981 -91 1556 -91 
Q 1019 -91 701 211 
Q 384 513 384 1019 
Q 384 1609 779 1909 
Q 1175 2209 1959 2209 
L 2766 2209 
L 2766 2266 
Q 2766 2663 2505 2880 
Q 2244 3097 1772 3097 
Q 1472 3097 1187 3025 
Q 903 2953 641 2809 
L 641 3341 
Q 956 3463 1253 3523 
Q 1550 3584 1831 3584 
Q 2591 3584 2966 3190 
Q 3341 2797 3341 1997 
z
" transform="scale(0.015625)"/>
       <path id="DejaVuSans-6c" d="M 603 4863 
L 1178 4863 
L 1178 0 
L 603 0 
L 603 4863 
z
" transform="scale(0.015625)"/>
       <path id="DejaVuSans-20" transform="scale(0.015625)"/>
       <path id="DejaVuSans-4d" d="M 628 4666 
L 1569 4666 
L 2759 1491 
L 3956 4666 
L 4897 4666 
L 4897 0 
L 4281 0 
L 4281 4097 
L 3078 897 
L 2444 897 
L 1241 4097 
L 1241 0 
L 628 0 
L 628 4666 
z
" transform="scale(0.015625)"/>
       <path id="DejaVuSans-6f" d="M 1959 3097 
Q 1497 3097 1228 2736 
Q 959 2375 959 1747 
Q 959 1119 1226 758 
Q 1494 397 1959 397 
Q 2419 397 2687 759 
Q 2956 1122 2956 1747 
Q 2956 2369 2687 2733 
Q 2419 3097 1959 3097 
z
M 1959 3584 
Q 2709 3584 3137 3096 
Q 3566 2609 3566 1747 
Q 3566 888 3137 398 
Q 2709 -91 1959 -91 
Q 1206 -91 779 398 
Q 353 888 353 1747 
Q 353 2609 779 3096 
Q 1206 3584 1959 3584 
z
" transform="scale(0.015625)"/>
       <path id="DejaVuSans-43" d="M 4122 4306 
L 4122 3641 
Q 3803 3938 3442 4084 
Q 3081 4231 2675 4231 
Q 1875 4231 1450 3742 
Q 1025 3253 1025 2328 
Q 1025 1406 1450 917 
Q 1875 428 2675 428 
Q 3081 428 3442 575 
Q 3803 722 4122 1019 
L 4122 359 
Q 3791 134 3420 21 
Q 3050 -91 2638 -91 
Q 1578 -91 968 557 
Q 359 1206 359 2328 
Q 359 3453 968 4101 
Q 1578 4750 2638 4750 
Q 3056 4750 3426 4639 
Q 3797 4528 4122 4306 
z
" transform="scale(0.015625)"/>
       <path id="DejaVuSans-53" d="M 3425 4513 
L 3425 3897 
Q 3066 4069 2747 4153 
Q 2428 4238 2131 4238 
Q 1616 4238 1336 4038 
Q 1056 3838 1056 3469 
Q 1056 3159 1242 3001 
Q 1428 2844 1947 2747 
L 2328 2669 
Q 3034 2534 3370 2195 
Q 3706 1856 3706 1288 
Q 3706 609 3251 259 
Q 2797 -91 1919 -91 
Q 1588 -91 1214 -16 
Q 841 59 441 206 
L 441 856 
Q 825 641 1194 531 
Q 1563 422 1919 422 
Q 2459 422 2753 634 
Q 3047 847 3047 1241 
Q 3047 1584 2836 1778 
Q 2625 1972 2144 2069 
L 1759 2144 
Q 1053 2284 737 2584 
Q 422 2884 422 3419 
Q 422 4038 858 4394 
Q 1294 4750 2059 4750 
Q 2388 4750 2728 4690 
Q 3069 4631 3425 4513 
z
" transform="scale(0.015625)"/>
       <path id="DejaVuSans-6d" d="M 3328 2828 
Q 3544 3216 3844 3400 
Q 4144 3584 4550 3584 
Q 5097 3584 5394 3201 
Q 5691 2819 5691 2113 
L 5691 0 
L 5113 0 
L 5113 2094 
Q 5113 2597 4934 2840 
Q 4756 3084 4391 3084 
Q 3944 3084 3684 2787 
Q 3425 2491 3425 1978 
L 3425 0 
L 2847 0 
L 2847 2094 
Q 2847 2600 2669 2842 
Q 2491 3084 2119 3084 
Q 1678 3084 1418 2786 
Q 1159 2488 1159 1978 
L 1159 0 
L 581 0 
L 581 3500 
L 1159 3500 
L 1159 2956 
Q 1356 3278 1631 3431 
Q 1906 3584 2284 3584 
Q 2666 3584 2933 3390 
Q 3200 3197 3328 2828 
z
" transform="scale(0.015625)"/>
       <path id="DejaVuSans-50" d="M 1259 4147 
L 1259 2394 
L 2053 2394 
Q 2494 2394 2734 2622 
Q 2975 2850 2975 3272 
Q 2975 3691 2734 3919 
Q 2494 4147 2053 4147 
L 1259 4147 
z
M 628 4666 
L 2053 4666 
Q 2838 4666 3239 4311 
Q 3641 3956 3641 3272 
Q 3641 2581 3239 2228 
Q 2838 1875 2053 1875 
L 1259 1875 
L 1259 0 
L 628 0 
L 628 4666 
z
" transform="scale(0.015625)"/>
       <path id="DejaVuSans-73" d="M 2834 3397 
L 2834 2853 
Q 2591 2978 2328 3040 
Q 2066 3103 1784 3103 
Q 1356 3103 1142 2972 
Q 928 2841 928 2578 
Q 928 2378 1081 2264 
Q 1234 2150 1697 2047 
L 1894 2003 
Q 2506 1872 2764 1633 
Q 3022 1394 3022 966 
Q 3022 478 2636 193 
Q 2250 -91 1575 -91 
Q 1294 -91 989 -36 
Q 684 19 347 128 
L 347 722 
Q 666 556 975 473 
Q 1284 391 1588 391 
Q 1994 391 2212 530 
Q 2431 669 2431 922 
Q 2431 1156 2273 1281 
Q 2116 1406 1581 1522 
L 1381 1569 
Q 847 1681 609 1914 
Q 372 2147 372 2553 
Q 372 3047 722 3315 
Q 1072 3584 1716 3584 
Q 2034 3584 2315 3537 
Q 2597 3491 2834 3397 
z
" transform="scale(0.015625)"/>
      </defs>
      <use xlink:href="#DejaVuSans-41"/>
      <use xlink:href="#DejaVuSans-63" transform="translate(66.658203 0)"/>
      <use xlink:href="#DejaVuSans-74" transform="translate(121.638672 0)"/>
      <use xlink:href="#DejaVuSans-75" transform="translate(160.847656 0)"/>
      <use xlink:href="#DejaVuSans-61" transform="translate(224.226562 0)"/>
      <use xlink:href="#DejaVuSans-6c" transform="translate(285.505859 0)"/>
      <use xlink:href="#DejaVuSans-20" transform="translate(313.289062 0)"/>
      <use xlink:href="#DejaVuSans-4d" transform="translate(345.076172 0)"/>
      <use xlink:href="#DejaVuSans-6f" transform="translate(431.355469 0)"/>
      <use xlink:href="#DejaVuSans-43" transform="translate(492.537109 0)"/>
      <use xlink:href="#DejaVuSans-41" transform="translate(562.361328 0)"/>
      <use xlink:href="#DejaVuSans-20" transform="translate(630.769531 0)"/>
      <use xlink:href="#DejaVuSans-53" transform="translate(662.556641 0)"/>
      <use xlink:href="#DejaVuSans-75" transform="translate(726.033203 0)"/>
      <use xlink:href="#DejaVuSans-6d" transform="translate(789.412109 0)"/>
      <use xlink:href="#DejaVuSans-20" transform="translate(886.824219 0)"/>
      <use xlink:href="#DejaVuSans-50" transform="translate(918.611328 0)"/>
      <use xlink:href="#DejaVuSans-6f" transform="translate(975.289062 0)"/>
      <use xlink:href="#DejaVuSans-73" transform="translate(1036.470703 0)"/>
      <use xlink:href="#DejaVuSans-74" transform="translate(1088.570312 0)"/>
     </g>
    </g>
   </g>
   <g id="matplotlib.axis_2">
    <g id="ytick_1">
     <g id="line2d_14">
      <defs>
       <path id="m312580b81c" d="M 0 0 
L -4.8 0 
" style="stroke: #262626"/>
      </defs>
      <g>
       <use xlink:href="#m312580b81c" x="46.878" y="370.655455" style="fill: #262626; stroke: #262626"/>
      </g>
     </g>
     <g id="text_9">
      <!-- 18 -->
      <g style="fill: #262626" transform="translate(27.38 373.998768) scale(0.088 -0.088)">
       <use xlink:href="#DejaVuSans-31"/>
       <use xlink:href="#DejaVuSans-38" transform="translate(63.623047 0)"/>
      </g>
     </g>
    </g>
    <g id="ytick_2">
     <g id="line2d_15">
      <g>
       <use xlink:href="#m312580b81c" x="46.878" y="316.133637" style="fill: #262626; stroke: #262626"/>
      </g>
     </g>
     <g id="text_10">
      <!-- 20 -->
      <g style="fill: #262626" transform="translate(27.38 319.476949) scale(0.088 -0.088)">
       <use xlink:href="#DejaVuSans-32"/>
       <use xlink:href="#DejaVuSans-30" transform="translate(63.623047 0)"/>
      </g>
     </g>
    </g>
    <g id="ytick_3">
     <g id="line2d_16">
      <g>
       <use xlink:href="#m312580b81c" x="46.878" y="261.611819" style="fill: #262626; stroke: #262626"/>
      </g>
     </g>
     <g id="text_11">
      <!-- 22 -->
      <g style="fill: #262626" transform="translate(27.38 264.955131) scale(0.088 -0.088)">
       <use xlink:href="#DejaVuSans-32"/>
       <use xlink:href="#DejaVuSans-32" transform="translate(63.623047 0)"/>
      </g>
     </g>
    </g>
    <g id="ytick_4">
     <g id="line2d_17">
      <g>
       <use xlink:href="#m312580b81c" x="46.878" y="207.09" style="fill: #262626; stroke: #262626"/>
      </g>
     </g>
     <g id="text_12">
      <!-- 24 -->
      <g style="fill: #262626" transform="translate(27.38 210.433313) scale(0.088 -0.088)">
       <use xlink:href="#DejaVuSans-32"/>
       <use xlink:href="#DejaVuSans-34" transform="translate(63.623047 0)"/>
      </g>
     </g>
    </g>
    <g id="ytick_5">
     <g id="line2d_18">
      <g>
       <use xlink:href="#m312580b81c" x="46.878" y="152.568182" style="fill: #262626; stroke: #262626"/>
      </g>
     </g>
     <g id="text_13">
      <!-- 26 -->
      <g style="fill: #262626" transform="translate(27.38 155.911494) scale(0.088 -0.088)">
       <use xlink:href="#DejaVuSans-32"/>
       <use xlink:href="#DejaVuSans-36" transform="translate(63.623047 0)"/>
      </g>
     </g>
    </g>
    <g id="ytick_6">
     <g id="line2d_19">
      <g>
       <use xlink:href="#m312580b81c" x="46.878" y="98.046363" style="fill: #262626; stroke: #262626"/>
      </g>
     </g>
     <g id="text_14">
      <!-- 28 -->
      <g style="fill: #262626" transform="translate(27.38 101.389676) scale(0.088 -0.088)">
       <use xlink:href="#DejaVuSans-32"/>
       <use xlink:href="#DejaVuSans-38" transform="translate(63.623047 0)"/>
      </g>
     </g>
    </g>
    <g id="ytick_7">
     <g id="line2d_20">
      <g>
       <use xlink:href="#m312580b81c" x="46.878" y="43.524545" style="fill: #262626; stroke: #262626"/>
      </g>
     </g>
     <g id="text_15">
      <!-- 30 -->
      <g style="fill: #262626" transform="translate(27.38 46.867858) scale(0.088 -0.088)">
       <use xlink:href="#DejaVuSans-33"/>
       <use xlink:href="#DejaVuSans-30" transform="translate(63.623047 0)"/>
      </g>
     </g>
    </g>
    <g id="ytick_8">
     <g id="line2d_21">
      <defs>
       <path id="m6b1e595a05" d="M 0 0 
L -4 0 
" style="stroke: #d3d3d3; stroke-width: 0.8"/>
      </defs>
      <g>
       <use xlink:href="#m6b1e595a05" x="46.878" y="343.394546" style="fill: #d3d3d3; stroke: #d3d3d3; stroke-width: 0.8"/>
      </g>
     </g>
    </g>
    <g id="ytick_9">
     <g id="line2d_22">
      <g>
       <use xlink:href="#m6b1e595a05" x="46.878" y="288.872728" style="fill: #d3d3d3; stroke: #d3d3d3; stroke-width: 0.8"/>
      </g>
     </g>
    </g>
    <g id="ytick_10">
     <g id="line2d_23">
      <g>
       <use xlink:href="#m6b1e595a05" x="46.878" y="234.350909" style="fill: #d3d3d3; stroke: #d3d3d3; stroke-width: 0.8"/>
      </g>
     </g>
    </g>
    <g id="ytick_11">
     <g id="line2d_24">
      <g>
       <use xlink:href="#m6b1e595a05" x="46.878" y="179.829091" style="fill: #d3d3d3; stroke: #d3d3d3; stroke-width: 0.8"/>
      </g>
     </g>
    </g>
    <g id="ytick_12">
     <g id="line2d_25">
      <g>
       <use xlink:href="#m6b1e595a05" x="46.878" y="125.307273" style="fill: #d3d3d3; stroke: #d3d3d3; stroke-width: 0.8"/>
      </g>
     </g>
    </g>
    <g id="ytick_13">
     <g id="line2d_26">
      <g>
       <use xlink:href="#m6b1e595a05" x="46.878" y="70.785454" style="fill: #d3d3d3; stroke: #d3d3d3; stroke-width: 0.8"/>
      </g>
     </g>
    </g>
    <g id="text_16">
     <!-- Predicted MoCA Sum Post -->
     <g style="fill: #262626" transform="translate(20.884375 284.1225) rotate(-90) scale(0.12 -0.12)">
      <defs>
       <path id="DejaVuSans-72" d="M 2631 2963 
Q 2534 3019 2420 3045 
Q 2306 3072 2169 3072 
Q 1681 3072 1420 2755 
Q 1159 2438 1159 1844 
L 1159 0 
L 581 0 
L 581 3500 
L 1159 3500 
L 1159 2956 
Q 1341 3275 1631 3429 
Q 1922 3584 2338 3584 
Q 2397 3584 2469 3576 
Q 2541 3569 2628 3553 
L 2631 2963 
z
" transform="scale(0.015625)"/>
       <path id="DejaVuSans-65" d="M 3597 1894 
L 3597 1613 
L 953 1613 
Q 991 1019 1311 708 
Q 1631 397 2203 397 
Q 2534 397 2845 478 
Q 3156 559 3463 722 
L 3463 178 
Q 3153 47 2828 -22 
Q 2503 -91 2169 -91 
Q 1331 -91 842 396 
Q 353 884 353 1716 
Q 353 2575 817 3079 
Q 1281 3584 2069 3584 
Q 2775 3584 3186 3129 
Q 3597 2675 3597 1894 
z
M 3022 2063 
Q 3016 2534 2758 2815 
Q 2500 3097 2075 3097 
Q 1594 3097 1305 2825 
Q 1016 2553 972 2059 
L 3022 2063 
z
" transform="scale(0.015625)"/>
       <path id="DejaVuSans-64" d="M 2906 2969 
L 2906 4863 
L 3481 4863 
L 3481 0 
L 2906 0 
L 2906 525 
Q 2725 213 2448 61 
Q 2172 -91 1784 -91 
Q 1150 -91 751 415 
Q 353 922 353 1747 
Q 353 2572 751 3078 
Q 1150 3584 1784 3584 
Q 2172 3584 2448 3432 
Q 2725 3281 2906 2969 
z
M 947 1747 
Q 947 1113 1208 752 
Q 1469 391 1925 391 
Q 2381 391 2643 752 
Q 2906 1113 2906 1747 
Q 2906 2381 2643 2742 
Q 2381 3103 1925 3103 
Q 1469 3103 1208 2742 
Q 947 2381 947 1747 
z
" transform="scale(0.015625)"/>
       <path id="DejaVuSans-69" d="M 603 3500 
L 1178 3500 
L 1178 0 
L 603 0 
L 603 3500 
z
M 603 4863 
L 1178 4863 
L 1178 4134 
L 603 4134 
L 603 4863 
z
" transform="scale(0.015625)"/>
      </defs>
      <use xlink:href="#DejaVuSans-50"/>
      <use xlink:href="#DejaVuSans-72" transform="translate(58.552734 0)"/>
      <use xlink:href="#DejaVuSans-65" transform="translate(97.416016 0)"/>
      <use xlink:href="#DejaVuSans-64" transform="translate(158.939453 0)"/>
      <use xlink:href="#DejaVuSans-69" transform="translate(222.416016 0)"/>
      <use xlink:href="#DejaVuSans-63" transform="translate(250.199219 0)"/>
      <use xlink:href="#DejaVuSans-74" transform="translate(305.179688 0)"/>
      <use xlink:href="#DejaVuSans-65" transform="translate(344.388672 0)"/>
      <use xlink:href="#DejaVuSans-64" transform="translate(405.912109 0)"/>
      <use xlink:href="#DejaVuSans-20" transform="translate(469.388672 0)"/>
      <use xlink:href="#DejaVuSans-4d" transform="translate(501.175781 0)"/>
      <use xlink:href="#DejaVuSans-6f" transform="translate(587.455078 0)"/>
      <use xlink:href="#DejaVuSans-43" transform="translate(648.636719 0)"/>
      <use xlink:href="#DejaVuSans-41" transform="translate(718.460938 0)"/>
      <use xlink:href="#DejaVuSans-20" transform="translate(786.869141 0)"/>
      <use xlink:href="#DejaVuSans-53" transform="translate(818.65625 0)"/>
      <use xlink:href="#DejaVuSans-75" transform="translate(882.132812 0)"/>
      <use xlink:href="#DejaVuSans-6d" transform="translate(945.511719 0)"/>
      <use xlink:href="#DejaVuSans-20" transform="translate(1042.923828 0)"/>
      <use xlink:href="#DejaVuSans-50" transform="translate(1074.710938 0)"/>
      <use xlink:href="#DejaVuSans-6f" transform="translate(1131.388672 0)"/>
      <use xlink:href="#DejaVuSans-73" transform="translate(1192.570312 0)"/>
      <use xlink:href="#DejaVuSans-74" transform="translate(1244.669922 0)"/>
     </g>
    </g>
   </g>
   <g id="PathCollection_1">
    <defs>
     <path id="m8267344b73" d="M 0 2.4 
C 0.636487 2.4 1.246992 2.147121 1.697056 1.697056 
C 2.147121 1.246992 2.4 0.636487 2.4 0 
C 2.4 -0.636487 2.147121 -1.246992 1.697056 -1.697056 
C 1.246992 -2.147121 0.636487 -2.4 0 -2.4 
C -0.636487 -2.4 -1.246992 -2.147121 -1.697056 -1.697056 
C -2.147121 -1.246992 -2.4 -0.636487 -2.4 0 
C -2.4 0.636487 -2.147121 1.246992 -1.697056 1.697056 
C -1.246992 2.147121 -0.636487 2.4 0 2.4 
z
" style="stroke: #ffffff; stroke-opacity: 0.7; stroke-width: 0.384"/>
    </defs>
    <g clip-path="url(#p6a1e00ca7b)">
     <use xlink:href="#m8267344b73" x="345.554545" y="156.243843" style="fill: #4c72b0; fill-opacity: 0.7; stroke: #ffffff; stroke-opacity: 0.7; stroke-width: 0.384"/>
     <use xlink:href="#m8267344b73" x="463.453182" y="160.795607" style="fill: #4c72b0; fill-opacity: 0.7; stroke: #ffffff; stroke-opacity: 0.7; stroke-width: 0.384"/>
     <use xlink:href="#m8267344b73" x="306.255" y="200.67974" style="fill: #4c72b0; fill-opacity: 0.7; stroke: #ffffff; stroke-opacity: 0.7; stroke-width: 0.384"/>
     <use xlink:href="#m8267344b73" x="227.655909" y="259.271376" style="fill: #4c72b0; fill-opacity: 0.7; stroke: #ffffff; stroke-opacity: 0.7; stroke-width: 0.384"/>
     <use xlink:href="#m8267344b73" x="542.052273" y="143.380466" style="fill: #4c72b0; fill-opacity: 0.7; stroke: #ffffff; stroke-opacity: 0.7; stroke-width: 0.384"/>
     <use xlink:href="#m8267344b73" x="542.052273" y="142.889034" style="fill: #4c72b0; fill-opacity: 0.7; stroke: #ffffff; stroke-opacity: 0.7; stroke-width: 0.384"/>
     <use xlink:href="#m8267344b73" x="502.752727" y="155.425956" style="fill: #4c72b0; fill-opacity: 0.7; stroke: #ffffff; stroke-opacity: 0.7; stroke-width: 0.384"/>
     <use xlink:href="#m8267344b73" x="149.056818" y="247.810462" style="fill: #4c72b0; fill-opacity: 0.7; stroke: #ffffff; stroke-opacity: 0.7; stroke-width: 0.384"/>
     <use xlink:href="#m8267344b73" x="463.453182" y="160.334371" style="fill: #4c72b0; fill-opacity: 0.7; stroke: #ffffff; stroke-opacity: 0.7; stroke-width: 0.384"/>
     <use xlink:href="#m8267344b73" x="70.457727" y="167.00042" style="fill: #4c72b0; fill-opacity: 0.7; stroke: #ffffff; stroke-opacity: 0.7; stroke-width: 0.384"/>
     <use xlink:href="#m8267344b73" x="266.955455" y="247.489101" style="fill: #4c72b0; fill-opacity: 0.7; stroke: #ffffff; stroke-opacity: 0.7; stroke-width: 0.384"/>
     <use xlink:href="#m8267344b73" x="463.453182" y="181.042503" style="fill: #4c72b0; fill-opacity: 0.7; stroke: #ffffff; stroke-opacity: 0.7; stroke-width: 0.384"/>
     <use xlink:href="#m8267344b73" x="188.356364" y="176.781344" style="fill: #4c72b0; fill-opacity: 0.7; stroke: #ffffff; stroke-opacity: 0.7; stroke-width: 0.384"/>
     <use xlink:href="#m8267344b73" x="149.056818" y="276.919576" style="fill: #4c72b0; fill-opacity: 0.7; stroke: #ffffff; stroke-opacity: 0.7; stroke-width: 0.384"/>
     <use xlink:href="#m8267344b73" x="463.453182" y="154.122447" style="fill: #4c72b0; fill-opacity: 0.7; stroke: #ffffff; stroke-opacity: 0.7; stroke-width: 0.384"/>
     <use xlink:href="#m8267344b73" x="463.453182" y="190.043165" style="fill: #4c72b0; fill-opacity: 0.7; stroke: #ffffff; stroke-opacity: 0.7; stroke-width: 0.384"/>
     <use xlink:href="#m8267344b73" x="345.554545" y="164.905251" style="fill: #4c72b0; fill-opacity: 0.7; stroke: #ffffff; stroke-opacity: 0.7; stroke-width: 0.384"/>
     <use xlink:href="#m8267344b73" x="463.453182" y="131.311375" style="fill: #4c72b0; fill-opacity: 0.7; stroke: #ffffff; stroke-opacity: 0.7; stroke-width: 0.384"/>
     <use xlink:href="#m8267344b73" x="149.056818" y="237.292832" style="fill: #4c72b0; fill-opacity: 0.7; stroke: #ffffff; stroke-opacity: 0.7; stroke-width: 0.384"/>
     <use xlink:href="#m8267344b73" x="463.453182" y="117.446032" style="fill: #4c72b0; fill-opacity: 0.7; stroke: #ffffff; stroke-opacity: 0.7; stroke-width: 0.384"/>
     <use xlink:href="#m8267344b73" x="306.255" y="205.830704" style="fill: #4c72b0; fill-opacity: 0.7; stroke: #ffffff; stroke-opacity: 0.7; stroke-width: 0.384"/>
     <use xlink:href="#m8267344b73" x="109.757273" y="205.866395" style="fill: #4c72b0; fill-opacity: 0.7; stroke: #ffffff; stroke-opacity: 0.7; stroke-width: 0.384"/>
     <use xlink:href="#m8267344b73" x="424.153636" y="172.663958" style="fill: #4c72b0; fill-opacity: 0.7; stroke: #ffffff; stroke-opacity: 0.7; stroke-width: 0.384"/>
     <use xlink:href="#m8267344b73" x="542.052273" y="106.783954" style="fill: #4c72b0; fill-opacity: 0.7; stroke: #ffffff; stroke-opacity: 0.7; stroke-width: 0.384"/>
     <use xlink:href="#m8267344b73" x="542.052273" y="97.247065" style="fill: #4c72b0; fill-opacity: 0.7; stroke: #ffffff; stroke-opacity: 0.7; stroke-width: 0.384"/>
     <use xlink:href="#m8267344b73" x="463.453182" y="140.525193" style="fill: #4c72b0; fill-opacity: 0.7; stroke: #ffffff; stroke-opacity: 0.7; stroke-width: 0.384"/>
     <use xlink:href="#m8267344b73" x="424.153636" y="134.586153" style="fill: #4c72b0; fill-opacity: 0.7; stroke: #ffffff; stroke-opacity: 0.7; stroke-width: 0.384"/>
     <use xlink:href="#m8267344b73" x="463.453182" y="149.091243" style="fill: #4c72b0; fill-opacity: 0.7; stroke: #ffffff; stroke-opacity: 0.7; stroke-width: 0.384"/>
     <use xlink:href="#m8267344b73" x="345.554546" y="163.800326" style="fill: #4c72b0; fill-opacity: 0.7; stroke: #ffffff; stroke-opacity: 0.7; stroke-width: 0.384"/>
     <use xlink:href="#m8267344b73" x="149.056818" y="171.819067" style="fill: #4c72b0; fill-opacity: 0.7; stroke: #ffffff; stroke-opacity: 0.7; stroke-width: 0.384"/>
     <use xlink:href="#m8267344b73" x="384.854091" y="120.100166" style="fill: #4c72b0; fill-opacity: 0.7; stroke: #ffffff; stroke-opacity: 0.7; stroke-width: 0.384"/>
     <use xlink:href="#m8267344b73" x="70.457727" y="226.182606" style="fill: #4c72b0; fill-opacity: 0.7; stroke: #ffffff; stroke-opacity: 0.7; stroke-width: 0.384"/>
     <use xlink:href="#m8267344b73" x="384.854091" y="189.718412" style="fill: #4c72b0; fill-opacity: 0.7; stroke: #ffffff; stroke-opacity: 0.7; stroke-width: 0.384"/>
     <use xlink:href="#m8267344b73" x="463.453182" y="171.928028" style="fill: #4c72b0; fill-opacity: 0.7; stroke: #ffffff; stroke-opacity: 0.7; stroke-width: 0.384"/>
     <use xlink:href="#m8267344b73" x="502.752727" y="77.481879" style="fill: #4c72b0; fill-opacity: 0.7; stroke: #ffffff; stroke-opacity: 0.7; stroke-width: 0.384"/>
     <use xlink:href="#m8267344b73" x="463.453182" y="128.691831" style="fill: #4c72b0; fill-opacity: 0.7; stroke: #ffffff; stroke-opacity: 0.7; stroke-width: 0.384"/>
     <use xlink:href="#m8267344b73" x="463.453182" y="145.142069" style="fill: #4c72b0; fill-opacity: 0.7; stroke: #ffffff; stroke-opacity: 0.7; stroke-width: 0.384"/>
     <use xlink:href="#m8267344b73" x="384.854091" y="136.317209" style="fill: #4c72b0; fill-opacity: 0.7; stroke: #ffffff; stroke-opacity: 0.7; stroke-width: 0.384"/>
     <use xlink:href="#m8267344b73" x="463.453182" y="198.88397" style="fill: #4c72b0; fill-opacity: 0.7; stroke: #ffffff; stroke-opacity: 0.7; stroke-width: 0.384"/>
     <use xlink:href="#m8267344b73" x="227.655909" y="109.920045" style="fill: #4c72b0; fill-opacity: 0.7; stroke: #ffffff; stroke-opacity: 0.7; stroke-width: 0.384"/>
     <use xlink:href="#m8267344b73" x="266.955455" y="148.046479" style="fill: #4c72b0; fill-opacity: 0.7; stroke: #ffffff; stroke-opacity: 0.7; stroke-width: 0.384"/>
     <use xlink:href="#m8267344b73" x="542.052273" y="143.46457" style="fill: #4c72b0; fill-opacity: 0.7; stroke: #ffffff; stroke-opacity: 0.7; stroke-width: 0.384"/>
     <use xlink:href="#m8267344b73" x="542.052273" y="173.544519" style="fill: #4c72b0; fill-opacity: 0.7; stroke: #ffffff; stroke-opacity: 0.7; stroke-width: 0.384"/>
     <use xlink:href="#m8267344b73" x="502.752727" y="111.092831" style="fill: #4c72b0; fill-opacity: 0.7; stroke: #ffffff; stroke-opacity: 0.7; stroke-width: 0.384"/>
     <use xlink:href="#m8267344b73" x="424.153636" y="185.371574" style="fill: #4c72b0; fill-opacity: 0.7; stroke: #ffffff; stroke-opacity: 0.7; stroke-width: 0.384"/>
     <use xlink:href="#m8267344b73" x="384.854091" y="242.084431" style="fill: #4c72b0; fill-opacity: 0.7; stroke: #ffffff; stroke-opacity: 0.7; stroke-width: 0.384"/>
     <use xlink:href="#m8267344b73" x="463.453182" y="72.048918" style="fill: #4c72b0; fill-opacity: 0.7; stroke: #ffffff; stroke-opacity: 0.7; stroke-width: 0.384"/>
     <use xlink:href="#m8267344b73" x="306.255" y="138.942436" style="fill: #4c72b0; fill-opacity: 0.7; stroke: #ffffff; stroke-opacity: 0.7; stroke-width: 0.384"/>
     <use xlink:href="#m8267344b73" x="188.356364" y="159.911061" style="fill: #4c72b0; fill-opacity: 0.7; stroke: #ffffff; stroke-opacity: 0.7; stroke-width: 0.384"/>
     <use xlink:href="#m8267344b73" x="306.255" y="196.478649" style="fill: #4c72b0; fill-opacity: 0.7; stroke: #ffffff; stroke-opacity: 0.7; stroke-width: 0.384"/>
     <use xlink:href="#m8267344b73" x="542.052273" y="163.635598" style="fill: #4c72b0; fill-opacity: 0.7; stroke: #ffffff; stroke-opacity: 0.7; stroke-width: 0.384"/>
     <use xlink:href="#m8267344b73" x="502.752727" y="92.569753" style="fill: #4c72b0; fill-opacity: 0.7; stroke: #ffffff; stroke-opacity: 0.7; stroke-width: 0.384"/>
     <use xlink:href="#m8267344b73" x="542.052273" y="133.962492" style="fill: #4c72b0; fill-opacity: 0.7; stroke: #ffffff; stroke-opacity: 0.7; stroke-width: 0.384"/>
     <use xlink:href="#m8267344b73" x="345.554545" y="173.448213" style="fill: #4c72b0; fill-opacity: 0.7; stroke: #ffffff; stroke-opacity: 0.7; stroke-width: 0.384"/>
     <use xlink:href="#m8267344b73" x="542.052273" y="95.314891" style="fill: #4c72b0; fill-opacity: 0.7; stroke: #ffffff; stroke-opacity: 0.7; stroke-width: 0.384"/>
     <use xlink:href="#m8267344b73" x="345.554545" y="87.771153" style="fill: #4c72b0; fill-opacity: 0.7; stroke: #ffffff; stroke-opacity: 0.7; stroke-width: 0.384"/>
     <use xlink:href="#m8267344b73" x="227.655909" y="106.138609" style="fill: #4c72b0; fill-opacity: 0.7; stroke: #ffffff; stroke-opacity: 0.7; stroke-width: 0.384"/>
     <use xlink:href="#m8267344b73" x="227.655909" y="135.569578" style="fill: #4c72b0; fill-opacity: 0.7; stroke: #ffffff; stroke-opacity: 0.7; stroke-width: 0.384"/>
     <use xlink:href="#m8267344b73" x="542.052273" y="120.845051" style="fill: #4c72b0; fill-opacity: 0.7; stroke: #ffffff; stroke-opacity: 0.7; stroke-width: 0.384"/>
     <use xlink:href="#m8267344b73" x="345.554546" y="195.698746" style="fill: #4c72b0; fill-opacity: 0.7; stroke: #ffffff; stroke-opacity: 0.7; stroke-width: 0.384"/>
     <use xlink:href="#m8267344b73" x="345.554545" y="145.936586" style="fill: #4c72b0; fill-opacity: 0.7; stroke: #ffffff; stroke-opacity: 0.7; stroke-width: 0.384"/>
     <use xlink:href="#m8267344b73" x="345.554545" y="123.056927" style="fill: #4c72b0; fill-opacity: 0.7; stroke: #ffffff; stroke-opacity: 0.7; stroke-width: 0.384"/>
     <use xlink:href="#m8267344b73" x="542.052273" y="69.30907" style="fill: #4c72b0; fill-opacity: 0.7; stroke: #ffffff; stroke-opacity: 0.7; stroke-width: 0.384"/>
     <use xlink:href="#m8267344b73" x="424.153636" y="178.004517" style="fill: #4c72b0; fill-opacity: 0.7; stroke: #ffffff; stroke-opacity: 0.7; stroke-width: 0.384"/>
     <use xlink:href="#m8267344b73" x="424.153636" y="121.163252" style="fill: #4c72b0; fill-opacity: 0.7; stroke: #ffffff; stroke-opacity: 0.7; stroke-width: 0.384"/>
     <use xlink:href="#m8267344b73" x="463.453182" y="118.907777" style="fill: #4c72b0; fill-opacity: 0.7; stroke: #ffffff; stroke-opacity: 0.7; stroke-width: 0.384"/>
     <use xlink:href="#m8267344b73" x="345.554545" y="258.148495" style="fill: #4c72b0; fill-opacity: 0.7; stroke: #ffffff; stroke-opacity: 0.7; stroke-width: 0.384"/>
     <use xlink:href="#m8267344b73" x="345.554545" y="157.719125" style="fill: #4c72b0; fill-opacity: 0.7; stroke: #ffffff; stroke-opacity: 0.7; stroke-width: 0.384"/>
     <use xlink:href="#m8267344b73" x="463.453182" y="118.689499" style="fill: #4c72b0; fill-opacity: 0.7; stroke: #ffffff; stroke-opacity: 0.7; stroke-width: 0.384"/>
     <use xlink:href="#m8267344b73" x="424.153636" y="148.031276" style="fill: #4c72b0; fill-opacity: 0.7; stroke: #ffffff; stroke-opacity: 0.7; stroke-width: 0.384"/>
     <use xlink:href="#m8267344b73" x="542.052273" y="87.651236" style="fill: #4c72b0; fill-opacity: 0.7; stroke: #ffffff; stroke-opacity: 0.7; stroke-width: 0.384"/>
     <use xlink:href="#m8267344b73" x="227.655909" y="184.741216" style="fill: #4c72b0; fill-opacity: 0.7; stroke: #ffffff; stroke-opacity: 0.7; stroke-width: 0.384"/>
     <use xlink:href="#m8267344b73" x="384.854091" y="128.255944" style="fill: #4c72b0; fill-opacity: 0.7; stroke: #ffffff; stroke-opacity: 0.7; stroke-width: 0.384"/>
     <use xlink:href="#m8267344b73" x="266.955455" y="168.287208" style="fill: #4c72b0; fill-opacity: 0.7; stroke: #ffffff; stroke-opacity: 0.7; stroke-width: 0.384"/>
     <use xlink:href="#m8267344b73" x="188.356364" y="113.843954" style="fill: #4c72b0; fill-opacity: 0.7; stroke: #ffffff; stroke-opacity: 0.7; stroke-width: 0.384"/>
     <use xlink:href="#m8267344b73" x="542.052273" y="144.321905" style="fill: #4c72b0; fill-opacity: 0.7; stroke: #ffffff; stroke-opacity: 0.7; stroke-width: 0.384"/>
     <use xlink:href="#m8267344b73" x="424.153636" y="144.728531" style="fill: #4c72b0; fill-opacity: 0.7; stroke: #ffffff; stroke-opacity: 0.7; stroke-width: 0.384"/>
     <use xlink:href="#m8267344b73" x="384.854091" y="197.156881" style="fill: #4c72b0; fill-opacity: 0.7; stroke: #ffffff; stroke-opacity: 0.7; stroke-width: 0.384"/>
     <use xlink:href="#m8267344b73" x="345.554545" y="98.994776" style="fill: #4c72b0; fill-opacity: 0.7; stroke: #ffffff; stroke-opacity: 0.7; stroke-width: 0.384"/>
     <use xlink:href="#m8267344b73" x="306.255" y="161.397944" style="fill: #4c72b0; fill-opacity: 0.7; stroke: #ffffff; stroke-opacity: 0.7; stroke-width: 0.384"/>
     <use xlink:href="#m8267344b73" x="502.752727" y="164.468547" style="fill: #4c72b0; fill-opacity: 0.7; stroke: #ffffff; stroke-opacity: 0.7; stroke-width: 0.384"/>
     <use xlink:href="#m8267344b73" x="463.453182" y="137.696343" style="fill: #4c72b0; fill-opacity: 0.7; stroke: #ffffff; stroke-opacity: 0.7; stroke-width: 0.384"/>
     <use xlink:href="#m8267344b73" x="542.052273" y="107.099426" style="fill: #4c72b0; fill-opacity: 0.7; stroke: #ffffff; stroke-opacity: 0.7; stroke-width: 0.384"/>
     <use xlink:href="#m8267344b73" x="502.752727" y="210.596013" style="fill: #4c72b0; fill-opacity: 0.7; stroke: #ffffff; stroke-opacity: 0.7; stroke-width: 0.384"/>
     <use xlink:href="#m8267344b73" x="463.453182" y="111.921483" style="fill: #4c72b0; fill-opacity: 0.7; stroke: #ffffff; stroke-opacity: 0.7; stroke-width: 0.384"/>
     <use xlink:href="#m8267344b73" x="345.554545" y="129.308211" style="fill: #4c72b0; fill-opacity: 0.7; stroke: #ffffff; stroke-opacity: 0.7; stroke-width: 0.384"/>
     <use xlink:href="#m8267344b73" x="424.153636" y="138.664601" style="fill: #4c72b0; fill-opacity: 0.7; stroke: #ffffff; stroke-opacity: 0.7; stroke-width: 0.384"/>
     <use xlink:href="#m8267344b73" x="345.554545" y="110.449066" style="fill: #4c72b0; fill-opacity: 0.7; stroke: #ffffff; stroke-opacity: 0.7; stroke-width: 0.384"/>
     <use xlink:href="#m8267344b73" x="424.153636" y="161.647139" style="fill: #4c72b0; fill-opacity: 0.7; stroke: #ffffff; stroke-opacity: 0.7; stroke-width: 0.384"/>
     <use xlink:href="#m8267344b73" x="463.453182" y="105.041924" style="fill: #4c72b0; fill-opacity: 0.7; stroke: #ffffff; stroke-opacity: 0.7; stroke-width: 0.384"/>
     <use xlink:href="#m8267344b73" x="424.153636" y="154.639958" style="fill: #4c72b0; fill-opacity: 0.7; stroke: #ffffff; stroke-opacity: 0.7; stroke-width: 0.384"/>
     <use xlink:href="#m8267344b73" x="542.052273" y="139.892592" style="fill: #4c72b0; fill-opacity: 0.7; stroke: #ffffff; stroke-opacity: 0.7; stroke-width: 0.384"/>
     <use xlink:href="#m8267344b73" x="424.153636" y="161.139254" style="fill: #4c72b0; fill-opacity: 0.7; stroke: #ffffff; stroke-opacity: 0.7; stroke-width: 0.384"/>
     <use xlink:href="#m8267344b73" x="70.457727" y="145.472024" style="fill: #4c72b0; fill-opacity: 0.7; stroke: #ffffff; stroke-opacity: 0.7; stroke-width: 0.384"/>
     <use xlink:href="#m8267344b73" x="345.554545" y="152.909345" style="fill: #4c72b0; fill-opacity: 0.7; stroke: #ffffff; stroke-opacity: 0.7; stroke-width: 0.384"/>
     <use xlink:href="#m8267344b73" x="424.153636" y="127.737742" style="fill: #4c72b0; fill-opacity: 0.7; stroke: #ffffff; stroke-opacity: 0.7; stroke-width: 0.384"/>
     <use xlink:href="#m8267344b73" x="502.752727" y="127.929278" style="fill: #4c72b0; fill-opacity: 0.7; stroke: #ffffff; stroke-opacity: 0.7; stroke-width: 0.384"/>
     <use xlink:href="#m8267344b73" x="502.752727" y="143.524834" style="fill: #4c72b0; fill-opacity: 0.7; stroke: #ffffff; stroke-opacity: 0.7; stroke-width: 0.384"/>
     <use xlink:href="#m8267344b73" x="266.955455" y="134.004649" style="fill: #4c72b0; fill-opacity: 0.7; stroke: #ffffff; stroke-opacity: 0.7; stroke-width: 0.384"/>
     <use xlink:href="#m8267344b73" x="542.052273" y="97.22046" style="fill: #4c72b0; fill-opacity: 0.7; stroke: #ffffff; stroke-opacity: 0.7; stroke-width: 0.384"/>
     <use xlink:href="#m8267344b73" x="345.554545" y="130.922621" style="fill: #4c72b0; fill-opacity: 0.7; stroke: #ffffff; stroke-opacity: 0.7; stroke-width: 0.384"/>
     <use xlink:href="#m8267344b73" x="424.153636" y="108.523357" style="fill: #4c72b0; fill-opacity: 0.7; stroke: #ffffff; stroke-opacity: 0.7; stroke-width: 0.384"/>
     <use xlink:href="#m8267344b73" x="502.752727" y="135.261173" style="fill: #4c72b0; fill-opacity: 0.7; stroke: #ffffff; stroke-opacity: 0.7; stroke-width: 0.384"/>
     <use xlink:href="#m8267344b73" x="502.752727" y="149.724128" style="fill: #4c72b0; fill-opacity: 0.7; stroke: #ffffff; stroke-opacity: 0.7; stroke-width: 0.384"/>
     <use xlink:href="#m8267344b73" x="188.356364" y="161.392897" style="fill: #4c72b0; fill-opacity: 0.7; stroke: #ffffff; stroke-opacity: 0.7; stroke-width: 0.384"/>
     <use xlink:href="#m8267344b73" x="384.854091" y="158.910487" style="fill: #4c72b0; fill-opacity: 0.7; stroke: #ffffff; stroke-opacity: 0.7; stroke-width: 0.384"/>
     <use xlink:href="#m8267344b73" x="424.153636" y="116.736275" style="fill: #4c72b0; fill-opacity: 0.7; stroke: #ffffff; stroke-opacity: 0.7; stroke-width: 0.384"/>
     <use xlink:href="#m8267344b73" x="149.056818" y="163.794875" style="fill: #4c72b0; fill-opacity: 0.7; stroke: #ffffff; stroke-opacity: 0.7; stroke-width: 0.384"/>
     <use xlink:href="#m8267344b73" x="345.554545" y="73.515555" style="fill: #4c72b0; fill-opacity: 0.7; stroke: #ffffff; stroke-opacity: 0.7; stroke-width: 0.384"/>
    </g>
   </g>
   <g id="FillBetweenPolyCollection_1">
    <defs>
     <path id="mfb0dbfb9c9" d="M 70.457727 -256.709743 
L 70.457727 -210.726032 
L 75.221309 -211.732352 
L 79.98489 -212.738672 
L 84.748471 -213.734944 
L 89.512052 -214.710991 
L 94.275634 -215.687038 
L 99.039215 -216.663084 
L 103.802796 -217.639131 
L 108.566377 -218.615178 
L 113.329959 -219.591225 
L 118.09354 -220.567272 
L 122.857121 -221.543318 
L 127.620702 -222.520584 
L 132.384284 -223.499035 
L 137.147865 -224.477487 
L 141.911446 -225.455938 
L 146.675028 -226.43439 
L 151.438609 -227.415592 
L 156.20219 -228.397173 
L 160.965771 -229.378753 
L 165.729353 -230.369013 
L 170.492934 -231.457685 
L 175.256515 -232.410103 
L 180.020096 -233.362521 
L 184.783678 -234.31494 
L 189.547259 -235.267358 
L 194.31084 -236.221667 
L 199.074421 -237.197974 
L 203.838003 -238.175321 
L 208.601584 -239.203534 
L 213.365165 -240.256362 
L 218.128747 -241.292435 
L 222.892328 -242.328508 
L 227.655909 -243.36458 
L 232.41949 -244.311823 
L 237.183072 -245.252908 
L 241.946653 -246.284129 
L 246.710234 -247.329218 
L 251.473815 -248.439316 
L 256.237397 -249.550611 
L 261.000978 -250.627335 
L 265.764559 -251.52893 
L 270.52814 -252.390207 
L 275.291722 -253.406326 
L 280.055303 -254.211412 
L 284.818884 -255.017227 
L 289.582466 -255.925759 
L 294.346047 -256.743947 
L 299.109628 -257.672351 
L 303.873209 -258.653425 
L 308.636791 -259.549673 
L 313.400372 -260.619281 
L 318.163953 -261.617619 
L 322.927534 -262.593818 
L 327.691116 -263.56462 
L 332.454697 -264.363433 
L 337.218278 -265.233824 
L 341.98186 -266.175976 
L 346.745441 -266.993407 
L 351.509022 -267.813288 
L 356.272603 -268.700189 
L 361.036185 -269.611965 
L 365.799766 -270.548642 
L 370.563347 -271.432732 
L 375.326928 -272.257233 
L 380.09051 -273.061229 
L 384.854091 -273.907897 
L 389.617672 -274.681185 
L 394.381253 -275.513444 
L 399.144835 -276.18712 
L 403.908416 -276.855831 
L 408.671997 -277.644694 
L 413.435579 -278.46262 
L 418.19916 -279.089275 
L 422.962741 -279.900766 
L 427.726322 -280.509006 
L 432.489904 -281.189219 
L 437.253485 -281.752803 
L 442.017066 -282.346814 
L 446.780647 -283.036756 
L 451.544229 -283.55661 
L 456.30781 -284.112412 
L 461.071391 -284.752277 
L 465.834972 -285.289559 
L 470.598554 -285.827408 
L 475.362135 -286.367193 
L 480.125716 -286.902253 
L 484.889298 -287.418705 
L 489.652879 -287.86026 
L 494.41646 -288.331332 
L 499.180041 -288.858741 
L 503.943623 -289.466483 
L 508.707204 -289.955292 
L 513.470785 -290.440797 
L 518.234366 -290.96646 
L 522.997948 -291.447643 
L 527.761529 -291.883421 
L 532.52511 -292.54856 
L 537.288691 -293.0246 
L 542.052273 -293.6072 
L 542.052273 -314.454479 
L 542.052273 -314.454479 
L 537.288691 -313.560929 
L 532.52511 -312.779675 
L 527.761529 -311.998404 
L 522.997948 -311.162719 
L 518.234366 -310.149648 
L 513.470785 -309.135454 
L 508.707204 -308.220391 
L 503.943623 -307.304632 
L 499.180041 -306.327658 
L 494.41646 -305.440087 
L 489.652879 -304.480537 
L 484.889298 -303.605689 
L 480.125716 -302.768822 
L 475.362135 -301.95165 
L 470.598554 -301.19546 
L 465.834972 -300.322134 
L 461.071391 -299.44648 
L 456.30781 -298.64593 
L 451.544229 -297.778595 
L 446.780647 -297.014415 
L 442.017066 -296.256592 
L 437.253485 -295.412473 
L 432.489904 -294.737341 
L 427.726322 -293.962072 
L 422.962741 -293.255238 
L 418.19916 -292.467322 
L 413.435579 -291.698659 
L 408.671997 -290.997377 
L 403.908416 -290.489818 
L 399.144835 -289.847173 
L 394.381253 -289.194353 
L 389.617672 -288.541941 
L 384.854091 -288.021039 
L 380.09051 -287.463463 
L 375.326928 -286.854973 
L 370.563347 -286.326672 
L 365.799766 -285.654701 
L 361.036185 -285.176358 
L 356.272603 -284.556327 
L 351.509022 -283.897886 
L 346.745441 -283.377141 
L 341.98186 -282.855955 
L 337.218278 -282.302931 
L 332.454697 -281.72948 
L 327.691116 -281.156028 
L 322.927534 -280.582577 
L 318.163953 -280.037133 
L 313.400372 -279.58494 
L 308.636791 -279.132747 
L 303.873209 -278.680554 
L 299.109628 -278.230383 
L 294.346047 -277.819703 
L 289.582466 -277.381684 
L 284.818884 -276.878791 
L 280.055303 -276.383659 
L 275.291722 -275.885593 
L 270.52814 -275.387444 
L 265.764559 -274.886157 
L 261.000978 -274.385766 
L 256.237397 -273.919846 
L 251.473815 -273.548029 
L 246.710234 -272.993162 
L 241.946653 -272.407351 
L 237.183072 -271.890256 
L 232.41949 -271.390133 
L 227.655909 -270.91118 
L 222.892328 -270.513823 
L 218.128747 -270.067623 
L 213.365165 -269.621424 
L 208.601584 -269.185009 
L 203.838003 -268.756548 
L 199.074421 -268.328088 
L 194.31084 -267.899628 
L 189.547259 -267.470887 
L 184.783678 -267.04063 
L 180.020096 -266.610373 
L 175.256515 -266.179957 
L 170.492934 -265.748473 
L 165.729353 -265.316989 
L 160.965771 -264.885505 
L 156.20219 -264.454021 
L 151.438609 -264.015255 
L 146.675028 -263.593484 
L 141.911446 -263.165525 
L 137.147865 -262.737567 
L 132.384284 -262.307803 
L 127.620702 -261.877546 
L 122.857121 -261.447289 
L 118.09354 -261.017032 
L 113.329959 -260.586775 
L 108.566377 -260.177269 
L 103.802796 -259.763329 
L 99.039215 -259.314554 
L 94.275634 -258.869776 
L 89.512052 -258.440257 
L 84.748471 -258.009433 
L 79.98489 -257.578609 
L 75.221309 -257.147785 
L 70.457727 -256.709743 
z
" style="stroke: #ffffff; stroke-opacity: 0.15; stroke-width: 0.8"/>
    </defs>
    <g clip-path="url(#p6a1e00ca7b)">
     <use xlink:href="#mfb0dbfb9c9" x="0" y="432" style="fill: #808080; fill-opacity: 0.15; stroke: #ffffff; stroke-opacity: 0.15; stroke-width: 0.8"/>
    </g>
   </g>
   <g id="FillBetweenPolyCollection_2">
    <defs>
     <path id="md260d4fd04" d="M 70.457727 -256.429909 
L 70.457727 -211.919403 
L 75.221309 -212.926867 
L 79.98489 -213.934332 
L 84.748471 -214.941797 
L 89.512052 -215.949261 
L 94.275634 -216.956726 
L 99.039215 -217.964191 
L 103.802796 -218.938407 
L 108.566377 -219.865604 
L 113.329959 -220.779597 
L 118.09354 -221.676567 
L 122.857121 -222.573537 
L 127.620702 -223.472364 
L 132.384284 -224.371519 
L 137.147865 -225.270674 
L 141.911446 -226.262265 
L 146.675028 -227.290793 
L 151.438609 -228.216779 
L 156.20219 -229.142764 
L 160.965771 -230.069241 
L 165.729353 -230.996845 
L 170.492934 -231.9246 
L 175.256515 -232.853447 
L 180.020096 -233.782295 
L 184.783678 -234.723796 
L 189.547259 -235.731909 
L 194.31084 -236.741316 
L 199.074421 -237.750723 
L 203.838003 -238.76013 
L 208.601584 -239.770692 
L 213.365165 -240.781527 
L 218.128747 -241.792363 
L 222.892328 -242.799946 
L 227.655909 -243.807165 
L 232.41949 -244.816572 
L 237.183072 -245.825979 
L 241.946653 -246.835386 
L 246.710234 -247.777509 
L 251.473815 -248.676227 
L 256.237397 -249.574945 
L 261.000978 -250.47184 
L 265.764559 -251.358981 
L 270.52814 -252.263561 
L 275.291722 -253.268927 
L 280.055303 -254.184807 
L 284.818884 -255.173932 
L 289.582466 -256.165348 
L 294.346047 -257.156764 
L 299.109628 -258.147155 
L 303.873209 -259.040393 
L 308.636791 -260.05869 
L 313.400372 -260.939362 
L 318.163953 -261.844578 
L 322.927534 -262.748304 
L 327.691116 -263.637161 
L 332.454697 -264.554336 
L 337.218278 -265.566409 
L 341.98186 -266.443733 
L 346.745441 -267.297363 
L 351.509022 -268.170693 
L 356.272603 -269.043971 
L 361.036185 -269.869041 
L 365.799766 -270.652137 
L 370.563347 -271.431488 
L 375.326928 -272.21225 
L 380.09051 -273.003511 
L 384.854091 -273.796065 
L 389.617672 -274.600256 
L 394.381253 -275.415188 
L 399.144835 -276.212287 
L 403.908416 -276.963663 
L 408.671997 -277.885839 
L 413.435579 -278.827732 
L 418.19916 -279.479447 
L 422.962741 -280.131968 
L 427.726322 -280.774308 
L 432.489904 -281.556955 
L 437.253485 -282.178851 
L 442.017066 -282.800747 
L 446.780647 -283.469813 
L 451.544229 -284.21381 
L 456.30781 -284.762287 
L 461.071391 -285.471603 
L 465.834972 -286.103343 
L 470.598554 -286.686876 
L 475.362135 -287.311312 
L 480.125716 -287.852312 
L 484.889298 -288.39371 
L 489.652879 -288.901976 
L 494.41646 -289.483291 
L 499.180041 -290.101142 
L 503.943623 -290.842003 
L 508.707204 -291.39439 
L 513.470785 -291.858385 
L 518.234366 -292.323601 
L 522.997948 -292.854152 
L 527.761529 -293.272675 
L 532.52511 -293.813297 
L 537.288691 -294.355913 
L 542.052273 -294.895411 
L 542.052273 -313.862525 
L 542.052273 -313.862525 
L 537.288691 -312.94638 
L 532.52511 -312.032358 
L 527.761529 -311.059644 
L 522.997948 -310.073456 
L 518.234366 -309.176499 
L 513.470785 -308.219912 
L 508.707204 -307.127096 
L 503.943623 -306.467435 
L 499.180041 -305.642475 
L 494.41646 -304.728939 
L 489.652879 -303.903022 
L 484.889298 -302.982347 
L 480.125716 -302.247868 
L 475.362135 -301.464989 
L 470.598554 -300.742671 
L 465.834972 -299.977542 
L 461.071391 -299.143767 
L 456.30781 -298.364014 
L 451.544229 -297.585001 
L 446.780647 -296.678488 
L 442.017066 -295.91874 
L 437.253485 -295.185041 
L 432.489904 -294.431933 
L 427.726322 -293.732744 
L 422.962741 -292.918993 
L 418.19916 -292.176784 
L 413.435579 -291.466382 
L 408.671997 -290.82891 
L 403.908416 -290.143217 
L 399.144835 -289.469602 
L 394.381253 -288.805471 
L 389.617672 -288.141708 
L 384.854091 -287.499862 
L 380.09051 -286.918426 
L 375.326928 -286.272227 
L 370.563347 -285.629896 
L 365.799766 -284.988469 
L 361.036185 -284.481257 
L 356.272603 -284.019677 
L 351.509022 -283.450998 
L 346.745441 -282.930167 
L 341.98186 -282.479937 
L 337.218278 -281.905479 
L 332.454697 -281.282261 
L 327.691116 -280.725773 
L 322.927534 -280.199268 
L 318.163953 -279.671991 
L 313.400372 -279.087837 
L 308.636791 -278.77864 
L 303.873209 -278.287077 
L 299.109628 -277.86081 
L 294.346047 -277.343541 
L 289.582466 -276.933371 
L 284.818884 -276.516536 
L 280.055303 -275.986598 
L 275.291722 -275.455942 
L 270.52814 -274.920203 
L 265.764559 -274.385996 
L 261.000978 -273.851409 
L 256.237397 -273.343367 
L 251.473815 -272.851396 
L 246.710234 -272.359203 
L 241.946653 -271.866103 
L 237.183072 -271.373003 
L 232.41949 -270.936685 
L 227.655909 -270.533329 
L 222.892328 -270.129974 
L 218.128747 -269.726292 
L 213.365165 -269.321049 
L 208.601584 -268.872509 
L 203.838003 -268.473421 
L 199.074421 -268.073364 
L 194.31084 -267.535165 
L 189.547259 -267.135097 
L 184.783678 -266.735029 
L 180.020096 -266.320724 
L 175.256515 -265.873869 
L 170.492934 -265.427015 
L 165.729353 -264.979631 
L 160.965771 -264.530573 
L 156.20219 -264.081515 
L 151.438609 -263.632457 
L 146.675028 -263.184337 
L 141.911446 -262.76619 
L 137.147865 -262.354319 
L 132.384284 -261.942448 
L 127.620702 -261.530576 
L 122.857121 -261.118705 
L 118.09354 -260.706834 
L 113.329959 -260.294963 
L 108.566377 -259.883091 
L 103.802796 -259.47122 
L 99.039215 -259.07521 
L 94.275634 -258.676833 
L 89.512052 -258.232842 
L 84.748471 -257.809574 
L 79.98489 -257.323628 
L 75.221309 -256.825718 
L 70.457727 -256.429909 
z
" style="stroke: #ffffff; stroke-opacity: 0.15; stroke-width: 0.8"/>
    </defs>
    <g clip-path="url(#p6a1e00ca7b)">
     <use xlink:href="#md260d4fd04" x="0" y="432" style="fill: #808080; fill-opacity: 0.15; stroke: #ffffff; stroke-opacity: 0.15; stroke-width: 0.8"/>
    </g>
   </g>
   <g id="line2d_27">
    <path d="M 70.457727 197.601139 
L 75.221309 196.896436 
L 79.98489 196.191733 
L 84.748471 195.48703 
L 89.512052 194.782327 
L 94.275634 194.077624 
L 99.039215 193.372922 
L 103.802796 192.668219 
L 108.566377 191.963516 
L 113.329959 191.258813 
L 118.09354 190.55411 
L 122.857121 189.849407 
L 127.620702 189.144704 
L 132.384284 188.440001 
L 137.147865 187.735299 
L 141.911446 187.030596 
L 146.675028 186.325893 
L 151.438609 185.62119 
L 156.20219 184.916487 
L 160.965771 184.211784 
L 165.729353 183.507081 
L 170.492934 182.802379 
L 175.256515 182.097676 
L 180.020096 181.392973 
L 184.783678 180.68827 
L 189.547259 179.983567 
L 194.31084 179.278864 
L 199.074421 178.574161 
L 203.838003 177.869458 
L 208.601584 177.164756 
L 213.365165 176.460053 
L 218.128747 175.75535 
L 222.892328 175.050647 
L 227.655909 174.345944 
L 232.41949 173.641241 
L 237.183072 172.936538 
L 241.946653 172.231836 
L 246.710234 171.527133 
L 251.473815 170.82243 
L 256.237397 170.117727 
L 261.000978 169.413024 
L 265.764559 168.708321 
L 270.52814 168.003618 
L 275.291722 167.298915 
L 280.055303 166.594213 
L 284.818884 165.88951 
L 289.582466 165.184807 
L 294.346047 164.480104 
L 299.109628 163.775401 
L 303.873209 163.070698 
L 308.636791 162.365995 
L 313.400372 161.661293 
L 318.163953 160.95659 
L 322.927534 160.251887 
L 327.691116 159.547184 
L 332.454697 158.842481 
L 337.218278 158.137778 
L 341.98186 157.433075 
L 346.745441 156.728372 
L 351.509022 156.02367 
L 356.272603 155.318967 
L 361.036185 154.614264 
L 365.799766 153.909561 
L 370.563347 153.204858 
L 375.326928 152.500155 
L 380.09051 151.795452 
L 384.854091 151.09075 
L 389.617672 150.386047 
L 394.381253 149.681344 
L 399.144835 148.976641 
L 403.908416 148.271938 
L 408.671997 147.567235 
L 413.435579 146.862532 
L 418.19916 146.157829 
L 422.962741 145.453127 
L 427.726322 144.748424 
L 432.489904 144.043721 
L 437.253485 143.339018 
L 442.017066 142.634315 
L 446.780647 141.929612 
L 451.544229 141.224909 
L 456.30781 140.520207 
L 461.071391 139.815504 
L 465.834972 139.110801 
L 470.598554 138.406098 
L 475.362135 137.701395 
L 480.125716 136.996692 
L 484.889298 136.291989 
L 489.652879 135.587286 
L 494.41646 134.882584 
L 499.180041 134.177881 
L 503.943623 133.473178 
L 508.707204 132.768475 
L 513.470785 132.063772 
L 518.234366 131.359069 
L 522.997948 130.654366 
L 527.761529 129.949664 
L 532.52511 129.244961 
L 537.288691 128.540258 
L 542.052273 127.835555 
" clip-path="url(#p6a1e00ca7b)" style="fill: none; stroke: #808080; stroke-width: 1.8; stroke-linecap: round"/>
   </g>
   <g id="line2d_28">
    <path d="M 70.457727 197.601139 
L 75.221309 196.896436 
L 79.98489 196.191733 
L 84.748471 195.48703 
L 89.512052 194.782327 
L 94.275634 194.077624 
L 99.039215 193.372922 
L 103.802796 192.668219 
L 108.566377 191.963516 
L 113.329959 191.258813 
L 118.09354 190.55411 
L 122.857121 189.849407 
L 127.620702 189.144704 
L 132.384284 188.440001 
L 137.147865 187.735299 
L 141.911446 187.030596 
L 146.675028 186.325893 
L 151.438609 185.62119 
L 156.20219 184.916487 
L 160.965771 184.211784 
L 165.729353 183.507081 
L 170.492934 182.802379 
L 175.256515 182.097676 
L 180.020096 181.392973 
L 184.783678 180.68827 
L 189.547259 179.983567 
L 194.31084 179.278864 
L 199.074421 178.574161 
L 203.838003 177.869458 
L 208.601584 177.164756 
L 213.365165 176.460053 
L 218.128747 175.75535 
L 222.892328 175.050647 
L 227.655909 174.345944 
L 232.41949 173.641241 
L 237.183072 172.936538 
L 241.946653 172.231836 
L 246.710234 171.527133 
L 251.473815 170.82243 
L 256.237397 170.117727 
L 261.000978 169.413024 
L 265.764559 168.708321 
L 270.52814 168.003618 
L 275.291722 167.298915 
L 280.055303 166.594213 
L 284.818884 165.88951 
L 289.582466 165.184807 
L 294.346047 164.480104 
L 299.109628 163.775401 
L 303.873209 163.070698 
L 308.636791 162.365995 
L 313.400372 161.661293 
L 318.163953 160.95659 
L 322.927534 160.251887 
L 327.691116 159.547184 
L 332.454697 158.842481 
L 337.218278 158.137778 
L 341.98186 157.433075 
L 346.745441 156.728372 
L 351.509022 156.02367 
L 356.272603 155.318967 
L 361.036185 154.614264 
L 365.799766 153.909561 
L 370.563347 153.204858 
L 375.326928 152.500155 
L 380.09051 151.795452 
L 384.854091 151.09075 
L 389.617672 150.386047 
L 394.381253 149.681344 
L 399.144835 148.976641 
L 403.908416 148.271938 
L 408.671997 147.567235 
L 413.435579 146.862532 
L 418.19916 146.157829 
L 422.962741 145.453127 
L 427.726322 144.748424 
L 432.489904 144.043721 
L 437.253485 143.339018 
L 442.017066 142.634315 
L 446.780647 141.929612 
L 451.544229 141.224909 
L 456.30781 140.520207 
L 461.071391 139.815504 
L 465.834972 139.110801 
L 470.598554 138.406098 
L 475.362135 137.701395 
L 480.125716 136.996692 
L 484.889298 136.291989 
L 489.652879 135.587286 
L 494.41646 134.882584 
L 499.180041 134.177881 
L 503.943623 133.473178 
L 508.707204 132.768475 
L 513.470785 132.063772 
L 518.234366 131.359069 
L 522.997948 130.654366 
L 527.761529 129.949664 
L 532.52511 129.244961 
L 537.288691 128.540258 
L 542.052273 127.835555 
" clip-path="url(#p6a1e00ca7b)" style="fill: none; stroke: #808080; stroke-width: 1.8; stroke-linecap: round"/>
   </g>
   <g id="patch_3">
    <path d="M 46.878 387.012 
L 46.878 27.168 
" style="fill: none; stroke: #262626; stroke-linejoin: miter; stroke-linecap: square"/>
   </g>
   <g id="patch_4">
    <path d="M 46.878 387.012 
L 565.632 387.012 
" style="fill: none; stroke: #262626; stroke-linejoin: miter; stroke-linecap: square"/>
   </g>
   <g id="text_17">
    <g id="patch_5">
     <path d="M 68.8557 87.6087 
L 185.64945 87.6087 
L 185.64945 41.2002 
L 68.8557 41.2002 
z
" style="fill: #ffffff; opacity: 0.5; stroke: #ffffff; stroke-width: 0.8; stroke-linejoin: miter"/>
    </g>
    <!-- R: 0.44 -->
    <g style="fill: #262626" transform="translate(72.8157 54.278325) scale(0.12 -0.12)">
     <defs>
      <path id="DejaVuSans-52" d="M 2841 2188 
Q 3044 2119 3236 1894 
Q 3428 1669 3622 1275 
L 4263 0 
L 3584 0 
L 2988 1197 
Q 2756 1666 2539 1819 
Q 2322 1972 1947 1972 
L 1259 1972 
L 1259 0 
L 628 0 
L 628 4666 
L 2053 4666 
Q 2853 4666 3247 4331 
Q 3641 3997 3641 3322 
Q 3641 2881 3436 2590 
Q 3231 2300 2841 2188 
z
M 1259 4147 
L 1259 2491 
L 2053 2491 
Q 2509 2491 2742 2702 
Q 2975 2913 2975 3322 
Q 2975 3731 2742 3939 
Q 2509 4147 2053 4147 
L 1259 4147 
z
" transform="scale(0.015625)"/>
      <path id="DejaVuSans-3a" d="M 750 794 
L 1409 794 
L 1409 0 
L 750 0 
L 750 794 
z
M 750 3309 
L 1409 3309 
L 1409 2516 
L 750 2516 
L 750 3309 
z
" transform="scale(0.015625)"/>
      <path id="DejaVuSans-2e" d="M 684 794 
L 1344 794 
L 1344 0 
L 684 0 
L 684 794 
z
" transform="scale(0.015625)"/>
     </defs>
     <use xlink:href="#DejaVuSans-52"/>
     <use xlink:href="#DejaVuSans-3a" transform="translate(66.357422 0)"/>
     <use xlink:href="#DejaVuSans-20" transform="translate(100.048828 0)"/>
     <use xlink:href="#DejaVuSans-30" transform="translate(131.835938 0)"/>
     <use xlink:href="#DejaVuSans-2e" transform="translate(195.458984 0)"/>
     <use xlink:href="#DejaVuSans-34" transform="translate(227.246094 0)"/>
     <use xlink:href="#DejaVuSans-34" transform="translate(290.869141 0)"/>
    </g>
    <!-- Spearman : 0.42 -->
    <g style="fill: #262626" transform="translate(72.8157 67.7157) scale(0.12 -0.12)">
     <defs>
      <path id="DejaVuSans-70" d="M 1159 525 
L 1159 -1331 
L 581 -1331 
L 581 3500 
L 1159 3500 
L 1159 2969 
Q 1341 3281 1617 3432 
Q 1894 3584 2278 3584 
Q 2916 3584 3314 3078 
Q 3713 2572 3713 1747 
Q 3713 922 3314 415 
Q 2916 -91 2278 -91 
Q 1894 -91 1617 61 
Q 1341 213 1159 525 
z
M 3116 1747 
Q 3116 2381 2855 2742 
Q 2594 3103 2138 3103 
Q 1681 3103 1420 2742 
Q 1159 2381 1159 1747 
Q 1159 1113 1420 752 
Q 1681 391 2138 391 
Q 2594 391 2855 752 
Q 3116 1113 3116 1747 
z
" transform="scale(0.015625)"/>
      <path id="DejaVuSans-6e" d="M 3513 2113 
L 3513 0 
L 2938 0 
L 2938 2094 
Q 2938 2591 2744 2837 
Q 2550 3084 2163 3084 
Q 1697 3084 1428 2787 
Q 1159 2491 1159 1978 
L 1159 0 
L 581 0 
L 581 3500 
L 1159 3500 
L 1159 2956 
Q 1366 3272 1645 3428 
Q 1925 3584 2291 3584 
Q 2894 3584 3203 3211 
Q 3513 2838 3513 2113 
z
" transform="scale(0.015625)"/>
      <path id="DejaVuSans-3c1" d="M 863 2875 
Q 1053 3194 1525 3475 
Q 1709 3584 2278 3584 
Q 2916 3584 3314 3078 
Q 3713 2572 3713 1747 
Q 3713 922 3314 415 
Q 2916 -91 2278 -91 
Q 1894 -91 1617 61 
Q 1341 213 1159 525 
L 1159 -1331 
L 581 -1331 
L 581 1716 
Q 581 2438 863 2875 
z
M 3116 1747 
Q 3116 2381 2855 2742 
Q 2594 3103 2138 3103 
Q 1681 3103 1420 2742 
Q 1159 2381 1159 1747 
Q 1159 1113 1420 752 
Q 1681 391 2138 391 
Q 2594 391 2855 752 
Q 3116 1113 3116 1747 
z
" transform="scale(0.015625)"/>
     </defs>
     <use xlink:href="#DejaVuSans-53"/>
     <use xlink:href="#DejaVuSans-70" transform="translate(63.476562 0)"/>
     <use xlink:href="#DejaVuSans-65" transform="translate(126.953125 0)"/>
     <use xlink:href="#DejaVuSans-61" transform="translate(188.476562 0)"/>
     <use xlink:href="#DejaVuSans-72" transform="translate(249.755859 0)"/>
     <use xlink:href="#DejaVuSans-6d" transform="translate(289.119141 0)"/>
     <use xlink:href="#DejaVuSans-61" transform="translate(386.53125 0)"/>
     <use xlink:href="#DejaVuSans-6e" transform="translate(447.810547 0)"/>
     <use xlink:href="#DejaVuSans-20" transform="translate(511.189453 0)"/>
     <use xlink:href="#DejaVuSans-3c1" transform="translate(542.976562 0)"/>
     <use xlink:href="#DejaVuSans-3a" transform="translate(606.453125 0)"/>
     <use xlink:href="#DejaVuSans-20" transform="translate(640.144531 0)"/>
     <use xlink:href="#DejaVuSans-30" transform="translate(671.931641 0)"/>
     <use xlink:href="#DejaVuSans-2e" transform="translate(735.554688 0)"/>
     <use xlink:href="#DejaVuSans-34" transform="translate(767.341797 0)"/>
     <use xlink:href="#DejaVuSans-32" transform="translate(830.964844 0)"/>
    </g>
    <!-- P-value: 0.000001 -->
    <g style="fill: #262626" transform="translate(72.8157 81.153075) scale(0.12 -0.12)">
     <defs>
      <path id="DejaVuSans-2d" d="M 313 2009 
L 1997 2009 
L 1997 1497 
L 313 1497 
L 313 2009 
z
" transform="scale(0.015625)"/>
      <path id="DejaVuSans-76" d="M 191 3500 
L 800 3500 
L 1894 563 
L 2988 3500 
L 3597 3500 
L 2284 0 
L 1503 0 
L 191 3500 
z
" transform="scale(0.015625)"/>
     </defs>
     <use xlink:href="#DejaVuSans-50"/>
     <use xlink:href="#DejaVuSans-2d" transform="translate(58.052734 0)"/>
     <use xlink:href="#DejaVuSans-76" transform="translate(91.511719 0)"/>
     <use xlink:href="#DejaVuSans-61" transform="translate(150.691406 0)"/>
     <use xlink:href="#DejaVuSans-6c" transform="translate(211.970703 0)"/>
     <use xlink:href="#DejaVuSans-75" transform="translate(239.753906 0)"/>
     <use xlink:href="#DejaVuSans-65" transform="translate(303.132812 0)"/>
     <use xlink:href="#DejaVuSans-3a" transform="translate(364.65625 0)"/>
     <use xlink:href="#DejaVuSans-20" transform="translate(398.347656 0)"/>
     <use xlink:href="#DejaVuSans-30" transform="translate(430.134766 0)"/>
     <use xlink:href="#DejaVuSans-2e" transform="translate(493.757812 0)"/>
     <use xlink:href="#DejaVuSans-30" transform="translate(525.544922 0)"/>
     <use xlink:href="#DejaVuSans-30" transform="translate(589.167969 0)"/>
     <use xlink:href="#DejaVuSans-30" transform="translate(652.791016 0)"/>
     <use xlink:href="#DejaVuSans-30" transform="translate(716.414062 0)"/>
     <use xlink:href="#DejaVuSans-30" transform="translate(780.037109 0)"/>
     <use xlink:href="#DejaVuSans-31" transform="translate(843.660156 0)"/>
    </g>
   </g>
   <g id="text_18">
    <!-- Model Predicted vs. Actual - Full Ensemble  N=109 -->
    <g style="fill: #262626" transform="translate(129.352969 21.168) scale(0.14 -0.14)">
     <defs>
      <path id="DejaVuSans-46" d="M 628 4666 
L 3309 4666 
L 3309 4134 
L 1259 4134 
L 1259 2759 
L 3109 2759 
L 3109 2228 
L 1259 2228 
L 1259 0 
L 628 0 
L 628 4666 
z
" transform="scale(0.015625)"/>
      <path id="DejaVuSans-45" d="M 628 4666 
L 3578 4666 
L 3578 4134 
L 1259 4134 
L 1259 2753 
L 3481 2753 
L 3481 2222 
L 1259 2222 
L 1259 531 
L 3634 531 
L 3634 0 
L 628 0 
L 628 4666 
z
" transform="scale(0.015625)"/>
      <path id="DejaVuSans-62" d="M 3116 1747 
Q 3116 2381 2855 2742 
Q 2594 3103 2138 3103 
Q 1681 3103 1420 2742 
Q 1159 2381 1159 1747 
Q 1159 1113 1420 752 
Q 1681 391 2138 391 
Q 2594 391 2855 752 
Q 3116 1113 3116 1747 
z
M 1159 2969 
Q 1341 3281 1617 3432 
Q 1894 3584 2278 3584 
Q 2916 3584 3314 3078 
Q 3713 2572 3713 1747 
Q 3713 922 3314 415 
Q 2916 -91 2278 -91 
Q 1894 -91 1617 61 
Q 1341 213 1159 525 
L 1159 0 
L 581 0 
L 581 4863 
L 1159 4863 
L 1159 2969 
z
" transform="scale(0.015625)"/>
      <path id="DejaVuSans-4e" d="M 628 4666 
L 1478 4666 
L 3547 763 
L 3547 4666 
L 4159 4666 
L 4159 0 
L 3309 0 
L 1241 3903 
L 1241 0 
L 628 0 
L 628 4666 
z
" transform="scale(0.015625)"/>
      <path id="DejaVuSans-3d" d="M 678 2906 
L 4684 2906 
L 4684 2381 
L 678 2381 
L 678 2906 
z
M 678 1631 
L 4684 1631 
L 4684 1100 
L 678 1100 
L 678 1631 
z
" transform="scale(0.015625)"/>
      <path id="DejaVuSans-39" d="M 703 97 
L 703 672 
Q 941 559 1184 500 
Q 1428 441 1663 441 
Q 2288 441 2617 861 
Q 2947 1281 2994 2138 
Q 2813 1869 2534 1725 
Q 2256 1581 1919 1581 
Q 1219 1581 811 2004 
Q 403 2428 403 3163 
Q 403 3881 828 4315 
Q 1253 4750 1959 4750 
Q 2769 4750 3195 4129 
Q 3622 3509 3622 2328 
Q 3622 1225 3098 567 
Q 2575 -91 1691 -91 
Q 1453 -91 1209 -44 
Q 966 3 703 97 
z
M 1959 2075 
Q 2384 2075 2632 2365 
Q 2881 2656 2881 3163 
Q 2881 3666 2632 3958 
Q 2384 4250 1959 4250 
Q 1534 4250 1286 3958 
Q 1038 3666 1038 3163 
Q 1038 2656 1286 2365 
Q 1534 2075 1959 2075 
z
" transform="scale(0.015625)"/>
     </defs>
     <use xlink:href="#DejaVuSans-4d"/>
     <use xlink:href="#DejaVuSans-6f" transform="translate(86.279297 0)"/>
     <use xlink:href="#DejaVuSans-64" transform="translate(147.460938 0)"/>
     <use xlink:href="#DejaVuSans-65" transform="translate(210.9375 0)"/>
     <use xlink:href="#DejaVuSans-6c" transform="translate(272.460938 0)"/>
     <use xlink:href="#DejaVuSans-20" transform="translate(300.244141 0)"/>
     <use xlink:href="#DejaVuSans-50" transform="translate(332.03125 0)"/>
     <use xlink:href="#DejaVuSans-72" transform="translate(390.583984 0)"/>
     <use xlink:href="#DejaVuSans-65" transform="translate(429.447266 0)"/>
     <use xlink:href="#DejaVuSans-64" transform="translate(490.970703 0)"/>
     <use xlink:href="#DejaVuSans-69" transform="translate(554.447266 0)"/>
     <use xlink:href="#DejaVuSans-63" transform="translate(582.230469 0)"/>
     <use xlink:href="#DejaVuSans-74" transform="translate(637.210938 0)"/>
     <use xlink:href="#DejaVuSans-65" transform="translate(676.419922 0)"/>
     <use xlink:href="#DejaVuSans-64" transform="translate(737.943359 0)"/>
     <use xlink:href="#DejaVuSans-20" transform="translate(801.419922 0)"/>
     <use xlink:href="#DejaVuSans-76" transform="translate(833.207031 0)"/>
     <use xlink:href="#DejaVuSans-73" transform="translate(892.386719 0)"/>
     <use xlink:href="#DejaVuSans-2e" transform="translate(944.486328 0)"/>
     <use xlink:href="#DejaVuSans-20" transform="translate(976.273438 0)"/>
     <use xlink:href="#DejaVuSans-41" transform="translate(1008.060547 0)"/>
     <use xlink:href="#DejaVuSans-63" transform="translate(1074.71875 0)"/>
     <use xlink:href="#DejaVuSans-74" transform="translate(1129.699219 0)"/>
     <use xlink:href="#DejaVuSans-75" transform="translate(1168.908203 0)"/>
     <use xlink:href="#DejaVuSans-61" transform="translate(1232.287109 0)"/>
     <use xlink:href="#DejaVuSans-6c" transform="translate(1293.566406 0)"/>
     <use xlink:href="#DejaVuSans-20" transform="translate(1321.349609 0)"/>
     <use xlink:href="#DejaVuSans-2d" transform="translate(1353.136719 0)"/>
     <use xlink:href="#DejaVuSans-20" transform="translate(1389.220703 0)"/>
     <use xlink:href="#DejaVuSans-46" transform="translate(1421.007812 0)"/>
     <use xlink:href="#DejaVuSans-75" transform="translate(1473.027344 0)"/>
     <use xlink:href="#DejaVuSans-6c" transform="translate(1536.40625 0)"/>
     <use xlink:href="#DejaVuSans-6c" transform="translate(1564.189453 0)"/>
     <use xlink:href="#DejaVuSans-20" transform="translate(1591.972656 0)"/>
     <use xlink:href="#DejaVuSans-45" transform="translate(1623.759766 0)"/>
     <use xlink:href="#DejaVuSans-6e" transform="translate(1686.943359 0)"/>
     <use xlink:href="#DejaVuSans-73" transform="translate(1750.322266 0)"/>
     <use xlink:href="#DejaVuSans-65" transform="translate(1802.421875 0)"/>
     <use xlink:href="#DejaVuSans-6d" transform="translate(1863.945312 0)"/>
     <use xlink:href="#DejaVuSans-62" transform="translate(1961.357422 0)"/>
     <use xlink:href="#DejaVuSans-6c" transform="translate(2024.833984 0)"/>
     <use xlink:href="#DejaVuSans-65" transform="translate(2052.617188 0)"/>
     <use xlink:href="#DejaVuSans-20" transform="translate(2114.140625 0)"/>
     <use xlink:href="#DejaVuSans-20" transform="translate(2145.927734 0)"/>
     <use xlink:href="#DejaVuSans-4e" transform="translate(2177.714844 0)"/>
     <use xlink:href="#DejaVuSans-3d" transform="translate(2252.519531 0)"/>
     <use xlink:href="#DejaVuSans-31" transform="translate(2336.308594 0)"/>
     <use xlink:href="#DejaVuSans-30" transform="translate(2399.931641 0)"/>
     <use xlink:href="#DejaVuSans-39" transform="translate(2463.554688 0)"/>
    </g>
   </g>
  </g>
 </g>
 <defs>
  <clipPath id="p6a1e00ca7b">
   <rect x="46.878" y="27.168" width="518.754" height="359.844"/>
  </clipPath>
 </defs>
</svg>
