<?xml version="1.0" encoding="utf-8" standalone="no"?>
<!DOCTYPE svg PUBLIC "-//W3C//DTD SVG 1.1//EN"
  "http://www.w3.org/Graphics/SVG/1.1/DTD/svg11.dtd">
<svg xmlns:xlink="http://www.w3.org/1999/xlink" width="720pt" height="504pt" viewBox="0 0 720 504" xmlns="http://www.w3.org/2000/svg" version="1.1">
 <metadata>
  <rdf:RDF xmlns:dc="http://purl.org/dc/elements/1.1/" xmlns:cc="http://creativecommons.org/ns#" xmlns:rdf="http://www.w3.org/1999/02/22-rdf-syntax-ns#">
   <cc:Work>
    <dc:type rdf:resource="http://purl.org/dc/dcmitype/StillImage"/>
    <dc:date>2025-10-25T16:05:45.110806</dc:date>
    <dc:format>image/svg+xml</dc:format>
    <dc:creator>
     <cc:Agent>
      <dc:title>Matplotlib v3.10.0, https://matplotlib.org/</dc:title>
     </cc:Agent>
    </dc:creator>
   </cc:Work>
  </rdf:RDF>
 </metadata>
 <defs>
  <style type="text/css">*{stroke-linejoin: round; stroke-linecap: butt}</style>
 </defs>
 <g id="figure_1">
  <g id="patch_1">
   <path d="M 0 504 
L 720 504 
L 720 0 
L 0 0 
z
" style="fill: #ffffff"/>
  </g>
  <g id="axes_1">
   <g id="patch_2">
    <path d="M 51.648 462.612 
L 709.632 462.612 
L 709.632 27.168 
L 51.648 27.168 
z
" style="fill: #ffffff"/>
   </g>
   <g id="matplotlib.axis_1">
    <g id="xtick_1">
     <g id="text_1">
      <!-- 10 -->
      <g style="fill: #262626" transform="translate(162.272987 477.598625) scale(0.088 -0.088)">
       <defs>
        <path id="DejaVuSans-31" d="M 794 531 
L 1825 531 
L 1825 4091 
L 703 3866 
L 703 4441 
L 1819 4666 
L 2450 4666 
L 2450 531 
L 3481 531 
L 3481 0 
L 794 0 
L 794 531 
z
" transform="scale(0.015625)"/>
        <path id="DejaVuSans-30" d="M 2034 4250 
Q 1547 4250 1301 3770 
Q 1056 3291 1056 2328 
Q 1056 1369 1301 889 
Q 1547 409 2034 409 
Q 2525 409 2770 889 
Q 3016 1369 3016 2328 
Q 3016 3291 2770 3770 
Q 2525 4250 2034 4250 
z
M 2034 4750 
Q 2819 4750 3233 4129 
Q 3647 3509 3647 2328 
Q 3647 1150 3233 529 
Q 2819 -91 2034 -91 
Q 1250 -91 836 529 
Q 422 1150 422 2328 
Q 422 3509 836 4129 
Q 1250 4750 2034 4750 
z
" transform="scale(0.015625)"/>
       </defs>
       <use xlink:href="#DejaVuSans-31"/>
       <use xlink:href="#DejaVuSans-30" transform="translate(63.623047 0)"/>
      </g>
     </g>
    </g>
    <g id="xtick_2">
     <g id="text_2">
      <!-- 20 -->
      <g style="fill: #262626" transform="translate(306.13236 477.598625) scale(0.088 -0.088)">
       <defs>
        <path id="DejaVuSans-32" d="M 1228 531 
L 3431 531 
L 3431 0 
L 469 0 
L 469 531 
Q 828 903 1448 1529 
Q 2069 2156 2228 2338 
Q 2531 2678 2651 2914 
Q 2772 3150 2772 3378 
Q 2772 3750 2511 3984 
Q 2250 4219 1831 4219 
Q 1534 4219 1204 4116 
Q 875 4013 500 3803 
L 500 4441 
Q 881 4594 1212 4672 
Q 1544 4750 1819 4750 
Q 2544 4750 2975 4387 
Q 3406 4025 3406 3419 
Q 3406 3131 3298 2873 
Q 3191 2616 2906 2266 
Q 2828 2175 2409 1742 
Q 1991 1309 1228 531 
z
" transform="scale(0.015625)"/>
       </defs>
       <use xlink:href="#DejaVuSans-32"/>
       <use xlink:href="#DejaVuSans-30" transform="translate(63.623047 0)"/>
      </g>
     </g>
    </g>
    <g id="xtick_3">
     <g id="text_3">
      <!-- 30 -->
      <g style="fill: #262626" transform="translate(449.991733 477.598625) scale(0.088 -0.088)">
       <defs>
        <path id="DejaVuSans-33" d="M 2597 2516 
Q 3050 2419 3304 2112 
Q 3559 1806 3559 1356 
Q 3559 666 3084 287 
Q 2609 -91 1734 -91 
Q 1441 -91 1130 -33 
Q 819 25 488 141 
L 488 750 
Q 750 597 1062 519 
Q 1375 441 1716 441 
Q 2309 441 2620 675 
Q 2931 909 2931 1356 
Q 2931 1769 2642 2001 
Q 2353 2234 1838 2234 
L 1294 2234 
L 1294 2753 
L 1863 2753 
Q 2328 2753 2575 2939 
Q 2822 3125 2822 3475 
Q 2822 3834 2567 4026 
Q 2313 4219 1838 4219 
Q 1578 4219 1281 4162 
Q 984 4106 628 3988 
L 628 4550 
Q 988 4650 1302 4700 
Q 1616 4750 1894 4750 
Q 2613 4750 3031 4423 
Q 3450 4097 3450 3541 
Q 3450 3153 3228 2886 
Q 3006 2619 2597 2516 
z
" transform="scale(0.015625)"/>
       </defs>
       <use xlink:href="#DejaVuSans-33"/>
       <use xlink:href="#DejaVuSans-30" transform="translate(63.623047 0)"/>
      </g>
     </g>
    </g>
    <g id="xtick_4">
     <g id="text_4">
      <!-- 40 -->
      <g style="fill: #262626" transform="translate(593.851106 477.598625) scale(0.088 -0.088)">
       <defs>
        <path id="DejaVuSans-34" d="M 2419 4116 
L 825 1625 
L 2419 1625 
L 2419 4116 
z
M 2253 4666 
L 3047 4666 
L 3047 1625 
L 3713 1625 
L 3713 1100 
L 3047 1100 
L 3047 0 
L 2419 0 
L 2419 1100 
L 313 1100 
L 313 1709 
L 2253 4666 
z
" transform="scale(0.015625)"/>
       </defs>
       <use xlink:href="#DejaVuSans-34"/>
       <use xlink:href="#DejaVuSans-30" transform="translate(63.623047 0)"/>
      </g>
     </g>
    </g>
    <g id="text_5">
     <!-- UPDRS On -->
     <g style="fill: #262626" transform="translate(355.80825 490.72325) scale(0.096 -0.096)">
      <defs>
       <path id="DejaVuSans-55" d="M 556 4666 
L 1191 4666 
L 1191 1831 
Q 1191 1081 1462 751 
Q 1734 422 2344 422 
Q 2950 422 3222 751 
Q 3494 1081 3494 1831 
L 3494 4666 
L 4128 4666 
L 4128 1753 
Q 4128 841 3676 375 
Q 3225 -91 2344 -91 
Q 1459 -91 1007 375 
Q 556 841 556 1753 
L 556 4666 
z
" transform="scale(0.015625)"/>
       <path id="DejaVuSans-50" d="M 1259 4147 
L 1259 2394 
L 2053 2394 
Q 2494 2394 2734 2622 
Q 2975 2850 2975 3272 
Q 2975 3691 2734 3919 
Q 2494 4147 2053 4147 
L 1259 4147 
z
M 628 4666 
L 2053 4666 
Q 2838 4666 3239 4311 
Q 3641 3956 3641 3272 
Q 3641 2581 3239 2228 
Q 2838 1875 2053 1875 
L 1259 1875 
L 1259 0 
L 628 0 
L 628 4666 
z
" transform="scale(0.015625)"/>
       <path id="DejaVuSans-44" d="M 1259 4147 
L 1259 519 
L 2022 519 
Q 2988 519 3436 956 
Q 3884 1394 3884 2338 
Q 3884 3275 3436 3711 
Q 2988 4147 2022 4147 
L 1259 4147 
z
M 628 4666 
L 1925 4666 
Q 3281 4666 3915 4102 
Q 4550 3538 4550 2338 
Q 4550 1131 3912 565 
Q 3275 0 1925 0 
L 628 0 
L 628 4666 
z
" transform="scale(0.015625)"/>
       <path id="DejaVuSans-52" d="M 2841 2188 
Q 3044 2119 3236 1894 
Q 3428 1669 3622 1275 
L 4263 0 
L 3584 0 
L 2988 1197 
Q 2756 1666 2539 1819 
Q 2322 1972 1947 1972 
L 1259 1972 
L 1259 0 
L 628 0 
L 628 4666 
L 2053 4666 
Q 2853 4666 3247 4331 
Q 3641 3997 3641 3322 
Q 3641 2881 3436 2590 
Q 3231 2300 2841 2188 
z
M 1259 4147 
L 1259 2491 
L 2053 2491 
Q 2509 2491 2742 2702 
Q 2975 2913 2975 3322 
Q 2975 3731 2742 3939 
Q 2509 4147 2053 4147 
L 1259 4147 
z
" transform="scale(0.015625)"/>
       <path id="DejaVuSans-53" d="M 3425 4513 
L 3425 3897 
Q 3066 4069 2747 4153 
Q 2428 4238 2131 4238 
Q 1616 4238 1336 4038 
Q 1056 3838 1056 3469 
Q 1056 3159 1242 3001 
Q 1428 2844 1947 2747 
L 2328 2669 
Q 3034 2534 3370 2195 
Q 3706 1856 3706 1288 
Q 3706 609 3251 259 
Q 2797 -91 1919 -91 
Q 1588 -91 1214 -16 
Q 841 59 441 206 
L 441 856 
Q 825 641 1194 531 
Q 1563 422 1919 422 
Q 2459 422 2753 634 
Q 3047 847 3047 1241 
Q 3047 1584 2836 1778 
Q 2625 1972 2144 2069 
L 1759 2144 
Q 1053 2284 737 2584 
Q 422 2884 422 3419 
Q 422 4038 858 4394 
Q 1294 4750 2059 4750 
Q 2388 4750 2728 4690 
Q 3069 4631 3425 4513 
z
" transform="scale(0.015625)"/>
       <path id="DejaVuSans-20" transform="scale(0.015625)"/>
       <path id="DejaVuSans-4f" d="M 2522 4238 
Q 1834 4238 1429 3725 
Q 1025 3213 1025 2328 
Q 1025 1447 1429 934 
Q 1834 422 2522 422 
Q 3209 422 3611 934 
Q 4013 1447 4013 2328 
Q 4013 3213 3611 3725 
Q 3209 4238 2522 4238 
z
M 2522 4750 
Q 3503 4750 4090 4092 
Q 4678 3434 4678 2328 
Q 4678 1225 4090 567 
Q 3503 -91 2522 -91 
Q 1538 -91 948 565 
Q 359 1222 359 2328 
Q 359 3434 948 4092 
Q 1538 4750 2522 4750 
z
" transform="scale(0.015625)"/>
       <path id="DejaVuSans-6e" d="M 3513 2113 
L 3513 0 
L 2938 0 
L 2938 2094 
Q 2938 2591 2744 2837 
Q 2550 3084 2163 3084 
Q 1697 3084 1428 2787 
Q 1159 2491 1159 1978 
L 1159 0 
L 581 0 
L 581 3500 
L 1159 3500 
L 1159 2956 
Q 1366 3272 1645 3428 
Q 1925 3584 2291 3584 
Q 2894 3584 3203 3211 
Q 3513 2838 3513 2113 
z
" transform="scale(0.015625)"/>
      </defs>
      <use xlink:href="#DejaVuSans-55"/>
      <use xlink:href="#DejaVuSans-50" transform="translate(73.193359 0)"/>
      <use xlink:href="#DejaVuSans-44" transform="translate(133.496094 0)"/>
      <use xlink:href="#DejaVuSans-52" transform="translate(210.498047 0)"/>
      <use xlink:href="#DejaVuSans-53" transform="translate(279.980469 0)"/>
      <use xlink:href="#DejaVuSans-20" transform="translate(343.457031 0)"/>
      <use xlink:href="#DejaVuSans-4f" transform="translate(375.244141 0)"/>
      <use xlink:href="#DejaVuSans-6e" transform="translate(453.955078 0)"/>
     </g>
    </g>
   </g>
   <g id="matplotlib.axis_2">
    <g id="ytick_1">
     <g id="text_6">
      <!-- 0.0 -->
      <g style="fill: #262626" transform="translate(29.35325 465.955312) scale(0.088 -0.088)">
       <defs>
        <path id="DejaVuSans-2e" d="M 684 794 
L 1344 794 
L 1344 0 
L 684 0 
L 684 794 
z
" transform="scale(0.015625)"/>
       </defs>
       <use xlink:href="#DejaVuSans-30"/>
       <use xlink:href="#DejaVuSans-2e" transform="translate(63.623047 0)"/>
       <use xlink:href="#DejaVuSans-30" transform="translate(95.410156 0)"/>
      </g>
     </g>
    </g>
    <g id="ytick_2">
     <g id="text_7">
      <!-- 2.5 -->
      <g style="fill: #262626" transform="translate(29.35325 408.3569) scale(0.088 -0.088)">
       <defs>
        <path id="DejaVuSans-35" d="M 691 4666 
L 3169 4666 
L 3169 4134 
L 1269 4134 
L 1269 2991 
Q 1406 3038 1543 3061 
Q 1681 3084 1819 3084 
Q 2600 3084 3056 2656 
Q 3513 2228 3513 1497 
Q 3513 744 3044 326 
Q 2575 -91 1722 -91 
Q 1428 -91 1123 -41 
Q 819 9 494 109 
L 494 744 
Q 775 591 1075 516 
Q 1375 441 1709 441 
Q 2250 441 2565 725 
Q 2881 1009 2881 1497 
Q 2881 1984 2565 2268 
Q 2250 2553 1709 2553 
Q 1456 2553 1204 2497 
Q 953 2441 691 2322 
L 691 4666 
z
" transform="scale(0.015625)"/>
       </defs>
       <use xlink:href="#DejaVuSans-32"/>
       <use xlink:href="#DejaVuSans-2e" transform="translate(63.623047 0)"/>
       <use xlink:href="#DejaVuSans-35" transform="translate(95.410156 0)"/>
      </g>
     </g>
    </g>
    <g id="ytick_3">
     <g id="text_8">
      <!-- 5.0 -->
      <g style="fill: #262626" transform="translate(29.35325 350.758487) scale(0.088 -0.088)">
       <use xlink:href="#DejaVuSans-35"/>
       <use xlink:href="#DejaVuSans-2e" transform="translate(63.623047 0)"/>
       <use xlink:href="#DejaVuSans-30" transform="translate(95.410156 0)"/>
      </g>
     </g>
    </g>
    <g id="ytick_4">
     <g id="text_9">
      <!-- 7.5 -->
      <g style="fill: #262626" transform="translate(29.35325 293.160074) scale(0.088 -0.088)">
       <defs>
        <path id="DejaVuSans-37" d="M 525 4666 
L 3525 4666 
L 3525 4397 
L 1831 0 
L 1172 0 
L 2766 4134 
L 525 4134 
L 525 4666 
z
" transform="scale(0.015625)"/>
       </defs>
       <use xlink:href="#DejaVuSans-37"/>
       <use xlink:href="#DejaVuSans-2e" transform="translate(63.623047 0)"/>
       <use xlink:href="#DejaVuSans-35" transform="translate(95.410156 0)"/>
      </g>
     </g>
    </g>
    <g id="ytick_5">
     <g id="text_10">
      <!-- 10.0 -->
      <g style="fill: #262626" transform="translate(23.75425 235.561662) scale(0.088 -0.088)">
       <use xlink:href="#DejaVuSans-31"/>
       <use xlink:href="#DejaVuSans-30" transform="translate(63.623047 0)"/>
       <use xlink:href="#DejaVuSans-2e" transform="translate(127.246094 0)"/>
       <use xlink:href="#DejaVuSans-30" transform="translate(159.033203 0)"/>
      </g>
     </g>
    </g>
    <g id="ytick_6">
     <g id="text_11">
      <!-- 12.5 -->
      <g style="fill: #262626" transform="translate(23.75425 177.963249) scale(0.088 -0.088)">
       <use xlink:href="#DejaVuSans-31"/>
       <use xlink:href="#DejaVuSans-32" transform="translate(63.623047 0)"/>
       <use xlink:href="#DejaVuSans-2e" transform="translate(127.246094 0)"/>
       <use xlink:href="#DejaVuSans-35" transform="translate(159.033203 0)"/>
      </g>
     </g>
    </g>
    <g id="ytick_7">
     <g id="text_12">
      <!-- 15.0 -->
      <g style="fill: #262626" transform="translate(23.75425 120.364836) scale(0.088 -0.088)">
       <use xlink:href="#DejaVuSans-31"/>
       <use xlink:href="#DejaVuSans-35" transform="translate(63.623047 0)"/>
       <use xlink:href="#DejaVuSans-2e" transform="translate(127.246094 0)"/>
       <use xlink:href="#DejaVuSans-30" transform="translate(159.033203 0)"/>
      </g>
     </g>
    </g>
    <g id="ytick_8">
     <g id="text_13">
      <!-- 17.5 -->
      <g style="fill: #262626" transform="translate(23.75425 62.766424) scale(0.088 -0.088)">
       <use xlink:href="#DejaVuSans-31"/>
       <use xlink:href="#DejaVuSans-37" transform="translate(63.623047 0)"/>
       <use xlink:href="#DejaVuSans-2e" transform="translate(127.246094 0)"/>
       <use xlink:href="#DejaVuSans-35" transform="translate(159.033203 0)"/>
      </g>
     </g>
    </g>
    <g id="text_14">
     <!-- Frequency -->
     <g style="fill: #262626" transform="translate(17.75775 269.6865) rotate(-90) scale(0.096 -0.096)">
      <defs>
       <path id="DejaVuSans-46" d="M 628 4666 
L 3309 4666 
L 3309 4134 
L 1259 4134 
L 1259 2759 
L 3109 2759 
L 3109 2228 
L 1259 2228 
L 1259 0 
L 628 0 
L 628 4666 
z
" transform="scale(0.015625)"/>
       <path id="DejaVuSans-72" d="M 2631 2963 
Q 2534 3019 2420 3045 
Q 2306 3072 2169 3072 
Q 1681 3072 1420 2755 
Q 1159 2438 1159 1844 
L 1159 0 
L 581 0 
L 581 3500 
L 1159 3500 
L 1159 2956 
Q 1341 3275 1631 3429 
Q 1922 3584 2338 3584 
Q 2397 3584 2469 3576 
Q 2541 3569 2628 3553 
L 2631 2963 
z
" transform="scale(0.015625)"/>
       <path id="DejaVuSans-65" d="M 3597 1894 
L 3597 1613 
L 953 1613 
Q 991 1019 1311 708 
Q 1631 397 2203 397 
Q 2534 397 2845 478 
Q 3156 559 3463 722 
L 3463 178 
Q 3153 47 2828 -22 
Q 2503 -91 2169 -91 
Q 1331 -91 842 396 
Q 353 884 353 1716 
Q 353 2575 817 3079 
Q 1281 3584 2069 3584 
Q 2775 3584 3186 3129 
Q 3597 2675 3597 1894 
z
M 3022 2063 
Q 3016 2534 2758 2815 
Q 2500 3097 2075 3097 
Q 1594 3097 1305 2825 
Q 1016 2553 972 2059 
L 3022 2063 
z
" transform="scale(0.015625)"/>
       <path id="DejaVuSans-71" d="M 947 1747 
Q 947 1113 1208 752 
Q 1469 391 1925 391 
Q 2381 391 2643 752 
Q 2906 1113 2906 1747 
Q 2906 2381 2643 2742 
Q 2381 3103 1925 3103 
Q 1469 3103 1208 2742 
Q 947 2381 947 1747 
z
M 2906 525 
Q 2725 213 2448 61 
Q 2172 -91 1784 -91 
Q 1150 -91 751 415 
Q 353 922 353 1747 
Q 353 2572 751 3078 
Q 1150 3584 1784 3584 
Q 2172 3584 2448 3432 
Q 2725 3281 2906 2969 
L 2906 3500 
L 3481 3500 
L 3481 -1331 
L 2906 -1331 
L 2906 525 
z
" transform="scale(0.015625)"/>
       <path id="DejaVuSans-75" d="M 544 1381 
L 544 3500 
L 1119 3500 
L 1119 1403 
Q 1119 906 1312 657 
Q 1506 409 1894 409 
Q 2359 409 2629 706 
Q 2900 1003 2900 1516 
L 2900 3500 
L 3475 3500 
L 3475 0 
L 2900 0 
L 2900 538 
Q 2691 219 2414 64 
Q 2138 -91 1772 -91 
Q 1169 -91 856 284 
Q 544 659 544 1381 
z
M 1991 3584 
L 1991 3584 
z
" transform="scale(0.015625)"/>
       <path id="DejaVuSans-63" d="M 3122 3366 
L 3122 2828 
Q 2878 2963 2633 3030 
Q 2388 3097 2138 3097 
Q 1578 3097 1268 2742 
Q 959 2388 959 1747 
Q 959 1106 1268 751 
Q 1578 397 2138 397 
Q 2388 397 2633 464 
Q 2878 531 3122 666 
L 3122 134 
Q 2881 22 2623 -34 
Q 2366 -91 2075 -91 
Q 1284 -91 818 406 
Q 353 903 353 1747 
Q 353 2603 823 3093 
Q 1294 3584 2113 3584 
Q 2378 3584 2631 3529 
Q 2884 3475 3122 3366 
z
" transform="scale(0.015625)"/>
       <path id="DejaVuSans-79" d="M 2059 -325 
Q 1816 -950 1584 -1140 
Q 1353 -1331 966 -1331 
L 506 -1331 
L 506 -850 
L 844 -850 
Q 1081 -850 1212 -737 
Q 1344 -625 1503 -206 
L 1606 56 
L 191 3500 
L 800 3500 
L 1894 763 
L 2988 3500 
L 3597 3500 
L 2059 -325 
z
" transform="scale(0.015625)"/>
      </defs>
      <use xlink:href="#DejaVuSans-46"/>
      <use xlink:href="#DejaVuSans-72" transform="translate(50.269531 0)"/>
      <use xlink:href="#DejaVuSans-65" transform="translate(89.132812 0)"/>
      <use xlink:href="#DejaVuSans-71" transform="translate(150.65625 0)"/>
      <use xlink:href="#DejaVuSans-75" transform="translate(214.132812 0)"/>
      <use xlink:href="#DejaVuSans-65" transform="translate(277.511719 0)"/>
      <use xlink:href="#DejaVuSans-6e" transform="translate(339.035156 0)"/>
      <use xlink:href="#DejaVuSans-63" transform="translate(402.414062 0)"/>
      <use xlink:href="#DejaVuSans-79" transform="translate(457.394531 0)"/>
     </g>
    </g>
   </g>
   <g id="patch_3">
    <path d="M 81.556364 462.612 
L 102.182821 462.612 
L 102.182821 462.612 
L 81.556364 462.612 
z
" clip-path="url(#p1642b6b270)" style="fill: #ff5714; opacity: 0.7; stroke: #8a3210; stroke-width: 1.5; stroke-linejoin: miter"/>
   </g>
   <g id="patch_4">
    <path d="M 102.182821 462.612 
L 122.809279 462.612 
L 122.809279 462.612 
L 102.182821 462.612 
z
" clip-path="url(#p1642b6b270)" style="fill: #ff5714; opacity: 0.7; stroke: #8a3210; stroke-width: 1.5; stroke-linejoin: miter"/>
   </g>
   <g id="patch_5">
    <path d="M 122.809279 462.612 
L 143.435737 462.612 
L 143.435737 462.612 
L 122.809279 462.612 
z
" clip-path="url(#p1642b6b270)" style="fill: #ff5714; opacity: 0.7; stroke: #8a3210; stroke-width: 1.5; stroke-linejoin: miter"/>
   </g>
   <g id="patch_6">
    <path d="M 143.435737 462.612 
L 164.062194 462.612 
L 164.062194 462.612 
L 143.435737 462.612 
z
" clip-path="url(#p1642b6b270)" style="fill: #ff5714; opacity: 0.7; stroke: #8a3210; stroke-width: 1.5; stroke-linejoin: miter"/>
   </g>
   <g id="patch_7">
    <path d="M 164.062194 462.612 
L 184.688652 462.612 
L 184.688652 462.612 
L 164.062194 462.612 
z
" clip-path="url(#p1642b6b270)" style="fill: #ff5714; opacity: 0.7; stroke: #8a3210; stroke-width: 1.5; stroke-linejoin: miter"/>
   </g>
   <g id="patch_8">
    <path d="M 184.688652 462.612 
L 205.31511 462.612 
L 205.31511 462.612 
L 184.688652 462.612 
z
" clip-path="url(#p1642b6b270)" style="fill: #ff5714; opacity: 0.7; stroke: #8a3210; stroke-width: 1.5; stroke-linejoin: miter"/>
   </g>
   <g id="patch_9">
    <path d="M 205.31511 462.612 
L 225.941567 462.612 
L 225.941567 462.612 
L 205.31511 462.612 
z
" clip-path="url(#p1642b6b270)" style="fill: #ff5714; opacity: 0.7; stroke: #8a3210; stroke-width: 1.5; stroke-linejoin: miter"/>
   </g>
   <g id="patch_10">
    <path d="M 225.941567 462.612 
L 246.568025 462.612 
L 246.568025 462.612 
L 225.941567 462.612 
z
" clip-path="url(#p1642b6b270)" style="fill: #ff5714; opacity: 0.7; stroke: #8a3210; stroke-width: 1.5; stroke-linejoin: miter"/>
   </g>
   <g id="patch_11">
    <path d="M 246.568025 462.612 
L 267.194483 462.612 
L 267.194483 462.612 
L 246.568025 462.612 
z
" clip-path="url(#p1642b6b270)" style="fill: #ff5714; opacity: 0.7; stroke: #8a3210; stroke-width: 1.5; stroke-linejoin: miter"/>
   </g>
   <g id="patch_12">
    <path d="M 267.194483 462.612 
L 287.82094 462.612 
L 287.82094 462.612 
L 267.194483 462.612 
z
" clip-path="url(#p1642b6b270)" style="fill: #ff5714; opacity: 0.7; stroke: #8a3210; stroke-width: 1.5; stroke-linejoin: miter"/>
   </g>
   <g id="patch_13">
    <path d="M 287.82094 462.612 
L 308.447398 462.612 
L 308.447398 462.612 
L 287.82094 462.612 
z
" clip-path="url(#p1642b6b270)" style="fill: #ff5714; opacity: 0.7; stroke: #8a3210; stroke-width: 1.5; stroke-linejoin: miter"/>
   </g>
   <g id="patch_14">
    <path d="M 308.447398 462.612 
L 329.073856 462.612 
L 329.073856 370.45454 
L 308.447398 370.45454 
z
" clip-path="url(#p1642b6b270)" style="fill: #ff5714; opacity: 0.7; stroke: #8a3210; stroke-width: 1.5; stroke-linejoin: miter"/>
   </g>
   <g id="patch_15">
    <path d="M 329.073856 462.612 
L 349.700313 462.612 
L 349.700313 209.178984 
L 329.073856 209.178984 
z
" clip-path="url(#p1642b6b270)" style="fill: #ff5714; opacity: 0.7; stroke: #8a3210; stroke-width: 1.5; stroke-linejoin: miter"/>
   </g>
   <g id="patch_16">
    <path d="M 349.700313 462.612 
L 370.326771 462.612 
L 370.326771 255.257714 
L 349.700313 255.257714 
z
" clip-path="url(#p1642b6b270)" style="fill: #ff5714; opacity: 0.7; stroke: #8a3210; stroke-width: 1.5; stroke-linejoin: miter"/>
   </g>
   <g id="patch_17">
    <path d="M 370.326771 462.612 
L 390.953229 462.612 
L 390.953229 255.257714 
L 370.326771 255.257714 
z
" clip-path="url(#p1642b6b270)" style="fill: #ff5714; opacity: 0.7; stroke: #8a3210; stroke-width: 1.5; stroke-linejoin: miter"/>
   </g>
   <g id="patch_18">
    <path d="M 390.953229 462.612 
L 411.579687 462.612 
L 411.579687 347.415175 
L 390.953229 347.415175 
z
" clip-path="url(#p1642b6b270)" style="fill: #ff5714; opacity: 0.7; stroke: #8a3210; stroke-width: 1.5; stroke-linejoin: miter"/>
   </g>
   <g id="patch_19">
    <path d="M 411.579687 462.612 
L 432.206144 462.612 
L 432.206144 255.257714 
L 411.579687 255.257714 
z
" clip-path="url(#p1642b6b270)" style="fill: #ff5714; opacity: 0.7; stroke: #8a3210; stroke-width: 1.5; stroke-linejoin: miter"/>
   </g>
   <g id="patch_20">
    <path d="M 432.206144 462.612 
L 452.832602 462.612 
L 452.832602 393.493905 
L 432.206144 393.493905 
z
" clip-path="url(#p1642b6b270)" style="fill: #ff5714; opacity: 0.7; stroke: #8a3210; stroke-width: 1.5; stroke-linejoin: miter"/>
   </g>
   <g id="patch_21">
    <path d="M 452.832602 462.612 
L 473.45906 462.612 
L 473.45906 370.45454 
L 452.832602 370.45454 
z
" clip-path="url(#p1642b6b270)" style="fill: #ff5714; opacity: 0.7; stroke: #8a3210; stroke-width: 1.5; stroke-linejoin: miter"/>
   </g>
   <g id="patch_22">
    <path d="M 473.45906 462.612 
L 494.085517 462.612 
L 494.085517 416.53327 
L 473.45906 416.53327 
z
" clip-path="url(#p1642b6b270)" style="fill: #ff5714; opacity: 0.7; stroke: #8a3210; stroke-width: 1.5; stroke-linejoin: miter"/>
   </g>
   <g id="patch_23">
    <path d="M 494.085517 462.612 
L 514.711975 462.612 
L 514.711975 301.336444 
L 494.085517 301.336444 
z
" clip-path="url(#p1642b6b270)" style="fill: #ff5714; opacity: 0.7; stroke: #8a3210; stroke-width: 1.5; stroke-linejoin: miter"/>
   </g>
   <g id="patch_24">
    <path d="M 514.711975 462.612 
L 535.338433 462.612 
L 535.338433 393.493905 
L 514.711975 393.493905 
z
" clip-path="url(#p1642b6b270)" style="fill: #ff5714; opacity: 0.7; stroke: #8a3210; stroke-width: 1.5; stroke-linejoin: miter"/>
   </g>
   <g id="patch_25">
    <path d="M 535.338433 462.612 
L 555.96489 462.612 
L 555.96489 347.415175 
L 535.338433 347.415175 
z
" clip-path="url(#p1642b6b270)" style="fill: #ff5714; opacity: 0.7; stroke: #8a3210; stroke-width: 1.5; stroke-linejoin: miter"/>
   </g>
   <g id="patch_26">
    <path d="M 555.96489 462.612 
L 576.591348 462.612 
L 576.591348 416.53327 
L 555.96489 416.53327 
z
" clip-path="url(#p1642b6b270)" style="fill: #ff5714; opacity: 0.7; stroke: #8a3210; stroke-width: 1.5; stroke-linejoin: miter"/>
   </g>
   <g id="patch_27">
    <path d="M 576.591348 462.612 
L 597.217806 462.612 
L 597.217806 439.572635 
L 576.591348 439.572635 
z
" clip-path="url(#p1642b6b270)" style="fill: #ff5714; opacity: 0.7; stroke: #8a3210; stroke-width: 1.5; stroke-linejoin: miter"/>
   </g>
   <g id="patch_28">
    <path d="M 597.217806 462.612 
L 617.844263 462.612 
L 617.844263 393.493905 
L 597.217806 393.493905 
z
" clip-path="url(#p1642b6b270)" style="fill: #ff5714; opacity: 0.7; stroke: #8a3210; stroke-width: 1.5; stroke-linejoin: miter"/>
   </g>
   <g id="patch_29">
    <path d="M 617.844263 462.612 
L 638.470721 462.612 
L 638.470721 462.612 
L 617.844263 462.612 
z
" clip-path="url(#p1642b6b270)" style="fill: #ff5714; opacity: 0.7; stroke: #8a3210; stroke-width: 1.5; stroke-linejoin: miter"/>
   </g>
   <g id="patch_30">
    <path d="M 638.470721 462.612 
L 659.097179 462.612 
L 659.097179 416.53327 
L 638.470721 416.53327 
z
" clip-path="url(#p1642b6b270)" style="fill: #ff5714; opacity: 0.7; stroke: #8a3210; stroke-width: 1.5; stroke-linejoin: miter"/>
   </g>
   <g id="patch_31">
    <path d="M 659.097179 462.612 
L 679.723636 462.612 
L 679.723636 416.53327 
L 659.097179 416.53327 
z
" clip-path="url(#p1642b6b270)" style="fill: #ff5714; opacity: 0.7; stroke: #8a3210; stroke-width: 1.5; stroke-linejoin: miter"/>
   </g>
   <g id="patch_32">
    <path d="M 81.556364 462.612 
L 102.182821 462.612 
L 102.182821 347.415175 
L 81.556364 347.415175 
z
" clip-path="url(#p1642b6b270)" style="fill: #04e762; opacity: 0.7; stroke: #007c34; stroke-width: 1.5; stroke-linejoin: miter"/>
   </g>
   <g id="patch_33">
    <path d="M 102.182821 462.612 
L 122.809279 462.612 
L 122.809279 416.53327 
L 102.182821 416.53327 
z
" clip-path="url(#p1642b6b270)" style="fill: #04e762; opacity: 0.7; stroke: #007c34; stroke-width: 1.5; stroke-linejoin: miter"/>
   </g>
   <g id="patch_34">
    <path d="M 122.809279 462.612 
L 143.435737 462.612 
L 143.435737 255.257714 
L 122.809279 255.257714 
z
" clip-path="url(#p1642b6b270)" style="fill: #04e762; opacity: 0.7; stroke: #007c34; stroke-width: 1.5; stroke-linejoin: miter"/>
   </g>
   <g id="patch_35">
    <path d="M 143.435737 462.612 
L 164.062194 462.612 
L 164.062194 347.415175 
L 143.435737 347.415175 
z
" clip-path="url(#p1642b6b270)" style="fill: #04e762; opacity: 0.7; stroke: #007c34; stroke-width: 1.5; stroke-linejoin: miter"/>
   </g>
   <g id="patch_36">
    <path d="M 164.062194 462.612 
L 184.688652 462.612 
L 184.688652 301.336444 
L 164.062194 301.336444 
z
" clip-path="url(#p1642b6b270)" style="fill: #04e762; opacity: 0.7; stroke: #007c34; stroke-width: 1.5; stroke-linejoin: miter"/>
   </g>
   <g id="patch_37">
    <path d="M 184.688652 462.612 
L 205.31511 462.612 
L 205.31511 347.415175 
L 184.688652 347.415175 
z
" clip-path="url(#p1642b6b270)" style="fill: #04e762; opacity: 0.7; stroke: #007c34; stroke-width: 1.5; stroke-linejoin: miter"/>
   </g>
   <g id="patch_38">
    <path d="M 205.31511 462.612 
L 225.941567 462.612 
L 225.941567 209.178984 
L 205.31511 209.178984 
z
" clip-path="url(#p1642b6b270)" style="fill: #04e762; opacity: 0.7; stroke: #007c34; stroke-width: 1.5; stroke-linejoin: miter"/>
   </g>
   <g id="patch_39">
    <path d="M 225.941567 462.612 
L 246.568025 462.612 
L 246.568025 324.37581 
L 225.941567 324.37581 
z
" clip-path="url(#p1642b6b270)" style="fill: #04e762; opacity: 0.7; stroke: #007c34; stroke-width: 1.5; stroke-linejoin: miter"/>
   </g>
   <g id="patch_40">
    <path d="M 246.568025 462.612 
L 267.194483 462.612 
L 267.194483 324.37581 
L 246.568025 324.37581 
z
" clip-path="url(#p1642b6b270)" style="fill: #04e762; opacity: 0.7; stroke: #007c34; stroke-width: 1.5; stroke-linejoin: miter"/>
   </g>
   <g id="patch_41">
    <path d="M 267.194483 462.612 
L 287.82094 462.612 
L 287.82094 47.903429 
L 267.194483 47.903429 
z
" clip-path="url(#p1642b6b270)" style="fill: #04e762; opacity: 0.7; stroke: #007c34; stroke-width: 1.5; stroke-linejoin: miter"/>
   </g>
   <g id="patch_42">
    <path d="M 287.82094 462.612 
L 308.447398 462.612 
L 308.447398 393.493905 
L 287.82094 393.493905 
z
" clip-path="url(#p1642b6b270)" style="fill: #04e762; opacity: 0.7; stroke: #007c34; stroke-width: 1.5; stroke-linejoin: miter"/>
   </g>
   <g id="patch_43">
    <path d="M 308.447398 462.612 
L 329.073856 462.612 
L 329.073856 278.297079 
L 308.447398 278.297079 
z
" clip-path="url(#p1642b6b270)" style="fill: #04e762; opacity: 0.7; stroke: #007c34; stroke-width: 1.5; stroke-linejoin: miter"/>
   </g>
   <g id="patch_44">
    <path d="M 329.073856 462.612 
L 349.700313 462.612 
L 349.700313 416.53327 
L 329.073856 416.53327 
z
" clip-path="url(#p1642b6b270)" style="fill: #04e762; opacity: 0.7; stroke: #007c34; stroke-width: 1.5; stroke-linejoin: miter"/>
   </g>
   <g id="patch_45">
    <path d="M 349.700313 462.612 
L 370.326771 462.612 
L 370.326771 462.612 
L 349.700313 462.612 
z
" clip-path="url(#p1642b6b270)" style="fill: #04e762; opacity: 0.7; stroke: #007c34; stroke-width: 1.5; stroke-linejoin: miter"/>
   </g>
   <g id="patch_46">
    <path d="M 370.326771 462.612 
L 390.953229 462.612 
L 390.953229 462.612 
L 370.326771 462.612 
z
" clip-path="url(#p1642b6b270)" style="fill: #04e762; opacity: 0.7; stroke: #007c34; stroke-width: 1.5; stroke-linejoin: miter"/>
   </g>
   <g id="patch_47">
    <path d="M 390.953229 462.612 
L 411.579687 462.612 
L 411.579687 462.612 
L 390.953229 462.612 
z
" clip-path="url(#p1642b6b270)" style="fill: #04e762; opacity: 0.7; stroke: #007c34; stroke-width: 1.5; stroke-linejoin: miter"/>
   </g>
   <g id="patch_48">
    <path d="M 411.579687 462.612 
L 432.206144 462.612 
L 432.206144 462.612 
L 411.579687 462.612 
z
" clip-path="url(#p1642b6b270)" style="fill: #04e762; opacity: 0.7; stroke: #007c34; stroke-width: 1.5; stroke-linejoin: miter"/>
   </g>
   <g id="patch_49">
    <path d="M 432.206144 462.612 
L 452.832602 462.612 
L 452.832602 462.612 
L 432.206144 462.612 
z
" clip-path="url(#p1642b6b270)" style="fill: #04e762; opacity: 0.7; stroke: #007c34; stroke-width: 1.5; stroke-linejoin: miter"/>
   </g>
   <g id="patch_50">
    <path d="M 452.832602 462.612 
L 473.45906 462.612 
L 473.45906 462.612 
L 452.832602 462.612 
z
" clip-path="url(#p1642b6b270)" style="fill: #04e762; opacity: 0.7; stroke: #007c34; stroke-width: 1.5; stroke-linejoin: miter"/>
   </g>
   <g id="patch_51">
    <path d="M 473.45906 462.612 
L 494.085517 462.612 
L 494.085517 462.612 
L 473.45906 462.612 
z
" clip-path="url(#p1642b6b270)" style="fill: #04e762; opacity: 0.7; stroke: #007c34; stroke-width: 1.5; stroke-linejoin: miter"/>
   </g>
   <g id="patch_52">
    <path d="M 494.085517 462.612 
L 514.711975 462.612 
L 514.711975 462.612 
L 494.085517 462.612 
z
" clip-path="url(#p1642b6b270)" style="fill: #04e762; opacity: 0.7; stroke: #007c34; stroke-width: 1.5; stroke-linejoin: miter"/>
   </g>
   <g id="patch_53">
    <path d="M 514.711975 462.612 
L 535.338433 462.612 
L 535.338433 462.612 
L 514.711975 462.612 
z
" clip-path="url(#p1642b6b270)" style="fill: #04e762; opacity: 0.7; stroke: #007c34; stroke-width: 1.5; stroke-linejoin: miter"/>
   </g>
   <g id="patch_54">
    <path d="M 535.338433 462.612 
L 555.96489 462.612 
L 555.96489 462.612 
L 535.338433 462.612 
z
" clip-path="url(#p1642b6b270)" style="fill: #04e762; opacity: 0.7; stroke: #007c34; stroke-width: 1.5; stroke-linejoin: miter"/>
   </g>
   <g id="patch_55">
    <path d="M 555.96489 462.612 
L 576.591348 462.612 
L 576.591348 462.612 
L 555.96489 462.612 
z
" clip-path="url(#p1642b6b270)" style="fill: #04e762; opacity: 0.7; stroke: #007c34; stroke-width: 1.5; stroke-linejoin: miter"/>
   </g>
   <g id="patch_56">
    <path d="M 576.591348 462.612 
L 597.217806 462.612 
L 597.217806 462.612 
L 576.591348 462.612 
z
" clip-path="url(#p1642b6b270)" style="fill: #04e762; opacity: 0.7; stroke: #007c34; stroke-width: 1.5; stroke-linejoin: miter"/>
   </g>
   <g id="patch_57">
    <path d="M 597.217806 462.612 
L 617.844263 462.612 
L 617.844263 462.612 
L 597.217806 462.612 
z
" clip-path="url(#p1642b6b270)" style="fill: #04e762; opacity: 0.7; stroke: #007c34; stroke-width: 1.5; stroke-linejoin: miter"/>
   </g>
   <g id="patch_58">
    <path d="M 617.844263 462.612 
L 638.470721 462.612 
L 638.470721 462.612 
L 617.844263 462.612 
z
" clip-path="url(#p1642b6b270)" style="fill: #04e762; opacity: 0.7; stroke: #007c34; stroke-width: 1.5; stroke-linejoin: miter"/>
   </g>
   <g id="patch_59">
    <path d="M 638.470721 462.612 
L 659.097179 462.612 
L 659.097179 462.612 
L 638.470721 462.612 
z
" clip-path="url(#p1642b6b270)" style="fill: #04e762; opacity: 0.7; stroke: #007c34; stroke-width: 1.5; stroke-linejoin: miter"/>
   </g>
   <g id="patch_60">
    <path d="M 659.097179 462.612 
L 679.723636 462.612 
L 679.723636 462.612 
L 659.097179 462.612 
z
" clip-path="url(#p1642b6b270)" style="fill: #04e762; opacity: 0.7; stroke: #007c34; stroke-width: 1.5; stroke-linejoin: miter"/>
   </g>
   <g id="line2d_1">
    <path d="M 325.360143 462.612 
L 325.360143 27.168 
" clip-path="url(#p1642b6b270)" style="fill: none; stroke-dasharray: 7.4,3.2; stroke-dashoffset: 0; stroke: #000000; stroke-width: 2"/>
   </g>
   <g id="patch_61">
    <path d="M 51.648 462.612 
L 51.648 27.168 
" style="fill: none; stroke: #262626; stroke-linejoin: miter; stroke-linecap: square"/>
   </g>
   <g id="patch_62">
    <path d="M 51.648 462.612 
L 709.632 462.612 
" style="fill: none; stroke: #262626; stroke-linejoin: miter; stroke-linecap: square"/>
   </g>
   <g id="text_15">
    <!-- UPDRS On — SHAP sign split (Accuracy: 0.98) -->
    <g style="fill: #262626" transform="translate(221.307969 21.168) scale(0.14 -0.14)">
     <defs>
      <path id="DejaVuSans-2014" d="M 313 1978 
L 6088 1978 
L 6088 1528 
L 313 1528 
L 313 1978 
z
" transform="scale(0.015625)"/>
      <path id="DejaVuSans-48" d="M 628 4666 
L 1259 4666 
L 1259 2753 
L 3553 2753 
L 3553 4666 
L 4184 4666 
L 4184 0 
L 3553 0 
L 3553 2222 
L 1259 2222 
L 1259 0 
L 628 0 
L 628 4666 
z
" transform="scale(0.015625)"/>
      <path id="DejaVuSans-41" d="M 2188 4044 
L 1331 1722 
L 3047 1722 
L 2188 4044 
z
M 1831 4666 
L 2547 4666 
L 4325 0 
L 3669 0 
L 3244 1197 
L 1141 1197 
L 716 0 
L 50 0 
L 1831 4666 
z
" transform="scale(0.015625)"/>
      <path id="DejaVuSans-73" d="M 2834 3397 
L 2834 2853 
Q 2591 2978 2328 3040 
Q 2066 3103 1784 3103 
Q 1356 3103 1142 2972 
Q 928 2841 928 2578 
Q 928 2378 1081 2264 
Q 1234 2150 1697 2047 
L 1894 2003 
Q 2506 1872 2764 1633 
Q 3022 1394 3022 966 
Q 3022 478 2636 193 
Q 2250 -91 1575 -91 
Q 1294 -91 989 -36 
Q 684 19 347 128 
L 347 722 
Q 666 556 975 473 
Q 1284 391 1588 391 
Q 1994 391 2212 530 
Q 2431 669 2431 922 
Q 2431 1156 2273 1281 
Q 2116 1406 1581 1522 
L 1381 1569 
Q 847 1681 609 1914 
Q 372 2147 372 2553 
Q 372 3047 722 3315 
Q 1072 3584 1716 3584 
Q 2034 3584 2315 3537 
Q 2597 3491 2834 3397 
z
" transform="scale(0.015625)"/>
      <path id="DejaVuSans-69" d="M 603 3500 
L 1178 3500 
L 1178 0 
L 603 0 
L 603 3500 
z
M 603 4863 
L 1178 4863 
L 1178 4134 
L 603 4134 
L 603 4863 
z
" transform="scale(0.015625)"/>
      <path id="DejaVuSans-67" d="M 2906 1791 
Q 2906 2416 2648 2759 
Q 2391 3103 1925 3103 
Q 1463 3103 1205 2759 
Q 947 2416 947 1791 
Q 947 1169 1205 825 
Q 1463 481 1925 481 
Q 2391 481 2648 825 
Q 2906 1169 2906 1791 
z
M 3481 434 
Q 3481 -459 3084 -895 
Q 2688 -1331 1869 -1331 
Q 1566 -1331 1297 -1286 
Q 1028 -1241 775 -1147 
L 775 -588 
Q 1028 -725 1275 -790 
Q 1522 -856 1778 -856 
Q 2344 -856 2625 -561 
Q 2906 -266 2906 331 
L 2906 616 
Q 2728 306 2450 153 
Q 2172 0 1784 0 
Q 1141 0 747 490 
Q 353 981 353 1791 
Q 353 2603 747 3093 
Q 1141 3584 1784 3584 
Q 2172 3584 2450 3431 
Q 2728 3278 2906 2969 
L 2906 3500 
L 3481 3500 
L 3481 434 
z
" transform="scale(0.015625)"/>
      <path id="DejaVuSans-70" d="M 1159 525 
L 1159 -1331 
L 581 -1331 
L 581 3500 
L 1159 3500 
L 1159 2969 
Q 1341 3281 1617 3432 
Q 1894 3584 2278 3584 
Q 2916 3584 3314 3078 
Q 3713 2572 3713 1747 
Q 3713 922 3314 415 
Q 2916 -91 2278 -91 
Q 1894 -91 1617 61 
Q 1341 213 1159 525 
z
M 3116 1747 
Q 3116 2381 2855 2742 
Q 2594 3103 2138 3103 
Q 1681 3103 1420 2742 
Q 1159 2381 1159 1747 
Q 1159 1113 1420 752 
Q 1681 391 2138 391 
Q 2594 391 2855 752 
Q 3116 1113 3116 1747 
z
" transform="scale(0.015625)"/>
      <path id="DejaVuSans-6c" d="M 603 4863 
L 1178 4863 
L 1178 0 
L 603 0 
L 603 4863 
z
" transform="scale(0.015625)"/>
      <path id="DejaVuSans-74" d="M 1172 4494 
L 1172 3500 
L 2356 3500 
L 2356 3053 
L 1172 3053 
L 1172 1153 
Q 1172 725 1289 603 
Q 1406 481 1766 481 
L 2356 481 
L 2356 0 
L 1766 0 
Q 1100 0 847 248 
Q 594 497 594 1153 
L 594 3053 
L 172 3053 
L 172 3500 
L 594 3500 
L 594 4494 
L 1172 4494 
z
" transform="scale(0.015625)"/>
      <path id="DejaVuSans-28" d="M 1984 4856 
Q 1566 4138 1362 3434 
Q 1159 2731 1159 2009 
Q 1159 1288 1364 580 
Q 1569 -128 1984 -844 
L 1484 -844 
Q 1016 -109 783 600 
Q 550 1309 550 2009 
Q 550 2706 781 3412 
Q 1013 4119 1484 4856 
L 1984 4856 
z
" transform="scale(0.015625)"/>
      <path id="DejaVuSans-61" d="M 2194 1759 
Q 1497 1759 1228 1600 
Q 959 1441 959 1056 
Q 959 750 1161 570 
Q 1363 391 1709 391 
Q 2188 391 2477 730 
Q 2766 1069 2766 1631 
L 2766 1759 
L 2194 1759 
z
M 3341 1997 
L 3341 0 
L 2766 0 
L 2766 531 
Q 2569 213 2275 61 
Q 1981 -91 1556 -91 
Q 1019 -91 701 211 
Q 384 513 384 1019 
Q 384 1609 779 1909 
Q 1175 2209 1959 2209 
L 2766 2209 
L 2766 2266 
Q 2766 2663 2505 2880 
Q 2244 3097 1772 3097 
Q 1472 3097 1187 3025 
Q 903 2953 641 2809 
L 641 3341 
Q 956 3463 1253 3523 
Q 1550 3584 1831 3584 
Q 2591 3584 2966 3190 
Q 3341 2797 3341 1997 
z
" transform="scale(0.015625)"/>
      <path id="DejaVuSans-3a" d="M 750 794 
L 1409 794 
L 1409 0 
L 750 0 
L 750 794 
z
M 750 3309 
L 1409 3309 
L 1409 2516 
L 750 2516 
L 750 3309 
z
" transform="scale(0.015625)"/>
      <path id="DejaVuSans-39" d="M 703 97 
L 703 672 
Q 941 559 1184 500 
Q 1428 441 1663 441 
Q 2288 441 2617 861 
Q 2947 1281 2994 2138 
Q 2813 1869 2534 1725 
Q 2256 1581 1919 1581 
Q 1219 1581 811 2004 
Q 403 2428 403 3163 
Q 403 3881 828 4315 
Q 1253 4750 1959 4750 
Q 2769 4750 3195 4129 
Q 3622 3509 3622 2328 
Q 3622 1225 3098 567 
Q 2575 -91 1691 -91 
Q 1453 -91 1209 -44 
Q 966 3 703 97 
z
M 1959 2075 
Q 2384 2075 2632 2365 
Q 2881 2656 2881 3163 
Q 2881 3666 2632 3958 
Q 2384 4250 1959 4250 
Q 1534 4250 1286 3958 
Q 1038 3666 1038 3163 
Q 1038 2656 1286 2365 
Q 1534 2075 1959 2075 
z
" transform="scale(0.015625)"/>
      <path id="DejaVuSans-38" d="M 2034 2216 
Q 1584 2216 1326 1975 
Q 1069 1734 1069 1313 
Q 1069 891 1326 650 
Q 1584 409 2034 409 
Q 2484 409 2743 651 
Q 3003 894 3003 1313 
Q 3003 1734 2745 1975 
Q 2488 2216 2034 2216 
z
M 1403 2484 
Q 997 2584 770 2862 
Q 544 3141 544 3541 
Q 544 4100 942 4425 
Q 1341 4750 2034 4750 
Q 2731 4750 3128 4425 
Q 3525 4100 3525 3541 
Q 3525 3141 3298 2862 
Q 3072 2584 2669 2484 
Q 3125 2378 3379 2068 
Q 3634 1759 3634 1313 
Q 3634 634 3220 271 
Q 2806 -91 2034 -91 
Q 1263 -91 848 271 
Q 434 634 434 1313 
Q 434 1759 690 2068 
Q 947 2378 1403 2484 
z
M 1172 3481 
Q 1172 3119 1398 2916 
Q 1625 2713 2034 2713 
Q 2441 2713 2670 2916 
Q 2900 3119 2900 3481 
Q 2900 3844 2670 4047 
Q 2441 4250 2034 4250 
Q 1625 4250 1398 4047 
Q 1172 3844 1172 3481 
z
" transform="scale(0.015625)"/>
      <path id="DejaVuSans-29" d="M 513 4856 
L 1013 4856 
Q 1481 4119 1714 3412 
Q 1947 2706 1947 2009 
Q 1947 1309 1714 600 
Q 1481 -109 1013 -844 
L 513 -844 
Q 928 -128 1133 580 
Q 1338 1288 1338 2009 
Q 1338 2731 1133 3434 
Q 928 4138 513 4856 
z
" transform="scale(0.015625)"/>
     </defs>
     <use xlink:href="#DejaVuSans-55"/>
     <use xlink:href="#DejaVuSans-50" transform="translate(73.193359 0)"/>
     <use xlink:href="#DejaVuSans-44" transform="translate(133.496094 0)"/>
     <use xlink:href="#DejaVuSans-52" transform="translate(210.498047 0)"/>
     <use xlink:href="#DejaVuSans-53" transform="translate(279.980469 0)"/>
     <use xlink:href="#DejaVuSans-20" transform="translate(343.457031 0)"/>
     <use xlink:href="#DejaVuSans-4f" transform="translate(375.244141 0)"/>
     <use xlink:href="#DejaVuSans-6e" transform="translate(453.955078 0)"/>
     <use xlink:href="#DejaVuSans-20" transform="translate(517.333984 0)"/>
     <use xlink:href="#DejaVuSans-2014" transform="translate(549.121094 0)"/>
     <use xlink:href="#DejaVuSans-20" transform="translate(649.121094 0)"/>
     <use xlink:href="#DejaVuSans-53" transform="translate(680.908203 0)"/>
     <use xlink:href="#DejaVuSans-48" transform="translate(744.384766 0)"/>
     <use xlink:href="#DejaVuSans-41" transform="translate(819.580078 0)"/>
     <use xlink:href="#DejaVuSans-50" transform="translate(887.988281 0)"/>
     <use xlink:href="#DejaVuSans-20" transform="translate(948.291016 0)"/>
     <use xlink:href="#DejaVuSans-73" transform="translate(980.078125 0)"/>
     <use xlink:href="#DejaVuSans-69" transform="translate(1032.177734 0)"/>
     <use xlink:href="#DejaVuSans-67" transform="translate(1059.960938 0)"/>
     <use xlink:href="#DejaVuSans-6e" transform="translate(1123.4375 0)"/>
     <use xlink:href="#DejaVuSans-20" transform="translate(1186.816406 0)"/>
     <use xlink:href="#DejaVuSans-73" transform="translate(1218.603516 0)"/>
     <use xlink:href="#DejaVuSans-70" transform="translate(1270.703125 0)"/>
     <use xlink:href="#DejaVuSans-6c" transform="translate(1334.179688 0)"/>
     <use xlink:href="#DejaVuSans-69" transform="translate(1361.962891 0)"/>
     <use xlink:href="#DejaVuSans-74" transform="translate(1389.746094 0)"/>
     <use xlink:href="#DejaVuSans-20" transform="translate(1428.955078 0)"/>
     <use xlink:href="#DejaVuSans-28" transform="translate(1460.742188 0)"/>
     <use xlink:href="#DejaVuSans-41" transform="translate(1499.755859 0)"/>
     <use xlink:href="#DejaVuSans-63" transform="translate(1566.414062 0)"/>
     <use xlink:href="#DejaVuSans-63" transform="translate(1621.394531 0)"/>
     <use xlink:href="#DejaVuSans-75" transform="translate(1676.375 0)"/>
     <use xlink:href="#DejaVuSans-72" transform="translate(1739.753906 0)"/>
     <use xlink:href="#DejaVuSans-61" transform="translate(1780.867188 0)"/>
     <use xlink:href="#DejaVuSans-63" transform="translate(1842.146484 0)"/>
     <use xlink:href="#DejaVuSans-79" transform="translate(1897.126953 0)"/>
     <use xlink:href="#DejaVuSans-3a" transform="translate(1949.056641 0)"/>
     <use xlink:href="#DejaVuSans-20" transform="translate(1982.748047 0)"/>
     <use xlink:href="#DejaVuSans-30" transform="translate(2014.535156 0)"/>
     <use xlink:href="#DejaVuSans-2e" transform="translate(2078.158203 0)"/>
     <use xlink:href="#DejaVuSans-39" transform="translate(2109.945312 0)"/>
     <use xlink:href="#DejaVuSans-38" transform="translate(2173.568359 0)"/>
     <use xlink:href="#DejaVuSans-29" transform="translate(2237.191406 0)"/>
    </g>
   </g>
   <g id="legend_1">
    <g id="patch_63">
     <path d="M 568.118375 72.95825 
L 703.472 72.95825 
Q 705.232 72.95825 705.232 71.19825 
L 705.232 33.328 
Q 705.232 31.568 703.472 31.568 
L 568.118375 31.568 
Q 566.358375 31.568 566.358375 33.328 
L 566.358375 71.19825 
Q 566.358375 72.95825 568.118375 72.95825 
z
" style="fill: #ffffff; opacity: 0.8; stroke: #cccccc; stroke-width: 0.8; stroke-linejoin: miter"/>
    </g>
    <g id="line2d_2">
     <path d="M 569.878375 38.694625 
L 578.678375 38.694625 
L 587.478375 38.694625 
" style="fill: none; stroke-dasharray: 7.4,3.2; stroke-dashoffset: 0; stroke: #000000; stroke-width: 2"/>
    </g>
    <g id="text_16">
     <!-- SVM threshold = 20.947 -->
     <g style="fill: #262626" transform="translate(594.518375 41.774625) scale(0.088 -0.088)">
      <defs>
       <path id="DejaVuSans-56" d="M 1831 0 
L 50 4666 
L 709 4666 
L 2188 738 
L 3669 4666 
L 4325 4666 
L 2547 0 
L 1831 0 
z
" transform="scale(0.015625)"/>
       <path id="DejaVuSans-4d" d="M 628 4666 
L 1569 4666 
L 2759 1491 
L 3956 4666 
L 4897 4666 
L 4897 0 
L 4281 0 
L 4281 4097 
L 3078 897 
L 2444 897 
L 1241 4097 
L 1241 0 
L 628 0 
L 628 4666 
z
" transform="scale(0.015625)"/>
       <path id="DejaVuSans-68" d="M 3513 2113 
L 3513 0 
L 2938 0 
L 2938 2094 
Q 2938 2591 2744 2837 
Q 2550 3084 2163 3084 
Q 1697 3084 1428 2787 
Q 1159 2491 1159 1978 
L 1159 0 
L 581 0 
L 581 4863 
L 1159 4863 
L 1159 2956 
Q 1366 3272 1645 3428 
Q 1925 3584 2291 3584 
Q 2894 3584 3203 3211 
Q 3513 2838 3513 2113 
z
" transform="scale(0.015625)"/>
       <path id="DejaVuSans-6f" d="M 1959 3097 
Q 1497 3097 1228 2736 
Q 959 2375 959 1747 
Q 959 1119 1226 758 
Q 1494 397 1959 397 
Q 2419 397 2687 759 
Q 2956 1122 2956 1747 
Q 2956 2369 2687 2733 
Q 2419 3097 1959 3097 
z
M 1959 3584 
Q 2709 3584 3137 3096 
Q 3566 2609 3566 1747 
Q 3566 888 3137 398 
Q 2709 -91 1959 -91 
Q 1206 -91 779 398 
Q 353 888 353 1747 
Q 353 2609 779 3096 
Q 1206 3584 1959 3584 
z
" transform="scale(0.015625)"/>
       <path id="DejaVuSans-64" d="M 2906 2969 
L 2906 4863 
L 3481 4863 
L 3481 0 
L 2906 0 
L 2906 525 
Q 2725 213 2448 61 
Q 2172 -91 1784 -91 
Q 1150 -91 751 415 
Q 353 922 353 1747 
Q 353 2572 751 3078 
Q 1150 3584 1784 3584 
Q 2172 3584 2448 3432 
Q 2725 3281 2906 2969 
z
M 947 1747 
Q 947 1113 1208 752 
Q 1469 391 1925 391 
Q 2381 391 2643 752 
Q 2906 1113 2906 1747 
Q 2906 2381 2643 2742 
Q 2381 3103 1925 3103 
Q 1469 3103 1208 2742 
Q 947 2381 947 1747 
z
" transform="scale(0.015625)"/>
       <path id="DejaVuSans-3d" d="M 678 2906 
L 4684 2906 
L 4684 2381 
L 678 2381 
L 678 2906 
z
M 678 1631 
L 4684 1631 
L 4684 1100 
L 678 1100 
L 678 1631 
z
" transform="scale(0.015625)"/>
      </defs>
      <use xlink:href="#DejaVuSans-53"/>
      <use xlink:href="#DejaVuSans-56" transform="translate(63.476562 0)"/>
      <use xlink:href="#DejaVuSans-4d" transform="translate(131.884766 0)"/>
      <use xlink:href="#DejaVuSans-20" transform="translate(218.164062 0)"/>
      <use xlink:href="#DejaVuSans-74" transform="translate(249.951172 0)"/>
      <use xlink:href="#DejaVuSans-68" transform="translate(289.160156 0)"/>
      <use xlink:href="#DejaVuSans-72" transform="translate(352.539062 0)"/>
      <use xlink:href="#DejaVuSans-65" transform="translate(391.402344 0)"/>
      <use xlink:href="#DejaVuSans-73" transform="translate(452.925781 0)"/>
      <use xlink:href="#DejaVuSans-68" transform="translate(505.025391 0)"/>
      <use xlink:href="#DejaVuSans-6f" transform="translate(568.404297 0)"/>
      <use xlink:href="#DejaVuSans-6c" transform="translate(629.585938 0)"/>
      <use xlink:href="#DejaVuSans-64" transform="translate(657.369141 0)"/>
      <use xlink:href="#DejaVuSans-20" transform="translate(720.845703 0)"/>
      <use xlink:href="#DejaVuSans-3d" transform="translate(752.632812 0)"/>
      <use xlink:href="#DejaVuSans-20" transform="translate(836.421875 0)"/>
      <use xlink:href="#DejaVuSans-32" transform="translate(868.208984 0)"/>
      <use xlink:href="#DejaVuSans-30" transform="translate(931.832031 0)"/>
      <use xlink:href="#DejaVuSans-2e" transform="translate(995.455078 0)"/>
      <use xlink:href="#DejaVuSans-39" transform="translate(1027.242188 0)"/>
      <use xlink:href="#DejaVuSans-34" transform="translate(1090.865234 0)"/>
      <use xlink:href="#DejaVuSans-37" transform="translate(1154.488281 0)"/>
     </g>
    </g>
    <g id="patch_64">
     <path d="M 569.878375 54.691375 
L 587.478375 54.691375 
L 587.478375 48.531375 
L 569.878375 48.531375 
z
" style="fill: #ff5714; opacity: 0.7; stroke: #8a3210; stroke-width: 1.5; stroke-linejoin: miter"/>
    </g>
    <g id="text_17">
     <!-- negative SHAPs -->
     <g style="fill: #262626" transform="translate(594.518375 54.691375) scale(0.088 -0.088)">
      <defs>
       <path id="DejaVuSans-76" d="M 191 3500 
L 800 3500 
L 1894 563 
L 2988 3500 
L 3597 3500 
L 2284 0 
L 1503 0 
L 191 3500 
z
" transform="scale(0.015625)"/>
      </defs>
      <use xlink:href="#DejaVuSans-6e"/>
      <use xlink:href="#DejaVuSans-65" transform="translate(63.378906 0)"/>
      <use xlink:href="#DejaVuSans-67" transform="translate(124.902344 0)"/>
      <use xlink:href="#DejaVuSans-61" transform="translate(188.378906 0)"/>
      <use xlink:href="#DejaVuSans-74" transform="translate(249.658203 0)"/>
      <use xlink:href="#DejaVuSans-69" transform="translate(288.867188 0)"/>
      <use xlink:href="#DejaVuSans-76" transform="translate(316.650391 0)"/>
      <use xlink:href="#DejaVuSans-65" transform="translate(375.830078 0)"/>
      <use xlink:href="#DejaVuSans-20" transform="translate(437.353516 0)"/>
      <use xlink:href="#DejaVuSans-53" transform="translate(469.140625 0)"/>
      <use xlink:href="#DejaVuSans-48" transform="translate(532.617188 0)"/>
      <use xlink:href="#DejaVuSans-41" transform="translate(607.8125 0)"/>
      <use xlink:href="#DejaVuSans-50" transform="translate(676.220703 0)"/>
      <use xlink:href="#DejaVuSans-73" transform="translate(734.773438 0)"/>
     </g>
    </g>
    <g id="patch_65">
     <path d="M 569.878375 67.608125 
L 587.478375 67.608125 
L 587.478375 61.448125 
L 569.878375 61.448125 
z
" style="fill: #04e762; opacity: 0.7; stroke: #007c34; stroke-width: 1.5; stroke-linejoin: miter"/>
    </g>
    <g id="text_18">
     <!-- positive SHAPs -->
     <g style="fill: #262626" transform="translate(594.518375 67.608125) scale(0.088 -0.088)">
      <use xlink:href="#DejaVuSans-70"/>
      <use xlink:href="#DejaVuSans-6f" transform="translate(63.476562 0)"/>
      <use xlink:href="#DejaVuSans-73" transform="translate(124.658203 0)"/>
      <use xlink:href="#DejaVuSans-69" transform="translate(176.757812 0)"/>
      <use xlink:href="#DejaVuSans-74" transform="translate(204.541016 0)"/>
      <use xlink:href="#DejaVuSans-69" transform="translate(243.75 0)"/>
      <use xlink:href="#DejaVuSans-76" transform="translate(271.533203 0)"/>
      <use xlink:href="#DejaVuSans-65" transform="translate(330.712891 0)"/>
      <use xlink:href="#DejaVuSans-20" transform="translate(392.236328 0)"/>
      <use xlink:href="#DejaVuSans-53" transform="translate(424.023438 0)"/>
      <use xlink:href="#DejaVuSans-48" transform="translate(487.5 0)"/>
      <use xlink:href="#DejaVuSans-41" transform="translate(562.695312 0)"/>
      <use xlink:href="#DejaVuSans-50" transform="translate(631.103516 0)"/>
      <use xlink:href="#DejaVuSans-73" transform="translate(689.65625 0)"/>
     </g>
    </g>
   </g>
  </g>
 </g>
 <defs>
  <clipPath id="p1642b6b270">
   <rect x="51.648" y="27.168" width="657.984" height="435.444"/>
  </clipPath>
 </defs>
</svg>
