<?xml version="1.0" encoding="utf-8" standalone="no"?>
<!DOCTYPE svg PUBLIC "-//W3C//DTD SVG 1.1//EN"
  "http://www.w3.org/Graphics/SVG/1.1/DTD/svg11.dtd">
<svg xmlns:xlink="http://www.w3.org/1999/xlink" width="720pt" height="504pt" viewBox="0 0 720 504" xmlns="http://www.w3.org/2000/svg" version="1.1">
 <metadata>
  <rdf:RDF xmlns:dc="http://purl.org/dc/elements/1.1/" xmlns:cc="http://creativecommons.org/ns#" xmlns:rdf="http://www.w3.org/1999/02/22-rdf-syntax-ns#">
   <cc:Work>
    <dc:type rdf:resource="http://purl.org/dc/dcmitype/StillImage"/>
    <dc:date>2025-10-23T09:20:06.583549</dc:date>
    <dc:format>image/svg+xml</dc:format>
    <dc:creator>
     <cc:Agent>
      <dc:title>Matplotlib v3.10.0, https://matplotlib.org/</dc:title>
     </cc:Agent>
    </dc:creator>
   </cc:Work>
  </rdf:RDF>
 </metadata>
 <defs>
  <style type="text/css">*{stroke-linejoin: round; stroke-linecap: butt}</style>
 </defs>
 <g id="figure_1">
  <g id="patch_1">
   <path d="M 0 504 
L 720 504 
L 720 0 
L 0 0 
z
" style="fill: #ffffff"/>
  </g>
  <g id="axes_1">
   <g id="patch_2">
    <path d="M 44.57 462.04 
L 709.2 462.04 
L 709.2 27.6 
L 44.57 27.6 
z
" style="fill: #ffffff"/>
   </g>
   <g id="patch_3">
    <path d="M 74.780455 462.04 
L 95.615251 462.04 
L 95.615251 462.04 
L 74.780455 462.04 
z
" clip-path="url(#p97f16221e0)" style="fill: #ff5714; opacity: 0.7; stroke: #8a3210; stroke-width: 1.5; stroke-linejoin: miter"/>
   </g>
   <g id="patch_4">
    <path d="M 95.615251 462.04 
L 116.450047 462.04 
L 116.450047 462.04 
L 95.615251 462.04 
z
" clip-path="url(#p97f16221e0)" style="fill: #ff5714; opacity: 0.7; stroke: #8a3210; stroke-width: 1.5; stroke-linejoin: miter"/>
   </g>
   <g id="patch_5">
    <path d="M 116.450047 462.04 
L 137.284843 462.04 
L 137.284843 462.04 
L 116.450047 462.04 
z
" clip-path="url(#p97f16221e0)" style="fill: #ff5714; opacity: 0.7; stroke: #8a3210; stroke-width: 1.5; stroke-linejoin: miter"/>
   </g>
   <g id="patch_6">
    <path d="M 137.284843 462.04 
L 158.119639 462.04 
L 158.119639 462.04 
L 137.284843 462.04 
z
" clip-path="url(#p97f16221e0)" style="fill: #ff5714; opacity: 0.7; stroke: #8a3210; stroke-width: 1.5; stroke-linejoin: miter"/>
   </g>
   <g id="patch_7">
    <path d="M 158.119639 462.04 
L 178.954436 462.04 
L 178.954436 462.04 
L 158.119639 462.04 
z
" clip-path="url(#p97f16221e0)" style="fill: #ff5714; opacity: 0.7; stroke: #8a3210; stroke-width: 1.5; stroke-linejoin: miter"/>
   </g>
   <g id="patch_8">
    <path d="M 178.954436 462.04 
L 199.789232 462.04 
L 199.789232 462.04 
L 178.954436 462.04 
z
" clip-path="url(#p97f16221e0)" style="fill: #ff5714; opacity: 0.7; stroke: #8a3210; stroke-width: 1.5; stroke-linejoin: miter"/>
   </g>
   <g id="patch_9">
    <path d="M 199.789232 462.04 
L 220.624028 462.04 
L 220.624028 462.04 
L 199.789232 462.04 
z
" clip-path="url(#p97f16221e0)" style="fill: #ff5714; opacity: 0.7; stroke: #8a3210; stroke-width: 1.5; stroke-linejoin: miter"/>
   </g>
   <g id="patch_10">
    <path d="M 220.624028 462.04 
L 241.458824 462.04 
L 241.458824 462.04 
L 220.624028 462.04 
z
" clip-path="url(#p97f16221e0)" style="fill: #ff5714; opacity: 0.7; stroke: #8a3210; stroke-width: 1.5; stroke-linejoin: miter"/>
   </g>
   <g id="patch_11">
    <path d="M 241.458824 462.04 
L 262.293621 462.04 
L 262.293621 462.04 
L 241.458824 462.04 
z
" clip-path="url(#p97f16221e0)" style="fill: #ff5714; opacity: 0.7; stroke: #8a3210; stroke-width: 1.5; stroke-linejoin: miter"/>
   </g>
   <g id="patch_12">
    <path d="M 262.293621 462.04 
L 283.128417 462.04 
L 283.128417 462.04 
L 262.293621 462.04 
z
" clip-path="url(#p97f16221e0)" style="fill: #ff5714; opacity: 0.7; stroke: #8a3210; stroke-width: 1.5; stroke-linejoin: miter"/>
   </g>
   <g id="patch_13">
    <path d="M 283.128417 462.04 
L 303.963213 462.04 
L 303.963213 462.04 
L 283.128417 462.04 
z
" clip-path="url(#p97f16221e0)" style="fill: #ff5714; opacity: 0.7; stroke: #8a3210; stroke-width: 1.5; stroke-linejoin: miter"/>
   </g>
   <g id="patch_14">
    <path d="M 303.963213 462.04 
L 324.798009 462.04 
L 324.798009 462.04 
L 303.963213 462.04 
z
" clip-path="url(#p97f16221e0)" style="fill: #ff5714; opacity: 0.7; stroke: #8a3210; stroke-width: 1.5; stroke-linejoin: miter"/>
   </g>
   <g id="patch_15">
    <path d="M 324.798009 462.04 
L 345.632806 462.04 
L 345.632806 324.12254 
L 324.798009 324.12254 
z
" clip-path="url(#p97f16221e0)" style="fill: #ff5714; opacity: 0.7; stroke: #8a3210; stroke-width: 1.5; stroke-linejoin: miter"/>
   </g>
   <g id="patch_16">
    <path d="M 345.632806 462.04 
L 366.467602 462.04 
L 366.467602 186.205079 
L 345.632806 186.205079 
z
" clip-path="url(#p97f16221e0)" style="fill: #ff5714; opacity: 0.7; stroke: #8a3210; stroke-width: 1.5; stroke-linejoin: miter"/>
   </g>
   <g id="patch_17">
    <path d="M 366.467602 462.04 
L 387.302398 462.04 
L 387.302398 186.205079 
L 366.467602 186.205079 
z
" clip-path="url(#p97f16221e0)" style="fill: #ff5714; opacity: 0.7; stroke: #8a3210; stroke-width: 1.5; stroke-linejoin: miter"/>
   </g>
   <g id="patch_18">
    <path d="M 387.302398 462.04 
L 408.137194 462.04 
L 408.137194 324.12254 
L 387.302398 324.12254 
z
" clip-path="url(#p97f16221e0)" style="fill: #ff5714; opacity: 0.7; stroke: #8a3210; stroke-width: 1.5; stroke-linejoin: miter"/>
   </g>
   <g id="patch_19">
    <path d="M 408.137194 462.04 
L 428.971991 462.04 
L 428.971991 358.601905 
L 408.137194 358.601905 
z
" clip-path="url(#p97f16221e0)" style="fill: #ff5714; opacity: 0.7; stroke: #8a3210; stroke-width: 1.5; stroke-linejoin: miter"/>
   </g>
   <g id="patch_20">
    <path d="M 428.971991 462.04 
L 449.806787 462.04 
L 449.806787 255.16381 
L 428.971991 255.16381 
z
" clip-path="url(#p97f16221e0)" style="fill: #ff5714; opacity: 0.7; stroke: #8a3210; stroke-width: 1.5; stroke-linejoin: miter"/>
   </g>
   <g id="patch_21">
    <path d="M 449.806787 462.04 
L 470.641583 462.04 
L 470.641583 324.12254 
L 449.806787 324.12254 
z
" clip-path="url(#p97f16221e0)" style="fill: #ff5714; opacity: 0.7; stroke: #8a3210; stroke-width: 1.5; stroke-linejoin: miter"/>
   </g>
   <g id="patch_22">
    <path d="M 470.641583 462.04 
L 491.476379 462.04 
L 491.476379 220.684444 
L 470.641583 220.684444 
z
" clip-path="url(#p97f16221e0)" style="fill: #ff5714; opacity: 0.7; stroke: #8a3210; stroke-width: 1.5; stroke-linejoin: miter"/>
   </g>
   <g id="patch_23">
    <path d="M 491.476379 462.04 
L 512.311176 462.04 
L 512.311176 427.560635 
L 491.476379 427.560635 
z
" clip-path="url(#p97f16221e0)" style="fill: #ff5714; opacity: 0.7; stroke: #8a3210; stroke-width: 1.5; stroke-linejoin: miter"/>
   </g>
   <g id="patch_24">
    <path d="M 512.311176 462.04 
L 533.145972 462.04 
L 533.145972 393.08127 
L 512.311176 393.08127 
z
" clip-path="url(#p97f16221e0)" style="fill: #ff5714; opacity: 0.7; stroke: #8a3210; stroke-width: 1.5; stroke-linejoin: miter"/>
   </g>
   <g id="patch_25">
    <path d="M 533.145972 462.04 
L 553.980768 462.04 
L 553.980768 462.04 
L 533.145972 462.04 
z
" clip-path="url(#p97f16221e0)" style="fill: #ff5714; opacity: 0.7; stroke: #8a3210; stroke-width: 1.5; stroke-linejoin: miter"/>
   </g>
   <g id="patch_26">
    <path d="M 553.980768 462.04 
L 574.815564 462.04 
L 574.815564 393.08127 
L 553.980768 393.08127 
z
" clip-path="url(#p97f16221e0)" style="fill: #ff5714; opacity: 0.7; stroke: #8a3210; stroke-width: 1.5; stroke-linejoin: miter"/>
   </g>
   <g id="patch_27">
    <path d="M 574.815564 462.04 
L 595.650361 462.04 
L 595.650361 358.601905 
L 574.815564 358.601905 
z
" clip-path="url(#p97f16221e0)" style="fill: #ff5714; opacity: 0.7; stroke: #8a3210; stroke-width: 1.5; stroke-linejoin: miter"/>
   </g>
   <g id="patch_28">
    <path d="M 595.650361 462.04 
L 616.485157 462.04 
L 616.485157 427.560635 
L 595.650361 427.560635 
z
" clip-path="url(#p97f16221e0)" style="fill: #ff5714; opacity: 0.7; stroke: #8a3210; stroke-width: 1.5; stroke-linejoin: miter"/>
   </g>
   <g id="patch_29">
    <path d="M 616.485157 462.04 
L 637.319953 462.04 
L 637.319953 427.560635 
L 616.485157 427.560635 
z
" clip-path="url(#p97f16221e0)" style="fill: #ff5714; opacity: 0.7; stroke: #8a3210; stroke-width: 1.5; stroke-linejoin: miter"/>
   </g>
   <g id="patch_30">
    <path d="M 637.319953 462.04 
L 658.154749 462.04 
L 658.154749 462.04 
L 637.319953 462.04 
z
" clip-path="url(#p97f16221e0)" style="fill: #ff5714; opacity: 0.7; stroke: #8a3210; stroke-width: 1.5; stroke-linejoin: miter"/>
   </g>
   <g id="patch_31">
    <path d="M 658.154749 462.04 
L 678.989545 462.04 
L 678.989545 427.560635 
L 658.154749 427.560635 
z
" clip-path="url(#p97f16221e0)" style="fill: #ff5714; opacity: 0.7; stroke: #8a3210; stroke-width: 1.5; stroke-linejoin: miter"/>
   </g>
   <g id="patch_32">
    <path d="M 74.780455 462.04 
L 95.615251 462.04 
L 95.615251 393.08127 
L 74.780455 393.08127 
z
" clip-path="url(#p97f16221e0)" style="fill: #04e762; opacity: 0.7; stroke: #007c34; stroke-width: 1.5; stroke-linejoin: miter"/>
   </g>
   <g id="patch_33">
    <path d="M 95.615251 462.04 
L 116.450047 462.04 
L 116.450047 427.560635 
L 95.615251 427.560635 
z
" clip-path="url(#p97f16221e0)" style="fill: #04e762; opacity: 0.7; stroke: #007c34; stroke-width: 1.5; stroke-linejoin: miter"/>
   </g>
   <g id="patch_34">
    <path d="M 116.450047 462.04 
L 137.284843 462.04 
L 137.284843 324.12254 
L 116.450047 324.12254 
z
" clip-path="url(#p97f16221e0)" style="fill: #04e762; opacity: 0.7; stroke: #007c34; stroke-width: 1.5; stroke-linejoin: miter"/>
   </g>
   <g id="patch_35">
    <path d="M 137.284843 462.04 
L 158.119639 462.04 
L 158.119639 427.560635 
L 137.284843 427.560635 
z
" clip-path="url(#p97f16221e0)" style="fill: #04e762; opacity: 0.7; stroke: #007c34; stroke-width: 1.5; stroke-linejoin: miter"/>
   </g>
   <g id="patch_36">
    <path d="M 158.119639 462.04 
L 178.954436 462.04 
L 178.954436 358.601905 
L 158.119639 358.601905 
z
" clip-path="url(#p97f16221e0)" style="fill: #04e762; opacity: 0.7; stroke: #007c34; stroke-width: 1.5; stroke-linejoin: miter"/>
   </g>
   <g id="patch_37">
    <path d="M 178.954436 462.04 
L 199.789232 462.04 
L 199.789232 186.205079 
L 178.954436 186.205079 
z
" clip-path="url(#p97f16221e0)" style="fill: #04e762; opacity: 0.7; stroke: #007c34; stroke-width: 1.5; stroke-linejoin: miter"/>
   </g>
   <g id="patch_38">
    <path d="M 199.789232 462.04 
L 220.624028 462.04 
L 220.624028 358.601905 
L 199.789232 358.601905 
z
" clip-path="url(#p97f16221e0)" style="fill: #04e762; opacity: 0.7; stroke: #007c34; stroke-width: 1.5; stroke-linejoin: miter"/>
   </g>
   <g id="patch_39">
    <path d="M 220.624028 462.04 
L 241.458824 462.04 
L 241.458824 324.12254 
L 220.624028 324.12254 
z
" clip-path="url(#p97f16221e0)" style="fill: #04e762; opacity: 0.7; stroke: #007c34; stroke-width: 1.5; stroke-linejoin: miter"/>
   </g>
   <g id="patch_40">
    <path d="M 241.458824 462.04 
L 262.293621 462.04 
L 262.293621 220.684444 
L 241.458824 220.684444 
z
" clip-path="url(#p97f16221e0)" style="fill: #04e762; opacity: 0.7; stroke: #007c34; stroke-width: 1.5; stroke-linejoin: miter"/>
   </g>
   <g id="patch_41">
    <path d="M 262.293621 462.04 
L 283.128417 462.04 
L 283.128417 48.287619 
L 262.293621 48.287619 
z
" clip-path="url(#p97f16221e0)" style="fill: #04e762; opacity: 0.7; stroke: #007c34; stroke-width: 1.5; stroke-linejoin: miter"/>
   </g>
   <g id="patch_42">
    <path d="M 283.128417 462.04 
L 303.963213 462.04 
L 303.963213 289.643175 
L 283.128417 289.643175 
z
" clip-path="url(#p97f16221e0)" style="fill: #04e762; opacity: 0.7; stroke: #007c34; stroke-width: 1.5; stroke-linejoin: miter"/>
   </g>
   <g id="patch_43">
    <path d="M 303.963213 462.04 
L 324.798009 462.04 
L 324.798009 358.601905 
L 303.963213 358.601905 
z
" clip-path="url(#p97f16221e0)" style="fill: #04e762; opacity: 0.7; stroke: #007c34; stroke-width: 1.5; stroke-linejoin: miter"/>
   </g>
   <g id="patch_44">
    <path d="M 324.798009 462.04 
L 345.632806 462.04 
L 345.632806 358.601905 
L 324.798009 358.601905 
z
" clip-path="url(#p97f16221e0)" style="fill: #04e762; opacity: 0.7; stroke: #007c34; stroke-width: 1.5; stroke-linejoin: miter"/>
   </g>
   <g id="patch_45">
    <path d="M 345.632806 462.04 
L 366.467602 462.04 
L 366.467602 427.560635 
L 345.632806 427.560635 
z
" clip-path="url(#p97f16221e0)" style="fill: #04e762; opacity: 0.7; stroke: #007c34; stroke-width: 1.5; stroke-linejoin: miter"/>
   </g>
   <g id="patch_46">
    <path d="M 366.467602 462.04 
L 387.302398 462.04 
L 387.302398 462.04 
L 366.467602 462.04 
z
" clip-path="url(#p97f16221e0)" style="fill: #04e762; opacity: 0.7; stroke: #007c34; stroke-width: 1.5; stroke-linejoin: miter"/>
   </g>
   <g id="patch_47">
    <path d="M 387.302398 462.04 
L 408.137194 462.04 
L 408.137194 462.04 
L 387.302398 462.04 
z
" clip-path="url(#p97f16221e0)" style="fill: #04e762; opacity: 0.7; stroke: #007c34; stroke-width: 1.5; stroke-linejoin: miter"/>
   </g>
   <g id="patch_48">
    <path d="M 408.137194 462.04 
L 428.971991 462.04 
L 428.971991 462.04 
L 408.137194 462.04 
z
" clip-path="url(#p97f16221e0)" style="fill: #04e762; opacity: 0.7; stroke: #007c34; stroke-width: 1.5; stroke-linejoin: miter"/>
   </g>
   <g id="patch_49">
    <path d="M 428.971991 462.04 
L 449.806787 462.04 
L 449.806787 462.04 
L 428.971991 462.04 
z
" clip-path="url(#p97f16221e0)" style="fill: #04e762; opacity: 0.7; stroke: #007c34; stroke-width: 1.5; stroke-linejoin: miter"/>
   </g>
   <g id="patch_50">
    <path d="M 449.806787 462.04 
L 470.641583 462.04 
L 470.641583 427.560635 
L 449.806787 427.560635 
z
" clip-path="url(#p97f16221e0)" style="fill: #04e762; opacity: 0.7; stroke: #007c34; stroke-width: 1.5; stroke-linejoin: miter"/>
   </g>
   <g id="patch_51">
    <path d="M 470.641583 462.04 
L 491.476379 462.04 
L 491.476379 462.04 
L 470.641583 462.04 
z
" clip-path="url(#p97f16221e0)" style="fill: #04e762; opacity: 0.7; stroke: #007c34; stroke-width: 1.5; stroke-linejoin: miter"/>
   </g>
   <g id="patch_52">
    <path d="M 491.476379 462.04 
L 512.311176 462.04 
L 512.311176 462.04 
L 491.476379 462.04 
z
" clip-path="url(#p97f16221e0)" style="fill: #04e762; opacity: 0.7; stroke: #007c34; stroke-width: 1.5; stroke-linejoin: miter"/>
   </g>
   <g id="patch_53">
    <path d="M 512.311176 462.04 
L 533.145972 462.04 
L 533.145972 462.04 
L 512.311176 462.04 
z
" clip-path="url(#p97f16221e0)" style="fill: #04e762; opacity: 0.7; stroke: #007c34; stroke-width: 1.5; stroke-linejoin: miter"/>
   </g>
   <g id="patch_54">
    <path d="M 533.145972 462.04 
L 553.980768 462.04 
L 553.980768 462.04 
L 533.145972 462.04 
z
" clip-path="url(#p97f16221e0)" style="fill: #04e762; opacity: 0.7; stroke: #007c34; stroke-width: 1.5; stroke-linejoin: miter"/>
   </g>
   <g id="patch_55">
    <path d="M 553.980768 462.04 
L 574.815564 462.04 
L 574.815564 462.04 
L 553.980768 462.04 
z
" clip-path="url(#p97f16221e0)" style="fill: #04e762; opacity: 0.7; stroke: #007c34; stroke-width: 1.5; stroke-linejoin: miter"/>
   </g>
   <g id="patch_56">
    <path d="M 574.815564 462.04 
L 595.650361 462.04 
L 595.650361 462.04 
L 574.815564 462.04 
z
" clip-path="url(#p97f16221e0)" style="fill: #04e762; opacity: 0.7; stroke: #007c34; stroke-width: 1.5; stroke-linejoin: miter"/>
   </g>
   <g id="patch_57">
    <path d="M 595.650361 462.04 
L 616.485157 462.04 
L 616.485157 462.04 
L 595.650361 462.04 
z
" clip-path="url(#p97f16221e0)" style="fill: #04e762; opacity: 0.7; stroke: #007c34; stroke-width: 1.5; stroke-linejoin: miter"/>
   </g>
   <g id="patch_58">
    <path d="M 616.485157 462.04 
L 637.319953 462.04 
L 637.319953 462.04 
L 616.485157 462.04 
z
" clip-path="url(#p97f16221e0)" style="fill: #04e762; opacity: 0.7; stroke: #007c34; stroke-width: 1.5; stroke-linejoin: miter"/>
   </g>
   <g id="patch_59">
    <path d="M 637.319953 462.04 
L 658.154749 462.04 
L 658.154749 462.04 
L 637.319953 462.04 
z
" clip-path="url(#p97f16221e0)" style="fill: #04e762; opacity: 0.7; stroke: #007c34; stroke-width: 1.5; stroke-linejoin: miter"/>
   </g>
   <g id="patch_60">
    <path d="M 658.154749 462.04 
L 678.989545 462.04 
L 678.989545 462.04 
L 658.154749 462.04 
z
" clip-path="url(#p97f16221e0)" style="fill: #04e762; opacity: 0.7; stroke: #007c34; stroke-width: 1.5; stroke-linejoin: miter"/>
   </g>
   <g id="matplotlib.axis_1">
    <g id="xtick_1">
     <g id="line2d_1">
      <defs>
       <path id="m73dbdf132b" d="M 0 0 
L 0 3.5 
" style="stroke: #000000; stroke-width: 0.8"/>
      </defs>
      <g>
       <use xlink:href="#m73dbdf132b" x="55.964123" y="462.04" style="stroke: #000000; stroke-width: 0.8"/>
      </g>
     </g>
     <g id="text_1">
      <!-- 250 -->
      <g transform="translate(46.420373 476.638438) scale(0.1 -0.1)">
       <defs>
        <path id="DejaVuSans-32" d="M 1228 531 
L 3431 531 
L 3431 0 
L 469 0 
L 469 531 
Q 828 903 1448 1529 
Q 2069 2156 2228 2338 
Q 2531 2678 2651 2914 
Q 2772 3150 2772 3378 
Q 2772 3750 2511 3984 
Q 2250 4219 1831 4219 
Q 1534 4219 1204 4116 
Q 875 4013 500 3803 
L 500 4441 
Q 881 4594 1212 4672 
Q 1544 4750 1819 4750 
Q 2544 4750 2975 4387 
Q 3406 4025 3406 3419 
Q 3406 3131 3298 2873 
Q 3191 2616 2906 2266 
Q 2828 2175 2409 1742 
Q 1991 1309 1228 531 
z
" transform="scale(0.015625)"/>
        <path id="DejaVuSans-35" d="M 691 4666 
L 3169 4666 
L 3169 4134 
L 1269 4134 
L 1269 2991 
Q 1406 3038 1543 3061 
Q 1681 3084 1819 3084 
Q 2600 3084 3056 2656 
Q 3513 2228 3513 1497 
Q 3513 744 3044 326 
Q 2575 -91 1722 -91 
Q 1428 -91 1123 -41 
Q 819 9 494 109 
L 494 744 
Q 775 591 1075 516 
Q 1375 441 1709 441 
Q 2250 441 2565 725 
Q 2881 1009 2881 1497 
Q 2881 1984 2565 2268 
Q 2250 2553 1709 2553 
Q 1456 2553 1204 2497 
Q 953 2441 691 2322 
L 691 4666 
z
" transform="scale(0.015625)"/>
        <path id="DejaVuSans-30" d="M 2034 4250 
Q 1547 4250 1301 3770 
Q 1056 3291 1056 2328 
Q 1056 1369 1301 889 
Q 1547 409 2034 409 
Q 2525 409 2770 889 
Q 3016 1369 3016 2328 
Q 3016 3291 2770 3770 
Q 2525 4250 2034 4250 
z
M 2034 4750 
Q 2819 4750 3233 4129 
Q 3647 3509 3647 2328 
Q 3647 1150 3233 529 
Q 2819 -91 2034 -91 
Q 1250 -91 836 529 
Q 422 1150 422 2328 
Q 422 3509 836 4129 
Q 1250 4750 2034 4750 
z
" transform="scale(0.015625)"/>
       </defs>
       <use xlink:href="#DejaVuSans-32"/>
       <use xlink:href="#DejaVuSans-35" transform="translate(63.623047 0)"/>
       <use xlink:href="#DejaVuSans-30" transform="translate(127.246094 0)"/>
      </g>
     </g>
    </g>
    <g id="xtick_2">
     <g id="line2d_2">
      <g>
       <use xlink:href="#m73dbdf132b" x="131.836427" y="462.04" style="stroke: #000000; stroke-width: 0.8"/>
      </g>
     </g>
     <g id="text_2">
      <!-- 500 -->
      <g transform="translate(122.292677 476.638438) scale(0.1 -0.1)">
       <use xlink:href="#DejaVuSans-35"/>
       <use xlink:href="#DejaVuSans-30" transform="translate(63.623047 0)"/>
       <use xlink:href="#DejaVuSans-30" transform="translate(127.246094 0)"/>
      </g>
     </g>
    </g>
    <g id="xtick_3">
     <g id="line2d_3">
      <g>
       <use xlink:href="#m73dbdf132b" x="207.708731" y="462.04" style="stroke: #000000; stroke-width: 0.8"/>
      </g>
     </g>
     <g id="text_3">
      <!-- 750 -->
      <g transform="translate(198.164981 476.638438) scale(0.1 -0.1)">
       <defs>
        <path id="DejaVuSans-37" d="M 525 4666 
L 3525 4666 
L 3525 4397 
L 1831 0 
L 1172 0 
L 2766 4134 
L 525 4134 
L 525 4666 
z
" transform="scale(0.015625)"/>
       </defs>
       <use xlink:href="#DejaVuSans-37"/>
       <use xlink:href="#DejaVuSans-35" transform="translate(63.623047 0)"/>
       <use xlink:href="#DejaVuSans-30" transform="translate(127.246094 0)"/>
      </g>
     </g>
    </g>
    <g id="xtick_4">
     <g id="line2d_4">
      <g>
       <use xlink:href="#m73dbdf132b" x="283.581034" y="462.04" style="stroke: #000000; stroke-width: 0.8"/>
      </g>
     </g>
     <g id="text_4">
      <!-- 1000 -->
      <g transform="translate(270.856034 476.638438) scale(0.1 -0.1)">
       <defs>
        <path id="DejaVuSans-31" d="M 794 531 
L 1825 531 
L 1825 4091 
L 703 3866 
L 703 4441 
L 1819 4666 
L 2450 4666 
L 2450 531 
L 3481 531 
L 3481 0 
L 794 0 
L 794 531 
z
" transform="scale(0.015625)"/>
       </defs>
       <use xlink:href="#DejaVuSans-31"/>
       <use xlink:href="#DejaVuSans-30" transform="translate(63.623047 0)"/>
       <use xlink:href="#DejaVuSans-30" transform="translate(127.246094 0)"/>
       <use xlink:href="#DejaVuSans-30" transform="translate(190.869141 0)"/>
      </g>
     </g>
    </g>
    <g id="xtick_5">
     <g id="line2d_5">
      <g>
       <use xlink:href="#m73dbdf132b" x="359.453338" y="462.04" style="stroke: #000000; stroke-width: 0.8"/>
      </g>
     </g>
     <g id="text_5">
      <!-- 1250 -->
      <g transform="translate(346.728338 476.638438) scale(0.1 -0.1)">
       <use xlink:href="#DejaVuSans-31"/>
       <use xlink:href="#DejaVuSans-32" transform="translate(63.623047 0)"/>
       <use xlink:href="#DejaVuSans-35" transform="translate(127.246094 0)"/>
       <use xlink:href="#DejaVuSans-30" transform="translate(190.869141 0)"/>
      </g>
     </g>
    </g>
    <g id="xtick_6">
     <g id="line2d_6">
      <g>
       <use xlink:href="#m73dbdf132b" x="435.325642" y="462.04" style="stroke: #000000; stroke-width: 0.8"/>
      </g>
     </g>
     <g id="text_6">
      <!-- 1500 -->
      <g transform="translate(422.600642 476.638438) scale(0.1 -0.1)">
       <use xlink:href="#DejaVuSans-31"/>
       <use xlink:href="#DejaVuSans-35" transform="translate(63.623047 0)"/>
       <use xlink:href="#DejaVuSans-30" transform="translate(127.246094 0)"/>
       <use xlink:href="#DejaVuSans-30" transform="translate(190.869141 0)"/>
      </g>
     </g>
    </g>
    <g id="xtick_7">
     <g id="line2d_7">
      <g>
       <use xlink:href="#m73dbdf132b" x="511.197946" y="462.04" style="stroke: #000000; stroke-width: 0.8"/>
      </g>
     </g>
     <g id="text_7">
      <!-- 1750 -->
      <g transform="translate(498.472946 476.638438) scale(0.1 -0.1)">
       <use xlink:href="#DejaVuSans-31"/>
       <use xlink:href="#DejaVuSans-37" transform="translate(63.623047 0)"/>
       <use xlink:href="#DejaVuSans-35" transform="translate(127.246094 0)"/>
       <use xlink:href="#DejaVuSans-30" transform="translate(190.869141 0)"/>
      </g>
     </g>
    </g>
    <g id="xtick_8">
     <g id="line2d_8">
      <g>
       <use xlink:href="#m73dbdf132b" x="587.070249" y="462.04" style="stroke: #000000; stroke-width: 0.8"/>
      </g>
     </g>
     <g id="text_8">
      <!-- 2000 -->
      <g transform="translate(574.345249 476.638438) scale(0.1 -0.1)">
       <use xlink:href="#DejaVuSans-32"/>
       <use xlink:href="#DejaVuSans-30" transform="translate(63.623047 0)"/>
       <use xlink:href="#DejaVuSans-30" transform="translate(127.246094 0)"/>
       <use xlink:href="#DejaVuSans-30" transform="translate(190.869141 0)"/>
      </g>
     </g>
    </g>
    <g id="xtick_9">
     <g id="line2d_9">
      <g>
       <use xlink:href="#m73dbdf132b" x="662.942553" y="462.04" style="stroke: #000000; stroke-width: 0.8"/>
      </g>
     </g>
     <g id="text_9">
      <!-- 2250 -->
      <g transform="translate(650.217553 476.638438) scale(0.1 -0.1)">
       <use xlink:href="#DejaVuSans-32"/>
       <use xlink:href="#DejaVuSans-32" transform="translate(63.623047 0)"/>
       <use xlink:href="#DejaVuSans-35" transform="translate(127.246094 0)"/>
       <use xlink:href="#DejaVuSans-30" transform="translate(190.869141 0)"/>
      </g>
     </g>
    </g>
    <g id="text_10">
     <!-- LEDD Pre -->
     <g transform="translate(353.70375 490.316563) scale(0.1 -0.1)">
      <defs>
       <path id="DejaVuSans-4c" d="M 628 4666 
L 1259 4666 
L 1259 531 
L 3531 531 
L 3531 0 
L 628 0 
L 628 4666 
z
" transform="scale(0.015625)"/>
       <path id="DejaVuSans-45" d="M 628 4666 
L 3578 4666 
L 3578 4134 
L 1259 4134 
L 1259 2753 
L 3481 2753 
L 3481 2222 
L 1259 2222 
L 1259 531 
L 3634 531 
L 3634 0 
L 628 0 
L 628 4666 
z
" transform="scale(0.015625)"/>
       <path id="DejaVuSans-44" d="M 1259 4147 
L 1259 519 
L 2022 519 
Q 2988 519 3436 956 
Q 3884 1394 3884 2338 
Q 3884 3275 3436 3711 
Q 2988 4147 2022 4147 
L 1259 4147 
z
M 628 4666 
L 1925 4666 
Q 3281 4666 3915 4102 
Q 4550 3538 4550 2338 
Q 4550 1131 3912 565 
Q 3275 0 1925 0 
L 628 0 
L 628 4666 
z
" transform="scale(0.015625)"/>
       <path id="DejaVuSans-20" transform="scale(0.015625)"/>
       <path id="DejaVuSans-50" d="M 1259 4147 
L 1259 2394 
L 2053 2394 
Q 2494 2394 2734 2622 
Q 2975 2850 2975 3272 
Q 2975 3691 2734 3919 
Q 2494 4147 2053 4147 
L 1259 4147 
z
M 628 4666 
L 2053 4666 
Q 2838 4666 3239 4311 
Q 3641 3956 3641 3272 
Q 3641 2581 3239 2228 
Q 2838 1875 2053 1875 
L 1259 1875 
L 1259 0 
L 628 0 
L 628 4666 
z
" transform="scale(0.015625)"/>
       <path id="DejaVuSans-72" d="M 2631 2963 
Q 2534 3019 2420 3045 
Q 2306 3072 2169 3072 
Q 1681 3072 1420 2755 
Q 1159 2438 1159 1844 
L 1159 0 
L 581 0 
L 581 3500 
L 1159 3500 
L 1159 2956 
Q 1341 3275 1631 3429 
Q 1922 3584 2338 3584 
Q 2397 3584 2469 3576 
Q 2541 3569 2628 3553 
L 2631 2963 
z
" transform="scale(0.015625)"/>
       <path id="DejaVuSans-65" d="M 3597 1894 
L 3597 1613 
L 953 1613 
Q 991 1019 1311 708 
Q 1631 397 2203 397 
Q 2534 397 2845 478 
Q 3156 559 3463 722 
L 3463 178 
Q 3153 47 2828 -22 
Q 2503 -91 2169 -91 
Q 1331 -91 842 396 
Q 353 884 353 1716 
Q 353 2575 817 3079 
Q 1281 3584 2069 3584 
Q 2775 3584 3186 3129 
Q 3597 2675 3597 1894 
z
M 3022 2063 
Q 3016 2534 2758 2815 
Q 2500 3097 2075 3097 
Q 1594 3097 1305 2825 
Q 1016 2553 972 2059 
L 3022 2063 
z
" transform="scale(0.015625)"/>
      </defs>
      <use xlink:href="#DejaVuSans-4c"/>
      <use xlink:href="#DejaVuSans-45" transform="translate(55.712891 0)"/>
      <use xlink:href="#DejaVuSans-44" transform="translate(118.896484 0)"/>
      <use xlink:href="#DejaVuSans-44" transform="translate(195.898438 0)"/>
      <use xlink:href="#DejaVuSans-20" transform="translate(272.900391 0)"/>
      <use xlink:href="#DejaVuSans-50" transform="translate(304.6875 0)"/>
      <use xlink:href="#DejaVuSans-72" transform="translate(363.240234 0)"/>
      <use xlink:href="#DejaVuSans-65" transform="translate(402.103516 0)"/>
     </g>
    </g>
   </g>
   <g id="matplotlib.axis_2">
    <g id="ytick_1">
     <g id="line2d_10">
      <defs>
       <path id="mb8baff09d8" d="M 0 0 
L -3.5 0 
" style="stroke: #000000; stroke-width: 0.8"/>
      </defs>
      <g>
       <use xlink:href="#mb8baff09d8" x="44.57" y="462.04" style="stroke: #000000; stroke-width: 0.8"/>
      </g>
     </g>
     <g id="text_11">
      <!-- 0 -->
      <g transform="translate(31.2075 465.839219) scale(0.1 -0.1)">
       <use xlink:href="#DejaVuSans-30"/>
      </g>
     </g>
    </g>
    <g id="ytick_2">
     <g id="line2d_11">
      <g>
       <use xlink:href="#mb8baff09d8" x="44.57" y="393.08127" style="stroke: #000000; stroke-width: 0.8"/>
      </g>
     </g>
     <g id="text_12">
      <!-- 2 -->
      <g transform="translate(31.2075 396.880489) scale(0.1 -0.1)">
       <use xlink:href="#DejaVuSans-32"/>
      </g>
     </g>
    </g>
    <g id="ytick_3">
     <g id="line2d_12">
      <g>
       <use xlink:href="#mb8baff09d8" x="44.57" y="324.12254" style="stroke: #000000; stroke-width: 0.8"/>
      </g>
     </g>
     <g id="text_13">
      <!-- 4 -->
      <g transform="translate(31.2075 327.921758) scale(0.1 -0.1)">
       <defs>
        <path id="DejaVuSans-34" d="M 2419 4116 
L 825 1625 
L 2419 1625 
L 2419 4116 
z
M 2253 4666 
L 3047 4666 
L 3047 1625 
L 3713 1625 
L 3713 1100 
L 3047 1100 
L 3047 0 
L 2419 0 
L 2419 1100 
L 313 1100 
L 313 1709 
L 2253 4666 
z
" transform="scale(0.015625)"/>
       </defs>
       <use xlink:href="#DejaVuSans-34"/>
      </g>
     </g>
    </g>
    <g id="ytick_4">
     <g id="line2d_13">
      <g>
       <use xlink:href="#mb8baff09d8" x="44.57" y="255.16381" style="stroke: #000000; stroke-width: 0.8"/>
      </g>
     </g>
     <g id="text_14">
      <!-- 6 -->
      <g transform="translate(31.2075 258.963028) scale(0.1 -0.1)">
       <defs>
        <path id="DejaVuSans-36" d="M 2113 2584 
Q 1688 2584 1439 2293 
Q 1191 2003 1191 1497 
Q 1191 994 1439 701 
Q 1688 409 2113 409 
Q 2538 409 2786 701 
Q 3034 994 3034 1497 
Q 3034 2003 2786 2293 
Q 2538 2584 2113 2584 
z
M 3366 4563 
L 3366 3988 
Q 3128 4100 2886 4159 
Q 2644 4219 2406 4219 
Q 1781 4219 1451 3797 
Q 1122 3375 1075 2522 
Q 1259 2794 1537 2939 
Q 1816 3084 2150 3084 
Q 2853 3084 3261 2657 
Q 3669 2231 3669 1497 
Q 3669 778 3244 343 
Q 2819 -91 2113 -91 
Q 1303 -91 875 529 
Q 447 1150 447 2328 
Q 447 3434 972 4092 
Q 1497 4750 2381 4750 
Q 2619 4750 2861 4703 
Q 3103 4656 3366 4563 
z
" transform="scale(0.015625)"/>
       </defs>
       <use xlink:href="#DejaVuSans-36"/>
      </g>
     </g>
    </g>
    <g id="ytick_5">
     <g id="line2d_14">
      <g>
       <use xlink:href="#mb8baff09d8" x="44.57" y="186.205079" style="stroke: #000000; stroke-width: 0.8"/>
      </g>
     </g>
     <g id="text_15">
      <!-- 8 -->
      <g transform="translate(31.2075 190.004298) scale(0.1 -0.1)">
       <defs>
        <path id="DejaVuSans-38" d="M 2034 2216 
Q 1584 2216 1326 1975 
Q 1069 1734 1069 1313 
Q 1069 891 1326 650 
Q 1584 409 2034 409 
Q 2484 409 2743 651 
Q 3003 894 3003 1313 
Q 3003 1734 2745 1975 
Q 2488 2216 2034 2216 
z
M 1403 2484 
Q 997 2584 770 2862 
Q 544 3141 544 3541 
Q 544 4100 942 4425 
Q 1341 4750 2034 4750 
Q 2731 4750 3128 4425 
Q 3525 4100 3525 3541 
Q 3525 3141 3298 2862 
Q 3072 2584 2669 2484 
Q 3125 2378 3379 2068 
Q 3634 1759 3634 1313 
Q 3634 634 3220 271 
Q 2806 -91 2034 -91 
Q 1263 -91 848 271 
Q 434 634 434 1313 
Q 434 1759 690 2068 
Q 947 2378 1403 2484 
z
M 1172 3481 
Q 1172 3119 1398 2916 
Q 1625 2713 2034 2713 
Q 2441 2713 2670 2916 
Q 2900 3119 2900 3481 
Q 2900 3844 2670 4047 
Q 2441 4250 2034 4250 
Q 1625 4250 1398 4047 
Q 1172 3844 1172 3481 
z
" transform="scale(0.015625)"/>
       </defs>
       <use xlink:href="#DejaVuSans-38"/>
      </g>
     </g>
    </g>
    <g id="ytick_6">
     <g id="line2d_15">
      <g>
       <use xlink:href="#mb8baff09d8" x="44.57" y="117.246349" style="stroke: #000000; stroke-width: 0.8"/>
      </g>
     </g>
     <g id="text_16">
      <!-- 10 -->
      <g transform="translate(24.845 121.045568) scale(0.1 -0.1)">
       <use xlink:href="#DejaVuSans-31"/>
       <use xlink:href="#DejaVuSans-30" transform="translate(63.623047 0)"/>
      </g>
     </g>
    </g>
    <g id="ytick_7">
     <g id="line2d_16">
      <g>
       <use xlink:href="#mb8baff09d8" x="44.57" y="48.287619" style="stroke: #000000; stroke-width: 0.8"/>
      </g>
     </g>
     <g id="text_17">
      <!-- 12 -->
      <g transform="translate(24.845 52.086838) scale(0.1 -0.1)">
       <use xlink:href="#DejaVuSans-31"/>
       <use xlink:href="#DejaVuSans-32" transform="translate(63.623047 0)"/>
      </g>
     </g>
    </g>
    <g id="text_18">
     <!-- Frequency -->
     <g transform="translate(18.765312 270.649688) rotate(-90) scale(0.1 -0.1)">
      <defs>
       <path id="DejaVuSans-46" d="M 628 4666 
L 3309 4666 
L 3309 4134 
L 1259 4134 
L 1259 2759 
L 3109 2759 
L 3109 2228 
L 1259 2228 
L 1259 0 
L 628 0 
L 628 4666 
z
" transform="scale(0.015625)"/>
       <path id="DejaVuSans-71" d="M 947 1747 
Q 947 1113 1208 752 
Q 1469 391 1925 391 
Q 2381 391 2643 752 
Q 2906 1113 2906 1747 
Q 2906 2381 2643 2742 
Q 2381 3103 1925 3103 
Q 1469 3103 1208 2742 
Q 947 2381 947 1747 
z
M 2906 525 
Q 2725 213 2448 61 
Q 2172 -91 1784 -91 
Q 1150 -91 751 415 
Q 353 922 353 1747 
Q 353 2572 751 3078 
Q 1150 3584 1784 3584 
Q 2172 3584 2448 3432 
Q 2725 3281 2906 2969 
L 2906 3500 
L 3481 3500 
L 3481 -1331 
L 2906 -1331 
L 2906 525 
z
" transform="scale(0.015625)"/>
       <path id="DejaVuSans-75" d="M 544 1381 
L 544 3500 
L 1119 3500 
L 1119 1403 
Q 1119 906 1312 657 
Q 1506 409 1894 409 
Q 2359 409 2629 706 
Q 2900 1003 2900 1516 
L 2900 3500 
L 3475 3500 
L 3475 0 
L 2900 0 
L 2900 538 
Q 2691 219 2414 64 
Q 2138 -91 1772 -91 
Q 1169 -91 856 284 
Q 544 659 544 1381 
z
M 1991 3584 
L 1991 3584 
z
" transform="scale(0.015625)"/>
       <path id="DejaVuSans-6e" d="M 3513 2113 
L 3513 0 
L 2938 0 
L 2938 2094 
Q 2938 2591 2744 2837 
Q 2550 3084 2163 3084 
Q 1697 3084 1428 2787 
Q 1159 2491 1159 1978 
L 1159 0 
L 581 0 
L 581 3500 
L 1159 3500 
L 1159 2956 
Q 1366 3272 1645 3428 
Q 1925 3584 2291 3584 
Q 2894 3584 3203 3211 
Q 3513 2838 3513 2113 
z
" transform="scale(0.015625)"/>
       <path id="DejaVuSans-63" d="M 3122 3366 
L 3122 2828 
Q 2878 2963 2633 3030 
Q 2388 3097 2138 3097 
Q 1578 3097 1268 2742 
Q 959 2388 959 1747 
Q 959 1106 1268 751 
Q 1578 397 2138 397 
Q 2388 397 2633 464 
Q 2878 531 3122 666 
L 3122 134 
Q 2881 22 2623 -34 
Q 2366 -91 2075 -91 
Q 1284 -91 818 406 
Q 353 903 353 1747 
Q 353 2603 823 3093 
Q 1294 3584 2113 3584 
Q 2378 3584 2631 3529 
Q 2884 3475 3122 3366 
z
" transform="scale(0.015625)"/>
       <path id="DejaVuSans-79" d="M 2059 -325 
Q 1816 -950 1584 -1140 
Q 1353 -1331 966 -1331 
L 506 -1331 
L 506 -850 
L 844 -850 
Q 1081 -850 1212 -737 
Q 1344 -625 1503 -206 
L 1606 56 
L 191 3500 
L 800 3500 
L 1894 763 
L 2988 3500 
L 3597 3500 
L 2059 -325 
z
" transform="scale(0.015625)"/>
      </defs>
      <use xlink:href="#DejaVuSans-46"/>
      <use xlink:href="#DejaVuSans-72" transform="translate(50.269531 0)"/>
      <use xlink:href="#DejaVuSans-65" transform="translate(89.132812 0)"/>
      <use xlink:href="#DejaVuSans-71" transform="translate(150.65625 0)"/>
      <use xlink:href="#DejaVuSans-75" transform="translate(214.132812 0)"/>
      <use xlink:href="#DejaVuSans-65" transform="translate(277.511719 0)"/>
      <use xlink:href="#DejaVuSans-6e" transform="translate(339.035156 0)"/>
      <use xlink:href="#DejaVuSans-63" transform="translate(402.414062 0)"/>
      <use xlink:href="#DejaVuSans-79" transform="translate(457.394531 0)"/>
     </g>
    </g>
   </g>
   <g id="line2d_17">
    <path d="M 329.683437 462.04 
L 329.683437 27.6 
" clip-path="url(#p97f16221e0)" style="fill: none; stroke-dasharray: 7.4,3.2; stroke-dashoffset: 0; stroke: #000000; stroke-width: 2"/>
   </g>
   <g id="patch_61">
    <path d="M 44.57 462.04 
L 44.57 27.6 
" style="fill: none; stroke: #000000; stroke-width: 0.8; stroke-linejoin: miter; stroke-linecap: square"/>
   </g>
   <g id="patch_62">
    <path d="M 44.57 462.04 
L 709.2 462.04 
" style="fill: none; stroke: #000000; stroke-width: 0.8; stroke-linejoin: miter; stroke-linecap: square"/>
   </g>
   <g id="text_19">
    <!-- LEDD Pre — SHAP sign split (Accuracy: 0.95) -->
    <g transform="translate(221.312187 21.6) scale(0.14 -0.14)">
     <defs>
      <path id="DejaVuSans-2014" d="M 313 1978 
L 6088 1978 
L 6088 1528 
L 313 1528 
L 313 1978 
z
" transform="scale(0.015625)"/>
      <path id="DejaVuSans-53" d="M 3425 4513 
L 3425 3897 
Q 3066 4069 2747 4153 
Q 2428 4238 2131 4238 
Q 1616 4238 1336 4038 
Q 1056 3838 1056 3469 
Q 1056 3159 1242 3001 
Q 1428 2844 1947 2747 
L 2328 2669 
Q 3034 2534 3370 2195 
Q 3706 1856 3706 1288 
Q 3706 609 3251 259 
Q 2797 -91 1919 -91 
Q 1588 -91 1214 -16 
Q 841 59 441 206 
L 441 856 
Q 825 641 1194 531 
Q 1563 422 1919 422 
Q 2459 422 2753 634 
Q 3047 847 3047 1241 
Q 3047 1584 2836 1778 
Q 2625 1972 2144 2069 
L 1759 2144 
Q 1053 2284 737 2584 
Q 422 2884 422 3419 
Q 422 4038 858 4394 
Q 1294 4750 2059 4750 
Q 2388 4750 2728 4690 
Q 3069 4631 3425 4513 
z
" transform="scale(0.015625)"/>
      <path id="DejaVuSans-48" d="M 628 4666 
L 1259 4666 
L 1259 2753 
L 3553 2753 
L 3553 4666 
L 4184 4666 
L 4184 0 
L 3553 0 
L 3553 2222 
L 1259 2222 
L 1259 0 
L 628 0 
L 628 4666 
z
" transform="scale(0.015625)"/>
      <path id="DejaVuSans-41" d="M 2188 4044 
L 1331 1722 
L 3047 1722 
L 2188 4044 
z
M 1831 4666 
L 2547 4666 
L 4325 0 
L 3669 0 
L 3244 1197 
L 1141 1197 
L 716 0 
L 50 0 
L 1831 4666 
z
" transform="scale(0.015625)"/>
      <path id="DejaVuSans-73" d="M 2834 3397 
L 2834 2853 
Q 2591 2978 2328 3040 
Q 2066 3103 1784 3103 
Q 1356 3103 1142 2972 
Q 928 2841 928 2578 
Q 928 2378 1081 2264 
Q 1234 2150 1697 2047 
L 1894 2003 
Q 2506 1872 2764 1633 
Q 3022 1394 3022 966 
Q 3022 478 2636 193 
Q 2250 -91 1575 -91 
Q 1294 -91 989 -36 
Q 684 19 347 128 
L 347 722 
Q 666 556 975 473 
Q 1284 391 1588 391 
Q 1994 391 2212 530 
Q 2431 669 2431 922 
Q 2431 1156 2273 1281 
Q 2116 1406 1581 1522 
L 1381 1569 
Q 847 1681 609 1914 
Q 372 2147 372 2553 
Q 372 3047 722 3315 
Q 1072 3584 1716 3584 
Q 2034 3584 2315 3537 
Q 2597 3491 2834 3397 
z
" transform="scale(0.015625)"/>
      <path id="DejaVuSans-69" d="M 603 3500 
L 1178 3500 
L 1178 0 
L 603 0 
L 603 3500 
z
M 603 4863 
L 1178 4863 
L 1178 4134 
L 603 4134 
L 603 4863 
z
" transform="scale(0.015625)"/>
      <path id="DejaVuSans-67" d="M 2906 1791 
Q 2906 2416 2648 2759 
Q 2391 3103 1925 3103 
Q 1463 3103 1205 2759 
Q 947 2416 947 1791 
Q 947 1169 1205 825 
Q 1463 481 1925 481 
Q 2391 481 2648 825 
Q 2906 1169 2906 1791 
z
M 3481 434 
Q 3481 -459 3084 -895 
Q 2688 -1331 1869 -1331 
Q 1566 -1331 1297 -1286 
Q 1028 -1241 775 -1147 
L 775 -588 
Q 1028 -725 1275 -790 
Q 1522 -856 1778 -856 
Q 2344 -856 2625 -561 
Q 2906 -266 2906 331 
L 2906 616 
Q 2728 306 2450 153 
Q 2172 0 1784 0 
Q 1141 0 747 490 
Q 353 981 353 1791 
Q 353 2603 747 3093 
Q 1141 3584 1784 3584 
Q 2172 3584 2450 3431 
Q 2728 3278 2906 2969 
L 2906 3500 
L 3481 3500 
L 3481 434 
z
" transform="scale(0.015625)"/>
      <path id="DejaVuSans-70" d="M 1159 525 
L 1159 -1331 
L 581 -1331 
L 581 3500 
L 1159 3500 
L 1159 2969 
Q 1341 3281 1617 3432 
Q 1894 3584 2278 3584 
Q 2916 3584 3314 3078 
Q 3713 2572 3713 1747 
Q 3713 922 3314 415 
Q 2916 -91 2278 -91 
Q 1894 -91 1617 61 
Q 1341 213 1159 525 
z
M 3116 1747 
Q 3116 2381 2855 2742 
Q 2594 3103 2138 3103 
Q 1681 3103 1420 2742 
Q 1159 2381 1159 1747 
Q 1159 1113 1420 752 
Q 1681 391 2138 391 
Q 2594 391 2855 752 
Q 3116 1113 3116 1747 
z
" transform="scale(0.015625)"/>
      <path id="DejaVuSans-6c" d="M 603 4863 
L 1178 4863 
L 1178 0 
L 603 0 
L 603 4863 
z
" transform="scale(0.015625)"/>
      <path id="DejaVuSans-74" d="M 1172 4494 
L 1172 3500 
L 2356 3500 
L 2356 3053 
L 1172 3053 
L 1172 1153 
Q 1172 725 1289 603 
Q 1406 481 1766 481 
L 2356 481 
L 2356 0 
L 1766 0 
Q 1100 0 847 248 
Q 594 497 594 1153 
L 594 3053 
L 172 3053 
L 172 3500 
L 594 3500 
L 594 4494 
L 1172 4494 
z
" transform="scale(0.015625)"/>
      <path id="DejaVuSans-28" d="M 1984 4856 
Q 1566 4138 1362 3434 
Q 1159 2731 1159 2009 
Q 1159 1288 1364 580 
Q 1569 -128 1984 -844 
L 1484 -844 
Q 1016 -109 783 600 
Q 550 1309 550 2009 
Q 550 2706 781 3412 
Q 1013 4119 1484 4856 
L 1984 4856 
z
" transform="scale(0.015625)"/>
      <path id="DejaVuSans-61" d="M 2194 1759 
Q 1497 1759 1228 1600 
Q 959 1441 959 1056 
Q 959 750 1161 570 
Q 1363 391 1709 391 
Q 2188 391 2477 730 
Q 2766 1069 2766 1631 
L 2766 1759 
L 2194 1759 
z
M 3341 1997 
L 3341 0 
L 2766 0 
L 2766 531 
Q 2569 213 2275 61 
Q 1981 -91 1556 -91 
Q 1019 -91 701 211 
Q 384 513 384 1019 
Q 384 1609 779 1909 
Q 1175 2209 1959 2209 
L 2766 2209 
L 2766 2266 
Q 2766 2663 2505 2880 
Q 2244 3097 1772 3097 
Q 1472 3097 1187 3025 
Q 903 2953 641 2809 
L 641 3341 
Q 956 3463 1253 3523 
Q 1550 3584 1831 3584 
Q 2591 3584 2966 3190 
Q 3341 2797 3341 1997 
z
" transform="scale(0.015625)"/>
      <path id="DejaVuSans-3a" d="M 750 794 
L 1409 794 
L 1409 0 
L 750 0 
L 750 794 
z
M 750 3309 
L 1409 3309 
L 1409 2516 
L 750 2516 
L 750 3309 
z
" transform="scale(0.015625)"/>
      <path id="DejaVuSans-2e" d="M 684 794 
L 1344 794 
L 1344 0 
L 684 0 
L 684 794 
z
" transform="scale(0.015625)"/>
      <path id="DejaVuSans-39" d="M 703 97 
L 703 672 
Q 941 559 1184 500 
Q 1428 441 1663 441 
Q 2288 441 2617 861 
Q 2947 1281 2994 2138 
Q 2813 1869 2534 1725 
Q 2256 1581 1919 1581 
Q 1219 1581 811 2004 
Q 403 2428 403 3163 
Q 403 3881 828 4315 
Q 1253 4750 1959 4750 
Q 2769 4750 3195 4129 
Q 3622 3509 3622 2328 
Q 3622 1225 3098 567 
Q 2575 -91 1691 -91 
Q 1453 -91 1209 -44 
Q 966 3 703 97 
z
M 1959 2075 
Q 2384 2075 2632 2365 
Q 2881 2656 2881 3163 
Q 2881 3666 2632 3958 
Q 2384 4250 1959 4250 
Q 1534 4250 1286 3958 
Q 1038 3666 1038 3163 
Q 1038 2656 1286 2365 
Q 1534 2075 1959 2075 
z
" transform="scale(0.015625)"/>
      <path id="DejaVuSans-29" d="M 513 4856 
L 1013 4856 
Q 1481 4119 1714 3412 
Q 1947 2706 1947 2009 
Q 1947 1309 1714 600 
Q 1481 -109 1013 -844 
L 513 -844 
Q 928 -128 1133 580 
Q 1338 1288 1338 2009 
Q 1338 2731 1133 3434 
Q 928 4138 513 4856 
z
" transform="scale(0.015625)"/>
     </defs>
     <use xlink:href="#DejaVuSans-4c"/>
     <use xlink:href="#DejaVuSans-45" transform="translate(55.712891 0)"/>
     <use xlink:href="#DejaVuSans-44" transform="translate(118.896484 0)"/>
     <use xlink:href="#DejaVuSans-44" transform="translate(195.898438 0)"/>
     <use xlink:href="#DejaVuSans-20" transform="translate(272.900391 0)"/>
     <use xlink:href="#DejaVuSans-50" transform="translate(304.6875 0)"/>
     <use xlink:href="#DejaVuSans-72" transform="translate(363.240234 0)"/>
     <use xlink:href="#DejaVuSans-65" transform="translate(402.103516 0)"/>
     <use xlink:href="#DejaVuSans-20" transform="translate(463.626953 0)"/>
     <use xlink:href="#DejaVuSans-2014" transform="translate(495.414062 0)"/>
     <use xlink:href="#DejaVuSans-20" transform="translate(595.414062 0)"/>
     <use xlink:href="#DejaVuSans-53" transform="translate(627.201172 0)"/>
     <use xlink:href="#DejaVuSans-48" transform="translate(690.677734 0)"/>
     <use xlink:href="#DejaVuSans-41" transform="translate(765.873047 0)"/>
     <use xlink:href="#DejaVuSans-50" transform="translate(834.28125 0)"/>
     <use xlink:href="#DejaVuSans-20" transform="translate(894.583984 0)"/>
     <use xlink:href="#DejaVuSans-73" transform="translate(926.371094 0)"/>
     <use xlink:href="#DejaVuSans-69" transform="translate(978.470703 0)"/>
     <use xlink:href="#DejaVuSans-67" transform="translate(1006.253906 0)"/>
     <use xlink:href="#DejaVuSans-6e" transform="translate(1069.730469 0)"/>
     <use xlink:href="#DejaVuSans-20" transform="translate(1133.109375 0)"/>
     <use xlink:href="#DejaVuSans-73" transform="translate(1164.896484 0)"/>
     <use xlink:href="#DejaVuSans-70" transform="translate(1216.996094 0)"/>
     <use xlink:href="#DejaVuSans-6c" transform="translate(1280.472656 0)"/>
     <use xlink:href="#DejaVuSans-69" transform="translate(1308.255859 0)"/>
     <use xlink:href="#DejaVuSans-74" transform="translate(1336.039062 0)"/>
     <use xlink:href="#DejaVuSans-20" transform="translate(1375.248047 0)"/>
     <use xlink:href="#DejaVuSans-28" transform="translate(1407.035156 0)"/>
     <use xlink:href="#DejaVuSans-41" transform="translate(1446.048828 0)"/>
     <use xlink:href="#DejaVuSans-63" transform="translate(1512.707031 0)"/>
     <use xlink:href="#DejaVuSans-63" transform="translate(1567.6875 0)"/>
     <use xlink:href="#DejaVuSans-75" transform="translate(1622.667969 0)"/>
     <use xlink:href="#DejaVuSans-72" transform="translate(1686.046875 0)"/>
     <use xlink:href="#DejaVuSans-61" transform="translate(1727.160156 0)"/>
     <use xlink:href="#DejaVuSans-63" transform="translate(1788.439453 0)"/>
     <use xlink:href="#DejaVuSans-79" transform="translate(1843.419922 0)"/>
     <use xlink:href="#DejaVuSans-3a" transform="translate(1895.349609 0)"/>
     <use xlink:href="#DejaVuSans-20" transform="translate(1929.041016 0)"/>
     <use xlink:href="#DejaVuSans-30" transform="translate(1960.828125 0)"/>
     <use xlink:href="#DejaVuSans-2e" transform="translate(2024.451172 0)"/>
     <use xlink:href="#DejaVuSans-39" transform="translate(2056.238281 0)"/>
     <use xlink:href="#DejaVuSans-35" transform="translate(2119.861328 0)"/>
     <use xlink:href="#DejaVuSans-29" transform="translate(2183.484375 0)"/>
    </g>
   </g>
   <g id="legend_1">
    <g id="patch_63">
     <path d="M 535.664062 79.634375 
L 702.2 79.634375 
Q 704.2 79.634375 704.2 77.634375 
L 704.2 34.6 
Q 704.2 32.6 702.2 32.6 
L 535.664062 32.6 
Q 533.664062 32.6 533.664062 34.6 
L 533.664062 77.634375 
Q 533.664062 79.634375 535.664062 79.634375 
z
" style="fill: #ffffff; opacity: 0.8; stroke: #cccccc; stroke-linejoin: miter"/>
    </g>
    <g id="line2d_18">
     <path d="M 537.664062 40.698437 
L 547.664062 40.698437 
L 557.664062 40.698437 
" style="fill: none; stroke-dasharray: 7.4,3.2; stroke-dashoffset: 0; stroke: #000000; stroke-width: 2"/>
    </g>
    <g id="text_20">
     <!-- SVM threshold = 1151.908 -->
     <g transform="translate(565.664062 44.198437) scale(0.1 -0.1)">
      <defs>
       <path id="DejaVuSans-56" d="M 1831 0 
L 50 4666 
L 709 4666 
L 2188 738 
L 3669 4666 
L 4325 4666 
L 2547 0 
L 1831 0 
z
" transform="scale(0.015625)"/>
       <path id="DejaVuSans-4d" d="M 628 4666 
L 1569 4666 
L 2759 1491 
L 3956 4666 
L 4897 4666 
L 4897 0 
L 4281 0 
L 4281 4097 
L 3078 897 
L 2444 897 
L 1241 4097 
L 1241 0 
L 628 0 
L 628 4666 
z
" transform="scale(0.015625)"/>
       <path id="DejaVuSans-68" d="M 3513 2113 
L 3513 0 
L 2938 0 
L 2938 2094 
Q 2938 2591 2744 2837 
Q 2550 3084 2163 3084 
Q 1697 3084 1428 2787 
Q 1159 2491 1159 1978 
L 1159 0 
L 581 0 
L 581 4863 
L 1159 4863 
L 1159 2956 
Q 1366 3272 1645 3428 
Q 1925 3584 2291 3584 
Q 2894 3584 3203 3211 
Q 3513 2838 3513 2113 
z
" transform="scale(0.015625)"/>
       <path id="DejaVuSans-6f" d="M 1959 3097 
Q 1497 3097 1228 2736 
Q 959 2375 959 1747 
Q 959 1119 1226 758 
Q 1494 397 1959 397 
Q 2419 397 2687 759 
Q 2956 1122 2956 1747 
Q 2956 2369 2687 2733 
Q 2419 3097 1959 3097 
z
M 1959 3584 
Q 2709 3584 3137 3096 
Q 3566 2609 3566 1747 
Q 3566 888 3137 398 
Q 2709 -91 1959 -91 
Q 1206 -91 779 398 
Q 353 888 353 1747 
Q 353 2609 779 3096 
Q 1206 3584 1959 3584 
z
" transform="scale(0.015625)"/>
       <path id="DejaVuSans-64" d="M 2906 2969 
L 2906 4863 
L 3481 4863 
L 3481 0 
L 2906 0 
L 2906 525 
Q 2725 213 2448 61 
Q 2172 -91 1784 -91 
Q 1150 -91 751 415 
Q 353 922 353 1747 
Q 353 2572 751 3078 
Q 1150 3584 1784 3584 
Q 2172 3584 2448 3432 
Q 2725 3281 2906 2969 
z
M 947 1747 
Q 947 1113 1208 752 
Q 1469 391 1925 391 
Q 2381 391 2643 752 
Q 2906 1113 2906 1747 
Q 2906 2381 2643 2742 
Q 2381 3103 1925 3103 
Q 1469 3103 1208 2742 
Q 947 2381 947 1747 
z
" transform="scale(0.015625)"/>
       <path id="DejaVuSans-3d" d="M 678 2906 
L 4684 2906 
L 4684 2381 
L 678 2381 
L 678 2906 
z
M 678 1631 
L 4684 1631 
L 4684 1100 
L 678 1100 
L 678 1631 
z
" transform="scale(0.015625)"/>
      </defs>
      <use xlink:href="#DejaVuSans-53"/>
      <use xlink:href="#DejaVuSans-56" transform="translate(63.476562 0)"/>
      <use xlink:href="#DejaVuSans-4d" transform="translate(131.884766 0)"/>
      <use xlink:href="#DejaVuSans-20" transform="translate(218.164062 0)"/>
      <use xlink:href="#DejaVuSans-74" transform="translate(249.951172 0)"/>
      <use xlink:href="#DejaVuSans-68" transform="translate(289.160156 0)"/>
      <use xlink:href="#DejaVuSans-72" transform="translate(352.539062 0)"/>
      <use xlink:href="#DejaVuSans-65" transform="translate(391.402344 0)"/>
      <use xlink:href="#DejaVuSans-73" transform="translate(452.925781 0)"/>
      <use xlink:href="#DejaVuSans-68" transform="translate(505.025391 0)"/>
      <use xlink:href="#DejaVuSans-6f" transform="translate(568.404297 0)"/>
      <use xlink:href="#DejaVuSans-6c" transform="translate(629.585938 0)"/>
      <use xlink:href="#DejaVuSans-64" transform="translate(657.369141 0)"/>
      <use xlink:href="#DejaVuSans-20" transform="translate(720.845703 0)"/>
      <use xlink:href="#DejaVuSans-3d" transform="translate(752.632812 0)"/>
      <use xlink:href="#DejaVuSans-20" transform="translate(836.421875 0)"/>
      <use xlink:href="#DejaVuSans-31" transform="translate(868.208984 0)"/>
      <use xlink:href="#DejaVuSans-31" transform="translate(931.832031 0)"/>
      <use xlink:href="#DejaVuSans-35" transform="translate(995.455078 0)"/>
      <use xlink:href="#DejaVuSans-31" transform="translate(1059.078125 0)"/>
      <use xlink:href="#DejaVuSans-2e" transform="translate(1122.701172 0)"/>
      <use xlink:href="#DejaVuSans-39" transform="translate(1154.488281 0)"/>
      <use xlink:href="#DejaVuSans-30" transform="translate(1218.111328 0)"/>
      <use xlink:href="#DejaVuSans-38" transform="translate(1281.734375 0)"/>
     </g>
    </g>
    <g id="patch_64">
     <path d="M 537.664062 58.876562 
L 557.664062 58.876562 
L 557.664062 51.876562 
L 537.664062 51.876562 
z
" style="fill: #ff5714; opacity: 0.7; stroke: #8a3210; stroke-width: 1.5; stroke-linejoin: miter"/>
    </g>
    <g id="text_21">
     <!-- negative SHAPs -->
     <g transform="translate(565.664062 58.876562) scale(0.1 -0.1)">
      <defs>
       <path id="DejaVuSans-76" d="M 191 3500 
L 800 3500 
L 1894 563 
L 2988 3500 
L 3597 3500 
L 2284 0 
L 1503 0 
L 191 3500 
z
" transform="scale(0.015625)"/>
      </defs>
      <use xlink:href="#DejaVuSans-6e"/>
      <use xlink:href="#DejaVuSans-65" transform="translate(63.378906 0)"/>
      <use xlink:href="#DejaVuSans-67" transform="translate(124.902344 0)"/>
      <use xlink:href="#DejaVuSans-61" transform="translate(188.378906 0)"/>
      <use xlink:href="#DejaVuSans-74" transform="translate(249.658203 0)"/>
      <use xlink:href="#DejaVuSans-69" transform="translate(288.867188 0)"/>
      <use xlink:href="#DejaVuSans-76" transform="translate(316.650391 0)"/>
      <use xlink:href="#DejaVuSans-65" transform="translate(375.830078 0)"/>
      <use xlink:href="#DejaVuSans-20" transform="translate(437.353516 0)"/>
      <use xlink:href="#DejaVuSans-53" transform="translate(469.140625 0)"/>
      <use xlink:href="#DejaVuSans-48" transform="translate(532.617188 0)"/>
      <use xlink:href="#DejaVuSans-41" transform="translate(607.8125 0)"/>
      <use xlink:href="#DejaVuSans-50" transform="translate(676.220703 0)"/>
      <use xlink:href="#DejaVuSans-73" transform="translate(734.773438 0)"/>
     </g>
    </g>
    <g id="patch_65">
     <path d="M 537.664062 73.554687 
L 557.664062 73.554687 
L 557.664062 66.554687 
L 537.664062 66.554687 
z
" style="fill: #04e762; opacity: 0.7; stroke: #007c34; stroke-width: 1.5; stroke-linejoin: miter"/>
    </g>
    <g id="text_22">
     <!-- positive SHAPs -->
     <g transform="translate(565.664062 73.554687) scale(0.1 -0.1)">
      <use xlink:href="#DejaVuSans-70"/>
      <use xlink:href="#DejaVuSans-6f" transform="translate(63.476562 0)"/>
      <use xlink:href="#DejaVuSans-73" transform="translate(124.658203 0)"/>
      <use xlink:href="#DejaVuSans-69" transform="translate(176.757812 0)"/>
      <use xlink:href="#DejaVuSans-74" transform="translate(204.541016 0)"/>
      <use xlink:href="#DejaVuSans-69" transform="translate(243.75 0)"/>
      <use xlink:href="#DejaVuSans-76" transform="translate(271.533203 0)"/>
      <use xlink:href="#DejaVuSans-65" transform="translate(330.712891 0)"/>
      <use xlink:href="#DejaVuSans-20" transform="translate(392.236328 0)"/>
      <use xlink:href="#DejaVuSans-53" transform="translate(424.023438 0)"/>
      <use xlink:href="#DejaVuSans-48" transform="translate(487.5 0)"/>
      <use xlink:href="#DejaVuSans-41" transform="translate(562.695312 0)"/>
      <use xlink:href="#DejaVuSans-50" transform="translate(631.103516 0)"/>
      <use xlink:href="#DejaVuSans-73" transform="translate(689.65625 0)"/>
     </g>
    </g>
   </g>
  </g>
 </g>
 <defs>
  <clipPath id="p97f16221e0">
   <rect x="44.57" y="27.6" width="664.63" height="434.44"/>
  </clipPath>
 </defs>
</svg>
