<?xml version="1.0" encoding="utf-8" standalone="no"?>
<!DOCTYPE svg PUBLIC "-//W3C//DTD SVG 1.1//EN"
  "http://www.w3.org/Graphics/SVG/1.1/DTD/svg11.dtd">
<svg xmlns:xlink="http://www.w3.org/1999/xlink" width="504pt" height="504pt" viewBox="0 0 504 504" xmlns="http://www.w3.org/2000/svg" version="1.1">
 <metadata>
  <rdf:RDF xmlns:dc="http://purl.org/dc/elements/1.1/" xmlns:cc="http://creativecommons.org/ns#" xmlns:rdf="http://www.w3.org/1999/02/22-rdf-syntax-ns#">
   <cc:Work>
    <dc:type rdf:resource="http://purl.org/dc/dcmitype/StillImage"/>
    <dc:date>2025-10-25T16:05:43.646235</dc:date>
    <dc:format>image/svg+xml</dc:format>
    <dc:creator>
     <cc:Agent>
      <dc:title>Matplotlib v3.10.0, https://matplotlib.org/</dc:title>
     </cc:Agent>
    </dc:creator>
   </cc:Work>
  </rdf:RDF>
 </metadata>
 <defs>
  <style type="text/css">*{stroke-linejoin: round; stroke-linecap: butt}</style>
 </defs>
 <g id="figure_1">
  <g id="patch_1">
   <path d="M 0 504 
L 504 504 
L 504 0 
L 0 0 
z
" style="fill: #ffffff"/>
  </g>
  <g id="axes_1">
   <g id="patch_2">
    <path d="M 58.758 387.7776 
L 493.632 387.7776 
L 493.632 27.168 
L 58.758 27.168 
z
" style="fill: #ffffff"/>
   </g>
   <g id="matplotlib.axis_1">
    <g id="xtick_1">
     <g id="text_1">
      <!-- Pre -->
      <g style="fill: #262626" transform="translate(158.734938 404.435881) scale(0.11 -0.11)">
       <defs>
        <path id="DejaVuSans-50" d="M 1259 4147 
L 1259 2394 
L 2053 2394 
Q 2494 2394 2734 2622 
Q 2975 2850 2975 3272 
Q 2975 3691 2734 3919 
Q 2494 4147 2053 4147 
L 1259 4147 
z
M 628 4666 
L 2053 4666 
Q 2838 4666 3239 4311 
Q 3641 3956 3641 3272 
Q 3641 2581 3239 2228 
Q 2838 1875 2053 1875 
L 1259 1875 
L 1259 0 
L 628 0 
L 628 4666 
z
" transform="scale(0.015625)"/>
        <path id="DejaVuSans-72" d="M 2631 2963 
Q 2534 3019 2420 3045 
Q 2306 3072 2169 3072 
Q 1681 3072 1420 2755 
Q 1159 2438 1159 1844 
L 1159 0 
L 581 0 
L 581 3500 
L 1159 3500 
L 1159 2956 
Q 1341 3275 1631 3429 
Q 1922 3584 2338 3584 
Q 2397 3584 2469 3576 
Q 2541 3569 2628 3553 
L 2631 2963 
z
" transform="scale(0.015625)"/>
        <path id="DejaVuSans-65" d="M 3597 1894 
L 3597 1613 
L 953 1613 
Q 991 1019 1311 708 
Q 1631 397 2203 397 
Q 2534 397 2845 478 
Q 3156 559 3463 722 
L 3463 178 
Q 3153 47 2828 -22 
Q 2503 -91 2169 -91 
Q 1331 -91 842 396 
Q 353 884 353 1716 
Q 353 2575 817 3079 
Q 1281 3584 2069 3584 
Q 2775 3584 3186 3129 
Q 3597 2675 3597 1894 
z
M 3022 2063 
Q 3016 2534 2758 2815 
Q 2500 3097 2075 3097 
Q 1594 3097 1305 2825 
Q 1016 2553 972 2059 
L 3022 2063 
z
" transform="scale(0.015625)"/>
       </defs>
       <use xlink:href="#DejaVuSans-50"/>
       <use xlink:href="#DejaVuSans-72" transform="translate(58.552734 0)"/>
       <use xlink:href="#DejaVuSans-65" transform="translate(97.416016 0)"/>
      </g>
     </g>
    </g>
    <g id="xtick_2">
     <g id="text_2">
      <!-- Post -->
      <g style="fill: #262626" transform="translate(373.409906 404.435881) scale(0.11 -0.11)">
       <defs>
        <path id="DejaVuSans-6f" d="M 1959 3097 
Q 1497 3097 1228 2736 
Q 959 2375 959 1747 
Q 959 1119 1226 758 
Q 1494 397 1959 397 
Q 2419 397 2687 759 
Q 2956 1122 2956 1747 
Q 2956 2369 2687 2733 
Q 2419 3097 1959 3097 
z
M 1959 3584 
Q 2709 3584 3137 3096 
Q 3566 2609 3566 1747 
Q 3566 888 3137 398 
Q 2709 -91 1959 -91 
Q 1206 -91 779 398 
Q 353 888 353 1747 
Q 353 2609 779 3096 
Q 1206 3584 1959 3584 
z
" transform="scale(0.015625)"/>
        <path id="DejaVuSans-73" d="M 2834 3397 
L 2834 2853 
Q 2591 2978 2328 3040 
Q 2066 3103 1784 3103 
Q 1356 3103 1142 2972 
Q 928 2841 928 2578 
Q 928 2378 1081 2264 
Q 1234 2150 1697 2047 
L 1894 2003 
Q 2506 1872 2764 1633 
Q 3022 1394 3022 966 
Q 3022 478 2636 193 
Q 2250 -91 1575 -91 
Q 1294 -91 989 -36 
Q 684 19 347 128 
L 347 722 
Q 666 556 975 473 
Q 1284 391 1588 391 
Q 1994 391 2212 530 
Q 2431 669 2431 922 
Q 2431 1156 2273 1281 
Q 2116 1406 1581 1522 
L 1381 1569 
Q 847 1681 609 1914 
Q 372 2147 372 2553 
Q 372 3047 722 3315 
Q 1072 3584 1716 3584 
Q 2034 3584 2315 3537 
Q 2597 3491 2834 3397 
z
" transform="scale(0.015625)"/>
        <path id="DejaVuSans-74" d="M 1172 4494 
L 1172 3500 
L 2356 3500 
L 2356 3053 
L 1172 3053 
L 1172 1153 
Q 1172 725 1289 603 
Q 1406 481 1766 481 
L 2356 481 
L 2356 0 
L 1766 0 
Q 1100 0 847 248 
Q 594 497 594 1153 
L 594 3053 
L 172 3053 
L 172 3500 
L 594 3500 
L 594 4494 
L 1172 4494 
z
" transform="scale(0.015625)"/>
       </defs>
       <use xlink:href="#DejaVuSans-50"/>
       <use xlink:href="#DejaVuSans-6f" transform="translate(56.677734 0)"/>
       <use xlink:href="#DejaVuSans-73" transform="translate(117.859375 0)"/>
       <use xlink:href="#DejaVuSans-74" transform="translate(169.958984 0)"/>
      </g>
     </g>
    </g>
   </g>
   <g id="matplotlib.axis_2">
    <g id="ytick_1">
     <g id="text_3">
      <!-- 0 -->
      <g style="fill: #262626" transform="translate(44.0955 375.200093) scale(0.1 -0.1)">
       <defs>
        <path id="DejaVuSans-30" d="M 2034 4250 
Q 1547 4250 1301 3770 
Q 1056 3291 1056 2328 
Q 1056 1369 1301 889 
Q 1547 409 2034 409 
Q 2525 409 2770 889 
Q 3016 1369 3016 2328 
Q 3016 3291 2770 3770 
Q 2525 4250 2034 4250 
z
M 2034 4750 
Q 2819 4750 3233 4129 
Q 3647 3509 3647 2328 
Q 3647 1150 3233 529 
Q 2819 -91 2034 -91 
Q 1250 -91 836 529 
Q 422 1150 422 2328 
Q 422 3509 836 4129 
Q 1250 4750 2034 4750 
z
" transform="scale(0.015625)"/>
       </defs>
       <use xlink:href="#DejaVuSans-30"/>
      </g>
     </g>
    </g>
    <g id="ytick_2">
     <g id="text_4">
      <!-- 500 -->
      <g style="fill: #262626" transform="translate(31.3705 302.102762) scale(0.1 -0.1)">
       <defs>
        <path id="DejaVuSans-35" d="M 691 4666 
L 3169 4666 
L 3169 4134 
L 1269 4134 
L 1269 2991 
Q 1406 3038 1543 3061 
Q 1681 3084 1819 3084 
Q 2600 3084 3056 2656 
Q 3513 2228 3513 1497 
Q 3513 744 3044 326 
Q 2575 -91 1722 -91 
Q 1428 -91 1123 -41 
Q 819 9 494 109 
L 494 744 
Q 775 591 1075 516 
Q 1375 441 1709 441 
Q 2250 441 2565 725 
Q 2881 1009 2881 1497 
Q 2881 1984 2565 2268 
Q 2250 2553 1709 2553 
Q 1456 2553 1204 2497 
Q 953 2441 691 2322 
L 691 4666 
z
" transform="scale(0.015625)"/>
       </defs>
       <use xlink:href="#DejaVuSans-35"/>
       <use xlink:href="#DejaVuSans-30" transform="translate(63.623047 0)"/>
       <use xlink:href="#DejaVuSans-30" transform="translate(127.246094 0)"/>
      </g>
     </g>
    </g>
    <g id="ytick_3">
     <g id="text_5">
      <!-- 1000 -->
      <g style="fill: #262626" transform="translate(25.008 229.005431) scale(0.1 -0.1)">
       <defs>
        <path id="DejaVuSans-31" d="M 794 531 
L 1825 531 
L 1825 4091 
L 703 3866 
L 703 4441 
L 1819 4666 
L 2450 4666 
L 2450 531 
L 3481 531 
L 3481 0 
L 794 0 
L 794 531 
z
" transform="scale(0.015625)"/>
       </defs>
       <use xlink:href="#DejaVuSans-31"/>
       <use xlink:href="#DejaVuSans-30" transform="translate(63.623047 0)"/>
       <use xlink:href="#DejaVuSans-30" transform="translate(127.246094 0)"/>
       <use xlink:href="#DejaVuSans-30" transform="translate(190.869141 0)"/>
      </g>
     </g>
    </g>
    <g id="ytick_4">
     <g id="text_6">
      <!-- 1500 -->
      <g style="fill: #262626" transform="translate(25.008 155.9081) scale(0.1 -0.1)">
       <use xlink:href="#DejaVuSans-31"/>
       <use xlink:href="#DejaVuSans-35" transform="translate(63.623047 0)"/>
       <use xlink:href="#DejaVuSans-30" transform="translate(127.246094 0)"/>
       <use xlink:href="#DejaVuSans-30" transform="translate(190.869141 0)"/>
      </g>
     </g>
    </g>
    <g id="ytick_5">
     <g id="text_7">
      <!-- 2000 -->
      <g style="fill: #262626" transform="translate(25.008 82.81077) scale(0.1 -0.1)">
       <defs>
        <path id="DejaVuSans-32" d="M 1228 531 
L 3431 531 
L 3431 0 
L 469 0 
L 469 531 
Q 828 903 1448 1529 
Q 2069 2156 2228 2338 
Q 2531 2678 2651 2914 
Q 2772 3150 2772 3378 
Q 2772 3750 2511 3984 
Q 2250 4219 1831 4219 
Q 1534 4219 1204 4116 
Q 875 4013 500 3803 
L 500 4441 
Q 881 4594 1212 4672 
Q 1544 4750 1819 4750 
Q 2544 4750 2975 4387 
Q 3406 4025 3406 3419 
Q 3406 3131 3298 2873 
Q 3191 2616 2906 2266 
Q 2828 2175 2409 1742 
Q 1991 1309 1228 531 
z
" transform="scale(0.015625)"/>
       </defs>
       <use xlink:href="#DejaVuSans-32"/>
       <use xlink:href="#DejaVuSans-30" transform="translate(63.623047 0)"/>
       <use xlink:href="#DejaVuSans-30" transform="translate(127.246094 0)"/>
       <use xlink:href="#DejaVuSans-30" transform="translate(190.869141 0)"/>
      </g>
     </g>
    </g>
    <g id="text_8">
     <!-- LEDD -->
     <g style="fill: #262626" transform="translate(18.720344 222.482644) rotate(-90) scale(0.11 -0.11)">
      <defs>
       <path id="DejaVuSans-4c" d="M 628 4666 
L 1259 4666 
L 1259 531 
L 3531 531 
L 3531 0 
L 628 0 
L 628 4666 
z
" transform="scale(0.015625)"/>
       <path id="DejaVuSans-45" d="M 628 4666 
L 3578 4666 
L 3578 4134 
L 1259 4134 
L 1259 2753 
L 3481 2753 
L 3481 2222 
L 1259 2222 
L 1259 531 
L 3634 531 
L 3634 0 
L 628 0 
L 628 4666 
z
" transform="scale(0.015625)"/>
       <path id="DejaVuSans-44" d="M 1259 4147 
L 1259 519 
L 2022 519 
Q 2988 519 3436 956 
Q 3884 1394 3884 2338 
Q 3884 3275 3436 3711 
Q 2988 4147 2022 4147 
L 1259 4147 
z
M 628 4666 
L 1925 4666 
Q 3281 4666 3915 4102 
Q 4550 3538 4550 2338 
Q 4550 1131 3912 565 
Q 3275 0 1925 0 
L 628 0 
L 628 4666 
z
" transform="scale(0.015625)"/>
      </defs>
      <use xlink:href="#DejaVuSans-4c"/>
      <use xlink:href="#DejaVuSans-45" transform="translate(55.712891 0)"/>
      <use xlink:href="#DejaVuSans-44" transform="translate(118.896484 0)"/>
      <use xlink:href="#DejaVuSans-44" transform="translate(195.898438 0)"/>
     </g>
    </g>
   </g>
   <g id="FillBetweenPolyCollection_1">
    <defs>
     <path id="m1a84e8ad1d" d="M 151.220415 -132.613745 
L 147.492797 -132.613745 
L 147.215919 -135.925128 
L 146.923267 -139.236511 
L 146.609308 -142.547894 
L 146.267921 -145.859277 
L 145.892698 -149.17066 
L 145.477251 -152.482043 
L 145.015492 -155.793426 
L 144.501841 -159.104809 
L 143.931365 -162.416192 
L 143.299823 -165.727575 
L 142.603638 -169.038958 
L 141.839797 -172.35034 
L 141.005733 -175.661723 
L 140.0992 -178.973106 
L 139.118179 -182.284489 
L 138.060855 -185.595872 
L 136.925668 -188.907255 
L 135.711451 -192.218638 
L 134.417646 -195.530021 
L 133.044571 -198.841404 
L 131.593715 -202.152787 
L 130.068015 -205.46417 
L 128.472093 -208.775553 
L 126.812398 -212.086936 
L 125.097262 -215.398318 
L 123.336832 -218.709701 
L 121.542897 -222.021084 
L 119.728619 -225.332467 
L 117.908185 -228.64385 
L 116.09642 -231.955233 
L 114.308364 -235.266616 
L 112.558866 -238.577999 
L 110.862176 -241.889382 
L 109.23159 -245.200765 
L 107.679112 -248.512148 
L 106.215174 -251.823531 
L 104.848408 -255.134913 
L 103.585481 -258.446296 
L 102.431017 -261.757679 
L 101.387618 -265.069062 
L 100.456012 -268.380445 
L 99.635328 -271.691828 
L 98.923499 -275.003211 
L 98.317782 -278.314594 
L 97.815343 -281.625977 
L 97.413848 -284.93736 
L 97.112005 -288.248743 
L 96.909955 -291.560126 
L 96.809475 -294.871509 
L 96.813922 -298.182891 
L 96.927924 -301.494274 
L 97.156829 -304.805657 
L 97.505982 -308.11704 
L 97.979916 -311.428423 
L 98.581565 -314.739806 
L 99.311627 -318.051189 
L 100.168147 -321.362572 
L 101.146418 -324.673955 
L 102.239187 -327.985338 
L 103.437172 -331.296721 
L 104.729794 -334.608104 
L 106.106032 -337.919487 
L 107.555267 -341.230869 
L 109.067995 -344.542252 
L 110.636304 -347.853635 
L 112.254046 -351.165018 
L 113.916675 -354.476401 
L 115.620787 -357.787784 
L 117.363432 -361.099167 
L 119.141297 -364.41055 
L 120.949892 -367.721933 
L 122.782854 -371.033316 
L 124.631473 -374.344699 
L 126.484513 -377.656082 
L 128.328355 -380.967464 
L 130.147442 -384.278847 
L 131.924982 -387.59023 
L 133.643813 -390.901613 
L 135.287347 -394.212996 
L 136.840468 -397.524379 
L 138.290326 -400.835762 
L 139.626928 -404.147145 
L 140.843515 -407.458528 
L 141.9367 -410.769911 
L 142.906393 -414.081294 
L 143.755546 -417.392677 
L 144.489772 -420.70406 
L 145.116885 -424.015442 
L 145.646411 -427.326825 
L 146.089103 -430.638208 
L 146.456486 -433.949591 
L 146.760437 -437.260974 
L 147.012816 -440.572357 
L 147.225124 -443.88374 
L 147.408203 -447.195123 
L 147.571957 -450.506506 
L 147.725116 -453.817889 
L 147.875029 -457.129272 
L 148.027514 -460.440655 
L 151.220415 -460.440655 
L 151.220415 -460.440655 
L 151.220415 -457.129272 
L 151.220415 -453.817889 
L 151.220415 -450.506506 
L 151.220415 -447.195123 
L 151.220415 -443.88374 
L 151.220415 -440.572357 
L 151.220415 -437.260974 
L 151.220415 -433.949591 
L 151.220415 -430.638208 
L 151.220415 -427.326825 
L 151.220415 -424.015442 
L 151.220415 -420.70406 
L 151.220415 -417.392677 
L 151.220415 -414.081294 
L 151.220415 -410.769911 
L 151.220415 -407.458528 
L 151.220415 -404.147145 
L 151.220415 -400.835762 
L 151.220415 -397.524379 
L 151.220415 -394.212996 
L 151.220415 -390.901613 
L 151.220415 -387.59023 
L 151.220415 -384.278847 
L 151.220415 -380.967464 
L 151.220415 -377.656082 
L 151.220415 -374.344699 
L 151.220415 -371.033316 
L 151.220415 -367.721933 
L 151.220415 -364.41055 
L 151.220415 -361.099167 
L 151.220415 -357.787784 
L 151.220415 -354.476401 
L 151.220415 -351.165018 
L 151.220415 -347.853635 
L 151.220415 -344.542252 
L 151.220415 -341.230869 
L 151.220415 -337.919487 
L 151.220415 -334.608104 
L 151.220415 -331.296721 
L 151.220415 -327.985338 
L 151.220415 -324.673955 
L 151.220415 -321.362572 
L 151.220415 -318.051189 
L 151.220415 -314.739806 
L 151.220415 -311.428423 
L 151.220415 -308.11704 
L 151.220415 -304.805657 
L 151.220415 -301.494274 
L 151.220415 -298.182891 
L 151.220415 -294.871509 
L 151.220415 -291.560126 
L 151.220415 -288.248743 
L 151.220415 -284.93736 
L 151.220415 -281.625977 
L 151.220415 -278.314594 
L 151.220415 -275.003211 
L 151.220415 -271.691828 
L 151.220415 -268.380445 
L 151.220415 -265.069062 
L 151.220415 -261.757679 
L 151.220415 -258.446296 
L 151.220415 -255.134913 
L 151.220415 -251.823531 
L 151.220415 -248.512148 
L 151.220415 -245.200765 
L 151.220415 -241.889382 
L 151.220415 -238.577999 
L 151.220415 -235.266616 
L 151.220415 -231.955233 
L 151.220415 -228.64385 
L 151.220415 -225.332467 
L 151.220415 -222.021084 
L 151.220415 -218.709701 
L 151.220415 -215.398318 
L 151.220415 -212.086936 
L 151.220415 -208.775553 
L 151.220415 -205.46417 
L 151.220415 -202.152787 
L 151.220415 -198.841404 
L 151.220415 -195.530021 
L 151.220415 -192.218638 
L 151.220415 -188.907255 
L 151.220415 -185.595872 
L 151.220415 -182.284489 
L 151.220415 -178.973106 
L 151.220415 -175.661723 
L 151.220415 -172.35034 
L 151.220415 -169.038958 
L 151.220415 -165.727575 
L 151.220415 -162.416192 
L 151.220415 -159.104809 
L 151.220415 -155.793426 
L 151.220415 -152.482043 
L 151.220415 -149.17066 
L 151.220415 -145.859277 
L 151.220415 -142.547894 
L 151.220415 -139.236511 
L 151.220415 -135.925128 
L 151.220415 -132.613745 
z
"/>
    </defs>
    <g clip-path="url(#pa2f8a0ed51)">
     <use xlink:href="#m1a84e8ad1d" x="0" y="504" style="fill: #4c72b0"/>
    </g>
   </g>
   <g id="FillBetweenPolyCollection_2">
    <defs>
     <path id="m954224c8eb" d="M 411.1889 -132.613745 
L 401.350222 -132.613745 
L 401.350222 -135.383544 
L 401.350222 -138.153342 
L 401.350222 -140.92314 
L 401.350222 -143.692938 
L 401.350222 -146.462736 
L 401.350222 -149.232534 
L 401.350222 -152.002333 
L 401.350222 -154.772131 
L 401.350222 -157.541929 
L 401.350222 -160.311727 
L 401.350222 -163.081525 
L 401.350222 -165.851323 
L 401.350222 -168.621121 
L 401.350222 -171.39092 
L 401.350222 -174.160718 
L 401.350222 -176.930516 
L 401.350222 -179.700314 
L 401.350222 -182.470112 
L 401.350222 -185.23991 
L 401.350222 -188.009708 
L 401.350222 -190.779507 
L 401.350222 -193.549305 
L 401.350222 -196.319103 
L 401.350222 -199.088901 
L 401.350222 -201.858699 
L 401.350222 -204.628497 
L 401.350222 -207.398296 
L 401.350222 -210.168094 
L 401.350222 -212.937892 
L 401.350222 -215.70769 
L 401.350222 -218.477488 
L 401.350222 -221.247286 
L 401.350222 -224.017084 
L 401.350222 -226.786883 
L 401.350222 -229.556681 
L 401.350222 -232.326479 
L 401.350222 -235.096277 
L 401.350222 -237.866075 
L 401.350222 -240.635873 
L 401.350222 -243.405671 
L 401.350222 -246.17547 
L 401.350222 -248.945268 
L 401.350222 -251.715066 
L 401.350222 -254.484864 
L 401.350222 -257.254662 
L 401.350222 -260.02446 
L 401.350222 -262.794259 
L 401.350222 -265.564057 
L 401.350222 -268.333855 
L 401.350222 -271.103653 
L 401.350222 -273.873451 
L 401.350222 -276.643249 
L 401.350222 -279.413047 
L 401.350222 -282.182846 
L 401.350222 -284.952644 
L 401.350222 -287.722442 
L 401.350222 -290.49224 
L 401.350222 -293.262038 
L 401.350222 -296.031836 
L 401.350222 -298.801635 
L 401.350222 -301.571433 
L 401.350222 -304.341231 
L 401.350222 -307.111029 
L 401.350222 -309.880827 
L 401.350222 -312.650625 
L 401.350222 -315.420423 
L 401.350222 -318.190222 
L 401.350222 -320.96002 
L 401.350222 -323.729818 
L 401.350222 -326.499616 
L 401.350222 -329.269414 
L 401.350222 -332.039212 
L 401.350222 -334.80901 
L 401.350222 -337.578809 
L 401.350222 -340.348607 
L 401.350222 -343.118405 
L 401.350222 -345.888203 
L 401.350222 -348.658001 
L 401.350222 -351.427799 
L 401.350222 -354.197598 
L 401.350222 -356.967396 
L 401.350222 -359.737194 
L 401.350222 -362.506992 
L 401.350222 -365.27679 
L 401.350222 -368.046588 
L 401.350222 -370.816386 
L 401.350222 -373.586185 
L 401.350222 -376.355983 
L 401.350222 -379.125781 
L 401.350222 -381.895579 
L 401.350222 -384.665377 
L 401.350222 -387.435175 
L 401.350222 -390.204974 
L 401.350222 -392.974772 
L 401.350222 -395.74457 
L 401.350222 -398.514368 
L 401.350222 -401.284166 
L 401.350222 -404.053964 
L 401.350222 -406.823762 
L 407.462222 -406.823762 
L 407.462222 -406.823762 
L 407.719509 -404.053964 
L 407.945728 -401.284166 
L 408.141491 -398.514368 
L 408.309233 -395.74457 
L 408.453282 -392.974772 
L 408.57984 -390.204974 
L 408.696894 -387.435175 
L 408.814049 -384.665377 
L 408.942284 -381.895579 
L 409.093656 -379.125781 
L 409.28094 -376.355983 
L 409.517253 -373.586185 
L 409.815643 -370.816386 
L 410.188692 -368.046588 
L 410.648133 -365.27679 
L 411.204501 -362.506992 
L 411.866833 -359.737194 
L 412.642429 -356.967396 
L 413.536676 -354.197598 
L 414.552943 -351.427799 
L 415.692532 -348.658001 
L 416.954689 -345.888203 
L 418.336665 -343.118405 
L 419.833796 -340.348607 
L 421.439608 -337.578809 
L 423.145922 -334.80901 
L 424.942952 -332.039212 
L 426.819386 -329.269414 
L 428.762453 -326.499616 
L 430.757977 -323.729818 
L 432.790429 -320.96002 
L 434.842992 -318.190222 
L 436.897657 -315.420423 
L 438.93537 -312.650625 
L 440.936237 -309.880827 
L 442.879814 -307.111029 
L 444.745481 -304.341231 
L 446.512893 -301.571433 
L 448.162502 -298.801635 
L 449.676124 -296.031836 
L 451.037535 -293.262038 
L 452.233036 -290.49224 
L 453.251974 -287.722442 
L 454.087166 -284.952644 
L 454.735197 -282.182846 
L 455.196567 -279.413047 
L 455.475655 -276.643249 
L 455.580525 -273.873451 
L 455.522541 -271.103653 
L 455.315847 -268.333855 
L 454.976717 -265.564057 
L 454.522822 -262.794259 
L 453.972466 -260.02446 
L 453.343819 -257.254662 
L 452.654205 -254.484864 
L 451.919486 -251.715066 
L 451.153561 -248.945268 
L 450.368017 -246.17547 
L 449.571935 -243.405671 
L 448.771853 -240.635873 
L 447.971878 -237.866075 
L 447.173922 -235.096277 
L 446.378043 -232.326479 
L 445.582847 -229.556681 
L 444.785926 -226.786883 
L 443.984295 -224.017084 
L 443.174792 -221.247286 
L 442.354421 -218.477488 
L 441.520621 -215.70769 
L 440.671434 -212.937892 
L 439.805593 -210.168094 
L 438.922522 -207.398296 
L 438.022256 -204.628497 
L 437.105316 -201.858699 
L 436.172542 -199.088901 
L 435.224923 -196.319103 
L 434.263434 -193.549305 
L 433.288904 -190.779507 
L 432.30193 -188.009708 
L 431.302841 -185.23991 
L 430.291713 -182.470112 
L 429.268439 -179.700314 
L 428.232838 -176.930516 
L 427.184784 -174.160718 
L 426.12436 -171.39092 
L 425.051993 -168.621121 
L 423.968583 -165.851323 
L 422.875596 -163.081525 
L 421.775122 -160.311727 
L 420.669889 -157.541929 
L 419.563237 -154.772131 
L 418.459056 -152.002333 
L 417.361686 -149.232534 
L 416.275802 -146.462736 
L 415.20628 -143.692938 
L 414.158063 -140.92314 
L 413.136025 -138.153342 
L 412.144844 -135.383544 
L 411.1889 -132.613745 
z
"/>
    </defs>
    <g clip-path="url(#pa2f8a0ed51)">
     <use xlink:href="#m954224c8eb" x="0" y="504" style="fill: #4c72b0"/>
    </g>
   </g>
   <g id="patch_3">
    <path d="M 151.168725 254.445145 
L 183.784275 254.445145 
L 183.784275 174.038081 
L 151.168725 174.038081 
L 151.168725 254.445145 
z
" clip-path="url(#pa2f8a0ed51)" style="fill: #4c72b0; fill-opacity: 0.33; stroke: #000000; stroke-linejoin: miter"/>
   </g>
   <g id="line2d_1">
    <path d="M 167.4765 254.445145 
L 167.4765 371.386255 
" clip-path="url(#pa2f8a0ed51)" style="fill: none; stroke: #000000"/>
   </g>
   <g id="line2d_2">
    <path d="M 167.4765 174.038081 
L 167.4765 90.323363 
" clip-path="url(#pa2f8a0ed51)" style="fill: none; stroke: #000000"/>
   </g>
   <g id="line2d_3">
    <path d="M 159.322612 371.386255 
L 175.630388 371.386255 
" clip-path="url(#pa2f8a0ed51)" style="fill: none; stroke: #000000; stroke-linecap: round"/>
   </g>
   <g id="line2d_4">
    <path d="M 159.322612 90.323363 
L 175.630388 90.323363 
" clip-path="url(#pa2f8a0ed51)" style="fill: none; stroke: #000000; stroke-linecap: round"/>
   </g>
   <g id="line2d_5"/>
   <g id="patch_4">
    <path d="M 368.605725 289.166377 
L 401.221275 289.166377 
L 401.221275 214.241613 
L 368.605725 214.241613 
L 368.605725 289.166377 
z
" clip-path="url(#pa2f8a0ed51)" style="fill: #4c72b0; fill-opacity: 0.33; stroke: #000000; stroke-linejoin: miter"/>
   </g>
   <g id="line2d_6">
    <path d="M 384.9135 289.166377 
L 384.9135 371.386255 
" clip-path="url(#pa2f8a0ed51)" style="fill: none; stroke: #000000"/>
   </g>
   <g id="line2d_7">
    <path d="M 384.9135 214.241613 
L 384.9135 105.509333 
" clip-path="url(#pa2f8a0ed51)" style="fill: none; stroke: #000000"/>
   </g>
   <g id="line2d_8">
    <path d="M 376.759613 371.386255 
L 393.067387 371.386255 
" clip-path="url(#pa2f8a0ed51)" style="fill: none; stroke: #000000; stroke-linecap: round"/>
   </g>
   <g id="line2d_9">
    <path d="M 376.759613 105.509333 
L 393.067387 105.509333 
" clip-path="url(#pa2f8a0ed51)" style="fill: none; stroke: #000000; stroke-linecap: round"/>
   </g>
   <g id="line2d_10"/>
   <g id="PathCollection_1">
    <defs>
     <path id="m7106a8fde4" d="M 0 1.581139 
C 0.419323 1.581139 0.821528 1.41454 1.118034 1.118034 
C 1.41454 0.821528 1.581139 0.419323 1.581139 0 
C 1.581139 -0.419323 1.41454 -0.821528 1.118034 -1.118034 
C 0.821528 -1.41454 0.419323 -1.581139 0 -1.581139 
C -0.419323 -1.581139 -0.821528 -1.41454 -1.118034 -1.118034 
C -1.41454 -0.821528 -1.581139 -0.419323 -1.581139 0 
C -1.581139 0.419323 -1.41454 0.821528 -1.118034 1.118034 
C -0.821528 1.41454 -0.419323 1.581139 0 1.581139 
z
" style="stroke: #000000; stroke-opacity: 0.9; stroke-width: 0.8"/>
    </defs>
    <g clip-path="url(#pa2f8a0ed51)">
     <use xlink:href="#m7106a8fde4" x="160.295293" y="178.789407" style="fill-opacity: 0.9; stroke: #000000; stroke-opacity: 0.9; stroke-width: 0.8"/>
     <use xlink:href="#m7106a8fde4" x="176.817284" y="234.562671" style="fill-opacity: 0.9; stroke: #000000; stroke-opacity: 0.9; stroke-width: 0.8"/>
     <use xlink:href="#m7106a8fde4" x="177.017644" y="267.017886" style="fill-opacity: 0.9; stroke: #000000; stroke-opacity: 0.9; stroke-width: 0.8"/>
     <use xlink:href="#m7106a8fde4" x="178.00808" y="189.114405" style="fill-opacity: 0.9; stroke: #000000; stroke-opacity: 0.9; stroke-width: 0.8"/>
     <use xlink:href="#m7106a8fde4" x="170.858125" y="225.800128" style="fill-opacity: 0.9; stroke: #000000; stroke-opacity: 0.9; stroke-width: 0.8"/>
     <use xlink:href="#m7106a8fde4" x="158.978992" y="259.598507" style="fill-opacity: 0.9; stroke: #000000; stroke-opacity: 0.9; stroke-width: 0.8"/>
     <use xlink:href="#m7106a8fde4" x="160.049446" y="189.242326" style="fill-opacity: 0.9; stroke: #000000; stroke-opacity: 0.9; stroke-width: 0.8"/>
     <use xlink:href="#m7106a8fde4" x="157.7977" y="90.323363" style="fill-opacity: 0.9; stroke: #000000; stroke-opacity: 0.9; stroke-width: 0.8"/>
     <use xlink:href="#m7106a8fde4" x="165.85866" y="196.698253" style="fill-opacity: 0.9; stroke: #000000; stroke-opacity: 0.9; stroke-width: 0.8"/>
     <use xlink:href="#m7106a8fde4" x="165.832741" y="316.577876" style="fill-opacity: 0.9; stroke: #000000; stroke-opacity: 0.9; stroke-width: 0.8"/>
     <use xlink:href="#m7106a8fde4" x="162.325266" y="128.260877" style="fill-opacity: 0.9; stroke: #000000; stroke-opacity: 0.9; stroke-width: 0.8"/>
     <use xlink:href="#m7106a8fde4" x="169.748708" y="183.03819" style="fill-opacity: 0.9; stroke: #000000; stroke-opacity: 0.9; stroke-width: 0.8"/>
     <use xlink:href="#m7106a8fde4" x="165.708077" y="215.338073" style="fill-opacity: 0.9; stroke: #000000; stroke-opacity: 0.9; stroke-width: 0.8"/>
     <use xlink:href="#m7106a8fde4" x="178.22573" y="162.269411" style="fill-opacity: 0.9; stroke: #000000; stroke-opacity: 0.9; stroke-width: 0.8"/>
     <use xlink:href="#m7106a8fde4" x="170.868233" y="228.897628" style="fill-opacity: 0.9; stroke: #000000; stroke-opacity: 0.9; stroke-width: 0.8"/>
     <use xlink:href="#m7106a8fde4" x="174.541395" y="149.395143" style="fill-opacity: 0.9; stroke: #000000; stroke-opacity: 0.9; stroke-width: 0.8"/>
     <use xlink:href="#m7106a8fde4" x="170.148733" y="131.34924" style="fill-opacity: 0.9; stroke: #000000; stroke-opacity: 0.9; stroke-width: 0.8"/>
     <use xlink:href="#m7106a8fde4" x="168.060679" y="147.796139" style="fill-opacity: 0.9; stroke: #000000; stroke-opacity: 0.9; stroke-width: 0.8"/>
     <use xlink:href="#m7106a8fde4" x="173.538256" y="204.556217" style="fill-opacity: 0.9; stroke: #000000; stroke-opacity: 0.9; stroke-width: 0.8"/>
     <use xlink:href="#m7106a8fde4" x="168.729477" y="275.460627" style="fill-opacity: 0.9; stroke: #000000; stroke-opacity: 0.9; stroke-width: 0.8"/>
     <use xlink:href="#m7106a8fde4" x="169.222922" y="298.303543" style="fill-opacity: 0.9; stroke: #000000; stroke-opacity: 0.9; stroke-width: 0.8"/>
     <use xlink:href="#m7106a8fde4" x="160.702815" y="239.716033" style="fill-opacity: 0.9; stroke: #000000; stroke-opacity: 0.9; stroke-width: 0.8"/>
     <use xlink:href="#m7106a8fde4" x="157.366981" y="281.491157" style="fill-opacity: 0.9; stroke: #000000; stroke-opacity: 0.9; stroke-width: 0.8"/>
     <use xlink:href="#m7106a8fde4" x="161.49336" y="371.386255" style="fill-opacity: 0.9; stroke: #000000; stroke-opacity: 0.9; stroke-width: 0.8"/>
     <use xlink:href="#m7106a8fde4" x="177.670353" y="132.098487" style="fill-opacity: 0.9; stroke: #000000; stroke-opacity: 0.9; stroke-width: 0.8"/>
     <use xlink:href="#m7106a8fde4" x="171.506242" y="181.713301" style="fill-opacity: 0.9; stroke: #000000; stroke-opacity: 0.9; stroke-width: 0.8"/>
     <use xlink:href="#m7106a8fde4" x="163.746835" y="234.343379" style="fill-opacity: 0.9; stroke: #000000; stroke-opacity: 0.9; stroke-width: 0.8"/>
     <use xlink:href="#m7106a8fde4" x="176.275119" y="237.632759" style="fill-opacity: 0.9; stroke: #000000; stroke-opacity: 0.9; stroke-width: 0.8"/>
     <use xlink:href="#m7106a8fde4" x="163.692208" y="254.445145" style="fill-opacity: 0.9; stroke: #000000; stroke-opacity: 0.9; stroke-width: 0.8"/>
     <use xlink:href="#m7106a8fde4" x="169.519983" y="200.947036" style="fill-opacity: 0.9; stroke: #000000; stroke-opacity: 0.9; stroke-width: 0.8"/>
     <use xlink:href="#m7106a8fde4" x="161.759187" y="190.667724" style="fill-opacity: 0.9; stroke: #000000; stroke-opacity: 0.9; stroke-width: 0.8"/>
     <use xlink:href="#m7106a8fde4" x="173.393257" y="212.219558" style="fill-opacity: 0.9; stroke: #000000; stroke-opacity: 0.9; stroke-width: 0.8"/>
     <use xlink:href="#m7106a8fde4" x="176.11515" y="256.272578" style="fill-opacity: 0.9; stroke: #000000; stroke-opacity: 0.9; stroke-width: 0.8"/>
     <use xlink:href="#m7106a8fde4" x="164.486155" y="261.754878" style="fill-opacity: 0.9; stroke: #000000; stroke-opacity: 0.9; stroke-width: 0.8"/>
     <use xlink:href="#m7106a8fde4" x="164.757419" y="147.576847" style="fill-opacity: 0.9; stroke: #000000; stroke-opacity: 0.9; stroke-width: 0.8"/>
     <use xlink:href="#m7106a8fde4" x="158.547575" y="43.559345" style="fill-opacity: 0.9; stroke: #000000; stroke-opacity: 0.9; stroke-width: 0.8"/>
     <use xlink:href="#m7106a8fde4" x="163.952697" y="294.648677" style="fill-opacity: 0.9; stroke: #000000; stroke-opacity: 0.9; stroke-width: 0.8"/>
     <use xlink:href="#m7106a8fde4" x="168.642665" y="192.221042" style="fill-opacity: 0.9; stroke: #000000; stroke-opacity: 0.9; stroke-width: 0.8"/>
     <use xlink:href="#m7106a8fde4" x="164.484005" y="231.784972" style="fill-opacity: 0.9; stroke: #000000; stroke-opacity: 0.9; stroke-width: 0.8"/>
     <use xlink:href="#m7106a8fde4" x="157.441937" y="226.119929" style="fill-opacity: 0.9; stroke: #000000; stroke-opacity: 0.9; stroke-width: 0.8"/>
     <use xlink:href="#m7106a8fde4" x="163.747726" y="157.481535" style="fill-opacity: 0.9; stroke: #000000; stroke-opacity: 0.9; stroke-width: 0.8"/>
     <use xlink:href="#m7106a8fde4" x="158.905588" y="272.719477" style="fill-opacity: 0.9; stroke: #000000; stroke-opacity: 0.9; stroke-width: 0.8"/>
     <use xlink:href="#m7106a8fde4" x="159.49576" y="212.048693" style="fill-opacity: 0.9; stroke: #000000; stroke-opacity: 0.9; stroke-width: 0.8"/>
     <use xlink:href="#m7106a8fde4" x="156.79577" y="184.819937" style="fill-opacity: 0.9; stroke: #000000; stroke-opacity: 0.9; stroke-width: 0.8"/>
     <use xlink:href="#m7106a8fde4" x="170.014624" y="183.431088" style="fill-opacity: 0.9; stroke: #000000; stroke-opacity: 0.9; stroke-width: 0.8"/>
     <use xlink:href="#m7106a8fde4" x="161.409181" y="171.516223" style="fill-opacity: 0.9; stroke: #000000; stroke-opacity: 0.9; stroke-width: 0.8"/>
     <use xlink:href="#m7106a8fde4" x="172.961248" y="129.357337" style="fill-opacity: 0.9; stroke: #000000; stroke-opacity: 0.9; stroke-width: 0.8"/>
     <use xlink:href="#m7106a8fde4" x="173.255246" y="136.703619" style="fill-opacity: 0.9; stroke: #000000; stroke-opacity: 0.9; stroke-width: 0.8"/>
     <use xlink:href="#m7106a8fde4" x="177.937375" y="225.206212" style="fill-opacity: 0.9; stroke: #000000; stroke-opacity: 0.9; stroke-width: 0.8"/>
     <use xlink:href="#m7106a8fde4" x="178.265828" y="174.038081" style="fill-opacity: 0.9; stroke: #000000; stroke-opacity: 0.9; stroke-width: 0.8"/>
     <use xlink:href="#m7106a8fde4" x="166.765817" y="261.754878" style="fill-opacity: 0.9; stroke: #000000; stroke-opacity: 0.9; stroke-width: 0.8"/>
     <use xlink:href="#m7106a8fde4" x="170.176722" y="327.542476" style="fill-opacity: 0.9; stroke: #000000; stroke-opacity: 0.9; stroke-width: 0.8"/>
     <use xlink:href="#m7106a8fde4" x="176.849793" y="237.632759" style="fill-opacity: 0.9; stroke: #000000; stroke-opacity: 0.9; stroke-width: 0.8"/>
    </g>
   </g>
   <g id="PathCollection_2">
    <g clip-path="url(#pa2f8a0ed51)">
     <use xlink:href="#m7106a8fde4" x="376.78909" y="236.508887" style="fill-opacity: 0.9; stroke: #000000; stroke-opacity: 0.9; stroke-width: 0.8"/>
     <use xlink:href="#m7106a8fde4" x="393.494651" y="236.353555" style="fill-opacity: 0.9; stroke: #000000; stroke-opacity: 0.9; stroke-width: 0.8"/>
     <use xlink:href="#m7106a8fde4" x="392.639633" y="343.989375" style="fill-opacity: 0.9; stroke: #000000; stroke-opacity: 0.9; stroke-width: 0.8"/>
     <use xlink:href="#m7106a8fde4" x="386.666319" y="247.446075" style="fill-opacity: 0.9; stroke: #000000; stroke-opacity: 0.9; stroke-width: 0.8"/>
     <use xlink:href="#m7106a8fde4" x="382.006957" y="167.852219" style="fill-opacity: 0.9; stroke: #000000; stroke-opacity: 0.9; stroke-width: 0.8"/>
     <use xlink:href="#m7106a8fde4" x="387.856441" y="125.172515" style="fill-opacity: 0.9; stroke: #000000; stroke-opacity: 0.9; stroke-width: 0.8"/>
     <use xlink:href="#m7106a8fde4" x="375.016685" y="222.063027" style="fill-opacity: 0.9; stroke: #000000; stroke-opacity: 0.9; stroke-width: 0.8"/>
     <use xlink:href="#m7106a8fde4" x="386.955471" y="221.916833" style="fill-opacity: 0.9; stroke: #000000; stroke-opacity: 0.9; stroke-width: 0.8"/>
     <use xlink:href="#m7106a8fde4" x="381.053028" y="266.323461" style="fill-opacity: 0.9; stroke: #000000; stroke-opacity: 0.9; stroke-width: 0.8"/>
     <use xlink:href="#m7106a8fde4" x="382.163229" y="315.664159" style="fill-opacity: 0.9; stroke: #000000; stroke-opacity: 0.9; stroke-width: 0.8"/>
     <use xlink:href="#m7106a8fde4" x="386.872285" y="207.343052" style="fill-opacity: 0.9; stroke: #000000; stroke-opacity: 0.9; stroke-width: 0.8"/>
     <use xlink:href="#m7106a8fde4" x="388.047749" y="326.811502" style="fill-opacity: 0.9; stroke: #000000; stroke-opacity: 0.9; stroke-width: 0.8"/>
     <use xlink:href="#m7106a8fde4" x="386.499825" y="298.303543" style="fill-opacity: 0.9; stroke: #000000; stroke-opacity: 0.9; stroke-width: 0.8"/>
     <use xlink:href="#m7106a8fde4" x="391.865882" y="182.736663" style="fill-opacity: 0.9; stroke: #000000; stroke-opacity: 0.9; stroke-width: 0.8"/>
     <use xlink:href="#m7106a8fde4" x="393.165639" y="249.876562" style="fill-opacity: 0.9; stroke: #000000; stroke-opacity: 0.9; stroke-width: 0.8"/>
     <use xlink:href="#m7106a8fde4" x="380.725685" y="97.176238" style="fill-opacity: 0.9; stroke: #000000; stroke-opacity: 0.9; stroke-width: 0.8"/>
     <use xlink:href="#m7106a8fde4" x="391.745332" y="217.019311" style="fill-opacity: 0.9; stroke: #000000; stroke-opacity: 0.9; stroke-width: 0.8"/>
     <use xlink:href="#m7106a8fde4" x="385.67532" y="184.271707" style="fill-opacity: 0.9; stroke: #000000; stroke-opacity: 0.9; stroke-width: 0.8"/>
     <use xlink:href="#m7106a8fde4" x="381.570109" y="186.373255" style="fill-opacity: 0.9; stroke: #000000; stroke-opacity: 0.9; stroke-width: 0.8"/>
     <use xlink:href="#m7106a8fde4" x="393.037615" y="264.861514" style="fill-opacity: 0.9; stroke: #000000; stroke-opacity: 0.9; stroke-width: 0.8"/>
     <use xlink:href="#m7106a8fde4" x="393.808582" y="266.140718" style="fill-opacity: 0.9; stroke: #000000; stroke-opacity: 0.9; stroke-width: 0.8"/>
     <use xlink:href="#m7106a8fde4" x="376.860642" y="232.515946" style="fill-opacity: 0.9; stroke: #000000; stroke-opacity: 0.9; stroke-width: 0.8"/>
     <use xlink:href="#m7106a8fde4" x="395.383089" y="243.480545" style="fill-opacity: 0.9; stroke: #000000; stroke-opacity: 0.9; stroke-width: 0.8"/>
     <use xlink:href="#m7106a8fde4" x="389.270185" y="371.386255" style="fill-opacity: 0.9; stroke: #000000; stroke-opacity: 0.9; stroke-width: 0.8"/>
     <use xlink:href="#m7106a8fde4" x="384.397389" y="105.509333" style="fill-opacity: 0.9; stroke: #000000; stroke-opacity: 0.9; stroke-width: 0.8"/>
     <use xlink:href="#m7106a8fde4" x="380.721684" y="205.83542" style="fill-opacity: 0.9; stroke: #000000; stroke-opacity: 0.9; stroke-width: 0.8"/>
     <use xlink:href="#m7106a8fde4" x="382.275328" y="301.95841" style="fill-opacity: 0.9; stroke: #000000; stroke-opacity: 0.9; stroke-width: 0.8"/>
     <use xlink:href="#m7106a8fde4" x="375.853488" y="283.31859" style="fill-opacity: 0.9; stroke: #000000; stroke-opacity: 0.9; stroke-width: 0.8"/>
     <use xlink:href="#m7106a8fde4" x="392.708758" y="312.923009" style="fill-opacity: 0.9; stroke: #000000; stroke-opacity: 0.9; stroke-width: 0.8"/>
     <use xlink:href="#m7106a8fde4" x="390.417859" y="220.820373" style="fill-opacity: 0.9; stroke: #000000; stroke-opacity: 0.9; stroke-width: 0.8"/>
     <use xlink:href="#m7106a8fde4" x="377.721141" y="283.31859" style="fill-opacity: 0.9; stroke: #000000; stroke-opacity: 0.9; stroke-width: 0.8"/>
     <use xlink:href="#m7106a8fde4" x="392.932076" y="271.440274" style="fill-opacity: 0.9; stroke: #000000; stroke-opacity: 0.9; stroke-width: 0.8"/>
     <use xlink:href="#m7106a8fde4" x="392.59322" y="204.19073" style="fill-opacity: 0.9; stroke: #000000; stroke-opacity: 0.9; stroke-width: 0.8"/>
     <use xlink:href="#m7106a8fde4" x="383.756308" y="334.852209" style="fill-opacity: 0.9; stroke: #000000; stroke-opacity: 0.9; stroke-width: 0.8"/>
     <use xlink:href="#m7106a8fde4" x="385.884037" y="171.296931" style="fill-opacity: 0.9; stroke: #000000; stroke-opacity: 0.9; stroke-width: 0.8"/>
     <use xlink:href="#m7106a8fde4" x="383.584993" y="272.719477" style="fill-opacity: 0.9; stroke: #000000; stroke-opacity: 0.9; stroke-width: 0.8"/>
     <use xlink:href="#m7106a8fde4" x="382.847221" y="294.648677" style="fill-opacity: 0.9; stroke: #000000; stroke-opacity: 0.9; stroke-width: 0.8"/>
     <use xlink:href="#m7106a8fde4" x="385.53134" y="281.491157" style="fill-opacity: 0.9; stroke: #000000; stroke-opacity: 0.9; stroke-width: 0.8"/>
     <use xlink:href="#m7106a8fde4" x="383.724457" y="234.343379" style="fill-opacity: 0.9; stroke: #000000; stroke-opacity: 0.9; stroke-width: 0.8"/>
     <use xlink:href="#m7106a8fde4" x="392.789659" y="294.648677" style="fill-opacity: 0.9; stroke: #000000; stroke-opacity: 0.9; stroke-width: 0.8"/>
     <use xlink:href="#m7106a8fde4" x="381.875716" y="214.241613" style="fill-opacity: 0.9; stroke: #000000; stroke-opacity: 0.9; stroke-width: 0.8"/>
     <use xlink:href="#m7106a8fde4" x="389.149639" y="327.542476" style="fill-opacity: 0.9; stroke: #000000; stroke-opacity: 0.9; stroke-width: 0.8"/>
     <use xlink:href="#m7106a8fde4" x="393.127446" y="190.685998" style="fill-opacity: 0.9; stroke: #000000; stroke-opacity: 0.9; stroke-width: 0.8"/>
     <use xlink:href="#m7106a8fde4" x="379.829467" y="250.059305" style="fill-opacity: 0.9; stroke: #000000; stroke-opacity: 0.9; stroke-width: 0.8"/>
     <use xlink:href="#m7106a8fde4" x="380.810407" y="220.527983" style="fill-opacity: 0.9; stroke: #000000; stroke-opacity: 0.9; stroke-width: 0.8"/>
     <use xlink:href="#m7106a8fde4" x="386.29477" y="205.104446" style="fill-opacity: 0.9; stroke: #000000; stroke-opacity: 0.9; stroke-width: 0.8"/>
     <use xlink:href="#m7106a8fde4" x="383.118998" y="221.551346" style="fill-opacity: 0.9; stroke: #000000; stroke-opacity: 0.9; stroke-width: 0.8"/>
     <use xlink:href="#m7106a8fde4" x="379.888896" y="217.896479" style="fill-opacity: 0.9; stroke: #000000; stroke-opacity: 0.9; stroke-width: 0.8"/>
     <use xlink:href="#m7106a8fde4" x="384.834693" y="225.206212" style="fill-opacity: 0.9; stroke: #000000; stroke-opacity: 0.9; stroke-width: 0.8"/>
     <use xlink:href="#m7106a8fde4" x="386.114689" y="289.166377" style="fill-opacity: 0.9; stroke: #000000; stroke-opacity: 0.9; stroke-width: 0.8"/>
     <use xlink:href="#m7106a8fde4" x="380.298414" y="334.852209" style="fill-opacity: 0.9; stroke: #000000; stroke-opacity: 0.9; stroke-width: 0.8"/>
     <use xlink:href="#m7106a8fde4" x="393.493112" y="356.781408" style="fill-opacity: 0.9; stroke: #000000; stroke-opacity: 0.9; stroke-width: 0.8"/>
     <use xlink:href="#m7106a8fde4" x="394.605071" y="252.252225" style="fill-opacity: 0.9; stroke: #000000; stroke-opacity: 0.9; stroke-width: 0.8"/>
    </g>
   </g>
   <g id="line2d_11">
    <path d="M 151.168725 212.048693 
L 183.784275 212.048693 
" clip-path="url(#pa2f8a0ed51)" style="fill: none; stroke: #000000"/>
   </g>
   <g id="line2d_12">
    <path d="M 368.605725 243.480545 
L 401.221275 243.480545 
" clip-path="url(#pa2f8a0ed51)" style="fill: none; stroke: #000000"/>
   </g>
   <g id="patch_5">
    <path d="M 58.758 387.7776 
L 58.758 27.168 
" style="fill: none; stroke: #262626; stroke-linejoin: miter; stroke-linecap: square"/>
   </g>
   <g id="patch_6">
    <path d="M 58.758 387.7776 
L 493.632 387.7776 
" style="fill: none; stroke: #262626; stroke-linejoin: miter; stroke-linecap: square"/>
   </g>
   <g id="text_9">
    <g id="patch_7">
     <path d="M 173.274531 467.293265 
L 379.115469 467.293265 
L 379.115469 448.727328 
L 173.274531 448.727328 
z
" style="fill: #ffffff; opacity: 0.6"/>
    </g>
    <!-- Mean Δ (Pre-Post): 252.12 ± 402.69 -->
    <g style="fill: #262626" transform="translate(177.234531 461.045609) scale(0.11 -0.11)">
     <defs>
      <path id="DejaVuSans-4d" d="M 628 4666 
L 1569 4666 
L 2759 1491 
L 3956 4666 
L 4897 4666 
L 4897 0 
L 4281 0 
L 4281 4097 
L 3078 897 
L 2444 897 
L 1241 4097 
L 1241 0 
L 628 0 
L 628 4666 
z
" transform="scale(0.015625)"/>
      <path id="DejaVuSans-61" d="M 2194 1759 
Q 1497 1759 1228 1600 
Q 959 1441 959 1056 
Q 959 750 1161 570 
Q 1363 391 1709 391 
Q 2188 391 2477 730 
Q 2766 1069 2766 1631 
L 2766 1759 
L 2194 1759 
z
M 3341 1997 
L 3341 0 
L 2766 0 
L 2766 531 
Q 2569 213 2275 61 
Q 1981 -91 1556 -91 
Q 1019 -91 701 211 
Q 384 513 384 1019 
Q 384 1609 779 1909 
Q 1175 2209 1959 2209 
L 2766 2209 
L 2766 2266 
Q 2766 2663 2505 2880 
Q 2244 3097 1772 3097 
Q 1472 3097 1187 3025 
Q 903 2953 641 2809 
L 641 3341 
Q 956 3463 1253 3523 
Q 1550 3584 1831 3584 
Q 2591 3584 2966 3190 
Q 3341 2797 3341 1997 
z
" transform="scale(0.015625)"/>
      <path id="DejaVuSans-6e" d="M 3513 2113 
L 3513 0 
L 2938 0 
L 2938 2094 
Q 2938 2591 2744 2837 
Q 2550 3084 2163 3084 
Q 1697 3084 1428 2787 
Q 1159 2491 1159 1978 
L 1159 0 
L 581 0 
L 581 3500 
L 1159 3500 
L 1159 2956 
Q 1366 3272 1645 3428 
Q 1925 3584 2291 3584 
Q 2894 3584 3203 3211 
Q 3513 2838 3513 2113 
z
" transform="scale(0.015625)"/>
      <path id="DejaVuSans-20" transform="scale(0.015625)"/>
      <path id="DejaVuSans-394" d="M 2188 4044 
L 906 525 
L 3472 525 
L 2188 4044 
z
M 50 0 
L 1831 4666 
L 2547 4666 
L 4325 0 
L 50 0 
z
" transform="scale(0.015625)"/>
      <path id="DejaVuSans-28" d="M 1984 4856 
Q 1566 4138 1362 3434 
Q 1159 2731 1159 2009 
Q 1159 1288 1364 580 
Q 1569 -128 1984 -844 
L 1484 -844 
Q 1016 -109 783 600 
Q 550 1309 550 2009 
Q 550 2706 781 3412 
Q 1013 4119 1484 4856 
L 1984 4856 
z
" transform="scale(0.015625)"/>
      <path id="DejaVuSans-2d" d="M 313 2009 
L 1997 2009 
L 1997 1497 
L 313 1497 
L 313 2009 
z
" transform="scale(0.015625)"/>
      <path id="DejaVuSans-29" d="M 513 4856 
L 1013 4856 
Q 1481 4119 1714 3412 
Q 1947 2706 1947 2009 
Q 1947 1309 1714 600 
Q 1481 -109 1013 -844 
L 513 -844 
Q 928 -128 1133 580 
Q 1338 1288 1338 2009 
Q 1338 2731 1133 3434 
Q 928 4138 513 4856 
z
" transform="scale(0.015625)"/>
      <path id="DejaVuSans-3a" d="M 750 794 
L 1409 794 
L 1409 0 
L 750 0 
L 750 794 
z
M 750 3309 
L 1409 3309 
L 1409 2516 
L 750 2516 
L 750 3309 
z
" transform="scale(0.015625)"/>
      <path id="DejaVuSans-2e" d="M 684 794 
L 1344 794 
L 1344 0 
L 684 0 
L 684 794 
z
" transform="scale(0.015625)"/>
      <path id="DejaVuSans-b1" d="M 2944 4013 
L 2944 2803 
L 4684 2803 
L 4684 2272 
L 2944 2272 
L 2944 1063 
L 2419 1063 
L 2419 2272 
L 678 2272 
L 678 2803 
L 2419 2803 
L 2419 4013 
L 2944 4013 
z
M 678 531 
L 4684 531 
L 4684 0 
L 678 0 
L 678 531 
z
" transform="scale(0.015625)"/>
      <path id="DejaVuSans-34" d="M 2419 4116 
L 825 1625 
L 2419 1625 
L 2419 4116 
z
M 2253 4666 
L 3047 4666 
L 3047 1625 
L 3713 1625 
L 3713 1100 
L 3047 1100 
L 3047 0 
L 2419 0 
L 2419 1100 
L 313 1100 
L 313 1709 
L 2253 4666 
z
" transform="scale(0.015625)"/>
      <path id="DejaVuSans-36" d="M 2113 2584 
Q 1688 2584 1439 2293 
Q 1191 2003 1191 1497 
Q 1191 994 1439 701 
Q 1688 409 2113 409 
Q 2538 409 2786 701 
Q 3034 994 3034 1497 
Q 3034 2003 2786 2293 
Q 2538 2584 2113 2584 
z
M 3366 4563 
L 3366 3988 
Q 3128 4100 2886 4159 
Q 2644 4219 2406 4219 
Q 1781 4219 1451 3797 
Q 1122 3375 1075 2522 
Q 1259 2794 1537 2939 
Q 1816 3084 2150 3084 
Q 2853 3084 3261 2657 
Q 3669 2231 3669 1497 
Q 3669 778 3244 343 
Q 2819 -91 2113 -91 
Q 1303 -91 875 529 
Q 447 1150 447 2328 
Q 447 3434 972 4092 
Q 1497 4750 2381 4750 
Q 2619 4750 2861 4703 
Q 3103 4656 3366 4563 
z
" transform="scale(0.015625)"/>
      <path id="DejaVuSans-39" d="M 703 97 
L 703 672 
Q 941 559 1184 500 
Q 1428 441 1663 441 
Q 2288 441 2617 861 
Q 2947 1281 2994 2138 
Q 2813 1869 2534 1725 
Q 2256 1581 1919 1581 
Q 1219 1581 811 2004 
Q 403 2428 403 3163 
Q 403 3881 828 4315 
Q 1253 4750 1959 4750 
Q 2769 4750 3195 4129 
Q 3622 3509 3622 2328 
Q 3622 1225 3098 567 
Q 2575 -91 1691 -91 
Q 1453 -91 1209 -44 
Q 966 3 703 97 
z
M 1959 2075 
Q 2384 2075 2632 2365 
Q 2881 2656 2881 3163 
Q 2881 3666 2632 3958 
Q 2384 4250 1959 4250 
Q 1534 4250 1286 3958 
Q 1038 3666 1038 3163 
Q 1038 2656 1286 2365 
Q 1534 2075 1959 2075 
z
" transform="scale(0.015625)"/>
     </defs>
     <use xlink:href="#DejaVuSans-4d"/>
     <use xlink:href="#DejaVuSans-65" transform="translate(86.279297 0)"/>
     <use xlink:href="#DejaVuSans-61" transform="translate(147.802734 0)"/>
     <use xlink:href="#DejaVuSans-6e" transform="translate(209.082031 0)"/>
     <use xlink:href="#DejaVuSans-20" transform="translate(272.460938 0)"/>
     <use xlink:href="#DejaVuSans-394" transform="translate(304.248047 0)"/>
     <use xlink:href="#DejaVuSans-20" transform="translate(372.65625 0)"/>
     <use xlink:href="#DejaVuSans-28" transform="translate(404.443359 0)"/>
     <use xlink:href="#DejaVuSans-50" transform="translate(443.457031 0)"/>
     <use xlink:href="#DejaVuSans-72" transform="translate(502.009766 0)"/>
     <use xlink:href="#DejaVuSans-65" transform="translate(540.873047 0)"/>
     <use xlink:href="#DejaVuSans-2d" transform="translate(602.396484 0)"/>
     <use xlink:href="#DejaVuSans-50" transform="translate(638.480469 0)"/>
     <use xlink:href="#DejaVuSans-6f" transform="translate(695.158203 0)"/>
     <use xlink:href="#DejaVuSans-73" transform="translate(756.339844 0)"/>
     <use xlink:href="#DejaVuSans-74" transform="translate(808.439453 0)"/>
     <use xlink:href="#DejaVuSans-29" transform="translate(847.648438 0)"/>
     <use xlink:href="#DejaVuSans-3a" transform="translate(886.662109 0)"/>
     <use xlink:href="#DejaVuSans-20" transform="translate(920.353516 0)"/>
     <use xlink:href="#DejaVuSans-32" transform="translate(952.140625 0)"/>
     <use xlink:href="#DejaVuSans-35" transform="translate(1015.763672 0)"/>
     <use xlink:href="#DejaVuSans-32" transform="translate(1079.386719 0)"/>
     <use xlink:href="#DejaVuSans-2e" transform="translate(1143.009766 0)"/>
     <use xlink:href="#DejaVuSans-31" transform="translate(1174.796875 0)"/>
     <use xlink:href="#DejaVuSans-32" transform="translate(1238.419922 0)"/>
     <use xlink:href="#DejaVuSans-20" transform="translate(1302.042969 0)"/>
     <use xlink:href="#DejaVuSans-b1" transform="translate(1333.830078 0)"/>
     <use xlink:href="#DejaVuSans-20" transform="translate(1417.619141 0)"/>
     <use xlink:href="#DejaVuSans-34" transform="translate(1449.40625 0)"/>
     <use xlink:href="#DejaVuSans-30" transform="translate(1513.029297 0)"/>
     <use xlink:href="#DejaVuSans-32" transform="translate(1576.652344 0)"/>
     <use xlink:href="#DejaVuSans-2e" transform="translate(1640.275391 0)"/>
     <use xlink:href="#DejaVuSans-36" transform="translate(1672.0625 0)"/>
     <use xlink:href="#DejaVuSans-39" transform="translate(1735.685547 0)"/>
    </g>
   </g>
   <g id="text_10">
    <!-- LEDD Raincloud Plot  N=53 -->
    <g style="fill: #262626" transform="translate(180.655937 21.168) scale(0.14 -0.14)">
     <defs>
      <path id="DejaVuSans-52" d="M 2841 2188 
Q 3044 2119 3236 1894 
Q 3428 1669 3622 1275 
L 4263 0 
L 3584 0 
L 2988 1197 
Q 2756 1666 2539 1819 
Q 2322 1972 1947 1972 
L 1259 1972 
L 1259 0 
L 628 0 
L 628 4666 
L 2053 4666 
Q 2853 4666 3247 4331 
Q 3641 3997 3641 3322 
Q 3641 2881 3436 2590 
Q 3231 2300 2841 2188 
z
M 1259 4147 
L 1259 2491 
L 2053 2491 
Q 2509 2491 2742 2702 
Q 2975 2913 2975 3322 
Q 2975 3731 2742 3939 
Q 2509 4147 2053 4147 
L 1259 4147 
z
" transform="scale(0.015625)"/>
      <path id="DejaVuSans-69" d="M 603 3500 
L 1178 3500 
L 1178 0 
L 603 0 
L 603 3500 
z
M 603 4863 
L 1178 4863 
L 1178 4134 
L 603 4134 
L 603 4863 
z
" transform="scale(0.015625)"/>
      <path id="DejaVuSans-63" d="M 3122 3366 
L 3122 2828 
Q 2878 2963 2633 3030 
Q 2388 3097 2138 3097 
Q 1578 3097 1268 2742 
Q 959 2388 959 1747 
Q 959 1106 1268 751 
Q 1578 397 2138 397 
Q 2388 397 2633 464 
Q 2878 531 3122 666 
L 3122 134 
Q 2881 22 2623 -34 
Q 2366 -91 2075 -91 
Q 1284 -91 818 406 
Q 353 903 353 1747 
Q 353 2603 823 3093 
Q 1294 3584 2113 3584 
Q 2378 3584 2631 3529 
Q 2884 3475 3122 3366 
z
" transform="scale(0.015625)"/>
      <path id="DejaVuSans-6c" d="M 603 4863 
L 1178 4863 
L 1178 0 
L 603 0 
L 603 4863 
z
" transform="scale(0.015625)"/>
      <path id="DejaVuSans-75" d="M 544 1381 
L 544 3500 
L 1119 3500 
L 1119 1403 
Q 1119 906 1312 657 
Q 1506 409 1894 409 
Q 2359 409 2629 706 
Q 2900 1003 2900 1516 
L 2900 3500 
L 3475 3500 
L 3475 0 
L 2900 0 
L 2900 538 
Q 2691 219 2414 64 
Q 2138 -91 1772 -91 
Q 1169 -91 856 284 
Q 544 659 544 1381 
z
M 1991 3584 
L 1991 3584 
z
" transform="scale(0.015625)"/>
      <path id="DejaVuSans-64" d="M 2906 2969 
L 2906 4863 
L 3481 4863 
L 3481 0 
L 2906 0 
L 2906 525 
Q 2725 213 2448 61 
Q 2172 -91 1784 -91 
Q 1150 -91 751 415 
Q 353 922 353 1747 
Q 353 2572 751 3078 
Q 1150 3584 1784 3584 
Q 2172 3584 2448 3432 
Q 2725 3281 2906 2969 
z
M 947 1747 
Q 947 1113 1208 752 
Q 1469 391 1925 391 
Q 2381 391 2643 752 
Q 2906 1113 2906 1747 
Q 2906 2381 2643 2742 
Q 2381 3103 1925 3103 
Q 1469 3103 1208 2742 
Q 947 2381 947 1747 
z
" transform="scale(0.015625)"/>
      <path id="DejaVuSans-4e" d="M 628 4666 
L 1478 4666 
L 3547 763 
L 3547 4666 
L 4159 4666 
L 4159 0 
L 3309 0 
L 1241 3903 
L 1241 0 
L 628 0 
L 628 4666 
z
" transform="scale(0.015625)"/>
      <path id="DejaVuSans-3d" d="M 678 2906 
L 4684 2906 
L 4684 2381 
L 678 2381 
L 678 2906 
z
M 678 1631 
L 4684 1631 
L 4684 1100 
L 678 1100 
L 678 1631 
z
" transform="scale(0.015625)"/>
      <path id="DejaVuSans-33" d="M 2597 2516 
Q 3050 2419 3304 2112 
Q 3559 1806 3559 1356 
Q 3559 666 3084 287 
Q 2609 -91 1734 -91 
Q 1441 -91 1130 -33 
Q 819 25 488 141 
L 488 750 
Q 750 597 1062 519 
Q 1375 441 1716 441 
Q 2309 441 2620 675 
Q 2931 909 2931 1356 
Q 2931 1769 2642 2001 
Q 2353 2234 1838 2234 
L 1294 2234 
L 1294 2753 
L 1863 2753 
Q 2328 2753 2575 2939 
Q 2822 3125 2822 3475 
Q 2822 3834 2567 4026 
Q 2313 4219 1838 4219 
Q 1578 4219 1281 4162 
Q 984 4106 628 3988 
L 628 4550 
Q 988 4650 1302 4700 
Q 1616 4750 1894 4750 
Q 2613 4750 3031 4423 
Q 3450 4097 3450 3541 
Q 3450 3153 3228 2886 
Q 3006 2619 2597 2516 
z
" transform="scale(0.015625)"/>
     </defs>
     <use xlink:href="#DejaVuSans-4c"/>
     <use xlink:href="#DejaVuSans-45" transform="translate(55.712891 0)"/>
     <use xlink:href="#DejaVuSans-44" transform="translate(118.896484 0)"/>
     <use xlink:href="#DejaVuSans-44" transform="translate(195.898438 0)"/>
     <use xlink:href="#DejaVuSans-20" transform="translate(272.900391 0)"/>
     <use xlink:href="#DejaVuSans-52" transform="translate(304.6875 0)"/>
     <use xlink:href="#DejaVuSans-61" transform="translate(371.919922 0)"/>
     <use xlink:href="#DejaVuSans-69" transform="translate(433.199219 0)"/>
     <use xlink:href="#DejaVuSans-6e" transform="translate(460.982422 0)"/>
     <use xlink:href="#DejaVuSans-63" transform="translate(524.361328 0)"/>
     <use xlink:href="#DejaVuSans-6c" transform="translate(579.341797 0)"/>
     <use xlink:href="#DejaVuSans-6f" transform="translate(607.125 0)"/>
     <use xlink:href="#DejaVuSans-75" transform="translate(668.306641 0)"/>
     <use xlink:href="#DejaVuSans-64" transform="translate(731.685547 0)"/>
     <use xlink:href="#DejaVuSans-20" transform="translate(795.162109 0)"/>
     <use xlink:href="#DejaVuSans-50" transform="translate(826.949219 0)"/>
     <use xlink:href="#DejaVuSans-6c" transform="translate(887.251953 0)"/>
     <use xlink:href="#DejaVuSans-6f" transform="translate(915.035156 0)"/>
     <use xlink:href="#DejaVuSans-74" transform="translate(976.216797 0)"/>
     <use xlink:href="#DejaVuSans-20" transform="translate(1015.425781 0)"/>
     <use xlink:href="#DejaVuSans-20" transform="translate(1047.212891 0)"/>
     <use xlink:href="#DejaVuSans-4e" transform="translate(1079 0)"/>
     <use xlink:href="#DejaVuSans-3d" transform="translate(1153.804688 0)"/>
     <use xlink:href="#DejaVuSans-35" transform="translate(1237.59375 0)"/>
     <use xlink:href="#DejaVuSans-33" transform="translate(1301.216797 0)"/>
    </g>
   </g>
  </g>
 </g>
 <defs>
  <clipPath id="pa2f8a0ed51">
   <rect x="58.758" y="27.168" width="434.874" height="360.6096"/>
  </clipPath>
 </defs>
</svg>
