<?xml version="1.0" encoding="utf-8" standalone="no"?>
<!DOCTYPE svg PUBLIC "-//W3C//DTD SVG 1.1//EN"
  "http://www.w3.org/Graphics/SVG/1.1/DTD/svg11.dtd">
<svg xmlns:xlink="http://www.w3.org/1999/xlink" width="504pt" height="504pt" viewBox="0 0 504 504" xmlns="http://www.w3.org/2000/svg" version="1.1">
 <metadata>
  <rdf:RDF xmlns:dc="http://purl.org/dc/elements/1.1/" xmlns:cc="http://creativecommons.org/ns#" xmlns:rdf="http://www.w3.org/1999/02/22-rdf-syntax-ns#">
   <cc:Work>
    <dc:type rdf:resource="http://purl.org/dc/dcmitype/StillImage"/>
    <dc:date>2025-10-25T16:05:43.476819</dc:date>
    <dc:format>image/svg+xml</dc:format>
    <dc:creator>
     <cc:Agent>
      <dc:title>Matplotlib v3.10.0, https://matplotlib.org/</dc:title>
     </cc:Agent>
    </dc:creator>
   </cc:Work>
  </rdf:RDF>
 </metadata>
 <defs>
  <style type="text/css">*{stroke-linejoin: round; stroke-linecap: butt}</style>
 </defs>
 <g id="figure_1">
  <g id="patch_1">
   <path d="M 0 504 
L 504 504 
L 504 0 
L 0 0 
z
" style="fill: #ffffff"/>
  </g>
  <g id="axes_1">
   <g id="patch_2">
    <path d="M 52.458 474.532 
L 493.632 474.532 
L 493.632 27.168 
L 52.458 27.168 
z
" style="fill: #ffffff"/>
   </g>
   <g id="matplotlib.axis_1">
    <g id="xtick_1">
     <g id="text_1">
      <!-- Pre OFF -->
      <g style="fill: #262626" transform="translate(104.841219 491.190281) scale(0.11 -0.11)">
       <defs>
        <path id="DejaVuSans-50" d="M 1259 4147 
L 1259 2394 
L 2053 2394 
Q 2494 2394 2734 2622 
Q 2975 2850 2975 3272 
Q 2975 3691 2734 3919 
Q 2494 4147 2053 4147 
L 1259 4147 
z
M 628 4666 
L 2053 4666 
Q 2838 4666 3239 4311 
Q 3641 3956 3641 3272 
Q 3641 2581 3239 2228 
Q 2838 1875 2053 1875 
L 1259 1875 
L 1259 0 
L 628 0 
L 628 4666 
z
" transform="scale(0.015625)"/>
        <path id="DejaVuSans-72" d="M 2631 2963 
Q 2534 3019 2420 3045 
Q 2306 3072 2169 3072 
Q 1681 3072 1420 2755 
Q 1159 2438 1159 1844 
L 1159 0 
L 581 0 
L 581 3500 
L 1159 3500 
L 1159 2956 
Q 1341 3275 1631 3429 
Q 1922 3584 2338 3584 
Q 2397 3584 2469 3576 
Q 2541 3569 2628 3553 
L 2631 2963 
z
" transform="scale(0.015625)"/>
        <path id="DejaVuSans-65" d="M 3597 1894 
L 3597 1613 
L 953 1613 
Q 991 1019 1311 708 
Q 1631 397 2203 397 
Q 2534 397 2845 478 
Q 3156 559 3463 722 
L 3463 178 
Q 3153 47 2828 -22 
Q 2503 -91 2169 -91 
Q 1331 -91 842 396 
Q 353 884 353 1716 
Q 353 2575 817 3079 
Q 1281 3584 2069 3584 
Q 2775 3584 3186 3129 
Q 3597 2675 3597 1894 
z
M 3022 2063 
Q 3016 2534 2758 2815 
Q 2500 3097 2075 3097 
Q 1594 3097 1305 2825 
Q 1016 2553 972 2059 
L 3022 2063 
z
" transform="scale(0.015625)"/>
        <path id="DejaVuSans-20" transform="scale(0.015625)"/>
        <path id="DejaVuSans-4f" d="M 2522 4238 
Q 1834 4238 1429 3725 
Q 1025 3213 1025 2328 
Q 1025 1447 1429 934 
Q 1834 422 2522 422 
Q 3209 422 3611 934 
Q 4013 1447 4013 2328 
Q 4013 3213 3611 3725 
Q 3209 4238 2522 4238 
z
M 2522 4750 
Q 3503 4750 4090 4092 
Q 4678 3434 4678 2328 
Q 4678 1225 4090 567 
Q 3503 -91 2522 -91 
Q 1538 -91 948 565 
Q 359 1222 359 2328 
Q 359 3434 948 4092 
Q 1538 4750 2522 4750 
z
" transform="scale(0.015625)"/>
        <path id="DejaVuSans-46" d="M 628 4666 
L 3309 4666 
L 3309 4134 
L 1259 4134 
L 1259 2759 
L 3109 2759 
L 3109 2228 
L 1259 2228 
L 1259 0 
L 628 0 
L 628 4666 
z
" transform="scale(0.015625)"/>
       </defs>
       <use xlink:href="#DejaVuSans-50"/>
       <use xlink:href="#DejaVuSans-72" transform="translate(58.552734 0)"/>
       <use xlink:href="#DejaVuSans-65" transform="translate(97.416016 0)"/>
       <use xlink:href="#DejaVuSans-20" transform="translate(158.939453 0)"/>
       <use xlink:href="#DejaVuSans-4f" transform="translate(190.726562 0)"/>
       <use xlink:href="#DejaVuSans-46" transform="translate(269.4375 0)"/>
       <use xlink:href="#DejaVuSans-46" transform="translate(326.957031 0)"/>
      </g>
     </g>
    </g>
    <g id="xtick_2">
     <g id="text_2">
      <!-- Pre ON -->
      <g style="fill: #262626" transform="translate(254.11125 491.190281) scale(0.11 -0.11)">
       <defs>
        <path id="DejaVuSans-4e" d="M 628 4666 
L 1478 4666 
L 3547 763 
L 3547 4666 
L 4159 4666 
L 4159 0 
L 3309 0 
L 1241 3903 
L 1241 0 
L 628 0 
L 628 4666 
z
" transform="scale(0.015625)"/>
       </defs>
       <use xlink:href="#DejaVuSans-50"/>
       <use xlink:href="#DejaVuSans-72" transform="translate(58.552734 0)"/>
       <use xlink:href="#DejaVuSans-65" transform="translate(97.416016 0)"/>
       <use xlink:href="#DejaVuSans-20" transform="translate(158.939453 0)"/>
       <use xlink:href="#DejaVuSans-4f" transform="translate(190.726562 0)"/>
       <use xlink:href="#DejaVuSans-4e" transform="translate(269.4375 0)"/>
      </g>
     </g>
    </g>
    <g id="xtick_3">
     <g id="text_3">
      <!-- Post ON/Stim On -->
      <g style="fill: #262626" transform="translate(374.458156 491.190281) scale(0.11 -0.11)">
       <defs>
        <path id="DejaVuSans-6f" d="M 1959 3097 
Q 1497 3097 1228 2736 
Q 959 2375 959 1747 
Q 959 1119 1226 758 
Q 1494 397 1959 397 
Q 2419 397 2687 759 
Q 2956 1122 2956 1747 
Q 2956 2369 2687 2733 
Q 2419 3097 1959 3097 
z
M 1959 3584 
Q 2709 3584 3137 3096 
Q 3566 2609 3566 1747 
Q 3566 888 3137 398 
Q 2709 -91 1959 -91 
Q 1206 -91 779 398 
Q 353 888 353 1747 
Q 353 2609 779 3096 
Q 1206 3584 1959 3584 
z
" transform="scale(0.015625)"/>
        <path id="DejaVuSans-73" d="M 2834 3397 
L 2834 2853 
Q 2591 2978 2328 3040 
Q 2066 3103 1784 3103 
Q 1356 3103 1142 2972 
Q 928 2841 928 2578 
Q 928 2378 1081 2264 
Q 1234 2150 1697 2047 
L 1894 2003 
Q 2506 1872 2764 1633 
Q 3022 1394 3022 966 
Q 3022 478 2636 193 
Q 2250 -91 1575 -91 
Q 1294 -91 989 -36 
Q 684 19 347 128 
L 347 722 
Q 666 556 975 473 
Q 1284 391 1588 391 
Q 1994 391 2212 530 
Q 2431 669 2431 922 
Q 2431 1156 2273 1281 
Q 2116 1406 1581 1522 
L 1381 1569 
Q 847 1681 609 1914 
Q 372 2147 372 2553 
Q 372 3047 722 3315 
Q 1072 3584 1716 3584 
Q 2034 3584 2315 3537 
Q 2597 3491 2834 3397 
z
" transform="scale(0.015625)"/>
        <path id="DejaVuSans-74" d="M 1172 4494 
L 1172 3500 
L 2356 3500 
L 2356 3053 
L 1172 3053 
L 1172 1153 
Q 1172 725 1289 603 
Q 1406 481 1766 481 
L 2356 481 
L 2356 0 
L 1766 0 
Q 1100 0 847 248 
Q 594 497 594 1153 
L 594 3053 
L 172 3053 
L 172 3500 
L 594 3500 
L 594 4494 
L 1172 4494 
z
" transform="scale(0.015625)"/>
        <path id="DejaVuSans-2f" d="M 1625 4666 
L 2156 4666 
L 531 -594 
L 0 -594 
L 1625 4666 
z
" transform="scale(0.015625)"/>
        <path id="DejaVuSans-53" d="M 3425 4513 
L 3425 3897 
Q 3066 4069 2747 4153 
Q 2428 4238 2131 4238 
Q 1616 4238 1336 4038 
Q 1056 3838 1056 3469 
Q 1056 3159 1242 3001 
Q 1428 2844 1947 2747 
L 2328 2669 
Q 3034 2534 3370 2195 
Q 3706 1856 3706 1288 
Q 3706 609 3251 259 
Q 2797 -91 1919 -91 
Q 1588 -91 1214 -16 
Q 841 59 441 206 
L 441 856 
Q 825 641 1194 531 
Q 1563 422 1919 422 
Q 2459 422 2753 634 
Q 3047 847 3047 1241 
Q 3047 1584 2836 1778 
Q 2625 1972 2144 2069 
L 1759 2144 
Q 1053 2284 737 2584 
Q 422 2884 422 3419 
Q 422 4038 858 4394 
Q 1294 4750 2059 4750 
Q 2388 4750 2728 4690 
Q 3069 4631 3425 4513 
z
" transform="scale(0.015625)"/>
        <path id="DejaVuSans-69" d="M 603 3500 
L 1178 3500 
L 1178 0 
L 603 0 
L 603 3500 
z
M 603 4863 
L 1178 4863 
L 1178 4134 
L 603 4134 
L 603 4863 
z
" transform="scale(0.015625)"/>
        <path id="DejaVuSans-6d" d="M 3328 2828 
Q 3544 3216 3844 3400 
Q 4144 3584 4550 3584 
Q 5097 3584 5394 3201 
Q 5691 2819 5691 2113 
L 5691 0 
L 5113 0 
L 5113 2094 
Q 5113 2597 4934 2840 
Q 4756 3084 4391 3084 
Q 3944 3084 3684 2787 
Q 3425 2491 3425 1978 
L 3425 0 
L 2847 0 
L 2847 2094 
Q 2847 2600 2669 2842 
Q 2491 3084 2119 3084 
Q 1678 3084 1418 2786 
Q 1159 2488 1159 1978 
L 1159 0 
L 581 0 
L 581 3500 
L 1159 3500 
L 1159 2956 
Q 1356 3278 1631 3431 
Q 1906 3584 2284 3584 
Q 2666 3584 2933 3390 
Q 3200 3197 3328 2828 
z
" transform="scale(0.015625)"/>
        <path id="DejaVuSans-6e" d="M 3513 2113 
L 3513 0 
L 2938 0 
L 2938 2094 
Q 2938 2591 2744 2837 
Q 2550 3084 2163 3084 
Q 1697 3084 1428 2787 
Q 1159 2491 1159 1978 
L 1159 0 
L 581 0 
L 581 3500 
L 1159 3500 
L 1159 2956 
Q 1366 3272 1645 3428 
Q 1925 3584 2291 3584 
Q 2894 3584 3203 3211 
Q 3513 2838 3513 2113 
z
" transform="scale(0.015625)"/>
       </defs>
       <use xlink:href="#DejaVuSans-50"/>
       <use xlink:href="#DejaVuSans-6f" transform="translate(56.677734 0)"/>
       <use xlink:href="#DejaVuSans-73" transform="translate(117.859375 0)"/>
       <use xlink:href="#DejaVuSans-74" transform="translate(169.958984 0)"/>
       <use xlink:href="#DejaVuSans-20" transform="translate(209.167969 0)"/>
       <use xlink:href="#DejaVuSans-4f" transform="translate(240.955078 0)"/>
       <use xlink:href="#DejaVuSans-4e" transform="translate(319.666016 0)"/>
       <use xlink:href="#DejaVuSans-2f" transform="translate(394.470703 0)"/>
       <use xlink:href="#DejaVuSans-53" transform="translate(428.162109 0)"/>
       <use xlink:href="#DejaVuSans-74" transform="translate(491.638672 0)"/>
       <use xlink:href="#DejaVuSans-69" transform="translate(530.847656 0)"/>
       <use xlink:href="#DejaVuSans-6d" transform="translate(558.630859 0)"/>
       <use xlink:href="#DejaVuSans-20" transform="translate(656.042969 0)"/>
       <use xlink:href="#DejaVuSans-4f" transform="translate(687.830078 0)"/>
       <use xlink:href="#DejaVuSans-6e" transform="translate(766.541016 0)"/>
      </g>
     </g>
    </g>
   </g>
   <g id="matplotlib.axis_2">
    <g id="ytick_1">
     <g id="text_4">
      <!-- 0 -->
      <g style="fill: #262626" transform="translate(37.7955 469.899746) scale(0.1 -0.1)">
       <defs>
        <path id="DejaVuSans-30" d="M 2034 4250 
Q 1547 4250 1301 3770 
Q 1056 3291 1056 2328 
Q 1056 1369 1301 889 
Q 1547 409 2034 409 
Q 2525 409 2770 889 
Q 3016 1369 3016 2328 
Q 3016 3291 2770 3770 
Q 2525 4250 2034 4250 
z
M 2034 4750 
Q 2819 4750 3233 4129 
Q 3647 3509 3647 2328 
Q 3647 1150 3233 529 
Q 2819 -91 2034 -91 
Q 1250 -91 836 529 
Q 422 1150 422 2328 
Q 422 3509 836 4129 
Q 1250 4750 2034 4750 
z
" transform="scale(0.015625)"/>
       </defs>
       <use xlink:href="#DejaVuSans-30"/>
      </g>
     </g>
    </g>
    <g id="ytick_2">
     <g id="text_5">
      <!-- 20 -->
      <g style="fill: #262626" transform="translate(31.433 390.544713) scale(0.1 -0.1)">
       <defs>
        <path id="DejaVuSans-32" d="M 1228 531 
L 3431 531 
L 3431 0 
L 469 0 
L 469 531 
Q 828 903 1448 1529 
Q 2069 2156 2228 2338 
Q 2531 2678 2651 2914 
Q 2772 3150 2772 3378 
Q 2772 3750 2511 3984 
Q 2250 4219 1831 4219 
Q 1534 4219 1204 4116 
Q 875 4013 500 3803 
L 500 4441 
Q 881 4594 1212 4672 
Q 1544 4750 1819 4750 
Q 2544 4750 2975 4387 
Q 3406 4025 3406 3419 
Q 3406 3131 3298 2873 
Q 3191 2616 2906 2266 
Q 2828 2175 2409 1742 
Q 1991 1309 1228 531 
z
" transform="scale(0.015625)"/>
       </defs>
       <use xlink:href="#DejaVuSans-32"/>
       <use xlink:href="#DejaVuSans-30" transform="translate(63.623047 0)"/>
      </g>
     </g>
    </g>
    <g id="ytick_3">
     <g id="text_6">
      <!-- 40 -->
      <g style="fill: #262626" transform="translate(31.433 311.18968) scale(0.1 -0.1)">
       <defs>
        <path id="DejaVuSans-34" d="M 2419 4116 
L 825 1625 
L 2419 1625 
L 2419 4116 
z
M 2253 4666 
L 3047 4666 
L 3047 1625 
L 3713 1625 
L 3713 1100 
L 3047 1100 
L 3047 0 
L 2419 0 
L 2419 1100 
L 313 1100 
L 313 1709 
L 2253 4666 
z
" transform="scale(0.015625)"/>
       </defs>
       <use xlink:href="#DejaVuSans-34"/>
       <use xlink:href="#DejaVuSans-30" transform="translate(63.623047 0)"/>
      </g>
     </g>
    </g>
    <g id="ytick_4">
     <g id="text_7">
      <!-- 60 -->
      <g style="fill: #262626" transform="translate(31.433 231.834647) scale(0.1 -0.1)">
       <defs>
        <path id="DejaVuSans-36" d="M 2113 2584 
Q 1688 2584 1439 2293 
Q 1191 2003 1191 1497 
Q 1191 994 1439 701 
Q 1688 409 2113 409 
Q 2538 409 2786 701 
Q 3034 994 3034 1497 
Q 3034 2003 2786 2293 
Q 2538 2584 2113 2584 
z
M 3366 4563 
L 3366 3988 
Q 3128 4100 2886 4159 
Q 2644 4219 2406 4219 
Q 1781 4219 1451 3797 
Q 1122 3375 1075 2522 
Q 1259 2794 1537 2939 
Q 1816 3084 2150 3084 
Q 2853 3084 3261 2657 
Q 3669 2231 3669 1497 
Q 3669 778 3244 343 
Q 2819 -91 2113 -91 
Q 1303 -91 875 529 
Q 447 1150 447 2328 
Q 447 3434 972 4092 
Q 1497 4750 2381 4750 
Q 2619 4750 2861 4703 
Q 3103 4656 3366 4563 
z
" transform="scale(0.015625)"/>
       </defs>
       <use xlink:href="#DejaVuSans-36"/>
       <use xlink:href="#DejaVuSans-30" transform="translate(63.623047 0)"/>
      </g>
     </g>
    </g>
    <g id="ytick_5">
     <g id="text_8">
      <!-- 80 -->
      <g style="fill: #262626" transform="translate(31.433 152.479613) scale(0.1 -0.1)">
       <defs>
        <path id="DejaVuSans-38" d="M 2034 2216 
Q 1584 2216 1326 1975 
Q 1069 1734 1069 1313 
Q 1069 891 1326 650 
Q 1584 409 2034 409 
Q 2484 409 2743 651 
Q 3003 894 3003 1313 
Q 3003 1734 2745 1975 
Q 2488 2216 2034 2216 
z
M 1403 2484 
Q 997 2584 770 2862 
Q 544 3141 544 3541 
Q 544 4100 942 4425 
Q 1341 4750 2034 4750 
Q 2731 4750 3128 4425 
Q 3525 4100 3525 3541 
Q 3525 3141 3298 2862 
Q 3072 2584 2669 2484 
Q 3125 2378 3379 2068 
Q 3634 1759 3634 1313 
Q 3634 634 3220 271 
Q 2806 -91 2034 -91 
Q 1263 -91 848 271 
Q 434 634 434 1313 
Q 434 1759 690 2068 
Q 947 2378 1403 2484 
z
M 1172 3481 
Q 1172 3119 1398 2916 
Q 1625 2713 2034 2713 
Q 2441 2713 2670 2916 
Q 2900 3119 2900 3481 
Q 2900 3844 2670 4047 
Q 2441 4250 2034 4250 
Q 1625 4250 1398 4047 
Q 1172 3844 1172 3481 
z
" transform="scale(0.015625)"/>
       </defs>
       <use xlink:href="#DejaVuSans-38"/>
       <use xlink:href="#DejaVuSans-30" transform="translate(63.623047 0)"/>
      </g>
     </g>
    </g>
    <g id="ytick_6">
     <g id="text_9">
      <!-- 100 -->
      <g style="fill: #262626" transform="translate(25.0705 73.12458) scale(0.1 -0.1)">
       <defs>
        <path id="DejaVuSans-31" d="M 794 531 
L 1825 531 
L 1825 4091 
L 703 3866 
L 703 4441 
L 1819 4666 
L 2450 4666 
L 2450 531 
L 3481 531 
L 3481 0 
L 794 0 
L 794 531 
z
" transform="scale(0.015625)"/>
       </defs>
       <use xlink:href="#DejaVuSans-31"/>
       <use xlink:href="#DejaVuSans-30" transform="translate(63.623047 0)"/>
       <use xlink:href="#DejaVuSans-30" transform="translate(127.246094 0)"/>
      </g>
     </g>
    </g>
    <g id="text_10">
     <!-- MDS-UPDRS III -->
     <g style="fill: #262626" transform="translate(18.782844 290.811797) rotate(-90) scale(0.11 -0.11)">
      <defs>
       <path id="DejaVuSans-4d" d="M 628 4666 
L 1569 4666 
L 2759 1491 
L 3956 4666 
L 4897 4666 
L 4897 0 
L 4281 0 
L 4281 4097 
L 3078 897 
L 2444 897 
L 1241 4097 
L 1241 0 
L 628 0 
L 628 4666 
z
" transform="scale(0.015625)"/>
       <path id="DejaVuSans-44" d="M 1259 4147 
L 1259 519 
L 2022 519 
Q 2988 519 3436 956 
Q 3884 1394 3884 2338 
Q 3884 3275 3436 3711 
Q 2988 4147 2022 4147 
L 1259 4147 
z
M 628 4666 
L 1925 4666 
Q 3281 4666 3915 4102 
Q 4550 3538 4550 2338 
Q 4550 1131 3912 565 
Q 3275 0 1925 0 
L 628 0 
L 628 4666 
z
" transform="scale(0.015625)"/>
       <path id="DejaVuSans-2d" d="M 313 2009 
L 1997 2009 
L 1997 1497 
L 313 1497 
L 313 2009 
z
" transform="scale(0.015625)"/>
       <path id="DejaVuSans-55" d="M 556 4666 
L 1191 4666 
L 1191 1831 
Q 1191 1081 1462 751 
Q 1734 422 2344 422 
Q 2950 422 3222 751 
Q 3494 1081 3494 1831 
L 3494 4666 
L 4128 4666 
L 4128 1753 
Q 4128 841 3676 375 
Q 3225 -91 2344 -91 
Q 1459 -91 1007 375 
Q 556 841 556 1753 
L 556 4666 
z
" transform="scale(0.015625)"/>
       <path id="DejaVuSans-52" d="M 2841 2188 
Q 3044 2119 3236 1894 
Q 3428 1669 3622 1275 
L 4263 0 
L 3584 0 
L 2988 1197 
Q 2756 1666 2539 1819 
Q 2322 1972 1947 1972 
L 1259 1972 
L 1259 0 
L 628 0 
L 628 4666 
L 2053 4666 
Q 2853 4666 3247 4331 
Q 3641 3997 3641 3322 
Q 3641 2881 3436 2590 
Q 3231 2300 2841 2188 
z
M 1259 4147 
L 1259 2491 
L 2053 2491 
Q 2509 2491 2742 2702 
Q 2975 2913 2975 3322 
Q 2975 3731 2742 3939 
Q 2509 4147 2053 4147 
L 1259 4147 
z
" transform="scale(0.015625)"/>
       <path id="DejaVuSans-49" d="M 628 4666 
L 1259 4666 
L 1259 0 
L 628 0 
L 628 4666 
z
" transform="scale(0.015625)"/>
      </defs>
      <use xlink:href="#DejaVuSans-4d"/>
      <use xlink:href="#DejaVuSans-44" transform="translate(86.279297 0)"/>
      <use xlink:href="#DejaVuSans-53" transform="translate(163.28125 0)"/>
      <use xlink:href="#DejaVuSans-2d" transform="translate(226.757812 0)"/>
      <use xlink:href="#DejaVuSans-55" transform="translate(262.841797 0)"/>
      <use xlink:href="#DejaVuSans-50" transform="translate(336.035156 0)"/>
      <use xlink:href="#DejaVuSans-44" transform="translate(396.337891 0)"/>
      <use xlink:href="#DejaVuSans-52" transform="translate(473.339844 0)"/>
      <use xlink:href="#DejaVuSans-53" transform="translate(542.822266 0)"/>
      <use xlink:href="#DejaVuSans-20" transform="translate(606.298828 0)"/>
      <use xlink:href="#DejaVuSans-49" transform="translate(638.085938 0)"/>
      <use xlink:href="#DejaVuSans-49" transform="translate(667.578125 0)"/>
      <use xlink:href="#DejaVuSans-49" transform="translate(697.070312 0)"/>
     </g>
    </g>
   </g>
   <g id="FillBetweenPolyCollection_1">
    <defs>
     <path id="mc6d36ff878" d="M 115.010902 -81.544741 
L 110.335592 -81.544741 
L 109.743806 -85.33214 
L 109.112102 -89.119539 
L 108.441868 -92.906939 
L 107.734815 -96.694338 
L 106.992788 -100.481737 
L 106.217507 -104.269136 
L 105.410271 -108.056536 
L 104.571665 -111.843935 
L 103.701354 -115.631334 
L 102.798009 -119.418734 
L 101.859448 -123.206133 
L 100.88302 -126.993532 
L 99.866235 -130.780932 
L 98.807604 -134.568331 
L 97.70759 -138.35573 
L 96.569551 -142.14313 
L 95.400501 -145.930529 
L 94.211558 -149.717928 
L 93.017917 -153.505328 
L 91.838283 -157.292727 
L 90.693751 -161.080126 
L 89.606181 -164.867525 
L 88.596252 -168.654925 
L 87.681366 -172.442324 
L 86.873697 -176.229723 
L 86.178606 -180.017123 
L 85.593672 -183.804522 
L 85.108491 -187.591921 
L 84.705325 -191.379321 
L 84.360568 -195.16672 
L 84.046924 -198.954119 
L 83.73607 -202.741519 
L 83.401566 -206.528918 
L 83.02171 -210.316317 
L 82.582049 -214.103717 
L 82.077312 -217.891116 
L 81.512558 -221.678515 
L 80.90343 -225.465915 
L 80.275485 -229.253314 
L 79.662653 -233.040713 
L 79.104956 -236.828112 
L 78.645685 -240.615512 
L 78.328276 -244.402911 
L 78.19315 -248.19031 
L 78.274791 -251.97771 
L 78.599285 -255.765109 
L 79.18253 -259.552508 
L 80.029226 -263.339908 
L 81.132711 -267.127307 
L 82.475595 -270.914706 
L 84.031121 -274.702106 
L 85.765058 -278.489505 
L 87.637973 -282.276904 
L 89.607632 -286.064304 
L 91.631363 -289.851703 
L 93.668186 -293.639102 
L 95.680587 -297.426502 
L 97.63585 -301.213901 
L 99.506915 -305.0013 
L 101.272774 -308.788699 
L 102.918445 -312.576099 
L 104.434615 -316.363498 
L 105.817015 -320.150897 
L 107.065642 -323.938297 
L 108.183898 -327.725696 
L 109.177728 -331.513095 
L 110.054813 -335.300495 
L 110.823873 -339.087894 
L 111.494083 -342.875293 
L 112.074629 -346.662693 
L 112.574394 -350.450092 
L 113.001752 -354.237491 
L 113.364452 -358.024891 
L 113.669575 -361.81229 
L 113.923519 -365.599689 
L 114.132019 -369.387088 
L 114.300161 -373.174488 
L 114.432407 -376.961887 
L 114.532608 -380.749286 
L 114.604027 -384.536686 
L 114.649373 -388.324085 
L 114.670843 -392.111484 
L 114.670206 -395.898884 
L 114.648907 -399.686283 
L 114.608209 -403.473682 
L 114.549356 -407.261082 
L 114.473752 -411.048481 
L 114.383141 -414.83588 
L 114.279756 -418.62328 
L 114.166436 -422.410679 
L 114.046662 -426.198078 
L 113.924534 -429.985478 
L 113.804652 -433.772877 
L 113.691915 -437.560276 
L 113.591254 -441.347675 
L 113.507326 -445.135075 
L 113.444183 -448.922474 
L 113.404977 -452.709873 
L 113.391709 -456.497273 
L 115.010902 -456.497273 
L 115.010902 -456.497273 
L 115.010902 -452.709873 
L 115.010902 -448.922474 
L 115.010902 -445.135075 
L 115.010902 -441.347675 
L 115.010902 -437.560276 
L 115.010902 -433.772877 
L 115.010902 -429.985478 
L 115.010902 -426.198078 
L 115.010902 -422.410679 
L 115.010902 -418.62328 
L 115.010902 -414.83588 
L 115.010902 -411.048481 
L 115.010902 -407.261082 
L 115.010902 -403.473682 
L 115.010902 -399.686283 
L 115.010902 -395.898884 
L 115.010902 -392.111484 
L 115.010902 -388.324085 
L 115.010902 -384.536686 
L 115.010902 -380.749286 
L 115.010902 -376.961887 
L 115.010902 -373.174488 
L 115.010902 -369.387088 
L 115.010902 -365.599689 
L 115.010902 -361.81229 
L 115.010902 -358.024891 
L 115.010902 -354.237491 
L 115.010902 -350.450092 
L 115.010902 -346.662693 
L 115.010902 -342.875293 
L 115.010902 -339.087894 
L 115.010902 -335.300495 
L 115.010902 -331.513095 
L 115.010902 -327.725696 
L 115.010902 -323.938297 
L 115.010902 -320.150897 
L 115.010902 -316.363498 
L 115.010902 -312.576099 
L 115.010902 -308.788699 
L 115.010902 -305.0013 
L 115.010902 -301.213901 
L 115.010902 -297.426502 
L 115.010902 -293.639102 
L 115.010902 -289.851703 
L 115.010902 -286.064304 
L 115.010902 -282.276904 
L 115.010902 -278.489505 
L 115.010902 -274.702106 
L 115.010902 -270.914706 
L 115.010902 -267.127307 
L 115.010902 -263.339908 
L 115.010902 -259.552508 
L 115.010902 -255.765109 
L 115.010902 -251.97771 
L 115.010902 -248.19031 
L 115.010902 -244.402911 
L 115.010902 -240.615512 
L 115.010902 -236.828112 
L 115.010902 -233.040713 
L 115.010902 -229.253314 
L 115.010902 -225.465915 
L 115.010902 -221.678515 
L 115.010902 -217.891116 
L 115.010902 -214.103717 
L 115.010902 -210.316317 
L 115.010902 -206.528918 
L 115.010902 -202.741519 
L 115.010902 -198.954119 
L 115.010902 -195.16672 
L 115.010902 -191.379321 
L 115.010902 -187.591921 
L 115.010902 -183.804522 
L 115.010902 -180.017123 
L 115.010902 -176.229723 
L 115.010902 -172.442324 
L 115.010902 -168.654925 
L 115.010902 -164.867525 
L 115.010902 -161.080126 
L 115.010902 -157.292727 
L 115.010902 -153.505328 
L 115.010902 -149.717928 
L 115.010902 -145.930529 
L 115.010902 -142.14313 
L 115.010902 -138.35573 
L 115.010902 -134.568331 
L 115.010902 -130.780932 
L 115.010902 -126.993532 
L 115.010902 -123.206133 
L 115.010902 -119.418734 
L 115.010902 -115.631334 
L 115.010902 -111.843935 
L 115.010902 -108.056536 
L 115.010902 -104.269136 
L 115.010902 -100.481737 
L 115.010902 -96.694338 
L 115.010902 -92.906939 
L 115.010902 -89.119539 
L 115.010902 -85.33214 
L 115.010902 -81.544741 
z
"/>
    </defs>
    <g clip-path="url(#p83b48eacc2)">
     <use xlink:href="#mc6d36ff878" x="0" y="504" style="fill: #4c72b0"/>
    </g>
   </g>
   <g id="FillBetweenPolyCollection_2">
    <defs>
     <path id="m388f26e061" d="M 262.149144 -61.705982 
L 250.370939 -61.705982 
L 249.312613 -63.549584 
L 248.225032 -65.393186 
L 247.11351 -67.236788 
L 245.98344 -69.080389 
L 244.840226 -70.923991 
L 243.68921 -72.767593 
L 242.535643 -74.611195 
L 241.384663 -76.454797 
L 240.241292 -78.298398 
L 239.110451 -80.142 
L 237.99698 -81.985602 
L 236.905658 -83.829204 
L 235.841213 -85.672805 
L 234.808326 -87.516407 
L 233.811615 -89.360009 
L 232.855594 -91.203611 
L 231.944617 -93.047213 
L 231.082801 -94.890814 
L 230.273936 -96.734416 
L 229.521387 -98.578018 
L 228.827998 -100.42162 
L 228.196 -102.265221 
L 227.626945 -104.108823 
L 227.121659 -105.952425 
L 226.680226 -107.796027 
L 226.302004 -109.639629 
L 225.985677 -111.48323 
L 225.729336 -113.326832 
L 225.530582 -115.170434 
L 225.386649 -117.014036 
L 225.294539 -118.857638 
L 225.25115 -120.701239 
L 225.253396 -122.544841 
L 225.298313 -124.388443 
L 225.383143 -126.232045 
L 225.505381 -128.075646 
L 225.662813 -129.919248 
L 225.853513 -131.76285 
L 226.075829 -133.606452 
L 226.328357 -135.450054 
L 226.609899 -137.293655 
L 226.919438 -139.137257 
L 227.256105 -140.980859 
L 227.619168 -142.824461 
L 228.008037 -144.668062 
L 228.42228 -146.511664 
L 228.861652 -148.355266 
L 229.326136 -150.198868 
L 229.815975 -152.04247 
L 230.331702 -153.886071 
L 230.874144 -155.729673 
L 231.444406 -157.573275 
L 232.043815 -159.416877 
L 232.673834 -161.260479 
L 233.335936 -163.10408 
L 234.031449 -164.947682 
L 234.761373 -166.791284 
L 235.526192 -168.634886 
L 236.325684 -170.478487 
L 237.158745 -172.322089 
L 238.023257 -174.165691 
L 238.91599 -176.009293 
L 239.832574 -177.852895 
L 240.767531 -179.696496 
L 241.714378 -181.540098 
L 242.665797 -183.3837 
L 243.613869 -185.227302 
L 244.55035 -187.070903 
L 245.466985 -188.914505 
L 246.355834 -190.758107 
L 247.209594 -192.601709 
L 248.021892 -194.445311 
L 248.787537 -196.288912 
L 249.502714 -198.132514 
L 250.165105 -199.976116 
L 250.773937 -201.819718 
L 251.329951 -203.66332 
L 251.835291 -205.506921 
L 252.293343 -207.350523 
L 252.708502 -209.194125 
L 253.085923 -211.037727 
L 253.431233 -212.881328 
L 253.750257 -214.72493 
L 254.048748 -216.568532 
L 254.332153 -218.412134 
L 254.605411 -220.255736 
L 254.87281 -222.099337 
L 255.137889 -223.942939 
L 255.403386 -225.786541 
L 255.671244 -227.630143 
L 255.942651 -229.473744 
L 256.218114 -231.317346 
L 256.497549 -233.160948 
L 256.780396 -235.00455 
L 257.065721 -236.848152 
L 257.352329 -238.691753 
L 257.638851 -240.535355 
L 257.923832 -242.378957 
L 258.205793 -244.222559 
L 262.149144 -244.222559 
L 262.149144 -244.222559 
L 262.149144 -242.378957 
L 262.149144 -240.535355 
L 262.149144 -238.691753 
L 262.149144 -236.848152 
L 262.149144 -235.00455 
L 262.149144 -233.160948 
L 262.149144 -231.317346 
L 262.149144 -229.473744 
L 262.149144 -227.630143 
L 262.149144 -225.786541 
L 262.149144 -223.942939 
L 262.149144 -222.099337 
L 262.149144 -220.255736 
L 262.149144 -218.412134 
L 262.149144 -216.568532 
L 262.149144 -214.72493 
L 262.149144 -212.881328 
L 262.149144 -211.037727 
L 262.149144 -209.194125 
L 262.149144 -207.350523 
L 262.149144 -205.506921 
L 262.149144 -203.66332 
L 262.149144 -201.819718 
L 262.149144 -199.976116 
L 262.149144 -198.132514 
L 262.149144 -196.288912 
L 262.149144 -194.445311 
L 262.149144 -192.601709 
L 262.149144 -190.758107 
L 262.149144 -188.914505 
L 262.149144 -187.070903 
L 262.149144 -185.227302 
L 262.149144 -183.3837 
L 262.149144 -181.540098 
L 262.149144 -179.696496 
L 262.149144 -177.852895 
L 262.149144 -176.009293 
L 262.149144 -174.165691 
L 262.149144 -172.322089 
L 262.149144 -170.478487 
L 262.149144 -168.634886 
L 262.149144 -166.791284 
L 262.149144 -164.947682 
L 262.149144 -163.10408 
L 262.149144 -161.260479 
L 262.149144 -159.416877 
L 262.149144 -157.573275 
L 262.149144 -155.729673 
L 262.149144 -153.886071 
L 262.149144 -152.04247 
L 262.149144 -150.198868 
L 262.149144 -148.355266 
L 262.149144 -146.511664 
L 262.149144 -144.668062 
L 262.149144 -142.824461 
L 262.149144 -140.980859 
L 262.149144 -139.137257 
L 262.149144 -137.293655 
L 262.149144 -135.450054 
L 262.149144 -133.606452 
L 262.149144 -131.76285 
L 262.149144 -129.919248 
L 262.149144 -128.075646 
L 262.149144 -126.232045 
L 262.149144 -124.388443 
L 262.149144 -122.544841 
L 262.149144 -120.701239 
L 262.149144 -118.857638 
L 262.149144 -117.014036 
L 262.149144 -115.170434 
L 262.149144 -113.326832 
L 262.149144 -111.48323 
L 262.149144 -109.639629 
L 262.149144 -107.796027 
L 262.149144 -105.952425 
L 262.149144 -104.108823 
L 262.149144 -102.265221 
L 262.149144 -100.42162 
L 262.149144 -98.578018 
L 262.149144 -96.734416 
L 262.149144 -94.890814 
L 262.149144 -93.047213 
L 262.149144 -91.203611 
L 262.149144 -89.360009 
L 262.149144 -87.516407 
L 262.149144 -85.672805 
L 262.149144 -83.829204 
L 262.149144 -81.985602 
L 262.149144 -80.142 
L 262.149144 -78.298398 
L 262.149144 -76.454797 
L 262.149144 -74.611195 
L 262.149144 -72.767593 
L 262.149144 -70.923991 
L 262.149144 -69.080389 
L 262.149144 -67.236788 
L 262.149144 -65.393186 
L 262.149144 -63.549584 
L 262.149144 -61.705982 
z
"/>
    </defs>
    <g clip-path="url(#p83b48eacc2)">
     <use xlink:href="#m388f26e061" x="0" y="504" style="fill: #4c72b0"/>
    </g>
   </g>
   <g id="FillBetweenPolyCollection_3">
    <defs>
     <path id="mf092a6a4a2" d="M 409.249326 -49.802727 
L 395.276957 -49.802727 
L 394.30112 -52.127269 
L 393.320008 -54.45181 
L 392.339479 -56.776351 
L 391.365297 -59.100893 
L 390.403004 -61.425434 
L 389.457804 -63.749976 
L 388.534455 -66.074517 
L 387.63718 -68.399058 
L 386.769584 -70.7236 
L 385.934604 -73.048141 
L 385.134473 -75.372682 
L 384.370708 -77.697224 
L 383.644123 -80.021765 
L 382.954857 -82.346307 
L 382.302424 -84.670848 
L 381.685778 -86.995389 
L 381.103388 -89.319931 
L 380.553324 -91.644472 
L 380.033341 -93.969013 
L 379.540974 -96.293555 
L 379.073617 -98.618096 
L 378.628616 -100.942638 
L 378.20334 -103.267179 
L 377.795256 -105.59172 
L 377.401993 -107.916262 
L 377.021407 -110.240803 
L 376.651633 -112.565344 
L 376.29114 -114.889886 
L 375.938776 -117.214427 
L 375.593817 -119.538969 
L 375.256005 -121.86351 
L 374.925586 -124.188051 
L 374.603332 -126.512593 
L 374.290562 -128.837134 
L 373.98914 -131.161676 
L 373.701466 -133.486217 
L 373.430437 -135.810758 
L 373.179394 -138.1353 
L 372.95204 -140.459841 
L 372.752343 -142.784382 
L 372.584408 -145.108924 
L 372.452341 -147.433465 
L 372.360094 -149.758007 
L 372.311307 -152.082548 
L 372.30915 -154.407089 
L 372.356173 -156.731631 
L 372.454179 -159.056172 
L 372.604114 -161.380713 
L 372.805993 -163.705255 
L 373.058865 -166.029796 
L 373.360815 -168.354338 
L 373.709007 -170.678879 
L 374.099767 -173.00342 
L 374.528711 -175.327962 
L 374.99089 -177.652503 
L 375.480971 -179.977044 
L 375.993427 -182.301586 
L 376.522739 -184.626127 
L 377.063588 -186.950669 
L 377.611038 -189.27521 
L 378.160699 -191.599751 
L 378.708859 -193.924293 
L 379.252583 -196.248834 
L 379.789777 -198.573375 
L 380.319212 -200.897917 
L 380.840509 -203.222458 
L 381.354088 -205.547 
L 381.861091 -207.871541 
L 382.363268 -210.196082 
L 382.862855 -212.520624 
L 383.36243 -214.845165 
L 383.864766 -217.169707 
L 384.372691 -219.494248 
L 384.888943 -221.818789 
L 385.41605 -224.143331 
L 385.95622 -226.467872 
L 386.511256 -228.792413 
L 387.082494 -231.116955 
L 387.670762 -233.441496 
L 388.276364 -235.766038 
L 388.899086 -238.090579 
L 389.538225 -240.41512 
L 390.192627 -242.739662 
L 390.860745 -245.064203 
L 391.540702 -247.388744 
L 392.230364 -249.713286 
L 392.927404 -252.037827 
L 393.629378 -254.362369 
L 394.333783 -256.68691 
L 395.038115 -259.011451 
L 395.739918 -261.335993 
L 396.436817 -263.660534 
L 397.12655 -265.985075 
L 397.806984 -268.309617 
L 398.476124 -270.634158 
L 399.132117 -272.9587 
L 399.77325 -275.283241 
L 400.397943 -277.607782 
L 401.004743 -279.932324 
L 409.249326 -279.932324 
L 409.249326 -279.932324 
L 409.249326 -277.607782 
L 409.249326 -275.283241 
L 409.249326 -272.9587 
L 409.249326 -270.634158 
L 409.249326 -268.309617 
L 409.249326 -265.985075 
L 409.249326 -263.660534 
L 409.249326 -261.335993 
L 409.249326 -259.011451 
L 409.249326 -256.68691 
L 409.249326 -254.362369 
L 409.249326 -252.037827 
L 409.249326 -249.713286 
L 409.249326 -247.388744 
L 409.249326 -245.064203 
L 409.249326 -242.739662 
L 409.249326 -240.41512 
L 409.249326 -238.090579 
L 409.249326 -235.766038 
L 409.249326 -233.441496 
L 409.249326 -231.116955 
L 409.249326 -228.792413 
L 409.249326 -226.467872 
L 409.249326 -224.143331 
L 409.249326 -221.818789 
L 409.249326 -219.494248 
L 409.249326 -217.169707 
L 409.249326 -214.845165 
L 409.249326 -212.520624 
L 409.249326 -210.196082 
L 409.249326 -207.871541 
L 409.249326 -205.547 
L 409.249326 -203.222458 
L 409.249326 -200.897917 
L 409.249326 -198.573375 
L 409.249326 -196.248834 
L 409.249326 -193.924293 
L 409.249326 -191.599751 
L 409.249326 -189.27521 
L 409.249326 -186.950669 
L 409.249326 -184.626127 
L 409.249326 -182.301586 
L 409.249326 -179.977044 
L 409.249326 -177.652503 
L 409.249326 -175.327962 
L 409.249326 -173.00342 
L 409.249326 -170.678879 
L 409.249326 -168.354338 
L 409.249326 -166.029796 
L 409.249326 -163.705255 
L 409.249326 -161.380713 
L 409.249326 -159.056172 
L 409.249326 -156.731631 
L 409.249326 -154.407089 
L 409.249326 -152.082548 
L 409.249326 -149.758007 
L 409.249326 -147.433465 
L 409.249326 -145.108924 
L 409.249326 -142.784382 
L 409.249326 -140.459841 
L 409.249326 -138.1353 
L 409.249326 -135.810758 
L 409.249326 -133.486217 
L 409.249326 -131.161676 
L 409.249326 -128.837134 
L 409.249326 -126.512593 
L 409.249326 -124.188051 
L 409.249326 -121.86351 
L 409.249326 -119.538969 
L 409.249326 -117.214427 
L 409.249326 -114.889886 
L 409.249326 -112.565344 
L 409.249326 -110.240803 
L 409.249326 -107.916262 
L 409.249326 -105.59172 
L 409.249326 -103.267179 
L 409.249326 -100.942638 
L 409.249326 -98.618096 
L 409.249326 -96.293555 
L 409.249326 -93.969013 
L 409.249326 -91.644472 
L 409.249326 -89.319931 
L 409.249326 -86.995389 
L 409.249326 -84.670848 
L 409.249326 -82.346307 
L 409.249326 -80.021765 
L 409.249326 -77.697224 
L 409.249326 -75.372682 
L 409.249326 -73.048141 
L 409.249326 -70.7236 
L 409.249326 -68.399058 
L 409.249326 -66.074517 
L 409.249326 -63.749976 
L 409.249326 -61.425434 
L 409.249326 -59.100893 
L 409.249326 -56.776351 
L 409.249326 -54.45181 
L 409.249326 -52.127269 
L 409.249326 -49.802727 
z
"/>
    </defs>
    <g clip-path="url(#p83b48eacc2)">
     <use xlink:href="#mf092a6a4a2" x="0" y="504" style="fill: #4c72b0"/>
    </g>
   </g>
   <g id="patch_3">
    <path d="M 114.95765 327.22922 
L 137.01635 327.22922 
L 137.01635 243.906435 
L 114.95765 243.906435 
L 114.95765 327.22922 
z
" clip-path="url(#p83b48eacc2)" style="fill: #4c72b0; fill-opacity: 0.33; stroke: #000000; stroke-linejoin: miter"/>
   </g>
   <g id="line2d_1">
    <path d="M 125.987 327.22922 
L 125.987 422.455259 
" clip-path="url(#p83b48eacc2)" style="fill: none; stroke: #000000"/>
   </g>
   <g id="line2d_2">
    <path d="M 125.987 243.906435 
L 125.987 176.454656 
" clip-path="url(#p83b48eacc2)" style="fill: none; stroke: #000000"/>
   </g>
   <g id="line2d_3">
    <path d="M 120.472325 422.455259 
L 131.501675 422.455259 
" clip-path="url(#p83b48eacc2)" style="fill: none; stroke: #000000; stroke-linecap: round"/>
   </g>
   <g id="line2d_4">
    <path d="M 120.472325 176.454656 
L 131.501675 176.454656 
" clip-path="url(#p83b48eacc2)" style="fill: none; stroke: #000000; stroke-linecap: round"/>
   </g>
   <g id="line2d_5"/>
   <g id="patch_4">
    <path d="M 262.01565 400.23585 
L 284.07435 400.23585 
L 284.07435 339.132475 
L 262.01565 339.132475 
L 262.01565 400.23585 
z
" clip-path="url(#p83b48eacc2)" style="fill: #4c72b0; fill-opacity: 0.33; stroke: #000000; stroke-linejoin: miter"/>
   </g>
   <g id="line2d_6">
    <path d="M 273.045 400.23585 
L 273.045 442.294018 
" clip-path="url(#p83b48eacc2)" style="fill: none; stroke: #000000"/>
   </g>
   <g id="line2d_7">
    <path d="M 273.045 339.132475 
L 273.045 259.777441 
" clip-path="url(#p83b48eacc2)" style="fill: none; stroke: #000000"/>
   </g>
   <g id="line2d_8">
    <path d="M 267.530325 442.294018 
L 278.559675 442.294018 
" clip-path="url(#p83b48eacc2)" style="fill: none; stroke: #000000; stroke-linecap: round"/>
   </g>
   <g id="line2d_9">
    <path d="M 267.530325 259.777441 
L 278.559675 259.777441 
" clip-path="url(#p83b48eacc2)" style="fill: none; stroke: #000000; stroke-linecap: round"/>
   </g>
   <g id="line2d_10"/>
   <g id="patch_5">
    <path d="M 409.07365 391.308409 
L 431.13235 391.308409 
L 431.13235 303.42271 
L 409.07365 303.42271 
L 409.07365 391.308409 
z
" clip-path="url(#p83b48eacc2)" style="fill: #4c72b0; fill-opacity: 0.33; stroke: #000000; stroke-linejoin: miter"/>
   </g>
   <g id="line2d_11">
    <path d="M 420.103 391.308409 
L 420.103 454.197273 
" clip-path="url(#p83b48eacc2)" style="fill: none; stroke: #000000"/>
   </g>
   <g id="line2d_12">
    <path d="M 420.103 303.42271 
L 420.103 224.067676 
" clip-path="url(#p83b48eacc2)" style="fill: none; stroke: #000000"/>
   </g>
   <g id="line2d_13">
    <path d="M 414.588325 454.197273 
L 425.617675 454.197273 
" clip-path="url(#p83b48eacc2)" style="fill: none; stroke: #000000; stroke-linecap: round"/>
   </g>
   <g id="line2d_14">
    <path d="M 414.588325 224.067676 
L 425.617675 224.067676 
" clip-path="url(#p83b48eacc2)" style="fill: none; stroke: #000000; stroke-linecap: round"/>
   </g>
   <g id="line2d_15"/>
   <g id="PathCollection_1">
    <defs>
     <path id="mbd1e19424e" d="M 0 1.581139 
C 0.419323 1.581139 0.821528 1.41454 1.118034 1.118034 
C 1.41454 0.821528 1.581139 0.419323 1.581139 0 
C 1.581139 -0.419323 1.41454 -0.821528 1.118034 -1.118034 
C 0.821528 -1.41454 0.419323 -1.581139 0 -1.581139 
C -0.419323 -1.581139 -0.821528 -1.41454 -1.118034 -1.118034 
C -1.41454 -0.821528 -1.581139 -0.419323 -1.581139 0 
C -1.581139 0.419323 -1.41454 0.821528 -1.118034 1.118034 
C -0.821528 1.41454 -0.419323 1.581139 0 1.581139 
z
" style="stroke: #000000; stroke-opacity: 0.9; stroke-width: 0.8"/>
    </defs>
    <g clip-path="url(#p83b48eacc2)">
     <use xlink:href="#mbd1e19424e" x="122.853856" y="257.39679" style="fill-opacity: 0.9; stroke: #000000; stroke-opacity: 0.9; stroke-width: 0.8"/>
     <use xlink:href="#mbd1e19424e" x="133.090462" y="299.851733" style="fill-opacity: 0.9; stroke: #000000; stroke-opacity: 0.9; stroke-width: 0.8"/>
     <use xlink:href="#mbd1e19424e" x="120.222531" y="318.896941" style="fill-opacity: 0.9; stroke: #000000; stroke-opacity: 0.9; stroke-width: 0.8"/>
     <use xlink:href="#mbd1e19424e" x="130.7099" y="252.238713" style="fill-opacity: 0.9; stroke: #000000; stroke-opacity: 0.9; stroke-width: 0.8"/>
     <use xlink:href="#mbd1e19424e" x="122.477219" y="238.351582" style="fill-opacity: 0.9; stroke: #000000; stroke-opacity: 0.9; stroke-width: 0.8"/>
     <use xlink:href="#mbd1e19424e" x="128.77014" y="252.635488" style="fill-opacity: 0.9; stroke: #000000; stroke-opacity: 0.9; stroke-width: 0.8"/>
     <use xlink:href="#mbd1e19424e" x="122.875766" y="47.502727" style="fill-opacity: 0.9; stroke: #000000; stroke-opacity: 0.9; stroke-width: 0.8"/>
     <use xlink:href="#mbd1e19424e" x="129.081572" y="295.090431" style="fill-opacity: 0.9; stroke: #000000; stroke-opacity: 0.9; stroke-width: 0.8"/>
     <use xlink:href="#mbd1e19424e" x="128.351813" y="252.238713" style="fill-opacity: 0.9; stroke: #000000; stroke-opacity: 0.9; stroke-width: 0.8"/>
     <use xlink:href="#mbd1e19424e" x="125.639189" y="268.724797" style="fill-opacity: 0.9; stroke: #000000; stroke-opacity: 0.9; stroke-width: 0.8"/>
     <use xlink:href="#mbd1e19424e" x="130.2714" y="270.093596" style="fill-opacity: 0.9; stroke: #000000; stroke-opacity: 0.9; stroke-width: 0.8"/>
     <use xlink:href="#mbd1e19424e" x="120.558097" y="208.99022" style="fill-opacity: 0.9; stroke: #000000; stroke-opacity: 0.9; stroke-width: 0.8"/>
     <use xlink:href="#mbd1e19424e" x="130.10846" y="323.261468" style="fill-opacity: 0.9; stroke: #000000; stroke-opacity: 0.9; stroke-width: 0.8"/>
     <use xlink:href="#mbd1e19424e" x="120.010664" y="205.022468" style="fill-opacity: 0.9; stroke: #000000; stroke-opacity: 0.9; stroke-width: 0.8"/>
     <use xlink:href="#mbd1e19424e" x="131.395711" y="247.874186" style="fill-opacity: 0.9; stroke: #000000; stroke-opacity: 0.9; stroke-width: 0.8"/>
     <use xlink:href="#mbd1e19424e" x="121.692735" y="176.454656" style="fill-opacity: 0.9; stroke: #000000; stroke-opacity: 0.9; stroke-width: 0.8"/>
     <use xlink:href="#mbd1e19424e" x="124.304101" y="239.938683" style="fill-opacity: 0.9; stroke: #000000; stroke-opacity: 0.9; stroke-width: 0.8"/>
     <use xlink:href="#mbd1e19424e" x="124.343196" y="331.196971" style="fill-opacity: 0.9; stroke: #000000; stroke-opacity: 0.9; stroke-width: 0.8"/>
     <use xlink:href="#mbd1e19424e" x="118.638753" y="287.551703" style="fill-opacity: 0.9; stroke: #000000; stroke-opacity: 0.9; stroke-width: 0.8"/>
     <use xlink:href="#mbd1e19424e" x="129.098174" y="331.196971" style="fill-opacity: 0.9; stroke: #000000; stroke-opacity: 0.9; stroke-width: 0.8"/>
     <use xlink:href="#mbd1e19424e" x="130.168827" y="335.164723" style="fill-opacity: 0.9; stroke: #000000; stroke-opacity: 0.9; stroke-width: 0.8"/>
     <use xlink:href="#mbd1e19424e" x="132.389137" y="235.970931" style="fill-opacity: 0.9; stroke: #000000; stroke-opacity: 0.9; stroke-width: 0.8"/>
     <use xlink:href="#mbd1e19424e" x="119.70664" y="374.842239" style="fill-opacity: 0.9; stroke: #000000; stroke-opacity: 0.9; stroke-width: 0.8"/>
     <use xlink:href="#mbd1e19424e" x="125.626222" y="347.067978" style="fill-opacity: 0.9; stroke: #000000; stroke-opacity: 0.9; stroke-width: 0.8"/>
     <use xlink:href="#mbd1e19424e" x="129.12182" y="208.19667" style="fill-opacity: 0.9; stroke: #000000; stroke-opacity: 0.9; stroke-width: 0.8"/>
     <use xlink:href="#mbd1e19424e" x="120.863091" y="243.906435" style="fill-opacity: 0.9; stroke: #000000; stroke-opacity: 0.9; stroke-width: 0.8"/>
     <use xlink:href="#mbd1e19424e" x="125.141635" y="319.293716" style="fill-opacity: 0.9; stroke: #000000; stroke-opacity: 0.9; stroke-width: 0.8"/>
     <use xlink:href="#mbd1e19424e" x="128.743648" y="307.390461" style="fill-opacity: 0.9; stroke: #000000; stroke-opacity: 0.9; stroke-width: 0.8"/>
     <use xlink:href="#mbd1e19424e" x="123.068584" y="307.390461" style="fill-opacity: 0.9; stroke: #000000; stroke-opacity: 0.9; stroke-width: 0.8"/>
     <use xlink:href="#mbd1e19424e" x="123.904843" y="331.196971" style="fill-opacity: 0.9; stroke: #000000; stroke-opacity: 0.9; stroke-width: 0.8"/>
     <use xlink:href="#mbd1e19424e" x="131.940521" y="358.971233" style="fill-opacity: 0.9; stroke: #000000; stroke-opacity: 0.9; stroke-width: 0.8"/>
     <use xlink:href="#mbd1e19424e" x="123.334073" y="235.970931" style="fill-opacity: 0.9; stroke: #000000; stroke-opacity: 0.9; stroke-width: 0.8"/>
     <use xlink:href="#mbd1e19424e" x="125.991872" y="279.6162" style="fill-opacity: 0.9; stroke: #000000; stroke-opacity: 0.9; stroke-width: 0.8"/>
     <use xlink:href="#mbd1e19424e" x="119.841352" y="422.455259" style="fill-opacity: 0.9; stroke: #000000; stroke-opacity: 0.9; stroke-width: 0.8"/>
     <use xlink:href="#mbd1e19424e" x="118.894024" y="235.970931" style="fill-opacity: 0.9; stroke: #000000; stroke-opacity: 0.9; stroke-width: 0.8"/>
     <use xlink:href="#mbd1e19424e" x="120.536542" y="228.035428" style="fill-opacity: 0.9; stroke: #000000; stroke-opacity: 0.9; stroke-width: 0.8"/>
     <use xlink:href="#mbd1e19424e" x="125.954975" y="267.712945" style="fill-opacity: 0.9; stroke: #000000; stroke-opacity: 0.9; stroke-width: 0.8"/>
     <use xlink:href="#mbd1e19424e" x="124.955732" y="255.80969" style="fill-opacity: 0.9; stroke: #000000; stroke-opacity: 0.9; stroke-width: 0.8"/>
     <use xlink:href="#mbd1e19424e" x="119.561629" y="251.841938" style="fill-opacity: 0.9; stroke: #000000; stroke-opacity: 0.9; stroke-width: 0.8"/>
     <use xlink:href="#mbd1e19424e" x="127.807763" y="279.6162" style="fill-opacity: 0.9; stroke: #000000; stroke-opacity: 0.9; stroke-width: 0.8"/>
     <use xlink:href="#mbd1e19424e" x="129.091607" y="327.22922" style="fill-opacity: 0.9; stroke: #000000; stroke-opacity: 0.9; stroke-width: 0.8"/>
     <use xlink:href="#mbd1e19424e" x="130.226368" y="327.22922" style="fill-opacity: 0.9; stroke: #000000; stroke-opacity: 0.9; stroke-width: 0.8"/>
     <use xlink:href="#mbd1e19424e" x="132.255188" y="283.583951" style="fill-opacity: 0.9; stroke: #000000; stroke-opacity: 0.9; stroke-width: 0.8"/>
     <use xlink:href="#mbd1e19424e" x="129.457938" y="224.067676" style="fill-opacity: 0.9; stroke: #000000; stroke-opacity: 0.9; stroke-width: 0.8"/>
     <use xlink:href="#mbd1e19424e" x="126.618914" y="255.80969" style="fill-opacity: 0.9; stroke: #000000; stroke-opacity: 0.9; stroke-width: 0.8"/>
     <use xlink:href="#mbd1e19424e" x="125.176985" y="374.842239" style="fill-opacity: 0.9; stroke: #000000; stroke-opacity: 0.9; stroke-width: 0.8"/>
     <use xlink:href="#mbd1e19424e" x="129.117718" y="319.293716" style="fill-opacity: 0.9; stroke: #000000; stroke-opacity: 0.9; stroke-width: 0.8"/>
     <use xlink:href="#mbd1e19424e" x="131.522079" y="247.874186" style="fill-opacity: 0.9; stroke: #000000; stroke-opacity: 0.9; stroke-width: 0.8"/>
     <use xlink:href="#mbd1e19424e" x="129.806722" y="394.680998" style="fill-opacity: 0.9; stroke: #000000; stroke-opacity: 0.9; stroke-width: 0.8"/>
     <use xlink:href="#mbd1e19424e" x="129.211298" y="319.293716" style="fill-opacity: 0.9; stroke: #000000; stroke-opacity: 0.9; stroke-width: 0.8"/>
     <use xlink:href="#mbd1e19424e" x="126.898373" y="224.067676" style="fill-opacity: 0.9; stroke: #000000; stroke-opacity: 0.9; stroke-width: 0.8"/>
     <use xlink:href="#mbd1e19424e" x="132.349462" y="386.745494" style="fill-opacity: 0.9; stroke: #000000; stroke-opacity: 0.9; stroke-width: 0.8"/>
     <use xlink:href="#mbd1e19424e" x="120.431902" y="366.906736" style="fill-opacity: 0.9; stroke: #000000; stroke-opacity: 0.9; stroke-width: 0.8"/>
    </g>
   </g>
   <g id="PathCollection_2">
    <g clip-path="url(#p83b48eacc2)">
     <use xlink:href="#mbd1e19424e" x="271.77809" y="366.906736" style="fill-opacity: 0.9; stroke: #000000; stroke-opacity: 0.9; stroke-width: 0.8"/>
     <use xlink:href="#mbd1e19424e" x="267.998679" y="380.793867" style="fill-opacity: 0.9; stroke: #000000; stroke-opacity: 0.9; stroke-width: 0.8"/>
     <use xlink:href="#mbd1e19424e" x="266.350752" y="370.477713" style="fill-opacity: 0.9; stroke: #000000; stroke-opacity: 0.9; stroke-width: 0.8"/>
     <use xlink:href="#mbd1e19424e" x="274.009334" y="333.180847" style="fill-opacity: 0.9; stroke: #000000; stroke-opacity: 0.9; stroke-width: 0.8"/>
     <use xlink:href="#mbd1e19424e" x="277.436245" y="378.313133" style="fill-opacity: 0.9; stroke: #000000; stroke-opacity: 0.9; stroke-width: 0.8"/>
     <use xlink:href="#mbd1e19424e" x="271.838087" y="381.190642" style="fill-opacity: 0.9; stroke: #000000; stroke-opacity: 0.9; stroke-width: 0.8"/>
     <use xlink:href="#mbd1e19424e" x="270.466821" y="281.2033" style="fill-opacity: 0.9; stroke: #000000; stroke-opacity: 0.9; stroke-width: 0.8"/>
     <use xlink:href="#mbd1e19424e" x="274.470496" y="400.23585" style="fill-opacity: 0.9; stroke: #000000; stroke-opacity: 0.9; stroke-width: 0.8"/>
     <use xlink:href="#mbd1e19424e" x="272.398765" y="390.713246" style="fill-opacity: 0.9; stroke: #000000; stroke-opacity: 0.9; stroke-width: 0.8"/>
     <use xlink:href="#mbd1e19424e" x="278.880008" y="333.577622" style="fill-opacity: 0.9; stroke: #000000; stroke-opacity: 0.9; stroke-width: 0.8"/>
     <use xlink:href="#mbd1e19424e" x="266.082971" y="352.62283" style="fill-opacity: 0.9; stroke: #000000; stroke-opacity: 0.9; stroke-width: 0.8"/>
     <use xlink:href="#mbd1e19424e" x="269.140911" y="285.964602" style="fill-opacity: 0.9; stroke: #000000; stroke-opacity: 0.9; stroke-width: 0.8"/>
     <use xlink:href="#mbd1e19424e" x="271.056802" y="394.680998" style="fill-opacity: 0.9; stroke: #000000; stroke-opacity: 0.9; stroke-width: 0.8"/>
     <use xlink:href="#mbd1e19424e" x="276.210831" y="404.997152" style="fill-opacity: 0.9; stroke: #000000; stroke-opacity: 0.9; stroke-width: 0.8"/>
     <use xlink:href="#mbd1e19424e" x="274.245393" y="362.938984" style="fill-opacity: 0.9; stroke: #000000; stroke-opacity: 0.9; stroke-width: 0.8"/>
     <use xlink:href="#mbd1e19424e" x="268.319898" y="378.809991" style="fill-opacity: 0.9; stroke: #000000; stroke-opacity: 0.9; stroke-width: 0.8"/>
     <use xlink:href="#mbd1e19424e" x="274.183564" y="327.22922" style="fill-opacity: 0.9; stroke: #000000; stroke-opacity: 0.9; stroke-width: 0.8"/>
     <use xlink:href="#mbd1e19424e" x="274.240516" y="362.938984" style="fill-opacity: 0.9; stroke: #000000; stroke-opacity: 0.9; stroke-width: 0.8"/>
     <use xlink:href="#mbd1e19424e" x="272.523074" y="319.293716" style="fill-opacity: 0.9; stroke: #000000; stroke-opacity: 0.9; stroke-width: 0.8"/>
     <use xlink:href="#mbd1e19424e" x="265.829527" y="398.648749" style="fill-opacity: 0.9; stroke: #000000; stroke-opacity: 0.9; stroke-width: 0.8"/>
     <use xlink:href="#mbd1e19424e" x="275.473352" y="358.971233" style="fill-opacity: 0.9; stroke: #000000; stroke-opacity: 0.9; stroke-width: 0.8"/>
     <use xlink:href="#mbd1e19424e" x="276.159417" y="370.874488" style="fill-opacity: 0.9; stroke: #000000; stroke-opacity: 0.9; stroke-width: 0.8"/>
     <use xlink:href="#mbd1e19424e" x="277.625891" y="430.390763" style="fill-opacity: 0.9; stroke: #000000; stroke-opacity: 0.9; stroke-width: 0.8"/>
     <use xlink:href="#mbd1e19424e" x="267.76306" y="358.971233" style="fill-opacity: 0.9; stroke: #000000; stroke-opacity: 0.9; stroke-width: 0.8"/>
     <use xlink:href="#mbd1e19424e" x="279.955881" y="331.196971" style="fill-opacity: 0.9; stroke: #000000; stroke-opacity: 0.9; stroke-width: 0.8"/>
     <use xlink:href="#mbd1e19424e" x="278.950966" y="351.035729" style="fill-opacity: 0.9; stroke: #000000; stroke-opacity: 0.9; stroke-width: 0.8"/>
     <use xlink:href="#mbd1e19424e" x="271.251738" y="355.003481" style="fill-opacity: 0.9; stroke: #000000; stroke-opacity: 0.9; stroke-width: 0.8"/>
     <use xlink:href="#mbd1e19424e" x="274.578975" y="394.680998" style="fill-opacity: 0.9; stroke: #000000; stroke-opacity: 0.9; stroke-width: 0.8"/>
     <use xlink:href="#mbd1e19424e" x="274.734721" y="327.22922" style="fill-opacity: 0.9; stroke: #000000; stroke-opacity: 0.9; stroke-width: 0.8"/>
     <use xlink:href="#mbd1e19424e" x="272.361018" y="418.487508" style="fill-opacity: 0.9; stroke: #000000; stroke-opacity: 0.9; stroke-width: 0.8"/>
     <use xlink:href="#mbd1e19424e" x="270.325745" y="434.358514" style="fill-opacity: 0.9; stroke: #000000; stroke-opacity: 0.9; stroke-width: 0.8"/>
     <use xlink:href="#mbd1e19424e" x="268.393881" y="422.455259" style="fill-opacity: 0.9; stroke: #000000; stroke-opacity: 0.9; stroke-width: 0.8"/>
     <use xlink:href="#mbd1e19424e" x="273.971793" y="394.680998" style="fill-opacity: 0.9; stroke: #000000; stroke-opacity: 0.9; stroke-width: 0.8"/>
     <use xlink:href="#mbd1e19424e" x="271.345415" y="442.294018" style="fill-opacity: 0.9; stroke: #000000; stroke-opacity: 0.9; stroke-width: 0.8"/>
     <use xlink:href="#mbd1e19424e" x="267.162771" y="343.100226" style="fill-opacity: 0.9; stroke: #000000; stroke-opacity: 0.9; stroke-width: 0.8"/>
     <use xlink:href="#mbd1e19424e" x="269.452015" y="410.552004" style="fill-opacity: 0.9; stroke: #000000; stroke-opacity: 0.9; stroke-width: 0.8"/>
     <use xlink:href="#mbd1e19424e" x="274.970281" y="311.358213" style="fill-opacity: 0.9; stroke: #000000; stroke-opacity: 0.9; stroke-width: 0.8"/>
     <use xlink:href="#mbd1e19424e" x="268.675956" y="351.035729" style="fill-opacity: 0.9; stroke: #000000; stroke-opacity: 0.9; stroke-width: 0.8"/>
     <use xlink:href="#mbd1e19424e" x="265.758604" y="390.713246" style="fill-opacity: 0.9; stroke: #000000; stroke-opacity: 0.9; stroke-width: 0.8"/>
     <use xlink:href="#mbd1e19424e" x="276.984049" y="366.906736" style="fill-opacity: 0.9; stroke: #000000; stroke-opacity: 0.9; stroke-width: 0.8"/>
     <use xlink:href="#mbd1e19424e" x="273.7888" y="422.455259" style="fill-opacity: 0.9; stroke: #000000; stroke-opacity: 0.9; stroke-width: 0.8"/>
     <use xlink:href="#mbd1e19424e" x="268.794195" y="339.132475" style="fill-opacity: 0.9; stroke: #000000; stroke-opacity: 0.9; stroke-width: 0.8"/>
     <use xlink:href="#mbd1e19424e" x="270.786835" y="406.584253" style="fill-opacity: 0.9; stroke: #000000; stroke-opacity: 0.9; stroke-width: 0.8"/>
     <use xlink:href="#mbd1e19424e" x="272.762784" y="323.261468" style="fill-opacity: 0.9; stroke: #000000; stroke-opacity: 0.9; stroke-width: 0.8"/>
     <use xlink:href="#mbd1e19424e" x="267.513358" y="291.519455" style="fill-opacity: 0.9; stroke: #000000; stroke-opacity: 0.9; stroke-width: 0.8"/>
     <use xlink:href="#mbd1e19424e" x="275.970246" y="406.584253" style="fill-opacity: 0.9; stroke: #000000; stroke-opacity: 0.9; stroke-width: 0.8"/>
     <use xlink:href="#mbd1e19424e" x="271.81478" y="386.745494" style="fill-opacity: 0.9; stroke: #000000; stroke-opacity: 0.9; stroke-width: 0.8"/>
     <use xlink:href="#mbd1e19424e" x="271.694421" y="339.132475" style="fill-opacity: 0.9; stroke: #000000; stroke-opacity: 0.9; stroke-width: 0.8"/>
     <use xlink:href="#mbd1e19424e" x="273.857369" y="414.519756" style="fill-opacity: 0.9; stroke: #000000; stroke-opacity: 0.9; stroke-width: 0.8"/>
     <use xlink:href="#mbd1e19424e" x="270.301895" y="430.390763" style="fill-opacity: 0.9; stroke: #000000; stroke-opacity: 0.9; stroke-width: 0.8"/>
     <use xlink:href="#mbd1e19424e" x="268.568277" y="259.777441" style="fill-opacity: 0.9; stroke: #000000; stroke-opacity: 0.9; stroke-width: 0.8"/>
     <use xlink:href="#mbd1e19424e" x="272.664193" y="402.616501" style="fill-opacity: 0.9; stroke: #000000; stroke-opacity: 0.9; stroke-width: 0.8"/>
     <use xlink:href="#mbd1e19424e" x="280.13099" y="378.809991" style="fill-opacity: 0.9; stroke: #000000; stroke-opacity: 0.9; stroke-width: 0.8"/>
    </g>
   </g>
   <g id="PathCollection_3">
    <g clip-path="url(#p83b48eacc2)">
     <use xlink:href="#mbd1e19424e" x="417.371853" y="347.067978" style="fill-opacity: 0.9; stroke: #000000; stroke-opacity: 0.9; stroke-width: 0.8"/>
     <use xlink:href="#mbd1e19424e" x="414.190269" y="327.22922" style="fill-opacity: 0.9; stroke: #000000; stroke-opacity: 0.9; stroke-width: 0.8"/>
     <use xlink:href="#mbd1e19424e" x="427.285958" y="387.93582" style="fill-opacity: 0.9; stroke: #000000; stroke-opacity: 0.9; stroke-width: 0.8"/>
     <use xlink:href="#mbd1e19424e" x="425.616971" y="380.793867" style="fill-opacity: 0.9; stroke: #000000; stroke-opacity: 0.9; stroke-width: 0.8"/>
     <use xlink:href="#mbd1e19424e" x="419.84358" y="267.712945" style="fill-opacity: 0.9; stroke: #000000; stroke-opacity: 0.9; stroke-width: 0.8"/>
     <use xlink:href="#mbd1e19424e" x="426.605199" y="422.455259" style="fill-opacity: 0.9; stroke: #000000; stroke-opacity: 0.9; stroke-width: 0.8"/>
     <use xlink:href="#mbd1e19424e" x="425.935559" y="271.680696" style="fill-opacity: 0.9; stroke: #000000; stroke-opacity: 0.9; stroke-width: 0.8"/>
     <use xlink:href="#mbd1e19424e" x="427.30082" y="295.487206" style="fill-opacity: 0.9; stroke: #000000; stroke-opacity: 0.9; stroke-width: 0.8"/>
     <use xlink:href="#mbd1e19424e" x="419.421524" y="430.390763" style="fill-opacity: 0.9; stroke: #000000; stroke-opacity: 0.9; stroke-width: 0.8"/>
     <use xlink:href="#mbd1e19424e" x="427.429583" y="235.970931" style="fill-opacity: 0.9; stroke: #000000; stroke-opacity: 0.9; stroke-width: 0.8"/>
     <use xlink:href="#mbd1e19424e" x="423.333578" y="394.680998" style="fill-opacity: 0.9; stroke: #000000; stroke-opacity: 0.9; stroke-width: 0.8"/>
     <use xlink:href="#mbd1e19424e" x="418.197821" y="347.067978" style="fill-opacity: 0.9; stroke: #000000; stroke-opacity: 0.9; stroke-width: 0.8"/>
     <use xlink:href="#mbd1e19424e" x="425.882815" y="299.454958" style="fill-opacity: 0.9; stroke: #000000; stroke-opacity: 0.9; stroke-width: 0.8"/>
     <use xlink:href="#mbd1e19424e" x="413.128187" y="347.067978" style="fill-opacity: 0.9; stroke: #000000; stroke-opacity: 0.9; stroke-width: 0.8"/>
     <use xlink:href="#mbd1e19424e" x="423.023903" y="271.680696" style="fill-opacity: 0.9; stroke: #000000; stroke-opacity: 0.9; stroke-width: 0.8"/>
     <use xlink:href="#mbd1e19424e" x="426.928577" y="406.584253" style="fill-opacity: 0.9; stroke: #000000; stroke-opacity: 0.9; stroke-width: 0.8"/>
     <use xlink:href="#mbd1e19424e" x="425.108532" y="251.841938" style="fill-opacity: 0.9; stroke: #000000; stroke-opacity: 0.9; stroke-width: 0.8"/>
     <use xlink:href="#mbd1e19424e" x="423.477212" y="410.552004" style="fill-opacity: 0.9; stroke: #000000; stroke-opacity: 0.9; stroke-width: 0.8"/>
     <use xlink:href="#mbd1e19424e" x="422.807186" y="434.358514" style="fill-opacity: 0.9; stroke: #000000; stroke-opacity: 0.9; stroke-width: 0.8"/>
     <use xlink:href="#mbd1e19424e" x="416.648431" y="339.132475" style="fill-opacity: 0.9; stroke: #000000; stroke-opacity: 0.9; stroke-width: 0.8"/>
     <use xlink:href="#mbd1e19424e" x="418.078766" y="430.390763" style="fill-opacity: 0.9; stroke: #000000; stroke-opacity: 0.9; stroke-width: 0.8"/>
     <use xlink:href="#mbd1e19424e" x="427.024942" y="327.22922" style="fill-opacity: 0.9; stroke: #000000; stroke-opacity: 0.9; stroke-width: 0.8"/>
     <use xlink:href="#mbd1e19424e" x="414.083713" y="335.164723" style="fill-opacity: 0.9; stroke: #000000; stroke-opacity: 0.9; stroke-width: 0.8"/>
     <use xlink:href="#mbd1e19424e" x="421.871394" y="319.293716" style="fill-opacity: 0.9; stroke: #000000; stroke-opacity: 0.9; stroke-width: 0.8"/>
     <use xlink:href="#mbd1e19424e" x="421.911964" y="224.067676" style="fill-opacity: 0.9; stroke: #000000; stroke-opacity: 0.9; stroke-width: 0.8"/>
     <use xlink:href="#mbd1e19424e" x="423.197448" y="386.745494" style="fill-opacity: 0.9; stroke: #000000; stroke-opacity: 0.9; stroke-width: 0.8"/>
     <use xlink:href="#mbd1e19424e" x="419.525384" y="287.551703" style="fill-opacity: 0.9; stroke: #000000; stroke-opacity: 0.9; stroke-width: 0.8"/>
     <use xlink:href="#mbd1e19424e" x="422.711008" y="454.197273" style="fill-opacity: 0.9; stroke: #000000; stroke-opacity: 0.9; stroke-width: 0.8"/>
     <use xlink:href="#mbd1e19424e" x="414.791693" y="315.325965" style="fill-opacity: 0.9; stroke: #000000; stroke-opacity: 0.9; stroke-width: 0.8"/>
     <use xlink:href="#mbd1e19424e" x="420.121392" y="351.035729" style="fill-opacity: 0.9; stroke: #000000; stroke-opacity: 0.9; stroke-width: 0.8"/>
     <use xlink:href="#mbd1e19424e" x="425.275071" y="259.777441" style="fill-opacity: 0.9; stroke: #000000; stroke-opacity: 0.9; stroke-width: 0.8"/>
     <use xlink:href="#mbd1e19424e" x="422.653178" y="343.100226" style="fill-opacity: 0.9; stroke: #000000; stroke-opacity: 0.9; stroke-width: 0.8"/>
     <use xlink:href="#mbd1e19424e" x="420.051333" y="362.938984" style="fill-opacity: 0.9; stroke: #000000; stroke-opacity: 0.9; stroke-width: 0.8"/>
     <use xlink:href="#mbd1e19424e" x="415.360755" y="307.390461" style="fill-opacity: 0.9; stroke: #000000; stroke-opacity: 0.9; stroke-width: 0.8"/>
     <use xlink:href="#mbd1e19424e" x="414.677238" y="335.164723" style="fill-opacity: 0.9; stroke: #000000; stroke-opacity: 0.9; stroke-width: 0.8"/>
     <use xlink:href="#mbd1e19424e" x="426.79043" y="343.100226" style="fill-opacity: 0.9; stroke: #000000; stroke-opacity: 0.9; stroke-width: 0.8"/>
     <use xlink:href="#mbd1e19424e" x="420.391803" y="374.842239" style="fill-opacity: 0.9; stroke: #000000; stroke-opacity: 0.9; stroke-width: 0.8"/>
     <use xlink:href="#mbd1e19424e" x="425.553347" y="291.519455" style="fill-opacity: 0.9; stroke: #000000; stroke-opacity: 0.9; stroke-width: 0.8"/>
     <use xlink:href="#mbd1e19424e" x="421.015418" y="426.423011" style="fill-opacity: 0.9; stroke: #000000; stroke-opacity: 0.9; stroke-width: 0.8"/>
     <use xlink:href="#mbd1e19424e" x="422.253469" y="370.874488" style="fill-opacity: 0.9; stroke: #000000; stroke-opacity: 0.9; stroke-width: 0.8"/>
     <use xlink:href="#mbd1e19424e" x="425.415097" y="422.455259" style="fill-opacity: 0.9; stroke: #000000; stroke-opacity: 0.9; stroke-width: 0.8"/>
     <use xlink:href="#mbd1e19424e" x="424.428988" y="358.971233" style="fill-opacity: 0.9; stroke: #000000; stroke-opacity: 0.9; stroke-width: 0.8"/>
     <use xlink:href="#mbd1e19424e" x="419.049835" y="450.229521" style="fill-opacity: 0.9; stroke: #000000; stroke-opacity: 0.9; stroke-width: 0.8"/>
     <use xlink:href="#mbd1e19424e" x="413.167304" y="382.777743" style="fill-opacity: 0.9; stroke: #000000; stroke-opacity: 0.9; stroke-width: 0.8"/>
     <use xlink:href="#mbd1e19424e" x="419.346575" y="283.583951" style="fill-opacity: 0.9; stroke: #000000; stroke-opacity: 0.9; stroke-width: 0.8"/>
     <use xlink:href="#mbd1e19424e" x="424.681109" y="402.616501" style="fill-opacity: 0.9; stroke: #000000; stroke-opacity: 0.9; stroke-width: 0.8"/>
     <use xlink:href="#mbd1e19424e" x="417.833573" y="386.745494" style="fill-opacity: 0.9; stroke: #000000; stroke-opacity: 0.9; stroke-width: 0.8"/>
    </g>
   </g>
   <g id="line2d_16">
    <path d="M 114.95765 279.6162 
L 137.01635 279.6162 
" clip-path="url(#p83b48eacc2)" style="fill: none; stroke: #000000"/>
   </g>
   <g id="line2d_17">
    <path d="M 262.01565 370.874488 
L 284.07435 370.874488 
" clip-path="url(#p83b48eacc2)" style="fill: none; stroke: #000000"/>
   </g>
   <g id="line2d_18">
    <path d="M 409.07365 347.067978 
L 431.13235 347.067978 
" clip-path="url(#p83b48eacc2)" style="fill: none; stroke: #000000"/>
   </g>
   <g id="patch_6">
    <path d="M 52.458 474.532 
L 52.458 27.168 
" style="fill: none; stroke: #262626; stroke-linejoin: miter; stroke-linecap: square"/>
   </g>
   <g id="patch_7">
    <path d="M 52.458 474.532 
L 493.632 474.532 
" style="fill: none; stroke: #262626; stroke-linejoin: miter; stroke-linecap: square"/>
   </g>
   <g id="text_11">
    <!-- MDS-UPDRS III Raincloud Plot  N=53 -->
    <g style="fill: #262626" transform="translate(145.748906 21.168) scale(0.14 -0.14)">
     <defs>
      <path id="DejaVuSans-61" d="M 2194 1759 
Q 1497 1759 1228 1600 
Q 959 1441 959 1056 
Q 959 750 1161 570 
Q 1363 391 1709 391 
Q 2188 391 2477 730 
Q 2766 1069 2766 1631 
L 2766 1759 
L 2194 1759 
z
M 3341 1997 
L 3341 0 
L 2766 0 
L 2766 531 
Q 2569 213 2275 61 
Q 1981 -91 1556 -91 
Q 1019 -91 701 211 
Q 384 513 384 1019 
Q 384 1609 779 1909 
Q 1175 2209 1959 2209 
L 2766 2209 
L 2766 2266 
Q 2766 2663 2505 2880 
Q 2244 3097 1772 3097 
Q 1472 3097 1187 3025 
Q 903 2953 641 2809 
L 641 3341 
Q 956 3463 1253 3523 
Q 1550 3584 1831 3584 
Q 2591 3584 2966 3190 
Q 3341 2797 3341 1997 
z
" transform="scale(0.015625)"/>
      <path id="DejaVuSans-63" d="M 3122 3366 
L 3122 2828 
Q 2878 2963 2633 3030 
Q 2388 3097 2138 3097 
Q 1578 3097 1268 2742 
Q 959 2388 959 1747 
Q 959 1106 1268 751 
Q 1578 397 2138 397 
Q 2388 397 2633 464 
Q 2878 531 3122 666 
L 3122 134 
Q 2881 22 2623 -34 
Q 2366 -91 2075 -91 
Q 1284 -91 818 406 
Q 353 903 353 1747 
Q 353 2603 823 3093 
Q 1294 3584 2113 3584 
Q 2378 3584 2631 3529 
Q 2884 3475 3122 3366 
z
" transform="scale(0.015625)"/>
      <path id="DejaVuSans-6c" d="M 603 4863 
L 1178 4863 
L 1178 0 
L 603 0 
L 603 4863 
z
" transform="scale(0.015625)"/>
      <path id="DejaVuSans-75" d="M 544 1381 
L 544 3500 
L 1119 3500 
L 1119 1403 
Q 1119 906 1312 657 
Q 1506 409 1894 409 
Q 2359 409 2629 706 
Q 2900 1003 2900 1516 
L 2900 3500 
L 3475 3500 
L 3475 0 
L 2900 0 
L 2900 538 
Q 2691 219 2414 64 
Q 2138 -91 1772 -91 
Q 1169 -91 856 284 
Q 544 659 544 1381 
z
M 1991 3584 
L 1991 3584 
z
" transform="scale(0.015625)"/>
      <path id="DejaVuSans-64" d="M 2906 2969 
L 2906 4863 
L 3481 4863 
L 3481 0 
L 2906 0 
L 2906 525 
Q 2725 213 2448 61 
Q 2172 -91 1784 -91 
Q 1150 -91 751 415 
Q 353 922 353 1747 
Q 353 2572 751 3078 
Q 1150 3584 1784 3584 
Q 2172 3584 2448 3432 
Q 2725 3281 2906 2969 
z
M 947 1747 
Q 947 1113 1208 752 
Q 1469 391 1925 391 
Q 2381 391 2643 752 
Q 2906 1113 2906 1747 
Q 2906 2381 2643 2742 
Q 2381 3103 1925 3103 
Q 1469 3103 1208 2742 
Q 947 2381 947 1747 
z
" transform="scale(0.015625)"/>
      <path id="DejaVuSans-3d" d="M 678 2906 
L 4684 2906 
L 4684 2381 
L 678 2381 
L 678 2906 
z
M 678 1631 
L 4684 1631 
L 4684 1100 
L 678 1100 
L 678 1631 
z
" transform="scale(0.015625)"/>
      <path id="DejaVuSans-35" d="M 691 4666 
L 3169 4666 
L 3169 4134 
L 1269 4134 
L 1269 2991 
Q 1406 3038 1543 3061 
Q 1681 3084 1819 3084 
Q 2600 3084 3056 2656 
Q 3513 2228 3513 1497 
Q 3513 744 3044 326 
Q 2575 -91 1722 -91 
Q 1428 -91 1123 -41 
Q 819 9 494 109 
L 494 744 
Q 775 591 1075 516 
Q 1375 441 1709 441 
Q 2250 441 2565 725 
Q 2881 1009 2881 1497 
Q 2881 1984 2565 2268 
Q 2250 2553 1709 2553 
Q 1456 2553 1204 2497 
Q 953 2441 691 2322 
L 691 4666 
z
" transform="scale(0.015625)"/>
      <path id="DejaVuSans-33" d="M 2597 2516 
Q 3050 2419 3304 2112 
Q 3559 1806 3559 1356 
Q 3559 666 3084 287 
Q 2609 -91 1734 -91 
Q 1441 -91 1130 -33 
Q 819 25 488 141 
L 488 750 
Q 750 597 1062 519 
Q 1375 441 1716 441 
Q 2309 441 2620 675 
Q 2931 909 2931 1356 
Q 2931 1769 2642 2001 
Q 2353 2234 1838 2234 
L 1294 2234 
L 1294 2753 
L 1863 2753 
Q 2328 2753 2575 2939 
Q 2822 3125 2822 3475 
Q 2822 3834 2567 4026 
Q 2313 4219 1838 4219 
Q 1578 4219 1281 4162 
Q 984 4106 628 3988 
L 628 4550 
Q 988 4650 1302 4700 
Q 1616 4750 1894 4750 
Q 2613 4750 3031 4423 
Q 3450 4097 3450 3541 
Q 3450 3153 3228 2886 
Q 3006 2619 2597 2516 
z
" transform="scale(0.015625)"/>
     </defs>
     <use xlink:href="#DejaVuSans-4d"/>
     <use xlink:href="#DejaVuSans-44" transform="translate(86.279297 0)"/>
     <use xlink:href="#DejaVuSans-53" transform="translate(163.28125 0)"/>
     <use xlink:href="#DejaVuSans-2d" transform="translate(226.757812 0)"/>
     <use xlink:href="#DejaVuSans-55" transform="translate(262.841797 0)"/>
     <use xlink:href="#DejaVuSans-50" transform="translate(336.035156 0)"/>
     <use xlink:href="#DejaVuSans-44" transform="translate(396.337891 0)"/>
     <use xlink:href="#DejaVuSans-52" transform="translate(473.339844 0)"/>
     <use xlink:href="#DejaVuSans-53" transform="translate(542.822266 0)"/>
     <use xlink:href="#DejaVuSans-20" transform="translate(606.298828 0)"/>
     <use xlink:href="#DejaVuSans-49" transform="translate(638.085938 0)"/>
     <use xlink:href="#DejaVuSans-49" transform="translate(667.578125 0)"/>
     <use xlink:href="#DejaVuSans-49" transform="translate(697.070312 0)"/>
     <use xlink:href="#DejaVuSans-20" transform="translate(726.5625 0)"/>
     <use xlink:href="#DejaVuSans-52" transform="translate(758.349609 0)"/>
     <use xlink:href="#DejaVuSans-61" transform="translate(825.582031 0)"/>
     <use xlink:href="#DejaVuSans-69" transform="translate(886.861328 0)"/>
     <use xlink:href="#DejaVuSans-6e" transform="translate(914.644531 0)"/>
     <use xlink:href="#DejaVuSans-63" transform="translate(978.023438 0)"/>
     <use xlink:href="#DejaVuSans-6c" transform="translate(1033.003906 0)"/>
     <use xlink:href="#DejaVuSans-6f" transform="translate(1060.787109 0)"/>
     <use xlink:href="#DejaVuSans-75" transform="translate(1121.96875 0)"/>
     <use xlink:href="#DejaVuSans-64" transform="translate(1185.347656 0)"/>
     <use xlink:href="#DejaVuSans-20" transform="translate(1248.824219 0)"/>
     <use xlink:href="#DejaVuSans-50" transform="translate(1280.611328 0)"/>
     <use xlink:href="#DejaVuSans-6c" transform="translate(1340.914062 0)"/>
     <use xlink:href="#DejaVuSans-6f" transform="translate(1368.697266 0)"/>
     <use xlink:href="#DejaVuSans-74" transform="translate(1429.878906 0)"/>
     <use xlink:href="#DejaVuSans-20" transform="translate(1469.087891 0)"/>
     <use xlink:href="#DejaVuSans-20" transform="translate(1500.875 0)"/>
     <use xlink:href="#DejaVuSans-4e" transform="translate(1532.662109 0)"/>
     <use xlink:href="#DejaVuSans-3d" transform="translate(1607.466797 0)"/>
     <use xlink:href="#DejaVuSans-35" transform="translate(1691.255859 0)"/>
     <use xlink:href="#DejaVuSans-33" transform="translate(1754.878906 0)"/>
    </g>
   </g>
  </g>
 </g>
 <defs>
  <clipPath id="p83b48eacc2">
   <rect x="52.458" y="27.168" width="441.174" height="447.364"/>
  </clipPath>
 </defs>
</svg>
