<?xml version="1.0" encoding="utf-8" standalone="no"?>
<!DOCTYPE svg PUBLIC "-//W3C//DTD SVG 1.1//EN"
  "http://www.w3.org/Graphics/SVG/1.1/DTD/svg11.dtd">
<svg xmlns:xlink="http://www.w3.org/1999/xlink" width="504pt" height="504pt" viewBox="0 0 504 504" xmlns="http://www.w3.org/2000/svg" version="1.1">
 <metadata>
  <rdf:RDF xmlns:dc="http://purl.org/dc/elements/1.1/" xmlns:cc="http://creativecommons.org/ns#" xmlns:rdf="http://www.w3.org/1999/02/22-rdf-syntax-ns#">
   <cc:Work>
    <dc:type rdf:resource="http://purl.org/dc/dcmitype/StillImage"/>
    <dc:date>2025-10-25T16:05:43.860587</dc:date>
    <dc:format>image/svg+xml</dc:format>
    <dc:creator>
     <cc:Agent>
      <dc:title>Matplotlib v3.10.0, https://matplotlib.org/</dc:title>
     </cc:Agent>
    </dc:creator>
   </cc:Work>
  </rdf:RDF>
 </metadata>
 <defs>
  <style type="text/css">*{stroke-linejoin: round; stroke-linecap: butt}</style>
 </defs>
 <g id="figure_1">
  <g id="patch_1">
   <path d="M 0 504 
L 504 504 
L 504 0 
L 0 0 
z
" style="fill: #ffffff"/>
  </g>
  <g id="axes_1">
   <g id="patch_2">
    <path d="M 46.248 387.7776 
L 493.632 387.7776 
L 493.632 27.168 
L 46.248 27.168 
z
" style="fill: #ffffff"/>
   </g>
   <g id="matplotlib.axis_1">
    <g id="xtick_1">
     <g id="text_1">
      <!-- Pre -->
      <g style="fill: #262626" transform="translate(149.352438 404.435881) scale(0.11 -0.11)">
       <defs>
        <path id="DejaVuSans-50" d="M 1259 4147 
L 1259 2394 
L 2053 2394 
Q 2494 2394 2734 2622 
Q 2975 2850 2975 3272 
Q 2975 3691 2734 3919 
Q 2494 4147 2053 4147 
L 1259 4147 
z
M 628 4666 
L 2053 4666 
Q 2838 4666 3239 4311 
Q 3641 3956 3641 3272 
Q 3641 2581 3239 2228 
Q 2838 1875 2053 1875 
L 1259 1875 
L 1259 0 
L 628 0 
L 628 4666 
z
" transform="scale(0.015625)"/>
        <path id="DejaVuSans-72" d="M 2631 2963 
Q 2534 3019 2420 3045 
Q 2306 3072 2169 3072 
Q 1681 3072 1420 2755 
Q 1159 2438 1159 1844 
L 1159 0 
L 581 0 
L 581 3500 
L 1159 3500 
L 1159 2956 
Q 1341 3275 1631 3429 
Q 1922 3584 2338 3584 
Q 2397 3584 2469 3576 
Q 2541 3569 2628 3553 
L 2631 2963 
z
" transform="scale(0.015625)"/>
        <path id="DejaVuSans-65" d="M 3597 1894 
L 3597 1613 
L 953 1613 
Q 991 1019 1311 708 
Q 1631 397 2203 397 
Q 2534 397 2845 478 
Q 3156 559 3463 722 
L 3463 178 
Q 3153 47 2828 -22 
Q 2503 -91 2169 -91 
Q 1331 -91 842 396 
Q 353 884 353 1716 
Q 353 2575 817 3079 
Q 1281 3584 2069 3584 
Q 2775 3584 3186 3129 
Q 3597 2675 3597 1894 
z
M 3022 2063 
Q 3016 2534 2758 2815 
Q 2500 3097 2075 3097 
Q 1594 3097 1305 2825 
Q 1016 2553 972 2059 
L 3022 2063 
z
" transform="scale(0.015625)"/>
       </defs>
       <use xlink:href="#DejaVuSans-50"/>
       <use xlink:href="#DejaVuSans-72" transform="translate(58.552734 0)"/>
       <use xlink:href="#DejaVuSans-65" transform="translate(97.416016 0)"/>
      </g>
     </g>
    </g>
    <g id="xtick_2">
     <g id="text_2">
      <!-- Post -->
      <g style="fill: #262626" transform="translate(370.282406 404.435881) scale(0.11 -0.11)">
       <defs>
        <path id="DejaVuSans-6f" d="M 1959 3097 
Q 1497 3097 1228 2736 
Q 959 2375 959 1747 
Q 959 1119 1226 758 
Q 1494 397 1959 397 
Q 2419 397 2687 759 
Q 2956 1122 2956 1747 
Q 2956 2369 2687 2733 
Q 2419 3097 1959 3097 
z
M 1959 3584 
Q 2709 3584 3137 3096 
Q 3566 2609 3566 1747 
Q 3566 888 3137 398 
Q 2709 -91 1959 -91 
Q 1206 -91 779 398 
Q 353 888 353 1747 
Q 353 2609 779 3096 
Q 1206 3584 1959 3584 
z
" transform="scale(0.015625)"/>
        <path id="DejaVuSans-73" d="M 2834 3397 
L 2834 2853 
Q 2591 2978 2328 3040 
Q 2066 3103 1784 3103 
Q 1356 3103 1142 2972 
Q 928 2841 928 2578 
Q 928 2378 1081 2264 
Q 1234 2150 1697 2047 
L 1894 2003 
Q 2506 1872 2764 1633 
Q 3022 1394 3022 966 
Q 3022 478 2636 193 
Q 2250 -91 1575 -91 
Q 1294 -91 989 -36 
Q 684 19 347 128 
L 347 722 
Q 666 556 975 473 
Q 1284 391 1588 391 
Q 1994 391 2212 530 
Q 2431 669 2431 922 
Q 2431 1156 2273 1281 
Q 2116 1406 1581 1522 
L 1381 1569 
Q 847 1681 609 1914 
Q 372 2147 372 2553 
Q 372 3047 722 3315 
Q 1072 3584 1716 3584 
Q 2034 3584 2315 3537 
Q 2597 3491 2834 3397 
z
" transform="scale(0.015625)"/>
        <path id="DejaVuSans-74" d="M 1172 4494 
L 1172 3500 
L 2356 3500 
L 2356 3053 
L 1172 3053 
L 1172 1153 
Q 1172 725 1289 603 
Q 1406 481 1766 481 
L 2356 481 
L 2356 0 
L 1766 0 
Q 1100 0 847 248 
Q 594 497 594 1153 
L 594 3053 
L 172 3053 
L 172 3500 
L 594 3500 
L 594 4494 
L 1172 4494 
z
" transform="scale(0.015625)"/>
       </defs>
       <use xlink:href="#DejaVuSans-50"/>
       <use xlink:href="#DejaVuSans-6f" transform="translate(56.677734 0)"/>
       <use xlink:href="#DejaVuSans-73" transform="translate(117.859375 0)"/>
       <use xlink:href="#DejaVuSans-74" transform="translate(169.958984 0)"/>
      </g>
     </g>
    </g>
   </g>
   <g id="matplotlib.axis_2">
    <g id="ytick_1">
     <g id="text_3">
      <!-- 18 -->
      <g style="fill: #262626" transform="translate(25.223 350.670478) scale(0.1 -0.1)">
       <defs>
        <path id="DejaVuSans-31" d="M 794 531 
L 1825 531 
L 1825 4091 
L 703 3866 
L 703 4441 
L 1819 4666 
L 2450 4666 
L 2450 531 
L 3481 531 
L 3481 0 
L 794 0 
L 794 531 
z
" transform="scale(0.015625)"/>
        <path id="DejaVuSans-38" d="M 2034 2216 
Q 1584 2216 1326 1975 
Q 1069 1734 1069 1313 
Q 1069 891 1326 650 
Q 1584 409 2034 409 
Q 2484 409 2743 651 
Q 3003 894 3003 1313 
Q 3003 1734 2745 1975 
Q 2488 2216 2034 2216 
z
M 1403 2484 
Q 997 2584 770 2862 
Q 544 3141 544 3541 
Q 544 4100 942 4425 
Q 1341 4750 2034 4750 
Q 2731 4750 3128 4425 
Q 3525 4100 3525 3541 
Q 3525 3141 3298 2862 
Q 3072 2584 2669 2484 
Q 3125 2378 3379 2068 
Q 3634 1759 3634 1313 
Q 3634 634 3220 271 
Q 2806 -91 2034 -91 
Q 1263 -91 848 271 
Q 434 634 434 1313 
Q 434 1759 690 2068 
Q 947 2378 1403 2484 
z
M 1172 3481 
Q 1172 3119 1398 2916 
Q 1625 2713 2034 2713 
Q 2441 2713 2670 2916 
Q 2900 3119 2900 3481 
Q 2900 3844 2670 4047 
Q 2441 4250 2034 4250 
Q 1625 4250 1398 4047 
Q 1172 3844 1172 3481 
z
" transform="scale(0.015625)"/>
       </defs>
       <use xlink:href="#DejaVuSans-31"/>
       <use xlink:href="#DejaVuSans-38" transform="translate(63.623047 0)"/>
      </g>
     </g>
    </g>
    <g id="ytick_2">
     <g id="text_4">
      <!-- 20 -->
      <g style="fill: #262626" transform="translate(25.223 301.640488) scale(0.1 -0.1)">
       <defs>
        <path id="DejaVuSans-32" d="M 1228 531 
L 3431 531 
L 3431 0 
L 469 0 
L 469 531 
Q 828 903 1448 1529 
Q 2069 2156 2228 2338 
Q 2531 2678 2651 2914 
Q 2772 3150 2772 3378 
Q 2772 3750 2511 3984 
Q 2250 4219 1831 4219 
Q 1534 4219 1204 4116 
Q 875 4013 500 3803 
L 500 4441 
Q 881 4594 1212 4672 
Q 1544 4750 1819 4750 
Q 2544 4750 2975 4387 
Q 3406 4025 3406 3419 
Q 3406 3131 3298 2873 
Q 3191 2616 2906 2266 
Q 2828 2175 2409 1742 
Q 1991 1309 1228 531 
z
" transform="scale(0.015625)"/>
        <path id="DejaVuSans-30" d="M 2034 4250 
Q 1547 4250 1301 3770 
Q 1056 3291 1056 2328 
Q 1056 1369 1301 889 
Q 1547 409 2034 409 
Q 2525 409 2770 889 
Q 3016 1369 3016 2328 
Q 3016 3291 2770 3770 
Q 2525 4250 2034 4250 
z
M 2034 4750 
Q 2819 4750 3233 4129 
Q 3647 3509 3647 2328 
Q 3647 1150 3233 529 
Q 2819 -91 2034 -91 
Q 1250 -91 836 529 
Q 422 1150 422 2328 
Q 422 3509 836 4129 
Q 1250 4750 2034 4750 
z
" transform="scale(0.015625)"/>
       </defs>
       <use xlink:href="#DejaVuSans-32"/>
       <use xlink:href="#DejaVuSans-30" transform="translate(63.623047 0)"/>
      </g>
     </g>
    </g>
    <g id="ytick_3">
     <g id="text_5">
      <!-- 22 -->
      <g style="fill: #262626" transform="translate(25.223 252.610498) scale(0.1 -0.1)">
       <use xlink:href="#DejaVuSans-32"/>
       <use xlink:href="#DejaVuSans-32" transform="translate(63.623047 0)"/>
      </g>
     </g>
    </g>
    <g id="ytick_4">
     <g id="text_6">
      <!-- 24 -->
      <g style="fill: #262626" transform="translate(25.223 203.580508) scale(0.1 -0.1)">
       <defs>
        <path id="DejaVuSans-34" d="M 2419 4116 
L 825 1625 
L 2419 1625 
L 2419 4116 
z
M 2253 4666 
L 3047 4666 
L 3047 1625 
L 3713 1625 
L 3713 1100 
L 3047 1100 
L 3047 0 
L 2419 0 
L 2419 1100 
L 313 1100 
L 313 1709 
L 2253 4666 
z
" transform="scale(0.015625)"/>
       </defs>
       <use xlink:href="#DejaVuSans-32"/>
       <use xlink:href="#DejaVuSans-34" transform="translate(63.623047 0)"/>
      </g>
     </g>
    </g>
    <g id="ytick_5">
     <g id="text_7">
      <!-- 26 -->
      <g style="fill: #262626" transform="translate(25.223 154.550518) scale(0.1 -0.1)">
       <defs>
        <path id="DejaVuSans-36" d="M 2113 2584 
Q 1688 2584 1439 2293 
Q 1191 2003 1191 1497 
Q 1191 994 1439 701 
Q 1688 409 2113 409 
Q 2538 409 2786 701 
Q 3034 994 3034 1497 
Q 3034 2003 2786 2293 
Q 2538 2584 2113 2584 
z
M 3366 4563 
L 3366 3988 
Q 3128 4100 2886 4159 
Q 2644 4219 2406 4219 
Q 1781 4219 1451 3797 
Q 1122 3375 1075 2522 
Q 1259 2794 1537 2939 
Q 1816 3084 2150 3084 
Q 2853 3084 3261 2657 
Q 3669 2231 3669 1497 
Q 3669 778 3244 343 
Q 2819 -91 2113 -91 
Q 1303 -91 875 529 
Q 447 1150 447 2328 
Q 447 3434 972 4092 
Q 1497 4750 2381 4750 
Q 2619 4750 2861 4703 
Q 3103 4656 3366 4563 
z
" transform="scale(0.015625)"/>
       </defs>
       <use xlink:href="#DejaVuSans-32"/>
       <use xlink:href="#DejaVuSans-36" transform="translate(63.623047 0)"/>
      </g>
     </g>
    </g>
    <g id="ytick_6">
     <g id="text_8">
      <!-- 28 -->
      <g style="fill: #262626" transform="translate(25.223 105.520528) scale(0.1 -0.1)">
       <use xlink:href="#DejaVuSans-32"/>
       <use xlink:href="#DejaVuSans-38" transform="translate(63.623047 0)"/>
      </g>
     </g>
    </g>
    <g id="ytick_7">
     <g id="text_9">
      <!-- 30 -->
      <g style="fill: #262626" transform="translate(25.223 56.490538) scale(0.1 -0.1)">
       <defs>
        <path id="DejaVuSans-33" d="M 2597 2516 
Q 3050 2419 3304 2112 
Q 3559 1806 3559 1356 
Q 3559 666 3084 287 
Q 2609 -91 1734 -91 
Q 1441 -91 1130 -33 
Q 819 25 488 141 
L 488 750 
Q 750 597 1062 519 
Q 1375 441 1716 441 
Q 2309 441 2620 675 
Q 2931 909 2931 1356 
Q 2931 1769 2642 2001 
Q 2353 2234 1838 2234 
L 1294 2234 
L 1294 2753 
L 1863 2753 
Q 2328 2753 2575 2939 
Q 2822 3125 2822 3475 
Q 2822 3834 2567 4026 
Q 2313 4219 1838 4219 
Q 1578 4219 1281 4162 
Q 984 4106 628 3988 
L 628 4550 
Q 988 4650 1302 4700 
Q 1616 4750 1894 4750 
Q 2613 4750 3031 4423 
Q 3450 4097 3450 3541 
Q 3450 3153 3228 2886 
Q 3006 2619 2597 2516 
z
" transform="scale(0.015625)"/>
       </defs>
       <use xlink:href="#DejaVuSans-33"/>
       <use xlink:href="#DejaVuSans-30" transform="translate(63.623047 0)"/>
      </g>
     </g>
    </g>
    <g id="text_10">
     <!-- MoCA -->
     <g style="fill: #262626" transform="translate(18.935344 223.186472) rotate(-90) scale(0.11 -0.11)">
      <defs>
       <path id="DejaVuSans-4d" d="M 628 4666 
L 1569 4666 
L 2759 1491 
L 3956 4666 
L 4897 4666 
L 4897 0 
L 4281 0 
L 4281 4097 
L 3078 897 
L 2444 897 
L 1241 4097 
L 1241 0 
L 628 0 
L 628 4666 
z
" transform="scale(0.015625)"/>
       <path id="DejaVuSans-43" d="M 4122 4306 
L 4122 3641 
Q 3803 3938 3442 4084 
Q 3081 4231 2675 4231 
Q 1875 4231 1450 3742 
Q 1025 3253 1025 2328 
Q 1025 1406 1450 917 
Q 1875 428 2675 428 
Q 3081 428 3442 575 
Q 3803 722 4122 1019 
L 4122 359 
Q 3791 134 3420 21 
Q 3050 -91 2638 -91 
Q 1578 -91 968 557 
Q 359 1206 359 2328 
Q 359 3453 968 4101 
Q 1578 4750 2638 4750 
Q 3056 4750 3426 4639 
Q 3797 4528 4122 4306 
z
" transform="scale(0.015625)"/>
       <path id="DejaVuSans-41" d="M 2188 4044 
L 1331 1722 
L 3047 1722 
L 2188 4044 
z
M 1831 4666 
L 2547 4666 
L 4325 0 
L 3669 0 
L 3244 1197 
L 1141 1197 
L 716 0 
L 50 0 
L 1831 4666 
z
" transform="scale(0.015625)"/>
      </defs>
      <use xlink:href="#DejaVuSans-4d"/>
      <use xlink:href="#DejaVuSans-6f" transform="translate(86.279297 0)"/>
      <use xlink:href="#DejaVuSans-43" transform="translate(147.460938 0)"/>
      <use xlink:href="#DejaVuSans-41" transform="translate(217.285156 0)"/>
     </g>
    </g>
   </g>
   <g id="FillBetweenPolyCollection_1">
    <defs>
     <path id="m9bae7bcaeb" d="M 141.652832 -279.703716 
L 130.246058 -279.703716 
L 129.785586 -281.437099 
L 129.327158 -283.170483 
L 128.870001 -284.903866 
L 128.413109 -286.63725 
L 127.955295 -288.370633 
L 127.495258 -290.104017 
L 127.031646 -291.8374 
L 126.563137 -293.570784 
L 126.088506 -295.304167 
L 125.606704 -297.037551 
L 125.116922 -298.770934 
L 124.618651 -300.504318 
L 124.111736 -302.237701 
L 123.596404 -303.971085 
L 123.073298 -305.704468 
L 122.543474 -307.437851 
L 122.008399 -309.171235 
L 121.469924 -310.904618 
L 120.930244 -312.638002 
L 120.391847 -314.371385 
L 119.857448 -316.104769 
L 119.329916 -317.838152 
L 118.812194 -319.571536 
L 118.307211 -321.304919 
L 117.817801 -323.038303 
L 117.346619 -324.771686 
L 116.896063 -326.50507 
L 116.468202 -328.238453 
L 116.064718 -329.971837 
L 115.686853 -331.70522 
L 115.335371 -333.438604 
L 115.010538 -335.171987 
L 114.712104 -336.905371 
L 114.439309 -338.638754 
L 114.190892 -340.372138 
L 113.965114 -342.105521 
L 113.759798 -343.838905 
L 113.572357 -345.572288 
L 113.399853 -347.305672 
L 113.239037 -349.039055 
L 113.086408 -350.772439 
L 112.938266 -352.505822 
L 112.790762 -354.239206 
L 112.639953 -355.972589 
L 112.481851 -357.705973 
L 112.312468 -359.439356 
L 112.12786 -361.17274 
L 111.924166 -362.906123 
L 111.697646 -364.639507 
L 111.444713 -366.37289 
L 111.161964 -368.106274 
L 110.846213 -369.839657 
L 110.494516 -371.573041 
L 110.104199 -373.306424 
L 109.672889 -375.039808 
L 109.198541 -376.773191 
L 108.67947 -378.506574 
L 108.11438 -380.239958 
L 107.502397 -381.973341 
L 106.843106 -383.706725 
L 106.136581 -385.440108 
L 105.383424 -387.173492 
L 104.584794 -388.906875 
L 103.742444 -390.640259 
L 102.85875 -392.373642 
L 101.936733 -394.107026 
L 100.98008 -395.840409 
L 99.993162 -397.573793 
L 98.981033 -399.307176 
L 97.949428 -401.04056 
L 96.904751 -402.773943 
L 95.854048 -404.507327 
L 94.804971 -406.24071 
L 93.765728 -407.974094 
L 92.745024 -409.707477 
L 91.751988 -411.440861 
L 90.796087 -413.174244 
L 89.887036 -414.907628 
L 89.034693 -416.641011 
L 88.248944 -418.374395 
L 87.53959 -420.107778 
L 86.916223 -421.841162 
L 86.388095 -423.574545 
L 85.963995 -425.307929 
L 85.652118 -427.041312 
L 85.459941 -428.774696 
L 85.3941 -430.508079 
L 85.460273 -432.241463 
L 85.663075 -433.974846 
L 86.005956 -435.70823 
L 86.491118 -437.441613 
L 87.119441 -439.174997 
L 87.890428 -440.90838 
L 88.802166 -442.641764 
L 89.851308 -444.375147 
L 91.033076 -446.10853 
L 92.341289 -447.841914 
L 93.76841 -449.575297 
L 95.305624 -451.308681 
L 141.652832 -451.308681 
L 141.652832 -451.308681 
L 141.652832 -449.575297 
L 141.652832 -447.841914 
L 141.652832 -446.10853 
L 141.652832 -444.375147 
L 141.652832 -442.641764 
L 141.652832 -440.90838 
L 141.652832 -439.174997 
L 141.652832 -437.441613 
L 141.652832 -435.70823 
L 141.652832 -433.974846 
L 141.652832 -432.241463 
L 141.652832 -430.508079 
L 141.652832 -428.774696 
L 141.652832 -427.041312 
L 141.652832 -425.307929 
L 141.652832 -423.574545 
L 141.652832 -421.841162 
L 141.652832 -420.107778 
L 141.652832 -418.374395 
L 141.652832 -416.641011 
L 141.652832 -414.907628 
L 141.652832 -413.174244 
L 141.652832 -411.440861 
L 141.652832 -409.707477 
L 141.652832 -407.974094 
L 141.652832 -406.24071 
L 141.652832 -404.507327 
L 141.652832 -402.773943 
L 141.652832 -401.04056 
L 141.652832 -399.307176 
L 141.652832 -397.573793 
L 141.652832 -395.840409 
L 141.652832 -394.107026 
L 141.652832 -392.373642 
L 141.652832 -390.640259 
L 141.652832 -388.906875 
L 141.652832 -387.173492 
L 141.652832 -385.440108 
L 141.652832 -383.706725 
L 141.652832 -381.973341 
L 141.652832 -380.239958 
L 141.652832 -378.506574 
L 141.652832 -376.773191 
L 141.652832 -375.039808 
L 141.652832 -373.306424 
L 141.652832 -371.573041 
L 141.652832 -369.839657 
L 141.652832 -368.106274 
L 141.652832 -366.37289 
L 141.652832 -364.639507 
L 141.652832 -362.906123 
L 141.652832 -361.17274 
L 141.652832 -359.439356 
L 141.652832 -357.705973 
L 141.652832 -355.972589 
L 141.652832 -354.239206 
L 141.652832 -352.505822 
L 141.652832 -350.772439 
L 141.652832 -349.039055 
L 141.652832 -347.305672 
L 141.652832 -345.572288 
L 141.652832 -343.838905 
L 141.652832 -342.105521 
L 141.652832 -340.372138 
L 141.652832 -338.638754 
L 141.652832 -336.905371 
L 141.652832 -335.171987 
L 141.652832 -333.438604 
L 141.652832 -331.70522 
L 141.652832 -329.971837 
L 141.652832 -328.238453 
L 141.652832 -326.50507 
L 141.652832 -324.771686 
L 141.652832 -323.038303 
L 141.652832 -321.304919 
L 141.652832 -319.571536 
L 141.652832 -317.838152 
L 141.652832 -316.104769 
L 141.652832 -314.371385 
L 141.652832 -312.638002 
L 141.652832 -310.904618 
L 141.652832 -309.171235 
L 141.652832 -307.437851 
L 141.652832 -305.704468 
L 141.652832 -303.971085 
L 141.652832 -302.237701 
L 141.652832 -300.504318 
L 141.652832 -298.770934 
L 141.652832 -297.037551 
L 141.652832 -295.304167 
L 141.652832 -293.570784 
L 141.652832 -291.8374 
L 141.652832 -290.104017 
L 141.652832 -288.370633 
L 141.652832 -286.63725 
L 141.652832 -284.903866 
L 141.652832 -283.170483 
L 141.652832 -281.437099 
L 141.652832 -279.703716 
z
"/>
    </defs>
    <g clip-path="url(#pa7597d014d)">
     <use xlink:href="#m9bae7bcaeb" x="0" y="504" style="fill: #4c72b0"/>
    </g>
   </g>
   <g id="FillBetweenPolyCollection_2">
    <defs>
     <path id="m43706d505a" d="M 408.495074 -132.613745 
L 398.838803 -132.613745 
L 398.838803 -135.832886 
L 398.838803 -139.052027 
L 398.838803 -142.271168 
L 398.838803 -145.490309 
L 398.838803 -148.709449 
L 398.838803 -151.92859 
L 398.838803 -155.147731 
L 398.838803 -158.366872 
L 398.838803 -161.586012 
L 398.838803 -164.805153 
L 398.838803 -168.024294 
L 398.838803 -171.243435 
L 398.838803 -174.462575 
L 398.838803 -177.681716 
L 398.838803 -180.900857 
L 398.838803 -184.119998 
L 398.838803 -187.339138 
L 398.838803 -190.558279 
L 398.838803 -193.77742 
L 398.838803 -196.996561 
L 398.838803 -200.215701 
L 398.838803 -203.434842 
L 398.838803 -206.653983 
L 398.838803 -209.873124 
L 398.838803 -213.092265 
L 398.838803 -216.311405 
L 398.838803 -219.530546 
L 398.838803 -222.749687 
L 398.838803 -225.968828 
L 398.838803 -229.187968 
L 398.838803 -232.407109 
L 398.838803 -235.62625 
L 398.838803 -238.845391 
L 398.838803 -242.064531 
L 398.838803 -245.283672 
L 398.838803 -248.502813 
L 398.838803 -251.721954 
L 398.838803 -254.941094 
L 398.838803 -258.160235 
L 398.838803 -261.379376 
L 398.838803 -264.598517 
L 398.838803 -267.817657 
L 398.838803 -271.036798 
L 398.838803 -274.255939 
L 398.838803 -277.47508 
L 398.838803 -280.694221 
L 398.838803 -283.913361 
L 398.838803 -287.132502 
L 398.838803 -290.351643 
L 398.838803 -293.570784 
L 398.838803 -296.789924 
L 398.838803 -300.009065 
L 398.838803 -303.228206 
L 398.838803 -306.447347 
L 398.838803 -309.666487 
L 398.838803 -312.885628 
L 398.838803 -316.104769 
L 398.838803 -319.32391 
L 398.838803 -322.54305 
L 398.838803 -325.762191 
L 398.838803 -328.981332 
L 398.838803 -332.200473 
L 398.838803 -335.419614 
L 398.838803 -338.638754 
L 398.838803 -341.857895 
L 398.838803 -345.077036 
L 398.838803 -348.296177 
L 398.838803 -351.515317 
L 398.838803 -354.734458 
L 398.838803 -357.953599 
L 398.838803 -361.17274 
L 398.838803 -364.39188 
L 398.838803 -367.611021 
L 398.838803 -370.830162 
L 398.838803 -374.049303 
L 398.838803 -377.268443 
L 398.838803 -380.487584 
L 398.838803 -383.706725 
L 398.838803 -386.925866 
L 398.838803 -390.145006 
L 398.838803 -393.364147 
L 398.838803 -396.583288 
L 398.838803 -399.802429 
L 398.838803 -403.02157 
L 398.838803 -406.24071 
L 398.838803 -409.459851 
L 398.838803 -412.678992 
L 398.838803 -415.898133 
L 398.838803 -419.117273 
L 398.838803 -422.336414 
L 398.838803 -425.555555 
L 398.838803 -428.774696 
L 398.838803 -431.993836 
L 398.838803 -435.212977 
L 398.838803 -438.432118 
L 398.838803 -441.651259 
L 398.838803 -444.870399 
L 398.838803 -448.08954 
L 398.838803 -451.308681 
L 434.706816 -451.308681 
L 434.706816 -451.308681 
L 436.161308 -448.08954 
L 437.559927 -444.870399 
L 438.90019 -441.651259 
L 440.180776 -438.432118 
L 441.401396 -435.212977 
L 442.562643 -431.993836 
L 443.665804 -428.774696 
L 444.712655 -425.555555 
L 445.705244 -422.336414 
L 446.645686 -419.117273 
L 447.535952 -415.898133 
L 448.377687 -412.678992 
L 449.172055 -409.459851 
L 449.919602 -406.24071 
L 450.620169 -403.02157 
L 451.272828 -399.802429 
L 451.875866 -396.583288 
L 452.426789 -393.364147 
L 452.922379 -390.145006 
L 453.358761 -386.925866 
L 453.731511 -383.706725 
L 454.035779 -380.487584 
L 454.266433 -377.268443 
L 454.418212 -374.049303 
L 454.4859 -370.830162 
L 454.464493 -367.611021 
L 454.349375 -364.39188 
L 454.136494 -361.17274 
L 453.822525 -357.953599 
L 453.40503 -354.734458 
L 452.882601 -351.515317 
L 452.254989 -348.296177 
L 451.523202 -345.077036 
L 450.689588 -341.857895 
L 449.757881 -338.638754 
L 448.733221 -335.419614 
L 447.62213 -332.200473 
L 446.43246 -328.981332 
L 445.173303 -325.762191 
L 443.854862 -322.54305 
L 442.488298 -319.32391 
L 441.085534 -316.104769 
L 439.659054 -312.885628 
L 438.221664 -309.666487 
L 436.78626 -306.447347 
L 435.365584 -303.228206 
L 433.971978 -300.009065 
L 432.617162 -296.789924 
L 431.312017 -293.570784 
L 430.0664 -290.351643 
L 428.888978 -287.132502 
L 427.7871 -283.913361 
L 426.766694 -280.694221 
L 425.832207 -277.47508 
L 424.986567 -274.255939 
L 424.231187 -271.036798 
L 423.565995 -267.817657 
L 422.989483 -264.598517 
L 422.498798 -261.379376 
L 422.089832 -258.160235 
L 421.757351 -254.941094 
L 421.49512 -251.721954 
L 421.296052 -248.502813 
L 421.152361 -245.283672 
L 421.055722 -242.064531 
L 420.99743 -238.845391 
L 420.968573 -235.62625 
L 420.960185 -232.407109 
L 420.963416 -229.187968 
L 420.969673 -225.968828 
L 420.970773 -222.749687 
L 420.959069 -219.530546 
L 420.927566 -216.311405 
L 420.870023 -213.092265 
L 420.781025 -209.873124 
L 420.65605 -206.653983 
L 420.491496 -203.434842 
L 420.284696 -200.215701 
L 420.03391 -196.996561 
L 419.738291 -193.77742 
L 419.397833 -190.558279 
L 419.01331 -187.339138 
L 418.586189 -184.119998 
L 418.118545 -180.900857 
L 417.612965 -177.681716 
L 417.072449 -174.462575 
L 416.500319 -171.243435 
L 415.900126 -168.024294 
L 415.275567 -164.805153 
L 414.630415 -161.586012 
L 413.968456 -158.366872 
L 413.293436 -155.147731 
L 412.609026 -151.92859 
L 411.918785 -148.709449 
L 411.226147 -145.490309 
L 410.5344 -142.271168 
L 409.84668 -139.052027 
L 409.165965 -135.832886 
L 408.495074 -132.613745 
z
"/>
    </defs>
    <g clip-path="url(#pa7597d014d)">
     <use xlink:href="#m43706d505a" x="0" y="504" style="fill: #4c72b0"/>
    </g>
   </g>
   <g id="patch_3">
    <path d="M 141.3171 150.751299 
L 174.8709 150.751299 
L 174.8709 77.206314 
L 141.3171 77.206314 
L 141.3171 150.751299 
z
" clip-path="url(#pa7597d014d)" style="fill: #4c72b0; fill-opacity: 0.33; stroke: #000000; stroke-linejoin: miter"/>
   </g>
   <g id="line2d_1">
    <path d="M 158.094 150.751299 
L 158.094 224.296284 
" clip-path="url(#pa7597d014d)" style="fill: none; stroke: #000000"/>
   </g>
   <g id="line2d_2">
    <path d="M 158.094 77.206314 
L 158.094 52.691319 
" clip-path="url(#pa7597d014d)" style="fill: none; stroke: #000000"/>
   </g>
   <g id="line2d_3">
    <path d="M 149.70555 224.296284 
L 166.48245 224.296284 
" clip-path="url(#pa7597d014d)" style="fill: none; stroke: #000000; stroke-linecap: round"/>
   </g>
   <g id="line2d_4">
    <path d="M 149.70555 52.691319 
L 166.48245 52.691319 
" clip-path="url(#pa7597d014d)" style="fill: none; stroke: #000000; stroke-linecap: round"/>
   </g>
   <g id="line2d_5"/>
   <g id="patch_4">
    <path d="M 365.0091 224.296284 
L 398.5629 224.296284 
L 398.5629 101.721309 
L 365.0091 101.721309 
L 365.0091 224.296284 
z
" clip-path="url(#pa7597d014d)" style="fill: #4c72b0; fill-opacity: 0.33; stroke: #000000; stroke-linejoin: miter"/>
   </g>
   <g id="line2d_6">
    <path d="M 381.786 224.296284 
L 381.786 371.386255 
" clip-path="url(#pa7597d014d)" style="fill: none; stroke: #000000"/>
   </g>
   <g id="line2d_7">
    <path d="M 381.786 101.721309 
L 381.786 52.691319 
" clip-path="url(#pa7597d014d)" style="fill: none; stroke: #000000"/>
   </g>
   <g id="line2d_8">
    <path d="M 373.39755 371.386255 
L 390.17445 371.386255 
" clip-path="url(#pa7597d014d)" style="fill: none; stroke: #000000; stroke-linecap: round"/>
   </g>
   <g id="line2d_9">
    <path d="M 373.39755 52.691319 
L 390.17445 52.691319 
" clip-path="url(#pa7597d014d)" style="fill: none; stroke: #000000; stroke-linecap: round"/>
   </g>
   <g id="line2d_10"/>
   <g id="PathCollection_1">
    <defs>
     <path id="m8c245b537e" d="M 0 1.581139 
C 0.419323 1.581139 0.821528 1.41454 1.118034 1.118034 
C 1.41454 0.821528 1.581139 0.419323 1.581139 0 
C 1.581139 -0.419323 1.41454 -0.821528 1.118034 -1.118034 
C 0.821528 -1.41454 0.419323 -1.581139 0 -1.581139 
C -0.419323 -1.581139 -0.821528 -1.41454 -1.118034 -1.118034 
C -1.41454 -0.821528 -1.581139 -0.419323 -1.581139 0 
C -1.581139 0.419323 -1.41454 0.821528 -1.118034 1.118034 
C -0.821528 1.41454 -0.419323 1.581139 0 1.581139 
z
" style="stroke: #000000; stroke-opacity: 0.9; stroke-width: 0.8"/>
    </defs>
    <g clip-path="url(#pa7597d014d)">
     <use xlink:href="#m8c245b537e" x="166.925972" y="79.666833" style="fill-opacity: 0.9; stroke: #000000; stroke-opacity: 0.9; stroke-width: 0.8"/>
     <use xlink:href="#m8c245b537e" x="160.283944" y="117.396897" style="fill-opacity: 0.9; stroke: #000000; stroke-opacity: 0.9; stroke-width: 0.8"/>
     <use xlink:href="#m8c245b537e" x="167.530989" y="219.74642" style="fill-opacity: 0.9; stroke: #000000; stroke-opacity: 0.9; stroke-width: 0.8"/>
     <use xlink:href="#m8c245b537e" x="148.888906" y="197.846399" style="fill-opacity: 0.9; stroke: #000000; stroke-opacity: 0.9; stroke-width: 0.8"/>
     <use xlink:href="#m8c245b537e" x="151.29338" y="83.952475" style="fill-opacity: 0.9; stroke: #000000; stroke-opacity: 0.9; stroke-width: 0.8"/>
     <use xlink:href="#m8c245b537e" x="147.921098" y="83.952948" style="fill-opacity: 0.9; stroke: #000000; stroke-opacity: 0.9; stroke-width: 0.8"/>
     <use xlink:href="#m8c245b537e" x="154.186779" y="159.418162" style="fill-opacity: 0.9; stroke: #000000; stroke-opacity: 0.9; stroke-width: 0.8"/>
     <use xlink:href="#m8c245b537e" x="155.6038" y="94.539864" style="fill-opacity: 0.9; stroke: #000000; stroke-opacity: 0.9; stroke-width: 0.8"/>
     <use xlink:href="#m8c245b537e" x="152.979261" y="148.768232" style="fill-opacity: 0.9; stroke: #000000; stroke-opacity: 0.9; stroke-width: 0.8"/>
     <use xlink:href="#m8c245b537e" x="165.447595" y="171.185576" style="fill-opacity: 0.9; stroke: #000000; stroke-opacity: 0.9; stroke-width: 0.8"/>
     <use xlink:href="#m8c245b537e" x="154.889687" y="86.608609" style="fill-opacity: 0.9; stroke: #000000; stroke-opacity: 0.9; stroke-width: 0.8"/>
     <use xlink:href="#m8c245b537e" x="153.19368" y="190.565419" style="fill-opacity: 0.9; stroke: #000000; stroke-opacity: 0.9; stroke-width: 0.8"/>
     <use xlink:href="#m8c245b537e" x="159.049077" y="95.201445" style="fill-opacity: 0.9; stroke: #000000; stroke-opacity: 0.9; stroke-width: 0.8"/>
     <use xlink:href="#m8c245b537e" x="150.061762" y="131.877908" style="fill-opacity: 0.9; stroke: #000000; stroke-opacity: 0.9; stroke-width: 0.8"/>
     <use xlink:href="#m8c245b537e" x="164.853905" y="230.536332" style="fill-opacity: 0.9; stroke: #000000; stroke-opacity: 0.9; stroke-width: 0.8"/>
     <use xlink:href="#m8c245b537e" x="148.577038" y="132.445374" style="fill-opacity: 0.9; stroke: #000000; stroke-opacity: 0.9; stroke-width: 0.8"/>
     <use xlink:href="#m8c245b537e" x="168.985271" y="154.5905" style="fill-opacity: 0.9; stroke: #000000; stroke-opacity: 0.9; stroke-width: 0.8"/>
     <use xlink:href="#m8c245b537e" x="164.183898" y="52.205796" style="fill-opacity: 0.9; stroke: #000000; stroke-opacity: 0.9; stroke-width: 0.8"/>
     <use xlink:href="#m8c245b537e" x="151.354511" y="54.026013" style="fill-opacity: 0.9; stroke: #000000; stroke-opacity: 0.9; stroke-width: 0.8"/>
     <use xlink:href="#m8c245b537e" x="147.032925" y="81.300727" style="fill-opacity: 0.9; stroke: #000000; stroke-opacity: 0.9; stroke-width: 0.8"/>
     <use xlink:href="#m8c245b537e" x="165.15062" y="173.072636" style="fill-opacity: 0.9; stroke: #000000; stroke-opacity: 0.9; stroke-width: 0.8"/>
     <use xlink:href="#m8c245b537e" x="162.721233" y="182.336539" style="fill-opacity: 0.9; stroke: #000000; stroke-opacity: 0.9; stroke-width: 0.8"/>
     <use xlink:href="#m8c245b537e" x="163.216707" y="56.767777" style="fill-opacity: 0.9; stroke: #000000; stroke-opacity: 0.9; stroke-width: 0.8"/>
     <use xlink:href="#m8c245b537e" x="164.162101" y="55.31223" style="fill-opacity: 0.9; stroke: #000000; stroke-opacity: 0.9; stroke-width: 0.8"/>
     <use xlink:href="#m8c245b537e" x="148.56572" y="102.582864" style="fill-opacity: 0.9; stroke: #000000; stroke-opacity: 0.9; stroke-width: 0.8"/>
     <use xlink:href="#m8c245b537e" x="154.927992" y="218.703414" style="fill-opacity: 0.9; stroke: #000000; stroke-opacity: 0.9; stroke-width: 0.8"/>
     <use xlink:href="#m8c245b537e" x="149.501298" y="107.611306" style="fill-opacity: 0.9; stroke: #000000; stroke-opacity: 0.9; stroke-width: 0.8"/>
     <use xlink:href="#m8c245b537e" x="166.216333" y="52.412153" style="fill-opacity: 0.9; stroke: #000000; stroke-opacity: 0.9; stroke-width: 0.8"/>
     <use xlink:href="#m8c245b537e" x="160.85208" y="75.39388" style="fill-opacity: 0.9; stroke: #000000; stroke-opacity: 0.9; stroke-width: 0.8"/>
     <use xlink:href="#m8c245b537e" x="154.311324" y="61.586332" style="fill-opacity: 0.9; stroke: #000000; stroke-opacity: 0.9; stroke-width: 0.8"/>
     <use xlink:href="#m8c245b537e" x="148.331149" y="75.097145" style="fill-opacity: 0.9; stroke: #000000; stroke-opacity: 0.9; stroke-width: 0.8"/>
     <use xlink:href="#m8c245b537e" x="153.865826" y="157.212979" style="fill-opacity: 0.9; stroke: #000000; stroke-opacity: 0.9; stroke-width: 0.8"/>
     <use xlink:href="#m8c245b537e" x="154.183491" y="61.221525" style="fill-opacity: 0.9; stroke: #000000; stroke-opacity: 0.9; stroke-width: 0.8"/>
     <use xlink:href="#m8c245b537e" x="163.230107" y="68.402773" style="fill-opacity: 0.9; stroke: #000000; stroke-opacity: 0.9; stroke-width: 0.8"/>
     <use xlink:href="#m8c245b537e" x="161.171051" y="43.559345" style="fill-opacity: 0.9; stroke: #000000; stroke-opacity: 0.9; stroke-width: 0.8"/>
     <use xlink:href="#m8c245b537e" x="166.755639" y="71.158027" style="fill-opacity: 0.9; stroke: #000000; stroke-opacity: 0.9; stroke-width: 0.8"/>
     <use xlink:href="#m8c245b537e" x="157.47247" y="179.098208" style="fill-opacity: 0.9; stroke: #000000; stroke-opacity: 0.9; stroke-width: 0.8"/>
     <use xlink:href="#m8c245b537e" x="149.584628" y="60.581772" style="fill-opacity: 0.9; stroke: #000000; stroke-opacity: 0.9; stroke-width: 0.8"/>
     <use xlink:href="#m8c245b537e" x="162.864115" y="49.078142" style="fill-opacity: 0.9; stroke: #000000; stroke-opacity: 0.9; stroke-width: 0.8"/>
     <use xlink:href="#m8c245b537e" x="163.927553" y="151.925028" style="fill-opacity: 0.9; stroke: #000000; stroke-opacity: 0.9; stroke-width: 0.8"/>
     <use xlink:href="#m8c245b537e" x="159.464722" y="84.618899" style="fill-opacity: 0.9; stroke: #000000; stroke-opacity: 0.9; stroke-width: 0.8"/>
     <use xlink:href="#m8c245b537e" x="164.155319" y="126.330895" style="fill-opacity: 0.9; stroke: #000000; stroke-opacity: 0.9; stroke-width: 0.8"/>
     <use xlink:href="#m8c245b537e" x="157.955212" y="110.85288" style="fill-opacity: 0.9; stroke: #000000; stroke-opacity: 0.9; stroke-width: 0.8"/>
     <use xlink:href="#m8c245b537e" x="158.602515" y="69.178724" style="fill-opacity: 0.9; stroke: #000000; stroke-opacity: 0.9; stroke-width: 0.8"/>
     <use xlink:href="#m8c245b537e" x="156.473151" y="81.93712" style="fill-opacity: 0.9; stroke: #000000; stroke-opacity: 0.9; stroke-width: 0.8"/>
     <use xlink:href="#m8c245b537e" x="147.478006" y="49.503933" style="fill-opacity: 0.9; stroke: #000000; stroke-opacity: 0.9; stroke-width: 0.8"/>
     <use xlink:href="#m8c245b537e" x="149.322845" y="105.414031" style="fill-opacity: 0.9; stroke: #000000; stroke-opacity: 0.9; stroke-width: 0.8"/>
     <use xlink:href="#m8c245b537e" x="147.612446" y="101.327735" style="fill-opacity: 0.9; stroke: #000000; stroke-opacity: 0.9; stroke-width: 0.8"/>
     <use xlink:href="#m8c245b537e" x="161.145392" y="51.775237" style="fill-opacity: 0.9; stroke: #000000; stroke-opacity: 0.9; stroke-width: 0.8"/>
     <use xlink:href="#m8c245b537e" x="153.941292" y="132.416937" style="fill-opacity: 0.9; stroke: #000000; stroke-opacity: 0.9; stroke-width: 0.8"/>
     <use xlink:href="#m8c245b537e" x="158.28572" y="166.056802" style="fill-opacity: 0.9; stroke: #000000; stroke-opacity: 0.9; stroke-width: 0.8"/>
     <use xlink:href="#m8c245b537e" x="167.210936" y="71.81041" style="fill-opacity: 0.9; stroke: #000000; stroke-opacity: 0.9; stroke-width: 0.8"/>
     <use xlink:href="#m8c245b537e" x="152.485868" y="166.646843" style="fill-opacity: 0.9; stroke: #000000; stroke-opacity: 0.9; stroke-width: 0.8"/>
    </g>
   </g>
   <g id="line2d_11">
    <path d="M 166.925972 79.666833 
L 390.617972 177.726813 
" clip-path="url(#pa7597d014d)" style="fill: none; stroke: #ff5714; stroke-opacity: 0.4; stroke-width: 1.2; stroke-linecap: round"/>
   </g>
   <g id="line2d_12">
    <path d="M 160.283944 117.396897 
L 383.975944 362.546847 
" clip-path="url(#pa7597d014d)" style="fill: none; stroke: #ff5714; stroke-opacity: 0.4; stroke-width: 1.2; stroke-linecap: round"/>
   </g>
   <g id="line2d_13">
    <path d="M 167.530989 219.74642 
L 391.222989 97.171445 
" clip-path="url(#pa7597d014d)" style="fill: none; stroke: #04e762; stroke-opacity: 0.4; stroke-width: 1.2; stroke-linecap: round"/>
   </g>
   <g id="line2d_14">
    <path d="M 148.888906 197.846399 
L 372.580906 246.87639 
" clip-path="url(#pa7597d014d)" style="fill: none; stroke: #ff5714; stroke-opacity: 0.4; stroke-width: 1.2; stroke-linecap: round"/>
   </g>
   <g id="line2d_15">
    <path d="M 151.29338 83.952475 
L 374.98538 59.43748 
" clip-path="url(#pa7597d014d)" style="fill: none; stroke: #04e762; stroke-opacity: 0.4; stroke-width: 1.2; stroke-linecap: round"/>
   </g>
   <g id="line2d_16">
    <path d="M 147.921098 83.952948 
L 371.613098 59.437953 
" clip-path="url(#pa7597d014d)" style="fill: none; stroke: #04e762; stroke-opacity: 0.4; stroke-width: 1.2; stroke-linecap: round"/>
   </g>
   <g id="line2d_17">
    <path d="M 154.186779 159.418162 
L 377.878779 306.508132 
" clip-path="url(#pa7597d014d)" style="fill: none; stroke: #ff5714; stroke-opacity: 0.4; stroke-width: 1.2; stroke-linecap: round"/>
   </g>
   <g id="line2d_18">
    <path d="M 155.6038 94.539864 
L 379.2958 94.539864 
" clip-path="url(#pa7597d014d)" style="fill: none; stroke: #808080; stroke-opacity: 0.4; stroke-width: 1.2; stroke-linecap: round"/>
   </g>
   <g id="line2d_19">
    <path d="M 152.979261 148.768232 
L 376.671261 344.888192 
" clip-path="url(#pa7597d014d)" style="fill: none; stroke: #ff5714; stroke-opacity: 0.4; stroke-width: 1.2; stroke-linecap: round"/>
   </g>
   <g id="line2d_20">
    <path d="M 165.447595 171.185576 
L 389.139595 220.215566 
" clip-path="url(#pa7597d014d)" style="fill: none; stroke: #ff5714; stroke-opacity: 0.4; stroke-width: 1.2; stroke-linecap: round"/>
   </g>
   <g id="line2d_21">
    <path d="M 154.889687 86.608609 
L 378.581687 282.728569 
" clip-path="url(#pa7597d014d)" style="fill: none; stroke: #ff5714; stroke-opacity: 0.4; stroke-width: 1.2; stroke-linecap: round"/>
   </g>
   <g id="line2d_22">
    <path d="M 153.19368 190.565419 
L 376.88568 288.625399 
" clip-path="url(#pa7597d014d)" style="fill: none; stroke: #ff5714; stroke-opacity: 0.4; stroke-width: 1.2; stroke-linecap: round"/>
   </g>
   <g id="line2d_23">
    <path d="M 159.049077 95.201445 
L 382.741077 168.74643 
" clip-path="url(#pa7597d014d)" style="fill: none; stroke: #ff5714; stroke-opacity: 0.4; stroke-width: 1.2; stroke-linecap: round"/>
   </g>
   <g id="line2d_24">
    <path d="M 150.061762 131.877908 
L 373.753762 107.362913 
" clip-path="url(#pa7597d014d)" style="fill: none; stroke: #04e762; stroke-opacity: 0.4; stroke-width: 1.2; stroke-linecap: round"/>
   </g>
   <g id="line2d_25">
    <path d="M 164.853905 230.536332 
L 388.545905 304.081317 
" clip-path="url(#pa7597d014d)" style="fill: none; stroke: #ff5714; stroke-opacity: 0.4; stroke-width: 1.2; stroke-linecap: round"/>
   </g>
   <g id="line2d_26">
    <path d="M 148.577038 132.445374 
L 372.269038 205.990359 
" clip-path="url(#pa7597d014d)" style="fill: none; stroke: #ff5714; stroke-opacity: 0.4; stroke-width: 1.2; stroke-linecap: round"/>
   </g>
   <g id="line2d_27">
    <path d="M 168.985271 154.5905 
L 392.677271 326.195465 
" clip-path="url(#pa7597d014d)" style="fill: none; stroke: #ff5714; stroke-opacity: 0.4; stroke-width: 1.2; stroke-linecap: round"/>
   </g>
   <g id="line2d_28">
    <path d="M 164.183898 52.205796 
L 387.875898 174.780771 
" clip-path="url(#pa7597d014d)" style="fill: none; stroke: #ff5714; stroke-opacity: 0.4; stroke-width: 1.2; stroke-linecap: round"/>
   </g>
   <g id="line2d_29">
    <path d="M 151.354511 54.026013 
L 375.046511 299.175963 
" clip-path="url(#pa7597d014d)" style="fill: none; stroke: #ff5714; stroke-opacity: 0.4; stroke-width: 1.2; stroke-linecap: round"/>
   </g>
   <g id="line2d_30">
    <path d="M 147.032925 81.300727 
L 370.724925 154.845712 
" clip-path="url(#pa7597d014d)" style="fill: none; stroke: #ff5714; stroke-opacity: 0.4; stroke-width: 1.2; stroke-linecap: round"/>
   </g>
   <g id="line2d_31">
    <path d="M 165.15062 173.072636 
L 388.84262 148.557641 
" clip-path="url(#pa7597d014d)" style="fill: none; stroke: #04e762; stroke-opacity: 0.4; stroke-width: 1.2; stroke-linecap: round"/>
   </g>
   <g id="line2d_32">
    <path d="M 162.721233 182.336539 
L 386.413233 108.791554 
" clip-path="url(#pa7597d014d)" style="fill: none; stroke: #04e762; stroke-opacity: 0.4; stroke-width: 1.2; stroke-linecap: round"/>
   </g>
   <g id="line2d_33">
    <path d="M 163.216707 56.767777 
L 386.908707 81.282772 
" clip-path="url(#pa7597d014d)" style="fill: none; stroke: #ff5714; stroke-opacity: 0.4; stroke-width: 1.2; stroke-linecap: round"/>
   </g>
   <g id="line2d_34">
    <path d="M 164.162101 55.31223 
L 387.854101 104.34222 
" clip-path="url(#pa7597d014d)" style="fill: none; stroke: #ff5714; stroke-opacity: 0.4; stroke-width: 1.2; stroke-linecap: round"/>
   </g>
   <g id="line2d_35">
    <path d="M 148.56572 102.582864 
L 372.25772 127.097859 
" clip-path="url(#pa7597d014d)" style="fill: none; stroke: #ff5714; stroke-opacity: 0.4; stroke-width: 1.2; stroke-linecap: round"/>
   </g>
   <g id="line2d_36">
    <path d="M 154.927992 218.703414 
L 378.619992 145.158429 
" clip-path="url(#pa7597d014d)" style="fill: none; stroke: #04e762; stroke-opacity: 0.4; stroke-width: 1.2; stroke-linecap: round"/>
   </g>
   <g id="line2d_37">
    <path d="M 149.501298 107.611306 
L 373.193298 58.581316 
" clip-path="url(#pa7597d014d)" style="fill: none; stroke: #04e762; stroke-opacity: 0.4; stroke-width: 1.2; stroke-linecap: round"/>
   </g>
   <g id="line2d_38">
    <path d="M 166.216333 52.412153 
L 389.908333 52.412153 
" clip-path="url(#pa7597d014d)" style="fill: none; stroke: #808080; stroke-opacity: 0.4; stroke-width: 1.2; stroke-linecap: round"/>
   </g>
   <g id="line2d_39">
    <path d="M 160.85208 75.39388 
L 384.54408 173.45386 
" clip-path="url(#pa7597d014d)" style="fill: none; stroke: #ff5714; stroke-opacity: 0.4; stroke-width: 1.2; stroke-linecap: round"/>
   </g>
   <g id="line2d_40">
    <path d="M 154.311324 61.586332 
L 378.003324 61.586332 
" clip-path="url(#pa7597d014d)" style="fill: none; stroke: #808080; stroke-opacity: 0.4; stroke-width: 1.2; stroke-linecap: round"/>
   </g>
   <g id="line2d_41">
    <path d="M 148.331149 75.097145 
L 372.023149 50.58215 
" clip-path="url(#pa7597d014d)" style="fill: none; stroke: #04e762; stroke-opacity: 0.4; stroke-width: 1.2; stroke-linecap: round"/>
   </g>
   <g id="line2d_42">
    <path d="M 153.865826 157.212979 
L 377.557826 181.727974 
" clip-path="url(#pa7597d014d)" style="fill: none; stroke: #ff5714; stroke-opacity: 0.4; stroke-width: 1.2; stroke-linecap: round"/>
   </g>
   <g id="line2d_43">
    <path d="M 154.183491 61.221525 
L 377.875491 183.796501 
" clip-path="url(#pa7597d014d)" style="fill: none; stroke: #ff5714; stroke-opacity: 0.4; stroke-width: 1.2; stroke-linecap: round"/>
   </g>
   <g id="line2d_44">
    <path d="M 163.230107 68.402773 
L 386.922107 43.887778 
" clip-path="url(#pa7597d014d)" style="fill: none; stroke: #04e762; stroke-opacity: 0.4; stroke-width: 1.2; stroke-linecap: round"/>
   </g>
   <g id="line2d_45">
    <path d="M 161.171051 43.559345 
L 384.863051 117.104331 
" clip-path="url(#pa7597d014d)" style="fill: none; stroke: #ff5714; stroke-opacity: 0.4; stroke-width: 1.2; stroke-linecap: round"/>
   </g>
   <g id="line2d_46">
    <path d="M 166.755639 71.158027 
L 390.447639 120.188017 
" clip-path="url(#pa7597d014d)" style="fill: none; stroke: #ff5714; stroke-opacity: 0.4; stroke-width: 1.2; stroke-linecap: round"/>
   </g>
   <g id="line2d_47">
    <path d="M 157.47247 179.098208 
L 381.16447 179.098208 
" clip-path="url(#pa7597d014d)" style="fill: none; stroke: #808080; stroke-opacity: 0.4; stroke-width: 1.2; stroke-linecap: round"/>
   </g>
   <g id="line2d_48">
    <path d="M 149.584628 60.581772 
L 373.276628 183.156747 
" clip-path="url(#pa7597d014d)" style="fill: none; stroke: #ff5714; stroke-opacity: 0.4; stroke-width: 1.2; stroke-linecap: round"/>
   </g>
   <g id="line2d_49">
    <path d="M 162.864115 49.078142 
L 386.556115 98.108132 
" clip-path="url(#pa7597d014d)" style="fill: none; stroke: #ff5714; stroke-opacity: 0.4; stroke-width: 1.2; stroke-linecap: round"/>
   </g>
   <g id="line2d_50">
    <path d="M 163.927553 151.925028 
L 387.619553 249.985008 
" clip-path="url(#pa7597d014d)" style="fill: none; stroke: #ff5714; stroke-opacity: 0.4; stroke-width: 1.2; stroke-linecap: round"/>
   </g>
   <g id="line2d_51">
    <path d="M 159.464722 84.618899 
L 383.156722 158.163884 
" clip-path="url(#pa7597d014d)" style="fill: none; stroke: #ff5714; stroke-opacity: 0.4; stroke-width: 1.2; stroke-linecap: round"/>
   </g>
   <g id="line2d_52">
    <path d="M 164.155319 126.330895 
L 387.847319 224.390875 
" clip-path="url(#pa7597d014d)" style="fill: none; stroke: #ff5714; stroke-opacity: 0.4; stroke-width: 1.2; stroke-linecap: round"/>
   </g>
   <g id="line2d_53">
    <path d="M 157.955212 110.85288 
L 381.647212 61.82289 
" clip-path="url(#pa7597d014d)" style="fill: none; stroke: #04e762; stroke-opacity: 0.4; stroke-width: 1.2; stroke-linecap: round"/>
   </g>
   <g id="line2d_54">
    <path d="M 158.602515 69.178724 
L 382.294515 142.723709 
" clip-path="url(#pa7597d014d)" style="fill: none; stroke: #ff5714; stroke-opacity: 0.4; stroke-width: 1.2; stroke-linecap: round"/>
   </g>
   <g id="line2d_55">
    <path d="M 156.473151 81.93712 
L 380.165151 81.93712 
" clip-path="url(#pa7597d014d)" style="fill: none; stroke: #808080; stroke-opacity: 0.4; stroke-width: 1.2; stroke-linecap: round"/>
   </g>
   <g id="line2d_56">
    <path d="M 147.478006 49.503933 
L 371.170006 172.078908 
" clip-path="url(#pa7597d014d)" style="fill: none; stroke: #ff5714; stroke-opacity: 0.4; stroke-width: 1.2; stroke-linecap: round"/>
   </g>
   <g id="line2d_57">
    <path d="M 149.322845 105.414031 
L 373.014845 129.929026 
" clip-path="url(#pa7597d014d)" style="fill: none; stroke: #ff5714; stroke-opacity: 0.4; stroke-width: 1.2; stroke-linecap: round"/>
   </g>
   <g id="line2d_58">
    <path d="M 147.612446 101.327735 
L 371.304446 346.477686 
" clip-path="url(#pa7597d014d)" style="fill: none; stroke: #ff5714; stroke-opacity: 0.4; stroke-width: 1.2; stroke-linecap: round"/>
   </g>
   <g id="line2d_59">
    <path d="M 161.145392 51.775237 
L 384.837392 51.775237 
" clip-path="url(#pa7597d014d)" style="fill: none; stroke: #808080; stroke-opacity: 0.4; stroke-width: 1.2; stroke-linecap: round"/>
   </g>
   <g id="line2d_60">
    <path d="M 153.941292 132.416937 
L 377.633292 132.416937 
" clip-path="url(#pa7597d014d)" style="fill: none; stroke: #808080; stroke-opacity: 0.4; stroke-width: 1.2; stroke-linecap: round"/>
   </g>
   <g id="line2d_61">
    <path d="M 158.28572 166.056802 
L 381.97772 117.026812 
" clip-path="url(#pa7597d014d)" style="fill: none; stroke: #04e762; stroke-opacity: 0.4; stroke-width: 1.2; stroke-linecap: round"/>
   </g>
   <g id="line2d_62">
    <path d="M 167.210936 71.81041 
L 390.902936 120.8404 
" clip-path="url(#pa7597d014d)" style="fill: none; stroke: #ff5714; stroke-opacity: 0.4; stroke-width: 1.2; stroke-linecap: round"/>
   </g>
   <g id="line2d_63">
    <path d="M 152.485868 166.646843 
L 376.177868 289.221818 
" clip-path="url(#pa7597d014d)" style="fill: none; stroke: #ff5714; stroke-opacity: 0.4; stroke-width: 1.2; stroke-linecap: round"/>
   </g>
   <g id="PathCollection_2">
    <g clip-path="url(#pa7597d014d)">
     <use xlink:href="#m8c245b537e" x="390.617972" y="177.726813" style="fill-opacity: 0.9; stroke: #000000; stroke-opacity: 0.9; stroke-width: 0.8"/>
     <use xlink:href="#m8c245b537e" x="383.975944" y="362.546847" style="fill-opacity: 0.9; stroke: #000000; stroke-opacity: 0.9; stroke-width: 0.8"/>
     <use xlink:href="#m8c245b537e" x="391.222989" y="97.171445" style="fill-opacity: 0.9; stroke: #000000; stroke-opacity: 0.9; stroke-width: 0.8"/>
     <use xlink:href="#m8c245b537e" x="372.580906" y="246.87639" style="fill-opacity: 0.9; stroke: #000000; stroke-opacity: 0.9; stroke-width: 0.8"/>
     <use xlink:href="#m8c245b537e" x="374.98538" y="59.43748" style="fill-opacity: 0.9; stroke: #000000; stroke-opacity: 0.9; stroke-width: 0.8"/>
     <use xlink:href="#m8c245b537e" x="371.613098" y="59.437953" style="fill-opacity: 0.9; stroke: #000000; stroke-opacity: 0.9; stroke-width: 0.8"/>
     <use xlink:href="#m8c245b537e" x="377.878779" y="306.508132" style="fill-opacity: 0.9; stroke: #000000; stroke-opacity: 0.9; stroke-width: 0.8"/>
     <use xlink:href="#m8c245b537e" x="379.2958" y="94.539864" style="fill-opacity: 0.9; stroke: #000000; stroke-opacity: 0.9; stroke-width: 0.8"/>
     <use xlink:href="#m8c245b537e" x="376.671261" y="344.888192" style="fill-opacity: 0.9; stroke: #000000; stroke-opacity: 0.9; stroke-width: 0.8"/>
     <use xlink:href="#m8c245b537e" x="389.139595" y="220.215566" style="fill-opacity: 0.9; stroke: #000000; stroke-opacity: 0.9; stroke-width: 0.8"/>
     <use xlink:href="#m8c245b537e" x="378.581687" y="282.728569" style="fill-opacity: 0.9; stroke: #000000; stroke-opacity: 0.9; stroke-width: 0.8"/>
     <use xlink:href="#m8c245b537e" x="376.88568" y="288.625399" style="fill-opacity: 0.9; stroke: #000000; stroke-opacity: 0.9; stroke-width: 0.8"/>
     <use xlink:href="#m8c245b537e" x="382.741077" y="168.74643" style="fill-opacity: 0.9; stroke: #000000; stroke-opacity: 0.9; stroke-width: 0.8"/>
     <use xlink:href="#m8c245b537e" x="373.753762" y="107.362913" style="fill-opacity: 0.9; stroke: #000000; stroke-opacity: 0.9; stroke-width: 0.8"/>
     <use xlink:href="#m8c245b537e" x="388.545905" y="304.081317" style="fill-opacity: 0.9; stroke: #000000; stroke-opacity: 0.9; stroke-width: 0.8"/>
     <use xlink:href="#m8c245b537e" x="372.269038" y="205.990359" style="fill-opacity: 0.9; stroke: #000000; stroke-opacity: 0.9; stroke-width: 0.8"/>
     <use xlink:href="#m8c245b537e" x="392.677271" y="326.195465" style="fill-opacity: 0.9; stroke: #000000; stroke-opacity: 0.9; stroke-width: 0.8"/>
     <use xlink:href="#m8c245b537e" x="387.875898" y="174.780771" style="fill-opacity: 0.9; stroke: #000000; stroke-opacity: 0.9; stroke-width: 0.8"/>
     <use xlink:href="#m8c245b537e" x="375.046511" y="299.175963" style="fill-opacity: 0.9; stroke: #000000; stroke-opacity: 0.9; stroke-width: 0.8"/>
     <use xlink:href="#m8c245b537e" x="370.724925" y="154.845712" style="fill-opacity: 0.9; stroke: #000000; stroke-opacity: 0.9; stroke-width: 0.8"/>
     <use xlink:href="#m8c245b537e" x="388.84262" y="148.557641" style="fill-opacity: 0.9; stroke: #000000; stroke-opacity: 0.9; stroke-width: 0.8"/>
     <use xlink:href="#m8c245b537e" x="386.413233" y="108.791554" style="fill-opacity: 0.9; stroke: #000000; stroke-opacity: 0.9; stroke-width: 0.8"/>
     <use xlink:href="#m8c245b537e" x="386.908707" y="81.282772" style="fill-opacity: 0.9; stroke: #000000; stroke-opacity: 0.9; stroke-width: 0.8"/>
     <use xlink:href="#m8c245b537e" x="387.854101" y="104.34222" style="fill-opacity: 0.9; stroke: #000000; stroke-opacity: 0.9; stroke-width: 0.8"/>
     <use xlink:href="#m8c245b537e" x="372.25772" y="127.097859" style="fill-opacity: 0.9; stroke: #000000; stroke-opacity: 0.9; stroke-width: 0.8"/>
     <use xlink:href="#m8c245b537e" x="378.619992" y="145.158429" style="fill-opacity: 0.9; stroke: #000000; stroke-opacity: 0.9; stroke-width: 0.8"/>
     <use xlink:href="#m8c245b537e" x="373.193298" y="58.581316" style="fill-opacity: 0.9; stroke: #000000; stroke-opacity: 0.9; stroke-width: 0.8"/>
     <use xlink:href="#m8c245b537e" x="389.908333" y="52.412153" style="fill-opacity: 0.9; stroke: #000000; stroke-opacity: 0.9; stroke-width: 0.8"/>
     <use xlink:href="#m8c245b537e" x="384.54408" y="173.45386" style="fill-opacity: 0.9; stroke: #000000; stroke-opacity: 0.9; stroke-width: 0.8"/>
     <use xlink:href="#m8c245b537e" x="378.003324" y="61.586332" style="fill-opacity: 0.9; stroke: #000000; stroke-opacity: 0.9; stroke-width: 0.8"/>
     <use xlink:href="#m8c245b537e" x="372.023149" y="50.58215" style="fill-opacity: 0.9; stroke: #000000; stroke-opacity: 0.9; stroke-width: 0.8"/>
     <use xlink:href="#m8c245b537e" x="377.557826" y="181.727974" style="fill-opacity: 0.9; stroke: #000000; stroke-opacity: 0.9; stroke-width: 0.8"/>
     <use xlink:href="#m8c245b537e" x="377.875491" y="183.796501" style="fill-opacity: 0.9; stroke: #000000; stroke-opacity: 0.9; stroke-width: 0.8"/>
     <use xlink:href="#m8c245b537e" x="386.922107" y="43.887778" style="fill-opacity: 0.9; stroke: #000000; stroke-opacity: 0.9; stroke-width: 0.8"/>
     <use xlink:href="#m8c245b537e" x="384.863051" y="117.104331" style="fill-opacity: 0.9; stroke: #000000; stroke-opacity: 0.9; stroke-width: 0.8"/>
     <use xlink:href="#m8c245b537e" x="390.447639" y="120.188017" style="fill-opacity: 0.9; stroke: #000000; stroke-opacity: 0.9; stroke-width: 0.8"/>
     <use xlink:href="#m8c245b537e" x="381.16447" y="179.098208" style="fill-opacity: 0.9; stroke: #000000; stroke-opacity: 0.9; stroke-width: 0.8"/>
     <use xlink:href="#m8c245b537e" x="373.276628" y="183.156747" style="fill-opacity: 0.9; stroke: #000000; stroke-opacity: 0.9; stroke-width: 0.8"/>
     <use xlink:href="#m8c245b537e" x="386.556115" y="98.108132" style="fill-opacity: 0.9; stroke: #000000; stroke-opacity: 0.9; stroke-width: 0.8"/>
     <use xlink:href="#m8c245b537e" x="387.619553" y="249.985008" style="fill-opacity: 0.9; stroke: #000000; stroke-opacity: 0.9; stroke-width: 0.8"/>
     <use xlink:href="#m8c245b537e" x="383.156722" y="158.163884" style="fill-opacity: 0.9; stroke: #000000; stroke-opacity: 0.9; stroke-width: 0.8"/>
     <use xlink:href="#m8c245b537e" x="387.847319" y="224.390875" style="fill-opacity: 0.9; stroke: #000000; stroke-opacity: 0.9; stroke-width: 0.8"/>
     <use xlink:href="#m8c245b537e" x="381.647212" y="61.82289" style="fill-opacity: 0.9; stroke: #000000; stroke-opacity: 0.9; stroke-width: 0.8"/>
     <use xlink:href="#m8c245b537e" x="382.294515" y="142.723709" style="fill-opacity: 0.9; stroke: #000000; stroke-opacity: 0.9; stroke-width: 0.8"/>
     <use xlink:href="#m8c245b537e" x="380.165151" y="81.93712" style="fill-opacity: 0.9; stroke: #000000; stroke-opacity: 0.9; stroke-width: 0.8"/>
     <use xlink:href="#m8c245b537e" x="371.170006" y="172.078908" style="fill-opacity: 0.9; stroke: #000000; stroke-opacity: 0.9; stroke-width: 0.8"/>
     <use xlink:href="#m8c245b537e" x="373.014845" y="129.929026" style="fill-opacity: 0.9; stroke: #000000; stroke-opacity: 0.9; stroke-width: 0.8"/>
     <use xlink:href="#m8c245b537e" x="371.304446" y="346.477686" style="fill-opacity: 0.9; stroke: #000000; stroke-opacity: 0.9; stroke-width: 0.8"/>
     <use xlink:href="#m8c245b537e" x="384.837392" y="51.775237" style="fill-opacity: 0.9; stroke: #000000; stroke-opacity: 0.9; stroke-width: 0.8"/>
     <use xlink:href="#m8c245b537e" x="377.633292" y="132.416937" style="fill-opacity: 0.9; stroke: #000000; stroke-opacity: 0.9; stroke-width: 0.8"/>
     <use xlink:href="#m8c245b537e" x="381.97772" y="117.026812" style="fill-opacity: 0.9; stroke: #000000; stroke-opacity: 0.9; stroke-width: 0.8"/>
     <use xlink:href="#m8c245b537e" x="390.902936" y="120.8404" style="fill-opacity: 0.9; stroke: #000000; stroke-opacity: 0.9; stroke-width: 0.8"/>
     <use xlink:href="#m8c245b537e" x="376.177868" y="289.221818" style="fill-opacity: 0.9; stroke: #000000; stroke-opacity: 0.9; stroke-width: 0.8"/>
    </g>
   </g>
   <g id="line2d_64">
    <path d="M 141.3171 101.721309 
L 174.8709 101.721309 
" clip-path="url(#pa7597d014d)" style="fill: none; stroke: #000000"/>
   </g>
   <g id="line2d_65">
    <path d="M 365.0091 150.751299 
L 398.5629 150.751299 
" clip-path="url(#pa7597d014d)" style="fill: none; stroke: #000000"/>
   </g>
   <g id="patch_5">
    <path d="M 46.248 387.7776 
L 46.248 27.168 
" style="fill: none; stroke: #262626; stroke-linejoin: miter; stroke-linecap: square"/>
   </g>
   <g id="patch_6">
    <path d="M 46.248 387.7776 
L 493.632 387.7776 
" style="fill: none; stroke: #262626; stroke-linejoin: miter; stroke-linecap: square"/>
   </g>
   <g id="text_11">
    <g id="patch_7">
     <path d="M 181.017031 467.293265 
L 358.862969 467.293265 
L 358.862969 448.727328 
L 181.017031 448.727328 
z
" style="fill: #ffffff; opacity: 0.6"/>
    </g>
    <!-- Mean  (Pre-Post): 2.23  3.42 -->
    <g style="fill: #262626" transform="translate(184.977031 461.045609) scale(0.11 -0.11)">
     <defs>
      <path id="DejaVuSans-61" d="M 2194 1759 
Q 1497 1759 1228 1600 
Q 959 1441 959 1056 
Q 959 750 1161 570 
Q 1363 391 1709 391 
Q 2188 391 2477 730 
Q 2766 1069 2766 1631 
L 2766 1759 
L 2194 1759 
z
M 3341 1997 
L 3341 0 
L 2766 0 
L 2766 531 
Q 2569 213 2275 61 
Q 1981 -91 1556 -91 
Q 1019 -91 701 211 
Q 384 513 384 1019 
Q 384 1609 779 1909 
Q 1175 2209 1959 2209 
L 2766 2209 
L 2766 2266 
Q 2766 2663 2505 2880 
Q 2244 3097 1772 3097 
Q 1472 3097 1187 3025 
Q 903 2953 641 2809 
L 641 3341 
Q 956 3463 1253 3523 
Q 1550 3584 1831 3584 
Q 2591 3584 2966 3190 
Q 3341 2797 3341 1997 
z
" transform="scale(0.015625)"/>
      <path id="DejaVuSans-6e" d="M 3513 2113 
L 3513 0 
L 2938 0 
L 2938 2094 
Q 2938 2591 2744 2837 
Q 2550 3084 2163 3084 
Q 1697 3084 1428 2787 
Q 1159 2491 1159 1978 
L 1159 0 
L 581 0 
L 581 3500 
L 1159 3500 
L 1159 2956 
Q 1366 3272 1645 3428 
Q 1925 3584 2291 3584 
Q 2894 3584 3203 3211 
Q 3513 2838 3513 2113 
z
" transform="scale(0.015625)"/>
      <path id="DejaVuSans-20" transform="scale(0.015625)"/>
      <path id="DejaVuSans-394" d="M 2188 4044 
L 906 525 
L 3472 525 
L 2188 4044 
z
M 50 0 
L 1831 4666 
L 2547 4666 
L 4325 0 
L 50 0 
z
" transform="scale(0.015625)"/>
      <path id="DejaVuSans-28" d="M 1984 4856 
Q 1566 4138 1362 3434 
Q 1159 2731 1159 2009 
Q 1159 1288 1364 580 
Q 1569 -128 1984 -844 
L 1484 -844 
Q 1016 -109 783 600 
Q 550 1309 550 2009 
Q 550 2706 781 3412 
Q 1013 4119 1484 4856 
L 1984 4856 
z
" transform="scale(0.015625)"/>
      <path id="DejaVuSans-2d" d="M 313 2009 
L 1997 2009 
L 1997 1497 
L 313 1497 
L 313 2009 
z
" transform="scale(0.015625)"/>
      <path id="DejaVuSans-29" d="M 513 4856 
L 1013 4856 
Q 1481 4119 1714 3412 
Q 1947 2706 1947 2009 
Q 1947 1309 1714 600 
Q 1481 -109 1013 -844 
L 513 -844 
Q 928 -128 1133 580 
Q 1338 1288 1338 2009 
Q 1338 2731 1133 3434 
Q 928 4138 513 4856 
z
" transform="scale(0.015625)"/>
      <path id="DejaVuSans-3a" d="M 750 794 
L 1409 794 
L 1409 0 
L 750 0 
L 750 794 
z
M 750 3309 
L 1409 3309 
L 1409 2516 
L 750 2516 
L 750 3309 
z
" transform="scale(0.015625)"/>
      <path id="DejaVuSans-2e" d="M 684 794 
L 1344 794 
L 1344 0 
L 684 0 
L 684 794 
z
" transform="scale(0.015625)"/>
      <path id="DejaVuSans-b1" d="M 2944 4013 
L 2944 2803 
L 4684 2803 
L 4684 2272 
L 2944 2272 
L 2944 1063 
L 2419 1063 
L 2419 2272 
L 678 2272 
L 678 2803 
L 2419 2803 
L 2419 4013 
L 2944 4013 
z
M 678 531 
L 4684 531 
L 4684 0 
L 678 0 
L 678 531 
z
" transform="scale(0.015625)"/>
     </defs>
     <use xlink:href="#DejaVuSans-4d"/>
     <use xlink:href="#DejaVuSans-65" transform="translate(86.279297 0)"/>
     <use xlink:href="#DejaVuSans-61" transform="translate(147.802734 0)"/>
     <use xlink:href="#DejaVuSans-6e" transform="translate(209.082031 0)"/>
     <use xlink:href="#DejaVuSans-20" transform="translate(272.460938 0)"/>
     <use xlink:href="#DejaVuSans-394" transform="translate(304.248047 0)"/>
     <use xlink:href="#DejaVuSans-20" transform="translate(372.65625 0)"/>
     <use xlink:href="#DejaVuSans-28" transform="translate(404.443359 0)"/>
     <use xlink:href="#DejaVuSans-50" transform="translate(443.457031 0)"/>
     <use xlink:href="#DejaVuSans-72" transform="translate(502.009766 0)"/>
     <use xlink:href="#DejaVuSans-65" transform="translate(540.873047 0)"/>
     <use xlink:href="#DejaVuSans-2d" transform="translate(602.396484 0)"/>
     <use xlink:href="#DejaVuSans-50" transform="translate(638.480469 0)"/>
     <use xlink:href="#DejaVuSans-6f" transform="translate(695.158203 0)"/>
     <use xlink:href="#DejaVuSans-73" transform="translate(756.339844 0)"/>
     <use xlink:href="#DejaVuSans-74" transform="translate(808.439453 0)"/>
     <use xlink:href="#DejaVuSans-29" transform="translate(847.648438 0)"/>
     <use xlink:href="#DejaVuSans-3a" transform="translate(886.662109 0)"/>
     <use xlink:href="#DejaVuSans-20" transform="translate(920.353516 0)"/>
     <use xlink:href="#DejaVuSans-32" transform="translate(952.140625 0)"/>
     <use xlink:href="#DejaVuSans-2e" transform="translate(1015.763672 0)"/>
     <use xlink:href="#DejaVuSans-32" transform="translate(1047.550781 0)"/>
     <use xlink:href="#DejaVuSans-33" transform="translate(1111.173828 0)"/>
     <use xlink:href="#DejaVuSans-20" transform="translate(1174.796875 0)"/>
     <use xlink:href="#DejaVuSans-b1" transform="translate(1206.583984 0)"/>
     <use xlink:href="#DejaVuSans-20" transform="translate(1290.373047 0)"/>
     <use xlink:href="#DejaVuSans-33" transform="translate(1322.160156 0)"/>
     <use xlink:href="#DejaVuSans-2e" transform="translate(1385.783203 0)"/>
     <use xlink:href="#DejaVuSans-34" transform="translate(1417.570312 0)"/>
     <use xlink:href="#DejaVuSans-32" transform="translate(1481.193359 0)"/>
    </g>
   </g>
   <g id="text_12">
    <!-- MoCA Raincloud Plot  N=53 -->
    <g style="fill: #262626" transform="translate(173.505156 21.168) scale(0.14 -0.14)">
     <defs>
      <path id="DejaVuSans-52" d="M 2841 2188 
Q 3044 2119 3236 1894 
Q 3428 1669 3622 1275 
L 4263 0 
L 3584 0 
L 2988 1197 
Q 2756 1666 2539 1819 
Q 2322 1972 1947 1972 
L 1259 1972 
L 1259 0 
L 628 0 
L 628 4666 
L 2053 4666 
Q 2853 4666 3247 4331 
Q 3641 3997 3641 3322 
Q 3641 2881 3436 2590 
Q 3231 2300 2841 2188 
z
M 1259 4147 
L 1259 2491 
L 2053 2491 
Q 2509 2491 2742 2702 
Q 2975 2913 2975 3322 
Q 2975 3731 2742 3939 
Q 2509 4147 2053 4147 
L 1259 4147 
z
" transform="scale(0.015625)"/>
      <path id="DejaVuSans-69" d="M 603 3500 
L 1178 3500 
L 1178 0 
L 603 0 
L 603 3500 
z
M 603 4863 
L 1178 4863 
L 1178 4134 
L 603 4134 
L 603 4863 
z
" transform="scale(0.015625)"/>
      <path id="DejaVuSans-63" d="M 3122 3366 
L 3122 2828 
Q 2878 2963 2633 3030 
Q 2388 3097 2138 3097 
Q 1578 3097 1268 2742 
Q 959 2388 959 1747 
Q 959 1106 1268 751 
Q 1578 397 2138 397 
Q 2388 397 2633 464 
Q 2878 531 3122 666 
L 3122 134 
Q 2881 22 2623 -34 
Q 2366 -91 2075 -91 
Q 1284 -91 818 406 
Q 353 903 353 1747 
Q 353 2603 823 3093 
Q 1294 3584 2113 3584 
Q 2378 3584 2631 3529 
Q 2884 3475 3122 3366 
z
" transform="scale(0.015625)"/>
      <path id="DejaVuSans-6c" d="M 603 4863 
L 1178 4863 
L 1178 0 
L 603 0 
L 603 4863 
z
" transform="scale(0.015625)"/>
      <path id="DejaVuSans-75" d="M 544 1381 
L 544 3500 
L 1119 3500 
L 1119 1403 
Q 1119 906 1312 657 
Q 1506 409 1894 409 
Q 2359 409 2629 706 
Q 2900 1003 2900 1516 
L 2900 3500 
L 3475 3500 
L 3475 0 
L 2900 0 
L 2900 538 
Q 2691 219 2414 64 
Q 2138 -91 1772 -91 
Q 1169 -91 856 284 
Q 544 659 544 1381 
z
M 1991 3584 
L 1991 3584 
z
" transform="scale(0.015625)"/>
      <path id="DejaVuSans-64" d="M 2906 2969 
L 2906 4863 
L 3481 4863 
L 3481 0 
L 2906 0 
L 2906 525 
Q 2725 213 2448 61 
Q 2172 -91 1784 -91 
Q 1150 -91 751 415 
Q 353 922 353 1747 
Q 353 2572 751 3078 
Q 1150 3584 1784 3584 
Q 2172 3584 2448 3432 
Q 2725 3281 2906 2969 
z
M 947 1747 
Q 947 1113 1208 752 
Q 1469 391 1925 391 
Q 2381 391 2643 752 
Q 2906 1113 2906 1747 
Q 2906 2381 2643 2742 
Q 2381 3103 1925 3103 
Q 1469 3103 1208 2742 
Q 947 2381 947 1747 
z
" transform="scale(0.015625)"/>
      <path id="DejaVuSans-4e" d="M 628 4666 
L 1478 4666 
L 3547 763 
L 3547 4666 
L 4159 4666 
L 4159 0 
L 3309 0 
L 1241 3903 
L 1241 0 
L 628 0 
L 628 4666 
z
" transform="scale(0.015625)"/>
      <path id="DejaVuSans-3d" d="M 678 2906 
L 4684 2906 
L 4684 2381 
L 678 2381 
L 678 2906 
z
M 678 1631 
L 4684 1631 
L 4684 1100 
L 678 1100 
L 678 1631 
z
" transform="scale(0.015625)"/>
      <path id="DejaVuSans-35" d="M 691 4666 
L 3169 4666 
L 3169 4134 
L 1269 4134 
L 1269 2991 
Q 1406 3038 1543 3061 
Q 1681 3084 1819 3084 
Q 2600 3084 3056 2656 
Q 3513 2228 3513 1497 
Q 3513 744 3044 326 
Q 2575 -91 1722 -91 
Q 1428 -91 1123 -41 
Q 819 9 494 109 
L 494 744 
Q 775 591 1075 516 
Q 1375 441 1709 441 
Q 2250 441 2565 725 
Q 2881 1009 2881 1497 
Q 2881 1984 2565 2268 
Q 2250 2553 1709 2553 
Q 1456 2553 1204 2497 
Q 953 2441 691 2322 
L 691 4666 
z
" transform="scale(0.015625)"/>
     </defs>
     <use xlink:href="#DejaVuSans-4d"/>
     <use xlink:href="#DejaVuSans-6f" transform="translate(86.279297 0)"/>
     <use xlink:href="#DejaVuSans-43" transform="translate(147.460938 0)"/>
     <use xlink:href="#DejaVuSans-41" transform="translate(217.285156 0)"/>
     <use xlink:href="#DejaVuSans-20" transform="translate(285.693359 0)"/>
     <use xlink:href="#DejaVuSans-52" transform="translate(317.480469 0)"/>
     <use xlink:href="#DejaVuSans-61" transform="translate(384.712891 0)"/>
     <use xlink:href="#DejaVuSans-69" transform="translate(445.992188 0)"/>
     <use xlink:href="#DejaVuSans-6e" transform="translate(473.775391 0)"/>
     <use xlink:href="#DejaVuSans-63" transform="translate(537.154297 0)"/>
     <use xlink:href="#DejaVuSans-6c" transform="translate(592.134766 0)"/>
     <use xlink:href="#DejaVuSans-6f" transform="translate(619.917969 0)"/>
     <use xlink:href="#DejaVuSans-75" transform="translate(681.099609 0)"/>
     <use xlink:href="#DejaVuSans-64" transform="translate(744.478516 0)"/>
     <use xlink:href="#DejaVuSans-20" transform="translate(807.955078 0)"/>
     <use xlink:href="#DejaVuSans-50" transform="translate(839.742188 0)"/>
     <use xlink:href="#DejaVuSans-6c" transform="translate(900.044922 0)"/>
     <use xlink:href="#DejaVuSans-6f" transform="translate(927.828125 0)"/>
     <use xlink:href="#DejaVuSans-74" transform="translate(989.009766 0)"/>
     <use xlink:href="#DejaVuSans-20" transform="translate(1028.21875 0)"/>
     <use xlink:href="#DejaVuSans-20" transform="translate(1060.005859 0)"/>
     <use xlink:href="#DejaVuSans-4e" transform="translate(1091.792969 0)"/>
     <use xlink:href="#DejaVuSans-3d" transform="translate(1166.597656 0)"/>
     <use xlink:href="#DejaVuSans-35" transform="translate(1250.386719 0)"/>
     <use xlink:href="#DejaVuSans-33" transform="translate(1314.009766 0)"/>
    </g>
   </g>
   <g id="legend_1">
    <g id="patch_8">
     <path d="M 52.408 72.95825 
L 139.763125 72.95825 
Q 141.523125 72.95825 141.523125 71.19825 
L 141.523125 33.328 
Q 141.523125 31.568 139.763125 31.568 
L 52.408 31.568 
Q 50.648 31.568 50.648 33.328 
L 50.648 71.19825 
Q 50.648 72.95825 52.408 72.95825 
z
" style="fill: #ffffff; opacity: 0.8; stroke: #cccccc; stroke-width: 0.8; stroke-linejoin: miter"/>
    </g>
    <g id="line2d_66">
     <path d="M 54.168 38.694625 
L 62.968 38.694625 
L 71.768 38.694625 
" style="fill: none; stroke: #04e762; stroke-width: 2; stroke-linecap: round"/>
    </g>
    <g id="text_13">
     <!-- Improvement -->
     <g style="fill: #262626" transform="translate(78.808 41.774625) scale(0.088 -0.088)">
      <defs>
       <path id="DejaVuSans-49" d="M 628 4666 
L 1259 4666 
L 1259 0 
L 628 0 
L 628 4666 
z
" transform="scale(0.015625)"/>
       <path id="DejaVuSans-6d" d="M 3328 2828 
Q 3544 3216 3844 3400 
Q 4144 3584 4550 3584 
Q 5097 3584 5394 3201 
Q 5691 2819 5691 2113 
L 5691 0 
L 5113 0 
L 5113 2094 
Q 5113 2597 4934 2840 
Q 4756 3084 4391 3084 
Q 3944 3084 3684 2787 
Q 3425 2491 3425 1978 
L 3425 0 
L 2847 0 
L 2847 2094 
Q 2847 2600 2669 2842 
Q 2491 3084 2119 3084 
Q 1678 3084 1418 2786 
Q 1159 2488 1159 1978 
L 1159 0 
L 581 0 
L 581 3500 
L 1159 3500 
L 1159 2956 
Q 1356 3278 1631 3431 
Q 1906 3584 2284 3584 
Q 2666 3584 2933 3390 
Q 3200 3197 3328 2828 
z
" transform="scale(0.015625)"/>
       <path id="DejaVuSans-70" d="M 1159 525 
L 1159 -1331 
L 581 -1331 
L 581 3500 
L 1159 3500 
L 1159 2969 
Q 1341 3281 1617 3432 
Q 1894 3584 2278 3584 
Q 2916 3584 3314 3078 
Q 3713 2572 3713 1747 
Q 3713 922 3314 415 
Q 2916 -91 2278 -91 
Q 1894 -91 1617 61 
Q 1341 213 1159 525 
z
M 3116 1747 
Q 3116 2381 2855 2742 
Q 2594 3103 2138 3103 
Q 1681 3103 1420 2742 
Q 1159 2381 1159 1747 
Q 1159 1113 1420 752 
Q 1681 391 2138 391 
Q 2594 391 2855 752 
Q 3116 1113 3116 1747 
z
" transform="scale(0.015625)"/>
       <path id="DejaVuSans-76" d="M 191 3500 
L 800 3500 
L 1894 563 
L 2988 3500 
L 3597 3500 
L 2284 0 
L 1503 0 
L 191 3500 
z
" transform="scale(0.015625)"/>
      </defs>
      <use xlink:href="#DejaVuSans-49"/>
      <use xlink:href="#DejaVuSans-6d" transform="translate(29.492188 0)"/>
      <use xlink:href="#DejaVuSans-70" transform="translate(126.904297 0)"/>
      <use xlink:href="#DejaVuSans-72" transform="translate(190.380859 0)"/>
      <use xlink:href="#DejaVuSans-6f" transform="translate(229.244141 0)"/>
      <use xlink:href="#DejaVuSans-76" transform="translate(290.425781 0)"/>
      <use xlink:href="#DejaVuSans-65" transform="translate(349.605469 0)"/>
      <use xlink:href="#DejaVuSans-6d" transform="translate(411.128906 0)"/>
      <use xlink:href="#DejaVuSans-65" transform="translate(508.541016 0)"/>
      <use xlink:href="#DejaVuSans-6e" transform="translate(570.064453 0)"/>
      <use xlink:href="#DejaVuSans-74" transform="translate(633.443359 0)"/>
     </g>
    </g>
    <g id="line2d_67">
     <path d="M 54.168 51.611375 
L 62.968 51.611375 
L 71.768 51.611375 
" style="fill: none; stroke: #ff5714; stroke-width: 2; stroke-linecap: round"/>
    </g>
    <g id="text_14">
     <!-- Deterioration -->
     <g style="fill: #262626" transform="translate(78.808 54.691375) scale(0.088 -0.088)">
      <defs>
       <path id="DejaVuSans-44" d="M 1259 4147 
L 1259 519 
L 2022 519 
Q 2988 519 3436 956 
Q 3884 1394 3884 2338 
Q 3884 3275 3436 3711 
Q 2988 4147 2022 4147 
L 1259 4147 
z
M 628 4666 
L 1925 4666 
Q 3281 4666 3915 4102 
Q 4550 3538 4550 2338 
Q 4550 1131 3912 565 
Q 3275 0 1925 0 
L 628 0 
L 628 4666 
z
" transform="scale(0.015625)"/>
      </defs>
      <use xlink:href="#DejaVuSans-44"/>
      <use xlink:href="#DejaVuSans-65" transform="translate(77.001953 0)"/>
      <use xlink:href="#DejaVuSans-74" transform="translate(138.525391 0)"/>
      <use xlink:href="#DejaVuSans-65" transform="translate(177.734375 0)"/>
      <use xlink:href="#DejaVuSans-72" transform="translate(239.257812 0)"/>
      <use xlink:href="#DejaVuSans-69" transform="translate(280.371094 0)"/>
      <use xlink:href="#DejaVuSans-6f" transform="translate(308.154297 0)"/>
      <use xlink:href="#DejaVuSans-72" transform="translate(369.335938 0)"/>
      <use xlink:href="#DejaVuSans-61" transform="translate(410.449219 0)"/>
      <use xlink:href="#DejaVuSans-74" transform="translate(471.728516 0)"/>
      <use xlink:href="#DejaVuSans-69" transform="translate(510.9375 0)"/>
      <use xlink:href="#DejaVuSans-6f" transform="translate(538.720703 0)"/>
      <use xlink:href="#DejaVuSans-6e" transform="translate(599.902344 0)"/>
     </g>
    </g>
    <g id="line2d_68">
     <path d="M 54.168 64.528125 
L 62.968 64.528125 
L 71.768 64.528125 
" style="fill: none; stroke: #808080; stroke-width: 2; stroke-linecap: round"/>
    </g>
    <g id="text_15">
     <!-- No change -->
     <g style="fill: #262626" transform="translate(78.808 67.608125) scale(0.088 -0.088)">
      <defs>
       <path id="DejaVuSans-68" d="M 3513 2113 
L 3513 0 
L 2938 0 
L 2938 2094 
Q 2938 2591 2744 2837 
Q 2550 3084 2163 3084 
Q 1697 3084 1428 2787 
Q 1159 2491 1159 1978 
L 1159 0 
L 581 0 
L 581 4863 
L 1159 4863 
L 1159 2956 
Q 1366 3272 1645 3428 
Q 1925 3584 2291 3584 
Q 2894 3584 3203 3211 
Q 3513 2838 3513 2113 
z
" transform="scale(0.015625)"/>
       <path id="DejaVuSans-67" d="M 2906 1791 
Q 2906 2416 2648 2759 
Q 2391 3103 1925 3103 
Q 1463 3103 1205 2759 
Q 947 2416 947 1791 
Q 947 1169 1205 825 
Q 1463 481 1925 481 
Q 2391 481 2648 825 
Q 2906 1169 2906 1791 
z
M 3481 434 
Q 3481 -459 3084 -895 
Q 2688 -1331 1869 -1331 
Q 1566 -1331 1297 -1286 
Q 1028 -1241 775 -1147 
L 775 -588 
Q 1028 -725 1275 -790 
Q 1522 -856 1778 -856 
Q 2344 -856 2625 -561 
Q 2906 -266 2906 331 
L 2906 616 
Q 2728 306 2450 153 
Q 2172 0 1784 0 
Q 1141 0 747 490 
Q 353 981 353 1791 
Q 353 2603 747 3093 
Q 1141 3584 1784 3584 
Q 2172 3584 2450 3431 
Q 2728 3278 2906 2969 
L 2906 3500 
L 3481 3500 
L 3481 434 
z
" transform="scale(0.015625)"/>
      </defs>
      <use xlink:href="#DejaVuSans-4e"/>
      <use xlink:href="#DejaVuSans-6f" transform="translate(74.804688 0)"/>
      <use xlink:href="#DejaVuSans-20" transform="translate(135.986328 0)"/>
      <use xlink:href="#DejaVuSans-63" transform="translate(167.773438 0)"/>
      <use xlink:href="#DejaVuSans-68" transform="translate(222.753906 0)"/>
      <use xlink:href="#DejaVuSans-61" transform="translate(286.132812 0)"/>
      <use xlink:href="#DejaVuSans-6e" transform="translate(347.412109 0)"/>
      <use xlink:href="#DejaVuSans-67" transform="translate(410.791016 0)"/>
      <use xlink:href="#DejaVuSans-65" transform="translate(474.267578 0)"/>
     </g>
    </g>
   </g>
  </g>
 </g>
 <defs>
  <clipPath id="pa7597d014d">
   <rect x="46.248" y="27.168" width="447.384" height="360.6096"/>
  </clipPath>
 </defs>
</svg>
