<?xml version="1.0" encoding="utf-8" standalone="no"?>
<!DOCTYPE svg PUBLIC "-//W3C//DTD SVG 1.1//EN"
  "http://www.w3.org/Graphics/SVG/1.1/DTD/svg11.dtd">
<svg xmlns:xlink="http://www.w3.org/1999/xlink" width="720pt" height="432pt" viewBox="0 0 720 432" xmlns="http://www.w3.org/2000/svg" version="1.1">
 <metadata>
  <rdf:RDF xmlns:dc="http://purl.org/dc/elements/1.1/" xmlns:cc="http://creativecommons.org/ns#" xmlns:rdf="http://www.w3.org/1999/02/22-rdf-syntax-ns#">
   <cc:Work>
    <dc:type rdf:resource="http://purl.org/dc/dcmitype/StillImage"/>
    <dc:date>2025-06-10T16:40:31.758328</dc:date>
    <dc:format>image/svg+xml</dc:format>
    <dc:creator>
     <cc:Agent>
      <dc:title>Matplotlib v3.10.0, https://matplotlib.org/</dc:title>
     </cc:Agent>
    </dc:creator>
   </cc:Work>
  </rdf:RDF>
 </metadata>
 <defs>
  <style type="text/css">*{stroke-linejoin: round; stroke-linecap: butt}</style>
 </defs>
 <g id="figure_1">
  <g id="patch_1">
   <path d="M 0 432 
L 720 432 
L 720 0 
L 0 0 
z
" style="fill: #ffffff"/>
  </g>
  <g id="axes_1">
   <g id="patch_2">
    <path d="M 64.838 387.592 
L 709.632 387.592 
L 709.632 27.168 
L 64.838 27.168 
z
" style="fill: #ffffff"/>
   </g>
   <g id="patch_3">
    <path d="M 64.838 387.592 
L 709.632 387.592 
L 709.632 207.38 
L 64.838 207.38 
z
" clip-path="url(#p7646e47348)" style="fill: #ff5714; opacity: 0.08; stroke: #ff5714; stroke-linejoin: miter"/>
   </g>
   <g id="patch_4">
    <path d="M 64.838 207.38 
L 709.632 207.38 
L 709.632 27.168 
L 64.838 27.168 
z
" clip-path="url(#p7646e47348)" style="fill: #04e762; opacity: 0.08; stroke: #04e762; stroke-linejoin: miter"/>
   </g>
   <g id="PathCollection_1">
    <defs>
     <path id="m49ad40fba6" d="M 0 3 
C 0.795609 3 1.55874 2.683901 2.12132 2.12132 
C 2.683901 1.55874 3 0.795609 3 0 
C 3 -0.795609 2.683901 -1.55874 2.12132 -2.12132 
C 1.55874 -2.683901 0.795609 -3 0 -3 
C -0.795609 -3 -1.55874 -2.683901 -2.12132 -2.12132 
C -2.683901 -1.55874 -3 -0.795609 -3 0 
C -3 0.795609 -2.683901 1.55874 -2.12132 2.12132 
C -1.55874 2.683901 -0.795609 3 0 3 
z
" style="stroke: #ffffff; stroke-opacity: 0.7; stroke-width: 0.48"/>
    </defs>
    <g clip-path="url(#p7646e47348)">
     <use xlink:href="#m49ad40fba6" x="282.560649" y="237.167107" style="fill: #1f77b4; fill-opacity: 0.7; stroke: #ffffff; stroke-opacity: 0.7; stroke-width: 0.48"/>
     <use xlink:href="#m49ad40fba6" x="282.560649" y="230.784156" style="fill: #1f77b4; fill-opacity: 0.7; stroke: #ffffff; stroke-opacity: 0.7; stroke-width: 0.48"/>
     <use xlink:href="#m49ad40fba6" x="303.495519" y="240.145818" style="fill: #1f77b4; fill-opacity: 0.7; stroke: #ffffff; stroke-opacity: 0.7; stroke-width: 0.48"/>
     <use xlink:href="#m49ad40fba6" x="345.36526" y="192.486446" style="fill: #1f77b4; fill-opacity: 0.7; stroke: #ffffff; stroke-opacity: 0.7; stroke-width: 0.48"/>
     <use xlink:href="#m49ad40fba6" x="303.495519" y="228.749012" style="fill: #1f77b4; fill-opacity: 0.7; stroke: #ffffff; stroke-opacity: 0.7; stroke-width: 0.48"/>
     <use xlink:href="#m49ad40fba6" x="303.495519" y="228.749012" style="fill: #1f77b4; fill-opacity: 0.7; stroke: #ffffff; stroke-opacity: 0.7; stroke-width: 0.48"/>
     <use xlink:href="#m49ad40fba6" x="156.951429" y="125.465455" style="fill: #1f77b4; fill-opacity: 0.7; stroke: #ffffff; stroke-opacity: 0.7; stroke-width: 0.48"/>
     <use xlink:href="#m49ad40fba6" x="429.10474" y="202.095191" style="fill: #1f77b4; fill-opacity: 0.7; stroke: #ffffff; stroke-opacity: 0.7; stroke-width: 0.48"/>
     <use xlink:href="#m49ad40fba6" x="282.560649" y="261.989697" style="fill: #1f77b4; fill-opacity: 0.7; stroke: #ffffff; stroke-opacity: 0.7; stroke-width: 0.48"/>
     <use xlink:href="#m49ad40fba6" x="387.235" y="201.312256" style="fill: #1f77b4; fill-opacity: 0.7; stroke: #ffffff; stroke-opacity: 0.7; stroke-width: 0.48"/>
     <use xlink:href="#m49ad40fba6" x="387.235" y="236.291016" style="fill: #1f77b4; fill-opacity: 0.7; stroke: #ffffff; stroke-opacity: 0.7; stroke-width: 0.48"/>
     <use xlink:href="#m49ad40fba6" x="324.43039" y="221.032424" style="fill: #1f77b4; fill-opacity: 0.7; stroke: #ffffff; stroke-opacity: 0.7; stroke-width: 0.48"/>
     <use xlink:href="#m49ad40fba6" x="156.951429" y="261.989697" style="fill: #1f77b4; fill-opacity: 0.7; stroke: #ffffff; stroke-opacity: 0.7; stroke-width: 0.48"/>
     <use xlink:href="#m49ad40fba6" x="219.756039" y="255.565027" style="fill: #1f77b4; fill-opacity: 0.7; stroke: #ffffff; stroke-opacity: 0.7; stroke-width: 0.48"/>
     <use xlink:href="#m49ad40fba6" x="240.690909" y="141.848364" style="fill: #1f77b4; fill-opacity: 0.7; stroke: #ffffff; stroke-opacity: 0.7; stroke-width: 0.48"/>
     <use xlink:href="#m49ad40fba6" x="219.756039" y="192.486446" style="fill: #1f77b4; fill-opacity: 0.7; stroke: #ffffff; stroke-opacity: 0.7; stroke-width: 0.48"/>
     <use xlink:href="#m49ad40fba6" x="219.756039" y="277.592468" style="fill: #1f77b4; fill-opacity: 0.7; stroke: #ffffff; stroke-opacity: 0.7; stroke-width: 0.48"/>
     <use xlink:href="#m49ad40fba6" x="282.560649" y="186.901364" style="fill: #1f77b4; fill-opacity: 0.7; stroke: #ffffff; stroke-opacity: 0.7; stroke-width: 0.48"/>
     <use xlink:href="#m49ad40fba6" x="345.36526" y="183.975844" style="fill: #1f77b4; fill-opacity: 0.7; stroke: #ffffff; stroke-opacity: 0.7; stroke-width: 0.48"/>
     <use xlink:href="#m49ad40fba6" x="596.583701" y="139.920963" style="fill: #1f77b4; fill-opacity: 0.7; stroke: #ffffff; stroke-opacity: 0.7; stroke-width: 0.48"/>
     <use xlink:href="#m49ad40fba6" x="177.886299" y="298.396162" style="fill: #1f77b4; fill-opacity: 0.7; stroke: #ffffff; stroke-opacity: 0.7; stroke-width: 0.48"/>
     <use xlink:href="#m49ad40fba6" x="219.756039" y="230.784156" style="fill: #1f77b4; fill-opacity: 0.7; stroke: #ffffff; stroke-opacity: 0.7; stroke-width: 0.48"/>
     <use xlink:href="#m49ad40fba6" x="303.495519" y="178.468984" style="fill: #1f77b4; fill-opacity: 0.7; stroke: #ffffff; stroke-opacity: 0.7; stroke-width: 0.48"/>
     <use xlink:href="#m49ad40fba6" x="94.146818" y="371.209091" style="fill: #1f77b4; fill-opacity: 0.7; stroke: #ffffff; stroke-opacity: 0.7; stroke-width: 0.48"/>
     <use xlink:href="#m49ad40fba6" x="282.560649" y="216.002584" style="fill: #1f77b4; fill-opacity: 0.7; stroke: #ffffff; stroke-opacity: 0.7; stroke-width: 0.48"/>
     <use xlink:href="#m49ad40fba6" x="617.518571" y="193.133992" style="fill: #1f77b4; fill-opacity: 0.7; stroke: #ffffff; stroke-opacity: 0.7; stroke-width: 0.48"/>
     <use xlink:href="#m49ad40fba6" x="177.886299" y="183.975844" style="fill: #1f77b4; fill-opacity: 0.7; stroke: #ffffff; stroke-opacity: 0.7; stroke-width: 0.48"/>
     <use xlink:href="#m49ad40fba6" x="240.690909" y="218.301939" style="fill: #1f77b4; fill-opacity: 0.7; stroke: #ffffff; stroke-opacity: 0.7; stroke-width: 0.48"/>
     <use xlink:href="#m49ad40fba6" x="240.690909" y="227.858636" style="fill: #1f77b4; fill-opacity: 0.7; stroke: #ffffff; stroke-opacity: 0.7; stroke-width: 0.48"/>
     <use xlink:href="#m49ad40fba6" x="282.560649" y="207.38" style="fill: #1f77b4; fill-opacity: 0.7; stroke: #ffffff; stroke-opacity: 0.7; stroke-width: 0.48"/>
     <use xlink:href="#m49ad40fba6" x="240.690909" y="162.699339" style="fill: #1f77b4; fill-opacity: 0.7; stroke: #ffffff; stroke-opacity: 0.7; stroke-width: 0.48"/>
     <use xlink:href="#m49ad40fba6" x="240.690909" y="84.508182" style="fill: #1f77b4; fill-opacity: 0.7; stroke: #ffffff; stroke-opacity: 0.7; stroke-width: 0.48"/>
     <use xlink:href="#m49ad40fba6" x="240.690909" y="218.301939" style="fill: #1f77b4; fill-opacity: 0.7; stroke: #ffffff; stroke-opacity: 0.7; stroke-width: 0.48"/>
     <use xlink:href="#m49ad40fba6" x="408.16987" y="157.518972" style="fill: #1f77b4; fill-opacity: 0.7; stroke: #ffffff; stroke-opacity: 0.7; stroke-width: 0.48"/>
     <use xlink:href="#m49ad40fba6" x="659.388312" y="186.901364" style="fill: #1f77b4; fill-opacity: 0.7; stroke: #ffffff; stroke-opacity: 0.7; stroke-width: 0.48"/>
     <use xlink:href="#m49ad40fba6" x="261.625779" y="152.770303" style="fill: #1f77b4; fill-opacity: 0.7; stroke: #ffffff; stroke-opacity: 0.7; stroke-width: 0.48"/>
     <use xlink:href="#m49ad40fba6" x="198.821169" y="289.294545" style="fill: #1f77b4; fill-opacity: 0.7; stroke: #ffffff; stroke-opacity: 0.7; stroke-width: 0.48"/>
     <use xlink:href="#m49ad40fba6" x="387.235" y="180.075152" style="fill: #1f77b4; fill-opacity: 0.7; stroke: #ffffff; stroke-opacity: 0.7; stroke-width: 0.48"/>
     <use xlink:href="#m49ad40fba6" x="512.844221" y="178.468984" style="fill: #1f77b4; fill-opacity: 0.7; stroke: #ffffff; stroke-opacity: 0.7; stroke-width: 0.48"/>
     <use xlink:href="#m49ad40fba6" x="324.43039" y="170.973535" style="fill: #1f77b4; fill-opacity: 0.7; stroke: #ffffff; stroke-opacity: 0.7; stroke-width: 0.48"/>
     <use xlink:href="#m49ad40fba6" x="345.36526" y="200.256996" style="fill: #1f77b4; fill-opacity: 0.7; stroke: #ffffff; stroke-opacity: 0.7; stroke-width: 0.48"/>
     <use xlink:href="#m49ad40fba6" x="177.886299" y="152.770303" style="fill: #1f77b4; fill-opacity: 0.7; stroke: #ffffff; stroke-opacity: 0.7; stroke-width: 0.48"/>
     <use xlink:href="#m49ad40fba6" x="680.323182" y="152.770303" style="fill: #1f77b4; fill-opacity: 0.7; stroke: #ffffff; stroke-opacity: 0.7; stroke-width: 0.48"/>
     <use xlink:href="#m49ad40fba6" x="512.844221" y="215.181385" style="fill: #1f77b4; fill-opacity: 0.7; stroke: #ffffff; stroke-opacity: 0.7; stroke-width: 0.48"/>
     <use xlink:href="#m49ad40fba6" x="177.886299" y="183.975844" style="fill: #1f77b4; fill-opacity: 0.7; stroke: #ffffff; stroke-opacity: 0.7; stroke-width: 0.48"/>
     <use xlink:href="#m49ad40fba6" x="303.495519" y="234.684848" style="fill: #1f77b4; fill-opacity: 0.7; stroke: #ffffff; stroke-opacity: 0.7; stroke-width: 0.48"/>
     <use xlink:href="#m49ad40fba6" x="261.625779" y="79.957374" style="fill: #1f77b4; fill-opacity: 0.7; stroke: #ffffff; stroke-opacity: 0.7; stroke-width: 0.48"/>
     <use xlink:href="#m49ad40fba6" x="366.30013" y="259.115502" style="fill: #1f77b4; fill-opacity: 0.7; stroke: #ffffff; stroke-opacity: 0.7; stroke-width: 0.48"/>
     <use xlink:href="#m49ad40fba6" x="638.453442" y="207.38" style="fill: #1f77b4; fill-opacity: 0.7; stroke: #ffffff; stroke-opacity: 0.7; stroke-width: 0.48"/>
     <use xlink:href="#m49ad40fba6" x="219.756039" y="319.473589" style="fill: #1f77b4; fill-opacity: 0.7; stroke: #ffffff; stroke-opacity: 0.7; stroke-width: 0.48"/>
     <use xlink:href="#m49ad40fba6" x="282.560649" y="207.38" style="fill: #1f77b4; fill-opacity: 0.7; stroke: #ffffff; stroke-opacity: 0.7; stroke-width: 0.48"/>
     <use xlink:href="#m49ad40fba6" x="219.756039" y="261.989697" style="fill: #1f77b4; fill-opacity: 0.7; stroke: #ffffff; stroke-opacity: 0.7; stroke-width: 0.48"/>
     <use xlink:href="#m49ad40fba6" x="450.03961" y="255.163485" style="fill: #1f77b4; fill-opacity: 0.7; stroke: #ffffff; stroke-opacity: 0.7; stroke-width: 0.48"/>
     <use xlink:href="#m49ad40fba6" x="261.625779" y="240.145818" style="fill: #1f77b4; fill-opacity: 0.7; stroke: #ffffff; stroke-opacity: 0.7; stroke-width: 0.48"/>
     <use xlink:href="#m49ad40fba6" x="156.951429" y="281.847769" style="fill: #1f77b4; fill-opacity: 0.7; stroke: #ffffff; stroke-opacity: 0.7; stroke-width: 0.48"/>
     <use xlink:href="#m49ad40fba6" x="345.36526" y="200.256996" style="fill: #1f77b4; fill-opacity: 0.7; stroke: #ffffff; stroke-opacity: 0.7; stroke-width: 0.48"/>
     <use xlink:href="#m49ad40fba6" x="408.16987" y="147.805785" style="fill: #1f77b4; fill-opacity: 0.7; stroke: #ffffff; stroke-opacity: 0.7; stroke-width: 0.48"/>
     <use xlink:href="#m49ad40fba6" x="282.560649" y="186.901364" style="fill: #1f77b4; fill-opacity: 0.7; stroke: #ffffff; stroke-opacity: 0.7; stroke-width: 0.48"/>
     <use xlink:href="#m49ad40fba6" x="282.560649" y="230.784156" style="fill: #1f77b4; fill-opacity: 0.7; stroke: #ffffff; stroke-opacity: 0.7; stroke-width: 0.48"/>
     <use xlink:href="#m49ad40fba6" x="261.625779" y="152.770303" style="fill: #1f77b4; fill-opacity: 0.7; stroke: #ffffff; stroke-opacity: 0.7; stroke-width: 0.48"/>
     <use xlink:href="#m49ad40fba6" x="282.560649" y="237.167107" style="fill: #1f77b4; fill-opacity: 0.7; stroke: #ffffff; stroke-opacity: 0.7; stroke-width: 0.48"/>
     <use xlink:href="#m49ad40fba6" x="261.625779" y="257.241028" style="fill: #1f77b4; fill-opacity: 0.7; stroke: #ffffff; stroke-opacity: 0.7; stroke-width: 0.48"/>
     <use xlink:href="#m49ad40fba6" x="156.951429" y="295.595664" style="fill: #1f77b4; fill-opacity: 0.7; stroke: #ffffff; stroke-opacity: 0.7; stroke-width: 0.48"/>
     <use xlink:href="#m49ad40fba6" x="659.388312" y="118.444208" style="fill: #1f77b4; fill-opacity: 0.7; stroke: #ffffff; stroke-opacity: 0.7; stroke-width: 0.48"/>
     <use xlink:href="#m49ad40fba6" x="156.951429" y="43.550909" style="fill: #1f77b4; fill-opacity: 0.7; stroke: #ffffff; stroke-opacity: 0.7; stroke-width: 0.48"/>
     <use xlink:href="#m49ad40fba6" x="324.43039" y="190.997091" style="fill: #1f77b4; fill-opacity: 0.7; stroke: #ffffff; stroke-opacity: 0.7; stroke-width: 0.48"/>
     <use xlink:href="#m49ad40fba6" x="261.625779" y="207.38" style="fill: #1f77b4; fill-opacity: 0.7; stroke: #ffffff; stroke-opacity: 0.7; stroke-width: 0.48"/>
     <use xlink:href="#m49ad40fba6" x="240.690909" y="307.497778" style="fill: #1f77b4; fill-opacity: 0.7; stroke: #ffffff; stroke-opacity: 0.7; stroke-width: 0.48"/>
     <use xlink:href="#m49ad40fba6" x="470.974481" y="160.571688" style="fill: #1f77b4; fill-opacity: 0.7; stroke: #ffffff; stroke-opacity: 0.7; stroke-width: 0.48"/>
     <use xlink:href="#m49ad40fba6" x="198.821169" y="234.684848" style="fill: #1f77b4; fill-opacity: 0.7; stroke: #ffffff; stroke-opacity: 0.7; stroke-width: 0.48"/>
     <use xlink:href="#m49ad40fba6" x="136.016558" y="298.396162" style="fill: #1f77b4; fill-opacity: 0.7; stroke: #ffffff; stroke-opacity: 0.7; stroke-width: 0.48"/>
     <use xlink:href="#m49ad40fba6" x="240.690909" y="250.492919" style="fill: #1f77b4; fill-opacity: 0.7; stroke: #ffffff; stroke-opacity: 0.7; stroke-width: 0.48"/>
     <use xlink:href="#m49ad40fba6" x="261.625779" y="240.145818" style="fill: #1f77b4; fill-opacity: 0.7; stroke: #ffffff; stroke-opacity: 0.7; stroke-width: 0.48"/>
     <use xlink:href="#m49ad40fba6" x="282.560649" y="216.002584" style="fill: #1f77b4; fill-opacity: 0.7; stroke: #ffffff; stroke-opacity: 0.7; stroke-width: 0.48"/>
     <use xlink:href="#m49ad40fba6" x="198.821169" y="284.983254" style="fill: #1f77b4; fill-opacity: 0.7; stroke: #ffffff; stroke-opacity: 0.7; stroke-width: 0.48"/>
     <use xlink:href="#m49ad40fba6" x="240.690909" y="243.786465" style="fill: #1f77b4; fill-opacity: 0.7; stroke: #ffffff; stroke-opacity: 0.7; stroke-width: 0.48"/>
     <use xlink:href="#m49ad40fba6" x="219.756039" y="277.592468" style="fill: #1f77b4; fill-opacity: 0.7; stroke: #ffffff; stroke-opacity: 0.7; stroke-width: 0.48"/>
     <use xlink:href="#m49ad40fba6" x="198.821169" y="254.188312" style="fill: #1f77b4; fill-opacity: 0.7; stroke: #ffffff; stroke-opacity: 0.7; stroke-width: 0.48"/>
     <use xlink:href="#m49ad40fba6" x="345.36526" y="264.941572" style="fill: #1f77b4; fill-opacity: 0.7; stroke: #ffffff; stroke-opacity: 0.7; stroke-width: 0.48"/>
     <use xlink:href="#m49ad40fba6" x="450.03961" y="156.971049" style="fill: #1f77b4; fill-opacity: 0.7; stroke: #ffffff; stroke-opacity: 0.7; stroke-width: 0.48"/>
     <use xlink:href="#m49ad40fba6" x="156.951429" y="43.550909" style="fill: #1f77b4; fill-opacity: 0.7; stroke: #ffffff; stroke-opacity: 0.7; stroke-width: 0.48"/>
     <use xlink:href="#m49ad40fba6" x="303.495519" y="222.273554" style="fill: #1f77b4; fill-opacity: 0.7; stroke: #ffffff; stroke-opacity: 0.7; stroke-width: 0.48"/>
     <use xlink:href="#m49ad40fba6" x="324.43039" y="254.943284" style="fill: #1f77b4; fill-opacity: 0.7; stroke: #ffffff; stroke-opacity: 0.7; stroke-width: 0.48"/>
     <use xlink:href="#m49ad40fba6" x="324.43039" y="221.032424" style="fill: #1f77b4; fill-opacity: 0.7; stroke: #ffffff; stroke-opacity: 0.7; stroke-width: 0.48"/>
     <use xlink:href="#m49ad40fba6" x="282.560649" y="286.95413" style="fill: #1f77b4; fill-opacity: 0.7; stroke: #ffffff; stroke-opacity: 0.7; stroke-width: 0.48"/>
     <use xlink:href="#m49ad40fba6" x="177.886299" y="326.014859" style="fill: #1f77b4; fill-opacity: 0.7; stroke: #ffffff; stroke-opacity: 0.7; stroke-width: 0.48"/>
     <use xlink:href="#m49ad40fba6" x="491.909351" y="246.698982" style="fill: #1f77b4; fill-opacity: 0.7; stroke: #ffffff; stroke-opacity: 0.7; stroke-width: 0.48"/>
     <use xlink:href="#m49ad40fba6" x="156.951429" y="261.989697" style="fill: #1f77b4; fill-opacity: 0.7; stroke: #ffffff; stroke-opacity: 0.7; stroke-width: 0.48"/>
     <use xlink:href="#m49ad40fba6" x="261.625779" y="183.975844" style="fill: #1f77b4; fill-opacity: 0.7; stroke: #ffffff; stroke-opacity: 0.7; stroke-width: 0.48"/>
     <use xlink:href="#m49ad40fba6" x="282.560649" y="272.911636" style="fill: #1f77b4; fill-opacity: 0.7; stroke: #ffffff; stroke-opacity: 0.7; stroke-width: 0.48"/>
     <use xlink:href="#m49ad40fba6" x="450.03961" y="191.525572" style="fill: #1f77b4; fill-opacity: 0.7; stroke: #ffffff; stroke-opacity: 0.7; stroke-width: 0.48"/>
     <use xlink:href="#m49ad40fba6" x="198.821169" y="318.360997" style="fill: #1f77b4; fill-opacity: 0.7; stroke: #ffffff; stroke-opacity: 0.7; stroke-width: 0.48"/>
     <use xlink:href="#m49ad40fba6" x="198.821169" y="280.192929" style="fill: #1f77b4; fill-opacity: 0.7; stroke: #ffffff; stroke-opacity: 0.7; stroke-width: 0.48"/>
     <use xlink:href="#m49ad40fba6" x="366.30013" y="284.279369" style="fill: #1f77b4; fill-opacity: 0.7; stroke: #ffffff; stroke-opacity: 0.7; stroke-width: 0.48"/>
     <use xlink:href="#m49ad40fba6" x="387.235" y="227.858636" style="fill: #1f77b4; fill-opacity: 0.7; stroke: #ffffff; stroke-opacity: 0.7; stroke-width: 0.48"/>
     <use xlink:href="#m49ad40fba6" x="408.16987" y="241.870335" style="fill: #1f77b4; fill-opacity: 0.7; stroke: #ffffff; stroke-opacity: 0.7; stroke-width: 0.48"/>
     <use xlink:href="#m49ad40fba6" x="177.886299" y="277.592468" style="fill: #1f77b4; fill-opacity: 0.7; stroke: #ffffff; stroke-opacity: 0.7; stroke-width: 0.48"/>
     <use xlink:href="#m49ad40fba6" x="156.951429" y="261.989697" style="fill: #1f77b4; fill-opacity: 0.7; stroke: #ffffff; stroke-opacity: 0.7; stroke-width: 0.48"/>
     <use xlink:href="#m49ad40fba6" x="219.756039" y="248.337273" style="fill: #1f77b4; fill-opacity: 0.7; stroke: #ffffff; stroke-opacity: 0.7; stroke-width: 0.48"/>
     <use xlink:href="#m49ad40fba6" x="198.821169" y="254.188312" style="fill: #1f77b4; fill-opacity: 0.7; stroke: #ffffff; stroke-opacity: 0.7; stroke-width: 0.48"/>
     <use xlink:href="#m49ad40fba6" x="261.625779" y="240.145818" style="fill: #1f77b4; fill-opacity: 0.7; stroke: #ffffff; stroke-opacity: 0.7; stroke-width: 0.48"/>
     <use xlink:href="#m49ad40fba6" x="261.625779" y="274.125185" style="fill: #1f77b4; fill-opacity: 0.7; stroke: #ffffff; stroke-opacity: 0.7; stroke-width: 0.48"/>
     <use xlink:href="#m49ad40fba6" x="261.625779" y="252.060661" style="fill: #1f77b4; fill-opacity: 0.7; stroke: #ffffff; stroke-opacity: 0.7; stroke-width: 0.48"/>
     <use xlink:href="#m49ad40fba6" x="366.30013" y="186.010988" style="fill: #1f77b4; fill-opacity: 0.7; stroke: #ffffff; stroke-opacity: 0.7; stroke-width: 0.48"/>
     <use xlink:href="#m49ad40fba6" x="219.756039" y="267.738086" style="fill: #1f77b4; fill-opacity: 0.7; stroke: #ffffff; stroke-opacity: 0.7; stroke-width: 0.48"/>
     <use xlink:href="#m49ad40fba6" x="387.235" y="232.20259" style="fill: #1f77b4; fill-opacity: 0.7; stroke: #ffffff; stroke-opacity: 0.7; stroke-width: 0.48"/>
     <use xlink:href="#m49ad40fba6" x="680.323182" y="207.38" style="fill: #1f77b4; fill-opacity: 0.7; stroke: #ffffff; stroke-opacity: 0.7; stroke-width: 0.48"/>
     <use xlink:href="#m49ad40fba6" x="345.36526" y="109.082545" style="fill: #1f77b4; fill-opacity: 0.7; stroke: #ffffff; stroke-opacity: 0.7; stroke-width: 0.48"/>
     <use xlink:href="#m49ad40fba6" x="115.081688" y="349.365212" style="fill: #1f77b4; fill-opacity: 0.7; stroke: #ffffff; stroke-opacity: 0.7; stroke-width: 0.48"/>
     <use xlink:href="#m49ad40fba6" x="282.560649" y="281.847769" style="fill: #1f77b4; fill-opacity: 0.7; stroke: #ffffff; stroke-opacity: 0.7; stroke-width: 0.48"/>
     <use xlink:href="#m49ad40fba6" x="429.10474" y="109.082545" style="fill: #1f77b4; fill-opacity: 0.7; stroke: #ffffff; stroke-opacity: 0.7; stroke-width: 0.48"/>
     <use xlink:href="#m49ad40fba6" x="240.690909" y="243.786465" style="fill: #1f77b4; fill-opacity: 0.7; stroke: #ffffff; stroke-opacity: 0.7; stroke-width: 0.48"/>
     <use xlink:href="#m49ad40fba6" x="240.690909" y="180.075152" style="fill: #1f77b4; fill-opacity: 0.7; stroke: #ffffff; stroke-opacity: 0.7; stroke-width: 0.48"/>
     <use xlink:href="#m49ad40fba6" x="240.690909" y="162.699339" style="fill: #1f77b4; fill-opacity: 0.7; stroke: #ffffff; stroke-opacity: 0.7; stroke-width: 0.48"/>
     <use xlink:href="#m49ad40fba6" x="198.821169" y="207.38" style="fill: #1f77b4; fill-opacity: 0.7; stroke: #ffffff; stroke-opacity: 0.7; stroke-width: 0.48"/>
     <use xlink:href="#m49ad40fba6" x="366.30013" y="193.727576" style="fill: #1f77b4; fill-opacity: 0.7; stroke: #ffffff; stroke-opacity: 0.7; stroke-width: 0.48"/>
     <use xlink:href="#m49ad40fba6" x="345.36526" y="213.933164" style="fill: #1f77b4; fill-opacity: 0.7; stroke: #ffffff; stroke-opacity: 0.7; stroke-width: 0.48"/>
     <use xlink:href="#m49ad40fba6" x="219.756039" y="240.145818" style="fill: #1f77b4; fill-opacity: 0.7; stroke: #ffffff; stroke-opacity: 0.7; stroke-width: 0.48"/>
     <use xlink:href="#m49ad40fba6" x="345.36526" y="213.933164" style="fill: #1f77b4; fill-opacity: 0.7; stroke: #ffffff; stroke-opacity: 0.7; stroke-width: 0.48"/>
     <use xlink:href="#m49ad40fba6" x="303.495519" y="271.918733" style="fill: #1f77b4; fill-opacity: 0.7; stroke: #ffffff; stroke-opacity: 0.7; stroke-width: 0.48"/>
     <use xlink:href="#m49ad40fba6" x="387.235" y="180.075152" style="fill: #1f77b4; fill-opacity: 0.7; stroke: #ffffff; stroke-opacity: 0.7; stroke-width: 0.48"/>
     <use xlink:href="#m49ad40fba6" x="303.495519" y="258.223511" style="fill: #1f77b4; fill-opacity: 0.7; stroke: #ffffff; stroke-opacity: 0.7; stroke-width: 0.48"/>
     <use xlink:href="#m49ad40fba6" x="303.495519" y="207.38" style="fill: #1f77b4; fill-opacity: 0.7; stroke: #ffffff; stroke-opacity: 0.7; stroke-width: 0.48"/>
     <use xlink:href="#m49ad40fba6" x="303.495519" y="215.181385" style="fill: #1f77b4; fill-opacity: 0.7; stroke: #ffffff; stroke-opacity: 0.7; stroke-width: 0.48"/>
     <use xlink:href="#m49ad40fba6" x="240.690909" y="227.858636" style="fill: #1f77b4; fill-opacity: 0.7; stroke: #ffffff; stroke-opacity: 0.7; stroke-width: 0.48"/>
     <use xlink:href="#m49ad40fba6" x="177.886299" y="252.060661" style="fill: #1f77b4; fill-opacity: 0.7; stroke: #ffffff; stroke-opacity: 0.7; stroke-width: 0.48"/>
     <use xlink:href="#m49ad40fba6" x="261.625779" y="183.975844" style="fill: #1f77b4; fill-opacity: 0.7; stroke: #ffffff; stroke-opacity: 0.7; stroke-width: 0.48"/>
     <use xlink:href="#m49ad40fba6" x="282.560649" y="144.368811" style="fill: #1f77b4; fill-opacity: 0.7; stroke: #ffffff; stroke-opacity: 0.7; stroke-width: 0.48"/>
     <use xlink:href="#m49ad40fba6" x="282.560649" y="230.784156" style="fill: #1f77b4; fill-opacity: 0.7; stroke: #ffffff; stroke-opacity: 0.7; stroke-width: 0.48"/>
     <use xlink:href="#m49ad40fba6" x="324.43039" y="159.194973" style="fill: #1f77b4; fill-opacity: 0.7; stroke: #ffffff; stroke-opacity: 0.7; stroke-width: 0.48"/>
     <use xlink:href="#m49ad40fba6" x="303.495519" y="295.009514" style="fill: #1f77b4; fill-opacity: 0.7; stroke: #ffffff; stroke-opacity: 0.7; stroke-width: 0.48"/>
     <use xlink:href="#m49ad40fba6" x="324.43039" y="227.039491" style="fill: #1f77b4; fill-opacity: 0.7; stroke: #ffffff; stroke-opacity: 0.7; stroke-width: 0.48"/>
     <use xlink:href="#m49ad40fba6" x="219.756039" y="152.770303" style="fill: #1f77b4; fill-opacity: 0.7; stroke: #ffffff; stroke-opacity: 0.7; stroke-width: 0.48"/>
     <use xlink:href="#m49ad40fba6" x="324.43039" y="221.032424" style="fill: #1f77b4; fill-opacity: 0.7; stroke: #ffffff; stroke-opacity: 0.7; stroke-width: 0.48"/>
     <use xlink:href="#m49ad40fba6" x="198.821169" y="280.192929" style="fill: #1f77b4; fill-opacity: 0.7; stroke: #ffffff; stroke-opacity: 0.7; stroke-width: 0.48"/>
     <use xlink:href="#m49ad40fba6" x="219.756039" y="174.614182" style="fill: #1f77b4; fill-opacity: 0.7; stroke: #ffffff; stroke-opacity: 0.7; stroke-width: 0.48"/>
     <use xlink:href="#m49ad40fba6" x="282.560649" y="265.89039" style="fill: #1f77b4; fill-opacity: 0.7; stroke: #ffffff; stroke-opacity: 0.7; stroke-width: 0.48"/>
     <use xlink:href="#m49ad40fba6" x="219.756039" y="255.565027" style="fill: #1f77b4; fill-opacity: 0.7; stroke: #ffffff; stroke-opacity: 0.7; stroke-width: 0.48"/>
    </g>
   </g>
   <g id="FillBetweenPolyCollection_1">
    <path d="M 94.146818 228.258657 
L 94.146818 271.933123 
L 100.067792 270.61279 
L 105.988765 269.290191 
L 111.909738 267.964637 
L 117.830712 266.625795 
L 123.751685 265.318714 
L 129.672658 263.997333 
L 135.593632 262.675953 
L 141.514605 261.300453 
L 147.435579 259.63816 
L 153.356552 258.274453 
L 159.277525 256.973462 
L 165.198499 255.63564 
L 171.119472 254.496585 
L 177.040445 253.046153 
L 182.961419 251.519557 
L 188.882392 250.144446 
L 194.803365 248.879933 
L 200.724339 247.804447 
L 206.645312 246.422537 
L 212.566286 245.225259 
L 218.487259 243.91124 
L 224.408232 242.715275 
L 230.329206 241.513368 
L 236.250179 240.279165 
L 242.171152 238.992063 
L 248.092126 237.879624 
L 254.013099 236.70213 
L 259.934073 235.480706 
L 265.855046 234.205172 
L 271.776019 233.020417 
L 277.696993 231.851886 
L 283.617966 230.542456 
L 289.538939 229.479496 
L 295.459913 228.336536 
L 301.380886 227.268219 
L 307.30186 226.168611 
L 313.222833 225.270277 
L 319.143806 224.190582 
L 325.06478 223.144856 
L 330.985753 222.129881 
L 336.906726 221.345817 
L 342.8277 220.292973 
L 348.748673 219.405848 
L 354.669646 218.524111 
L 360.59062 217.775195 
L 366.511593 216.813865 
L 372.432567 216.062506 
L 378.35354 215.196272 
L 384.274513 214.485329 
L 390.195487 213.77589 
L 396.11646 213.254209 
L 402.037433 212.559382 
L 407.958407 211.91059 
L 413.87938 211.04753 
L 419.800354 210.384934 
L 425.721327 209.816073 
L 431.6423 209.059908 
L 437.563274 208.406334 
L 443.484247 207.866595 
L 449.40522 207.263674 
L 455.326194 206.808049 
L 461.247167 206.188268 
L 467.16814 205.454164 
L 473.089114 204.899086 
L 479.010087 204.382001 
L 484.931061 203.953281 
L 490.852034 203.496964 
L 496.773007 203.076107 
L 502.693981 202.386099 
L 508.614954 201.869056 
L 514.535927 201.538985 
L 520.456901 201.130981 
L 526.377874 200.686755 
L 532.298848 200.191072 
L 538.219821 199.718274 
L 544.140794 199.201232 
L 550.061768 198.706953 
L 555.982741 198.305788 
L 561.903714 197.83766 
L 567.824688 197.367398 
L 573.745661 196.842624 
L 579.666635 196.424986 
L 585.587608 195.954559 
L 591.508581 195.517381 
L 597.429555 195.066356 
L 603.350528 194.573648 
L 609.271501 194.137725 
L 615.192475 193.603842 
L 621.113448 193.128585 
L 627.034421 192.624283 
L 632.955395 192.186986 
L 638.876368 191.749892 
L 644.797342 191.324739 
L 650.718315 190.890576 
L 656.639288 190.429748 
L 662.560262 189.934243 
L 668.481235 189.438737 
L 674.402208 188.943231 
L 680.323182 188.496551 
L 680.323182 130.611285 
L 680.323182 130.611285 
L 674.402208 132.083369 
L 668.481235 133.555454 
L 662.560262 135.027538 
L 656.639288 136.500814 
L 650.718315 137.975016 
L 644.797342 139.3611 
L 638.876368 140.64246 
L 632.955395 142.064092 
L 627.034421 143.412491 
L 621.113448 144.76371 
L 615.192475 146.115718 
L 609.271501 147.467727 
L 603.350528 148.752421 
L 597.429555 150.156322 
L 591.508581 151.522578 
L 585.587608 152.963504 
L 579.666635 154.368739 
L 573.745661 155.739934 
L 567.824688 157.073769 
L 561.903714 158.409197 
L 555.982741 159.782071 
L 550.061768 161.222593 
L 544.140794 162.573983 
L 538.219821 163.885259 
L 532.298848 165.077863 
L 526.377874 166.39993 
L 520.456901 167.728989 
L 514.535927 169.074373 
L 508.614954 170.4063 
L 502.693981 171.74388 
L 496.773007 173.078049 
L 490.852034 174.410885 
L 484.931061 175.743721 
L 479.010087 177.076557 
L 473.089114 178.409393 
L 467.16814 179.742229 
L 461.247167 180.927201 
L 455.326194 182.232547 
L 449.40522 183.546382 
L 443.484247 184.860565 
L 437.563274 186.293166 
L 431.6423 187.502353 
L 425.721327 188.960993 
L 419.800354 190.20861 
L 413.87938 191.413523 
L 407.958407 192.689189 
L 402.037433 194.021425 
L 396.11646 195.209794 
L 390.195487 196.225517 
L 384.274513 197.555852 
L 378.35354 198.579102 
L 372.432567 199.566795 
L 366.511593 200.366363 
L 360.59062 201.618145 
L 354.669646 202.706539 
L 348.748673 203.459926 
L 342.8277 204.333478 
L 336.906726 205.040332 
L 330.985753 205.732598 
L 325.06478 206.920107 
L 319.143806 207.522428 
L 313.222833 208.504049 
L 307.30186 209.324371 
L 301.380886 209.686349 
L 295.459913 210.517972 
L 289.538939 211.26092 
L 283.617966 211.884989 
L 277.696993 212.439685 
L 271.776019 213.083015 
L 265.855046 213.712446 
L 259.934073 214.326355 
L 254.013099 214.833129 
L 248.092126 215.339902 
L 242.171152 215.846676 
L 236.250179 216.320349 
L 230.329206 216.874472 
L 224.408232 217.467652 
L 218.487259 218.131886 
L 212.566286 218.737203 
L 206.645312 219.158845 
L 200.724339 219.645029 
L 194.803365 220.196001 
L 188.882392 220.5966 
L 182.961419 221.256725 
L 177.040445 221.858671 
L 171.119472 222.379568 
L 165.198499 222.967229 
L 159.277525 223.507064 
L 153.356552 223.887077 
L 147.435579 224.360686 
L 141.514605 224.850965 
L 135.593632 225.216406 
L 129.672658 225.780652 
L 123.751685 226.091088 
L 117.830712 226.462516 
L 111.909738 226.963296 
L 105.988765 227.25906 
L 100.067792 227.679633 
L 94.146818 228.258657 
z
" clip-path="url(#p7646e47348)" style="fill: #808080; fill-opacity: 0.15"/>
   </g>
   <g id="FillBetweenPolyCollection_2">
    <path d="M 94.146818 228.658471 
L 94.146818 272.421735 
L 100.067792 271.136698 
L 105.988765 269.851661 
L 111.909738 268.54511 
L 117.830712 267.172437 
L 123.751685 265.799763 
L 129.672658 264.427008 
L 135.593632 263.049224 
L 141.514605 261.670145 
L 147.435579 260.140604 
L 153.356552 258.818545 
L 159.277525 257.336536 
L 165.198499 255.978397 
L 171.119472 254.62025 
L 177.040445 253.257009 
L 182.961419 251.862368 
L 188.882392 250.53653 
L 194.803365 249.324912 
L 200.724339 248.003684 
L 206.645312 246.687924 
L 212.566286 245.503702 
L 218.487259 244.147335 
L 224.408232 242.822798 
L 230.329206 241.711264 
L 236.250179 240.339625 
L 242.171152 239.029265 
L 248.092126 237.632633 
L 254.013099 236.42356 
L 259.934073 235.251678 
L 265.855046 234.058184 
L 271.776019 232.875496 
L 277.696993 231.696856 
L 283.617966 230.512309 
L 289.538939 229.410585 
L 295.459913 228.308929 
L 301.380886 227.109844 
L 307.30186 226.083216 
L 313.222833 225.057925 
L 319.143806 224.14593 
L 325.06478 223.245266 
L 330.985753 222.42899 
L 336.906726 221.331034 
L 342.8277 220.384006 
L 348.748673 219.546573 
L 354.669646 218.431997 
L 360.59062 217.607486 
L 366.511593 216.805374 
L 372.432567 216.01046 
L 378.35354 215.214543 
L 384.274513 214.241445 
L 390.195487 213.554367 
L 396.11646 212.983808 
L 402.037433 212.255386 
L 407.958407 211.431058 
L 413.87938 210.77776 
L 419.800354 210.123415 
L 425.721327 209.330731 
L 431.6423 208.569539 
L 437.563274 207.938577 
L 443.484247 207.23432 
L 449.40522 206.5514 
L 455.326194 206.019 
L 461.247167 205.573037 
L 467.16814 205.168831 
L 473.089114 204.74443 
L 479.010087 204.350421 
L 484.931061 203.801869 
L 490.852034 203.165731 
L 496.773007 202.680492 
L 502.693981 202.121752 
L 508.614954 201.387768 
L 514.535927 200.813134 
L 520.456901 200.320216 
L 526.377874 199.923938 
L 532.298848 199.525536 
L 538.219821 198.89384 
L 544.140794 198.247106 
L 550.061768 197.704338 
L 555.982741 197.178667 
L 561.903714 196.652253 
L 567.824688 196.125839 
L 573.745661 195.599425 
L 579.666635 195.073011 
L 585.587608 194.546597 
L 591.508581 193.95222 
L 597.429555 193.356234 
L 603.350528 192.798995 
L 609.271501 192.427444 
L 615.192475 191.92546 
L 621.113448 191.400107 
L 627.034421 190.874755 
L 632.955395 190.337224 
L 638.876368 189.887409 
L 644.797342 189.472703 
L 650.718315 189.057998 
L 656.639288 188.643292 
L 662.560262 188.187254 
L 668.481235 187.639285 
L 674.402208 187.259436 
L 680.323182 186.778194 
L 680.323182 131.812169 
L 680.323182 131.812169 
L 674.402208 133.244327 
L 668.481235 134.677612 
L 662.560262 136.111722 
L 656.639288 137.545832 
L 650.718315 138.979942 
L 644.797342 140.416238 
L 638.876368 141.849038 
L 632.955395 143.28302 
L 627.034421 144.716382 
L 621.113448 146.091069 
L 615.192475 147.390912 
L 609.271501 148.715539 
L 603.350528 150.00283 
L 597.429555 151.290121 
L 591.508581 152.579693 
L 585.587608 153.876182 
L 579.666635 155.172671 
L 573.745661 156.59364 
L 567.824688 158.062699 
L 561.903714 159.533563 
L 555.982741 160.904741 
L 550.061768 162.214065 
L 544.140794 163.523389 
L 538.219821 164.855658 
L 532.298848 166.219112 
L 526.377874 167.517781 
L 520.456901 168.76129 
L 514.535927 170.060102 
L 508.614954 171.413789 
L 502.693981 172.712517 
L 496.773007 174.011127 
L 490.852034 175.311661 
L 484.931061 176.799331 
L 479.010087 178.250809 
L 473.089114 179.517413 
L 467.16814 180.628308 
L 461.247167 181.987319 
L 455.326194 183.145275 
L 449.40522 184.424844 
L 443.484247 185.694834 
L 437.563274 186.860428 
L 431.6423 188.233799 
L 425.721327 189.505591 
L 419.800354 190.723849 
L 413.87938 191.846491 
L 407.958407 193.04515 
L 402.037433 194.26059 
L 396.11646 195.323179 
L 390.195487 196.494145 
L 384.274513 197.506749 
L 378.35354 198.539168 
L 372.432567 199.826252 
L 366.511593 200.902705 
L 360.59062 201.756364 
L 354.669646 202.799858 
L 348.748673 203.790824 
L 342.8277 204.815264 
L 336.906726 205.816463 
L 330.985753 206.556214 
L 325.06478 207.268524 
L 319.143806 208.004656 
L 313.222833 208.790955 
L 307.30186 209.472911 
L 301.380886 210.262696 
L 295.459913 210.943845 
L 289.538939 211.459604 
L 283.617966 212.149053 
L 277.696993 212.891898 
L 271.776019 213.513904 
L 265.855046 214.305727 
L 259.934073 214.920566 
L 254.013099 215.6034 
L 248.092126 216.258545 
L 242.171152 216.819552 
L 236.250179 217.377299 
L 230.329206 217.936414 
L 224.408232 218.476242 
L 218.487259 218.861006 
L 212.566286 219.267395 
L 206.645312 219.734411 
L 200.724339 220.265798 
L 194.803365 220.797185 
L 188.882392 221.329804 
L 182.961419 221.822935 
L 177.040445 222.239593 
L 171.119472 222.578119 
L 165.198499 223.072908 
L 159.277525 223.585192 
L 153.356552 224.011622 
L 147.435579 224.34916 
L 141.514605 224.832048 
L 135.593632 225.36014 
L 129.672658 225.802583 
L 123.751685 226.285314 
L 117.830712 226.768537 
L 111.909738 227.254938 
L 105.988765 227.741381 
L 100.067792 228.228336 
L 94.146818 228.658471 
z
" clip-path="url(#p7646e47348)" style="fill: #808080; fill-opacity: 0.15"/>
   </g>
   <g id="matplotlib.axis_1">
    <g id="xtick_1">
     <g id="line2d_1">
      <defs>
       <path id="me5498e93f4" d="M 0 0 
L 0 3.5 
" style="stroke: #000000; stroke-width: 0.8"/>
      </defs>
      <g>
       <use xlink:href="#me5498e93f4" x="94.146818" y="387.592" style="stroke: #000000; stroke-width: 0.8"/>
      </g>
     </g>
     <g id="text_1">
      <!-- 0 -->
      <g transform="translate(90.965568 402.190438) scale(0.1 -0.1)">
       <defs>
        <path id="DejaVuSans-30" d="M 2034 4250 
Q 1547 4250 1301 3770 
Q 1056 3291 1056 2328 
Q 1056 1369 1301 889 
Q 1547 409 2034 409 
Q 2525 409 2770 889 
Q 3016 1369 3016 2328 
Q 3016 3291 2770 3770 
Q 2525 4250 2034 4250 
z
M 2034 4750 
Q 2819 4750 3233 4129 
Q 3647 3509 3647 2328 
Q 3647 1150 3233 529 
Q 2819 -91 2034 -91 
Q 1250 -91 836 529 
Q 422 1150 422 2328 
Q 422 3509 836 4129 
Q 1250 4750 2034 4750 
z
" transform="scale(0.015625)"/>
       </defs>
       <use xlink:href="#DejaVuSans-30"/>
      </g>
     </g>
    </g>
    <g id="xtick_2">
     <g id="line2d_2">
      <g>
       <use xlink:href="#me5498e93f4" x="198.821169" y="387.592" style="stroke: #000000; stroke-width: 0.8"/>
      </g>
     </g>
     <g id="text_2">
      <!-- 5 -->
      <g transform="translate(195.639919 402.190438) scale(0.1 -0.1)">
       <defs>
        <path id="DejaVuSans-35" d="M 691 4666 
L 3169 4666 
L 3169 4134 
L 1269 4134 
L 1269 2991 
Q 1406 3038 1543 3061 
Q 1681 3084 1819 3084 
Q 2600 3084 3056 2656 
Q 3513 2228 3513 1497 
Q 3513 744 3044 326 
Q 2575 -91 1722 -91 
Q 1428 -91 1123 -41 
Q 819 9 494 109 
L 494 744 
Q 775 591 1075 516 
Q 1375 441 1709 441 
Q 2250 441 2565 725 
Q 2881 1009 2881 1497 
Q 2881 1984 2565 2268 
Q 2250 2553 1709 2553 
Q 1456 2553 1204 2497 
Q 953 2441 691 2322 
L 691 4666 
z
" transform="scale(0.015625)"/>
       </defs>
       <use xlink:href="#DejaVuSans-35"/>
      </g>
     </g>
    </g>
    <g id="xtick_3">
     <g id="line2d_3">
      <g>
       <use xlink:href="#me5498e93f4" x="303.495519" y="387.592" style="stroke: #000000; stroke-width: 0.8"/>
      </g>
     </g>
     <g id="text_3">
      <!-- 10 -->
      <g transform="translate(297.133019 402.190438) scale(0.1 -0.1)">
       <defs>
        <path id="DejaVuSans-31" d="M 794 531 
L 1825 531 
L 1825 4091 
L 703 3866 
L 703 4441 
L 1819 4666 
L 2450 4666 
L 2450 531 
L 3481 531 
L 3481 0 
L 794 0 
L 794 531 
z
" transform="scale(0.015625)"/>
       </defs>
       <use xlink:href="#DejaVuSans-31"/>
       <use xlink:href="#DejaVuSans-30" transform="translate(63.623047 0)"/>
      </g>
     </g>
    </g>
    <g id="xtick_4">
     <g id="line2d_4">
      <g>
       <use xlink:href="#me5498e93f4" x="408.16987" y="387.592" style="stroke: #000000; stroke-width: 0.8"/>
      </g>
     </g>
     <g id="text_4">
      <!-- 15 -->
      <g transform="translate(401.80737 402.190438) scale(0.1 -0.1)">
       <use xlink:href="#DejaVuSans-31"/>
       <use xlink:href="#DejaVuSans-35" transform="translate(63.623047 0)"/>
      </g>
     </g>
    </g>
    <g id="xtick_5">
     <g id="line2d_5">
      <g>
       <use xlink:href="#me5498e93f4" x="512.844221" y="387.592" style="stroke: #000000; stroke-width: 0.8"/>
      </g>
     </g>
     <g id="text_5">
      <!-- 20 -->
      <g transform="translate(506.481721 402.190438) scale(0.1 -0.1)">
       <defs>
        <path id="DejaVuSans-32" d="M 1228 531 
L 3431 531 
L 3431 0 
L 469 0 
L 469 531 
Q 828 903 1448 1529 
Q 2069 2156 2228 2338 
Q 2531 2678 2651 2914 
Q 2772 3150 2772 3378 
Q 2772 3750 2511 3984 
Q 2250 4219 1831 4219 
Q 1534 4219 1204 4116 
Q 875 4013 500 3803 
L 500 4441 
Q 881 4594 1212 4672 
Q 1544 4750 1819 4750 
Q 2544 4750 2975 4387 
Q 3406 4025 3406 3419 
Q 3406 3131 3298 2873 
Q 3191 2616 2906 2266 
Q 2828 2175 2409 1742 
Q 1991 1309 1228 531 
z
" transform="scale(0.015625)"/>
       </defs>
       <use xlink:href="#DejaVuSans-32"/>
       <use xlink:href="#DejaVuSans-30" transform="translate(63.623047 0)"/>
      </g>
     </g>
    </g>
    <g id="xtick_6">
     <g id="line2d_6">
      <g>
       <use xlink:href="#me5498e93f4" x="617.518571" y="387.592" style="stroke: #000000; stroke-width: 0.8"/>
      </g>
     </g>
     <g id="text_6">
      <!-- 25 -->
      <g transform="translate(611.156071 402.190438) scale(0.1 -0.1)">
       <use xlink:href="#DejaVuSans-32"/>
       <use xlink:href="#DejaVuSans-35" transform="translate(63.623047 0)"/>
      </g>
     </g>
    </g>
    <g id="text_7">
     <!-- BDI Pre Score -->
     <g transform="translate(346.575625 417.38825) scale(0.12 -0.12)">
      <defs>
       <path id="DejaVuSans-42" d="M 1259 2228 
L 1259 519 
L 2272 519 
Q 2781 519 3026 730 
Q 3272 941 3272 1375 
Q 3272 1813 3026 2020 
Q 2781 2228 2272 2228 
L 1259 2228 
z
M 1259 4147 
L 1259 2741 
L 2194 2741 
Q 2656 2741 2882 2914 
Q 3109 3088 3109 3444 
Q 3109 3797 2882 3972 
Q 2656 4147 2194 4147 
L 1259 4147 
z
M 628 4666 
L 2241 4666 
Q 2963 4666 3353 4366 
Q 3744 4066 3744 3513 
Q 3744 3084 3544 2831 
Q 3344 2578 2956 2516 
Q 3422 2416 3680 2098 
Q 3938 1781 3938 1306 
Q 3938 681 3513 340 
Q 3088 0 2303 0 
L 628 0 
L 628 4666 
z
" transform="scale(0.015625)"/>
       <path id="DejaVuSans-44" d="M 1259 4147 
L 1259 519 
L 2022 519 
Q 2988 519 3436 956 
Q 3884 1394 3884 2338 
Q 3884 3275 3436 3711 
Q 2988 4147 2022 4147 
L 1259 4147 
z
M 628 4666 
L 1925 4666 
Q 3281 4666 3915 4102 
Q 4550 3538 4550 2338 
Q 4550 1131 3912 565 
Q 3275 0 1925 0 
L 628 0 
L 628 4666 
z
" transform="scale(0.015625)"/>
       <path id="DejaVuSans-49" d="M 628 4666 
L 1259 4666 
L 1259 0 
L 628 0 
L 628 4666 
z
" transform="scale(0.015625)"/>
       <path id="DejaVuSans-20" transform="scale(0.015625)"/>
       <path id="DejaVuSans-50" d="M 1259 4147 
L 1259 2394 
L 2053 2394 
Q 2494 2394 2734 2622 
Q 2975 2850 2975 3272 
Q 2975 3691 2734 3919 
Q 2494 4147 2053 4147 
L 1259 4147 
z
M 628 4666 
L 2053 4666 
Q 2838 4666 3239 4311 
Q 3641 3956 3641 3272 
Q 3641 2581 3239 2228 
Q 2838 1875 2053 1875 
L 1259 1875 
L 1259 0 
L 628 0 
L 628 4666 
z
" transform="scale(0.015625)"/>
       <path id="DejaVuSans-72" d="M 2631 2963 
Q 2534 3019 2420 3045 
Q 2306 3072 2169 3072 
Q 1681 3072 1420 2755 
Q 1159 2438 1159 1844 
L 1159 0 
L 581 0 
L 581 3500 
L 1159 3500 
L 1159 2956 
Q 1341 3275 1631 3429 
Q 1922 3584 2338 3584 
Q 2397 3584 2469 3576 
Q 2541 3569 2628 3553 
L 2631 2963 
z
" transform="scale(0.015625)"/>
       <path id="DejaVuSans-65" d="M 3597 1894 
L 3597 1613 
L 953 1613 
Q 991 1019 1311 708 
Q 1631 397 2203 397 
Q 2534 397 2845 478 
Q 3156 559 3463 722 
L 3463 178 
Q 3153 47 2828 -22 
Q 2503 -91 2169 -91 
Q 1331 -91 842 396 
Q 353 884 353 1716 
Q 353 2575 817 3079 
Q 1281 3584 2069 3584 
Q 2775 3584 3186 3129 
Q 3597 2675 3597 1894 
z
M 3022 2063 
Q 3016 2534 2758 2815 
Q 2500 3097 2075 3097 
Q 1594 3097 1305 2825 
Q 1016 2553 972 2059 
L 3022 2063 
z
" transform="scale(0.015625)"/>
       <path id="DejaVuSans-53" d="M 3425 4513 
L 3425 3897 
Q 3066 4069 2747 4153 
Q 2428 4238 2131 4238 
Q 1616 4238 1336 4038 
Q 1056 3838 1056 3469 
Q 1056 3159 1242 3001 
Q 1428 2844 1947 2747 
L 2328 2669 
Q 3034 2534 3370 2195 
Q 3706 1856 3706 1288 
Q 3706 609 3251 259 
Q 2797 -91 1919 -91 
Q 1588 -91 1214 -16 
Q 841 59 441 206 
L 441 856 
Q 825 641 1194 531 
Q 1563 422 1919 422 
Q 2459 422 2753 634 
Q 3047 847 3047 1241 
Q 3047 1584 2836 1778 
Q 2625 1972 2144 2069 
L 1759 2144 
Q 1053 2284 737 2584 
Q 422 2884 422 3419 
Q 422 4038 858 4394 
Q 1294 4750 2059 4750 
Q 2388 4750 2728 4690 
Q 3069 4631 3425 4513 
z
" transform="scale(0.015625)"/>
       <path id="DejaVuSans-63" d="M 3122 3366 
L 3122 2828 
Q 2878 2963 2633 3030 
Q 2388 3097 2138 3097 
Q 1578 3097 1268 2742 
Q 959 2388 959 1747 
Q 959 1106 1268 751 
Q 1578 397 2138 397 
Q 2388 397 2633 464 
Q 2878 531 3122 666 
L 3122 134 
Q 2881 22 2623 -34 
Q 2366 -91 2075 -91 
Q 1284 -91 818 406 
Q 353 903 353 1747 
Q 353 2603 823 3093 
Q 1294 3584 2113 3584 
Q 2378 3584 2631 3529 
Q 2884 3475 3122 3366 
z
" transform="scale(0.015625)"/>
       <path id="DejaVuSans-6f" d="M 1959 3097 
Q 1497 3097 1228 2736 
Q 959 2375 959 1747 
Q 959 1119 1226 758 
Q 1494 397 1959 397 
Q 2419 397 2687 759 
Q 2956 1122 2956 1747 
Q 2956 2369 2687 2733 
Q 2419 3097 1959 3097 
z
M 1959 3584 
Q 2709 3584 3137 3096 
Q 3566 2609 3566 1747 
Q 3566 888 3137 398 
Q 2709 -91 1959 -91 
Q 1206 -91 779 398 
Q 353 888 353 1747 
Q 353 2609 779 3096 
Q 1206 3584 1959 3584 
z
" transform="scale(0.015625)"/>
      </defs>
      <use xlink:href="#DejaVuSans-42"/>
      <use xlink:href="#DejaVuSans-44" transform="translate(68.603516 0)"/>
      <use xlink:href="#DejaVuSans-49" transform="translate(145.605469 0)"/>
      <use xlink:href="#DejaVuSans-20" transform="translate(175.097656 0)"/>
      <use xlink:href="#DejaVuSans-50" transform="translate(206.884766 0)"/>
      <use xlink:href="#DejaVuSans-72" transform="translate(265.4375 0)"/>
      <use xlink:href="#DejaVuSans-65" transform="translate(304.300781 0)"/>
      <use xlink:href="#DejaVuSans-20" transform="translate(365.824219 0)"/>
      <use xlink:href="#DejaVuSans-53" transform="translate(397.611328 0)"/>
      <use xlink:href="#DejaVuSans-63" transform="translate(461.087891 0)"/>
      <use xlink:href="#DejaVuSans-6f" transform="translate(516.068359 0)"/>
      <use xlink:href="#DejaVuSans-72" transform="translate(577.25 0)"/>
      <use xlink:href="#DejaVuSans-65" transform="translate(616.113281 0)"/>
     </g>
    </g>
   </g>
   <g id="matplotlib.axis_2">
    <g id="ytick_1">
     <g id="line2d_7">
      <defs>
       <path id="m646481d5da" d="M 0 0 
L -3.5 0 
" style="stroke: #000000; stroke-width: 0.8"/>
      </defs>
      <g>
       <use xlink:href="#m646481d5da" x="64.838" y="371.209091" style="stroke: #000000; stroke-width: 0.8"/>
      </g>
     </g>
     <g id="text_8">
      <!-- −1.00 -->
      <g transform="translate(27.192688 375.00831) scale(0.1 -0.1)">
       <defs>
        <path id="DejaVuSans-2212" d="M 678 2272 
L 4684 2272 
L 4684 1741 
L 678 1741 
L 678 2272 
z
" transform="scale(0.015625)"/>
        <path id="DejaVuSans-2e" d="M 684 794 
L 1344 794 
L 1344 0 
L 684 0 
L 684 794 
z
" transform="scale(0.015625)"/>
       </defs>
       <use xlink:href="#DejaVuSans-2212"/>
       <use xlink:href="#DejaVuSans-31" transform="translate(83.789062 0)"/>
       <use xlink:href="#DejaVuSans-2e" transform="translate(147.412109 0)"/>
       <use xlink:href="#DejaVuSans-30" transform="translate(179.199219 0)"/>
       <use xlink:href="#DejaVuSans-30" transform="translate(242.822266 0)"/>
      </g>
     </g>
    </g>
    <g id="ytick_2">
     <g id="line2d_8">
      <g>
       <use xlink:href="#m646481d5da" x="64.838" y="330.251818" style="stroke: #000000; stroke-width: 0.8"/>
      </g>
     </g>
     <g id="text_9">
      <!-- −0.75 -->
      <g transform="translate(27.192688 334.051037) scale(0.1 -0.1)">
       <defs>
        <path id="DejaVuSans-37" d="M 525 4666 
L 3525 4666 
L 3525 4397 
L 1831 0 
L 1172 0 
L 2766 4134 
L 525 4134 
L 525 4666 
z
" transform="scale(0.015625)"/>
       </defs>
       <use xlink:href="#DejaVuSans-2212"/>
       <use xlink:href="#DejaVuSans-30" transform="translate(83.789062 0)"/>
       <use xlink:href="#DejaVuSans-2e" transform="translate(147.412109 0)"/>
       <use xlink:href="#DejaVuSans-37" transform="translate(179.199219 0)"/>
       <use xlink:href="#DejaVuSans-35" transform="translate(242.822266 0)"/>
      </g>
     </g>
    </g>
    <g id="ytick_3">
     <g id="line2d_9">
      <g>
       <use xlink:href="#m646481d5da" x="64.838" y="289.294545" style="stroke: #000000; stroke-width: 0.8"/>
      </g>
     </g>
     <g id="text_10">
      <!-- −0.50 -->
      <g transform="translate(27.192688 293.093764) scale(0.1 -0.1)">
       <use xlink:href="#DejaVuSans-2212"/>
       <use xlink:href="#DejaVuSans-30" transform="translate(83.789062 0)"/>
       <use xlink:href="#DejaVuSans-2e" transform="translate(147.412109 0)"/>
       <use xlink:href="#DejaVuSans-35" transform="translate(179.199219 0)"/>
       <use xlink:href="#DejaVuSans-30" transform="translate(242.822266 0)"/>
      </g>
     </g>
    </g>
    <g id="ytick_4">
     <g id="line2d_10">
      <g>
       <use xlink:href="#m646481d5da" x="64.838" y="248.337273" style="stroke: #000000; stroke-width: 0.8"/>
      </g>
     </g>
     <g id="text_11">
      <!-- −0.25 -->
      <g transform="translate(27.192688 252.136491) scale(0.1 -0.1)">
       <use xlink:href="#DejaVuSans-2212"/>
       <use xlink:href="#DejaVuSans-30" transform="translate(83.789062 0)"/>
       <use xlink:href="#DejaVuSans-2e" transform="translate(147.412109 0)"/>
       <use xlink:href="#DejaVuSans-32" transform="translate(179.199219 0)"/>
       <use xlink:href="#DejaVuSans-35" transform="translate(242.822266 0)"/>
      </g>
     </g>
    </g>
    <g id="ytick_5">
     <g id="line2d_11">
      <g>
       <use xlink:href="#m646481d5da" x="64.838" y="207.38" style="stroke: #000000; stroke-width: 0.8"/>
      </g>
     </g>
     <g id="text_12">
      <!-- 0.00 -->
      <g transform="translate(35.572375 211.179219) scale(0.1 -0.1)">
       <use xlink:href="#DejaVuSans-30"/>
       <use xlink:href="#DejaVuSans-2e" transform="translate(63.623047 0)"/>
       <use xlink:href="#DejaVuSans-30" transform="translate(95.410156 0)"/>
       <use xlink:href="#DejaVuSans-30" transform="translate(159.033203 0)"/>
      </g>
     </g>
    </g>
    <g id="ytick_6">
     <g id="line2d_12">
      <g>
       <use xlink:href="#m646481d5da" x="64.838" y="166.422727" style="stroke: #000000; stroke-width: 0.8"/>
      </g>
     </g>
     <g id="text_13">
      <!-- 0.25 -->
      <g transform="translate(35.572375 170.221946) scale(0.1 -0.1)">
       <use xlink:href="#DejaVuSans-30"/>
       <use xlink:href="#DejaVuSans-2e" transform="translate(63.623047 0)"/>
       <use xlink:href="#DejaVuSans-32" transform="translate(95.410156 0)"/>
       <use xlink:href="#DejaVuSans-35" transform="translate(159.033203 0)"/>
      </g>
     </g>
    </g>
    <g id="ytick_7">
     <g id="line2d_13">
      <g>
       <use xlink:href="#m646481d5da" x="64.838" y="125.465455" style="stroke: #000000; stroke-width: 0.8"/>
      </g>
     </g>
     <g id="text_14">
      <!-- 0.50 -->
      <g transform="translate(35.572375 129.264673) scale(0.1 -0.1)">
       <use xlink:href="#DejaVuSans-30"/>
       <use xlink:href="#DejaVuSans-2e" transform="translate(63.623047 0)"/>
       <use xlink:href="#DejaVuSans-35" transform="translate(95.410156 0)"/>
       <use xlink:href="#DejaVuSans-30" transform="translate(159.033203 0)"/>
      </g>
     </g>
    </g>
    <g id="ytick_8">
     <g id="line2d_14">
      <g>
       <use xlink:href="#m646481d5da" x="64.838" y="84.508182" style="stroke: #000000; stroke-width: 0.8"/>
      </g>
     </g>
     <g id="text_15">
      <!-- 0.75 -->
      <g transform="translate(35.572375 88.307401) scale(0.1 -0.1)">
       <use xlink:href="#DejaVuSans-30"/>
       <use xlink:href="#DejaVuSans-2e" transform="translate(63.623047 0)"/>
       <use xlink:href="#DejaVuSans-37" transform="translate(95.410156 0)"/>
       <use xlink:href="#DejaVuSans-35" transform="translate(159.033203 0)"/>
      </g>
     </g>
    </g>
    <g id="ytick_9">
     <g id="line2d_15">
      <g>
       <use xlink:href="#m646481d5da" x="64.838" y="43.550909" style="stroke: #000000; stroke-width: 0.8"/>
      </g>
     </g>
     <g id="text_16">
      <!-- 1.00 -->
      <g transform="translate(35.572375 47.350128) scale(0.1 -0.1)">
       <use xlink:href="#DejaVuSans-31"/>
       <use xlink:href="#DejaVuSans-2e" transform="translate(63.623047 0)"/>
       <use xlink:href="#DejaVuSans-30" transform="translate(95.410156 0)"/>
       <use xlink:href="#DejaVuSans-30" transform="translate(159.033203 0)"/>
      </g>
     </g>
    </g>
    <g id="text_17">
     <!-- BDI Ratio -->
     <g transform="translate(20.697063 235.194688) rotate(-90) scale(0.12 -0.12)">
      <defs>
       <path id="DejaVuSans-52" d="M 2841 2188 
Q 3044 2119 3236 1894 
Q 3428 1669 3622 1275 
L 4263 0 
L 3584 0 
L 2988 1197 
Q 2756 1666 2539 1819 
Q 2322 1972 1947 1972 
L 1259 1972 
L 1259 0 
L 628 0 
L 628 4666 
L 2053 4666 
Q 2853 4666 3247 4331 
Q 3641 3997 3641 3322 
Q 3641 2881 3436 2590 
Q 3231 2300 2841 2188 
z
M 1259 4147 
L 1259 2491 
L 2053 2491 
Q 2509 2491 2742 2702 
Q 2975 2913 2975 3322 
Q 2975 3731 2742 3939 
Q 2509 4147 2053 4147 
L 1259 4147 
z
" transform="scale(0.015625)"/>
       <path id="DejaVuSans-61" d="M 2194 1759 
Q 1497 1759 1228 1600 
Q 959 1441 959 1056 
Q 959 750 1161 570 
Q 1363 391 1709 391 
Q 2188 391 2477 730 
Q 2766 1069 2766 1631 
L 2766 1759 
L 2194 1759 
z
M 3341 1997 
L 3341 0 
L 2766 0 
L 2766 531 
Q 2569 213 2275 61 
Q 1981 -91 1556 -91 
Q 1019 -91 701 211 
Q 384 513 384 1019 
Q 384 1609 779 1909 
Q 1175 2209 1959 2209 
L 2766 2209 
L 2766 2266 
Q 2766 2663 2505 2880 
Q 2244 3097 1772 3097 
Q 1472 3097 1187 3025 
Q 903 2953 641 2809 
L 641 3341 
Q 956 3463 1253 3523 
Q 1550 3584 1831 3584 
Q 2591 3584 2966 3190 
Q 3341 2797 3341 1997 
z
" transform="scale(0.015625)"/>
       <path id="DejaVuSans-74" d="M 1172 4494 
L 1172 3500 
L 2356 3500 
L 2356 3053 
L 1172 3053 
L 1172 1153 
Q 1172 725 1289 603 
Q 1406 481 1766 481 
L 2356 481 
L 2356 0 
L 1766 0 
Q 1100 0 847 248 
Q 594 497 594 1153 
L 594 3053 
L 172 3053 
L 172 3500 
L 594 3500 
L 594 4494 
L 1172 4494 
z
" transform="scale(0.015625)"/>
       <path id="DejaVuSans-69" d="M 603 3500 
L 1178 3500 
L 1178 0 
L 603 0 
L 603 3500 
z
M 603 4863 
L 1178 4863 
L 1178 4134 
L 603 4134 
L 603 4863 
z
" transform="scale(0.015625)"/>
      </defs>
      <use xlink:href="#DejaVuSans-42"/>
      <use xlink:href="#DejaVuSans-44" transform="translate(68.603516 0)"/>
      <use xlink:href="#DejaVuSans-49" transform="translate(145.605469 0)"/>
      <use xlink:href="#DejaVuSans-20" transform="translate(175.097656 0)"/>
      <use xlink:href="#DejaVuSans-52" transform="translate(206.884766 0)"/>
      <use xlink:href="#DejaVuSans-61" transform="translate(274.117188 0)"/>
      <use xlink:href="#DejaVuSans-74" transform="translate(335.396484 0)"/>
      <use xlink:href="#DejaVuSans-69" transform="translate(374.605469 0)"/>
      <use xlink:href="#DejaVuSans-6f" transform="translate(402.388672 0)"/>
     </g>
    </g>
   </g>
   <g id="line2d_16">
    <path d="M 94.146818 251.722128 
L 100.067792 250.792379 
L 105.988765 249.862631 
L 111.909738 248.932882 
L 117.830712 248.003134 
L 123.751685 247.073385 
L 129.672658 246.143637 
L 135.593632 245.213889 
L 141.514605 244.28414 
L 147.435579 243.354392 
L 153.356552 242.424643 
L 159.277525 241.494895 
L 165.198499 240.565146 
L 171.119472 239.635398 
L 177.040445 238.70565 
L 182.961419 237.775901 
L 188.882392 236.846153 
L 194.803365 235.916404 
L 200.724339 234.986656 
L 206.645312 234.056907 
L 212.566286 233.127159 
L 218.487259 232.197411 
L 224.408232 231.267662 
L 230.329206 230.337914 
L 236.250179 229.408165 
L 242.171152 228.478417 
L 248.092126 227.548668 
L 254.013099 226.61892 
L 259.934073 225.689172 
L 265.855046 224.759423 
L 271.776019 223.829675 
L 277.696993 222.899926 
L 283.617966 221.970178 
L 289.538939 221.040429 
L 295.459913 220.110681 
L 301.380886 219.180932 
L 307.30186 218.251184 
L 313.222833 217.321436 
L 319.143806 216.391687 
L 325.06478 215.461939 
L 330.985753 214.53219 
L 336.906726 213.602442 
L 342.8277 212.672693 
L 348.748673 211.742945 
L 354.669646 210.813197 
L 360.59062 209.883448 
L 366.511593 208.9537 
L 372.432567 208.023951 
L 378.35354 207.094203 
L 384.274513 206.164454 
L 390.195487 205.234706 
L 396.11646 204.304958 
L 402.037433 203.375209 
L 407.958407 202.445461 
L 413.87938 201.515712 
L 419.800354 200.585964 
L 425.721327 199.656215 
L 431.6423 198.726467 
L 437.563274 197.796719 
L 443.484247 196.86697 
L 449.40522 195.937222 
L 455.326194 195.007473 
L 461.247167 194.077725 
L 467.16814 193.147976 
L 473.089114 192.218228 
L 479.010087 191.28848 
L 484.931061 190.358731 
L 490.852034 189.428983 
L 496.773007 188.499234 
L 502.693981 187.569486 
L 508.614954 186.639737 
L 514.535927 185.709989 
L 520.456901 184.780241 
L 526.377874 183.850492 
L 532.298848 182.920744 
L 538.219821 181.990995 
L 544.140794 181.061247 
L 550.061768 180.131498 
L 555.982741 179.20175 
L 561.903714 178.272002 
L 567.824688 177.342253 
L 573.745661 176.412505 
L 579.666635 175.482756 
L 585.587608 174.553008 
L 591.508581 173.623259 
L 597.429555 172.693511 
L 603.350528 171.763763 
L 609.271501 170.834014 
L 615.192475 169.904266 
L 621.113448 168.974517 
L 627.034421 168.044769 
L 632.955395 167.11502 
L 638.876368 166.185272 
L 644.797342 165.255524 
L 650.718315 164.325775 
L 656.639288 163.396027 
L 662.560262 162.466278 
L 668.481235 161.53653 
L 674.402208 160.606781 
L 680.323182 159.677033 
" clip-path="url(#p7646e47348)" style="fill: none; stroke: #808080; stroke-width: 2.25; stroke-linecap: square"/>
   </g>
   <g id="line2d_17">
    <path d="M 94.146818 251.722128 
L 100.067792 250.792379 
L 105.988765 249.862631 
L 111.909738 248.932882 
L 117.830712 248.003134 
L 123.751685 247.073385 
L 129.672658 246.143637 
L 135.593632 245.213889 
L 141.514605 244.28414 
L 147.435579 243.354392 
L 153.356552 242.424643 
L 159.277525 241.494895 
L 165.198499 240.565146 
L 171.119472 239.635398 
L 177.040445 238.70565 
L 182.961419 237.775901 
L 188.882392 236.846153 
L 194.803365 235.916404 
L 200.724339 234.986656 
L 206.645312 234.056907 
L 212.566286 233.127159 
L 218.487259 232.197411 
L 224.408232 231.267662 
L 230.329206 230.337914 
L 236.250179 229.408165 
L 242.171152 228.478417 
L 248.092126 227.548668 
L 254.013099 226.61892 
L 259.934073 225.689172 
L 265.855046 224.759423 
L 271.776019 223.829675 
L 277.696993 222.899926 
L 283.617966 221.970178 
L 289.538939 221.040429 
L 295.459913 220.110681 
L 301.380886 219.180932 
L 307.30186 218.251184 
L 313.222833 217.321436 
L 319.143806 216.391687 
L 325.06478 215.461939 
L 330.985753 214.53219 
L 336.906726 213.602442 
L 342.8277 212.672693 
L 348.748673 211.742945 
L 354.669646 210.813197 
L 360.59062 209.883448 
L 366.511593 208.9537 
L 372.432567 208.023951 
L 378.35354 207.094203 
L 384.274513 206.164454 
L 390.195487 205.234706 
L 396.11646 204.304958 
L 402.037433 203.375209 
L 407.958407 202.445461 
L 413.87938 201.515712 
L 419.800354 200.585964 
L 425.721327 199.656215 
L 431.6423 198.726467 
L 437.563274 197.796719 
L 443.484247 196.86697 
L 449.40522 195.937222 
L 455.326194 195.007473 
L 461.247167 194.077725 
L 467.16814 193.147976 
L 473.089114 192.218228 
L 479.010087 191.28848 
L 484.931061 190.358731 
L 490.852034 189.428983 
L 496.773007 188.499234 
L 502.693981 187.569486 
L 508.614954 186.639737 
L 514.535927 185.709989 
L 520.456901 184.780241 
L 526.377874 183.850492 
L 532.298848 182.920744 
L 538.219821 181.990995 
L 544.140794 181.061247 
L 550.061768 180.131498 
L 555.982741 179.20175 
L 561.903714 178.272002 
L 567.824688 177.342253 
L 573.745661 176.412505 
L 579.666635 175.482756 
L 585.587608 174.553008 
L 591.508581 173.623259 
L 597.429555 172.693511 
L 603.350528 171.763763 
L 609.271501 170.834014 
L 615.192475 169.904266 
L 621.113448 168.974517 
L 627.034421 168.044769 
L 632.955395 167.11502 
L 638.876368 166.185272 
L 644.797342 165.255524 
L 650.718315 164.325775 
L 656.639288 163.396027 
L 662.560262 162.466278 
L 668.481235 161.53653 
L 674.402208 160.606781 
L 680.323182 159.677033 
" clip-path="url(#p7646e47348)" style="fill: none; stroke: #808080; stroke-width: 2.25; stroke-linecap: square"/>
   </g>
   <g id="patch_5">
    <path d="M 64.838 387.592 
L 64.838 27.168 
" style="fill: none; stroke: #000000; stroke-width: 0.8; stroke-linejoin: miter; stroke-linecap: square"/>
   </g>
   <g id="patch_6">
    <path d="M 64.838 387.592 
L 709.632 387.592 
" style="fill: none; stroke: #000000; stroke-width: 0.8; stroke-linejoin: miter; stroke-linecap: square"/>
   </g>
   <g id="text_18">
    <g id="patch_7">
     <path d="M 93.1177 74.200325 
L 209.91145 74.200325 
L 209.91145 41.2292 
L 93.1177 41.2292 
z
" style="fill: #ffffff; opacity: 0.5; stroke: #000000; stroke-linejoin: miter"/>
    </g>
    <!-- R: 0.32 -->
    <g transform="translate(97.0777 54.307325) scale(0.12 -0.12)">
     <defs>
      <path id="DejaVuSans-3a" d="M 750 794 
L 1409 794 
L 1409 0 
L 750 0 
L 750 794 
z
M 750 3309 
L 1409 3309 
L 1409 2516 
L 750 2516 
L 750 3309 
z
" transform="scale(0.015625)"/>
      <path id="DejaVuSans-33" d="M 2597 2516 
Q 3050 2419 3304 2112 
Q 3559 1806 3559 1356 
Q 3559 666 3084 287 
Q 2609 -91 1734 -91 
Q 1441 -91 1130 -33 
Q 819 25 488 141 
L 488 750 
Q 750 597 1062 519 
Q 1375 441 1716 441 
Q 2309 441 2620 675 
Q 2931 909 2931 1356 
Q 2931 1769 2642 2001 
Q 2353 2234 1838 2234 
L 1294 2234 
L 1294 2753 
L 1863 2753 
Q 2328 2753 2575 2939 
Q 2822 3125 2822 3475 
Q 2822 3834 2567 4026 
Q 2313 4219 1838 4219 
Q 1578 4219 1281 4162 
Q 984 4106 628 3988 
L 628 4550 
Q 988 4650 1302 4700 
Q 1616 4750 1894 4750 
Q 2613 4750 3031 4423 
Q 3450 4097 3450 3541 
Q 3450 3153 3228 2886 
Q 3006 2619 2597 2516 
z
" transform="scale(0.015625)"/>
     </defs>
     <use xlink:href="#DejaVuSans-52"/>
     <use xlink:href="#DejaVuSans-3a" transform="translate(66.357422 0)"/>
     <use xlink:href="#DejaVuSans-20" transform="translate(100.048828 0)"/>
     <use xlink:href="#DejaVuSans-30" transform="translate(131.835938 0)"/>
     <use xlink:href="#DejaVuSans-2e" transform="translate(195.458984 0)"/>
     <use xlink:href="#DejaVuSans-33" transform="translate(227.246094 0)"/>
     <use xlink:href="#DejaVuSans-32" transform="translate(290.869141 0)"/>
    </g>
    <!-- P-value: 0.000106 -->
    <g transform="translate(97.0777 67.7447) scale(0.12 -0.12)">
     <defs>
      <path id="DejaVuSans-2d" d="M 313 2009 
L 1997 2009 
L 1997 1497 
L 313 1497 
L 313 2009 
z
" transform="scale(0.015625)"/>
      <path id="DejaVuSans-76" d="M 191 3500 
L 800 3500 
L 1894 563 
L 2988 3500 
L 3597 3500 
L 2284 0 
L 1503 0 
L 191 3500 
z
" transform="scale(0.015625)"/>
      <path id="DejaVuSans-6c" d="M 603 4863 
L 1178 4863 
L 1178 0 
L 603 0 
L 603 4863 
z
" transform="scale(0.015625)"/>
      <path id="DejaVuSans-75" d="M 544 1381 
L 544 3500 
L 1119 3500 
L 1119 1403 
Q 1119 906 1312 657 
Q 1506 409 1894 409 
Q 2359 409 2629 706 
Q 2900 1003 2900 1516 
L 2900 3500 
L 3475 3500 
L 3475 0 
L 2900 0 
L 2900 538 
Q 2691 219 2414 64 
Q 2138 -91 1772 -91 
Q 1169 -91 856 284 
Q 544 659 544 1381 
z
M 1991 3584 
L 1991 3584 
z
" transform="scale(0.015625)"/>
      <path id="DejaVuSans-36" d="M 2113 2584 
Q 1688 2584 1439 2293 
Q 1191 2003 1191 1497 
Q 1191 994 1439 701 
Q 1688 409 2113 409 
Q 2538 409 2786 701 
Q 3034 994 3034 1497 
Q 3034 2003 2786 2293 
Q 2538 2584 2113 2584 
z
M 3366 4563 
L 3366 3988 
Q 3128 4100 2886 4159 
Q 2644 4219 2406 4219 
Q 1781 4219 1451 3797 
Q 1122 3375 1075 2522 
Q 1259 2794 1537 2939 
Q 1816 3084 2150 3084 
Q 2853 3084 3261 2657 
Q 3669 2231 3669 1497 
Q 3669 778 3244 343 
Q 2819 -91 2113 -91 
Q 1303 -91 875 529 
Q 447 1150 447 2328 
Q 447 3434 972 4092 
Q 1497 4750 2381 4750 
Q 2619 4750 2861 4703 
Q 3103 4656 3366 4563 
z
" transform="scale(0.015625)"/>
     </defs>
     <use xlink:href="#DejaVuSans-50"/>
     <use xlink:href="#DejaVuSans-2d" transform="translate(58.052734 0)"/>
     <use xlink:href="#DejaVuSans-76" transform="translate(91.511719 0)"/>
     <use xlink:href="#DejaVuSans-61" transform="translate(150.691406 0)"/>
     <use xlink:href="#DejaVuSans-6c" transform="translate(211.970703 0)"/>
     <use xlink:href="#DejaVuSans-75" transform="translate(239.753906 0)"/>
     <use xlink:href="#DejaVuSans-65" transform="translate(303.132812 0)"/>
     <use xlink:href="#DejaVuSans-3a" transform="translate(364.65625 0)"/>
     <use xlink:href="#DejaVuSans-20" transform="translate(398.347656 0)"/>
     <use xlink:href="#DejaVuSans-30" transform="translate(430.134766 0)"/>
     <use xlink:href="#DejaVuSans-2e" transform="translate(493.757812 0)"/>
     <use xlink:href="#DejaVuSans-30" transform="translate(525.544922 0)"/>
     <use xlink:href="#DejaVuSans-30" transform="translate(589.167969 0)"/>
     <use xlink:href="#DejaVuSans-30" transform="translate(652.791016 0)"/>
     <use xlink:href="#DejaVuSans-31" transform="translate(716.414062 0)"/>
     <use xlink:href="#DejaVuSans-30" transform="translate(780.037109 0)"/>
     <use xlink:href="#DejaVuSans-36" transform="translate(843.660156 0)"/>
    </g>
   </g>
   <g id="text_19">
    <!-- Pre vs. Ratio  N=138 -->
    <g transform="translate(314.764219 21.168) scale(0.14 -0.14)">
     <defs>
      <path id="DejaVuSans-73" d="M 2834 3397 
L 2834 2853 
Q 2591 2978 2328 3040 
Q 2066 3103 1784 3103 
Q 1356 3103 1142 2972 
Q 928 2841 928 2578 
Q 928 2378 1081 2264 
Q 1234 2150 1697 2047 
L 1894 2003 
Q 2506 1872 2764 1633 
Q 3022 1394 3022 966 
Q 3022 478 2636 193 
Q 2250 -91 1575 -91 
Q 1294 -91 989 -36 
Q 684 19 347 128 
L 347 722 
Q 666 556 975 473 
Q 1284 391 1588 391 
Q 1994 391 2212 530 
Q 2431 669 2431 922 
Q 2431 1156 2273 1281 
Q 2116 1406 1581 1522 
L 1381 1569 
Q 847 1681 609 1914 
Q 372 2147 372 2553 
Q 372 3047 722 3315 
Q 1072 3584 1716 3584 
Q 2034 3584 2315 3537 
Q 2597 3491 2834 3397 
z
" transform="scale(0.015625)"/>
      <path id="DejaVuSans-4e" d="M 628 4666 
L 1478 4666 
L 3547 763 
L 3547 4666 
L 4159 4666 
L 4159 0 
L 3309 0 
L 1241 3903 
L 1241 0 
L 628 0 
L 628 4666 
z
" transform="scale(0.015625)"/>
      <path id="DejaVuSans-3d" d="M 678 2906 
L 4684 2906 
L 4684 2381 
L 678 2381 
L 678 2906 
z
M 678 1631 
L 4684 1631 
L 4684 1100 
L 678 1100 
L 678 1631 
z
" transform="scale(0.015625)"/>
      <path id="DejaVuSans-38" d="M 2034 2216 
Q 1584 2216 1326 1975 
Q 1069 1734 1069 1313 
Q 1069 891 1326 650 
Q 1584 409 2034 409 
Q 2484 409 2743 651 
Q 3003 894 3003 1313 
Q 3003 1734 2745 1975 
Q 2488 2216 2034 2216 
z
M 1403 2484 
Q 997 2584 770 2862 
Q 544 3141 544 3541 
Q 544 4100 942 4425 
Q 1341 4750 2034 4750 
Q 2731 4750 3128 4425 
Q 3525 4100 3525 3541 
Q 3525 3141 3298 2862 
Q 3072 2584 2669 2484 
Q 3125 2378 3379 2068 
Q 3634 1759 3634 1313 
Q 3634 634 3220 271 
Q 2806 -91 2034 -91 
Q 1263 -91 848 271 
Q 434 634 434 1313 
Q 434 1759 690 2068 
Q 947 2378 1403 2484 
z
M 1172 3481 
Q 1172 3119 1398 2916 
Q 1625 2713 2034 2713 
Q 2441 2713 2670 2916 
Q 2900 3119 2900 3481 
Q 2900 3844 2670 4047 
Q 2441 4250 2034 4250 
Q 1625 4250 1398 4047 
Q 1172 3844 1172 3481 
z
" transform="scale(0.015625)"/>
     </defs>
     <use xlink:href="#DejaVuSans-50"/>
     <use xlink:href="#DejaVuSans-72" transform="translate(58.552734 0)"/>
     <use xlink:href="#DejaVuSans-65" transform="translate(97.416016 0)"/>
     <use xlink:href="#DejaVuSans-20" transform="translate(158.939453 0)"/>
     <use xlink:href="#DejaVuSans-76" transform="translate(190.726562 0)"/>
     <use xlink:href="#DejaVuSans-73" transform="translate(249.90625 0)"/>
     <use xlink:href="#DejaVuSans-2e" transform="translate(302.005859 0)"/>
     <use xlink:href="#DejaVuSans-20" transform="translate(333.792969 0)"/>
     <use xlink:href="#DejaVuSans-52" transform="translate(365.580078 0)"/>
     <use xlink:href="#DejaVuSans-61" transform="translate(432.8125 0)"/>
     <use xlink:href="#DejaVuSans-74" transform="translate(494.091797 0)"/>
     <use xlink:href="#DejaVuSans-69" transform="translate(533.300781 0)"/>
     <use xlink:href="#DejaVuSans-6f" transform="translate(561.083984 0)"/>
     <use xlink:href="#DejaVuSans-20" transform="translate(622.265625 0)"/>
     <use xlink:href="#DejaVuSans-20" transform="translate(654.052734 0)"/>
     <use xlink:href="#DejaVuSans-4e" transform="translate(685.839844 0)"/>
     <use xlink:href="#DejaVuSans-3d" transform="translate(760.644531 0)"/>
     <use xlink:href="#DejaVuSans-31" transform="translate(844.433594 0)"/>
     <use xlink:href="#DejaVuSans-33" transform="translate(908.056641 0)"/>
     <use xlink:href="#DejaVuSans-38" transform="translate(971.679688 0)"/>
    </g>
   </g>
  </g>
 </g>
 <defs>
  <clipPath id="p7646e47348">
   <rect x="64.838" y="27.168" width="644.794" height="360.424"/>
  </clipPath>
 </defs>
</svg>
