<?xml version="1.0" encoding="utf-8" standalone="no"?>
<!DOCTYPE svg PUBLIC "-//W3C//DTD SVG 1.1//EN"
  "http://www.w3.org/Graphics/SVG/1.1/DTD/svg11.dtd">
<svg xmlns:xlink="http://www.w3.org/1999/xlink" width="720pt" height="432pt" viewBox="0 0 720 432" xmlns="http://www.w3.org/2000/svg" version="1.1">
 <metadata>
  <rdf:RDF xmlns:dc="http://purl.org/dc/elements/1.1/" xmlns:cc="http://creativecommons.org/ns#" xmlns:rdf="http://www.w3.org/1999/02/22-rdf-syntax-ns#">
   <cc:Work>
    <dc:type rdf:resource="http://purl.org/dc/dcmitype/StillImage"/>
    <dc:date>2025-06-12T08:44:34.158360</dc:date>
    <dc:format>image/svg+xml</dc:format>
    <dc:creator>
     <cc:Agent>
      <dc:title>Matplotlib v3.10.0, https://matplotlib.org/</dc:title>
     </cc:Agent>
    </dc:creator>
   </cc:Work>
  </rdf:RDF>
 </metadata>
 <defs>
  <style type="text/css">*{stroke-linejoin: round; stroke-linecap: butt}</style>
 </defs>
 <g id="figure_1">
  <g id="patch_1">
   <path d="M 0 432 
L 720 432 
L 720 0 
L 0 0 
z
" style="fill: #ffffff"/>
  </g>
  <g id="axes_1">
   <g id="patch_2">
    <path d="M 64.838 387.592 
L 709.632 387.592 
L 709.632 27.168 
L 64.838 27.168 
z
" style="fill: #ffffff"/>
   </g>
   <g id="patch_3">
    <path d="M 64.838 387.592 
L 709.632 387.592 
L 709.632 207.38 
L 64.838 207.38 
z
" clip-path="url(#p2ccfa16db5)" style="fill: #ff5714; opacity: 0.08; stroke: #ff5714; stroke-linejoin: miter"/>
   </g>
   <g id="patch_4">
    <path d="M 64.838 207.38 
L 709.632 207.38 
L 709.632 27.168 
L 64.838 27.168 
z
" clip-path="url(#p2ccfa16db5)" style="fill: #04e762; opacity: 0.08; stroke: #04e762; stroke-linejoin: miter"/>
   </g>
   <g id="PathCollection_1">
    <defs>
     <path id="m7dcf0da175" d="M 0 3 
C 0.795609 3 1.55874 2.683901 2.12132 2.12132 
C 2.683901 1.55874 3 0.795609 3 0 
C 3 -0.795609 2.683901 -1.55874 2.12132 -2.12132 
C 1.55874 -2.683901 0.795609 -3 0 -3 
C -0.795609 -3 -1.55874 -2.683901 -2.12132 -2.12132 
C -2.683901 -1.55874 -3 -0.795609 -3 0 
C -3 0.795609 -2.683901 1.55874 -2.12132 2.12132 
C -1.55874 2.683901 -0.795609 3 0 3 
z
" style="stroke: #ffffff; stroke-opacity: 0.7; stroke-width: 0.48"/>
    </defs>
    <g clip-path="url(#p2ccfa16db5)">
     <use xlink:href="#m7dcf0da175" x="282.560649" y="237.167107" style="fill: #1f77b4; fill-opacity: 0.7; stroke: #ffffff; stroke-opacity: 0.7; stroke-width: 0.48"/>
     <use xlink:href="#m7dcf0da175" x="282.560649" y="230.784156" style="fill: #1f77b4; fill-opacity: 0.7; stroke: #ffffff; stroke-opacity: 0.7; stroke-width: 0.48"/>
     <use xlink:href="#m7dcf0da175" x="303.495519" y="240.145818" style="fill: #1f77b4; fill-opacity: 0.7; stroke: #ffffff; stroke-opacity: 0.7; stroke-width: 0.48"/>
     <use xlink:href="#m7dcf0da175" x="345.36526" y="192.486446" style="fill: #1f77b4; fill-opacity: 0.7; stroke: #ffffff; stroke-opacity: 0.7; stroke-width: 0.48"/>
     <use xlink:href="#m7dcf0da175" x="303.495519" y="228.749012" style="fill: #1f77b4; fill-opacity: 0.7; stroke: #ffffff; stroke-opacity: 0.7; stroke-width: 0.48"/>
     <use xlink:href="#m7dcf0da175" x="303.495519" y="228.749012" style="fill: #1f77b4; fill-opacity: 0.7; stroke: #ffffff; stroke-opacity: 0.7; stroke-width: 0.48"/>
     <use xlink:href="#m7dcf0da175" x="156.951429" y="125.465455" style="fill: #1f77b4; fill-opacity: 0.7; stroke: #ffffff; stroke-opacity: 0.7; stroke-width: 0.48"/>
     <use xlink:href="#m7dcf0da175" x="429.10474" y="202.095191" style="fill: #1f77b4; fill-opacity: 0.7; stroke: #ffffff; stroke-opacity: 0.7; stroke-width: 0.48"/>
     <use xlink:href="#m7dcf0da175" x="282.560649" y="261.989697" style="fill: #1f77b4; fill-opacity: 0.7; stroke: #ffffff; stroke-opacity: 0.7; stroke-width: 0.48"/>
     <use xlink:href="#m7dcf0da175" x="387.235" y="201.312256" style="fill: #1f77b4; fill-opacity: 0.7; stroke: #ffffff; stroke-opacity: 0.7; stroke-width: 0.48"/>
     <use xlink:href="#m7dcf0da175" x="387.235" y="236.291016" style="fill: #1f77b4; fill-opacity: 0.7; stroke: #ffffff; stroke-opacity: 0.7; stroke-width: 0.48"/>
     <use xlink:href="#m7dcf0da175" x="324.43039" y="221.032424" style="fill: #1f77b4; fill-opacity: 0.7; stroke: #ffffff; stroke-opacity: 0.7; stroke-width: 0.48"/>
     <use xlink:href="#m7dcf0da175" x="156.951429" y="261.989697" style="fill: #1f77b4; fill-opacity: 0.7; stroke: #ffffff; stroke-opacity: 0.7; stroke-width: 0.48"/>
     <use xlink:href="#m7dcf0da175" x="219.756039" y="255.565027" style="fill: #1f77b4; fill-opacity: 0.7; stroke: #ffffff; stroke-opacity: 0.7; stroke-width: 0.48"/>
     <use xlink:href="#m7dcf0da175" x="240.690909" y="141.848364" style="fill: #1f77b4; fill-opacity: 0.7; stroke: #ffffff; stroke-opacity: 0.7; stroke-width: 0.48"/>
     <use xlink:href="#m7dcf0da175" x="219.756039" y="192.486446" style="fill: #1f77b4; fill-opacity: 0.7; stroke: #ffffff; stroke-opacity: 0.7; stroke-width: 0.48"/>
     <use xlink:href="#m7dcf0da175" x="219.756039" y="277.592468" style="fill: #1f77b4; fill-opacity: 0.7; stroke: #ffffff; stroke-opacity: 0.7; stroke-width: 0.48"/>
     <use xlink:href="#m7dcf0da175" x="282.560649" y="186.901364" style="fill: #1f77b4; fill-opacity: 0.7; stroke: #ffffff; stroke-opacity: 0.7; stroke-width: 0.48"/>
     <use xlink:href="#m7dcf0da175" x="345.36526" y="183.975844" style="fill: #1f77b4; fill-opacity: 0.7; stroke: #ffffff; stroke-opacity: 0.7; stroke-width: 0.48"/>
     <use xlink:href="#m7dcf0da175" x="596.583701" y="139.920963" style="fill: #1f77b4; fill-opacity: 0.7; stroke: #ffffff; stroke-opacity: 0.7; stroke-width: 0.48"/>
     <use xlink:href="#m7dcf0da175" x="177.886299" y="298.396162" style="fill: #1f77b4; fill-opacity: 0.7; stroke: #ffffff; stroke-opacity: 0.7; stroke-width: 0.48"/>
     <use xlink:href="#m7dcf0da175" x="219.756039" y="230.784156" style="fill: #1f77b4; fill-opacity: 0.7; stroke: #ffffff; stroke-opacity: 0.7; stroke-width: 0.48"/>
     <use xlink:href="#m7dcf0da175" x="303.495519" y="178.468984" style="fill: #1f77b4; fill-opacity: 0.7; stroke: #ffffff; stroke-opacity: 0.7; stroke-width: 0.48"/>
     <use xlink:href="#m7dcf0da175" x="94.146818" y="371.209091" style="fill: #1f77b4; fill-opacity: 0.7; stroke: #ffffff; stroke-opacity: 0.7; stroke-width: 0.48"/>
     <use xlink:href="#m7dcf0da175" x="282.560649" y="216.002584" style="fill: #1f77b4; fill-opacity: 0.7; stroke: #ffffff; stroke-opacity: 0.7; stroke-width: 0.48"/>
     <use xlink:href="#m7dcf0da175" x="617.518571" y="193.133992" style="fill: #1f77b4; fill-opacity: 0.7; stroke: #ffffff; stroke-opacity: 0.7; stroke-width: 0.48"/>
     <use xlink:href="#m7dcf0da175" x="177.886299" y="183.975844" style="fill: #1f77b4; fill-opacity: 0.7; stroke: #ffffff; stroke-opacity: 0.7; stroke-width: 0.48"/>
     <use xlink:href="#m7dcf0da175" x="240.690909" y="218.301939" style="fill: #1f77b4; fill-opacity: 0.7; stroke: #ffffff; stroke-opacity: 0.7; stroke-width: 0.48"/>
     <use xlink:href="#m7dcf0da175" x="240.690909" y="227.858636" style="fill: #1f77b4; fill-opacity: 0.7; stroke: #ffffff; stroke-opacity: 0.7; stroke-width: 0.48"/>
     <use xlink:href="#m7dcf0da175" x="282.560649" y="207.38" style="fill: #1f77b4; fill-opacity: 0.7; stroke: #ffffff; stroke-opacity: 0.7; stroke-width: 0.48"/>
     <use xlink:href="#m7dcf0da175" x="240.690909" y="162.699339" style="fill: #1f77b4; fill-opacity: 0.7; stroke: #ffffff; stroke-opacity: 0.7; stroke-width: 0.48"/>
     <use xlink:href="#m7dcf0da175" x="240.690909" y="84.508182" style="fill: #1f77b4; fill-opacity: 0.7; stroke: #ffffff; stroke-opacity: 0.7; stroke-width: 0.48"/>
     <use xlink:href="#m7dcf0da175" x="240.690909" y="218.301939" style="fill: #1f77b4; fill-opacity: 0.7; stroke: #ffffff; stroke-opacity: 0.7; stroke-width: 0.48"/>
     <use xlink:href="#m7dcf0da175" x="408.16987" y="157.518972" style="fill: #1f77b4; fill-opacity: 0.7; stroke: #ffffff; stroke-opacity: 0.7; stroke-width: 0.48"/>
     <use xlink:href="#m7dcf0da175" x="659.388312" y="186.901364" style="fill: #1f77b4; fill-opacity: 0.7; stroke: #ffffff; stroke-opacity: 0.7; stroke-width: 0.48"/>
     <use xlink:href="#m7dcf0da175" x="261.625779" y="152.770303" style="fill: #1f77b4; fill-opacity: 0.7; stroke: #ffffff; stroke-opacity: 0.7; stroke-width: 0.48"/>
     <use xlink:href="#m7dcf0da175" x="198.821169" y="289.294545" style="fill: #1f77b4; fill-opacity: 0.7; stroke: #ffffff; stroke-opacity: 0.7; stroke-width: 0.48"/>
     <use xlink:href="#m7dcf0da175" x="387.235" y="180.075152" style="fill: #1f77b4; fill-opacity: 0.7; stroke: #ffffff; stroke-opacity: 0.7; stroke-width: 0.48"/>
     <use xlink:href="#m7dcf0da175" x="512.844221" y="178.468984" style="fill: #1f77b4; fill-opacity: 0.7; stroke: #ffffff; stroke-opacity: 0.7; stroke-width: 0.48"/>
     <use xlink:href="#m7dcf0da175" x="324.43039" y="170.973535" style="fill: #1f77b4; fill-opacity: 0.7; stroke: #ffffff; stroke-opacity: 0.7; stroke-width: 0.48"/>
     <use xlink:href="#m7dcf0da175" x="345.36526" y="200.256996" style="fill: #1f77b4; fill-opacity: 0.7; stroke: #ffffff; stroke-opacity: 0.7; stroke-width: 0.48"/>
     <use xlink:href="#m7dcf0da175" x="177.886299" y="152.770303" style="fill: #1f77b4; fill-opacity: 0.7; stroke: #ffffff; stroke-opacity: 0.7; stroke-width: 0.48"/>
     <use xlink:href="#m7dcf0da175" x="680.323182" y="152.770303" style="fill: #1f77b4; fill-opacity: 0.7; stroke: #ffffff; stroke-opacity: 0.7; stroke-width: 0.48"/>
     <use xlink:href="#m7dcf0da175" x="512.844221" y="215.181385" style="fill: #1f77b4; fill-opacity: 0.7; stroke: #ffffff; stroke-opacity: 0.7; stroke-width: 0.48"/>
     <use xlink:href="#m7dcf0da175" x="177.886299" y="183.975844" style="fill: #1f77b4; fill-opacity: 0.7; stroke: #ffffff; stroke-opacity: 0.7; stroke-width: 0.48"/>
     <use xlink:href="#m7dcf0da175" x="303.495519" y="234.684848" style="fill: #1f77b4; fill-opacity: 0.7; stroke: #ffffff; stroke-opacity: 0.7; stroke-width: 0.48"/>
     <use xlink:href="#m7dcf0da175" x="261.625779" y="79.957374" style="fill: #1f77b4; fill-opacity: 0.7; stroke: #ffffff; stroke-opacity: 0.7; stroke-width: 0.48"/>
     <use xlink:href="#m7dcf0da175" x="366.30013" y="259.115502" style="fill: #1f77b4; fill-opacity: 0.7; stroke: #ffffff; stroke-opacity: 0.7; stroke-width: 0.48"/>
     <use xlink:href="#m7dcf0da175" x="638.453442" y="207.38" style="fill: #1f77b4; fill-opacity: 0.7; stroke: #ffffff; stroke-opacity: 0.7; stroke-width: 0.48"/>
     <use xlink:href="#m7dcf0da175" x="219.756039" y="319.473589" style="fill: #1f77b4; fill-opacity: 0.7; stroke: #ffffff; stroke-opacity: 0.7; stroke-width: 0.48"/>
     <use xlink:href="#m7dcf0da175" x="282.560649" y="207.38" style="fill: #1f77b4; fill-opacity: 0.7; stroke: #ffffff; stroke-opacity: 0.7; stroke-width: 0.48"/>
     <use xlink:href="#m7dcf0da175" x="219.756039" y="261.989697" style="fill: #1f77b4; fill-opacity: 0.7; stroke: #ffffff; stroke-opacity: 0.7; stroke-width: 0.48"/>
     <use xlink:href="#m7dcf0da175" x="450.03961" y="255.163485" style="fill: #1f77b4; fill-opacity: 0.7; stroke: #ffffff; stroke-opacity: 0.7; stroke-width: 0.48"/>
     <use xlink:href="#m7dcf0da175" x="261.625779" y="240.145818" style="fill: #1f77b4; fill-opacity: 0.7; stroke: #ffffff; stroke-opacity: 0.7; stroke-width: 0.48"/>
     <use xlink:href="#m7dcf0da175" x="156.951429" y="281.847769" style="fill: #1f77b4; fill-opacity: 0.7; stroke: #ffffff; stroke-opacity: 0.7; stroke-width: 0.48"/>
     <use xlink:href="#m7dcf0da175" x="345.36526" y="200.256996" style="fill: #1f77b4; fill-opacity: 0.7; stroke: #ffffff; stroke-opacity: 0.7; stroke-width: 0.48"/>
     <use xlink:href="#m7dcf0da175" x="408.16987" y="147.805785" style="fill: #1f77b4; fill-opacity: 0.7; stroke: #ffffff; stroke-opacity: 0.7; stroke-width: 0.48"/>
     <use xlink:href="#m7dcf0da175" x="282.560649" y="186.901364" style="fill: #1f77b4; fill-opacity: 0.7; stroke: #ffffff; stroke-opacity: 0.7; stroke-width: 0.48"/>
     <use xlink:href="#m7dcf0da175" x="282.560649" y="230.784156" style="fill: #1f77b4; fill-opacity: 0.7; stroke: #ffffff; stroke-opacity: 0.7; stroke-width: 0.48"/>
     <use xlink:href="#m7dcf0da175" x="261.625779" y="152.770303" style="fill: #1f77b4; fill-opacity: 0.7; stroke: #ffffff; stroke-opacity: 0.7; stroke-width: 0.48"/>
     <use xlink:href="#m7dcf0da175" x="282.560649" y="237.167107" style="fill: #1f77b4; fill-opacity: 0.7; stroke: #ffffff; stroke-opacity: 0.7; stroke-width: 0.48"/>
     <use xlink:href="#m7dcf0da175" x="261.625779" y="257.241028" style="fill: #1f77b4; fill-opacity: 0.7; stroke: #ffffff; stroke-opacity: 0.7; stroke-width: 0.48"/>
     <use xlink:href="#m7dcf0da175" x="156.951429" y="295.595664" style="fill: #1f77b4; fill-opacity: 0.7; stroke: #ffffff; stroke-opacity: 0.7; stroke-width: 0.48"/>
     <use xlink:href="#m7dcf0da175" x="659.388312" y="118.444208" style="fill: #1f77b4; fill-opacity: 0.7; stroke: #ffffff; stroke-opacity: 0.7; stroke-width: 0.48"/>
     <use xlink:href="#m7dcf0da175" x="156.951429" y="43.550909" style="fill: #1f77b4; fill-opacity: 0.7; stroke: #ffffff; stroke-opacity: 0.7; stroke-width: 0.48"/>
     <use xlink:href="#m7dcf0da175" x="324.43039" y="190.997091" style="fill: #1f77b4; fill-opacity: 0.7; stroke: #ffffff; stroke-opacity: 0.7; stroke-width: 0.48"/>
     <use xlink:href="#m7dcf0da175" x="261.625779" y="207.38" style="fill: #1f77b4; fill-opacity: 0.7; stroke: #ffffff; stroke-opacity: 0.7; stroke-width: 0.48"/>
     <use xlink:href="#m7dcf0da175" x="240.690909" y="307.497778" style="fill: #1f77b4; fill-opacity: 0.7; stroke: #ffffff; stroke-opacity: 0.7; stroke-width: 0.48"/>
     <use xlink:href="#m7dcf0da175" x="470.974481" y="160.571688" style="fill: #1f77b4; fill-opacity: 0.7; stroke: #ffffff; stroke-opacity: 0.7; stroke-width: 0.48"/>
     <use xlink:href="#m7dcf0da175" x="198.821169" y="234.684848" style="fill: #1f77b4; fill-opacity: 0.7; stroke: #ffffff; stroke-opacity: 0.7; stroke-width: 0.48"/>
     <use xlink:href="#m7dcf0da175" x="136.016558" y="298.396162" style="fill: #1f77b4; fill-opacity: 0.7; stroke: #ffffff; stroke-opacity: 0.7; stroke-width: 0.48"/>
     <use xlink:href="#m7dcf0da175" x="240.690909" y="250.492919" style="fill: #1f77b4; fill-opacity: 0.7; stroke: #ffffff; stroke-opacity: 0.7; stroke-width: 0.48"/>
     <use xlink:href="#m7dcf0da175" x="261.625779" y="240.145818" style="fill: #1f77b4; fill-opacity: 0.7; stroke: #ffffff; stroke-opacity: 0.7; stroke-width: 0.48"/>
     <use xlink:href="#m7dcf0da175" x="282.560649" y="216.002584" style="fill: #1f77b4; fill-opacity: 0.7; stroke: #ffffff; stroke-opacity: 0.7; stroke-width: 0.48"/>
     <use xlink:href="#m7dcf0da175" x="198.821169" y="284.983254" style="fill: #1f77b4; fill-opacity: 0.7; stroke: #ffffff; stroke-opacity: 0.7; stroke-width: 0.48"/>
     <use xlink:href="#m7dcf0da175" x="240.690909" y="243.786465" style="fill: #1f77b4; fill-opacity: 0.7; stroke: #ffffff; stroke-opacity: 0.7; stroke-width: 0.48"/>
     <use xlink:href="#m7dcf0da175" x="219.756039" y="277.592468" style="fill: #1f77b4; fill-opacity: 0.7; stroke: #ffffff; stroke-opacity: 0.7; stroke-width: 0.48"/>
     <use xlink:href="#m7dcf0da175" x="198.821169" y="254.188312" style="fill: #1f77b4; fill-opacity: 0.7; stroke: #ffffff; stroke-opacity: 0.7; stroke-width: 0.48"/>
     <use xlink:href="#m7dcf0da175" x="345.36526" y="264.941572" style="fill: #1f77b4; fill-opacity: 0.7; stroke: #ffffff; stroke-opacity: 0.7; stroke-width: 0.48"/>
     <use xlink:href="#m7dcf0da175" x="450.03961" y="156.971049" style="fill: #1f77b4; fill-opacity: 0.7; stroke: #ffffff; stroke-opacity: 0.7; stroke-width: 0.48"/>
     <use xlink:href="#m7dcf0da175" x="156.951429" y="43.550909" style="fill: #1f77b4; fill-opacity: 0.7; stroke: #ffffff; stroke-opacity: 0.7; stroke-width: 0.48"/>
     <use xlink:href="#m7dcf0da175" x="303.495519" y="222.273554" style="fill: #1f77b4; fill-opacity: 0.7; stroke: #ffffff; stroke-opacity: 0.7; stroke-width: 0.48"/>
     <use xlink:href="#m7dcf0da175" x="324.43039" y="254.943284" style="fill: #1f77b4; fill-opacity: 0.7; stroke: #ffffff; stroke-opacity: 0.7; stroke-width: 0.48"/>
     <use xlink:href="#m7dcf0da175" x="324.43039" y="221.032424" style="fill: #1f77b4; fill-opacity: 0.7; stroke: #ffffff; stroke-opacity: 0.7; stroke-width: 0.48"/>
     <use xlink:href="#m7dcf0da175" x="282.560649" y="286.95413" style="fill: #1f77b4; fill-opacity: 0.7; stroke: #ffffff; stroke-opacity: 0.7; stroke-width: 0.48"/>
     <use xlink:href="#m7dcf0da175" x="177.886299" y="326.014859" style="fill: #1f77b4; fill-opacity: 0.7; stroke: #ffffff; stroke-opacity: 0.7; stroke-width: 0.48"/>
     <use xlink:href="#m7dcf0da175" x="491.909351" y="246.698982" style="fill: #1f77b4; fill-opacity: 0.7; stroke: #ffffff; stroke-opacity: 0.7; stroke-width: 0.48"/>
     <use xlink:href="#m7dcf0da175" x="156.951429" y="261.989697" style="fill: #1f77b4; fill-opacity: 0.7; stroke: #ffffff; stroke-opacity: 0.7; stroke-width: 0.48"/>
     <use xlink:href="#m7dcf0da175" x="261.625779" y="183.975844" style="fill: #1f77b4; fill-opacity: 0.7; stroke: #ffffff; stroke-opacity: 0.7; stroke-width: 0.48"/>
     <use xlink:href="#m7dcf0da175" x="282.560649" y="272.911636" style="fill: #1f77b4; fill-opacity: 0.7; stroke: #ffffff; stroke-opacity: 0.7; stroke-width: 0.48"/>
     <use xlink:href="#m7dcf0da175" x="450.03961" y="191.525572" style="fill: #1f77b4; fill-opacity: 0.7; stroke: #ffffff; stroke-opacity: 0.7; stroke-width: 0.48"/>
     <use xlink:href="#m7dcf0da175" x="198.821169" y="318.360997" style="fill: #1f77b4; fill-opacity: 0.7; stroke: #ffffff; stroke-opacity: 0.7; stroke-width: 0.48"/>
     <use xlink:href="#m7dcf0da175" x="198.821169" y="280.192929" style="fill: #1f77b4; fill-opacity: 0.7; stroke: #ffffff; stroke-opacity: 0.7; stroke-width: 0.48"/>
     <use xlink:href="#m7dcf0da175" x="366.30013" y="284.279369" style="fill: #1f77b4; fill-opacity: 0.7; stroke: #ffffff; stroke-opacity: 0.7; stroke-width: 0.48"/>
     <use xlink:href="#m7dcf0da175" x="387.235" y="227.858636" style="fill: #1f77b4; fill-opacity: 0.7; stroke: #ffffff; stroke-opacity: 0.7; stroke-width: 0.48"/>
     <use xlink:href="#m7dcf0da175" x="408.16987" y="241.870335" style="fill: #1f77b4; fill-opacity: 0.7; stroke: #ffffff; stroke-opacity: 0.7; stroke-width: 0.48"/>
     <use xlink:href="#m7dcf0da175" x="177.886299" y="277.592468" style="fill: #1f77b4; fill-opacity: 0.7; stroke: #ffffff; stroke-opacity: 0.7; stroke-width: 0.48"/>
     <use xlink:href="#m7dcf0da175" x="156.951429" y="261.989697" style="fill: #1f77b4; fill-opacity: 0.7; stroke: #ffffff; stroke-opacity: 0.7; stroke-width: 0.48"/>
     <use xlink:href="#m7dcf0da175" x="219.756039" y="248.337273" style="fill: #1f77b4; fill-opacity: 0.7; stroke: #ffffff; stroke-opacity: 0.7; stroke-width: 0.48"/>
     <use xlink:href="#m7dcf0da175" x="198.821169" y="254.188312" style="fill: #1f77b4; fill-opacity: 0.7; stroke: #ffffff; stroke-opacity: 0.7; stroke-width: 0.48"/>
     <use xlink:href="#m7dcf0da175" x="261.625779" y="240.145818" style="fill: #1f77b4; fill-opacity: 0.7; stroke: #ffffff; stroke-opacity: 0.7; stroke-width: 0.48"/>
     <use xlink:href="#m7dcf0da175" x="261.625779" y="274.125185" style="fill: #1f77b4; fill-opacity: 0.7; stroke: #ffffff; stroke-opacity: 0.7; stroke-width: 0.48"/>
     <use xlink:href="#m7dcf0da175" x="261.625779" y="252.060661" style="fill: #1f77b4; fill-opacity: 0.7; stroke: #ffffff; stroke-opacity: 0.7; stroke-width: 0.48"/>
     <use xlink:href="#m7dcf0da175" x="366.30013" y="186.010988" style="fill: #1f77b4; fill-opacity: 0.7; stroke: #ffffff; stroke-opacity: 0.7; stroke-width: 0.48"/>
     <use xlink:href="#m7dcf0da175" x="219.756039" y="267.738086" style="fill: #1f77b4; fill-opacity: 0.7; stroke: #ffffff; stroke-opacity: 0.7; stroke-width: 0.48"/>
     <use xlink:href="#m7dcf0da175" x="387.235" y="232.20259" style="fill: #1f77b4; fill-opacity: 0.7; stroke: #ffffff; stroke-opacity: 0.7; stroke-width: 0.48"/>
     <use xlink:href="#m7dcf0da175" x="680.323182" y="207.38" style="fill: #1f77b4; fill-opacity: 0.7; stroke: #ffffff; stroke-opacity: 0.7; stroke-width: 0.48"/>
     <use xlink:href="#m7dcf0da175" x="345.36526" y="109.082545" style="fill: #1f77b4; fill-opacity: 0.7; stroke: #ffffff; stroke-opacity: 0.7; stroke-width: 0.48"/>
     <use xlink:href="#m7dcf0da175" x="115.081688" y="349.365212" style="fill: #1f77b4; fill-opacity: 0.7; stroke: #ffffff; stroke-opacity: 0.7; stroke-width: 0.48"/>
     <use xlink:href="#m7dcf0da175" x="282.560649" y="281.847769" style="fill: #1f77b4; fill-opacity: 0.7; stroke: #ffffff; stroke-opacity: 0.7; stroke-width: 0.48"/>
     <use xlink:href="#m7dcf0da175" x="429.10474" y="109.082545" style="fill: #1f77b4; fill-opacity: 0.7; stroke: #ffffff; stroke-opacity: 0.7; stroke-width: 0.48"/>
     <use xlink:href="#m7dcf0da175" x="240.690909" y="243.786465" style="fill: #1f77b4; fill-opacity: 0.7; stroke: #ffffff; stroke-opacity: 0.7; stroke-width: 0.48"/>
     <use xlink:href="#m7dcf0da175" x="240.690909" y="180.075152" style="fill: #1f77b4; fill-opacity: 0.7; stroke: #ffffff; stroke-opacity: 0.7; stroke-width: 0.48"/>
     <use xlink:href="#m7dcf0da175" x="240.690909" y="162.699339" style="fill: #1f77b4; fill-opacity: 0.7; stroke: #ffffff; stroke-opacity: 0.7; stroke-width: 0.48"/>
     <use xlink:href="#m7dcf0da175" x="198.821169" y="207.38" style="fill: #1f77b4; fill-opacity: 0.7; stroke: #ffffff; stroke-opacity: 0.7; stroke-width: 0.48"/>
     <use xlink:href="#m7dcf0da175" x="366.30013" y="193.727576" style="fill: #1f77b4; fill-opacity: 0.7; stroke: #ffffff; stroke-opacity: 0.7; stroke-width: 0.48"/>
     <use xlink:href="#m7dcf0da175" x="345.36526" y="213.933164" style="fill: #1f77b4; fill-opacity: 0.7; stroke: #ffffff; stroke-opacity: 0.7; stroke-width: 0.48"/>
     <use xlink:href="#m7dcf0da175" x="219.756039" y="240.145818" style="fill: #1f77b4; fill-opacity: 0.7; stroke: #ffffff; stroke-opacity: 0.7; stroke-width: 0.48"/>
     <use xlink:href="#m7dcf0da175" x="345.36526" y="213.933164" style="fill: #1f77b4; fill-opacity: 0.7; stroke: #ffffff; stroke-opacity: 0.7; stroke-width: 0.48"/>
     <use xlink:href="#m7dcf0da175" x="303.495519" y="271.918733" style="fill: #1f77b4; fill-opacity: 0.7; stroke: #ffffff; stroke-opacity: 0.7; stroke-width: 0.48"/>
     <use xlink:href="#m7dcf0da175" x="387.235" y="180.075152" style="fill: #1f77b4; fill-opacity: 0.7; stroke: #ffffff; stroke-opacity: 0.7; stroke-width: 0.48"/>
     <use xlink:href="#m7dcf0da175" x="303.495519" y="258.223511" style="fill: #1f77b4; fill-opacity: 0.7; stroke: #ffffff; stroke-opacity: 0.7; stroke-width: 0.48"/>
     <use xlink:href="#m7dcf0da175" x="303.495519" y="207.38" style="fill: #1f77b4; fill-opacity: 0.7; stroke: #ffffff; stroke-opacity: 0.7; stroke-width: 0.48"/>
     <use xlink:href="#m7dcf0da175" x="303.495519" y="215.181385" style="fill: #1f77b4; fill-opacity: 0.7; stroke: #ffffff; stroke-opacity: 0.7; stroke-width: 0.48"/>
     <use xlink:href="#m7dcf0da175" x="240.690909" y="227.858636" style="fill: #1f77b4; fill-opacity: 0.7; stroke: #ffffff; stroke-opacity: 0.7; stroke-width: 0.48"/>
     <use xlink:href="#m7dcf0da175" x="177.886299" y="252.060661" style="fill: #1f77b4; fill-opacity: 0.7; stroke: #ffffff; stroke-opacity: 0.7; stroke-width: 0.48"/>
     <use xlink:href="#m7dcf0da175" x="261.625779" y="183.975844" style="fill: #1f77b4; fill-opacity: 0.7; stroke: #ffffff; stroke-opacity: 0.7; stroke-width: 0.48"/>
     <use xlink:href="#m7dcf0da175" x="282.560649" y="144.368811" style="fill: #1f77b4; fill-opacity: 0.7; stroke: #ffffff; stroke-opacity: 0.7; stroke-width: 0.48"/>
     <use xlink:href="#m7dcf0da175" x="282.560649" y="230.784156" style="fill: #1f77b4; fill-opacity: 0.7; stroke: #ffffff; stroke-opacity: 0.7; stroke-width: 0.48"/>
     <use xlink:href="#m7dcf0da175" x="324.43039" y="159.194973" style="fill: #1f77b4; fill-opacity: 0.7; stroke: #ffffff; stroke-opacity: 0.7; stroke-width: 0.48"/>
     <use xlink:href="#m7dcf0da175" x="303.495519" y="295.009514" style="fill: #1f77b4; fill-opacity: 0.7; stroke: #ffffff; stroke-opacity: 0.7; stroke-width: 0.48"/>
     <use xlink:href="#m7dcf0da175" x="324.43039" y="227.039491" style="fill: #1f77b4; fill-opacity: 0.7; stroke: #ffffff; stroke-opacity: 0.7; stroke-width: 0.48"/>
     <use xlink:href="#m7dcf0da175" x="219.756039" y="152.770303" style="fill: #1f77b4; fill-opacity: 0.7; stroke: #ffffff; stroke-opacity: 0.7; stroke-width: 0.48"/>
     <use xlink:href="#m7dcf0da175" x="324.43039" y="221.032424" style="fill: #1f77b4; fill-opacity: 0.7; stroke: #ffffff; stroke-opacity: 0.7; stroke-width: 0.48"/>
     <use xlink:href="#m7dcf0da175" x="198.821169" y="280.192929" style="fill: #1f77b4; fill-opacity: 0.7; stroke: #ffffff; stroke-opacity: 0.7; stroke-width: 0.48"/>
     <use xlink:href="#m7dcf0da175" x="219.756039" y="174.614182" style="fill: #1f77b4; fill-opacity: 0.7; stroke: #ffffff; stroke-opacity: 0.7; stroke-width: 0.48"/>
     <use xlink:href="#m7dcf0da175" x="282.560649" y="265.89039" style="fill: #1f77b4; fill-opacity: 0.7; stroke: #ffffff; stroke-opacity: 0.7; stroke-width: 0.48"/>
     <use xlink:href="#m7dcf0da175" x="219.756039" y="255.565027" style="fill: #1f77b4; fill-opacity: 0.7; stroke: #ffffff; stroke-opacity: 0.7; stroke-width: 0.48"/>
    </g>
   </g>
   <g id="FillBetweenPolyCollection_1">
    <path d="M 94.146818 230.182602 
L 94.146818 272.046062 
L 100.067792 270.594862 
L 105.988765 269.182743 
L 111.909738 267.927286 
L 117.830712 266.68388 
L 123.751685 265.30844 
L 129.672658 264.061121 
L 135.593632 262.745072 
L 141.514605 261.410314 
L 147.435579 260.223649 
L 153.356552 258.954911 
L 159.277525 257.672919 
L 165.198499 256.480776 
L 171.119472 255.04281 
L 177.040445 253.634706 
L 182.961419 252.335392 
L 188.882392 251.03499 
L 194.803365 249.573159 
L 200.724339 248.137329 
L 206.645312 246.827748 
L 212.566286 245.510558 
L 218.487259 244.232063 
L 224.408232 242.927356 
L 230.329206 241.657911 
L 236.250179 240.537595 
L 242.171152 239.227318 
L 248.092126 237.839541 
L 254.013099 236.689179 
L 259.934073 235.477163 
L 265.855046 234.206863 
L 271.776019 232.960077 
L 277.696993 232.015697 
L 283.617966 231.001594 
L 289.538939 229.954525 
L 295.459913 228.768972 
L 301.380886 227.628414 
L 307.30186 226.481748 
L 313.222833 225.378288 
L 319.143806 224.257632 
L 325.06478 223.239088 
L 330.985753 222.008109 
L 336.906726 220.967634 
L 342.8277 220.03365 
L 348.748673 218.975506 
L 354.669646 218.16409 
L 360.59062 217.307266 
L 366.511593 216.425103 
L 372.432567 215.624761 
L 378.35354 214.855666 
L 384.274513 213.867991 
L 390.195487 213.104899 
L 396.11646 212.152652 
L 402.037433 211.397906 
L 407.958407 210.331281 
L 413.87938 209.707205 
L 419.800354 209.178197 
L 425.721327 208.498877 
L 431.6423 207.845849 
L 437.563274 207.175502 
L 443.484247 206.45915 
L 449.40522 205.824931 
L 455.326194 205.365496 
L 461.247167 204.802082 
L 467.16814 204.254598 
L 473.089114 203.731369 
L 479.010087 203.207978 
L 484.931061 202.848287 
L 490.852034 202.640221 
L 496.773007 202.2432 
L 502.693981 201.547871 
L 508.614954 200.969346 
L 514.535927 200.478807 
L 520.456901 200.049946 
L 526.377874 199.621084 
L 532.298848 199.192222 
L 538.219821 198.763361 
L 544.140794 198.334499 
L 550.061768 197.898473 
L 555.982741 197.416855 
L 561.903714 196.933542 
L 567.824688 196.452001 
L 573.745661 195.972121 
L 579.666635 195.492159 
L 585.587608 195.008004 
L 591.508581 194.523849 
L 597.429555 194.039694 
L 603.350528 193.555539 
L 609.271501 193.02477 
L 615.192475 192.517209 
L 621.113448 192.107604 
L 627.034421 191.627036 
L 632.955395 191.146468 
L 638.876368 190.661837 
L 644.797342 190.165621 
L 650.718315 189.590367 
L 656.639288 189.015113 
L 662.560262 188.43986 
L 668.481235 187.881324 
L 674.402208 187.468382 
L 680.323182 187.055441 
L 680.323182 131.752172 
L 680.323182 131.752172 
L 674.402208 133.152446 
L 668.481235 134.552719 
L 662.560262 135.952993 
L 656.639288 137.353267 
L 650.718315 138.75354 
L 644.797342 140.153814 
L 638.876368 141.554088 
L 632.955395 142.954361 
L 627.034421 144.354635 
L 621.113448 145.754909 
L 615.192475 147.155183 
L 609.271501 148.555456 
L 603.350528 149.842715 
L 597.429555 151.127136 
L 591.508581 152.57907 
L 585.587608 154.042886 
L 579.666635 155.506703 
L 573.745661 156.944023 
L 567.824688 158.346344 
L 561.903714 159.676218 
L 555.982741 161.049074 
L 550.061768 162.320512 
L 544.140794 163.591949 
L 538.219821 164.800415 
L 532.298848 166.09675 
L 526.377874 167.40626 
L 520.456901 168.677698 
L 514.535927 169.949135 
L 508.614954 171.220572 
L 502.693981 172.492009 
L 496.773007 173.762553 
L 490.852034 175.04493 
L 484.931061 176.325211 
L 479.010087 177.605493 
L 473.089114 178.841901 
L 467.16814 180.118733 
L 461.247167 181.499627 
L 455.326194 182.759161 
L 449.40522 184.067091 
L 443.484247 185.287183 
L 437.563274 186.488329 
L 431.6423 187.675729 
L 425.721327 189.009793 
L 419.800354 190.273309 
L 413.87938 191.43458 
L 407.958407 192.495976 
L 402.037433 193.705999 
L 396.11646 194.854484 
L 390.195487 196.05347 
L 384.274513 197.199837 
L 378.35354 198.515004 
L 372.432567 199.632261 
L 366.511593 200.75227 
L 360.59062 201.733224 
L 354.669646 202.790271 
L 348.748673 203.634168 
L 342.8277 204.56014 
L 336.906726 205.485423 
L 330.985753 206.427112 
L 325.06478 207.216658 
L 319.143806 208.161102 
L 313.222833 208.869093 
L 307.30186 209.580134 
L 301.380886 210.312905 
L 295.459913 210.999026 
L 289.538939 211.732134 
L 283.617966 212.38545 
L 277.696993 213.023703 
L 271.776019 213.758389 
L 265.855046 214.512124 
L 259.934073 214.997361 
L 254.013099 215.701132 
L 248.092126 216.203477 
L 242.171152 216.836123 
L 236.250179 217.481356 
L 230.329206 217.929463 
L 224.408232 218.494859 
L 218.487259 219.104778 
L 212.566286 219.680172 
L 206.645312 220.155238 
L 200.724339 220.71258 
L 194.803365 221.265925 
L 188.882392 221.85729 
L 182.961419 222.608331 
L 177.040445 223.151678 
L 171.119472 223.824701 
L 165.198499 224.500358 
L 159.277525 225.080207 
L 153.356552 225.415597 
L 147.435579 225.749336 
L 141.514605 226.276257 
L 135.593632 226.834002 
L 129.672658 227.386564 
L 123.751685 227.856126 
L 117.830712 228.339963 
L 111.909738 228.90767 
L 105.988765 229.366018 
L 100.067792 229.77431 
L 94.146818 230.182602 
z
" clip-path="url(#p2ccfa16db5)" style="fill: #808080; fill-opacity: 0.15"/>
   </g>
   <g id="FillBetweenPolyCollection_2">
    <path d="M 94.146818 229.638918 
L 94.146818 272.539765 
L 100.067792 271.183181 
L 105.988765 269.892026 
L 111.909738 268.59887 
L 117.830712 267.299649 
L 123.751685 265.783002 
L 129.672658 264.441173 
L 135.593632 263.177843 
L 141.514605 261.913513 
L 147.435579 260.647403 
L 153.356552 259.285343 
L 159.277525 257.885498 
L 165.198499 256.485653 
L 171.119472 255.199131 
L 177.040445 254.053798 
L 182.961419 252.85287 
L 188.882392 251.621516 
L 194.803365 250.415417 
L 200.724339 249.208288 
L 206.645312 247.917911 
L 212.566286 246.73349 
L 218.487259 245.489856 
L 224.408232 244.041902 
L 230.329206 242.839365 
L 236.250179 241.4727 
L 242.171152 240.167678 
L 248.092126 238.851947 
L 254.013099 237.479004 
L 259.934073 236.298117 
L 265.855046 235.108602 
L 271.776019 233.710997 
L 277.696993 232.703981 
L 283.617966 231.481783 
L 289.538939 230.341083 
L 295.459913 229.090107 
L 301.380886 228.216801 
L 307.30186 227.021125 
L 313.222833 226.004896 
L 319.143806 225.029406 
L 325.06478 224.081691 
L 330.985753 223.070864 
L 336.906726 221.80624 
L 342.8277 220.662753 
L 348.748673 219.852454 
L 354.669646 218.93704 
L 360.59062 218.057084 
L 366.511593 217.428272 
L 372.432567 216.516517 
L 378.35354 215.689158 
L 384.274513 214.864639 
L 390.195487 214.036077 
L 396.11646 213.210171 
L 402.037433 212.626678 
L 407.958407 211.784219 
L 413.87938 210.813008 
L 419.800354 210.199144 
L 425.721327 209.575131 
L 431.6423 208.893167 
L 437.563274 208.226291 
L 443.484247 207.583853 
L 449.40522 206.939077 
L 455.326194 206.298491 
L 461.247167 205.739828 
L 467.16814 205.372525 
L 473.089114 204.664209 
L 479.010087 204.235314 
L 484.931061 203.454957 
L 490.852034 202.978355 
L 496.773007 202.500635 
L 502.693981 202.058328 
L 508.614954 201.616847 
L 514.535927 201.171596 
L 520.456901 200.729628 
L 526.377874 200.359294 
L 532.298848 199.88367 
L 538.219821 199.403723 
L 544.140794 198.957526 
L 550.061768 198.407547 
L 555.982741 197.789605 
L 561.903714 197.386566 
L 567.824688 196.77412 
L 573.745661 196.327517 
L 579.666635 195.956612 
L 585.587608 195.584689 
L 591.508581 195.119034 
L 597.429555 194.606752 
L 603.350528 194.094471 
L 609.271501 193.660638 
L 615.192475 193.241933 
L 621.113448 192.823693 
L 627.034421 192.403934 
L 632.955395 191.902468 
L 638.876368 191.428731 
L 644.797342 191.095838 
L 650.718315 190.650509 
L 656.639288 190.19486 
L 662.560262 189.73921 
L 668.481235 189.336518 
L 674.402208 189.008041 
L 680.323182 188.482619 
L 680.323182 130.755413 
L 680.323182 130.755413 
L 674.402208 132.032103 
L 668.481235 133.308793 
L 662.560262 134.585484 
L 656.639288 135.862174 
L 650.718315 137.141296 
L 644.797342 138.498377 
L 638.876368 139.986331 
L 632.955395 141.4776 
L 627.034421 142.968869 
L 621.113448 144.460137 
L 615.192475 145.951406 
L 609.271501 147.351048 
L 603.350528 148.85727 
L 597.429555 150.363492 
L 591.508581 151.687475 
L 585.587608 152.924897 
L 579.666635 154.162319 
L 573.745661 155.399742 
L 567.824688 156.6388 
L 561.903714 157.904351 
L 555.982741 159.141203 
L 550.061768 160.452698 
L 544.140794 161.768155 
L 538.219821 163.086558 
L 532.298848 164.404961 
L 526.377874 165.75237 
L 520.456901 167.125186 
L 514.535927 168.499216 
L 508.614954 169.87698 
L 502.693981 171.286619 
L 496.773007 172.683466 
L 490.852034 174.086793 
L 484.931061 175.441692 
L 479.010087 176.846 
L 473.089114 178.243408 
L 467.16814 179.627592 
L 461.247167 180.954651 
L 455.326194 182.296011 
L 449.40522 183.697903 
L 443.484247 184.90878 
L 437.563274 186.198189 
L 431.6423 187.511779 
L 425.721327 188.800576 
L 419.800354 190.054239 
L 413.87938 191.324292 
L 407.958407 192.594345 
L 402.037433 193.799831 
L 396.11646 195.044754 
L 390.195487 196.180238 
L 384.274513 197.465099 
L 378.35354 198.455242 
L 372.432567 199.528072 
L 366.511593 200.799027 
L 360.59062 201.70954 
L 354.669646 202.460736 
L 348.748673 203.315878 
L 342.8277 204.49496 
L 336.906726 205.398384 
L 330.985753 206.304594 
L 325.06478 207.374637 
L 319.143806 208.423292 
L 313.222833 208.953873 
L 307.30186 209.603344 
L 301.380886 210.321495 
L 295.459913 211.136066 
L 289.538939 211.894057 
L 283.617966 212.528989 
L 277.696993 213.083873 
L 271.776019 213.898013 
L 265.855046 214.578254 
L 259.934073 215.147865 
L 254.013099 215.874787 
L 248.092126 216.450336 
L 242.171152 216.967414 
L 236.250179 217.4213 
L 230.329206 218.016055 
L 224.408232 218.418621 
L 218.487259 219.117272 
L 212.566286 219.77052 
L 206.645312 220.347814 
L 200.724339 220.771124 
L 194.803365 221.194607 
L 188.882392 221.627655 
L 182.961419 222.205365 
L 177.040445 222.847995 
L 171.119472 223.334885 
L 165.198499 223.923613 
L 159.277525 224.310123 
L 153.356552 224.675126 
L 147.435579 225.040456 
L 141.514605 225.490303 
L 135.593632 226.05716 
L 129.672658 226.611174 
L 123.751685 227.054225 
L 117.830712 227.497966 
L 111.909738 227.996555 
L 105.988765 228.553363 
L 100.067792 229.110171 
L 94.146818 229.638918 
z
" clip-path="url(#p2ccfa16db5)" style="fill: #808080; fill-opacity: 0.15"/>
   </g>
   <g id="matplotlib.axis_1">
    <g id="xtick_1">
     <g id="line2d_1">
      <defs>
       <path id="m5acd02cc5a" d="M 0 0 
L 0 3.5 
" style="stroke: #000000; stroke-width: 0.8"/>
      </defs>
      <g>
       <use xlink:href="#m5acd02cc5a" x="94.146818" y="387.592" style="stroke: #000000; stroke-width: 0.8"/>
      </g>
     </g>
     <g id="text_1">
      <!-- 0 -->
      <g transform="translate(90.965568 402.190438) scale(0.1 -0.1)">
       <defs>
        <path id="DejaVuSans-30" d="M 2034 4250 
Q 1547 4250 1301 3770 
Q 1056 3291 1056 2328 
Q 1056 1369 1301 889 
Q 1547 409 2034 409 
Q 2525 409 2770 889 
Q 3016 1369 3016 2328 
Q 3016 3291 2770 3770 
Q 2525 4250 2034 4250 
z
M 2034 4750 
Q 2819 4750 3233 4129 
Q 3647 3509 3647 2328 
Q 3647 1150 3233 529 
Q 2819 -91 2034 -91 
Q 1250 -91 836 529 
Q 422 1150 422 2328 
Q 422 3509 836 4129 
Q 1250 4750 2034 4750 
z
" transform="scale(0.015625)"/>
       </defs>
       <use xlink:href="#DejaVuSans-30"/>
      </g>
     </g>
    </g>
    <g id="xtick_2">
     <g id="line2d_2">
      <g>
       <use xlink:href="#m5acd02cc5a" x="198.821169" y="387.592" style="stroke: #000000; stroke-width: 0.8"/>
      </g>
     </g>
     <g id="text_2">
      <!-- 5 -->
      <g transform="translate(195.639919 402.190438) scale(0.1 -0.1)">
       <defs>
        <path id="DejaVuSans-35" d="M 691 4666 
L 3169 4666 
L 3169 4134 
L 1269 4134 
L 1269 2991 
Q 1406 3038 1543 3061 
Q 1681 3084 1819 3084 
Q 2600 3084 3056 2656 
Q 3513 2228 3513 1497 
Q 3513 744 3044 326 
Q 2575 -91 1722 -91 
Q 1428 -91 1123 -41 
Q 819 9 494 109 
L 494 744 
Q 775 591 1075 516 
Q 1375 441 1709 441 
Q 2250 441 2565 725 
Q 2881 1009 2881 1497 
Q 2881 1984 2565 2268 
Q 2250 2553 1709 2553 
Q 1456 2553 1204 2497 
Q 953 2441 691 2322 
L 691 4666 
z
" transform="scale(0.015625)"/>
       </defs>
       <use xlink:href="#DejaVuSans-35"/>
      </g>
     </g>
    </g>
    <g id="xtick_3">
     <g id="line2d_3">
      <g>
       <use xlink:href="#m5acd02cc5a" x="303.495519" y="387.592" style="stroke: #000000; stroke-width: 0.8"/>
      </g>
     </g>
     <g id="text_3">
      <!-- 10 -->
      <g transform="translate(297.133019 402.190438) scale(0.1 -0.1)">
       <defs>
        <path id="DejaVuSans-31" d="M 794 531 
L 1825 531 
L 1825 4091 
L 703 3866 
L 703 4441 
L 1819 4666 
L 2450 4666 
L 2450 531 
L 3481 531 
L 3481 0 
L 794 0 
L 794 531 
z
" transform="scale(0.015625)"/>
       </defs>
       <use xlink:href="#DejaVuSans-31"/>
       <use xlink:href="#DejaVuSans-30" transform="translate(63.623047 0)"/>
      </g>
     </g>
    </g>
    <g id="xtick_4">
     <g id="line2d_4">
      <g>
       <use xlink:href="#m5acd02cc5a" x="408.16987" y="387.592" style="stroke: #000000; stroke-width: 0.8"/>
      </g>
     </g>
     <g id="text_4">
      <!-- 15 -->
      <g transform="translate(401.80737 402.190438) scale(0.1 -0.1)">
       <use xlink:href="#DejaVuSans-31"/>
       <use xlink:href="#DejaVuSans-35" transform="translate(63.623047 0)"/>
      </g>
     </g>
    </g>
    <g id="xtick_5">
     <g id="line2d_5">
      <g>
       <use xlink:href="#m5acd02cc5a" x="512.844221" y="387.592" style="stroke: #000000; stroke-width: 0.8"/>
      </g>
     </g>
     <g id="text_5">
      <!-- 20 -->
      <g transform="translate(506.481721 402.190438) scale(0.1 -0.1)">
       <defs>
        <path id="DejaVuSans-32" d="M 1228 531 
L 3431 531 
L 3431 0 
L 469 0 
L 469 531 
Q 828 903 1448 1529 
Q 2069 2156 2228 2338 
Q 2531 2678 2651 2914 
Q 2772 3150 2772 3378 
Q 2772 3750 2511 3984 
Q 2250 4219 1831 4219 
Q 1534 4219 1204 4116 
Q 875 4013 500 3803 
L 500 4441 
Q 881 4594 1212 4672 
Q 1544 4750 1819 4750 
Q 2544 4750 2975 4387 
Q 3406 4025 3406 3419 
Q 3406 3131 3298 2873 
Q 3191 2616 2906 2266 
Q 2828 2175 2409 1742 
Q 1991 1309 1228 531 
z
" transform="scale(0.015625)"/>
       </defs>
       <use xlink:href="#DejaVuSans-32"/>
       <use xlink:href="#DejaVuSans-30" transform="translate(63.623047 0)"/>
      </g>
     </g>
    </g>
    <g id="xtick_6">
     <g id="line2d_6">
      <g>
       <use xlink:href="#m5acd02cc5a" x="617.518571" y="387.592" style="stroke: #000000; stroke-width: 0.8"/>
      </g>
     </g>
     <g id="text_6">
      <!-- 25 -->
      <g transform="translate(611.156071 402.190438) scale(0.1 -0.1)">
       <use xlink:href="#DejaVuSans-32"/>
       <use xlink:href="#DejaVuSans-35" transform="translate(63.623047 0)"/>
      </g>
     </g>
    </g>
    <g id="text_7">
     <!-- BDI Pre Score -->
     <g transform="translate(346.575625 417.38825) scale(0.12 -0.12)">
      <defs>
       <path id="DejaVuSans-42" d="M 1259 2228 
L 1259 519 
L 2272 519 
Q 2781 519 3026 730 
Q 3272 941 3272 1375 
Q 3272 1813 3026 2020 
Q 2781 2228 2272 2228 
L 1259 2228 
z
M 1259 4147 
L 1259 2741 
L 2194 2741 
Q 2656 2741 2882 2914 
Q 3109 3088 3109 3444 
Q 3109 3797 2882 3972 
Q 2656 4147 2194 4147 
L 1259 4147 
z
M 628 4666 
L 2241 4666 
Q 2963 4666 3353 4366 
Q 3744 4066 3744 3513 
Q 3744 3084 3544 2831 
Q 3344 2578 2956 2516 
Q 3422 2416 3680 2098 
Q 3938 1781 3938 1306 
Q 3938 681 3513 340 
Q 3088 0 2303 0 
L 628 0 
L 628 4666 
z
" transform="scale(0.015625)"/>
       <path id="DejaVuSans-44" d="M 1259 4147 
L 1259 519 
L 2022 519 
Q 2988 519 3436 956 
Q 3884 1394 3884 2338 
Q 3884 3275 3436 3711 
Q 2988 4147 2022 4147 
L 1259 4147 
z
M 628 4666 
L 1925 4666 
Q 3281 4666 3915 4102 
Q 4550 3538 4550 2338 
Q 4550 1131 3912 565 
Q 3275 0 1925 0 
L 628 0 
L 628 4666 
z
" transform="scale(0.015625)"/>
       <path id="DejaVuSans-49" d="M 628 4666 
L 1259 4666 
L 1259 0 
L 628 0 
L 628 4666 
z
" transform="scale(0.015625)"/>
       <path id="DejaVuSans-20" transform="scale(0.015625)"/>
       <path id="DejaVuSans-50" d="M 1259 4147 
L 1259 2394 
L 2053 2394 
Q 2494 2394 2734 2622 
Q 2975 2850 2975 3272 
Q 2975 3691 2734 3919 
Q 2494 4147 2053 4147 
L 1259 4147 
z
M 628 4666 
L 2053 4666 
Q 2838 4666 3239 4311 
Q 3641 3956 3641 3272 
Q 3641 2581 3239 2228 
Q 2838 1875 2053 1875 
L 1259 1875 
L 1259 0 
L 628 0 
L 628 4666 
z
" transform="scale(0.015625)"/>
       <path id="DejaVuSans-72" d="M 2631 2963 
Q 2534 3019 2420 3045 
Q 2306 3072 2169 3072 
Q 1681 3072 1420 2755 
Q 1159 2438 1159 1844 
L 1159 0 
L 581 0 
L 581 3500 
L 1159 3500 
L 1159 2956 
Q 1341 3275 1631 3429 
Q 1922 3584 2338 3584 
Q 2397 3584 2469 3576 
Q 2541 3569 2628 3553 
L 2631 2963 
z
" transform="scale(0.015625)"/>
       <path id="DejaVuSans-65" d="M 3597 1894 
L 3597 1613 
L 953 1613 
Q 991 1019 1311 708 
Q 1631 397 2203 397 
Q 2534 397 2845 478 
Q 3156 559 3463 722 
L 3463 178 
Q 3153 47 2828 -22 
Q 2503 -91 2169 -91 
Q 1331 -91 842 396 
Q 353 884 353 1716 
Q 353 2575 817 3079 
Q 1281 3584 2069 3584 
Q 2775 3584 3186 3129 
Q 3597 2675 3597 1894 
z
M 3022 2063 
Q 3016 2534 2758 2815 
Q 2500 3097 2075 3097 
Q 1594 3097 1305 2825 
Q 1016 2553 972 2059 
L 3022 2063 
z
" transform="scale(0.015625)"/>
       <path id="DejaVuSans-53" d="M 3425 4513 
L 3425 3897 
Q 3066 4069 2747 4153 
Q 2428 4238 2131 4238 
Q 1616 4238 1336 4038 
Q 1056 3838 1056 3469 
Q 1056 3159 1242 3001 
Q 1428 2844 1947 2747 
L 2328 2669 
Q 3034 2534 3370 2195 
Q 3706 1856 3706 1288 
Q 3706 609 3251 259 
Q 2797 -91 1919 -91 
Q 1588 -91 1214 -16 
Q 841 59 441 206 
L 441 856 
Q 825 641 1194 531 
Q 1563 422 1919 422 
Q 2459 422 2753 634 
Q 3047 847 3047 1241 
Q 3047 1584 2836 1778 
Q 2625 1972 2144 2069 
L 1759 2144 
Q 1053 2284 737 2584 
Q 422 2884 422 3419 
Q 422 4038 858 4394 
Q 1294 4750 2059 4750 
Q 2388 4750 2728 4690 
Q 3069 4631 3425 4513 
z
" transform="scale(0.015625)"/>
       <path id="DejaVuSans-63" d="M 3122 3366 
L 3122 2828 
Q 2878 2963 2633 3030 
Q 2388 3097 2138 3097 
Q 1578 3097 1268 2742 
Q 959 2388 959 1747 
Q 959 1106 1268 751 
Q 1578 397 2138 397 
Q 2388 397 2633 464 
Q 2878 531 3122 666 
L 3122 134 
Q 2881 22 2623 -34 
Q 2366 -91 2075 -91 
Q 1284 -91 818 406 
Q 353 903 353 1747 
Q 353 2603 823 3093 
Q 1294 3584 2113 3584 
Q 2378 3584 2631 3529 
Q 2884 3475 3122 3366 
z
" transform="scale(0.015625)"/>
       <path id="DejaVuSans-6f" d="M 1959 3097 
Q 1497 3097 1228 2736 
Q 959 2375 959 1747 
Q 959 1119 1226 758 
Q 1494 397 1959 397 
Q 2419 397 2687 759 
Q 2956 1122 2956 1747 
Q 2956 2369 2687 2733 
Q 2419 3097 1959 3097 
z
M 1959 3584 
Q 2709 3584 3137 3096 
Q 3566 2609 3566 1747 
Q 3566 888 3137 398 
Q 2709 -91 1959 -91 
Q 1206 -91 779 398 
Q 353 888 353 1747 
Q 353 2609 779 3096 
Q 1206 3584 1959 3584 
z
" transform="scale(0.015625)"/>
      </defs>
      <use xlink:href="#DejaVuSans-42"/>
      <use xlink:href="#DejaVuSans-44" transform="translate(68.603516 0)"/>
      <use xlink:href="#DejaVuSans-49" transform="translate(145.605469 0)"/>
      <use xlink:href="#DejaVuSans-20" transform="translate(175.097656 0)"/>
      <use xlink:href="#DejaVuSans-50" transform="translate(206.884766 0)"/>
      <use xlink:href="#DejaVuSans-72" transform="translate(265.4375 0)"/>
      <use xlink:href="#DejaVuSans-65" transform="translate(304.300781 0)"/>
      <use xlink:href="#DejaVuSans-20" transform="translate(365.824219 0)"/>
      <use xlink:href="#DejaVuSans-53" transform="translate(397.611328 0)"/>
      <use xlink:href="#DejaVuSans-63" transform="translate(461.087891 0)"/>
      <use xlink:href="#DejaVuSans-6f" transform="translate(516.068359 0)"/>
      <use xlink:href="#DejaVuSans-72" transform="translate(577.25 0)"/>
      <use xlink:href="#DejaVuSans-65" transform="translate(616.113281 0)"/>
     </g>
    </g>
   </g>
   <g id="matplotlib.axis_2">
    <g id="ytick_1">
     <g id="line2d_7">
      <defs>
       <path id="mc8a51b48ed" d="M 0 0 
L -3.5 0 
" style="stroke: #000000; stroke-width: 0.8"/>
      </defs>
      <g>
       <use xlink:href="#mc8a51b48ed" x="64.838" y="371.209091" style="stroke: #000000; stroke-width: 0.8"/>
      </g>
     </g>
     <g id="text_8">
      <!-- −1.00 -->
      <g transform="translate(27.192688 375.00831) scale(0.1 -0.1)">
       <defs>
        <path id="DejaVuSans-2212" d="M 678 2272 
L 4684 2272 
L 4684 1741 
L 678 1741 
L 678 2272 
z
" transform="scale(0.015625)"/>
        <path id="DejaVuSans-2e" d="M 684 794 
L 1344 794 
L 1344 0 
L 684 0 
L 684 794 
z
" transform="scale(0.015625)"/>
       </defs>
       <use xlink:href="#DejaVuSans-2212"/>
       <use xlink:href="#DejaVuSans-31" transform="translate(83.789062 0)"/>
       <use xlink:href="#DejaVuSans-2e" transform="translate(147.412109 0)"/>
       <use xlink:href="#DejaVuSans-30" transform="translate(179.199219 0)"/>
       <use xlink:href="#DejaVuSans-30" transform="translate(242.822266 0)"/>
      </g>
     </g>
    </g>
    <g id="ytick_2">
     <g id="line2d_8">
      <g>
       <use xlink:href="#mc8a51b48ed" x="64.838" y="330.251818" style="stroke: #000000; stroke-width: 0.8"/>
      </g>
     </g>
     <g id="text_9">
      <!-- −0.75 -->
      <g transform="translate(27.192688 334.051037) scale(0.1 -0.1)">
       <defs>
        <path id="DejaVuSans-37" d="M 525 4666 
L 3525 4666 
L 3525 4397 
L 1831 0 
L 1172 0 
L 2766 4134 
L 525 4134 
L 525 4666 
z
" transform="scale(0.015625)"/>
       </defs>
       <use xlink:href="#DejaVuSans-2212"/>
       <use xlink:href="#DejaVuSans-30" transform="translate(83.789062 0)"/>
       <use xlink:href="#DejaVuSans-2e" transform="translate(147.412109 0)"/>
       <use xlink:href="#DejaVuSans-37" transform="translate(179.199219 0)"/>
       <use xlink:href="#DejaVuSans-35" transform="translate(242.822266 0)"/>
      </g>
     </g>
    </g>
    <g id="ytick_3">
     <g id="line2d_9">
      <g>
       <use xlink:href="#mc8a51b48ed" x="64.838" y="289.294545" style="stroke: #000000; stroke-width: 0.8"/>
      </g>
     </g>
     <g id="text_10">
      <!-- −0.50 -->
      <g transform="translate(27.192688 293.093764) scale(0.1 -0.1)">
       <use xlink:href="#DejaVuSans-2212"/>
       <use xlink:href="#DejaVuSans-30" transform="translate(83.789062 0)"/>
       <use xlink:href="#DejaVuSans-2e" transform="translate(147.412109 0)"/>
       <use xlink:href="#DejaVuSans-35" transform="translate(179.199219 0)"/>
       <use xlink:href="#DejaVuSans-30" transform="translate(242.822266 0)"/>
      </g>
     </g>
    </g>
    <g id="ytick_4">
     <g id="line2d_10">
      <g>
       <use xlink:href="#mc8a51b48ed" x="64.838" y="248.337273" style="stroke: #000000; stroke-width: 0.8"/>
      </g>
     </g>
     <g id="text_11">
      <!-- −0.25 -->
      <g transform="translate(27.192688 252.136491) scale(0.1 -0.1)">
       <use xlink:href="#DejaVuSans-2212"/>
       <use xlink:href="#DejaVuSans-30" transform="translate(83.789062 0)"/>
       <use xlink:href="#DejaVuSans-2e" transform="translate(147.412109 0)"/>
       <use xlink:href="#DejaVuSans-32" transform="translate(179.199219 0)"/>
       <use xlink:href="#DejaVuSans-35" transform="translate(242.822266 0)"/>
      </g>
     </g>
    </g>
    <g id="ytick_5">
     <g id="line2d_11">
      <g>
       <use xlink:href="#mc8a51b48ed" x="64.838" y="207.38" style="stroke: #000000; stroke-width: 0.8"/>
      </g>
     </g>
     <g id="text_12">
      <!-- 0.00 -->
      <g transform="translate(35.572375 211.179219) scale(0.1 -0.1)">
       <use xlink:href="#DejaVuSans-30"/>
       <use xlink:href="#DejaVuSans-2e" transform="translate(63.623047 0)"/>
       <use xlink:href="#DejaVuSans-30" transform="translate(95.410156 0)"/>
       <use xlink:href="#DejaVuSans-30" transform="translate(159.033203 0)"/>
      </g>
     </g>
    </g>
    <g id="ytick_6">
     <g id="line2d_12">
      <g>
       <use xlink:href="#mc8a51b48ed" x="64.838" y="166.422727" style="stroke: #000000; stroke-width: 0.8"/>
      </g>
     </g>
     <g id="text_13">
      <!-- 0.25 -->
      <g transform="translate(35.572375 170.221946) scale(0.1 -0.1)">
       <use xlink:href="#DejaVuSans-30"/>
       <use xlink:href="#DejaVuSans-2e" transform="translate(63.623047 0)"/>
       <use xlink:href="#DejaVuSans-32" transform="translate(95.410156 0)"/>
       <use xlink:href="#DejaVuSans-35" transform="translate(159.033203 0)"/>
      </g>
     </g>
    </g>
    <g id="ytick_7">
     <g id="line2d_13">
      <g>
       <use xlink:href="#mc8a51b48ed" x="64.838" y="125.465455" style="stroke: #000000; stroke-width: 0.8"/>
      </g>
     </g>
     <g id="text_14">
      <!-- 0.50 -->
      <g transform="translate(35.572375 129.264673) scale(0.1 -0.1)">
       <use xlink:href="#DejaVuSans-30"/>
       <use xlink:href="#DejaVuSans-2e" transform="translate(63.623047 0)"/>
       <use xlink:href="#DejaVuSans-35" transform="translate(95.410156 0)"/>
       <use xlink:href="#DejaVuSans-30" transform="translate(159.033203 0)"/>
      </g>
     </g>
    </g>
    <g id="ytick_8">
     <g id="line2d_14">
      <g>
       <use xlink:href="#mc8a51b48ed" x="64.838" y="84.508182" style="stroke: #000000; stroke-width: 0.8"/>
      </g>
     </g>
     <g id="text_15">
      <!-- 0.75 -->
      <g transform="translate(35.572375 88.307401) scale(0.1 -0.1)">
       <use xlink:href="#DejaVuSans-30"/>
       <use xlink:href="#DejaVuSans-2e" transform="translate(63.623047 0)"/>
       <use xlink:href="#DejaVuSans-37" transform="translate(95.410156 0)"/>
       <use xlink:href="#DejaVuSans-35" transform="translate(159.033203 0)"/>
      </g>
     </g>
    </g>
    <g id="ytick_9">
     <g id="line2d_15">
      <g>
       <use xlink:href="#mc8a51b48ed" x="64.838" y="43.550909" style="stroke: #000000; stroke-width: 0.8"/>
      </g>
     </g>
     <g id="text_16">
      <!-- 1.00 -->
      <g transform="translate(35.572375 47.350128) scale(0.1 -0.1)">
       <use xlink:href="#DejaVuSans-31"/>
       <use xlink:href="#DejaVuSans-2e" transform="translate(63.623047 0)"/>
       <use xlink:href="#DejaVuSans-30" transform="translate(95.410156 0)"/>
       <use xlink:href="#DejaVuSans-30" transform="translate(159.033203 0)"/>
      </g>
     </g>
    </g>
    <g id="text_17">
     <!-- BDI Ratio -->
     <g transform="translate(20.697063 235.194688) rotate(-90) scale(0.12 -0.12)">
      <defs>
       <path id="DejaVuSans-52" d="M 2841 2188 
Q 3044 2119 3236 1894 
Q 3428 1669 3622 1275 
L 4263 0 
L 3584 0 
L 2988 1197 
Q 2756 1666 2539 1819 
Q 2322 1972 1947 1972 
L 1259 1972 
L 1259 0 
L 628 0 
L 628 4666 
L 2053 4666 
Q 2853 4666 3247 4331 
Q 3641 3997 3641 3322 
Q 3641 2881 3436 2590 
Q 3231 2300 2841 2188 
z
M 1259 4147 
L 1259 2491 
L 2053 2491 
Q 2509 2491 2742 2702 
Q 2975 2913 2975 3322 
Q 2975 3731 2742 3939 
Q 2509 4147 2053 4147 
L 1259 4147 
z
" transform="scale(0.015625)"/>
       <path id="DejaVuSans-61" d="M 2194 1759 
Q 1497 1759 1228 1600 
Q 959 1441 959 1056 
Q 959 750 1161 570 
Q 1363 391 1709 391 
Q 2188 391 2477 730 
Q 2766 1069 2766 1631 
L 2766 1759 
L 2194 1759 
z
M 3341 1997 
L 3341 0 
L 2766 0 
L 2766 531 
Q 2569 213 2275 61 
Q 1981 -91 1556 -91 
Q 1019 -91 701 211 
Q 384 513 384 1019 
Q 384 1609 779 1909 
Q 1175 2209 1959 2209 
L 2766 2209 
L 2766 2266 
Q 2766 2663 2505 2880 
Q 2244 3097 1772 3097 
Q 1472 3097 1187 3025 
Q 903 2953 641 2809 
L 641 3341 
Q 956 3463 1253 3523 
Q 1550 3584 1831 3584 
Q 2591 3584 2966 3190 
Q 3341 2797 3341 1997 
z
" transform="scale(0.015625)"/>
       <path id="DejaVuSans-74" d="M 1172 4494 
L 1172 3500 
L 2356 3500 
L 2356 3053 
L 1172 3053 
L 1172 1153 
Q 1172 725 1289 603 
Q 1406 481 1766 481 
L 2356 481 
L 2356 0 
L 1766 0 
Q 1100 0 847 248 
Q 594 497 594 1153 
L 594 3053 
L 172 3053 
L 172 3500 
L 594 3500 
L 594 4494 
L 1172 4494 
z
" transform="scale(0.015625)"/>
       <path id="DejaVuSans-69" d="M 603 3500 
L 1178 3500 
L 1178 0 
L 603 0 
L 603 3500 
z
M 603 4863 
L 1178 4863 
L 1178 4134 
L 603 4134 
L 603 4863 
z
" transform="scale(0.015625)"/>
      </defs>
      <use xlink:href="#DejaVuSans-42"/>
      <use xlink:href="#DejaVuSans-44" transform="translate(68.603516 0)"/>
      <use xlink:href="#DejaVuSans-49" transform="translate(145.605469 0)"/>
      <use xlink:href="#DejaVuSans-20" transform="translate(175.097656 0)"/>
      <use xlink:href="#DejaVuSans-52" transform="translate(206.884766 0)"/>
      <use xlink:href="#DejaVuSans-61" transform="translate(274.117188 0)"/>
      <use xlink:href="#DejaVuSans-74" transform="translate(335.396484 0)"/>
      <use xlink:href="#DejaVuSans-69" transform="translate(374.605469 0)"/>
      <use xlink:href="#DejaVuSans-6f" transform="translate(402.388672 0)"/>
     </g>
    </g>
   </g>
   <g id="line2d_16">
    <path d="M 94.146818 251.722128 
L 100.067792 250.792379 
L 105.988765 249.862631 
L 111.909738 248.932882 
L 117.830712 248.003134 
L 123.751685 247.073385 
L 129.672658 246.143637 
L 135.593632 245.213889 
L 141.514605 244.28414 
L 147.435579 243.354392 
L 153.356552 242.424643 
L 159.277525 241.494895 
L 165.198499 240.565146 
L 171.119472 239.635398 
L 177.040445 238.70565 
L 182.961419 237.775901 
L 188.882392 236.846153 
L 194.803365 235.916404 
L 200.724339 234.986656 
L 206.645312 234.056907 
L 212.566286 233.127159 
L 218.487259 232.197411 
L 224.408232 231.267662 
L 230.329206 230.337914 
L 236.250179 229.408165 
L 242.171152 228.478417 
L 248.092126 227.548668 
L 254.013099 226.61892 
L 259.934073 225.689172 
L 265.855046 224.759423 
L 271.776019 223.829675 
L 277.696993 222.899926 
L 283.617966 221.970178 
L 289.538939 221.040429 
L 295.459913 220.110681 
L 301.380886 219.180932 
L 307.30186 218.251184 
L 313.222833 217.321436 
L 319.143806 216.391687 
L 325.06478 215.461939 
L 330.985753 214.53219 
L 336.906726 213.602442 
L 342.8277 212.672693 
L 348.748673 211.742945 
L 354.669646 210.813197 
L 360.59062 209.883448 
L 366.511593 208.9537 
L 372.432567 208.023951 
L 378.35354 207.094203 
L 384.274513 206.164454 
L 390.195487 205.234706 
L 396.11646 204.304958 
L 402.037433 203.375209 
L 407.958407 202.445461 
L 413.87938 201.515712 
L 419.800354 200.585964 
L 425.721327 199.656215 
L 431.6423 198.726467 
L 437.563274 197.796719 
L 443.484247 196.86697 
L 449.40522 195.937222 
L 455.326194 195.007473 
L 461.247167 194.077725 
L 467.16814 193.147976 
L 473.089114 192.218228 
L 479.010087 191.28848 
L 484.931061 190.358731 
L 490.852034 189.428983 
L 496.773007 188.499234 
L 502.693981 187.569486 
L 508.614954 186.639737 
L 514.535927 185.709989 
L 520.456901 184.780241 
L 526.377874 183.850492 
L 532.298848 182.920744 
L 538.219821 181.990995 
L 544.140794 181.061247 
L 550.061768 180.131498 
L 555.982741 179.20175 
L 561.903714 178.272002 
L 567.824688 177.342253 
L 573.745661 176.412505 
L 579.666635 175.482756 
L 585.587608 174.553008 
L 591.508581 173.623259 
L 597.429555 172.693511 
L 603.350528 171.763763 
L 609.271501 170.834014 
L 615.192475 169.904266 
L 621.113448 168.974517 
L 627.034421 168.044769 
L 632.955395 167.11502 
L 638.876368 166.185272 
L 644.797342 165.255524 
L 650.718315 164.325775 
L 656.639288 163.396027 
L 662.560262 162.466278 
L 668.481235 161.53653 
L 674.402208 160.606781 
L 680.323182 159.677033 
" clip-path="url(#p2ccfa16db5)" style="fill: none; stroke: #808080; stroke-width: 2.25; stroke-linecap: square"/>
   </g>
   <g id="line2d_17">
    <path d="M 94.146818 251.722128 
L 100.067792 250.792379 
L 105.988765 249.862631 
L 111.909738 248.932882 
L 117.830712 248.003134 
L 123.751685 247.073385 
L 129.672658 246.143637 
L 135.593632 245.213889 
L 141.514605 244.28414 
L 147.435579 243.354392 
L 153.356552 242.424643 
L 159.277525 241.494895 
L 165.198499 240.565146 
L 171.119472 239.635398 
L 177.040445 238.70565 
L 182.961419 237.775901 
L 188.882392 236.846153 
L 194.803365 235.916404 
L 200.724339 234.986656 
L 206.645312 234.056907 
L 212.566286 233.127159 
L 218.487259 232.197411 
L 224.408232 231.267662 
L 230.329206 230.337914 
L 236.250179 229.408165 
L 242.171152 228.478417 
L 248.092126 227.548668 
L 254.013099 226.61892 
L 259.934073 225.689172 
L 265.855046 224.759423 
L 271.776019 223.829675 
L 277.696993 222.899926 
L 283.617966 221.970178 
L 289.538939 221.040429 
L 295.459913 220.110681 
L 301.380886 219.180932 
L 307.30186 218.251184 
L 313.222833 217.321436 
L 319.143806 216.391687 
L 325.06478 215.461939 
L 330.985753 214.53219 
L 336.906726 213.602442 
L 342.8277 212.672693 
L 348.748673 211.742945 
L 354.669646 210.813197 
L 360.59062 209.883448 
L 366.511593 208.9537 
L 372.432567 208.023951 
L 378.35354 207.094203 
L 384.274513 206.164454 
L 390.195487 205.234706 
L 396.11646 204.304958 
L 402.037433 203.375209 
L 407.958407 202.445461 
L 413.87938 201.515712 
L 419.800354 200.585964 
L 425.721327 199.656215 
L 431.6423 198.726467 
L 437.563274 197.796719 
L 443.484247 196.86697 
L 449.40522 195.937222 
L 455.326194 195.007473 
L 461.247167 194.077725 
L 467.16814 193.147976 
L 473.089114 192.218228 
L 479.010087 191.28848 
L 484.931061 190.358731 
L 490.852034 189.428983 
L 496.773007 188.499234 
L 502.693981 187.569486 
L 508.614954 186.639737 
L 514.535927 185.709989 
L 520.456901 184.780241 
L 526.377874 183.850492 
L 532.298848 182.920744 
L 538.219821 181.990995 
L 544.140794 181.061247 
L 550.061768 180.131498 
L 555.982741 179.20175 
L 561.903714 178.272002 
L 567.824688 177.342253 
L 573.745661 176.412505 
L 579.666635 175.482756 
L 585.587608 174.553008 
L 591.508581 173.623259 
L 597.429555 172.693511 
L 603.350528 171.763763 
L 609.271501 170.834014 
L 615.192475 169.904266 
L 621.113448 168.974517 
L 627.034421 168.044769 
L 632.955395 167.11502 
L 638.876368 166.185272 
L 644.797342 165.255524 
L 650.718315 164.325775 
L 656.639288 163.396027 
L 662.560262 162.466278 
L 668.481235 161.53653 
L 674.402208 160.606781 
L 680.323182 159.677033 
" clip-path="url(#p2ccfa16db5)" style="fill: none; stroke: #808080; stroke-width: 2.25; stroke-linecap: square"/>
   </g>
   <g id="patch_5">
    <path d="M 64.838 387.592 
L 64.838 27.168 
" style="fill: none; stroke: #000000; stroke-width: 0.8; stroke-linejoin: miter; stroke-linecap: square"/>
   </g>
   <g id="patch_6">
    <path d="M 64.838 387.592 
L 709.632 387.592 
" style="fill: none; stroke: #000000; stroke-width: 0.8; stroke-linejoin: miter; stroke-linecap: square"/>
   </g>
   <g id="text_18">
    <g id="patch_7">
     <path d="M 93.1177 74.200325 
L 209.91145 74.200325 
L 209.91145 41.2292 
L 93.1177 41.2292 
z
" style="fill: #ffffff; opacity: 0.5; stroke: #000000; stroke-linejoin: miter"/>
    </g>
    <!-- R: 0.32 -->
    <g transform="translate(97.0777 54.307325) scale(0.12 -0.12)">
     <defs>
      <path id="DejaVuSans-3a" d="M 750 794 
L 1409 794 
L 1409 0 
L 750 0 
L 750 794 
z
M 750 3309 
L 1409 3309 
L 1409 2516 
L 750 2516 
L 750 3309 
z
" transform="scale(0.015625)"/>
      <path id="DejaVuSans-33" d="M 2597 2516 
Q 3050 2419 3304 2112 
Q 3559 1806 3559 1356 
Q 3559 666 3084 287 
Q 2609 -91 1734 -91 
Q 1441 -91 1130 -33 
Q 819 25 488 141 
L 488 750 
Q 750 597 1062 519 
Q 1375 441 1716 441 
Q 2309 441 2620 675 
Q 2931 909 2931 1356 
Q 2931 1769 2642 2001 
Q 2353 2234 1838 2234 
L 1294 2234 
L 1294 2753 
L 1863 2753 
Q 2328 2753 2575 2939 
Q 2822 3125 2822 3475 
Q 2822 3834 2567 4026 
Q 2313 4219 1838 4219 
Q 1578 4219 1281 4162 
Q 984 4106 628 3988 
L 628 4550 
Q 988 4650 1302 4700 
Q 1616 4750 1894 4750 
Q 2613 4750 3031 4423 
Q 3450 4097 3450 3541 
Q 3450 3153 3228 2886 
Q 3006 2619 2597 2516 
z
" transform="scale(0.015625)"/>
     </defs>
     <use xlink:href="#DejaVuSans-52"/>
     <use xlink:href="#DejaVuSans-3a" transform="translate(66.357422 0)"/>
     <use xlink:href="#DejaVuSans-20" transform="translate(100.048828 0)"/>
     <use xlink:href="#DejaVuSans-30" transform="translate(131.835938 0)"/>
     <use xlink:href="#DejaVuSans-2e" transform="translate(195.458984 0)"/>
     <use xlink:href="#DejaVuSans-33" transform="translate(227.246094 0)"/>
     <use xlink:href="#DejaVuSans-32" transform="translate(290.869141 0)"/>
    </g>
    <!-- P-value: 0.000106 -->
    <g transform="translate(97.0777 67.7447) scale(0.12 -0.12)">
     <defs>
      <path id="DejaVuSans-2d" d="M 313 2009 
L 1997 2009 
L 1997 1497 
L 313 1497 
L 313 2009 
z
" transform="scale(0.015625)"/>
      <path id="DejaVuSans-76" d="M 191 3500 
L 800 3500 
L 1894 563 
L 2988 3500 
L 3597 3500 
L 2284 0 
L 1503 0 
L 191 3500 
z
" transform="scale(0.015625)"/>
      <path id="DejaVuSans-6c" d="M 603 4863 
L 1178 4863 
L 1178 0 
L 603 0 
L 603 4863 
z
" transform="scale(0.015625)"/>
      <path id="DejaVuSans-75" d="M 544 1381 
L 544 3500 
L 1119 3500 
L 1119 1403 
Q 1119 906 1312 657 
Q 1506 409 1894 409 
Q 2359 409 2629 706 
Q 2900 1003 2900 1516 
L 2900 3500 
L 3475 3500 
L 3475 0 
L 2900 0 
L 2900 538 
Q 2691 219 2414 64 
Q 2138 -91 1772 -91 
Q 1169 -91 856 284 
Q 544 659 544 1381 
z
M 1991 3584 
L 1991 3584 
z
" transform="scale(0.015625)"/>
      <path id="DejaVuSans-36" d="M 2113 2584 
Q 1688 2584 1439 2293 
Q 1191 2003 1191 1497 
Q 1191 994 1439 701 
Q 1688 409 2113 409 
Q 2538 409 2786 701 
Q 3034 994 3034 1497 
Q 3034 2003 2786 2293 
Q 2538 2584 2113 2584 
z
M 3366 4563 
L 3366 3988 
Q 3128 4100 2886 4159 
Q 2644 4219 2406 4219 
Q 1781 4219 1451 3797 
Q 1122 3375 1075 2522 
Q 1259 2794 1537 2939 
Q 1816 3084 2150 3084 
Q 2853 3084 3261 2657 
Q 3669 2231 3669 1497 
Q 3669 778 3244 343 
Q 2819 -91 2113 -91 
Q 1303 -91 875 529 
Q 447 1150 447 2328 
Q 447 3434 972 4092 
Q 1497 4750 2381 4750 
Q 2619 4750 2861 4703 
Q 3103 4656 3366 4563 
z
" transform="scale(0.015625)"/>
     </defs>
     <use xlink:href="#DejaVuSans-50"/>
     <use xlink:href="#DejaVuSans-2d" transform="translate(58.052734 0)"/>
     <use xlink:href="#DejaVuSans-76" transform="translate(91.511719 0)"/>
     <use xlink:href="#DejaVuSans-61" transform="translate(150.691406 0)"/>
     <use xlink:href="#DejaVuSans-6c" transform="translate(211.970703 0)"/>
     <use xlink:href="#DejaVuSans-75" transform="translate(239.753906 0)"/>
     <use xlink:href="#DejaVuSans-65" transform="translate(303.132812 0)"/>
     <use xlink:href="#DejaVuSans-3a" transform="translate(364.65625 0)"/>
     <use xlink:href="#DejaVuSans-20" transform="translate(398.347656 0)"/>
     <use xlink:href="#DejaVuSans-30" transform="translate(430.134766 0)"/>
     <use xlink:href="#DejaVuSans-2e" transform="translate(493.757812 0)"/>
     <use xlink:href="#DejaVuSans-30" transform="translate(525.544922 0)"/>
     <use xlink:href="#DejaVuSans-30" transform="translate(589.167969 0)"/>
     <use xlink:href="#DejaVuSans-30" transform="translate(652.791016 0)"/>
     <use xlink:href="#DejaVuSans-31" transform="translate(716.414062 0)"/>
     <use xlink:href="#DejaVuSans-30" transform="translate(780.037109 0)"/>
     <use xlink:href="#DejaVuSans-36" transform="translate(843.660156 0)"/>
    </g>
   </g>
   <g id="text_19">
    <!-- Pre vs. Ratio  N=138 -->
    <g transform="translate(314.764219 21.168) scale(0.14 -0.14)">
     <defs>
      <path id="DejaVuSans-73" d="M 2834 3397 
L 2834 2853 
Q 2591 2978 2328 3040 
Q 2066 3103 1784 3103 
Q 1356 3103 1142 2972 
Q 928 2841 928 2578 
Q 928 2378 1081 2264 
Q 1234 2150 1697 2047 
L 1894 2003 
Q 2506 1872 2764 1633 
Q 3022 1394 3022 966 
Q 3022 478 2636 193 
Q 2250 -91 1575 -91 
Q 1294 -91 989 -36 
Q 684 19 347 128 
L 347 722 
Q 666 556 975 473 
Q 1284 391 1588 391 
Q 1994 391 2212 530 
Q 2431 669 2431 922 
Q 2431 1156 2273 1281 
Q 2116 1406 1581 1522 
L 1381 1569 
Q 847 1681 609 1914 
Q 372 2147 372 2553 
Q 372 3047 722 3315 
Q 1072 3584 1716 3584 
Q 2034 3584 2315 3537 
Q 2597 3491 2834 3397 
z
" transform="scale(0.015625)"/>
      <path id="DejaVuSans-4e" d="M 628 4666 
L 1478 4666 
L 3547 763 
L 3547 4666 
L 4159 4666 
L 4159 0 
L 3309 0 
L 1241 3903 
L 1241 0 
L 628 0 
L 628 4666 
z
" transform="scale(0.015625)"/>
      <path id="DejaVuSans-3d" d="M 678 2906 
L 4684 2906 
L 4684 2381 
L 678 2381 
L 678 2906 
z
M 678 1631 
L 4684 1631 
L 4684 1100 
L 678 1100 
L 678 1631 
z
" transform="scale(0.015625)"/>
      <path id="DejaVuSans-38" d="M 2034 2216 
Q 1584 2216 1326 1975 
Q 1069 1734 1069 1313 
Q 1069 891 1326 650 
Q 1584 409 2034 409 
Q 2484 409 2743 651 
Q 3003 894 3003 1313 
Q 3003 1734 2745 1975 
Q 2488 2216 2034 2216 
z
M 1403 2484 
Q 997 2584 770 2862 
Q 544 3141 544 3541 
Q 544 4100 942 4425 
Q 1341 4750 2034 4750 
Q 2731 4750 3128 4425 
Q 3525 4100 3525 3541 
Q 3525 3141 3298 2862 
Q 3072 2584 2669 2484 
Q 3125 2378 3379 2068 
Q 3634 1759 3634 1313 
Q 3634 634 3220 271 
Q 2806 -91 2034 -91 
Q 1263 -91 848 271 
Q 434 634 434 1313 
Q 434 1759 690 2068 
Q 947 2378 1403 2484 
z
M 1172 3481 
Q 1172 3119 1398 2916 
Q 1625 2713 2034 2713 
Q 2441 2713 2670 2916 
Q 2900 3119 2900 3481 
Q 2900 3844 2670 4047 
Q 2441 4250 2034 4250 
Q 1625 4250 1398 4047 
Q 1172 3844 1172 3481 
z
" transform="scale(0.015625)"/>
     </defs>
     <use xlink:href="#DejaVuSans-50"/>
     <use xlink:href="#DejaVuSans-72" transform="translate(58.552734 0)"/>
     <use xlink:href="#DejaVuSans-65" transform="translate(97.416016 0)"/>
     <use xlink:href="#DejaVuSans-20" transform="translate(158.939453 0)"/>
     <use xlink:href="#DejaVuSans-76" transform="translate(190.726562 0)"/>
     <use xlink:href="#DejaVuSans-73" transform="translate(249.90625 0)"/>
     <use xlink:href="#DejaVuSans-2e" transform="translate(302.005859 0)"/>
     <use xlink:href="#DejaVuSans-20" transform="translate(333.792969 0)"/>
     <use xlink:href="#DejaVuSans-52" transform="translate(365.580078 0)"/>
     <use xlink:href="#DejaVuSans-61" transform="translate(432.8125 0)"/>
     <use xlink:href="#DejaVuSans-74" transform="translate(494.091797 0)"/>
     <use xlink:href="#DejaVuSans-69" transform="translate(533.300781 0)"/>
     <use xlink:href="#DejaVuSans-6f" transform="translate(561.083984 0)"/>
     <use xlink:href="#DejaVuSans-20" transform="translate(622.265625 0)"/>
     <use xlink:href="#DejaVuSans-20" transform="translate(654.052734 0)"/>
     <use xlink:href="#DejaVuSans-4e" transform="translate(685.839844 0)"/>
     <use xlink:href="#DejaVuSans-3d" transform="translate(760.644531 0)"/>
     <use xlink:href="#DejaVuSans-31" transform="translate(844.433594 0)"/>
     <use xlink:href="#DejaVuSans-33" transform="translate(908.056641 0)"/>
     <use xlink:href="#DejaVuSans-38" transform="translate(971.679688 0)"/>
    </g>
   </g>
  </g>
 </g>
 <defs>
  <clipPath id="p2ccfa16db5">
   <rect x="64.838" y="27.168" width="644.794" height="360.424"/>
  </clipPath>
 </defs>
</svg>
