<?xml version="1.0" encoding="utf-8" standalone="no"?>
<!DOCTYPE svg PUBLIC "-//W3C//DTD SVG 1.1//EN"
  "http://www.w3.org/Graphics/SVG/1.1/DTD/svg11.dtd">
<svg xmlns:xlink="http://www.w3.org/1999/xlink" width="720pt" height="432pt" viewBox="0 0 720 432" xmlns="http://www.w3.org/2000/svg" version="1.1">
 <metadata>
  <rdf:RDF xmlns:dc="http://purl.org/dc/elements/1.1/" xmlns:cc="http://creativecommons.org/ns#" xmlns:rdf="http://www.w3.org/1999/02/22-rdf-syntax-ns#">
   <cc:Work>
    <dc:type rdf:resource="http://purl.org/dc/dcmitype/StillImage"/>
    <dc:date>2025-05-27T16:33:50.080179</dc:date>
    <dc:format>image/svg+xml</dc:format>
    <dc:creator>
     <cc:Agent>
      <dc:title>Matplotlib v3.10.0, https://matplotlib.org/</dc:title>
     </cc:Agent>
    </dc:creator>
   </cc:Work>
  </rdf:RDF>
 </metadata>
 <defs>
  <style type="text/css">*{stroke-linejoin: round; stroke-linecap: butt}</style>
 </defs>
 <g id="figure_1">
  <g id="patch_1">
   <path d="M 0 432 
L 720 432 
L 720 0 
L 0 0 
z
" style="fill: #ffffff"/>
  </g>
  <g id="axes_1">
   <g id="patch_2">
    <path d="M 63.938 388.672 
L 709.632 388.672 
L 709.632 27.168 
L 63.938 27.168 
z
" style="fill: #ffffff"/>
   </g>
   <g id="patch_3">
    <path d="M 63.938 388.672 
L 709.632 388.672 
L 709.632 207.92 
L 63.938 207.92 
z
" clip-path="url(#p66af92c32f)" style="fill: #ff5714; opacity: 0.08; stroke: #ff5714; stroke-linejoin: miter"/>
   </g>
   <g id="patch_4">
    <path d="M 63.938 207.92 
L 709.632 207.92 
L 709.632 27.168 
L 63.938 27.168 
z
" clip-path="url(#p66af92c32f)" style="fill: #04e762; opacity: 0.08; stroke: #04e762; stroke-linejoin: miter"/>
   </g>
   <g id="PathCollection_1">
    <defs>
     <path id="m933f41cf08" d="M 0 3 
C 0.795609 3 1.55874 2.683901 2.12132 2.12132 
C 2.683901 1.55874 3 0.795609 3 0 
C 3 -0.795609 2.683901 -1.55874 2.12132 -2.12132 
C 1.55874 -2.683901 0.795609 -3 0 -3 
C -0.795609 -3 -1.55874 -2.683901 -2.12132 -2.12132 
C -2.683901 -1.55874 -3 -0.795609 -3 0 
C -3 0.795609 -2.683901 1.55874 -2.12132 2.12132 
C -1.55874 2.683901 -0.795609 3 0 3 
z
" style="stroke: #ffffff; stroke-opacity: 0.7; stroke-width: 0.48"/>
    </defs>
    <g clip-path="url(#p66af92c32f)">
     <use xlink:href="#m933f41cf08" x="263.705499" y="237.796364" style="fill: #1f77b4; fill-opacity: 0.7; stroke: #ffffff; stroke-opacity: 0.7; stroke-width: 0.48"/>
     <use xlink:href="#m933f41cf08" x="263.705499" y="231.394286" style="fill: #1f77b4; fill-opacity: 0.7; stroke: #ffffff; stroke-opacity: 0.7; stroke-width: 0.48"/>
     <use xlink:href="#m933f41cf08" x="282.640806" y="240.784" style="fill: #1f77b4; fill-opacity: 0.7; stroke: #ffffff; stroke-opacity: 0.7; stroke-width: 0.48"/>
     <use xlink:href="#m933f41cf08" x="358.382038" y="142.192" style="fill: #1f77b4; fill-opacity: 0.7; stroke: #ffffff; stroke-opacity: 0.7; stroke-width: 0.48"/>
     <use xlink:href="#m933f41cf08" x="320.511422" y="192.981818" style="fill: #1f77b4; fill-opacity: 0.7; stroke: #ffffff; stroke-opacity: 0.7; stroke-width: 0.48"/>
     <use xlink:href="#m933f41cf08" x="282.640806" y="229.353043" style="fill: #1f77b4; fill-opacity: 0.7; stroke: #ffffff; stroke-opacity: 0.7; stroke-width: 0.48"/>
     <use xlink:href="#m933f41cf08" x="282.640806" y="229.353043" style="fill: #1f77b4; fill-opacity: 0.7; stroke: #ffffff; stroke-opacity: 0.7; stroke-width: 0.48"/>
     <use xlink:href="#m933f41cf08" x="680.282273" y="168.4832" style="fill: #1f77b4; fill-opacity: 0.7; stroke: #ffffff; stroke-opacity: 0.7; stroke-width: 0.48"/>
     <use xlink:href="#m933f41cf08" x="150.093651" y="125.76" style="fill: #1f77b4; fill-opacity: 0.7; stroke: #ffffff; stroke-opacity: 0.7; stroke-width: 0.48"/>
     <use xlink:href="#m933f41cf08" x="396.252654" y="202.619355" style="fill: #1f77b4; fill-opacity: 0.7; stroke: #ffffff; stroke-opacity: 0.7; stroke-width: 0.48"/>
     <use xlink:href="#m933f41cf08" x="263.705499" y="262.693333" style="fill: #1f77b4; fill-opacity: 0.7; stroke: #ffffff; stroke-opacity: 0.7; stroke-width: 0.48"/>
     <use xlink:href="#m933f41cf08" x="358.382038" y="201.834074" style="fill: #1f77b4; fill-opacity: 0.7; stroke: #ffffff; stroke-opacity: 0.7; stroke-width: 0.48"/>
     <use xlink:href="#m933f41cf08" x="282.640806" y="229.353043" style="fill: #1f77b4; fill-opacity: 0.7; stroke: #ffffff; stroke-opacity: 0.7; stroke-width: 0.48"/>
     <use xlink:href="#m933f41cf08" x="358.382038" y="236.917647" style="fill: #1f77b4; fill-opacity: 0.7; stroke: #ffffff; stroke-opacity: 0.7; stroke-width: 0.48"/>
     <use xlink:href="#m933f41cf08" x="301.576114" y="221.613333" style="fill: #1f77b4; fill-opacity: 0.7; stroke: #ffffff; stroke-opacity: 0.7; stroke-width: 0.48"/>
     <use xlink:href="#m933f41cf08" x="150.093651" y="262.693333" style="fill: #1f77b4; fill-opacity: 0.7; stroke: #ffffff; stroke-opacity: 0.7; stroke-width: 0.48"/>
     <use xlink:href="#m933f41cf08" x="206.899575" y="256.249412" style="fill: #1f77b4; fill-opacity: 0.7; stroke: #ffffff; stroke-opacity: 0.7; stroke-width: 0.48"/>
     <use xlink:href="#m933f41cf08" x="263.705499" y="160.971429" style="fill: #1f77b4; fill-opacity: 0.7; stroke: #ffffff; stroke-opacity: 0.7; stroke-width: 0.48"/>
     <use xlink:href="#m933f41cf08" x="547.735117" y="207.92" style="fill: #1f77b4; fill-opacity: 0.7; stroke: #ffffff; stroke-opacity: 0.7; stroke-width: 0.48"/>
     <use xlink:href="#m933f41cf08" x="225.834883" y="142.192" style="fill: #1f77b4; fill-opacity: 0.7; stroke: #ffffff; stroke-opacity: 0.7; stroke-width: 0.48"/>
     <use xlink:href="#m933f41cf08" x="206.899575" y="192.981818" style="fill: #1f77b4; fill-opacity: 0.7; stroke: #ffffff; stroke-opacity: 0.7; stroke-width: 0.48"/>
     <use xlink:href="#m933f41cf08" x="206.899575" y="278.342857" style="fill: #1f77b4; fill-opacity: 0.7; stroke: #ffffff; stroke-opacity: 0.7; stroke-width: 0.48"/>
     <use xlink:href="#m933f41cf08" x="263.705499" y="187.38" style="fill: #1f77b4; fill-opacity: 0.7; stroke: #ffffff; stroke-opacity: 0.7; stroke-width: 0.48"/>
     <use xlink:href="#m933f41cf08" x="320.511422" y="184.445714" style="fill: #1f77b4; fill-opacity: 0.7; stroke: #ffffff; stroke-opacity: 0.7; stroke-width: 0.48"/>
     <use xlink:href="#m933f41cf08" x="547.735117" y="140.258824" style="fill: #1f77b4; fill-opacity: 0.7; stroke: #ffffff; stroke-opacity: 0.7; stroke-width: 0.48"/>
     <use xlink:href="#m933f41cf08" x="282.640806" y="98.373333" style="fill: #1f77b4; fill-opacity: 0.7; stroke: #ffffff; stroke-opacity: 0.7; stroke-width: 0.48"/>
     <use xlink:href="#m933f41cf08" x="169.028959" y="299.208889" style="fill: #1f77b4; fill-opacity: 0.7; stroke: #ffffff; stroke-opacity: 0.7; stroke-width: 0.48"/>
     <use xlink:href="#m933f41cf08" x="282.640806" y="215.744762" style="fill: #1f77b4; fill-opacity: 0.7; stroke: #ffffff; stroke-opacity: 0.7; stroke-width: 0.48"/>
     <use xlink:href="#m933f41cf08" x="206.899575" y="231.394286" style="fill: #1f77b4; fill-opacity: 0.7; stroke: #ffffff; stroke-opacity: 0.7; stroke-width: 0.48"/>
     <use xlink:href="#m933f41cf08" x="282.640806" y="178.922353" style="fill: #1f77b4; fill-opacity: 0.7; stroke: #ffffff; stroke-opacity: 0.7; stroke-width: 0.48"/>
     <use xlink:href="#m933f41cf08" x="93.287727" y="372.24" style="fill: #1f77b4; fill-opacity: 0.7; stroke: #ffffff; stroke-opacity: 0.7; stroke-width: 0.48"/>
     <use xlink:href="#m933f41cf08" x="112.223035" y="317.466667" style="fill: #1f77b4; fill-opacity: 0.7; stroke: #ffffff; stroke-opacity: 0.7; stroke-width: 0.48"/>
     <use xlink:href="#m933f41cf08" x="206.899575" y="175.056" style="fill: #1f77b4; fill-opacity: 0.7; stroke: #ffffff; stroke-opacity: 0.7; stroke-width: 0.48"/>
     <use xlink:href="#m933f41cf08" x="263.705499" y="216.568421" style="fill: #1f77b4; fill-opacity: 0.7; stroke: #ffffff; stroke-opacity: 0.7; stroke-width: 0.48"/>
     <use xlink:href="#m933f41cf08" x="566.670425" y="193.631304" style="fill: #1f77b4; fill-opacity: 0.7; stroke: #ffffff; stroke-opacity: 0.7; stroke-width: 0.48"/>
     <use xlink:href="#m933f41cf08" x="301.576114" y="271.822222" style="fill: #1f77b4; fill-opacity: 0.7; stroke: #ffffff; stroke-opacity: 0.7; stroke-width: 0.48"/>
     <use xlink:href="#m933f41cf08" x="169.028959" y="184.445714" style="fill: #1f77b4; fill-opacity: 0.7; stroke: #ffffff; stroke-opacity: 0.7; stroke-width: 0.48"/>
     <use xlink:href="#m933f41cf08" x="282.640806" y="240.784" style="fill: #1f77b4; fill-opacity: 0.7; stroke: #ffffff; stroke-opacity: 0.7; stroke-width: 0.48"/>
     <use xlink:href="#m933f41cf08" x="680.282273" y="159.993333" style="fill: #1f77b4; fill-opacity: 0.7; stroke: #ffffff; stroke-opacity: 0.7; stroke-width: 0.48"/>
     <use xlink:href="#m933f41cf08" x="225.834883" y="218.874667" style="fill: #1f77b4; fill-opacity: 0.7; stroke: #ffffff; stroke-opacity: 0.7; stroke-width: 0.48"/>
     <use xlink:href="#m933f41cf08" x="150.093651" y="231.394286" style="fill: #1f77b4; fill-opacity: 0.7; stroke: #ffffff; stroke-opacity: 0.7; stroke-width: 0.48"/>
     <use xlink:href="#m933f41cf08" x="263.705499" y="237.796364" style="fill: #1f77b4; fill-opacity: 0.7; stroke: #ffffff; stroke-opacity: 0.7; stroke-width: 0.48"/>
     <use xlink:href="#m933f41cf08" x="131.158343" y="43.6" style="fill: #1f77b4; fill-opacity: 0.7; stroke: #ffffff; stroke-opacity: 0.7; stroke-width: 0.48"/>
     <use xlink:href="#m933f41cf08" x="225.834883" y="228.46" style="fill: #1f77b4; fill-opacity: 0.7; stroke: #ffffff; stroke-opacity: 0.7; stroke-width: 0.48"/>
     <use xlink:href="#m933f41cf08" x="301.576114" y="215.064348" style="fill: #1f77b4; fill-opacity: 0.7; stroke: #ffffff; stroke-opacity: 0.7; stroke-width: 0.48"/>
     <use xlink:href="#m933f41cf08" x="263.705499" y="207.92" style="fill: #1f77b4; fill-opacity: 0.7; stroke: #ffffff; stroke-opacity: 0.7; stroke-width: 0.48"/>
     <use xlink:href="#m933f41cf08" x="263.705499" y="160.971429" style="fill: #1f77b4; fill-opacity: 0.7; stroke: #ffffff; stroke-opacity: 0.7; stroke-width: 0.48"/>
     <use xlink:href="#m933f41cf08" x="301.576114" y="227.6384" style="fill: #1f77b4; fill-opacity: 0.7; stroke: #ffffff; stroke-opacity: 0.7; stroke-width: 0.48"/>
     <use xlink:href="#m933f41cf08" x="225.834883" y="163.105455" style="fill: #1f77b4; fill-opacity: 0.7; stroke: #ffffff; stroke-opacity: 0.7; stroke-width: 0.48"/>
     <use xlink:href="#m933f41cf08" x="225.834883" y="84.68" style="fill: #1f77b4; fill-opacity: 0.7; stroke: #ffffff; stroke-opacity: 0.7; stroke-width: 0.48"/>
     <use xlink:href="#m933f41cf08" x="225.834883" y="218.874667" style="fill: #1f77b4; fill-opacity: 0.7; stroke: #ffffff; stroke-opacity: 0.7; stroke-width: 0.48"/>
     <use xlink:href="#m933f41cf08" x="377.317346" y="157.909565" style="fill: #1f77b4; fill-opacity: 0.7; stroke: #ffffff; stroke-opacity: 0.7; stroke-width: 0.48"/>
     <use xlink:href="#m933f41cf08" x="604.541041" y="187.38" style="fill: #1f77b4; fill-opacity: 0.7; stroke: #ffffff; stroke-opacity: 0.7; stroke-width: 0.48"/>
     <use xlink:href="#m933f41cf08" x="244.770191" y="153.146667" style="fill: #1f77b4; fill-opacity: 0.7; stroke: #ffffff; stroke-opacity: 0.7; stroke-width: 0.48"/>
     <use xlink:href="#m933f41cf08" x="187.964267" y="290.08" style="fill: #1f77b4; fill-opacity: 0.7; stroke: #ffffff; stroke-opacity: 0.7; stroke-width: 0.48"/>
     <use xlink:href="#m933f41cf08" x="206.899575" y="231.394286" style="fill: #1f77b4; fill-opacity: 0.7; stroke: #ffffff; stroke-opacity: 0.7; stroke-width: 0.48"/>
     <use xlink:href="#m933f41cf08" x="358.382038" y="180.533333" style="fill: #1f77b4; fill-opacity: 0.7; stroke: #ffffff; stroke-opacity: 0.7; stroke-width: 0.48"/>
     <use xlink:href="#m933f41cf08" x="471.993886" y="178.922353" style="fill: #1f77b4; fill-opacity: 0.7; stroke: #ffffff; stroke-opacity: 0.7; stroke-width: 0.48"/>
     <use xlink:href="#m933f41cf08" x="301.576114" y="171.404444" style="fill: #1f77b4; fill-opacity: 0.7; stroke: #ffffff; stroke-opacity: 0.7; stroke-width: 0.48"/>
     <use xlink:href="#m933f41cf08" x="320.511422" y="200.775652" style="fill: #1f77b4; fill-opacity: 0.7; stroke: #ffffff; stroke-opacity: 0.7; stroke-width: 0.48"/>
     <use xlink:href="#m933f41cf08" x="169.028959" y="153.146667" style="fill: #1f77b4; fill-opacity: 0.7; stroke: #ffffff; stroke-opacity: 0.7; stroke-width: 0.48"/>
     <use xlink:href="#m933f41cf08" x="623.476349" y="153.146667" style="fill: #1f77b4; fill-opacity: 0.7; stroke: #ffffff; stroke-opacity: 0.7; stroke-width: 0.48"/>
     <use xlink:href="#m933f41cf08" x="471.993886" y="215.744762" style="fill: #1f77b4; fill-opacity: 0.7; stroke: #ffffff; stroke-opacity: 0.7; stroke-width: 0.48"/>
     <use xlink:href="#m933f41cf08" x="169.028959" y="184.445714" style="fill: #1f77b4; fill-opacity: 0.7; stroke: #ffffff; stroke-opacity: 0.7; stroke-width: 0.48"/>
     <use xlink:href="#m933f41cf08" x="206.899575" y="273.648" style="fill: #1f77b4; fill-opacity: 0.7; stroke: #ffffff; stroke-opacity: 0.7; stroke-width: 0.48"/>
     <use xlink:href="#m933f41cf08" x="282.640806" y="235.306667" style="fill: #1f77b4; fill-opacity: 0.7; stroke: #ffffff; stroke-opacity: 0.7; stroke-width: 0.48"/>
     <use xlink:href="#m933f41cf08" x="244.770191" y="80.115556" style="fill: #1f77b4; fill-opacity: 0.7; stroke: #ffffff; stroke-opacity: 0.7; stroke-width: 0.48"/>
     <use xlink:href="#m933f41cf08" x="339.44673" y="259.810526" style="fill: #1f77b4; fill-opacity: 0.7; stroke: #ffffff; stroke-opacity: 0.7; stroke-width: 0.48"/>
     <use xlink:href="#m933f41cf08" x="585.605733" y="197.859592" style="fill: #1f77b4; fill-opacity: 0.7; stroke: #ffffff; stroke-opacity: 0.7; stroke-width: 0.48"/>
     <use xlink:href="#m933f41cf08" x="282.640806" y="293.992381" style="fill: #1f77b4; fill-opacity: 0.7; stroke: #ffffff; stroke-opacity: 0.7; stroke-width: 0.48"/>
     <use xlink:href="#m933f41cf08" x="585.605733" y="207.92" style="fill: #1f77b4; fill-opacity: 0.7; stroke: #ffffff; stroke-opacity: 0.7; stroke-width: 0.48"/>
     <use xlink:href="#m933f41cf08" x="206.899575" y="320.349474" style="fill: #1f77b4; fill-opacity: 0.7; stroke: #ffffff; stroke-opacity: 0.7; stroke-width: 0.48"/>
     <use xlink:href="#m933f41cf08" x="263.705499" y="207.92" style="fill: #1f77b4; fill-opacity: 0.7; stroke: #ffffff; stroke-opacity: 0.7; stroke-width: 0.48"/>
     <use xlink:href="#m933f41cf08" x="206.899575" y="262.693333" style="fill: #1f77b4; fill-opacity: 0.7; stroke: #ffffff; stroke-opacity: 0.7; stroke-width: 0.48"/>
     <use xlink:href="#m933f41cf08" x="415.187962" y="255.846667" style="fill: #1f77b4; fill-opacity: 0.7; stroke: #ffffff; stroke-opacity: 0.7; stroke-width: 0.48"/>
     <use xlink:href="#m933f41cf08" x="282.640806" y="266.227097" style="fill: #1f77b4; fill-opacity: 0.7; stroke: #ffffff; stroke-opacity: 0.7; stroke-width: 0.48"/>
     <use xlink:href="#m933f41cf08" x="263.705499" y="216.568421" style="fill: #1f77b4; fill-opacity: 0.7; stroke: #ffffff; stroke-opacity: 0.7; stroke-width: 0.48"/>
     <use xlink:href="#m933f41cf08" x="244.770191" y="240.784" style="fill: #1f77b4; fill-opacity: 0.7; stroke: #ffffff; stroke-opacity: 0.7; stroke-width: 0.48"/>
     <use xlink:href="#m933f41cf08" x="169.028959" y="252.734545" style="fill: #1f77b4; fill-opacity: 0.7; stroke: #ffffff; stroke-opacity: 0.7; stroke-width: 0.48"/>
     <use xlink:href="#m933f41cf08" x="150.093651" y="282.610909" style="fill: #1f77b4; fill-opacity: 0.7; stroke: #ffffff; stroke-opacity: 0.7; stroke-width: 0.48"/>
     <use xlink:href="#m933f41cf08" x="320.511422" y="200.775652" style="fill: #1f77b4; fill-opacity: 0.7; stroke: #ffffff; stroke-opacity: 0.7; stroke-width: 0.48"/>
     <use xlink:href="#m933f41cf08" x="131.158343" y="278.342857" style="fill: #1f77b4; fill-opacity: 0.7; stroke: #ffffff; stroke-opacity: 0.7; stroke-width: 0.48"/>
     <use xlink:href="#m933f41cf08" x="377.317346" y="148.167273" style="fill: #1f77b4; fill-opacity: 0.7; stroke: #ffffff; stroke-opacity: 0.7; stroke-width: 0.48"/>
     <use xlink:href="#m933f41cf08" x="263.705499" y="187.38" style="fill: #1f77b4; fill-opacity: 0.7; stroke: #ffffff; stroke-opacity: 0.7; stroke-width: 0.48"/>
     <use xlink:href="#m933f41cf08" x="263.705499" y="231.394286" style="fill: #1f77b4; fill-opacity: 0.7; stroke: #ffffff; stroke-opacity: 0.7; stroke-width: 0.48"/>
     <use xlink:href="#m933f41cf08" x="244.770191" y="153.146667" style="fill: #1f77b4; fill-opacity: 0.7; stroke: #ffffff; stroke-opacity: 0.7; stroke-width: 0.48"/>
     <use xlink:href="#m933f41cf08" x="263.705499" y="237.796364" style="fill: #1f77b4; fill-opacity: 0.7; stroke: #ffffff; stroke-opacity: 0.7; stroke-width: 0.48"/>
     <use xlink:href="#m933f41cf08" x="244.770191" y="257.930435" style="fill: #1f77b4; fill-opacity: 0.7; stroke: #ffffff; stroke-opacity: 0.7; stroke-width: 0.48"/>
     <use xlink:href="#m933f41cf08" x="150.093651" y="296.4" style="fill: #1f77b4; fill-opacity: 0.7; stroke: #ffffff; stroke-opacity: 0.7; stroke-width: 0.48"/>
     <use xlink:href="#m933f41cf08" x="604.541041" y="118.717714" style="fill: #1f77b4; fill-opacity: 0.7; stroke: #ffffff; stroke-opacity: 0.7; stroke-width: 0.48"/>
     <use xlink:href="#m933f41cf08" x="150.093651" y="43.6" style="fill: #1f77b4; fill-opacity: 0.7; stroke: #ffffff; stroke-opacity: 0.7; stroke-width: 0.48"/>
     <use xlink:href="#m933f41cf08" x="301.576114" y="191.488" style="fill: #1f77b4; fill-opacity: 0.7; stroke: #ffffff; stroke-opacity: 0.7; stroke-width: 0.48"/>
     <use xlink:href="#m933f41cf08" x="244.770191" y="207.92" style="fill: #1f77b4; fill-opacity: 0.7; stroke: #ffffff; stroke-opacity: 0.7; stroke-width: 0.48"/>
     <use xlink:href="#m933f41cf08" x="225.834883" y="308.337778" style="fill: #1f77b4; fill-opacity: 0.7; stroke: #ffffff; stroke-opacity: 0.7; stroke-width: 0.48"/>
     <use xlink:href="#m933f41cf08" x="434.12327" y="160.971429" style="fill: #1f77b4; fill-opacity: 0.7; stroke: #ffffff; stroke-opacity: 0.7; stroke-width: 0.48"/>
     <use xlink:href="#m933f41cf08" x="187.964267" y="235.306667" style="fill: #1f77b4; fill-opacity: 0.7; stroke: #ffffff; stroke-opacity: 0.7; stroke-width: 0.48"/>
     <use xlink:href="#m933f41cf08" x="131.158343" y="299.208889" style="fill: #1f77b4; fill-opacity: 0.7; stroke: #ffffff; stroke-opacity: 0.7; stroke-width: 0.48"/>
     <use xlink:href="#m933f41cf08" x="225.834883" y="251.162105" style="fill: #1f77b4; fill-opacity: 0.7; stroke: #ffffff; stroke-opacity: 0.7; stroke-width: 0.48"/>
     <use xlink:href="#m933f41cf08" x="244.770191" y="240.784" style="fill: #1f77b4; fill-opacity: 0.7; stroke: #ffffff; stroke-opacity: 0.7; stroke-width: 0.48"/>
     <use xlink:href="#m933f41cf08" x="263.705499" y="216.568421" style="fill: #1f77b4; fill-opacity: 0.7; stroke: #ffffff; stroke-opacity: 0.7; stroke-width: 0.48"/>
     <use xlink:href="#m933f41cf08" x="187.964267" y="285.755789" style="fill: #1f77b4; fill-opacity: 0.7; stroke: #ffffff; stroke-opacity: 0.7; stroke-width: 0.48"/>
     <use xlink:href="#m933f41cf08" x="225.834883" y="244.435556" style="fill: #1f77b4; fill-opacity: 0.7; stroke: #ffffff; stroke-opacity: 0.7; stroke-width: 0.48"/>
     <use xlink:href="#m933f41cf08" x="206.899575" y="278.342857" style="fill: #1f77b4; fill-opacity: 0.7; stroke: #ffffff; stroke-opacity: 0.7; stroke-width: 0.48"/>
     <use xlink:href="#m933f41cf08" x="187.964267" y="254.868571" style="fill: #1f77b4; fill-opacity: 0.7; stroke: #ffffff; stroke-opacity: 0.7; stroke-width: 0.48"/>
     <use xlink:href="#m933f41cf08" x="320.511422" y="265.654054" style="fill: #1f77b4; fill-opacity: 0.7; stroke: #ffffff; stroke-opacity: 0.7; stroke-width: 0.48"/>
     <use xlink:href="#m933f41cf08" x="415.187962" y="157.36" style="fill: #1f77b4; fill-opacity: 0.7; stroke: #ffffff; stroke-opacity: 0.7; stroke-width: 0.48"/>
     <use xlink:href="#m933f41cf08" x="150.093651" y="43.6" style="fill: #1f77b4; fill-opacity: 0.7; stroke: #ffffff; stroke-opacity: 0.7; stroke-width: 0.48"/>
     <use xlink:href="#m933f41cf08" x="282.640806" y="222.858182" style="fill: #1f77b4; fill-opacity: 0.7; stroke: #ffffff; stroke-opacity: 0.7; stroke-width: 0.48"/>
     <use xlink:href="#m933f41cf08" x="301.576114" y="255.625806" style="fill: #1f77b4; fill-opacity: 0.7; stroke: #ffffff; stroke-opacity: 0.7; stroke-width: 0.48"/>
     <use xlink:href="#m933f41cf08" x="301.576114" y="221.613333" style="fill: #1f77b4; fill-opacity: 0.7; stroke: #ffffff; stroke-opacity: 0.7; stroke-width: 0.48"/>
     <use xlink:href="#m933f41cf08" x="263.705499" y="287.732571" style="fill: #1f77b4; fill-opacity: 0.7; stroke: #ffffff; stroke-opacity: 0.7; stroke-width: 0.48"/>
     <use xlink:href="#m933f41cf08" x="169.028959" y="326.910345" style="fill: #1f77b4; fill-opacity: 0.7; stroke: #ffffff; stroke-opacity: 0.7; stroke-width: 0.48"/>
     <use xlink:href="#m933f41cf08" x="453.058578" y="247.3568" style="fill: #1f77b4; fill-opacity: 0.7; stroke: #ffffff; stroke-opacity: 0.7; stroke-width: 0.48"/>
     <use xlink:href="#m933f41cf08" x="150.093651" y="262.693333" style="fill: #1f77b4; fill-opacity: 0.7; stroke: #ffffff; stroke-opacity: 0.7; stroke-width: 0.48"/>
     <use xlink:href="#m933f41cf08" x="358.382038" y="244.435556" style="fill: #1f77b4; fill-opacity: 0.7; stroke: #ffffff; stroke-opacity: 0.7; stroke-width: 0.48"/>
     <use xlink:href="#m933f41cf08" x="244.770191" y="184.445714" style="fill: #1f77b4; fill-opacity: 0.7; stroke: #ffffff; stroke-opacity: 0.7; stroke-width: 0.48"/>
     <use xlink:href="#m933f41cf08" x="263.705499" y="273.648" style="fill: #1f77b4; fill-opacity: 0.7; stroke: #ffffff; stroke-opacity: 0.7; stroke-width: 0.48"/>
     <use xlink:href="#m933f41cf08" x="415.187962" y="192.018065" style="fill: #1f77b4; fill-opacity: 0.7; stroke: #ffffff; stroke-opacity: 0.7; stroke-width: 0.48"/>
     <use xlink:href="#m933f41cf08" x="187.964267" y="319.233548" style="fill: #1f77b4; fill-opacity: 0.7; stroke: #ffffff; stroke-opacity: 0.7; stroke-width: 0.48"/>
     <use xlink:href="#m933f41cf08" x="187.964267" y="280.951111" style="fill: #1f77b4; fill-opacity: 0.7; stroke: #ffffff; stroke-opacity: 0.7; stroke-width: 0.48"/>
     <use xlink:href="#m933f41cf08" x="339.44673" y="285.049796" style="fill: #1f77b4; fill-opacity: 0.7; stroke: #ffffff; stroke-opacity: 0.7; stroke-width: 0.48"/>
     <use xlink:href="#m933f41cf08" x="358.382038" y="228.46" style="fill: #1f77b4; fill-opacity: 0.7; stroke: #ffffff; stroke-opacity: 0.7; stroke-width: 0.48"/>
     <use xlink:href="#m933f41cf08" x="377.317346" y="242.513684" style="fill: #1f77b4; fill-opacity: 0.7; stroke: #ffffff; stroke-opacity: 0.7; stroke-width: 0.48"/>
     <use xlink:href="#m933f41cf08" x="301.576114" y="146.3" style="fill: #1f77b4; fill-opacity: 0.7; stroke: #ffffff; stroke-opacity: 0.7; stroke-width: 0.48"/>
     <use xlink:href="#m933f41cf08" x="169.028959" y="278.342857" style="fill: #1f77b4; fill-opacity: 0.7; stroke: #ffffff; stroke-opacity: 0.7; stroke-width: 0.48"/>
     <use xlink:href="#m933f41cf08" x="206.899575" y="310.62" style="fill: #1f77b4; fill-opacity: 0.7; stroke: #ffffff; stroke-opacity: 0.7; stroke-width: 0.48"/>
     <use xlink:href="#m933f41cf08" x="150.093651" y="262.693333" style="fill: #1f77b4; fill-opacity: 0.7; stroke: #ffffff; stroke-opacity: 0.7; stroke-width: 0.48"/>
     <use xlink:href="#m933f41cf08" x="320.511422" y="252.734545" style="fill: #1f77b4; fill-opacity: 0.7; stroke: #ffffff; stroke-opacity: 0.7; stroke-width: 0.48"/>
     <use xlink:href="#m933f41cf08" x="206.899575" y="249" style="fill: #1f77b4; fill-opacity: 0.7; stroke: #ffffff; stroke-opacity: 0.7; stroke-width: 0.48"/>
     <use xlink:href="#m933f41cf08" x="187.964267" y="254.868571" style="fill: #1f77b4; fill-opacity: 0.7; stroke: #ffffff; stroke-opacity: 0.7; stroke-width: 0.48"/>
     <use xlink:href="#m933f41cf08" x="244.770191" y="240.784" style="fill: #1f77b4; fill-opacity: 0.7; stroke: #ffffff; stroke-opacity: 0.7; stroke-width: 0.48"/>
     <use xlink:href="#m933f41cf08" x="244.770191" y="274.865185" style="fill: #1f77b4; fill-opacity: 0.7; stroke: #ffffff; stroke-opacity: 0.7; stroke-width: 0.48"/>
     <use xlink:href="#m933f41cf08" x="244.770191" y="252.734545" style="fill: #1f77b4; fill-opacity: 0.7; stroke: #ffffff; stroke-opacity: 0.7; stroke-width: 0.48"/>
     <use xlink:href="#m933f41cf08" x="339.44673" y="186.486957" style="fill: #1f77b4; fill-opacity: 0.7; stroke: #ffffff; stroke-opacity: 0.7; stroke-width: 0.48"/>
     <use xlink:href="#m933f41cf08" x="206.899575" y="268.458947" style="fill: #1f77b4; fill-opacity: 0.7; stroke: #ffffff; stroke-opacity: 0.7; stroke-width: 0.48"/>
     <use xlink:href="#m933f41cf08" x="358.382038" y="232.81697" style="fill: #1f77b4; fill-opacity: 0.7; stroke: #ffffff; stroke-opacity: 0.7; stroke-width: 0.48"/>
     <use xlink:href="#m933f41cf08" x="623.476349" y="207.92" style="fill: #1f77b4; fill-opacity: 0.7; stroke: #ffffff; stroke-opacity: 0.7; stroke-width: 0.48"/>
     <use xlink:href="#m933f41cf08" x="320.511422" y="109.328" style="fill: #1f77b4; fill-opacity: 0.7; stroke: #ffffff; stroke-opacity: 0.7; stroke-width: 0.48"/>
    </g>
   </g>
   <g id="FillBetweenPolyCollection_1">
    <path d="M 93.287727 223.66101 
L 93.287727 267.63383 
L 99.216965 266.290473 
L 105.146203 264.943608 
L 111.075441 263.663759 
L 117.004679 262.357944 
L 122.933916 261.077614 
L 128.863154 259.859652 
L 134.792392 258.594218 
L 140.72163 257.328785 
L 146.650868 256.063351 
L 152.580106 254.792288 
L 158.509343 253.489542 
L 164.438581 252.115301 
L 170.367819 250.83497 
L 176.297057 249.573315 
L 182.226295 248.3853 
L 188.155533 247.00208 
L 194.08477 245.843059 
L 200.014008 244.645799 
L 205.943246 243.381197 
L 211.872484 242.137493 
L 217.801722 241.058814 
L 223.73096 239.940449 
L 229.660197 238.79507 
L 235.589435 237.725828 
L 241.518673 236.619238 
L 247.447911 235.447572 
L 253.377149 234.260596 
L 259.306387 233.233159 
L 265.235624 232.031601 
L 271.164862 231.063464 
L 277.0941 230.013122 
L 283.023338 228.86617 
L 288.952576 227.746457 
L 294.881814 226.614527 
L 300.811051 225.586641 
L 306.740289 224.677915 
L 312.669527 223.728088 
L 318.598765 222.657895 
L 324.528003 221.538194 
L 330.457241 220.592079 
L 336.386478 219.632622 
L 342.315716 218.712678 
L 348.244954 217.937732 
L 354.174192 216.938302 
L 360.10343 216.171374 
L 366.032668 215.449746 
L 371.961905 214.76748 
L 377.891143 213.99523 
L 383.820381 213.147905 
L 389.749619 212.429628 
L 395.678857 211.540125 
L 401.608095 210.918834 
L 407.537332 210.270147 
L 413.46657 209.672928 
L 419.395808 208.92425 
L 425.325046 208.290636 
L 431.254284 207.53933 
L 437.183522 207.016206 
L 443.112759 206.351204 
L 449.041997 205.816861 
L 454.971235 205.184711 
L 460.900473 204.524848 
L 466.829711 203.91478 
L 472.758949 203.534903 
L 478.688186 203.074048 
L 484.617424 202.57728 
L 490.546662 202.073665 
L 496.4759 201.540017 
L 502.405138 201.085283 
L 508.334376 200.590079 
L 514.263613 200.094874 
L 520.192851 199.598139 
L 526.122089 199.241321 
L 532.051327 198.678852 
L 537.980565 198.113781 
L 543.909803 197.634644 
L 549.83904 197.205676 
L 555.768278 196.89747 
L 561.697516 196.54147 
L 567.626754 196.014393 
L 573.555992 195.572913 
L 579.48523 195.258194 
L 585.414467 194.984732 
L 591.343705 194.727947 
L 597.272943 194.223918 
L 603.202181 193.685802 
L 609.131419 193.227254 
L 615.060657 192.866853 
L 620.989894 192.504928 
L 626.919132 192.140614 
L 632.84837 191.776246 
L 638.777608 191.403562 
L 644.706846 191.052199 
L 650.636084 190.692808 
L 656.565321 190.331667 
L 662.494559 189.899328 
L 668.423797 189.404229 
L 674.353035 188.9088 
L 680.282273 188.412471 
L 680.282273 133.561049 
L 680.282273 133.561049 
L 674.353035 134.844595 
L 668.423797 136.128141 
L 662.494559 137.476011 
L 656.565321 138.905773 
L 650.636084 140.335535 
L 644.706846 141.681638 
L 638.777608 142.979256 
L 632.84837 144.276873 
L 626.919132 145.574491 
L 620.989894 146.873547 
L 615.060657 148.100011 
L 609.131419 149.229896 
L 603.202181 150.451588 
L 597.272943 151.789116 
L 591.343705 153.130404 
L 585.414467 154.471692 
L 579.48523 155.81298 
L 573.555992 157.097763 
L 567.626754 158.349408 
L 561.697516 159.601053 
L 555.768278 160.855028 
L 549.83904 162.111839 
L 543.909803 163.476376 
L 537.980565 164.707957 
L 532.051327 165.941315 
L 526.122089 167.297154 
L 520.192851 168.656278 
L 514.263613 170.017255 
L 508.334376 171.380761 
L 502.405138 172.744268 
L 496.4759 173.927358 
L 490.546662 175.327866 
L 484.617424 176.515522 
L 478.688186 177.775008 
L 472.758949 179.124405 
L 466.829711 180.459017 
L 460.900473 181.826349 
L 454.971235 183.134616 
L 449.041997 184.36454 
L 443.112759 185.603978 
L 437.183522 186.897536 
L 431.254284 188.223437 
L 425.325046 189.326203 
L 419.395808 190.475737 
L 413.46657 191.696551 
L 407.537332 192.857644 
L 401.608095 193.93545 
L 395.678857 195.083106 
L 389.749619 196.010157 
L 383.820381 196.886241 
L 377.891143 197.993936 
L 371.961905 198.899506 
L 366.032668 199.641964 
L 360.10343 200.617588 
L 354.174192 201.51731 
L 348.244954 202.577978 
L 342.315716 203.548504 
L 336.386478 204.373006 
L 330.457241 205.089833 
L 324.528003 205.770664 
L 318.598765 206.347815 
L 312.669527 207.135145 
L 306.740289 207.896376 
L 300.811051 208.50024 
L 294.881814 209.047553 
L 288.952576 209.599389 
L 283.023338 210.262623 
L 277.0941 210.94134 
L 271.164862 211.393777 
L 265.235624 211.792127 
L 259.306387 212.099905 
L 253.377149 212.419029 
L 247.447911 213.230119 
L 241.518673 213.628679 
L 235.589435 213.987229 
L 229.660197 214.416519 
L 223.73096 214.808033 
L 217.801722 215.205672 
L 211.872484 215.605364 
L 205.943246 216.115905 
L 200.014008 216.587628 
L 194.08477 216.904369 
L 188.155533 217.221739 
L 182.226295 217.781193 
L 176.297057 218.351383 
L 170.367819 218.921882 
L 164.438581 219.493541 
L 158.509343 220.009362 
L 152.580106 220.325349 
L 146.650868 220.641337 
L 140.72163 220.957324 
L 134.792392 221.273312 
L 128.863154 221.5893 
L 122.933916 222.008658 
L 117.004679 222.458658 
L 111.075441 222.769848 
L 105.146203 223.065926 
L 99.216965 223.362004 
L 93.287727 223.66101 
z
" clip-path="url(#p66af92c32f)" style="fill: #808080; fill-opacity: 0.15"/>
   </g>
   <g id="FillBetweenPolyCollection_2">
    <path d="M 93.287727 223.400789 
L 93.287727 267.021844 
L 99.216965 265.812502 
L 105.146203 264.602868 
L 111.075441 263.392907 
L 117.004679 262.182946 
L 122.933916 260.955041 
L 128.863154 259.515332 
L 134.792392 258.102005 
L 140.72163 256.9259 
L 146.650868 255.749508 
L 152.580106 254.561551 
L 158.509343 253.224531 
L 164.438581 252.045967 
L 170.367819 250.873759 
L 176.297057 249.524714 
L 182.226295 248.240496 
L 188.155533 246.815918 
L 194.08477 245.5823 
L 200.014008 244.344514 
L 205.943246 243.232473 
L 211.872484 242.052943 
L 217.801722 240.834872 
L 223.73096 239.798667 
L 229.660197 238.662732 
L 235.589435 237.503497 
L 241.518673 236.344599 
L 247.447911 235.188888 
L 253.377149 234.031468 
L 259.306387 233.07817 
L 265.235624 231.912233 
L 271.164862 230.744879 
L 277.0941 229.578726 
L 283.023338 228.448808 
L 288.952576 227.423882 
L 294.881814 226.327731 
L 300.811051 225.235402 
L 306.740289 224.291374 
L 312.669527 223.238334 
L 318.598765 222.279812 
L 324.528003 221.410212 
L 330.457241 220.403526 
L 336.386478 219.663246 
L 342.315716 218.833472 
L 348.244954 218.104075 
L 354.174192 217.119688 
L 360.10343 216.280553 
L 366.032668 215.2631 
L 371.961905 214.53219 
L 377.891143 213.77214 
L 383.820381 213.076644 
L 389.749619 212.473621 
L 395.678857 211.719969 
L 401.608095 211.062163 
L 407.537332 210.325617 
L 413.46657 209.591055 
L 419.395808 208.977514 
L 425.325046 208.325203 
L 431.254284 207.770012 
L 437.183522 207.216392 
L 443.112759 206.65415 
L 449.041997 205.975162 
L 454.971235 205.44 
L 460.900473 204.745371 
L 466.829711 204.230253 
L 472.758949 203.755562 
L 478.688186 203.32016 
L 484.617424 202.801319 
L 490.546662 202.324985 
L 496.4759 201.852428 
L 502.405138 201.340841 
L 508.334376 200.90535 
L 514.263613 200.724373 
L 520.192851 200.514277 
L 526.122089 200.23695 
L 532.051327 199.959047 
L 537.980565 199.300122 
L 543.909803 198.626074 
L 549.83904 198.087913 
L 555.768278 197.449954 
L 561.697516 197.018882 
L 567.626754 196.58781 
L 573.555992 196.153166 
L 579.48523 195.769517 
L 585.414467 195.5336 
L 591.343705 195.053443 
L 597.272943 194.548017 
L 603.202181 194.03749 
L 609.131419 193.648732 
L 615.060657 193.266845 
L 620.989894 192.884957 
L 626.919132 192.501865 
L 632.84837 192.117791 
L 638.777608 191.735413 
L 644.706846 191.357408 
L 650.636084 190.97552 
L 656.565321 190.546509 
L 662.494559 190.09315 
L 668.423797 189.63979 
L 674.353035 189.298438 
L 680.282273 189.005843 
L 680.282273 136.95842 
L 680.282273 136.95842 
L 674.353035 138.203275 
L 668.423797 139.456855 
L 662.494559 140.710435 
L 656.565321 141.964016 
L 650.636084 143.217596 
L 644.706846 144.471176 
L 638.777608 145.724757 
L 632.84837 146.970116 
L 626.919132 148.208399 
L 620.989894 149.446682 
L 615.060657 150.685545 
L 609.131419 151.925738 
L 603.202181 153.165932 
L 597.272943 154.314385 
L 591.343705 155.400442 
L 585.414467 156.657253 
L 579.48523 157.993987 
L 573.555992 159.089495 
L 567.626754 160.284766 
L 561.697516 161.487601 
L 555.768278 162.599399 
L 549.83904 163.876267 
L 543.909803 165.107907 
L 537.980565 166.368755 
L 532.051327 167.635304 
L 526.122089 168.87551 
L 520.192851 170.160435 
L 514.263613 171.394902 
L 508.334376 172.386553 
L 502.405138 173.386599 
L 496.4759 174.683518 
L 490.546662 176.055674 
L 484.617424 177.10847 
L 478.688186 178.158831 
L 472.758949 179.202734 
L 466.829711 180.353267 
L 460.900473 181.66953 
L 454.971235 182.985794 
L 449.041997 184.141352 
L 443.112759 185.502369 
L 437.183522 186.934585 
L 431.254284 188.110417 
L 425.325046 189.217704 
L 419.395808 190.32499 
L 413.46657 191.428858 
L 407.537332 192.438773 
L 401.608095 193.585182 
L 395.678857 194.594093 
L 389.749619 195.559482 
L 383.820381 196.713337 
L 377.891143 197.756114 
L 371.961905 198.721576 
L 366.032668 199.61466 
L 360.10343 200.426909 
L 354.174192 201.287064 
L 348.244954 202.166431 
L 342.315716 203.05201 
L 336.386478 203.781664 
L 330.457241 204.567964 
L 324.528003 205.349329 
L 318.598765 205.884045 
L 312.669527 206.569771 
L 306.740289 207.294381 
L 300.811051 207.942407 
L 294.881814 208.513038 
L 288.952576 209.027433 
L 283.023338 209.48786 
L 277.0941 210.116266 
L 271.164862 210.4487 
L 265.235624 211.04881 
L 259.306387 211.749704 
L 253.377149 212.317673 
L 247.447911 212.911633 
L 241.518673 213.266498 
L 235.589435 213.718861 
L 229.660197 214.037774 
L 223.73096 214.31574 
L 217.801722 214.59871 
L 211.872484 215.204006 
L 205.943246 215.73853 
L 200.014008 216.139283 
L 194.08477 216.540035 
L 188.155533 216.940788 
L 182.226295 217.34154 
L 176.297057 217.742631 
L 170.367819 218.147901 
L 164.438581 218.553807 
L 158.509343 218.959712 
L 152.580106 219.365618 
L 146.650868 219.771524 
L 140.72163 220.155119 
L 134.792392 220.459572 
L 128.863154 220.800727 
L 122.933916 221.1416 
L 117.004679 221.5092 
L 111.075441 221.981683 
L 105.146203 222.454327 
L 99.216965 222.927558 
L 93.287727 223.400789 
z
" clip-path="url(#p66af92c32f)" style="fill: #808080; fill-opacity: 0.15"/>
   </g>
   <g id="matplotlib.axis_1">
    <g id="xtick_1">
     <g id="line2d_1">
      <defs>
       <path id="mb1c300260d" d="M 0 0 
L 0 3.5 
" style="stroke: #000000; stroke-width: 0.8"/>
      </defs>
      <g>
       <use xlink:href="#mb1c300260d" x="93.287727" y="388.672" style="stroke: #000000; stroke-width: 0.8"/>
      </g>
     </g>
     <g id="text_1">
      <!-- 0 -->
      <g transform="translate(90.106477 403.270437) scale(0.1 -0.1)">
       <defs>
        <path id="DejaVuSans-30" d="M 2034 4250 
Q 1547 4250 1301 3770 
Q 1056 3291 1056 2328 
Q 1056 1369 1301 889 
Q 1547 409 2034 409 
Q 2525 409 2770 889 
Q 3016 1369 3016 2328 
Q 3016 3291 2770 3770 
Q 2525 4250 2034 4250 
z
M 2034 4750 
Q 2819 4750 3233 4129 
Q 3647 3509 3647 2328 
Q 3647 1150 3233 529 
Q 2819 -91 2034 -91 
Q 1250 -91 836 529 
Q 422 1150 422 2328 
Q 422 3509 836 4129 
Q 1250 4750 2034 4750 
z
" transform="scale(0.015625)"/>
       </defs>
       <use xlink:href="#DejaVuSans-30"/>
      </g>
     </g>
    </g>
    <g id="xtick_2">
     <g id="line2d_2">
      <g>
       <use xlink:href="#mb1c300260d" x="187.964267" y="388.672" style="stroke: #000000; stroke-width: 0.8"/>
      </g>
     </g>
     <g id="text_2">
      <!-- 5 -->
      <g transform="translate(184.783017 403.270437) scale(0.1 -0.1)">
       <defs>
        <path id="DejaVuSans-35" d="M 691 4666 
L 3169 4666 
L 3169 4134 
L 1269 4134 
L 1269 2991 
Q 1406 3038 1543 3061 
Q 1681 3084 1819 3084 
Q 2600 3084 3056 2656 
Q 3513 2228 3513 1497 
Q 3513 744 3044 326 
Q 2575 -91 1722 -91 
Q 1428 -91 1123 -41 
Q 819 9 494 109 
L 494 744 
Q 775 591 1075 516 
Q 1375 441 1709 441 
Q 2250 441 2565 725 
Q 2881 1009 2881 1497 
Q 2881 1984 2565 2268 
Q 2250 2553 1709 2553 
Q 1456 2553 1204 2497 
Q 953 2441 691 2322 
L 691 4666 
z
" transform="scale(0.015625)"/>
       </defs>
       <use xlink:href="#DejaVuSans-35"/>
      </g>
     </g>
    </g>
    <g id="xtick_3">
     <g id="line2d_3">
      <g>
       <use xlink:href="#mb1c300260d" x="282.640806" y="388.672" style="stroke: #000000; stroke-width: 0.8"/>
      </g>
     </g>
     <g id="text_3">
      <!-- 10 -->
      <g transform="translate(276.278306 403.270437) scale(0.1 -0.1)">
       <defs>
        <path id="DejaVuSans-31" d="M 794 531 
L 1825 531 
L 1825 4091 
L 703 3866 
L 703 4441 
L 1819 4666 
L 2450 4666 
L 2450 531 
L 3481 531 
L 3481 0 
L 794 0 
L 794 531 
z
" transform="scale(0.015625)"/>
       </defs>
       <use xlink:href="#DejaVuSans-31"/>
       <use xlink:href="#DejaVuSans-30" transform="translate(63.623047 0)"/>
      </g>
     </g>
    </g>
    <g id="xtick_4">
     <g id="line2d_4">
      <g>
       <use xlink:href="#mb1c300260d" x="377.317346" y="388.672" style="stroke: #000000; stroke-width: 0.8"/>
      </g>
     </g>
     <g id="text_4">
      <!-- 15 -->
      <g transform="translate(370.954846 403.270437) scale(0.1 -0.1)">
       <use xlink:href="#DejaVuSans-31"/>
       <use xlink:href="#DejaVuSans-35" transform="translate(63.623047 0)"/>
      </g>
     </g>
    </g>
    <g id="xtick_5">
     <g id="line2d_5">
      <g>
       <use xlink:href="#mb1c300260d" x="471.993886" y="388.672" style="stroke: #000000; stroke-width: 0.8"/>
      </g>
     </g>
     <g id="text_5">
      <!-- 20 -->
      <g transform="translate(465.631386 403.270437) scale(0.1 -0.1)">
       <defs>
        <path id="DejaVuSans-32" d="M 1228 531 
L 3431 531 
L 3431 0 
L 469 0 
L 469 531 
Q 828 903 1448 1529 
Q 2069 2156 2228 2338 
Q 2531 2678 2651 2914 
Q 2772 3150 2772 3378 
Q 2772 3750 2511 3984 
Q 2250 4219 1831 4219 
Q 1534 4219 1204 4116 
Q 875 4013 500 3803 
L 500 4441 
Q 881 4594 1212 4672 
Q 1544 4750 1819 4750 
Q 2544 4750 2975 4387 
Q 3406 4025 3406 3419 
Q 3406 3131 3298 2873 
Q 3191 2616 2906 2266 
Q 2828 2175 2409 1742 
Q 1991 1309 1228 531 
z
" transform="scale(0.015625)"/>
       </defs>
       <use xlink:href="#DejaVuSans-32"/>
       <use xlink:href="#DejaVuSans-30" transform="translate(63.623047 0)"/>
      </g>
     </g>
    </g>
    <g id="xtick_6">
     <g id="line2d_6">
      <g>
       <use xlink:href="#mb1c300260d" x="566.670425" y="388.672" style="stroke: #000000; stroke-width: 0.8"/>
      </g>
     </g>
     <g id="text_6">
      <!-- 25 -->
      <g transform="translate(560.307925 403.270437) scale(0.1 -0.1)">
       <use xlink:href="#DejaVuSans-32"/>
       <use xlink:href="#DejaVuSans-35" transform="translate(63.623047 0)"/>
      </g>
     </g>
    </g>
    <g id="xtick_7">
     <g id="line2d_7">
      <g>
       <use xlink:href="#mb1c300260d" x="661.346965" y="388.672" style="stroke: #000000; stroke-width: 0.8"/>
      </g>
     </g>
     <g id="text_7">
      <!-- 30 -->
      <g transform="translate(654.984465 403.270437) scale(0.1 -0.1)">
       <defs>
        <path id="DejaVuSans-33" d="M 2597 2516 
Q 3050 2419 3304 2112 
Q 3559 1806 3559 1356 
Q 3559 666 3084 287 
Q 2609 -91 1734 -91 
Q 1441 -91 1130 -33 
Q 819 25 488 141 
L 488 750 
Q 750 597 1062 519 
Q 1375 441 1716 441 
Q 2309 441 2620 675 
Q 2931 909 2931 1356 
Q 2931 1769 2642 2001 
Q 2353 2234 1838 2234 
L 1294 2234 
L 1294 2753 
L 1863 2753 
Q 2328 2753 2575 2939 
Q 2822 3125 2822 3475 
Q 2822 3834 2567 4026 
Q 2313 4219 1838 4219 
Q 1578 4219 1281 4162 
Q 984 4106 628 3988 
L 628 4550 
Q 988 4650 1302 4700 
Q 1616 4750 1894 4750 
Q 2613 4750 3031 4423 
Q 3450 4097 3450 3541 
Q 3450 3153 3228 2886 
Q 3006 2619 2597 2516 
z
" transform="scale(0.015625)"/>
       </defs>
       <use xlink:href="#DejaVuSans-33"/>
       <use xlink:href="#DejaVuSans-30" transform="translate(63.623047 0)"/>
      </g>
     </g>
    </g>
    <g id="text_8">
     <!-- BDI Pre Score -->
     <g transform="translate(346.125625 418.46825) scale(0.12 -0.12)">
      <defs>
       <path id="DejaVuSans-42" d="M 1259 2228 
L 1259 519 
L 2272 519 
Q 2781 519 3026 730 
Q 3272 941 3272 1375 
Q 3272 1813 3026 2020 
Q 2781 2228 2272 2228 
L 1259 2228 
z
M 1259 4147 
L 1259 2741 
L 2194 2741 
Q 2656 2741 2882 2914 
Q 3109 3088 3109 3444 
Q 3109 3797 2882 3972 
Q 2656 4147 2194 4147 
L 1259 4147 
z
M 628 4666 
L 2241 4666 
Q 2963 4666 3353 4366 
Q 3744 4066 3744 3513 
Q 3744 3084 3544 2831 
Q 3344 2578 2956 2516 
Q 3422 2416 3680 2098 
Q 3938 1781 3938 1306 
Q 3938 681 3513 340 
Q 3088 0 2303 0 
L 628 0 
L 628 4666 
z
" transform="scale(0.015625)"/>
       <path id="DejaVuSans-44" d="M 1259 4147 
L 1259 519 
L 2022 519 
Q 2988 519 3436 956 
Q 3884 1394 3884 2338 
Q 3884 3275 3436 3711 
Q 2988 4147 2022 4147 
L 1259 4147 
z
M 628 4666 
L 1925 4666 
Q 3281 4666 3915 4102 
Q 4550 3538 4550 2338 
Q 4550 1131 3912 565 
Q 3275 0 1925 0 
L 628 0 
L 628 4666 
z
" transform="scale(0.015625)"/>
       <path id="DejaVuSans-49" d="M 628 4666 
L 1259 4666 
L 1259 0 
L 628 0 
L 628 4666 
z
" transform="scale(0.015625)"/>
       <path id="DejaVuSans-20" transform="scale(0.015625)"/>
       <path id="DejaVuSans-50" d="M 1259 4147 
L 1259 2394 
L 2053 2394 
Q 2494 2394 2734 2622 
Q 2975 2850 2975 3272 
Q 2975 3691 2734 3919 
Q 2494 4147 2053 4147 
L 1259 4147 
z
M 628 4666 
L 2053 4666 
Q 2838 4666 3239 4311 
Q 3641 3956 3641 3272 
Q 3641 2581 3239 2228 
Q 2838 1875 2053 1875 
L 1259 1875 
L 1259 0 
L 628 0 
L 628 4666 
z
" transform="scale(0.015625)"/>
       <path id="DejaVuSans-72" d="M 2631 2963 
Q 2534 3019 2420 3045 
Q 2306 3072 2169 3072 
Q 1681 3072 1420 2755 
Q 1159 2438 1159 1844 
L 1159 0 
L 581 0 
L 581 3500 
L 1159 3500 
L 1159 2956 
Q 1341 3275 1631 3429 
Q 1922 3584 2338 3584 
Q 2397 3584 2469 3576 
Q 2541 3569 2628 3553 
L 2631 2963 
z
" transform="scale(0.015625)"/>
       <path id="DejaVuSans-65" d="M 3597 1894 
L 3597 1613 
L 953 1613 
Q 991 1019 1311 708 
Q 1631 397 2203 397 
Q 2534 397 2845 478 
Q 3156 559 3463 722 
L 3463 178 
Q 3153 47 2828 -22 
Q 2503 -91 2169 -91 
Q 1331 -91 842 396 
Q 353 884 353 1716 
Q 353 2575 817 3079 
Q 1281 3584 2069 3584 
Q 2775 3584 3186 3129 
Q 3597 2675 3597 1894 
z
M 3022 2063 
Q 3016 2534 2758 2815 
Q 2500 3097 2075 3097 
Q 1594 3097 1305 2825 
Q 1016 2553 972 2059 
L 3022 2063 
z
" transform="scale(0.015625)"/>
       <path id="DejaVuSans-53" d="M 3425 4513 
L 3425 3897 
Q 3066 4069 2747 4153 
Q 2428 4238 2131 4238 
Q 1616 4238 1336 4038 
Q 1056 3838 1056 3469 
Q 1056 3159 1242 3001 
Q 1428 2844 1947 2747 
L 2328 2669 
Q 3034 2534 3370 2195 
Q 3706 1856 3706 1288 
Q 3706 609 3251 259 
Q 2797 -91 1919 -91 
Q 1588 -91 1214 -16 
Q 841 59 441 206 
L 441 856 
Q 825 641 1194 531 
Q 1563 422 1919 422 
Q 2459 422 2753 634 
Q 3047 847 3047 1241 
Q 3047 1584 2836 1778 
Q 2625 1972 2144 2069 
L 1759 2144 
Q 1053 2284 737 2584 
Q 422 2884 422 3419 
Q 422 4038 858 4394 
Q 1294 4750 2059 4750 
Q 2388 4750 2728 4690 
Q 3069 4631 3425 4513 
z
" transform="scale(0.015625)"/>
       <path id="DejaVuSans-63" d="M 3122 3366 
L 3122 2828 
Q 2878 2963 2633 3030 
Q 2388 3097 2138 3097 
Q 1578 3097 1268 2742 
Q 959 2388 959 1747 
Q 959 1106 1268 751 
Q 1578 397 2138 397 
Q 2388 397 2633 464 
Q 2878 531 3122 666 
L 3122 134 
Q 2881 22 2623 -34 
Q 2366 -91 2075 -91 
Q 1284 -91 818 406 
Q 353 903 353 1747 
Q 353 2603 823 3093 
Q 1294 3584 2113 3584 
Q 2378 3584 2631 3529 
Q 2884 3475 3122 3366 
z
" transform="scale(0.015625)"/>
       <path id="DejaVuSans-6f" d="M 1959 3097 
Q 1497 3097 1228 2736 
Q 959 2375 959 1747 
Q 959 1119 1226 758 
Q 1494 397 1959 397 
Q 2419 397 2687 759 
Q 2956 1122 2956 1747 
Q 2956 2369 2687 2733 
Q 2419 3097 1959 3097 
z
M 1959 3584 
Q 2709 3584 3137 3096 
Q 3566 2609 3566 1747 
Q 3566 888 3137 398 
Q 2709 -91 1959 -91 
Q 1206 -91 779 398 
Q 353 888 353 1747 
Q 353 2609 779 3096 
Q 1206 3584 1959 3584 
z
" transform="scale(0.015625)"/>
      </defs>
      <use xlink:href="#DejaVuSans-42"/>
      <use xlink:href="#DejaVuSans-44" transform="translate(68.603516 0)"/>
      <use xlink:href="#DejaVuSans-49" transform="translate(145.605469 0)"/>
      <use xlink:href="#DejaVuSans-20" transform="translate(175.097656 0)"/>
      <use xlink:href="#DejaVuSans-50" transform="translate(206.884766 0)"/>
      <use xlink:href="#DejaVuSans-72" transform="translate(265.4375 0)"/>
      <use xlink:href="#DejaVuSans-65" transform="translate(304.300781 0)"/>
      <use xlink:href="#DejaVuSans-20" transform="translate(365.824219 0)"/>
      <use xlink:href="#DejaVuSans-53" transform="translate(397.611328 0)"/>
      <use xlink:href="#DejaVuSans-63" transform="translate(461.087891 0)"/>
      <use xlink:href="#DejaVuSans-6f" transform="translate(516.068359 0)"/>
      <use xlink:href="#DejaVuSans-72" transform="translate(577.25 0)"/>
      <use xlink:href="#DejaVuSans-65" transform="translate(616.113281 0)"/>
     </g>
    </g>
   </g>
   <g id="matplotlib.axis_2">
    <g id="ytick_1">
     <g id="line2d_8">
      <defs>
       <path id="m330a123069" d="M 0 0 
L -3.5 0 
" style="stroke: #000000; stroke-width: 0.8"/>
      </defs>
      <g>
       <use xlink:href="#m330a123069" x="63.938" y="372.24" style="stroke: #000000; stroke-width: 0.8"/>
      </g>
     </g>
     <g id="text_9">
      <!-- −1.00 -->
      <g transform="translate(26.292688 376.039219) scale(0.1 -0.1)">
       <defs>
        <path id="DejaVuSans-2212" d="M 678 2272 
L 4684 2272 
L 4684 1741 
L 678 1741 
L 678 2272 
z
" transform="scale(0.015625)"/>
        <path id="DejaVuSans-2e" d="M 684 794 
L 1344 794 
L 1344 0 
L 684 0 
L 684 794 
z
" transform="scale(0.015625)"/>
       </defs>
       <use xlink:href="#DejaVuSans-2212"/>
       <use xlink:href="#DejaVuSans-31" transform="translate(83.789062 0)"/>
       <use xlink:href="#DejaVuSans-2e" transform="translate(147.412109 0)"/>
       <use xlink:href="#DejaVuSans-30" transform="translate(179.199219 0)"/>
       <use xlink:href="#DejaVuSans-30" transform="translate(242.822266 0)"/>
      </g>
     </g>
    </g>
    <g id="ytick_2">
     <g id="line2d_9">
      <g>
       <use xlink:href="#m330a123069" x="63.938" y="331.16" style="stroke: #000000; stroke-width: 0.8"/>
      </g>
     </g>
     <g id="text_10">
      <!-- −0.75 -->
      <g transform="translate(26.292688 334.959219) scale(0.1 -0.1)">
       <defs>
        <path id="DejaVuSans-37" d="M 525 4666 
L 3525 4666 
L 3525 4397 
L 1831 0 
L 1172 0 
L 2766 4134 
L 525 4134 
L 525 4666 
z
" transform="scale(0.015625)"/>
       </defs>
       <use xlink:href="#DejaVuSans-2212"/>
       <use xlink:href="#DejaVuSans-30" transform="translate(83.789062 0)"/>
       <use xlink:href="#DejaVuSans-2e" transform="translate(147.412109 0)"/>
       <use xlink:href="#DejaVuSans-37" transform="translate(179.199219 0)"/>
       <use xlink:href="#DejaVuSans-35" transform="translate(242.822266 0)"/>
      </g>
     </g>
    </g>
    <g id="ytick_3">
     <g id="line2d_10">
      <g>
       <use xlink:href="#m330a123069" x="63.938" y="290.08" style="stroke: #000000; stroke-width: 0.8"/>
      </g>
     </g>
     <g id="text_11">
      <!-- −0.50 -->
      <g transform="translate(26.292688 293.879219) scale(0.1 -0.1)">
       <use xlink:href="#DejaVuSans-2212"/>
       <use xlink:href="#DejaVuSans-30" transform="translate(83.789062 0)"/>
       <use xlink:href="#DejaVuSans-2e" transform="translate(147.412109 0)"/>
       <use xlink:href="#DejaVuSans-35" transform="translate(179.199219 0)"/>
       <use xlink:href="#DejaVuSans-30" transform="translate(242.822266 0)"/>
      </g>
     </g>
    </g>
    <g id="ytick_4">
     <g id="line2d_11">
      <g>
       <use xlink:href="#m330a123069" x="63.938" y="249" style="stroke: #000000; stroke-width: 0.8"/>
      </g>
     </g>
     <g id="text_12">
      <!-- −0.25 -->
      <g transform="translate(26.292688 252.799219) scale(0.1 -0.1)">
       <use xlink:href="#DejaVuSans-2212"/>
       <use xlink:href="#DejaVuSans-30" transform="translate(83.789062 0)"/>
       <use xlink:href="#DejaVuSans-2e" transform="translate(147.412109 0)"/>
       <use xlink:href="#DejaVuSans-32" transform="translate(179.199219 0)"/>
       <use xlink:href="#DejaVuSans-35" transform="translate(242.822266 0)"/>
      </g>
     </g>
    </g>
    <g id="ytick_5">
     <g id="line2d_12">
      <g>
       <use xlink:href="#m330a123069" x="63.938" y="207.92" style="stroke: #000000; stroke-width: 0.8"/>
      </g>
     </g>
     <g id="text_13">
      <!-- 0.00 -->
      <g transform="translate(34.672375 211.719219) scale(0.1 -0.1)">
       <use xlink:href="#DejaVuSans-30"/>
       <use xlink:href="#DejaVuSans-2e" transform="translate(63.623047 0)"/>
       <use xlink:href="#DejaVuSans-30" transform="translate(95.410156 0)"/>
       <use xlink:href="#DejaVuSans-30" transform="translate(159.033203 0)"/>
      </g>
     </g>
    </g>
    <g id="ytick_6">
     <g id="line2d_13">
      <g>
       <use xlink:href="#m330a123069" x="63.938" y="166.84" style="stroke: #000000; stroke-width: 0.8"/>
      </g>
     </g>
     <g id="text_14">
      <!-- 0.25 -->
      <g transform="translate(34.672375 170.639219) scale(0.1 -0.1)">
       <use xlink:href="#DejaVuSans-30"/>
       <use xlink:href="#DejaVuSans-2e" transform="translate(63.623047 0)"/>
       <use xlink:href="#DejaVuSans-32" transform="translate(95.410156 0)"/>
       <use xlink:href="#DejaVuSans-35" transform="translate(159.033203 0)"/>
      </g>
     </g>
    </g>
    <g id="ytick_7">
     <g id="line2d_14">
      <g>
       <use xlink:href="#m330a123069" x="63.938" y="125.76" style="stroke: #000000; stroke-width: 0.8"/>
      </g>
     </g>
     <g id="text_15">
      <!-- 0.50 -->
      <g transform="translate(34.672375 129.559219) scale(0.1 -0.1)">
       <use xlink:href="#DejaVuSans-30"/>
       <use xlink:href="#DejaVuSans-2e" transform="translate(63.623047 0)"/>
       <use xlink:href="#DejaVuSans-35" transform="translate(95.410156 0)"/>
       <use xlink:href="#DejaVuSans-30" transform="translate(159.033203 0)"/>
      </g>
     </g>
    </g>
    <g id="ytick_8">
     <g id="line2d_15">
      <g>
       <use xlink:href="#m330a123069" x="63.938" y="84.68" style="stroke: #000000; stroke-width: 0.8"/>
      </g>
     </g>
     <g id="text_16">
      <!-- 0.75 -->
      <g transform="translate(34.672375 88.479219) scale(0.1 -0.1)">
       <use xlink:href="#DejaVuSans-30"/>
       <use xlink:href="#DejaVuSans-2e" transform="translate(63.623047 0)"/>
       <use xlink:href="#DejaVuSans-37" transform="translate(95.410156 0)"/>
       <use xlink:href="#DejaVuSans-35" transform="translate(159.033203 0)"/>
      </g>
     </g>
    </g>
    <g id="ytick_9">
     <g id="line2d_16">
      <g>
       <use xlink:href="#m330a123069" x="63.938" y="43.6" style="stroke: #000000; stroke-width: 0.8"/>
      </g>
     </g>
     <g id="text_17">
      <!-- 1.00 -->
      <g transform="translate(34.672375 47.399219) scale(0.1 -0.1)">
       <use xlink:href="#DejaVuSans-31"/>
       <use xlink:href="#DejaVuSans-2e" transform="translate(63.623047 0)"/>
       <use xlink:href="#DejaVuSans-30" transform="translate(95.410156 0)"/>
       <use xlink:href="#DejaVuSans-30" transform="translate(159.033203 0)"/>
      </g>
     </g>
    </g>
    <g id="text_18">
     <!-- BDI Ratio -->
     <g transform="translate(19.797063 235.734688) rotate(-90) scale(0.12 -0.12)">
      <defs>
       <path id="DejaVuSans-52" d="M 2841 2188 
Q 3044 2119 3236 1894 
Q 3428 1669 3622 1275 
L 4263 0 
L 3584 0 
L 2988 1197 
Q 2756 1666 2539 1819 
Q 2322 1972 1947 1972 
L 1259 1972 
L 1259 0 
L 628 0 
L 628 4666 
L 2053 4666 
Q 2853 4666 3247 4331 
Q 3641 3997 3641 3322 
Q 3641 2881 3436 2590 
Q 3231 2300 2841 2188 
z
M 1259 4147 
L 1259 2491 
L 2053 2491 
Q 2509 2491 2742 2702 
Q 2975 2913 2975 3322 
Q 2975 3731 2742 3939 
Q 2509 4147 2053 4147 
L 1259 4147 
z
" transform="scale(0.015625)"/>
       <path id="DejaVuSans-61" d="M 2194 1759 
Q 1497 1759 1228 1600 
Q 959 1441 959 1056 
Q 959 750 1161 570 
Q 1363 391 1709 391 
Q 2188 391 2477 730 
Q 2766 1069 2766 1631 
L 2766 1759 
L 2194 1759 
z
M 3341 1997 
L 3341 0 
L 2766 0 
L 2766 531 
Q 2569 213 2275 61 
Q 1981 -91 1556 -91 
Q 1019 -91 701 211 
Q 384 513 384 1019 
Q 384 1609 779 1909 
Q 1175 2209 1959 2209 
L 2766 2209 
L 2766 2266 
Q 2766 2663 2505 2880 
Q 2244 3097 1772 3097 
Q 1472 3097 1187 3025 
Q 903 2953 641 2809 
L 641 3341 
Q 956 3463 1253 3523 
Q 1550 3584 1831 3584 
Q 2591 3584 2966 3190 
Q 3341 2797 3341 1997 
z
" transform="scale(0.015625)"/>
       <path id="DejaVuSans-74" d="M 1172 4494 
L 1172 3500 
L 2356 3500 
L 2356 3053 
L 1172 3053 
L 1172 1153 
Q 1172 725 1289 603 
Q 1406 481 1766 481 
L 2356 481 
L 2356 0 
L 1766 0 
Q 1100 0 847 248 
Q 594 497 594 1153 
L 594 3053 
L 172 3053 
L 172 3500 
L 594 3500 
L 594 4494 
L 1172 4494 
z
" transform="scale(0.015625)"/>
       <path id="DejaVuSans-69" d="M 603 3500 
L 1178 3500 
L 1178 0 
L 603 0 
L 603 3500 
z
M 603 4863 
L 1178 4863 
L 1178 4134 
L 603 4134 
L 603 4863 
z
" transform="scale(0.015625)"/>
      </defs>
      <use xlink:href="#DejaVuSans-42"/>
      <use xlink:href="#DejaVuSans-44" transform="translate(68.603516 0)"/>
      <use xlink:href="#DejaVuSans-49" transform="translate(145.605469 0)"/>
      <use xlink:href="#DejaVuSans-20" transform="translate(175.097656 0)"/>
      <use xlink:href="#DejaVuSans-52" transform="translate(206.884766 0)"/>
      <use xlink:href="#DejaVuSans-61" transform="translate(274.117188 0)"/>
      <use xlink:href="#DejaVuSans-74" transform="translate(335.396484 0)"/>
      <use xlink:href="#DejaVuSans-69" transform="translate(374.605469 0)"/>
      <use xlink:href="#DejaVuSans-6f" transform="translate(402.388672 0)"/>
     </g>
    </g>
   </g>
   <g id="line2d_17">
    <path d="M 93.287727 247.160523 
L 99.216965 246.305546 
L 105.146203 245.450569 
L 111.075441 244.595593 
L 117.004679 243.740616 
L 122.933916 242.88564 
L 128.863154 242.030663 
L 134.792392 241.175686 
L 140.72163 240.32071 
L 146.650868 239.465733 
L 152.580106 238.610757 
L 158.509343 237.75578 
L 164.438581 236.900803 
L 170.367819 236.045827 
L 176.297057 235.19085 
L 182.226295 234.335873 
L 188.155533 233.480897 
L 194.08477 232.62592 
L 200.014008 231.770944 
L 205.943246 230.915967 
L 211.872484 230.06099 
L 217.801722 229.206014 
L 223.73096 228.351037 
L 229.660197 227.496061 
L 235.589435 226.641084 
L 241.518673 225.786107 
L 247.447911 224.931131 
L 253.377149 224.076154 
L 259.306387 223.221177 
L 265.235624 222.366201 
L 271.164862 221.511224 
L 277.0941 220.656248 
L 283.023338 219.801271 
L 288.952576 218.946294 
L 294.881814 218.091318 
L 300.811051 217.236341 
L 306.740289 216.381365 
L 312.669527 215.526388 
L 318.598765 214.671411 
L 324.528003 213.816435 
L 330.457241 212.961458 
L 336.386478 212.106482 
L 342.315716 211.251505 
L 348.244954 210.396528 
L 354.174192 209.541552 
L 360.10343 208.686575 
L 366.032668 207.831598 
L 371.961905 206.976622 
L 377.891143 206.121645 
L 383.820381 205.266669 
L 389.749619 204.411692 
L 395.678857 203.556715 
L 401.608095 202.701739 
L 407.537332 201.846762 
L 413.46657 200.991786 
L 419.395808 200.136809 
L 425.325046 199.281832 
L 431.254284 198.426856 
L 437.183522 197.571879 
L 443.112759 196.716902 
L 449.041997 195.861926 
L 454.971235 195.006949 
L 460.900473 194.151973 
L 466.829711 193.296996 
L 472.758949 192.442019 
L 478.688186 191.587043 
L 484.617424 190.732066 
L 490.546662 189.87709 
L 496.4759 189.022113 
L 502.405138 188.167136 
L 508.334376 187.31216 
L 514.263613 186.457183 
L 520.192851 185.602206 
L 526.122089 184.74723 
L 532.051327 183.892253 
L 537.980565 183.037277 
L 543.909803 182.1823 
L 549.83904 181.327323 
L 555.768278 180.472347 
L 561.697516 179.61737 
L 567.626754 178.762394 
L 573.555992 177.907417 
L 579.48523 177.05244 
L 585.414467 176.197464 
L 591.343705 175.342487 
L 597.272943 174.48751 
L 603.202181 173.632534 
L 609.131419 172.777557 
L 615.060657 171.922581 
L 620.989894 171.067604 
L 626.919132 170.212627 
L 632.84837 169.357651 
L 638.777608 168.502674 
L 644.706846 167.647698 
L 650.636084 166.792721 
L 656.565321 165.937744 
L 662.494559 165.082768 
L 668.423797 164.227791 
L 674.353035 163.372815 
L 680.282273 162.517838 
" clip-path="url(#p66af92c32f)" style="fill: none; stroke: #808080; stroke-width: 2.25; stroke-linecap: square"/>
   </g>
   <g id="line2d_18">
    <path d="M 93.287727 247.160523 
L 99.216965 246.305546 
L 105.146203 245.450569 
L 111.075441 244.595593 
L 117.004679 243.740616 
L 122.933916 242.88564 
L 128.863154 242.030663 
L 134.792392 241.175686 
L 140.72163 240.32071 
L 146.650868 239.465733 
L 152.580106 238.610757 
L 158.509343 237.75578 
L 164.438581 236.900803 
L 170.367819 236.045827 
L 176.297057 235.19085 
L 182.226295 234.335873 
L 188.155533 233.480897 
L 194.08477 232.62592 
L 200.014008 231.770944 
L 205.943246 230.915967 
L 211.872484 230.06099 
L 217.801722 229.206014 
L 223.73096 228.351037 
L 229.660197 227.496061 
L 235.589435 226.641084 
L 241.518673 225.786107 
L 247.447911 224.931131 
L 253.377149 224.076154 
L 259.306387 223.221177 
L 265.235624 222.366201 
L 271.164862 221.511224 
L 277.0941 220.656248 
L 283.023338 219.801271 
L 288.952576 218.946294 
L 294.881814 218.091318 
L 300.811051 217.236341 
L 306.740289 216.381365 
L 312.669527 215.526388 
L 318.598765 214.671411 
L 324.528003 213.816435 
L 330.457241 212.961458 
L 336.386478 212.106482 
L 342.315716 211.251505 
L 348.244954 210.396528 
L 354.174192 209.541552 
L 360.10343 208.686575 
L 366.032668 207.831598 
L 371.961905 206.976622 
L 377.891143 206.121645 
L 383.820381 205.266669 
L 389.749619 204.411692 
L 395.678857 203.556715 
L 401.608095 202.701739 
L 407.537332 201.846762 
L 413.46657 200.991786 
L 419.395808 200.136809 
L 425.325046 199.281832 
L 431.254284 198.426856 
L 437.183522 197.571879 
L 443.112759 196.716902 
L 449.041997 195.861926 
L 454.971235 195.006949 
L 460.900473 194.151973 
L 466.829711 193.296996 
L 472.758949 192.442019 
L 478.688186 191.587043 
L 484.617424 190.732066 
L 490.546662 189.87709 
L 496.4759 189.022113 
L 502.405138 188.167136 
L 508.334376 187.31216 
L 514.263613 186.457183 
L 520.192851 185.602206 
L 526.122089 184.74723 
L 532.051327 183.892253 
L 537.980565 183.037277 
L 543.909803 182.1823 
L 549.83904 181.327323 
L 555.768278 180.472347 
L 561.697516 179.61737 
L 567.626754 178.762394 
L 573.555992 177.907417 
L 579.48523 177.05244 
L 585.414467 176.197464 
L 591.343705 175.342487 
L 597.272943 174.48751 
L 603.202181 173.632534 
L 609.131419 172.777557 
L 615.060657 171.922581 
L 620.989894 171.067604 
L 626.919132 170.212627 
L 632.84837 169.357651 
L 638.777608 168.502674 
L 644.706846 167.647698 
L 650.636084 166.792721 
L 656.565321 165.937744 
L 662.494559 165.082768 
L 668.423797 164.227791 
L 674.353035 163.372815 
L 680.282273 162.517838 
" clip-path="url(#p66af92c32f)" style="fill: none; stroke: #808080; stroke-width: 2.25; stroke-linecap: square"/>
   </g>
   <g id="patch_5">
    <path d="M 63.938 388.672 
L 63.938 27.168 
" style="fill: none; stroke: #000000; stroke-width: 0.8; stroke-linejoin: miter; stroke-linecap: square"/>
   </g>
   <g id="patch_6">
    <path d="M 63.938 388.672 
L 709.632 388.672 
" style="fill: none; stroke: #000000; stroke-width: 0.8; stroke-linejoin: miter; stroke-linecap: square"/>
   </g>
   <g id="text_19">
    <g id="patch_7">
     <path d="M 92.2627 74.254325 
L 209.05645 74.254325 
L 209.05645 41.2832 
L 92.2627 41.2832 
z
" style="fill: #ffffff; opacity: 0.5; stroke: #000000; stroke-linejoin: miter"/>
    </g>
    <!-- R: 0.30 -->
    <g transform="translate(96.2227 54.361325) scale(0.12 -0.12)">
     <defs>
      <path id="DejaVuSans-3a" d="M 750 794 
L 1409 794 
L 1409 0 
L 750 0 
L 750 794 
z
M 750 3309 
L 1409 3309 
L 1409 2516 
L 750 2516 
L 750 3309 
z
" transform="scale(0.015625)"/>
     </defs>
     <use xlink:href="#DejaVuSans-52"/>
     <use xlink:href="#DejaVuSans-3a" transform="translate(66.357422 0)"/>
     <use xlink:href="#DejaVuSans-20" transform="translate(100.048828 0)"/>
     <use xlink:href="#DejaVuSans-30" transform="translate(131.835938 0)"/>
     <use xlink:href="#DejaVuSans-2e" transform="translate(195.458984 0)"/>
     <use xlink:href="#DejaVuSans-33" transform="translate(227.246094 0)"/>
     <use xlink:href="#DejaVuSans-30" transform="translate(290.869141 0)"/>
    </g>
    <!-- P-value: 0.000381 -->
    <g transform="translate(96.2227 67.7987) scale(0.12 -0.12)">
     <defs>
      <path id="DejaVuSans-2d" d="M 313 2009 
L 1997 2009 
L 1997 1497 
L 313 1497 
L 313 2009 
z
" transform="scale(0.015625)"/>
      <path id="DejaVuSans-76" d="M 191 3500 
L 800 3500 
L 1894 563 
L 2988 3500 
L 3597 3500 
L 2284 0 
L 1503 0 
L 191 3500 
z
" transform="scale(0.015625)"/>
      <path id="DejaVuSans-6c" d="M 603 4863 
L 1178 4863 
L 1178 0 
L 603 0 
L 603 4863 
z
" transform="scale(0.015625)"/>
      <path id="DejaVuSans-75" d="M 544 1381 
L 544 3500 
L 1119 3500 
L 1119 1403 
Q 1119 906 1312 657 
Q 1506 409 1894 409 
Q 2359 409 2629 706 
Q 2900 1003 2900 1516 
L 2900 3500 
L 3475 3500 
L 3475 0 
L 2900 0 
L 2900 538 
Q 2691 219 2414 64 
Q 2138 -91 1772 -91 
Q 1169 -91 856 284 
Q 544 659 544 1381 
z
M 1991 3584 
L 1991 3584 
z
" transform="scale(0.015625)"/>
      <path id="DejaVuSans-38" d="M 2034 2216 
Q 1584 2216 1326 1975 
Q 1069 1734 1069 1313 
Q 1069 891 1326 650 
Q 1584 409 2034 409 
Q 2484 409 2743 651 
Q 3003 894 3003 1313 
Q 3003 1734 2745 1975 
Q 2488 2216 2034 2216 
z
M 1403 2484 
Q 997 2584 770 2862 
Q 544 3141 544 3541 
Q 544 4100 942 4425 
Q 1341 4750 2034 4750 
Q 2731 4750 3128 4425 
Q 3525 4100 3525 3541 
Q 3525 3141 3298 2862 
Q 3072 2584 2669 2484 
Q 3125 2378 3379 2068 
Q 3634 1759 3634 1313 
Q 3634 634 3220 271 
Q 2806 -91 2034 -91 
Q 1263 -91 848 271 
Q 434 634 434 1313 
Q 434 1759 690 2068 
Q 947 2378 1403 2484 
z
M 1172 3481 
Q 1172 3119 1398 2916 
Q 1625 2713 2034 2713 
Q 2441 2713 2670 2916 
Q 2900 3119 2900 3481 
Q 2900 3844 2670 4047 
Q 2441 4250 2034 4250 
Q 1625 4250 1398 4047 
Q 1172 3844 1172 3481 
z
" transform="scale(0.015625)"/>
     </defs>
     <use xlink:href="#DejaVuSans-50"/>
     <use xlink:href="#DejaVuSans-2d" transform="translate(58.052734 0)"/>
     <use xlink:href="#DejaVuSans-76" transform="translate(91.511719 0)"/>
     <use xlink:href="#DejaVuSans-61" transform="translate(150.691406 0)"/>
     <use xlink:href="#DejaVuSans-6c" transform="translate(211.970703 0)"/>
     <use xlink:href="#DejaVuSans-75" transform="translate(239.753906 0)"/>
     <use xlink:href="#DejaVuSans-65" transform="translate(303.132812 0)"/>
     <use xlink:href="#DejaVuSans-3a" transform="translate(364.65625 0)"/>
     <use xlink:href="#DejaVuSans-20" transform="translate(398.347656 0)"/>
     <use xlink:href="#DejaVuSans-30" transform="translate(430.134766 0)"/>
     <use xlink:href="#DejaVuSans-2e" transform="translate(493.757812 0)"/>
     <use xlink:href="#DejaVuSans-30" transform="translate(525.544922 0)"/>
     <use xlink:href="#DejaVuSans-30" transform="translate(589.167969 0)"/>
     <use xlink:href="#DejaVuSans-30" transform="translate(652.791016 0)"/>
     <use xlink:href="#DejaVuSans-33" transform="translate(716.414062 0)"/>
     <use xlink:href="#DejaVuSans-38" transform="translate(780.037109 0)"/>
     <use xlink:href="#DejaVuSans-31" transform="translate(843.660156 0)"/>
    </g>
   </g>
   <g id="text_20">
    <!-- Pre vs. Ratio  N=138 -->
    <g transform="translate(314.314219 21.168) scale(0.14 -0.14)">
     <defs>
      <path id="DejaVuSans-73" d="M 2834 3397 
L 2834 2853 
Q 2591 2978 2328 3040 
Q 2066 3103 1784 3103 
Q 1356 3103 1142 2972 
Q 928 2841 928 2578 
Q 928 2378 1081 2264 
Q 1234 2150 1697 2047 
L 1894 2003 
Q 2506 1872 2764 1633 
Q 3022 1394 3022 966 
Q 3022 478 2636 193 
Q 2250 -91 1575 -91 
Q 1294 -91 989 -36 
Q 684 19 347 128 
L 347 722 
Q 666 556 975 473 
Q 1284 391 1588 391 
Q 1994 391 2212 530 
Q 2431 669 2431 922 
Q 2431 1156 2273 1281 
Q 2116 1406 1581 1522 
L 1381 1569 
Q 847 1681 609 1914 
Q 372 2147 372 2553 
Q 372 3047 722 3315 
Q 1072 3584 1716 3584 
Q 2034 3584 2315 3537 
Q 2597 3491 2834 3397 
z
" transform="scale(0.015625)"/>
      <path id="DejaVuSans-4e" d="M 628 4666 
L 1478 4666 
L 3547 763 
L 3547 4666 
L 4159 4666 
L 4159 0 
L 3309 0 
L 1241 3903 
L 1241 0 
L 628 0 
L 628 4666 
z
" transform="scale(0.015625)"/>
      <path id="DejaVuSans-3d" d="M 678 2906 
L 4684 2906 
L 4684 2381 
L 678 2381 
L 678 2906 
z
M 678 1631 
L 4684 1631 
L 4684 1100 
L 678 1100 
L 678 1631 
z
" transform="scale(0.015625)"/>
     </defs>
     <use xlink:href="#DejaVuSans-50"/>
     <use xlink:href="#DejaVuSans-72" transform="translate(58.552734 0)"/>
     <use xlink:href="#DejaVuSans-65" transform="translate(97.416016 0)"/>
     <use xlink:href="#DejaVuSans-20" transform="translate(158.939453 0)"/>
     <use xlink:href="#DejaVuSans-76" transform="translate(190.726562 0)"/>
     <use xlink:href="#DejaVuSans-73" transform="translate(249.90625 0)"/>
     <use xlink:href="#DejaVuSans-2e" transform="translate(302.005859 0)"/>
     <use xlink:href="#DejaVuSans-20" transform="translate(333.792969 0)"/>
     <use xlink:href="#DejaVuSans-52" transform="translate(365.580078 0)"/>
     <use xlink:href="#DejaVuSans-61" transform="translate(432.8125 0)"/>
     <use xlink:href="#DejaVuSans-74" transform="translate(494.091797 0)"/>
     <use xlink:href="#DejaVuSans-69" transform="translate(533.300781 0)"/>
     <use xlink:href="#DejaVuSans-6f" transform="translate(561.083984 0)"/>
     <use xlink:href="#DejaVuSans-20" transform="translate(622.265625 0)"/>
     <use xlink:href="#DejaVuSans-20" transform="translate(654.052734 0)"/>
     <use xlink:href="#DejaVuSans-4e" transform="translate(685.839844 0)"/>
     <use xlink:href="#DejaVuSans-3d" transform="translate(760.644531 0)"/>
     <use xlink:href="#DejaVuSans-31" transform="translate(844.433594 0)"/>
     <use xlink:href="#DejaVuSans-33" transform="translate(908.056641 0)"/>
     <use xlink:href="#DejaVuSans-38" transform="translate(971.679688 0)"/>
    </g>
   </g>
  </g>
 </g>
 <defs>
  <clipPath id="p66af92c32f">
   <rect x="63.938" y="27.168" width="645.694" height="361.504"/>
  </clipPath>
 </defs>
</svg>
